M48
; DRILL file {KiCad (6.0.10)} date Fri Jan  6 10:23:16 2023
; FORMAT={-:-/ absolute / inch / decimal}
; #@! TF.CreationDate,2023-01-06T10:23:16+00:00
; #@! TF.GenerationSoftware,Kicad,Pcbnew,(6.0.10)
; #@! TF.FileFunction,Plated,1,2,PTH
FMAT,2
INCH
; #@! TA.AperFunction,Plated,PTH,ComponentDrill
T1C0.0591
%
G90
G05
T1
X3.3055Y-3.5311
X3.3114Y-2.9799
X3.3114Y-4.0823
X3.3114Y-4.6335
X3.3547Y-2.8343
X3.3547Y-3.3854
X3.3547Y-3.9366
X3.3547Y-4.4878
X3.4433Y-4.6335
X3.4453Y-4.0823
X3.4472Y-2.9799
X3.4492Y-3.5272
X3.4669Y-2.8362
X3.4669Y-3.3835
X3.4669Y-3.9366
X3.4669Y-4.4858
X4.0512Y-4.8646
X4.1354Y-5.0637
X4.2169Y-5.2927
X4.2507Y-4.7982
X4.3579Y-5.213
X4.4161Y-2.4154
X4.4175Y-4.7965
X4.5091Y-2.452
X4.5953Y-2.4531
X4.6303Y-5.4031
X4.6598Y-5.2516
X4.6783Y-2.4075
X4.8949Y-2.4079
X4.9776Y-2.4358
X5.073Y-2.4559
X5.1276Y-2.524
X5.1323Y-5.0685
X5.1697Y-5.2693
X5.1875Y-2.4626
X5.2618Y-2.498
X5.4197Y-4.2496
X5.5417Y-4.0114
X5.6421Y-5.1374
X5.6559Y-4.039
X5.6835Y-5.2673
X6.1598Y-5.2693
X6.9157Y-2.8736
X7.2799Y-4.3224
X7.5614Y-2.728
X7.7642Y-5.3598
X7.8803Y-5.3598
T0
M30
