%TF.GenerationSoftware,KiCad,Pcbnew,(6.0.10)*%
%TF.CreationDate,2023-01-06T10:16:34+00:00*%
%TF.ProjectId,test_board_boost,74657374-5f62-46f6-9172-645f626f6f73,rev?*%
%TF.SameCoordinates,Original*%
%TF.FileFunction,Soldermask,Bot*%
%TF.FilePolarity,Negative*%
%FSLAX46Y46*%
G04 Gerber Fmt 4.6, Leading zero omitted, Abs format (unit mm)*
G04 Created by KiCad (PCBNEW (6.0.10)) date 2023-01-06 10:16:34*
%MOMM*%
%LPD*%
G01*
G04 APERTURE LIST*
G04 Aperture macros list*
%AMRoundRect*
0 Rectangle with rounded corners*
0 $1 Rounding radius*
0 $2 $3 $4 $5 $6 $7 $8 $9 X,Y pos of 4 corners*
0 Add a 4 corners polygon primitive as box body*
4,1,4,$2,$3,$4,$5,$6,$7,$8,$9,$2,$3,0*
0 Add four circle primitives for the rounded corners*
1,1,$1+$1,$2,$3*
1,1,$1+$1,$4,$5*
1,1,$1+$1,$6,$7*
1,1,$1+$1,$8,$9*
0 Add four rect primitives between the rounded corners*
20,1,$1+$1,$2,$3,$4,$5,0*
20,1,$1+$1,$4,$5,$6,$7,0*
20,1,$1+$1,$6,$7,$8,$9,0*
20,1,$1+$1,$8,$9,$2,$3,0*%
G04 Aperture macros list end*
%ADD10C,2.000000*%
%ADD11RoundRect,0.500000X-0.500000X0.500000X-0.500000X-0.500000X0.500000X-0.500000X0.500000X0.500000X0*%
%ADD12C,1.200000*%
%ADD13O,1.700000X1.700000*%
%ADD14R,1.700000X1.700000*%
G04 APERTURE END LIST*
D10*
%TO.C,J14*%
X170595000Y-93570000D03*
X170595000Y-89760000D03*
X170595000Y-85950000D03*
D11*
X170595000Y-82140000D03*
%TD*%
D10*
%TO.C,J15*%
X170565000Y-76610000D03*
X170565000Y-72800000D03*
X170565000Y-68990000D03*
D11*
X170565000Y-65180000D03*
%TD*%
D12*
%TO.C,J13*%
X158410000Y-70844000D03*
X158410000Y-72876000D03*
X163490000Y-71860000D03*
%TD*%
D13*
%TO.C,J11*%
X99320000Y-63415000D03*
X99320000Y-65955000D03*
X101860000Y-63415000D03*
X101860000Y-65955000D03*
X104400000Y-63415000D03*
X104400000Y-65955000D03*
X106940000Y-63415000D03*
X106940000Y-65955000D03*
X109480000Y-63415000D03*
D14*
X109480000Y-65955000D03*
%TD*%
D13*
%TO.C,J10*%
X109165000Y-126795802D03*
X109165000Y-124255802D03*
X106625000Y-126795802D03*
X106625000Y-124255802D03*
X104085000Y-126795802D03*
X104085000Y-124255802D03*
X101545000Y-126795802D03*
X101545000Y-124255802D03*
X99005000Y-126795802D03*
X99005000Y-124255802D03*
X96465000Y-126795802D03*
D14*
X96465000Y-124255802D03*
%TD*%
D13*
%TO.C,J9*%
X164740155Y-126795802D03*
X164740155Y-124255802D03*
X162200155Y-126795802D03*
X162200155Y-124255802D03*
X159660155Y-126795802D03*
X159660155Y-124255802D03*
X157120155Y-126795802D03*
X157120155Y-124255802D03*
X154580155Y-126795802D03*
X154580155Y-124255802D03*
X152040155Y-126795802D03*
D14*
X152040155Y-124255802D03*
%TD*%
D13*
%TO.C,J12*%
X132175000Y-61565000D03*
X132175000Y-64105000D03*
X134715000Y-61565000D03*
X134715000Y-64105000D03*
X137255000Y-61565000D03*
X137255000Y-64105000D03*
X139795000Y-61565000D03*
X139795000Y-64105000D03*
X142335000Y-61565000D03*
X142335000Y-64105000D03*
X144875000Y-61565000D03*
D14*
X144875000Y-64105000D03*
%TD*%
M02*
