%TF.GenerationSoftware,KiCad,Pcbnew,(6.0.10)*%
%TF.CreationDate,2023-01-06T10:16:34+00:00*%
%TF.ProjectId,test_board_boost,74657374-5f62-46f6-9172-645f626f6f73,rev?*%
%TF.SameCoordinates,Original*%
%TF.FileFunction,Legend,Bot*%
%TF.FilePolarity,Positive*%
%FSLAX46Y46*%
G04 Gerber Fmt 4.6, Leading zero omitted, Abs format (unit mm)*
G04 Created by KiCad (PCBNEW (6.0.10)) date 2023-01-06 10:16:34*
%MOMM*%
%LPD*%
G01*
G04 APERTURE LIST*
%ADD10C,0.150000*%
%ADD11C,0.120000*%
G04 APERTURE END LIST*
D10*
%TO.C,J11*%
X111262380Y-63875476D02*
X111976666Y-63875476D01*
X112119523Y-63827857D01*
X112214761Y-63732619D01*
X112262380Y-63589761D01*
X112262380Y-63494523D01*
X112262380Y-64875476D02*
X112262380Y-64304047D01*
X112262380Y-64589761D02*
X111262380Y-64589761D01*
X111405238Y-64494523D01*
X111500476Y-64399285D01*
X111548095Y-64304047D01*
X112262380Y-65827857D02*
X112262380Y-65256428D01*
X112262380Y-65542142D02*
X111262380Y-65542142D01*
X111405238Y-65446904D01*
X111500476Y-65351666D01*
X111548095Y-65256428D01*
%TO.C,J10*%
X93587380Y-124716278D02*
X94301666Y-124716278D01*
X94444523Y-124668659D01*
X94539761Y-124573421D01*
X94587380Y-124430563D01*
X94587380Y-124335325D01*
X94587380Y-125716278D02*
X94587380Y-125144849D01*
X94587380Y-125430563D02*
X93587380Y-125430563D01*
X93730238Y-125335325D01*
X93825476Y-125240087D01*
X93873095Y-125144849D01*
X93587380Y-126335325D02*
X93587380Y-126430563D01*
X93635000Y-126525802D01*
X93682619Y-126573421D01*
X93777857Y-126621040D01*
X93968333Y-126668659D01*
X94206428Y-126668659D01*
X94396904Y-126621040D01*
X94492142Y-126573421D01*
X94539761Y-126525802D01*
X94587380Y-126430563D01*
X94587380Y-126335325D01*
X94539761Y-126240087D01*
X94492142Y-126192468D01*
X94396904Y-126144849D01*
X94206428Y-126097230D01*
X93968333Y-126097230D01*
X93777857Y-126144849D01*
X93682619Y-126192468D01*
X93635000Y-126240087D01*
X93587380Y-126335325D01*
%TO.C,J9*%
X149162535Y-125192468D02*
X149876821Y-125192468D01*
X150019678Y-125144849D01*
X150114916Y-125049611D01*
X150162535Y-124906754D01*
X150162535Y-124811516D01*
X150162535Y-125716278D02*
X150162535Y-125906754D01*
X150114916Y-126001992D01*
X150067297Y-126049611D01*
X149924440Y-126144849D01*
X149733964Y-126192468D01*
X149353012Y-126192468D01*
X149257774Y-126144849D01*
X149210155Y-126097230D01*
X149162535Y-126001992D01*
X149162535Y-125811516D01*
X149210155Y-125716278D01*
X149257774Y-125668659D01*
X149353012Y-125621040D01*
X149591107Y-125621040D01*
X149686345Y-125668659D01*
X149733964Y-125716278D01*
X149781583Y-125811516D01*
X149781583Y-126001992D01*
X149733964Y-126097230D01*
X149686345Y-126144849D01*
X149591107Y-126192468D01*
%TO.C,J12*%
X146657380Y-62025476D02*
X147371666Y-62025476D01*
X147514523Y-61977857D01*
X147609761Y-61882619D01*
X147657380Y-61739761D01*
X147657380Y-61644523D01*
X147657380Y-63025476D02*
X147657380Y-62454047D01*
X147657380Y-62739761D02*
X146657380Y-62739761D01*
X146800238Y-62644523D01*
X146895476Y-62549285D01*
X146943095Y-62454047D01*
X146752619Y-63406428D02*
X146705000Y-63454047D01*
X146657380Y-63549285D01*
X146657380Y-63787380D01*
X146705000Y-63882619D01*
X146752619Y-63930238D01*
X146847857Y-63977857D01*
X146943095Y-63977857D01*
X147085952Y-63930238D01*
X147657380Y-63358809D01*
X147657380Y-63977857D01*
D11*
%TO.C,J11*%
X110810000Y-67285000D02*
X110810000Y-65955000D01*
X108210000Y-64685000D02*
X110810000Y-64685000D01*
X108210000Y-67285000D02*
X108210000Y-64685000D01*
X110810000Y-64685000D02*
X110810000Y-62085000D01*
X110810000Y-62085000D02*
X97990000Y-62085000D01*
X108210000Y-67285000D02*
X97990000Y-67285000D01*
X97990000Y-67285000D02*
X97990000Y-62085000D01*
X109480000Y-67285000D02*
X110810000Y-67285000D01*
%TO.C,J10*%
X110495000Y-122925802D02*
X110495000Y-128125802D01*
X97735000Y-122925802D02*
X110495000Y-122925802D01*
X97735000Y-122925802D02*
X97735000Y-125525802D01*
X95135000Y-122925802D02*
X95135000Y-124255802D01*
X95135000Y-128125802D02*
X110495000Y-128125802D01*
X97735000Y-125525802D02*
X95135000Y-125525802D01*
X96465000Y-122925802D02*
X95135000Y-122925802D01*
X95135000Y-125525802D02*
X95135000Y-128125802D01*
%TO.C,J9*%
X150710155Y-122925802D02*
X150710155Y-124255802D01*
X153310155Y-125525802D02*
X150710155Y-125525802D01*
X150710155Y-128125802D02*
X166070155Y-128125802D01*
X153310155Y-122925802D02*
X153310155Y-125525802D01*
X166070155Y-122925802D02*
X166070155Y-128125802D01*
X153310155Y-122925802D02*
X166070155Y-122925802D01*
X150710155Y-125525802D02*
X150710155Y-128125802D01*
X152040155Y-122925802D02*
X150710155Y-122925802D01*
%TO.C,J12*%
X143605000Y-62835000D02*
X146205000Y-62835000D01*
X146205000Y-65435000D02*
X146205000Y-64105000D01*
X144875000Y-65435000D02*
X146205000Y-65435000D01*
X143605000Y-65435000D02*
X130845000Y-65435000D01*
X130845000Y-65435000D02*
X130845000Y-60235000D01*
X146205000Y-62835000D02*
X146205000Y-60235000D01*
X143605000Y-65435000D02*
X143605000Y-62835000D01*
X146205000Y-60235000D02*
X130845000Y-60235000D01*
%TD*%
M02*
