M48
; DRILL file {KiCad (6.0.10)} date Fri Jan  6 10:11:43 2023
; FORMAT={-:-/ absolute / inch / decimal}
; #@! TF.CreationDate,2023-01-06T10:11:43+00:00
; #@! TF.GenerationSoftware,Kicad,Pcbnew,(6.0.10)
; #@! TF.FileFunction,Plated,1,4,PTH
FMAT,2
INCH
; #@! TA.AperFunction,Plated,PTH,ViaDrill
T1C0.0138
; #@! TA.AperFunction,Plated,PTH,ViaDrill
T2C0.0157
; #@! TA.AperFunction,Plated,PTH,ComponentDrill
T3C0.0390
; #@! TA.AperFunction,Plated,PTH,ComponentDrill
T4C0.0394
; #@! TA.AperFunction,Plated,PTH,ComponentDrill
T5C0.0591
%
G90
G05
T1
X4.1457Y-2.9094
X5.8031Y-2.878
X5.9606Y-2.8976
X6.0433Y-2.8957
T2
X3.4016Y-2.7689
X3.4016Y-2.9674
X3.4016Y-3.1658
X3.4016Y-3.3643
X3.4016Y-3.5627
X3.4016Y-3.7612
X3.4016Y-3.9596
X3.4016Y-4.1581
X3.4016Y-4.3565
X3.4016Y-4.555
X3.4017Y-2.5705
X3.402Y-4.7534
X3.4573Y-2.3826
X3.4622Y-4.9398
X3.5687Y-3.7384
X3.5691Y-2.8332
X3.5692Y-3.5521
X3.5697Y-3.0158
X3.5733Y-3.199
X3.5805Y-3.3671
X3.603Y-2.2517
X3.6037Y-4.6793
X3.6111Y-5.0672
X3.6148Y-4.4117
X3.625Y-4.0151
X3.6335Y-2.6862
X3.6373Y-2.4778
X3.641Y-3.8775
X3.6821Y-3.4115
X3.6949Y-2.7826
X3.701Y-4.1544
X3.7096Y-3.924
X3.7121Y-3.1309
X3.7182Y-3.4574
X3.7253Y-4.9452
X3.7344Y-2.7531
X3.7475Y-3.2182
X3.7535Y-2.9596
X3.7614Y-3.392
X3.7671Y-3.4521
X3.7724Y-3.8743
X3.7768Y-3.5643
X3.7789Y-3.6741
X3.7904Y-4.0285
X3.7919Y-3.0276
X3.7957Y-2.2146
X3.7961Y-2.7585
X3.8004Y-4.4305
X3.803Y-2.8075
X3.8047Y-5.1004
X3.8069Y-4.8149
X3.8345Y-2.6111
X3.8383Y-3.0109
X3.8652Y-2.434
X3.877Y-3.4745
X3.8888Y-3.6427
X3.927Y-3.1094
X3.9277Y-3.2315
X3.9278Y-2.8205
X3.929Y-4.62
X3.9297Y-3.9377
X3.9306Y-2.7432
X3.9606Y-2.9339
X3.9833Y-3.3059
X3.9937Y-4.8166
X3.9942Y-2.2146
X4.0031Y-5.1004
X4.0297Y-3.3524
X4.0457Y-2.4399
X4.0585Y-2.5434
X4.0597Y-4.4137
X4.0608Y-2.642
X4.0699Y-4.0168
X4.0703Y-3.2357
X4.0754Y-3.602
X4.0809Y-3.5611
X4.0821Y-3.4749
X4.0837Y-3.7469
X4.1136Y-3.1035
X4.1142Y-3.8756
X4.1273Y-3.3502
X4.1456Y-4.1563
X4.1477Y-2.6625
X4.1481Y-2.9704
X4.1518Y-2.8504
X4.1526Y-3.3079
X4.1584Y-3.2287
X4.1585Y-2.5434
X4.1761Y-4.818
X4.1762Y-3.3886
X4.1926Y-2.2146
X4.2014Y-3.8013
X4.2016Y-5.1004
X4.2018Y-3.8512
X4.2063Y-3.7214
X4.2077Y-3.0169
X4.2162Y-2.3982
X4.2353Y-4.0308
X4.2353Y-3.4989
X4.2453Y-4.4325
X4.2545Y-3.1969
X4.2749Y-3.3502
X4.2911Y-3.1543
X4.2935Y-2.9728
X4.2936Y-3.069
X4.2943Y-2.8818
X4.297Y-2.7382
X4.3164Y-3.2347
X4.3358Y-3.7176
X4.3579Y-4.8434
X4.3593Y-3.5218
X4.3768Y-3.9754
X4.3848Y-3.3177
X4.3911Y-2.2146
X4.3917Y-4.579
X4.396Y-2.44
X4.3978Y-3.8902
X4.4Y-5.1004
X4.4089Y-3.0769
X4.4226Y-2.9067
X4.4405Y-3.5263
X4.4422Y-4.3875
X4.4548Y-3.2899
X4.4638Y-2.6359
X4.4754Y-4.6832
X4.4845Y-2.8848
X4.5033Y-2.6882
X4.5123Y-2.7375
X4.5173Y-3.4981
X4.5177Y-4.1104
X4.5258Y-3.6287
X4.5513Y-4.3317
X4.5545Y-3.7004
X4.5671Y-2.9006
X4.5698Y-4.8573
X4.5766Y-3.2602
X4.585Y-3.3155
X4.5853Y-2.4582
X4.5895Y-2.2146
X4.5982Y-3.7238
X4.5985Y-5.1004
X4.6016Y-4.0321
X4.602Y-3.6695
X4.6041Y-2.9539
X4.6308Y-4.4863
X4.6321Y-4.6871
X4.6356Y-2.7524
X4.6385Y-3.2377
X4.6604Y-3.037
X4.661Y-2.6055
X4.6619Y-2.8336
X4.6632Y-3.5075
X4.6683Y-3.9923
X4.6715Y-3.0894
X4.6794Y-3.1623
X4.6809Y-3.9447
X4.6825Y-4.1759
X4.688Y-4.1268
X4.6929Y-2.6883
X4.6977Y-3.4243
X4.7124Y-2.6429
X4.7138Y-3.5723
X4.7185Y-3.7317
X4.7313Y-4.0209
X4.7464Y-2.58
X4.7528Y-4.8427
X4.7762Y-2.4736
X4.788Y-2.2146
X4.7969Y-5.1004
X4.812Y-3.1524
X4.8139Y-2.58
X4.814Y-2.9831
X4.8164Y-4.2161
X4.8251Y-4.5893
X4.832Y-4.403
X4.8433Y-3.4724
X4.8463Y-3.2888
X4.8463Y-3.0202
X4.8486Y-3.4232
X4.863Y-2.5762
X4.877Y-4.172
X4.877Y-4.3827
X4.877Y-4.4969
X4.8847Y-3.5585
X4.9357Y-4.1266
X4.9357Y-4.2647
X4.9368Y-4.0402
X4.9415Y-3.218
X4.9494Y-4.8642
X4.9619Y-3.913
X4.965Y-2.695
X4.9714Y-2.478
X4.9716Y-2.5834
X4.9865Y-2.2146
X4.9923Y-3.2016
X4.9954Y-5.1004
X4.9982Y-3.3848
X5.0022Y-4.6111
X5.0138Y-2.9644
X5.0197Y-4.4232
X5.0333Y-2.7075
X5.0541Y-2.613
X5.0581Y-4.1167
X5.0581Y-4.3846
X5.0581Y-4.4909
X5.064Y-3.0028
X5.0862Y-3.5668
X5.1036Y-2.6125
X5.1038Y-3.4817
X5.1148Y-2.836
X5.1191Y-4.2433
X5.1291Y-2.4433
X5.1309Y-3.5457
X5.1325Y-3.3311
X5.1423Y-4.026
X5.1477Y-4.8586
X5.1532Y-2.8669
X5.1572Y-3.9552
X5.1658Y-3.7078
X5.1817Y-2.961
X5.1833Y-4.598
X5.1849Y-2.2146
X5.1914Y-4.0309
X5.1938Y-5.1004
X5.2002Y-4.41
X5.2037Y-3.1642
X5.223Y-2.6339
X5.2411Y-4.3827
X5.2411Y-4.485
X5.2546Y-2.3658
X5.2628Y-3.0542
X5.273Y-2.9273
X5.2787Y-2.7955
X5.2871Y-3.0971
X5.2939Y-2.5902
X5.3018Y-4.257
X5.303Y-4.0529
X5.3045Y-3.8097
X5.3059Y-3.2504
X5.3167Y-3.0713
X5.3368Y-2.9323
X5.3431Y-2.7941
X5.3459Y-3.5579
X5.346Y-4.8639
X5.3605Y-3.7027
X5.365Y-4.0882
X5.3691Y-2.6713
X5.3725Y-4.5787
X5.3736Y-4.3923
X5.3818Y-2.6216
X5.3834Y-2.2146
X5.3923Y-5.1004
X5.3993Y-4.0687
X5.4041Y-3.2028
X5.4124Y-3.4012
X5.4144Y-3.0724
X5.4175Y-3.4504
X5.4183Y-3.5717
X5.4203Y-4.485
X5.4222Y-4.3846
X5.4262Y-2.9276
X5.427Y-2.7953
X5.4314Y-2.3628
X5.4592Y-2.4739
X5.4699Y-4.6488
X5.4705Y-3.9376
X5.4742Y-4.2747
X5.488Y-3.4748
X5.5175Y-2.6768
X5.5176Y-2.8029
X5.5252Y-3.2602
X5.526Y-4.1548
X5.5342Y-3.9851
X5.5428Y-4.8433
X5.5465Y-3.0071
X5.5817Y-3.9988
X5.5818Y-2.2146
X5.5908Y-5.1004
X5.5976Y-3.1933
X5.6046Y-3.3209
X5.6199Y-3.6432
X5.6278Y-2.8264
X5.6319Y-4.3051
X5.6463Y-2.7014
X5.6642Y-4.6883
X5.6652Y-2.6331
X5.6678Y-2.9888
X5.6681Y-4.1395
X5.6698Y-3.5072
X5.6835Y-3.8979
X5.6931Y-3.0933
X5.6967Y-4.5206
X5.7119Y-4.8752
X5.7213Y-3.9686
X5.7431Y-3.6071
X5.7659Y-3.0232
X5.7713Y-2.6918
X5.7735Y-3.399
X5.7801Y-2.416
X5.7803Y-2.2146
X5.7882Y-2.9907
X5.789Y-3.6263
X5.7892Y-5.1004
X5.7967Y-4.2797
X5.8096Y-2.6606
X5.8096Y-3.3465
X5.8228Y-2.5792
X5.825Y-2.8088
X5.8368Y-3.1823
X5.8478Y-2.9512
X5.851Y-2.8555
X5.8514Y-2.7392
X5.8611Y-3.1513
X5.8722Y-2.9165
X5.879Y-3.3332
X5.8864Y-3.439
X5.8897Y-4.4709
X5.8961Y-3.9152
X5.9065Y-3.2921
X5.9112Y-2.8965
X5.9133Y-4.9452
X5.9233Y-2.7155
X5.9341Y-3.0913
X5.9362Y-3.764
X5.9434Y-3.2523
X5.9449Y-3.5336
X5.9621Y-3.6201
X5.9629Y-4.618
X5.9787Y-2.2146
X5.9833Y-3.5756
X5.9877Y-5.1004
X5.994Y-2.416
X5.9949Y-4.8149
X5.9956Y-3.2001
X6.0002Y-2.885
X6.0136Y-2.7291
X6.0168Y-2.6019
X6.0351Y-3.1992
X6.0359Y-3.1598
X6.0495Y-4.5232
X6.0553Y-2.8512
X6.064Y-3.0858
X6.0672Y-3.8384
X6.0763Y-4.0467
X6.0763Y-2.7318
X6.0782Y-4.2334
X6.0807Y-3.1504
X6.093Y-3.9152
X6.0935Y-2.9063
X6.1018Y-3.1854
X6.1348Y-2.9409
X6.1427Y-3.8482
X6.1649Y-4.6191
X6.1704Y-3.289
X6.1732Y-2.9497
X6.1772Y-2.2146
X6.1817Y-4.8166
X6.1822Y-4.3234
X6.1861Y-5.1004
X6.1895Y-2.8218
X6.19Y-3.8374
X6.1907Y-2.6476
X6.1923Y-3.2449
X6.1926Y-3.4695
X6.1954Y-4.1124
X6.2079Y-2.416
X6.2164Y-2.9226
X6.2246Y-3.6106
X6.2246Y-3.652
X6.2295Y-2.7318
X6.2392Y-3.3642
X6.2392Y-3.9063
X6.2406Y-3.8477
X6.2411Y-4.1307
X6.2424Y-2.9826
X6.2487Y-4.5325
X6.2659Y-3.0142
X6.2708Y-3.265
X6.2726Y-3.7016
X6.2789Y-2.7213
X6.28Y-3.8463
X6.2998Y-3.0354
X6.301Y-4.1382
X6.3196Y-3.1212
X6.3442Y-2.4158
X6.3497Y-3.6287
X6.3528Y-3.8482
X6.3533Y-2.7213
X6.3556Y-4.3279
X6.3599Y-2.5652
X6.3641Y-4.818
X6.3652Y-4.1543
X6.3671Y-3.9063
X6.3725Y-2.9607
X6.3756Y-2.2146
X6.3825Y-2.6431
X6.3846Y-5.1004
X6.3995Y-4.191
X6.4056Y-4.0945
X6.4123Y-2.6036
X6.4126Y-3.8482
X6.4158Y-3.4955
X6.4163Y-4.1445
X6.4288Y-3.9617
X6.4309Y-3.0812
X6.4377Y-3.7424
X6.4489Y-4.5364
X6.47Y-3.9053
X6.4892Y-3.8482
X6.4947Y-2.5277
X6.499Y-2.9181
X6.504Y-3.3455
X6.5196Y-3.6186
X6.5227Y-3.8098
X6.5325Y-4.1733
X6.5335Y-4.3297
X6.5459Y-4.8434
X6.5474Y-2.908
X6.5505Y-3.1788
X6.5603Y-2.7656
X6.5738Y-2.2192
X6.5826Y-5.0945
X6.5882Y-3.9617
X6.6212Y-3.4955
X6.643Y-3.723
X6.6448Y-4.4972
X6.6461Y-2.6058
X6.6551Y-3.0717
X6.6579Y-3.8886
X6.6597Y-3.58
X6.6689Y-2.9227
X6.6772Y-2.4965
X6.6811Y-4.6315
X6.6923Y-3.3149
X6.7234Y-4.0406
X6.7404Y-3.4528
X6.7428Y-2.9336
X6.7442Y-3.1615
X6.7461Y-2.8002
X6.7517Y-2.3011
X6.7585Y-5.008
X6.7862Y-3.7445
X6.8604Y-2.4641
X6.863Y-4.8423
X6.8779Y-2.6607
X6.8779Y-2.8592
X6.8779Y-3.0576
X6.8779Y-3.2561
X6.8779Y-3.4546
X6.8779Y-3.653
X6.8779Y-3.8515
X6.8779Y-4.0499
X6.8779Y-4.2484
X6.8779Y-4.4468
X6.8779Y-4.6453
T3
X6.2366Y-2.7891
X6.2366Y-2.8691
X6.4366Y-2.8291
T4
X3.7978Y-4.892
X3.7978Y-4.992
X3.8978Y-4.892
X3.8978Y-4.992
X3.9102Y-2.4967
X3.9102Y-2.5967
X3.9978Y-4.892
X3.9978Y-4.992
X4.0102Y-2.4967
X4.0102Y-2.5967
X4.0978Y-4.892
X4.0978Y-4.992
X4.1102Y-2.4967
X4.1102Y-2.5967
X4.1978Y-4.892
X4.1978Y-4.992
X4.2102Y-2.4967
X4.2102Y-2.5967
X4.2978Y-4.892
X4.2978Y-4.992
X4.3102Y-2.4967
X4.3102Y-2.5967
X5.2037Y-2.4238
X5.2037Y-2.5238
X5.3037Y-2.4238
X5.3037Y-2.5238
X5.4037Y-2.4238
X5.4037Y-2.5238
X5.5037Y-2.4238
X5.5037Y-2.5238
X5.6037Y-2.4238
X5.6037Y-2.5238
X5.7037Y-2.4238
X5.7037Y-2.5238
X5.9858Y-4.892
X5.9858Y-4.992
X6.0858Y-4.892
X6.0858Y-4.992
X6.1858Y-4.892
X6.1858Y-4.992
X6.2858Y-4.892
X6.2858Y-4.992
X6.3858Y-4.892
X6.3858Y-4.992
X6.4858Y-4.892
X6.4858Y-4.992
T5
X6.7152Y-2.5661
X6.7152Y-2.7161
X6.7152Y-2.8661
X6.7152Y-3.0161
X6.7163Y-3.2339
X6.7163Y-3.3839
X6.7163Y-3.5339
X6.7163Y-3.6839
T0
M30
