%TF.GenerationSoftware,KiCad,Pcbnew,(6.0.10)*%
%TF.CreationDate,2023-01-06T10:16:34+00:00*%
%TF.ProjectId,test_board_boost,74657374-5f62-46f6-9172-645f626f6f73,rev?*%
%TF.SameCoordinates,Original*%
%TF.FileFunction,Soldermask,Top*%
%TF.FilePolarity,Negative*%
%FSLAX46Y46*%
G04 Gerber Fmt 4.6, Leading zero omitted, Abs format (unit mm)*
G04 Created by KiCad (PCBNEW (6.0.10)) date 2023-01-06 10:16:34*
%MOMM*%
%LPD*%
G01*
G04 APERTURE LIST*
G04 Aperture macros list*
%AMRoundRect*
0 Rectangle with rounded corners*
0 $1 Rounding radius*
0 $2 $3 $4 $5 $6 $7 $8 $9 X,Y pos of 4 corners*
0 Add a 4 corners polygon primitive as box body*
4,1,4,$2,$3,$4,$5,$6,$7,$8,$9,$2,$3,0*
0 Add four circle primitives for the rounded corners*
1,1,$1+$1,$2,$3*
1,1,$1+$1,$4,$5*
1,1,$1+$1,$6,$7*
1,1,$1+$1,$8,$9*
0 Add four rect primitives between the rounded corners*
20,1,$1+$1,$2,$3,$4,$5,0*
20,1,$1+$1,$4,$5,$6,$7,0*
20,1,$1+$1,$6,$7,$8,$9,0*
20,1,$1+$1,$8,$9,$2,$3,0*%
%AMRotRect*
0 Rectangle, with rotation*
0 The origin of the aperture is its center*
0 $1 length*
0 $2 width*
0 $3 Rotation angle, in degrees counterclockwise*
0 Add horizontal line*
21,1,$1,$2,0,0,$3*%
G04 Aperture macros list end*
%ADD10C,2.000000*%
%ADD11RoundRect,0.500000X-0.500000X0.500000X-0.500000X-0.500000X0.500000X-0.500000X0.500000X0.500000X0*%
%ADD12RoundRect,0.250000X-0.350000X-0.450000X0.350000X-0.450000X0.350000X0.450000X-0.350000X0.450000X0*%
%ADD13RoundRect,0.250000X0.450000X-0.350000X0.450000X0.350000X-0.450000X0.350000X-0.450000X-0.350000X0*%
%ADD14RoundRect,0.250000X-0.450000X0.350000X-0.450000X-0.350000X0.450000X-0.350000X0.450000X0.350000X0*%
%ADD15RoundRect,0.250000X0.337500X0.475000X-0.337500X0.475000X-0.337500X-0.475000X0.337500X-0.475000X0*%
%ADD16RoundRect,0.150000X0.150000X-0.587500X0.150000X0.587500X-0.150000X0.587500X-0.150000X-0.587500X0*%
%ADD17RoundRect,0.160000X0.160000X-0.222500X0.160000X0.222500X-0.160000X0.222500X-0.160000X-0.222500X0*%
%ADD18R,1.560000X0.650000*%
%ADD19RoundRect,0.250000X-0.337500X-0.475000X0.337500X-0.475000X0.337500X0.475000X-0.337500X0.475000X0*%
%ADD20RoundRect,0.250000X-0.475000X0.337500X-0.475000X-0.337500X0.475000X-0.337500X0.475000X0.337500X0*%
%ADD21RoundRect,0.250000X-1.000000X1.750000X-1.000000X-1.750000X1.000000X-1.750000X1.000000X1.750000X0*%
%ADD22R,0.450000X0.600000*%
%ADD23R,2.100000X1.400000*%
%ADD24R,1.020000X1.780000*%
%ADD25R,1.400000X2.100000*%
%ADD26RoundRect,0.250000X0.475000X-0.337500X0.475000X0.337500X-0.475000X0.337500X-0.475000X-0.337500X0*%
%ADD27R,0.650000X1.560000*%
%ADD28R,0.990000X0.690000*%
%ADD29RoundRect,0.150000X-0.800000X-0.150000X0.800000X-0.150000X0.800000X0.150000X-0.800000X0.150000X0*%
%ADD30C,0.787000*%
%ADD31C,1.200000*%
%ADD32RotRect,1.500000X0.550000X45.000000*%
%ADD33RotRect,1.500000X0.550000X315.000000*%
%ADD34RoundRect,0.250000X0.350000X0.450000X-0.350000X0.450000X-0.350000X-0.450000X0.350000X-0.450000X0*%
%ADD35O,1.700000X1.700000*%
%ADD36R,1.700000X1.700000*%
G04 APERTURE END LIST*
D10*
%TO.C,J14*%
X170595000Y-93570000D03*
X170595000Y-89760000D03*
X170595000Y-85950000D03*
D11*
X170595000Y-82140000D03*
%TD*%
D12*
%TO.C,R34*%
X151405000Y-70910000D03*
X149405000Y-70910000D03*
%TD*%
D13*
%TO.C,R22*%
X121435000Y-83850000D03*
X121435000Y-85850000D03*
%TD*%
D14*
%TO.C,R39*%
X141665000Y-74710000D03*
X141665000Y-72710000D03*
%TD*%
D15*
%TO.C,C2*%
X101887500Y-70700000D03*
X103962500Y-70700000D03*
%TD*%
D12*
%TO.C,R9*%
X100555000Y-96822500D03*
X98555000Y-96822500D03*
%TD*%
D16*
%TO.C,D10*%
X165575000Y-102457500D03*
X163675000Y-102457500D03*
X164625000Y-100582500D03*
%TD*%
D14*
%TO.C,R11*%
X92215000Y-76110000D03*
X92215000Y-74110000D03*
%TD*%
D13*
%TO.C,R21*%
X132385000Y-90680000D03*
X132385000Y-92680000D03*
%TD*%
D12*
%TO.C,R44*%
X134665000Y-76230000D03*
X132665000Y-76230000D03*
%TD*%
%TO.C,R40*%
X134685000Y-69480000D03*
X132685000Y-69480000D03*
%TD*%
D14*
%TO.C,R7*%
X92195000Y-92767500D03*
X92195000Y-90767500D03*
%TD*%
D17*
%TO.C,D4*%
X133058333Y-116137500D03*
X133058333Y-117282500D03*
%TD*%
D16*
%TO.C,D13*%
X157675000Y-108357500D03*
X155775000Y-108357500D03*
X156725000Y-106482500D03*
%TD*%
%TO.C,D11*%
X161775000Y-108357500D03*
X159875000Y-108357500D03*
X160825000Y-106482500D03*
%TD*%
D12*
%TO.C,R14*%
X112375000Y-72180000D03*
X110375000Y-72180000D03*
%TD*%
D16*
%TO.C,D14*%
X157645000Y-102437500D03*
X155745000Y-102437500D03*
X156695000Y-100562500D03*
%TD*%
%TO.C,D9*%
X169625000Y-102457500D03*
X167725000Y-102457500D03*
X168675000Y-100582500D03*
%TD*%
D10*
%TO.C,J15*%
X170565000Y-76610000D03*
X170565000Y-72800000D03*
X170565000Y-68990000D03*
D11*
X170565000Y-65180000D03*
%TD*%
D18*
%TO.C,U5*%
X110905000Y-95622500D03*
X110905000Y-96572500D03*
X110905000Y-97522500D03*
X108205000Y-97522500D03*
X108205000Y-96572500D03*
X108205000Y-95622500D03*
%TD*%
D14*
%TO.C,R36*%
X144965000Y-70170000D03*
X144965000Y-68170000D03*
%TD*%
%TO.C,R52*%
X133125000Y-109620000D03*
X133125000Y-107620000D03*
%TD*%
D16*
%TO.C,D8*%
X165725000Y-108387500D03*
X163825000Y-108387500D03*
X164775000Y-106512500D03*
%TD*%
D19*
%TO.C,C17*%
X136762500Y-92500000D03*
X134687500Y-92500000D03*
%TD*%
D20*
%TO.C,C6*%
X108955000Y-93120000D03*
X108955000Y-91045000D03*
%TD*%
D21*
%TO.C,C13*%
X94175000Y-110670000D03*
X94175000Y-102670000D03*
%TD*%
D22*
%TO.C,D1*%
X96985000Y-90042500D03*
X96985000Y-87942500D03*
%TD*%
D20*
%TO.C,C3*%
X95915000Y-96970000D03*
X95915000Y-94895000D03*
%TD*%
D13*
%TO.C,R20*%
X121425000Y-87830000D03*
X121425000Y-89830000D03*
%TD*%
D15*
%TO.C,C1*%
X100207500Y-87232500D03*
X102282500Y-87232500D03*
%TD*%
D12*
%TO.C,R50*%
X122965000Y-70840000D03*
X120965000Y-70840000D03*
%TD*%
%TO.C,R43*%
X139065000Y-72880000D03*
X137065000Y-72880000D03*
%TD*%
D14*
%TO.C,R54*%
X123875000Y-109620000D03*
X123875000Y-107620000D03*
%TD*%
D23*
%TO.C,D17*%
X164225000Y-80070000D03*
X164225000Y-75670000D03*
%TD*%
D24*
%TO.C,L2*%
X102145000Y-73440000D03*
X103925000Y-73440000D03*
%TD*%
D14*
%TO.C,R37*%
X144965000Y-74320000D03*
X144965000Y-72320000D03*
%TD*%
D25*
%TO.C,D15*%
X165325000Y-94070000D03*
X160925000Y-94070000D03*
%TD*%
D20*
%TO.C,C7*%
X110635000Y-76817500D03*
X110635000Y-74742500D03*
%TD*%
D12*
%TO.C,R23*%
X136745000Y-89000000D03*
X134745000Y-89000000D03*
%TD*%
D20*
%TO.C,C10*%
X116605000Y-80957500D03*
X116605000Y-78882500D03*
%TD*%
D13*
%TO.C,R17*%
X127810000Y-99330000D03*
X127810000Y-101330000D03*
%TD*%
D26*
%TO.C,C14*%
X120435000Y-77112500D03*
X120435000Y-79187500D03*
%TD*%
D12*
%TO.C,R15*%
X110875000Y-87852500D03*
X108875000Y-87852500D03*
%TD*%
%TO.C,R16*%
X123525000Y-102070000D03*
X121525000Y-102070000D03*
%TD*%
D16*
%TO.C,D12*%
X161675000Y-102457500D03*
X159775000Y-102457500D03*
X160725000Y-100582500D03*
%TD*%
D12*
%TO.C,R19*%
X118345000Y-91652500D03*
X116345000Y-91652500D03*
%TD*%
D22*
%TO.C,D2*%
X97905000Y-73470000D03*
X97905000Y-71370000D03*
%TD*%
D12*
%TO.C,R32*%
X151405000Y-67600000D03*
X149405000Y-67600000D03*
%TD*%
%TO.C,R35*%
X155515000Y-70920000D03*
X153515000Y-70920000D03*
%TD*%
%TO.C,R51*%
X127165000Y-70840000D03*
X125165000Y-70840000D03*
%TD*%
D16*
%TO.C,D3*%
X146095000Y-107987500D03*
X144195000Y-107987500D03*
X145145000Y-106112500D03*
%TD*%
D20*
%TO.C,C11*%
X114075000Y-97390000D03*
X114075000Y-95315000D03*
%TD*%
D27*
%TO.C,U6*%
X126625000Y-79570000D03*
X124725000Y-79570000D03*
X124725000Y-76870000D03*
X125675000Y-76870000D03*
X126625000Y-76870000D03*
%TD*%
D28*
%TO.C,U2*%
X104330000Y-75430000D03*
X104330000Y-76380000D03*
X104330000Y-77330000D03*
X101740000Y-77330000D03*
X101740000Y-76380000D03*
X101740000Y-75430000D03*
%TD*%
D15*
%TO.C,C5*%
X129447500Y-81780000D03*
X131522500Y-81780000D03*
%TD*%
D29*
%TO.C,U3*%
X132165000Y-84405000D03*
X132165000Y-85675000D03*
X132165000Y-86945000D03*
X132165000Y-88215000D03*
X125165000Y-88215000D03*
X125165000Y-86945000D03*
X125165000Y-85675000D03*
X125165000Y-84405000D03*
%TD*%
D14*
%TO.C,R6*%
X92195000Y-88637500D03*
X92195000Y-86637500D03*
%TD*%
D12*
%TO.C,R47*%
X127065000Y-67080000D03*
X125065000Y-67080000D03*
%TD*%
D17*
%TO.C,D16*%
X123891667Y-116137500D03*
X123891667Y-117282500D03*
%TD*%
D18*
%TO.C,U4*%
X113605000Y-79240000D03*
X113605000Y-80190000D03*
X113605000Y-81140000D03*
X110905000Y-81140000D03*
X110905000Y-80190000D03*
X110905000Y-79240000D03*
%TD*%
D12*
%TO.C,R46*%
X117715000Y-68270000D03*
X115715000Y-68270000D03*
%TD*%
D30*
%TO.C,J13*%
X159680000Y-72495000D03*
X159680000Y-71225000D03*
X160950000Y-72495000D03*
X160950000Y-71225000D03*
X162220000Y-72495000D03*
X162220000Y-71225000D03*
D31*
X158410000Y-70844000D03*
X158410000Y-72876000D03*
X163490000Y-71860000D03*
%TD*%
D14*
%TO.C,R1*%
X105055000Y-89532500D03*
X105055000Y-87532500D03*
%TD*%
D17*
%TO.C,D5*%
X137641667Y-116137500D03*
X137641667Y-117282500D03*
%TD*%
D20*
%TO.C,C9*%
X112455000Y-93080000D03*
X112455000Y-91005000D03*
%TD*%
D12*
%TO.C,R13*%
X102165000Y-80530000D03*
X100165000Y-80530000D03*
%TD*%
D20*
%TO.C,C4*%
X96325000Y-80527500D03*
X96325000Y-78452500D03*
%TD*%
D15*
%TO.C,C19*%
X120950000Y-81660000D03*
X123025000Y-81660000D03*
%TD*%
D14*
%TO.C,R10*%
X92205000Y-71680000D03*
X92205000Y-69680000D03*
%TD*%
%TO.C,R8*%
X92195000Y-97037500D03*
X92195000Y-95037500D03*
%TD*%
D26*
%TO.C,C15*%
X118355000Y-94035000D03*
X118355000Y-96110000D03*
%TD*%
D32*
%TO.C,U7*%
X153637082Y-74662637D03*
X154202767Y-75228323D03*
X154768452Y-75794008D03*
X155334138Y-76359693D03*
X155899823Y-76925379D03*
X156465509Y-77491064D03*
X157031194Y-78056750D03*
X157596880Y-78622435D03*
X158162565Y-79188120D03*
X158728250Y-79753806D03*
X159293936Y-80319491D03*
X159859621Y-80885177D03*
X160425307Y-81450862D03*
X160990992Y-82016548D03*
X161556677Y-82582233D03*
X162122363Y-83147918D03*
D33*
X162122363Y-85552082D03*
X161556677Y-86117767D03*
X160990992Y-86683452D03*
X160425307Y-87249138D03*
X159859621Y-87814823D03*
X159293936Y-88380509D03*
X158728250Y-88946194D03*
X158162565Y-89511880D03*
X157596880Y-90077565D03*
X157031194Y-90643250D03*
X156465509Y-91208936D03*
X155899823Y-91774621D03*
X155334138Y-92340307D03*
X154768452Y-92905992D03*
X154202767Y-93471677D03*
X153637082Y-94037363D03*
D32*
X151232918Y-94037363D03*
X150667233Y-93471677D03*
X150101548Y-92905992D03*
X149535862Y-92340307D03*
X148970177Y-91774621D03*
X148404491Y-91208936D03*
X147838806Y-90643250D03*
X147273120Y-90077565D03*
X146707435Y-89511880D03*
X146141750Y-88946194D03*
X145576064Y-88380509D03*
X145010379Y-87814823D03*
X144444693Y-87249138D03*
X143879008Y-86683452D03*
X143313323Y-86117767D03*
X142747637Y-85552082D03*
D33*
X142747637Y-83147918D03*
X143313323Y-82582233D03*
X143879008Y-82016548D03*
X144444693Y-81450862D03*
X145010379Y-80885177D03*
X145576064Y-80319491D03*
X146141750Y-79753806D03*
X146707435Y-79188120D03*
X147273120Y-78622435D03*
X147838806Y-78056750D03*
X148404491Y-77491064D03*
X148970177Y-76925379D03*
X149535862Y-76359693D03*
X150101548Y-75794008D03*
X150667233Y-75228323D03*
X151232918Y-74662637D03*
%TD*%
D34*
%TO.C,R3*%
X102625000Y-96770000D03*
X104625000Y-96770000D03*
%TD*%
D12*
%TO.C,R18*%
X120435000Y-74850000D03*
X118435000Y-74850000D03*
%TD*%
%TO.C,R41*%
X139085000Y-69520000D03*
X137085000Y-69520000D03*
%TD*%
D24*
%TO.C,L1*%
X100495000Y-90042500D03*
X102275000Y-90042500D03*
%TD*%
D17*
%TO.C,D18*%
X128475000Y-116137500D03*
X128475000Y-117282500D03*
%TD*%
D12*
%TO.C,R42*%
X134665000Y-72870000D03*
X132665000Y-72870000D03*
%TD*%
%TO.C,R45*%
X139055000Y-76230000D03*
X137055000Y-76230000D03*
%TD*%
D28*
%TO.C,U1*%
X102710000Y-92632500D03*
X102710000Y-93582500D03*
X102710000Y-94532500D03*
X100120000Y-94532500D03*
X100120000Y-93582500D03*
X100120000Y-92632500D03*
%TD*%
D20*
%TO.C,C8*%
X113955000Y-76787500D03*
X113955000Y-74712500D03*
%TD*%
D12*
%TO.C,R33*%
X155535000Y-67580000D03*
X153535000Y-67580000D03*
%TD*%
D14*
%TO.C,R2*%
X105065000Y-93572500D03*
X105065000Y-91572500D03*
%TD*%
%TO.C,R55*%
X128475000Y-109620000D03*
X128475000Y-107620000D03*
%TD*%
D26*
%TO.C,C16*%
X118035000Y-83812500D03*
X118035000Y-85887500D03*
%TD*%
D34*
%TO.C,R5*%
X104365000Y-80530000D03*
X106365000Y-80530000D03*
%TD*%
D24*
%TO.C,L3*%
X131075000Y-78020000D03*
X129295000Y-78020000D03*
%TD*%
D19*
%TO.C,C18*%
X125192500Y-74500000D03*
X123117500Y-74500000D03*
%TD*%
D14*
%TO.C,R53*%
X137675000Y-109620000D03*
X137675000Y-107620000D03*
%TD*%
%TO.C,R12*%
X92235000Y-80500000D03*
X92235000Y-78500000D03*
%TD*%
%TO.C,R38*%
X141665000Y-70560000D03*
X141665000Y-68560000D03*
%TD*%
%TO.C,R48*%
X129195000Y-69840000D03*
X129195000Y-67840000D03*
%TD*%
D21*
%TO.C,C12*%
X105475000Y-110720000D03*
X105475000Y-102720000D03*
%TD*%
D26*
%TO.C,C21*%
X140485000Y-79292500D03*
X140485000Y-81367500D03*
%TD*%
D34*
%TO.C,R49*%
X121095000Y-67070000D03*
X123095000Y-67070000D03*
%TD*%
D14*
%TO.C,R4*%
X106965000Y-74870000D03*
X106965000Y-72870000D03*
%TD*%
D35*
%TO.C,J11*%
X99320000Y-63415000D03*
X99320000Y-65955000D03*
X101860000Y-63415000D03*
X101860000Y-65955000D03*
X104400000Y-63415000D03*
X104400000Y-65955000D03*
X106940000Y-63415000D03*
X106940000Y-65955000D03*
X109480000Y-63415000D03*
D36*
X109480000Y-65955000D03*
%TD*%
D35*
%TO.C,J10*%
X109165000Y-126795802D03*
X109165000Y-124255802D03*
X106625000Y-126795802D03*
X106625000Y-124255802D03*
X104085000Y-126795802D03*
X104085000Y-124255802D03*
X101545000Y-126795802D03*
X101545000Y-124255802D03*
X99005000Y-126795802D03*
X99005000Y-124255802D03*
X96465000Y-126795802D03*
D36*
X96465000Y-124255802D03*
%TD*%
D35*
%TO.C,J9*%
X164740155Y-126795802D03*
X164740155Y-124255802D03*
X162200155Y-126795802D03*
X162200155Y-124255802D03*
X159660155Y-126795802D03*
X159660155Y-124255802D03*
X157120155Y-126795802D03*
X157120155Y-124255802D03*
X154580155Y-126795802D03*
X154580155Y-124255802D03*
X152040155Y-126795802D03*
D36*
X152040155Y-124255802D03*
%TD*%
D35*
%TO.C,J12*%
X132175000Y-61565000D03*
X132175000Y-64105000D03*
X134715000Y-61565000D03*
X134715000Y-64105000D03*
X137255000Y-61565000D03*
X137255000Y-64105000D03*
X139795000Y-61565000D03*
X139795000Y-64105000D03*
X142335000Y-61565000D03*
X142335000Y-64105000D03*
X144875000Y-61565000D03*
D36*
X144875000Y-64105000D03*
%TD*%
M02*
