0
SECTION
2
HEADER
9
$INSUNITS
70
4
9
$ACADVER
1
AC1014
9
$HANDSEED
5
FFFF
0
ENDSEC
0
SECTION
2
TABLES
0
TABLE
2
VPORT
5
8
100
AcDbSymbolTable
0
ENDTAB
0
TABLE
2
LTYPE
5
5
100
AcDbSymbolTable
0
LTYPE
5
14
100
AcDbSymbolTableRecord
100
AcDbLinetypeTableRecord
2
BYBLOCK
70
0
0
LTYPE
5
15
100
AcDbSymbolTableRecord
100
AcDbLinetypeTableRecord
2
BYLAYER
70
0
0
ENDTAB
0
TABLE
2
LAYER
5
2
100
AcDbSymbolTable
70
2
0
LAYER
5
50
100
AcDbSymbolTableRecord
100
AcDbLayerTableRecord
2
0
70
0
6
CONTINUOUS
0
ENDTAB
0
TABLE
2
STYLE
5
3
100
AcDbSymbolTable
70
1
0
STYLE
5
11
100
AcDbSymbolTableRecord
100
AcDbTextStyleTableRecord
2
STANDARD
70
0
0
ENDTAB
0
TABLE
2
VIEW
5
6
100
AcDbSymbolTable
70
0
0
ENDTAB
0
TABLE
2
UCS
5
7
100
AcDbSymbolTable
70
0
0
ENDTAB
0
TABLE
2
APPID
5
9
100
AcDbSymbolTable
70
2
0
APPID
5
12
100
AcDbSymbolTableRecord
100
AcDbRegAppTableRecord
2
ACAD
70
0
0
ENDTAB
0
TABLE
2
DIMSTYLE
5
A
100
AcDbSymbolTable
70
1
0
ENDTAB
0
TABLE
2
BLOCK_RECORD
5
1
100
AcDbSymbolTable
70
1
0
BLOCK_RECORD
5
1F
100
AcDbSymbolTableRecord
100
AcDbBlockTableRecord
2
*MODEL_SPACE
0
BLOCK_RECORD
5
1B
100
AcDbSymbolTableRecord
100
AcDbBlockTableRecord
2
*PAPER_SPACE
0
ENDTAB
0
ENDSEC
0
SECTION
2
BLOCKS
0
BLOCK
5
20
100
AcDbEntity
100
AcDbBlockBegin
2
*MODEL_SPACE
0
ENDBLK
5
21
100
AcDbEntity
100
AcDbBlockEnd
0
BLOCK
5
1C
100
AcDbEntity
100
AcDbBlockBegin
2
*PAPER_SPACE
0
ENDBLK
5
1D
100
AcDbEntity
100
AcDbBlockEnd
0
ENDSEC
0
SECTION
2
ENTITIES
0
LWPOLYLINE
5
100
100
AcDbEntity
8
0
100
AcDbPolyline
90
8
70
1
43
0.0
10
-113.33499994174197
20
14.785348773002928
10
-113.3349999417419
20
-65.224651226997082
10
16.675000058258128
20
-65.224651226997366
10
16.665000058258052
20
14.78534877300264
10
6.66500005825805
20
14.775348773002664
10
6.6650000582580411
20
24.78534877300266
10
-103.32499994174198
20
24.795348773002907
10
-103.32499994174196
20
14.785348773002907
0
CIRCLE
5
101
100
AcDbEntity
8
0
100
AcDbCircle
10
-101.39499994174194
20
17.105348773002905
30
2.2335854082955464e-07
40
0.5
210
-1.5839245251321642e-24
220
1.0194818886941943e-24
230
1
0
CIRCLE
5
102
100
AcDbEntity
8
0
100
AcDbCircle
10
-98.444999941741941
20
17.105348773002898
30
2.2335854082955464e-07
40
0.5
210
-1.5839245251321642e-24
220
1.0194818886941943e-24
230
1
0
CIRCLE
5
103
100
AcDbEntity
8
0
100
AcDbCircle
10
-108.39499994174193
20
-0.16465122699708123
30
2.2335854055199889e-07
40
1.6000000000000003
210
-1.5839245251321642e-24
220
1.0194818886941943e-24
230
1
0
CIRCLE
5
104
100
AcDbEntity
8
0
100
AcDbCircle
10
-57.694999941741955
20
14.805348773002805
30
2.233585411071104e-07
40
0.5
210
-1.5839245251321642e-24
220
1.0194818886941943e-24
230
1
0
CIRCLE
5
105
100
AcDbEntity
8
0
100
AcDbCircle
10
-86.144999941741943
20
-9.2446512269971333
30
2.2335854082955464e-07
40
0.5
210
-1.5839245251321642e-24
220
1.0194818886941943e-24
230
1
0
CIRCLE
5
106
100
AcDbEntity
8
0
100
AcDbCircle
10
-45.594999941741953
20
14.75534877300278
30
2.2335854138466615e-07
40
0.5
210
-1.5839245251321642e-24
220
1.0194818886941943e-24
230
1
0
CIRCLE
5
107
100
AcDbEntity
8
0
100
AcDbCircle
10
-32.544999941741956
20
14.805348773002752
30
2.2335854138466615e-07
40
0.5
210
-1.5839245251321642e-24
220
1.0194818886941943e-24
230
1
0
CIRCLE
5
108
100
AcDbEntity
8
0
100
AcDbCircle
10
-44.544999941741956
20
11.455348773002775
30
2.2335854138466615e-07
40
0.5
210
-1.5839245251321642e-24
220
1.0194818886941943e-24
230
1
0
CIRCLE
5
109
100
AcDbEntity
8
0
100
AcDbCircle
10
-18.844999941741953
20
18.205348773002719
30
2.2335854138466615e-07
40
0.5
210
-1.5839245251321642e-24
220
1.0194818886941943e-24
230
1
0
CIRCLE
5
110
100
AcDbEntity
8
0
100
AcDbCircle
10
-19.594999941741946
20
14.355348773002721
30
2.2335854138466615e-07
40
0.5
210
-1.5839245251321642e-24
220
1.0194818886941943e-24
230
1
0
CIRCLE
5
111
100
AcDbEntity
8
0
100
AcDbCircle
10
-31.594999941741946
20
9.705348773002747
30
2.2335854138466615e-07
40
0.5
210
-1.5839245251321642e-24
220
1.0194818886941943e-24
230
1
0
CIRCLE
5
112
100
AcDbEntity
8
0
100
AcDbCircle
10
-8.3449989417419488
20
15.300371773002697
30
2.2335854166222191e-07
40
0.5
210
-1.5839245251321642e-24
220
1.0194818886941943e-24
230
1
0
CIRCLE
5
113
100
AcDbEntity
8
0
100
AcDbCircle
10
-11.924974941741947
20
13.375323773002705
30
2.2335854166222191e-07
40
0.5
210
-1.5839245251321642e-24
220
1.0194818886941943e-24
230
1
0
CIRCLE
5
114
100
AcDbEntity
8
0
100
AcDbCircle
10
-6.2735979417419463
20
9.5831997730026917
30
2.2335854166222191e-07
40
0.5
210
-1.5839245251321642e-24
220
1.0194818886941943e-24
230
1
0
CIRCLE
5
115
100
AcDbEntity
8
0
100
AcDbCircle
10
11.645000058258058
20
9.7853487730026512
30
2.2335854193977767e-07
40
1.6000000000000003
210
-1.5839245251321642e-24
220
1.0194818886941943e-24
230
1
0
CIRCLE
5
116
100
AcDbEntity
8
0
100
AcDbCircle
10
-4.1349869417419383
20
4.5253477730026868
30
2.2335854166222191e-07
40
0.5
210
-1.5839245251321642e-24
220
1.0194818886941943e-24
230
1
0
CIRCLE
5
117
100
AcDbEntity
8
0
100
AcDbCircle
10
-13.439969941741939
20
2.7953677730027069
30
2.2335854166222191e-07
40
0.5
210
-1.5839245251321642e-24
220
1.0194818886941943e-24
230
1
0
CIRCLE
5
118
100
AcDbEntity
8
0
100
AcDbCircle
10
-9.2036519417419438
20
2.839668773002697
30
2.2335854166222191e-07
40
0.5
210
-1.5839245251321642e-24
220
1.0194818886941943e-24
230
1
0
CIRCLE
5
119
100
AcDbEntity
8
0
100
AcDbCircle
10
11.305000058258063
20
-1.3446512269973487
30
2.2335854193977767e-07
40
0.5
210
-1.5839245251321642e-24
220
1.0194818886941943e-24
230
1
0
CIRCLE
5
120
100
AcDbEntity
8
0
100
AcDbCircle
10
14.655000058258064
20
-1.3446512269973576
30
2.2335854193977767e-07
40
0.5
210
-1.5839245251321642e-24
220
1.0194818886941943e-24
230
1
0
CIRCLE
5
121
100
AcDbEntity
8
0
100
AcDbCircle
10
-38.894999941741929
20
-11.194651226997241
30
2.2335854138466615e-07
40
0.5
210
-1.5839245251321642e-24
220
1.0194818886941943e-24
230
1
0
CIRCLE
5
122
100
AcDbEntity
8
0
100
AcDbCircle
10
-44.894999941741922
20
-16.444651226997227
30
2.2335854138466615e-07
40
0.5
210
-1.5839245251321642e-24
220
1.0194818886941943e-24
230
1
0
CIRCLE
5
123
100
AcDbEntity
8
0
100
AcDbCircle
10
-41.994999941741909
20
-17.14465122699723
30
2.2335854138466615e-07
40
0.5
210
-1.5839245251321642e-24
220
1.0194818886941943e-24
230
1
0
CIRCLE
5
124
100
AcDbEntity
8
0
100
AcDbCircle
10
10.705000058258069
20
-5.0946512269973487
30
2.2335854193977767e-07
40
0.5
210
-1.5839245251321642e-24
220
1.0194818886941943e-24
230
1
0
CIRCLE
5
125
100
AcDbEntity
8
0
100
AcDbCircle
10
13.555000058258068
20
-5.0446512269973542
30
2.2335854193977767e-07
40
0.5
210
-1.5839245251321642e-24
220
1.0194818886941943e-24
230
1
0
CIRCLE
5
126
100
AcDbEntity
8
0
100
AcDbCircle
10
11.255000058258078
20
-15.344651226997348
30
2.2335854193977767e-07
40
0.5
210
-1.5839245251321642e-24
220
1.0194818886941943e-24
230
1
0
CIRCLE
5
127
100
AcDbEntity
8
0
100
AcDbCircle
10
14.655000058258079
20
-15.344651226997353
30
2.2335854193977767e-07
40
0.5
210
-1.5839245251321642e-24
220
1.0194818886941943e-24
230
1
0
CIRCLE
5
128
100
AcDbEntity
8
0
100
AcDbCircle
10
10.705000058258083
20
-19.044651226997345
30
2.2335854193977767e-07
40
0.5
210
-1.5839245251321642e-24
220
1.0194818886941943e-24
230
1
0
CIRCLE
5
129
100
AcDbEntity
8
0
100
AcDbCircle
10
13.555000058258083
20
-19.044651226997352
30
2.2335854193977767e-07
40
0.5
210
-1.5839245251321642e-24
220
1.0194818886941943e-24
230
1
0
CIRCLE
5
130
100
AcDbEntity
8
0
100
AcDbCircle
10
-108.41499994174188
20
-50.204651226997086
30
2.2335854082955464e-07
40
1.6000000000000003
210
-1.5839245251321642e-24
220
1.0194818886941943e-24
230
1
0
CIRCLE
5
131
100
AcDbEntity
8
0
100
AcDbCircle
10
-93.294999941741906
20
-49.744651226997121
30
2.2335854082955464e-07
40
0.5
210
-1.5839245251321642e-24
220
1.0194818886941943e-24
230
1
0
CIRCLE
5
132
100
AcDbEntity
8
0
100
AcDbCircle
10
-76.894999941741901
20
-46.144651226997155
30
2.233585411071104e-07
40
0.5
210
-1.5839245251321642e-24
220
1.0194818886941943e-24
230
1
0
CIRCLE
5
133
100
AcDbEntity
8
0
100
AcDbCircle
10
11.155000058258091
20
-29.444651226997351
30
2.2335854193977767e-07
40
0.5
210
-1.5839245251321642e-24
220
1.0194818886941943e-24
230
1
0
CIRCLE
5
134
100
AcDbEntity
8
0
100
AcDbCircle
10
14.805000058258088
20
-29.344651226997357
30
2.2335854193977767e-07
40
0.5
210
-1.5839245251321642e-24
220
1.0194818886941943e-24
230
1
0
CIRCLE
5
135
100
AcDbEntity
8
0
100
AcDbCircle
10
10.705000058258094
20
-33.09465122699735
30
2.2335854193977767e-07
40
0.5
210
-1.5839245251321642e-24
220
1.0194818886941943e-24
230
1
0
CIRCLE
5
136
100
AcDbEntity
8
0
100
AcDbCircle
10
13.555000058258093
20
-33.044651226997352
30
2.2335854193977767e-07
40
0.5
210
-1.5839245251321642e-24
220
1.0194818886941943e-24
230
1
0
CIRCLE
5
137
100
AcDbEntity
8
0
100
AcDbCircle
10
-34.884986941741886
20
-55.684674226997245
30
2.2335854138466615e-07
40
0.5
210
-1.5839245251321642e-24
220
1.0194818886941943e-24
230
1
0
CIRCLE
5
138
100
AcDbEntity
8
0
100
AcDbCircle
10
-32.997108941741885
20
-56.584651226997252
30
2.2335854138466615e-07
40
0.5
210
-1.5839245251321642e-24
220
1.0194818886941943e-24
230
1
0
CIRCLE
5
139
100
AcDbEntity
8
0
100
AcDbCircle
10
-31.475013941741892
20
-55.024650226997252
30
2.2335854138466615e-07
40
0.5
210
-1.5839245251321642e-24
220
1.0194818886941943e-24
230
1
0
CIRCLE
5
140
100
AcDbEntity
8
0
100
AcDbCircle
10
-30.089322941741877
20
-56.754651226997268
30
2.2335854138466615e-07
40
0.5
210
-1.5839245251321642e-24
220
1.0194818886941943e-24
230
1
0
CIRCLE
5
141
100
AcDbEntity
8
0
100
AcDbCircle
10
-17.95499394174189
20
-56.724662226997296
30
2.2335854166222191e-07
40
0.5
210
-1.5839245251321642e-24
220
1.0194818886941943e-24
230
1
0
CIRCLE
5
142
100
AcDbEntity
8
0
100
AcDbCircle
10
-27.665015941741878
20
-57.264640226997258
30
2.2335854166222191e-07
40
0.5
210
-1.5839245251321642e-24
220
1.0194818886941943e-24
230
1
0
CIRCLE
5
143
100
AcDbEntity
8
0
100
AcDbCircle
10
-25.565030941741888
20
-57.974652226997279
30
2.2335854166222191e-07
40
0.5
210
-1.5839245251321642e-24
220
1.0194818886941943e-24
230
1
0
CIRCLE
5
144
100
AcDbEntity
8
0
100
AcDbCircle
10
-20.05759494174189
20
-57.90526522699728
30
2.2335854166222191e-07
40
0.5
210
-1.5839245251321642e-24
220
1.0194818886941943e-24
230
1
0
CIRCLE
5
145
100
AcDbEntity
8
0
100
AcDbCircle
10
11.205000058258101
20
-43.344651226997357
30
2.2335854193977767e-07
40
0.5
210
-1.5839245251321642e-24
220
1.0194818886941943e-24
230
1
0
CIRCLE
5
146
100
AcDbEntity
8
0
100
AcDbCircle
10
14.655000058258105
20
-43.344651226997364
30
2.2335854193977767e-07
40
0.5
210
-1.5839245251321642e-24
220
1.0194818886941943e-24
230
1
0
CIRCLE
5
147
100
AcDbEntity
8
0
100
AcDbCircle
10
10.705000058258108
20
-47.094651226997357
30
2.2335854193977767e-07
40
0.5
210
-1.5839245251321642e-24
220
1.0194818886941943e-24
230
1
0
CIRCLE
5
148
100
AcDbEntity
8
0
100
AcDbCircle
10
13.555000058258106
20
-47.044651226997345
30
2.2335854193977767e-07
40
0.5
210
-1.5839245251321642e-24
220
1.0194818886941943e-24
230
1
0
CIRCLE
5
149
100
AcDbEntity
8
0
100
AcDbCircle
10
-15.764981941741887
20
-56.754620226997289
30
2.2335854166222191e-07
40
0.5
210
-1.5839245251321642e-24
220
1.0194818886941943e-24
230
1
0
CIRCLE
5
150
100
AcDbEntity
8
0
100
AcDbCircle
10
-13.404996941741881
20
-57.7846502269973
30
2.2335854166222191e-07
40
0.5
210
-1.5839245251321642e-24
220
1.0194818886941943e-24
230
1
0
CIRCLE
5
151
100
AcDbEntity
8
0
100
AcDbCircle
10
11.64500005825812
20
-60.25465122699736
30
2.2335854193977767e-07
40
1.6000000000000003
210
-1.5839245251321642e-24
220
1.0194818886941943e-24
230
1
0
CIRCLE
5
152
100
AcDbEntity
8
0
100
AcDbCircle
10
11.64500005825812
20
-60.25465122699736
30
2.2335854193977767e-07
40
1.5999999999999992
210
0
220
0
230
1
0
CIRCLE
5
153
100
AcDbEntity
8
0
100
AcDbCircle
10
13.555000058258106
20
-47.044651226997345
30
2.2335854193977767e-07
40
0.50000000000000044
210
0
220
0
230
1
0
CIRCLE
5
154
100
AcDbEntity
8
0
100
AcDbCircle
10
10.705000058258108
20
-47.094651226997357
30
2.2335854193977767e-07
40
0.50000000000000044
210
0
220
0
230
1
0
CIRCLE
5
155
100
AcDbEntity
8
0
100
AcDbCircle
10
11.205000058258101
20
-43.344651226997357
30
2.2335854193977767e-07
40
0.50000000000000044
210
0
220
0
230
1
0
CIRCLE
5
156
100
AcDbEntity
8
0
100
AcDbCircle
10
14.655000058258105
20
-43.344651226997364
30
2.2335854193977767e-07
40
0.50000000000000044
210
0
220
0
230
1
0
CIRCLE
5
157
100
AcDbEntity
8
0
100
AcDbCircle
10
10.705000058258094
20
-33.09465122699735
30
2.2335854193977767e-07
40
0.50000000000000011
210
0
220
0
230
1
0
CIRCLE
5
158
100
AcDbEntity
8
0
100
AcDbCircle
10
13.555000058258093
20
-33.044651226997352
30
2.2335854193977767e-07
40
0.49999999999999961
210
0
220
0
230
1
0
CIRCLE
5
159
100
AcDbEntity
8
0
100
AcDbCircle
10
14.805000058258088
20
-29.344651226997357
30
2.2335854193977767e-07
40
0.49999999999999933
210
0
220
0
230
1
0
CIRCLE
5
160
100
AcDbEntity
8
0
100
AcDbCircle
10
11.155000058258091
20
-29.444651226997351
30
2.2335854193977767e-07
40
0.50000000000000133
210
0
220
0
230
1
0
CIRCLE
5
161
100
AcDbEntity
8
0
100
AcDbCircle
10
10.705000058258083
20
-19.044651226997345
30
2.2335854193977767e-07
40
0.49999999999999922
210
0
220
0
230
1
0
CIRCLE
5
162
100
AcDbEntity
8
0
100
AcDbCircle
10
13.555000058258083
20
-19.044651226997352
30
2.2335854193977767e-07
40
0.50000000000000078
210
0
220
0
230
1
0
CIRCLE
5
163
100
AcDbEntity
8
0
100
AcDbCircle
10
11.255000058258078
20
-15.344651226997348
30
2.2335854193977767e-07
40
0.49999999999999956
210
0
220
0
230
1
0
CIRCLE
5
164
100
AcDbEntity
8
0
100
AcDbCircle
10
14.655000058258079
20
-15.344651226997353
30
2.2335854193977767e-07
40
0.50000000000000022
210
0
220
0
230
1
0
CIRCLE
5
165
100
AcDbEntity
8
0
100
AcDbCircle
10
10.705000058258069
20
-5.0946512269973487
30
2.2335854193977767e-07
40
0.49999999999999928
210
0
220
0
230
1
0
CIRCLE
5
166
100
AcDbEntity
8
0
100
AcDbCircle
10
13.555000058258068
20
-5.0446512269973542
30
2.2335854193977767e-07
40
0.49999999999999956
210
0
220
0
230
1
0
CIRCLE
5
167
100
AcDbEntity
8
0
100
AcDbCircle
10
11.305000058258063
20
-1.3446512269973487
30
2.2335854193977767e-07
40
0.49999999999999967
210
0
220
0
230
1
0
CIRCLE
5
168
100
AcDbEntity
8
0
100
AcDbCircle
10
14.655000058258064
20
-1.3446512269973576
30
2.2335854193977767e-07
40
0.50000000000000011
210
0
220
0
230
1
0
CIRCLE
5
169
100
AcDbEntity
8
0
100
AcDbCircle
10
-13.404996941741881
20
-57.7846502269973
30
2.2335854166222191e-07
40
0.50000000000000178
210
0
220
0
230
1
0
CIRCLE
5
170
100
AcDbEntity
8
0
100
AcDbCircle
10
-15.764981941741887
20
-56.754620226997289
30
2.2335854166222191e-07
40
0.49999999999999944
210
0
220
0
230
1
0
CIRCLE
5
171
100
AcDbEntity
8
0
100
AcDbCircle
10
-17.95499394174189
20
-56.724662226997296
30
2.2335854166222191e-07
40
0.49999999999999667
210
0
220
0
230
1
0
CIRCLE
5
172
100
AcDbEntity
8
0
100
AcDbCircle
10
-20.05759494174189
20
-57.90526522699728
30
2.2335854166222191e-07
40
0.49999999999999822
210
0
220
0
230
1
0
CIRCLE
5
173
100
AcDbEntity
8
0
100
AcDbCircle
10
-25.565030941741888
20
-57.974652226997279
30
2.2335854166222191e-07
40
0.49999999999999656
210
0
220
0
230
1
0
CIRCLE
5
174
100
AcDbEntity
8
0
100
AcDbCircle
10
-27.665015941741878
20
-57.264640226997258
30
2.2335854166222191e-07
40
0.49999999999999878
210
0
220
0
230
1
0
CIRCLE
5
175
100
AcDbEntity
8
0
100
AcDbCircle
10
-30.089322941741877
20
-56.754651226997268
30
2.2335854138466615e-07
40
0.49999999999999911
210
0
220
0
230
1
0
CIRCLE
5
176
100
AcDbEntity
8
0
100
AcDbCircle
10
-31.475013941741892
20
-55.024650226997252
30
2.2335854138466615e-07
40
0.49999999999999623
210
0
220
0
230
1
0
CIRCLE
5
177
100
AcDbEntity
8
0
100
AcDbCircle
10
-32.997108941741885
20
-56.584651226997252
30
2.2335854138466615e-07
40
0.50000000000000067
210
0
220
0
230
1
0
CIRCLE
5
178
100
AcDbEntity
8
0
100
AcDbCircle
10
-34.884986941741886
20
-55.684674226997245
30
2.2335854138466615e-07
40
0.50326464624052558
210
0
220
0
230
1
0
CIRCLE
5
179
100
AcDbEntity
8
0
100
AcDbCircle
10
-76.894999941741901
20
-46.144651226997155
30
2.233585411071104e-07
40
0.49999999999999734
210
0
220
0
230
1
0
CIRCLE
5
180
100
AcDbEntity
8
0
100
AcDbCircle
10
-93.294999941741906
20
-49.744651226997121
30
2.2335854082955464e-07
40
0.50000000000000211
210
0
220
0
230
1
0
CIRCLE
5
181
100
AcDbEntity
8
0
100
AcDbCircle
10
-41.994999941741909
20
-17.14465122699723
30
2.2335854138466615e-07
40
0.50000000000000155
210
0
220
0
230
1
0
CIRCLE
5
182
100
AcDbEntity
8
0
100
AcDbCircle
10
-44.894999941741922
20
-16.444651226997227
30
2.2335854138466615e-07
40
0.49999999999999795
210
0
220
0
230
1
0
CIRCLE
5
183
100
AcDbEntity
8
0
100
AcDbCircle
10
-38.894999941741929
20
-11.194651226997241
30
2.2335854138466615e-07
40
0.49999999999999922
210
0
220
0
230
1
0
CIRCLE
5
184
100
AcDbEntity
8
0
100
AcDbCircle
10
-4.1349869417419383
20
4.5253477730026868
30
2.2335854166222191e-07
40
0.5
210
0
220
0
230
1
0
CIRCLE
5
185
100
AcDbEntity
8
0
100
AcDbCircle
10
-9.2036519417419438
20
2.839668773002697
30
2.2335854166222191e-07
40
0.50000000000000022
210
0
220
0
230
1
0
CIRCLE
5
186
100
AcDbEntity
8
0
100
AcDbCircle
10
-13.439969941741939
20
2.7953677730027069
30
2.2335854166222191e-07
40
0.50000000000000089
210
0
220
0
230
1
0
CIRCLE
5
187
100
AcDbEntity
8
0
100
AcDbCircle
10
-6.2735979417419463
20
9.5831997730026917
30
2.2335854166222191e-07
40
0.49999999999999989
210
0
220
0
230
1
0
CIRCLE
5
188
100
AcDbEntity
8
0
100
AcDbCircle
10
-11.924974941741947
20
13.375323773002705
30
2.2335854166222191e-07
40
0.50000000000000044
210
0
220
0
230
1
0
CIRCLE
5
189
100
AcDbEntity
8
0
100
AcDbCircle
10
-8.3449989417419488
20
15.300371773002697
30
2.2335854166222191e-07
40
0.50000000000000044
210
0
220
0
230
1
0
CIRCLE
5
190
100
AcDbEntity
8
0
100
AcDbCircle
10
-19.594999941741946
20
14.355348773002721
30
2.2335854138466615e-07
40
0.49999999999999822
210
0
220
0
230
1
0
CIRCLE
5
191
100
AcDbEntity
8
0
100
AcDbCircle
10
-18.844999941741953
20
18.205348773002719
30
2.2335854138466615e-07
40
0.50000000000000111
210
0
220
0
230
1
0
CIRCLE
5
192
100
AcDbEntity
8
0
100
AcDbCircle
10
-31.594999941741946
20
9.705348773002747
30
2.2335854138466615e-07
40
0.49999999999999878
210
0
220
0
230
1
0
CIRCLE
5
193
100
AcDbEntity
8
0
100
AcDbCircle
10
-32.544999941741956
20
14.805348773002752
30
2.2335854138466615e-07
40
0.49999999999999983
210
0
220
0
230
1
0
CIRCLE
5
194
100
AcDbEntity
8
0
100
AcDbCircle
10
-44.544999941741956
20
11.455348773002775
30
2.2335854138466615e-07
40
0.49999999999999656
210
0
220
0
230
1
0
CIRCLE
5
195
100
AcDbEntity
8
0
100
AcDbCircle
10
-45.594999941741953
20
14.75534877300278
30
2.2335854138466615e-07
40
0.50000000000000178
210
0
220
0
230
1
0
CIRCLE
5
196
100
AcDbEntity
8
0
100
AcDbCircle
10
-57.694999941741955
20
14.805348773002805
30
2.233585411071104e-07
40
0.50000000000000167
210
0
220
0
230
1
0
CIRCLE
5
197
100
AcDbEntity
8
0
100
AcDbCircle
10
-98.444999941741941
20
17.105348773002898
30
2.2335854082955464e-07
40
0.50000000000000244
210
0
220
0
230
1
0
CIRCLE
5
198
100
AcDbEntity
8
0
100
AcDbCircle
10
-101.39499994174194
20
17.105348773002905
30
2.2335854082955464e-07
40
0.50000000000000577
210
0
220
0
230
1
0
CIRCLE
5
199
100
AcDbEntity
8
0
100
AcDbCircle
10
-86.144999941741943
20
-9.2446512269971333
30
2.2335854082955464e-07
40
0.50000000000000289
210
0
220
0
230
1
0
CIRCLE
5
200
100
AcDbEntity
8
0
100
AcDbCircle
10
-108.39499994174193
20
-0.16465122699708123
30
2.2335854055199889e-07
40
1.599999999999993
210
0
220
0
230
1
0
CIRCLE
5
201
100
AcDbEntity
8
0
100
AcDbCircle
10
-108.41499994174188
20
-50.204651226997086
30
2.2335854082955464e-07
40
1.6000000000000076
210
0
220
0
230
1
0
CIRCLE
5
202
100
AcDbEntity
8
0
100
AcDbCircle
10
11.645000058258058
20
9.7853487730026512
30
2.2335854193977767e-07
40
1.6000000000000012
210
0
220
0
230
1
0
LWPOLYLINE
5
203
100
AcDbEntity
8
0
100
AcDbPolyline
90
8
70
1
43
0.0
10
16.675000058258128
20
-65.224651226997366
10
16.665000058258052
20
14.78534877300264
10
6.66500005825805
20
14.775348773002664
10
6.6650000582580411
20
24.78534877300266
10
-103.32499994174198
20
24.795348773002907
10
-103.32499994174196
20
14.785348773002907
10
-113.33499994174197
20
14.785348773002926
10
-113.3349999417419
20
-65.224651226997082
0
ENDSEC
0
SECTION
2
OBJECTS
0
DICTIONARY
5
C
100
AcDbDictionary
3
ACAD_GROUP
350
D
3
ACAD_MLINESTYLE
350
17
0
DICTIONARY
5
D
100
AcDbDictionary
0
DICTIONARY
5
1A
330
C
100
AcDbDictionary
0
DICTIONARY
5
17
100
AcDbDictionary
0
ENDSEC
0
EOF
