  0
SECTION
  2
HEADER
  9
$ANGBASE
  50
0.0
  9
$ANGDIR
  70
1
  9
$MEASUREMENT
  70
1
  0
ENDSEC
  0
SECTION
  2
TABLES
  0
TABLE
  2
LTYPE
  70
4
  0
LTYPE
  5
40F
  2
CONTINUOUS
  70
0
  3
Solid line
  72
65
  73
0
  40
0.0
  0
LTYPE
  5
410
  2
DASHDOT
 70
0
  3
Dash Dot ____ _ ____ _
 72
65
 73
4
 40
2.0
 49
1.25
 49
-0.25
 49
0.25
 49
-0.25
  0
LTYPE
  5
411
  2
DASHED
 70
0
  3
Dashed __ __ __ __ __
 72
65
 73
2
 40
0.75
 49
0.5
 49
-0.25
  0
LTYPE
  5
43B
  2
DOTTED
 70
0
  3
Dotted .  .  .  .
 72
65
 73
2
 40
0.2
 49
0.0
 49
-0.2
  0
ENDTAB
  0
TABLE
  2
STYLE
  70
4
  0
STYLE
  2
KICAD
  70
0
  40
0
  41
1
  42
1
  50
0
  71
0
  3
isocp.shx
  0
STYLE
  2
KICADB
  70
0
  40
0
  41
1
  42
1
  50
0
  71
0
  3
isocp.shx
  0
STYLE
  2
KICADI
  70
0
  40
0
  41
1
  42
1
  50
15
  71
0
  3
isocp.shx
  0
STYLE
  2
KICADBI
  70
0
  40
0
  41
1
  42
1
  50
15
  71
0
  3
isocp.shx
  0
ENDTAB
  0
TABLE
  2
LAYER
  70
1
  0
LAYER
  2
BLACK
  70
0
  62
7
  6
CONTINUOUS
  0
ENDTAB
  0
ENDSEC
  0
SECTION
  2
ENTITIES
0
LINE
8
BLACK
6
CONTINUOUS
10
167.081
20
-129.504
11
167.093
21
-129.503
0
LINE
8
BLACK
6
CONTINUOUS
10
167.093
20
-129.503
11
185.093
21
-133.753
0
LINE
8
BLACK
6
CONTINUOUS
10
185.093
20
-133.753
11
185.097
21
-133.755
0
LINE
8
BLACK
6
CONTINUOUS
10
185.097
20
-133.755
11
185.101
21
-133.755
0
LINE
8
BLACK
6
CONTINUOUS
10
185.101
20
-133.755
11
185.123
21
-133.771
0
LINE
8
BLACK
6
CONTINUOUS
10
185.123
20
-133.771
11
185.146
21
-133.785
0
LINE
8
BLACK
6
CONTINUOUS
10
185.146
20
-133.785
11
185.147
21
-133.789
0
LINE
8
BLACK
6
CONTINUOUS
10
185.147
20
-133.789
11
185.151
21
-133.791
0
LINE
8
BLACK
6
CONTINUOUS
10
185.151
20
-133.791
11
185.159
21
-133.817
0
LINE
8
BLACK
6
CONTINUOUS
10
185.159
20
-133.817
11
185.17
21
-133.842
0
LINE
8
BLACK
6
CONTINUOUS
10
185.17
20
-133.842
11
185.169
21
-133.846
0
LINE
8
BLACK
6
CONTINUOUS
10
185.169
20
-133.846
11
185.17
21
-133.85
0
LINE
8
BLACK
6
CONTINUOUS
10
185.17
20
-133.85
11
185.17
21
-147.35
0
LINE
8
BLACK
6
CONTINUOUS
10
185.17
20
-147.35
11
185.169
21
-147.354
0
LINE
8
BLACK
6
CONTINUOUS
10
185.169
20
-147.354
11
185.17
21
-147.358
0
LINE
8
BLACK
6
CONTINUOUS
10
185.17
20
-147.358
11
185.159
21
-147.383
0
LINE
8
BLACK
6
CONTINUOUS
10
185.159
20
-147.383
11
185.151
21
-147.409
0
LINE
8
BLACK
6
CONTINUOUS
10
185.151
20
-147.409
11
185.147
21
-147.411
0
LINE
8
BLACK
6
CONTINUOUS
10
185.147
20
-147.411
11
185.146
21
-147.415
0
LINE
8
BLACK
6
CONTINUOUS
10
185.146
20
-147.415
11
185.123
21
-147.429
0
LINE
8
BLACK
6
CONTINUOUS
10
185.123
20
-147.429
11
185.101
21
-147.445
0
LINE
8
BLACK
6
CONTINUOUS
10
185.101
20
-147.445
11
185.097
21
-147.445
0
LINE
8
BLACK
6
CONTINUOUS
10
185.097
20
-147.445
11
185.093
21
-147.447
0
LINE
8
BLACK
6
CONTINUOUS
10
185.093
20
-147.447
11
167.093
21
-151.697
0
LINE
8
BLACK
6
CONTINUOUS
10
167.093
20
-151.697
11
167.081
21
-151.696
0
LINE
8
BLACK
6
CONTINUOUS
10
167.081
20
-151.696
11
167.07
21
-151.7
0
LINE
8
BLACK
6
CONTINUOUS
10
167.07
20
-151.7
11
132.07
21
-151.7
0
LINE
8
BLACK
6
CONTINUOUS
10
132.07
20
-151.7
11
132.055
21
-151.695
0
LINE
8
BLACK
6
CONTINUOUS
10
132.055
20
-151.695
11
132.039
21
-151.695
0
LINE
8
BLACK
6
CONTINUOUS
10
132.039
20
-151.695
11
132.026
21
-151.686
0
LINE
8
BLACK
6
CONTINUOUS
10
132.026
20
-151.686
11
132.011
21
-151.681
0
LINE
8
BLACK
6
CONTINUOUS
10
132.011
20
-151.681
11
132.002
21
-151.668
0
LINE
8
BLACK
6
CONTINUOUS
10
132.002
20
-151.668
11
131.989
21
-151.659
0
LINE
8
BLACK
6
CONTINUOUS
10
131.989
20
-151.659
11
131.984
21
-151.644
0
LINE
8
BLACK
6
CONTINUOUS
10
131.984
20
-151.644
11
131.975
21
-151.631
0
LINE
8
BLACK
6
CONTINUOUS
10
131.975
20
-151.631
11
131.975
21
-151.615
0
LINE
8
BLACK
6
CONTINUOUS
10
131.975
20
-151.615
11
131.97
21
-151.6
0
LINE
8
BLACK
6
CONTINUOUS
10
131.97
20
-151.6
11
131.97
21
-129.6
0
LINE
8
BLACK
6
CONTINUOUS
10
131.97
20
-129.6
11
131.975
21
-129.585
0
LINE
8
BLACK
6
CONTINUOUS
10
131.975
20
-129.585
11
131.975
21
-129.569
0
LINE
8
BLACK
6
CONTINUOUS
10
131.975
20
-129.569
11
131.984
21
-129.556
0
LINE
8
BLACK
6
CONTINUOUS
10
131.984
20
-129.556
11
131.989
21
-129.541
0
LINE
8
BLACK
6
CONTINUOUS
10
131.989
20
-129.541
11
132.002
21
-129.532
0
LINE
8
BLACK
6
CONTINUOUS
10
132.002
20
-129.532
11
132.011
21
-129.519
0
LINE
8
BLACK
6
CONTINUOUS
10
132.011
20
-129.519
11
132.026
21
-129.514
0
LINE
8
BLACK
6
CONTINUOUS
10
132.026
20
-129.514
11
132.039
21
-129.505
0
LINE
8
BLACK
6
CONTINUOUS
10
132.039
20
-129.505
11
132.055
21
-129.505
0
LINE
8
BLACK
6
CONTINUOUS
10
132.055
20
-129.505
11
132.07
21
-129.5
0
LINE
8
BLACK
6
CONTINUOUS
10
132.07
20
-129.5
11
167.07
21
-129.5
0
LINE
8
BLACK
6
CONTINUOUS
10
167.07
20
-129.5
11
167.081
21
-129.504
0
LINE
8
BLACK
6
CONTINUOUS
10
132.17
20
-129.7
11
132.17
21
-151.5
0
LINE
8
BLACK
6
CONTINUOUS
10
132.17
20
-151.5
11
167.058
21
-151.5
0
LINE
8
BLACK
6
CONTINUOUS
10
167.058
20
-151.5
11
184.97
21
-147.271
0
LINE
8
BLACK
6
CONTINUOUS
10
184.97
20
-147.271
11
184.97
21
-133.929
0
LINE
8
BLACK
6
CONTINUOUS
10
184.97
20
-133.929
11
167.058
21
-129.7
0
LINE
8
BLACK
6
CONTINUOUS
10
167.058
20
-129.7
11
132.17
21
-129.7
0
LINE
8
BLACK
6
CONTINUOUS
10
147.143
20
-140.72
11
147.183
21
-140.753
0
LINE
8
BLACK
6
CONTINUOUS
10
147.183
20
-140.753
11
147.191
21
-140.803
0
LINE
8
BLACK
6
CONTINUOUS
10
147.191
20
-140.803
11
147.166
21
-140.848
0
LINE
8
BLACK
6
CONTINUOUS
10
147.166
20
-140.848
11
147.118
21
-140.865
0
LINE
8
BLACK
6
CONTINUOUS
10
147.118
20
-140.865
11
146.326
21
-140.865
0
LINE
8
BLACK
6
CONTINUOUS
10
146.326
20
-140.865
11
146.257
21
-140.9
0
LINE
8
BLACK
6
CONTINUOUS
10
146.257
20
-140.9
11
146.227
21
-140.93
0
LINE
8
BLACK
6
CONTINUOUS
10
146.227
20
-140.93
11
146.193
21
-140.999
0
LINE
8
BLACK
6
CONTINUOUS
10
146.193
20
-140.999
11
146.193
21
-141.154
0
LINE
8
BLACK
6
CONTINUOUS
10
146.193
20
-141.154
11
146.227
21
-141.222
0
LINE
8
BLACK
6
CONTINUOUS
10
146.227
20
-141.222
11
146.257
21
-141.253
0
LINE
8
BLACK
6
CONTINUOUS
10
146.257
20
-141.253
11
146.326
21
-141.287
0
LINE
8
BLACK
6
CONTINUOUS
10
146.326
20
-141.287
11
147.118
21
-141.287
0
LINE
8
BLACK
6
CONTINUOUS
10
147.118
20
-141.287
11
147.143
21
-141.291
0
LINE
8
BLACK
6
CONTINUOUS
10
147.143
20
-141.291
11
147.183
21
-141.324
0
LINE
8
BLACK
6
CONTINUOUS
10
147.183
20
-141.324
11
147.191
21
-141.375
0
LINE
8
BLACK
6
CONTINUOUS
10
147.191
20
-141.375
11
147.166
21
-141.419
0
LINE
8
BLACK
6
CONTINUOUS
10
147.166
20
-141.419
11
147.118
21
-141.437
0
LINE
8
BLACK
6
CONTINUOUS
10
147.118
20
-141.437
11
146.308
21
-141.437
0
LINE
8
BLACK
6
CONTINUOUS
10
146.308
20
-141.437
11
146.282
21
-141.432
0
LINE
8
BLACK
6
CONTINUOUS
10
146.282
20
-141.432
11
146.279
21
-141.429
0
LINE
8
BLACK
6
CONTINUOUS
10
146.279
20
-141.429
11
146.275
21
-141.429
0
LINE
8
BLACK
6
CONTINUOUS
10
146.275
20
-141.429
11
146.179
21
-141.381
0
LINE
8
BLACK
6
CONTINUOUS
10
146.179
20
-141.381
11
146.161
21
-141.368
0
LINE
8
BLACK
6
CONTINUOUS
10
146.161
20
-141.368
11
146.16
21
-141.367
0
LINE
8
BLACK
6
CONTINUOUS
10
146.16
20
-141.367
11
146.112
21
-141.32
0
LINE
8
BLACK
6
CONTINUOUS
10
146.112
20
-141.32
11
146.099
21
-141.301
0
LINE
8
BLACK
6
CONTINUOUS
10
146.099
20
-141.301
11
146.098
21
-141.3
0
LINE
8
BLACK
6
CONTINUOUS
10
146.098
20
-141.3
11
146.051
21
-141.205
0
LINE
8
BLACK
6
CONTINUOUS
10
146.051
20
-141.205
11
146.043
21
-141.18
0
LINE
8
BLACK
6
CONTINUOUS
10
146.043
20
-141.18
11
146.044
21
-141.176
0
LINE
8
BLACK
6
CONTINUOUS
10
146.044
20
-141.176
11
146.043
21
-141.171
0
LINE
8
BLACK
6
CONTINUOUS
10
146.043
20
-141.171
11
146.043
21
-140.981
0
LINE
8
BLACK
6
CONTINUOUS
10
146.043
20
-140.981
11
146.047
21
-140.955
0
LINE
8
BLACK
6
CONTINUOUS
10
146.047
20
-140.955
11
146.05
21
-140.952
0
LINE
8
BLACK
6
CONTINUOUS
10
146.05
20
-140.952
11
146.051
21
-140.947
0
LINE
8
BLACK
6
CONTINUOUS
10
146.051
20
-140.947
11
146.098
21
-140.852
0
LINE
8
BLACK
6
CONTINUOUS
10
146.098
20
-140.852
11
146.112
21
-140.834
0
LINE
8
BLACK
6
CONTINUOUS
10
146.112
20
-140.834
11
146.112
21
-140.833
0
LINE
8
BLACK
6
CONTINUOUS
10
146.112
20
-140.833
11
146.16
21
-140.785
0
LINE
8
BLACK
6
CONTINUOUS
10
146.16
20
-140.785
11
146.178
21
-140.772
0
LINE
8
BLACK
6
CONTINUOUS
10
146.178
20
-140.772
11
146.179
21
-140.771
0
LINE
8
BLACK
6
CONTINUOUS
10
146.179
20
-140.771
11
146.275
21
-140.723
0
LINE
8
BLACK
6
CONTINUOUS
10
146.275
20
-140.723
11
146.3
21
-140.716
0
LINE
8
BLACK
6
CONTINUOUS
10
146.3
20
-140.716
11
146.304
21
-140.717
0
LINE
8
BLACK
6
CONTINUOUS
10
146.304
20
-140.717
11
146.308
21
-140.715
0
LINE
8
BLACK
6
CONTINUOUS
10
146.308
20
-140.715
11
147.118
21
-140.715
0
LINE
8
BLACK
6
CONTINUOUS
10
147.118
20
-140.715
11
147.143
21
-140.72
0
LINE
8
BLACK
6
CONTINUOUS
10
146.175
20
-139.742
11
146.193
21
-139.79
0
LINE
8
BLACK
6
CONTINUOUS
10
146.193
20
-139.79
11
146.193
21
-140.001
0
LINE
8
BLACK
6
CONTINUOUS
10
146.193
20
-140.001
11
147.118
21
-140.001
0
LINE
8
BLACK
6
CONTINUOUS
10
147.118
20
-140.001
11
147.143
21
-140.006
0
LINE
8
BLACK
6
CONTINUOUS
10
147.143
20
-140.006
11
147.147
21
-140.008
0
LINE
8
BLACK
6
CONTINUOUS
10
147.147
20
-140.008
11
147.151
21
-140.009
0
LINE
8
BLACK
6
CONTINUOUS
10
147.151
20
-140.009
11
147.166
21
-140.025
0
LINE
8
BLACK
6
CONTINUOUS
10
147.166
20
-140.025
11
147.183
21
-140.039
0
LINE
8
BLACK
6
CONTINUOUS
10
147.183
20
-140.039
11
147.183
21
-140.043
0
LINE
8
BLACK
6
CONTINUOUS
10
147.183
20
-140.043
11
147.186
21
-140.046
0
LINE
8
BLACK
6
CONTINUOUS
10
147.186
20
-140.046
11
147.188
21
-140.068
0
LINE
8
BLACK
6
CONTINUOUS
10
147.188
20
-140.068
11
147.191
21
-140.089
0
LINE
8
BLACK
6
CONTINUOUS
10
147.191
20
-140.089
11
147.189
21
-140.093
0
LINE
8
BLACK
6
CONTINUOUS
10
147.189
20
-140.093
11
147.19
21
-140.097
0
LINE
8
BLACK
6
CONTINUOUS
10
147.19
20
-140.097
11
147.177
21
-140.115
0
LINE
8
BLACK
6
CONTINUOUS
10
147.177
20
-140.115
11
147.166
21
-140.134
0
LINE
8
BLACK
6
CONTINUOUS
10
147.166
20
-140.134
11
147.162
21
-140.135
0
LINE
8
BLACK
6
CONTINUOUS
10
147.162
20
-140.135
11
147.159
21
-140.139
0
LINE
8
BLACK
6
CONTINUOUS
10
147.159
20
-140.139
11
147.023
21
-140.23
0
LINE
8
BLACK
6
CONTINUOUS
10
147.023
20
-140.23
11
146.941
21
-140.311
0
LINE
8
BLACK
6
CONTINUOUS
10
146.941
20
-140.311
11
146.899
21
-140.395
0
LINE
8
BLACK
6
CONTINUOUS
10
146.899
20
-140.395
11
146.883
21
-140.416
0
LINE
8
BLACK
6
CONTINUOUS
10
146.883
20
-140.416
11
146.836
21
-140.437
0
LINE
8
BLACK
6
CONTINUOUS
10
146.836
20
-140.437
11
146.787
21
-140.422
0
LINE
8
BLACK
6
CONTINUOUS
10
146.787
20
-140.422
11
146.759
21
-140.379
0
LINE
8
BLACK
6
CONTINUOUS
10
146.759
20
-140.379
11
146.765
21
-140.328
0
LINE
8
BLACK
6
CONTINUOUS
10
146.765
20
-140.328
11
146.812
21
-140.233
0
LINE
8
BLACK
6
CONTINUOUS
10
146.812
20
-140.233
11
146.826
21
-140.215
0
LINE
8
BLACK
6
CONTINUOUS
10
146.826
20
-140.215
11
146.826
21
-140.214
0
LINE
8
BLACK
6
CONTINUOUS
10
146.826
20
-140.214
11
146.889
21
-140.151
0
LINE
8
BLACK
6
CONTINUOUS
10
146.889
20
-140.151
11
146.193
21
-140.151
0
LINE
8
BLACK
6
CONTINUOUS
10
146.193
20
-140.151
11
146.193
21
-140.362
0
LINE
8
BLACK
6
CONTINUOUS
10
146.193
20
-140.362
11
146.188
21
-140.388
0
LINE
8
BLACK
6
CONTINUOUS
10
146.188
20
-140.388
11
146.155
21
-140.427
0
LINE
8
BLACK
6
CONTINUOUS
10
146.155
20
-140.427
11
146.105
21
-140.436
0
LINE
8
BLACK
6
CONTINUOUS
10
146.105
20
-140.436
11
146.06
21
-140.41
0
LINE
8
BLACK
6
CONTINUOUS
10
146.06
20
-140.41
11
146.043
21
-140.362
0
LINE
8
BLACK
6
CONTINUOUS
10
146.043
20
-140.362
11
146.043
21
-139.79
0
LINE
8
BLACK
6
CONTINUOUS
10
146.043
20
-139.79
11
146.047
21
-139.765
0
LINE
8
BLACK
6
CONTINUOUS
10
146.047
20
-139.765
11
146.08
21
-139.726
0
LINE
8
BLACK
6
CONTINUOUS
10
146.08
20
-139.726
11
146.131
21
-139.717
0
LINE
8
BLACK
6
CONTINUOUS
10
146.131
20
-139.717
11
146.175
21
-139.742
  0
ENDSEC
  0
EOF
