  0
SECTION
  2
HEADER
  9
$ANGBASE
  50
0.0
  9
$ANGDIR
  70
1
  9
$MEASUREMENT
  70
1
  0
ENDSEC
  0
SECTION
  2
TABLES
  0
TABLE
  2
LTYPE
  70
4
  0
LTYPE
  5
40F
  2
CONTINUOUS
  70
0
  3
Solid line
  72
65
  73
0
  40
0.0
  0
LTYPE
  5
410
  2
DASHDOT
 70
0
  3
Dash Dot ____ _ ____ _
 72
65
 73
4
 40
2.0
 49
1.25
 49
-0.25
 49
0.25
 49
-0.25
  0
LTYPE
  5
411
  2
DASHED
 70
0
  3
Dashed __ __ __ __ __
 72
65
 73
2
 40
0.75
 49
0.5
 49
-0.25
  0
LTYPE
  5
43B
  2
DOTTED
 70
0
  3
Dotted .  .  .  .
 72
65
 73
2
 40
0.2
 49
0.0
 49
-0.2
  0
ENDTAB
  0
TABLE
  2
STYLE
  70
4
  0
STYLE
  2
KICAD
  70
0
  40
0
  41
1
  42
1
  50
0
  71
0
  3
isocp.shx
  0
STYLE
  2
KICADB
  70
0
  40
0
  41
1
  42
1
  50
0
  71
0
  3
isocp.shx
  0
STYLE
  2
KICADI
  70
0
  40
0
  41
1
  42
1
  50
15
  71
0
  3
isocp.shx
  0
STYLE
  2
KICADBI
  70
0
  40
0
  41
1
  42
1
  50
15
  71
0
  3
isocp.shx
  0
ENDTAB
  0
TABLE
  2
LAYER
  70
1
  0
LAYER
  2
BLACK
  70
0
  62
7
  6
CONTINUOUS
  0
ENDTAB
  0
ENDSEC
  0
SECTION
  2
ENTITIES
0
LINE
8
BLACK
6
CONTINUOUS
10
121.268
20
-142.817
11
121.25
21
-142.775
0
LINE
8
BLACK
6
CONTINUOUS
10
121.25
20
-142.775
11
121.25
21
-127.545
0
LINE
8
BLACK
6
CONTINUOUS
10
121.25
20
-127.545
11
121.268
21
-127.503
0
LINE
8
BLACK
6
CONTINUOUS
10
121.268
20
-127.503
11
121.31
21
-127.485
0
LINE
8
BLACK
6
CONTINUOUS
10
121.31
20
-127.485
11
128.71
21
-127.485
0
LINE
8
BLACK
6
CONTINUOUS
10
128.71
20
-127.485
11
128.752
21
-127.503
0
LINE
8
BLACK
6
CONTINUOUS
10
128.752
20
-127.503
11
128.77
21
-127.545
0
LINE
8
BLACK
6
CONTINUOUS
10
128.77
20
-127.545
11
128.77
21
-142.775
0
LINE
8
BLACK
6
CONTINUOUS
10
128.77
20
-142.775
11
128.752
21
-142.817
0
LINE
8
BLACK
6
CONTINUOUS
10
128.752
20
-142.817
11
128.71
21
-142.835
0
LINE
8
BLACK
6
CONTINUOUS
10
128.71
20
-142.835
11
121.31
21
-142.835
0
LINE
8
BLACK
6
CONTINUOUS
10
121.31
20
-142.835
11
121.268
21
-142.817
0
LINE
8
BLACK
6
CONTINUOUS
10
121.37
20
-127.605
11
121.37
21
-142.715
0
LINE
8
BLACK
6
CONTINUOUS
10
121.37
20
-142.715
11
126.65
21
-142.715
0
LINE
8
BLACK
6
CONTINUOUS
10
126.65
20
-142.715
11
126.65
21
-127.605
0
LINE
8
BLACK
6
CONTINUOUS
10
126.65
20
-127.605
11
121.37
21
-127.605
0
LINE
8
BLACK
6
CONTINUOUS
10
126.77
20
-127.605
11
126.77
21
-142.715
0
LINE
8
BLACK
6
CONTINUOUS
10
126.77
20
-142.715
11
128.65
21
-142.715
0
LINE
8
BLACK
6
CONTINUOUS
10
128.65
20
-142.715
11
128.65
21
-127.605
0
LINE
8
BLACK
6
CONTINUOUS
10
128.65
20
-127.605
11
126.77
21
-127.605
0
LINE
8
BLACK
6
CONTINUOUS
10
123.039
20
-135.552
11
123.04
21
-135.552
0
LINE
8
BLACK
6
CONTINUOUS
10
123.04
20
-135.552
11
123.183
21
-135.6
0
LINE
8
BLACK
6
CONTINUOUS
10
123.183
20
-135.6
11
123.206
21
-135.612
0
LINE
8
BLACK
6
CONTINUOUS
10
123.206
20
-135.612
11
123.208
21
-135.616
0
LINE
8
BLACK
6
CONTINUOUS
10
123.208
20
-135.616
11
123.213
21
-135.618
0
LINE
8
BLACK
6
CONTINUOUS
10
123.213
20
-135.618
11
123.308
21
-135.713
0
LINE
8
BLACK
6
CONTINUOUS
10
123.308
20
-135.713
11
123.323
21
-135.734
0
LINE
8
BLACK
6
CONTINUOUS
10
123.323
20
-135.734
11
123.323
21
-135.739
0
LINE
8
BLACK
6
CONTINUOUS
10
123.323
20
-135.739
11
123.326
21
-135.742
0
LINE
8
BLACK
6
CONTINUOUS
10
123.326
20
-135.742
11
123.374
21
-135.885
0
LINE
8
BLACK
6
CONTINUOUS
10
123.374
20
-135.885
11
123.377
21
-135.908
0
LINE
8
BLACK
6
CONTINUOUS
10
123.377
20
-135.908
11
123.377
21
-135.909
0
LINE
8
BLACK
6
CONTINUOUS
10
123.377
20
-135.909
11
123.377
21
-136.004
0
LINE
8
BLACK
6
CONTINUOUS
10
123.377
20
-136.004
11
123.373
21
-136.03
0
LINE
8
BLACK
6
CONTINUOUS
10
123.373
20
-136.03
11
123.34
21
-136.069
0
LINE
8
BLACK
6
CONTINUOUS
10
123.34
20
-136.069
11
123.289
21
-136.078
0
LINE
8
BLACK
6
CONTINUOUS
10
123.289
20
-136.078
11
123.245
21
-136.052
0
LINE
8
BLACK
6
CONTINUOUS
10
123.245
20
-136.052
11
123.227
21
-136.004
0
LINE
8
BLACK
6
CONTINUOUS
10
123.227
20
-136.004
11
123.227
21
-135.921
0
LINE
8
BLACK
6
CONTINUOUS
10
123.227
20
-135.921
11
123.189
21
-135.807
0
LINE
8
BLACK
6
CONTINUOUS
10
123.189
20
-135.807
11
123.119
21
-135.737
0
LINE
8
BLACK
6
CONTINUOUS
10
123.119
20
-135.737
11
123.004
21
-135.698
0
LINE
8
BLACK
6
CONTINUOUS
10
123.004
20
-135.698
11
122.302
21
-135.698
0
LINE
8
BLACK
6
CONTINUOUS
10
122.302
20
-135.698
11
122.277
21
-135.694
0
LINE
8
BLACK
6
CONTINUOUS
10
122.277
20
-135.694
11
122.237
21
-135.661
0
LINE
8
BLACK
6
CONTINUOUS
10
122.237
20
-135.661
11
122.229
21
-135.61
0
LINE
8
BLACK
6
CONTINUOUS
10
122.229
20
-135.61
11
122.254
21
-135.566
0
LINE
8
BLACK
6
CONTINUOUS
10
122.254
20
-135.566
11
122.302
21
-135.548
0
LINE
8
BLACK
6
CONTINUOUS
10
122.302
20
-135.548
11
123.017
21
-135.548
0
LINE
8
BLACK
6
CONTINUOUS
10
123.017
20
-135.548
11
123.039
21
-135.552
0
LINE
8
BLACK
6
CONTINUOUS
10
123.026
20
-134.528
11
123.044
21
-134.576
0
LINE
8
BLACK
6
CONTINUOUS
10
123.044
20
-134.576
11
123.044
21
-134.644
0
LINE
8
BLACK
6
CONTINUOUS
10
123.044
20
-134.644
11
123.302
21
-134.644
0
LINE
8
BLACK
6
CONTINUOUS
10
123.302
20
-134.644
11
123.328
21
-134.648
0
LINE
8
BLACK
6
CONTINUOUS
10
123.328
20
-134.648
11
123.367
21
-134.681
0
LINE
8
BLACK
6
CONTINUOUS
10
123.367
20
-134.681
11
123.376
21
-134.732
0
LINE
8
BLACK
6
CONTINUOUS
10
123.376
20
-134.732
11
123.351
21
-134.776
0
LINE
8
BLACK
6
CONTINUOUS
10
123.351
20
-134.776
11
123.302
21
-134.794
0
LINE
8
BLACK
6
CONTINUOUS
10
123.302
20
-134.794
11
123.044
21
-134.794
0
LINE
8
BLACK
6
CONTINUOUS
10
123.044
20
-134.794
11
123.044
21
-135.195
0
LINE
8
BLACK
6
CONTINUOUS
10
123.044
20
-135.195
11
123.04
21
-135.22
0
LINE
8
BLACK
6
CONTINUOUS
10
123.04
20
-135.22
11
123.036
21
-135.225
0
LINE
8
BLACK
6
CONTINUOUS
10
123.036
20
-135.225
11
123.035
21
-135.23
0
LINE
8
BLACK
6
CONTINUOUS
10
123.035
20
-135.23
11
123.02
21
-135.244
0
LINE
8
BLACK
6
CONTINUOUS
10
123.02
20
-135.244
11
123.007
21
-135.26
0
LINE
8
BLACK
6
CONTINUOUS
10
123.007
20
-135.26
11
123.001
21
-135.261
0
LINE
8
BLACK
6
CONTINUOUS
10
123.001
20
-135.261
11
122.997
21
-135.265
0
LINE
8
BLACK
6
CONTINUOUS
10
122.997
20
-135.265
11
122.976
21
-135.265
0
LINE
8
BLACK
6
CONTINUOUS
10
122.976
20
-135.265
11
122.956
21
-135.269
0
LINE
8
BLACK
6
CONTINUOUS
10
122.956
20
-135.269
11
122.951
21
-135.266
0
LINE
8
BLACK
6
CONTINUOUS
10
122.951
20
-135.266
11
122.945
21
-135.266
0
LINE
8
BLACK
6
CONTINUOUS
10
122.945
20
-135.266
11
122.231
21
-135.028
0
LINE
8
BLACK
6
CONTINUOUS
10
122.231
20
-135.028
11
122.208
21
-135.015
0
LINE
8
BLACK
6
CONTINUOUS
10
122.208
20
-135.015
11
122.181
21
-134.972
0
LINE
8
BLACK
6
CONTINUOUS
10
122.181
20
-134.972
11
122.189
21
-134.921
0
LINE
8
BLACK
6
CONTINUOUS
10
122.189
20
-134.921
11
122.227
21
-134.887
0
LINE
8
BLACK
6
CONTINUOUS
10
122.227
20
-134.887
11
122.278
21
-134.886
0
LINE
8
BLACK
6
CONTINUOUS
10
122.278
20
-134.886
11
122.894
21
-135.091
0
LINE
8
BLACK
6
CONTINUOUS
10
122.894
20
-135.091
11
122.894
21
-134.794
0
LINE
8
BLACK
6
CONTINUOUS
10
122.894
20
-134.794
11
122.636
21
-134.794
0
LINE
8
BLACK
6
CONTINUOUS
10
122.636
20
-134.794
11
122.61
21
-134.789
0
LINE
8
BLACK
6
CONTINUOUS
10
122.61
20
-134.789
11
122.571
21
-134.756
0
LINE
8
BLACK
6
CONTINUOUS
10
122.571
20
-134.756
11
122.562
21
-134.706
0
LINE
8
BLACK
6
CONTINUOUS
10
122.562
20
-134.706
11
122.588
21
-134.661
0
LINE
8
BLACK
6
CONTINUOUS
10
122.588
20
-134.661
11
122.636
21
-134.644
0
LINE
8
BLACK
6
CONTINUOUS
10
122.636
20
-134.644
11
122.894
21
-134.644
0
LINE
8
BLACK
6
CONTINUOUS
10
122.894
20
-134.644
11
122.894
21
-134.576
0
LINE
8
BLACK
6
CONTINUOUS
10
122.894
20
-134.576
11
122.899
21
-134.55
0
LINE
8
BLACK
6
CONTINUOUS
10
122.899
20
-134.55
11
122.932
21
-134.511
0
LINE
8
BLACK
6
CONTINUOUS
10
122.932
20
-134.511
11
122.982
21
-134.502
0
LINE
8
BLACK
6
CONTINUOUS
10
122.982
20
-134.502
11
123.026
21
-134.528
0
LINE
8
BLACK
6
CONTINUOUS
10
188.388
20
-142.817
11
188.37
21
-142.775
0
LINE
8
BLACK
6
CONTINUOUS
10
188.37
20
-142.775
11
188.37
21
-127.545
0
LINE
8
BLACK
6
CONTINUOUS
10
188.37
20
-127.545
11
188.388
21
-127.503
0
LINE
8
BLACK
6
CONTINUOUS
10
188.388
20
-127.503
11
188.43
21
-127.485
0
LINE
8
BLACK
6
CONTINUOUS
10
188.43
20
-127.485
11
195.83
21
-127.485
0
LINE
8
BLACK
6
CONTINUOUS
10
195.83
20
-127.485
11
195.872
21
-127.503
0
LINE
8
BLACK
6
CONTINUOUS
10
195.872
20
-127.503
11
195.89
21
-127.545
0
LINE
8
BLACK
6
CONTINUOUS
10
195.89
20
-127.545
11
195.89
21
-142.775
0
LINE
8
BLACK
6
CONTINUOUS
10
195.89
20
-142.775
11
195.872
21
-142.817
0
LINE
8
BLACK
6
CONTINUOUS
10
195.872
20
-142.817
11
195.83
21
-142.835
0
LINE
8
BLACK
6
CONTINUOUS
10
195.83
20
-142.835
11
188.43
21
-142.835
0
LINE
8
BLACK
6
CONTINUOUS
10
188.43
20
-142.835
11
188.388
21
-142.817
0
LINE
8
BLACK
6
CONTINUOUS
10
188.49
20
-127.605
11
188.49
21
-142.715
0
LINE
8
BLACK
6
CONTINUOUS
10
188.49
20
-142.715
11
190.37
21
-142.715
0
LINE
8
BLACK
6
CONTINUOUS
10
190.37
20
-142.715
11
190.37
21
-127.605
0
LINE
8
BLACK
6
CONTINUOUS
10
190.37
20
-127.605
11
188.49
21
-127.605
0
LINE
8
BLACK
6
CONTINUOUS
10
190.49
20
-127.605
11
190.49
21
-142.715
0
LINE
8
BLACK
6
CONTINUOUS
10
190.49
20
-142.715
11
195.77
21
-142.715
0
LINE
8
BLACK
6
CONTINUOUS
10
195.77
20
-142.715
11
195.77
21
-127.605
0
LINE
8
BLACK
6
CONTINUOUS
10
195.77
20
-127.605
11
190.49
21
-127.605
0
LINE
8
BLACK
6
CONTINUOUS
10
194.775
20
-135.209
11
194.793
21
-135.258
0
LINE
8
BLACK
6
CONTINUOUS
10
194.793
20
-135.258
11
194.793
21
-135.877
0
LINE
8
BLACK
6
CONTINUOUS
10
194.793
20
-135.877
11
194.791
21
-135.888
0
LINE
8
BLACK
6
CONTINUOUS
10
194.791
20
-135.888
11
194.791
21
-135.891
0
LINE
8
BLACK
6
CONTINUOUS
10
194.791
20
-135.891
11
194.79
21
-135.894
0
LINE
8
BLACK
6
CONTINUOUS
10
194.79
20
-135.894
11
194.788
21
-135.902
0
LINE
8
BLACK
6
CONTINUOUS
10
194.788
20
-135.902
11
194.775
21
-135.918
0
LINE
8
BLACK
6
CONTINUOUS
10
194.775
20
-135.918
11
194.765
21
-135.935
0
LINE
8
BLACK
6
CONTINUOUS
10
194.765
20
-135.935
11
194.759
21
-135.937
0
LINE
8
BLACK
6
CONTINUOUS
10
194.759
20
-135.937
11
194.755
21
-135.942
0
LINE
8
BLACK
6
CONTINUOUS
10
194.755
20
-135.942
11
194.735
21
-135.945
0
LINE
8
BLACK
6
CONTINUOUS
10
194.735
20
-135.945
11
194.716
21
-135.952
0
LINE
8
BLACK
6
CONTINUOUS
10
194.716
20
-135.952
11
194.71
21
-135.949
0
LINE
8
BLACK
6
CONTINUOUS
10
194.71
20
-135.949
11
194.705
21
-135.951
0
LINE
8
BLACK
6
CONTINUOUS
10
194.705
20
-135.951
11
194.687
21
-135.94
0
LINE
8
BLACK
6
CONTINUOUS
10
194.687
20
-135.94
11
194.668
21
-135.933
0
LINE
8
BLACK
6
CONTINUOUS
10
194.668
20
-135.933
11
194.408
21
-135.706
0
LINE
8
BLACK
6
CONTINUOUS
10
194.408
20
-135.706
11
194.407
21
-135.712
0
LINE
8
BLACK
6
CONTINUOUS
10
194.407
20
-135.712
11
194.404
21
-135.715
0
LINE
8
BLACK
6
CONTINUOUS
10
194.404
20
-135.715
11
194.404
21
-135.72
0
LINE
8
BLACK
6
CONTINUOUS
10
194.404
20
-135.72
11
194.356
21
-135.815
0
LINE
8
BLACK
6
CONTINUOUS
10
194.356
20
-135.815
11
194.343
21
-135.833
0
LINE
8
BLACK
6
CONTINUOUS
10
194.343
20
-135.833
11
194.342
21
-135.834
0
LINE
8
BLACK
6
CONTINUOUS
10
194.342
20
-135.834
11
194.294
21
-135.882
0
LINE
8
BLACK
6
CONTINUOUS
10
194.294
20
-135.882
11
194.276
21
-135.895
0
LINE
8
BLACK
6
CONTINUOUS
10
194.276
20
-135.895
11
194.275
21
-135.896
0
LINE
8
BLACK
6
CONTINUOUS
10
194.275
20
-135.896
11
194.18
21
-135.944
0
LINE
8
BLACK
6
CONTINUOUS
10
194.18
20
-135.944
11
194.155
21
-135.951
0
LINE
8
BLACK
6
CONTINUOUS
10
194.155
20
-135.951
11
194.15
21
-135.95
0
LINE
8
BLACK
6
CONTINUOUS
10
194.15
20
-135.95
11
194.146
21
-135.952
0
LINE
8
BLACK
6
CONTINUOUS
10
194.146
20
-135.952
11
193.908
21
-135.952
0
LINE
8
BLACK
6
CONTINUOUS
10
193.908
20
-135.952
11
193.882
21
-135.947
0
LINE
8
BLACK
6
CONTINUOUS
10
193.882
20
-135.947
11
193.879
21
-135.944
0
LINE
8
BLACK
6
CONTINUOUS
10
193.879
20
-135.944
11
193.875
21
-135.944
0
LINE
8
BLACK
6
CONTINUOUS
10
193.875
20
-135.944
11
193.779
21
-135.896
0
LINE
8
BLACK
6
CONTINUOUS
10
193.779
20
-135.896
11
193.761
21
-135.883
0
LINE
8
BLACK
6
CONTINUOUS
10
193.761
20
-135.883
11
193.76
21
-135.882
0
LINE
8
BLACK
6
CONTINUOUS
10
193.76
20
-135.882
11
193.712
21
-135.834
0
LINE
8
BLACK
6
CONTINUOUS
10
193.712
20
-135.834
11
193.699
21
-135.816
0
LINE
8
BLACK
6
CONTINUOUS
10
193.699
20
-135.816
11
193.698
21
-135.815
0
LINE
8
BLACK
6
CONTINUOUS
10
193.698
20
-135.815
11
193.651
21
-135.72
0
LINE
8
BLACK
6
CONTINUOUS
10
193.651
20
-135.72
11
193.643
21
-135.695
0
LINE
8
BLACK
6
CONTINUOUS
10
193.643
20
-135.695
11
193.644
21
-135.69
0
LINE
8
BLACK
6
CONTINUOUS
10
193.644
20
-135.69
11
193.643
21
-135.686
0
LINE
8
BLACK
6
CONTINUOUS
10
193.643
20
-135.686
11
193.643
21
-135.4
0
LINE
8
BLACK
6
CONTINUOUS
10
193.643
20
-135.4
11
193.647
21
-135.375
0
LINE
8
BLACK
6
CONTINUOUS
10
193.647
20
-135.375
11
193.65
21
-135.371
0
LINE
8
BLACK
6
CONTINUOUS
10
193.65
20
-135.371
11
193.651
21
-135.367
0
LINE
8
BLACK
6
CONTINUOUS
10
193.651
20
-135.367
11
193.698
21
-135.272
0
LINE
8
BLACK
6
CONTINUOUS
10
193.698
20
-135.272
11
193.712
21
-135.254
0
LINE
8
BLACK
6
CONTINUOUS
10
193.712
20
-135.254
11
193.712
21
-135.252
0
LINE
8
BLACK
6
CONTINUOUS
10
193.712
20
-135.252
11
193.76
21
-135.205
0
LINE
8
BLACK
6
CONTINUOUS
10
193.76
20
-135.205
11
193.781
21
-135.19
0
LINE
8
BLACK
6
CONTINUOUS
10
193.781
20
-135.19
11
193.832
21
-135.185
0
LINE
8
BLACK
6
CONTINUOUS
10
193.832
20
-135.185
11
193.874
21
-135.215
0
LINE
8
BLACK
6
CONTINUOUS
10
193.874
20
-135.215
11
193.888
21
-135.264
0
LINE
8
BLACK
6
CONTINUOUS
10
193.888
20
-135.264
11
193.866
21
-135.311
0
LINE
8
BLACK
6
CONTINUOUS
10
193.866
20
-135.311
11
193.827
21
-135.35
0
LINE
8
BLACK
6
CONTINUOUS
10
193.827
20
-135.35
11
193.793
21
-135.418
0
LINE
8
BLACK
6
CONTINUOUS
10
193.793
20
-135.418
11
193.793
21
-135.668
0
LINE
8
BLACK
6
CONTINUOUS
10
193.793
20
-135.668
11
193.827
21
-135.737
0
LINE
8
BLACK
6
CONTINUOUS
10
193.827
20
-135.737
11
193.857
21
-135.767
0
LINE
8
BLACK
6
CONTINUOUS
10
193.857
20
-135.767
11
193.926
21
-135.802
0
LINE
8
BLACK
6
CONTINUOUS
10
193.926
20
-135.802
11
194.128
21
-135.802
0
LINE
8
BLACK
6
CONTINUOUS
10
194.128
20
-135.802
11
194.197
21
-135.767
0
LINE
8
BLACK
6
CONTINUOUS
10
194.197
20
-135.767
11
194.227
21
-135.737
0
LINE
8
BLACK
6
CONTINUOUS
10
194.227
20
-135.737
11
194.262
21
-135.668
0
LINE
8
BLACK
6
CONTINUOUS
10
194.262
20
-135.668
11
194.262
21
-135.543
0
LINE
8
BLACK
6
CONTINUOUS
10
194.262
20
-135.543
11
194.264
21
-135.532
0
LINE
8
BLACK
6
CONTINUOUS
10
194.264
20
-135.532
11
194.263
21
-135.529
0
LINE
8
BLACK
6
CONTINUOUS
10
194.263
20
-135.529
11
194.265
21
-135.526
0
LINE
8
BLACK
6
CONTINUOUS
10
194.265
20
-135.526
11
194.266
21
-135.518
0
LINE
8
BLACK
6
CONTINUOUS
10
194.266
20
-135.518
11
194.279
21
-135.502
0
LINE
8
BLACK
6
CONTINUOUS
10
194.279
20
-135.502
11
194.29
21
-135.485
0
LINE
8
BLACK
6
CONTINUOUS
10
194.29
20
-135.485
11
194.295
21
-135.483
0
LINE
8
BLACK
6
CONTINUOUS
10
194.295
20
-135.483
11
194.299
21
-135.478
0
LINE
8
BLACK
6
CONTINUOUS
10
194.299
20
-135.478
11
194.319
21
-135.475
0
LINE
8
BLACK
6
CONTINUOUS
10
194.319
20
-135.475
11
194.338
21
-135.468
0
LINE
8
BLACK
6
CONTINUOUS
10
194.338
20
-135.468
11
194.344
21
-135.471
0
LINE
8
BLACK
6
CONTINUOUS
10
194.344
20
-135.471
11
194.35
21
-135.469
0
LINE
8
BLACK
6
CONTINUOUS
10
194.35
20
-135.469
11
194.367
21
-135.48
0
LINE
8
BLACK
6
CONTINUOUS
10
194.367
20
-135.48
11
194.386
21
-135.487
0
LINE
8
BLACK
6
CONTINUOUS
10
194.386
20
-135.487
11
194.643
21
-135.711
0
LINE
8
BLACK
6
CONTINUOUS
10
194.643
20
-135.711
11
194.643
21
-135.258
0
LINE
8
BLACK
6
CONTINUOUS
10
194.643
20
-135.258
11
194.647
21
-135.232
0
LINE
8
BLACK
6
CONTINUOUS
10
194.647
20
-135.232
11
194.68
21
-135.193
0
LINE
8
BLACK
6
CONTINUOUS
10
194.68
20
-135.193
11
194.731
21
-135.184
0
LINE
8
BLACK
6
CONTINUOUS
10
194.731
20
-135.184
11
194.775
21
-135.209
0
LINE
8
BLACK
6
CONTINUOUS
10
193.775
20
-134.448
11
193.793
21
-134.496
0
LINE
8
BLACK
6
CONTINUOUS
10
193.793
20
-134.496
11
193.793
21
-134.579
0
LINE
8
BLACK
6
CONTINUOUS
10
193.793
20
-134.579
11
193.831
21
-134.693
0
LINE
8
BLACK
6
CONTINUOUS
10
193.831
20
-134.693
11
193.901
21
-134.763
0
LINE
8
BLACK
6
CONTINUOUS
10
193.901
20
-134.763
11
194.016
21
-134.802
0
LINE
8
BLACK
6
CONTINUOUS
10
194.016
20
-134.802
11
194.718
21
-134.802
0
LINE
8
BLACK
6
CONTINUOUS
10
194.718
20
-134.802
11
194.743
21
-134.806
0
LINE
8
BLACK
6
CONTINUOUS
10
194.743
20
-134.806
11
194.783
21
-134.839
0
LINE
8
BLACK
6
CONTINUOUS
10
194.783
20
-134.839
11
194.791
21
-134.89
0
LINE
8
BLACK
6
CONTINUOUS
10
194.791
20
-134.89
11
194.766
21
-134.934
0
LINE
8
BLACK
6
CONTINUOUS
10
194.766
20
-134.934
11
194.718
21
-134.952
0
LINE
8
BLACK
6
CONTINUOUS
10
194.718
20
-134.952
11
194.003
21
-134.952
0
LINE
8
BLACK
6
CONTINUOUS
10
194.003
20
-134.952
11
193.981
21
-134.948
0
LINE
8
BLACK
6
CONTINUOUS
10
193.981
20
-134.948
11
193.98
21
-134.948
0
LINE
8
BLACK
6
CONTINUOUS
10
193.98
20
-134.948
11
193.837
21
-134.9
0
LINE
8
BLACK
6
CONTINUOUS
10
193.837
20
-134.9
11
193.814
21
-134.888
0
LINE
8
BLACK
6
CONTINUOUS
10
193.814
20
-134.888
11
193.812
21
-134.884
0
LINE
8
BLACK
6
CONTINUOUS
10
193.812
20
-134.884
11
193.807
21
-134.882
0
LINE
8
BLACK
6
CONTINUOUS
10
193.807
20
-134.882
11
193.712
21
-134.787
0
LINE
8
BLACK
6
CONTINUOUS
10
193.712
20
-134.787
11
193.697
21
-134.766
0
LINE
8
BLACK
6
CONTINUOUS
10
193.697
20
-134.766
11
193.697
21
-134.761
0
LINE
8
BLACK
6
CONTINUOUS
10
193.697
20
-134.761
11
193.694
21
-134.758
0
LINE
8
BLACK
6
CONTINUOUS
10
193.694
20
-134.758
11
193.646
21
-134.615
0
LINE
8
BLACK
6
CONTINUOUS
10
193.646
20
-134.615
11
193.643
21
-134.592
0
LINE
8
BLACK
6
CONTINUOUS
10
193.643
20
-134.592
11
193.643
21
-134.591
0
LINE
8
BLACK
6
CONTINUOUS
10
193.643
20
-134.591
11
193.643
21
-134.496
0
LINE
8
BLACK
6
CONTINUOUS
10
193.643
20
-134.496
11
193.647
21
-134.47
0
LINE
8
BLACK
6
CONTINUOUS
10
193.647
20
-134.47
11
193.68
21
-134.431
0
LINE
8
BLACK
6
CONTINUOUS
10
193.68
20
-134.431
11
193.731
21
-134.422
0
LINE
8
BLACK
6
CONTINUOUS
10
193.731
20
-134.422
11
193.775
21
-134.448
0
LINE
8
BLACK
6
CONTINUOUS
10
149.112
20
-129.443
11
149.13
21
-129.485
0
LINE
8
BLACK
6
CONTINUOUS
10
149.13
20
-129.485
11
149.112
21
-129.527
0
LINE
8
BLACK
6
CONTINUOUS
10
149.112
20
-129.527
11
149.07
21
-129.545
0
LINE
8
BLACK
6
CONTINUOUS
10
149.07
20
-129.545
11
135.07
21
-129.545
0
LINE
8
BLACK
6
CONTINUOUS
10
135.07
20
-129.545
11
135.028
21
-129.527
0
LINE
8
BLACK
6
CONTINUOUS
10
135.028
20
-129.527
11
135.01
21
-129.485
0
LINE
8
BLACK
6
CONTINUOUS
10
135.01
20
-129.485
11
135.028
21
-129.443
0
LINE
8
BLACK
6
CONTINUOUS
10
135.028
20
-129.443
11
135.07
21
-129.425
0
LINE
8
BLACK
6
CONTINUOUS
10
135.07
20
-129.425
11
149.07
21
-129.425
0
LINE
8
BLACK
6
CONTINUOUS
10
149.07
20
-129.425
11
149.112
21
-129.443
0
LINE
8
BLACK
6
CONTINUOUS
10
182.112
20
-129.443
11
182.13
21
-129.485
0
LINE
8
BLACK
6
CONTINUOUS
10
182.13
20
-129.485
11
182.112
21
-129.527
0
LINE
8
BLACK
6
CONTINUOUS
10
182.112
20
-129.527
11
182.07
21
-129.545
0
LINE
8
BLACK
6
CONTINUOUS
10
182.07
20
-129.545
11
168.07
21
-129.545
0
LINE
8
BLACK
6
CONTINUOUS
10
168.07
20
-129.545
11
168.028
21
-129.527
0
LINE
8
BLACK
6
CONTINUOUS
10
168.028
20
-129.527
11
168.01
21
-129.485
0
LINE
8
BLACK
6
CONTINUOUS
10
168.01
20
-129.485
11
168.028
21
-129.443
0
LINE
8
BLACK
6
CONTINUOUS
10
168.028
20
-129.443
11
168.07
21
-129.425
0
LINE
8
BLACK
6
CONTINUOUS
10
168.07
20
-129.425
11
182.07
21
-129.425
0
LINE
8
BLACK
6
CONTINUOUS
10
182.07
20
-129.425
11
182.112
21
-129.443
0
LINE
8
BLACK
6
CONTINUOUS
10
175.46
20
-122.019
11
175.464
21
-122.019
0
LINE
8
BLACK
6
CONTINUOUS
10
175.464
20
-122.019
11
175.483
21
-122.029
0
LINE
8
BLACK
6
CONTINUOUS
10
175.483
20
-122.029
11
175.503
21
-122.038
0
LINE
8
BLACK
6
CONTINUOUS
10
175.503
20
-122.038
11
175.505
21
-122.042
0
LINE
8
BLACK
6
CONTINUOUS
10
175.505
20
-122.042
11
175.508
21
-122.044
0
LINE
8
BLACK
6
CONTINUOUS
10
175.508
20
-122.044
11
175.516
21
-122.065
0
LINE
8
BLACK
6
CONTINUOUS
10
175.516
20
-122.065
11
175.525
21
-122.084
0
LINE
8
BLACK
6
CONTINUOUS
10
175.525
20
-122.084
11
175.524
21
-122.088
0
LINE
8
BLACK
6
CONTINUOUS
10
175.524
20
-122.088
11
175.526
21
-122.092
0
LINE
8
BLACK
6
CONTINUOUS
10
175.526
20
-122.092
11
175.526
21
-123.017
0
LINE
8
BLACK
6
CONTINUOUS
10
175.526
20
-123.017
11
175.737
21
-123.017
0
LINE
8
BLACK
6
CONTINUOUS
10
175.737
20
-123.017
11
175.762
21
-123.022
0
LINE
8
BLACK
6
CONTINUOUS
10
175.762
20
-123.022
11
175.802
21
-123.055
0
LINE
8
BLACK
6
CONTINUOUS
10
175.802
20
-123.055
11
175.811
21
-123.105
0
LINE
8
BLACK
6
CONTINUOUS
10
175.811
20
-123.105
11
175.785
21
-123.15
0
LINE
8
BLACK
6
CONTINUOUS
10
175.785
20
-123.15
11
175.737
21
-123.167
0
LINE
8
BLACK
6
CONTINUOUS
10
175.737
20
-123.167
11
175.165
21
-123.167
0
LINE
8
BLACK
6
CONTINUOUS
10
175.165
20
-123.167
11
175.14
21
-123.163
0
LINE
8
BLACK
6
CONTINUOUS
10
175.14
20
-123.163
11
175.1
21
-123.13
0
LINE
8
BLACK
6
CONTINUOUS
10
175.1
20
-123.13
11
175.091
21
-123.079
0
LINE
8
BLACK
6
CONTINUOUS
10
175.091
20
-123.079
11
175.117
21
-123.035
0
LINE
8
BLACK
6
CONTINUOUS
10
175.117
20
-123.035
11
175.165
21
-123.017
0
LINE
8
BLACK
6
CONTINUOUS
10
175.165
20
-123.017
11
175.376
21
-123.017
0
LINE
8
BLACK
6
CONTINUOUS
10
175.376
20
-123.017
11
175.376
21
-122.321
0
LINE
8
BLACK
6
CONTINUOUS
10
175.376
20
-122.321
11
175.314
21
-122.384
0
LINE
8
BLACK
6
CONTINUOUS
10
175.314
20
-122.384
11
175.295
21
-122.396
0
LINE
8
BLACK
6
CONTINUOUS
10
175.295
20
-122.396
11
175.294
21
-122.398
0
LINE
8
BLACK
6
CONTINUOUS
10
175.294
20
-122.398
11
175.199
21
-122.445
0
LINE
8
BLACK
6
CONTINUOUS
10
175.199
20
-122.445
11
175.174
21
-122.453
0
LINE
8
BLACK
6
CONTINUOUS
10
175.174
20
-122.453
11
175.124
21
-122.441
0
LINE
8
BLACK
6
CONTINUOUS
10
175.124
20
-122.441
11
175.093
21
-122.399
0
LINE
8
BLACK
6
CONTINUOUS
10
175.093
20
-122.399
11
175.096
21
-122.348
0
LINE
8
BLACK
6
CONTINUOUS
10
175.096
20
-122.348
11
175.132
21
-122.311
0
LINE
8
BLACK
6
CONTINUOUS
10
175.132
20
-122.311
11
175.216
21
-122.269
0
LINE
8
BLACK
6
CONTINUOUS
10
175.216
20
-122.269
11
175.297
21
-122.187
0
LINE
8
BLACK
6
CONTINUOUS
10
175.297
20
-122.187
11
175.389
21
-122.051
0
LINE
8
BLACK
6
CONTINUOUS
10
175.389
20
-122.051
11
175.407
21
-122.032
0
LINE
8
BLACK
6
CONTINUOUS
10
175.407
20
-122.032
11
175.411
21
-122.031
0
LINE
8
BLACK
6
CONTINUOUS
10
175.411
20
-122.031
11
175.413
21
-122.027
0
LINE
8
BLACK
6
CONTINUOUS
10
175.413
20
-122.027
11
175.435
21
-122.024
0
LINE
8
BLACK
6
CONTINUOUS
10
175.435
20
-122.024
11
175.456
21
-122.018
0
LINE
8
BLACK
6
CONTINUOUS
10
175.456
20
-122.018
11
175.46
21
-122.019
0
LINE
8
BLACK
6
CONTINUOUS
10
174.794
20
-122.044
11
174.812
21
-122.092
0
LINE
8
BLACK
6
CONTINUOUS
10
174.812
20
-122.092
11
174.812
21
-122.807
0
LINE
8
BLACK
6
CONTINUOUS
10
174.812
20
-122.807
11
174.808
21
-122.829
0
LINE
8
BLACK
6
CONTINUOUS
10
174.808
20
-122.829
11
174.808
21
-122.83
0
LINE
8
BLACK
6
CONTINUOUS
10
174.808
20
-122.83
11
174.76
21
-122.973
0
LINE
8
BLACK
6
CONTINUOUS
10
174.76
20
-122.973
11
174.748
21
-122.996
0
LINE
8
BLACK
6
CONTINUOUS
10
174.748
20
-122.996
11
174.744
21
-122.998
0
LINE
8
BLACK
6
CONTINUOUS
10
174.744
20
-122.998
11
174.742
21
-123.003
0
LINE
8
BLACK
6
CONTINUOUS
10
174.742
20
-123.003
11
174.647
21
-123.098
0
LINE
8
BLACK
6
CONTINUOUS
10
174.647
20
-123.098
11
174.626
21
-123.113
0
LINE
8
BLACK
6
CONTINUOUS
10
174.626
20
-123.113
11
174.621
21
-123.113
0
LINE
8
BLACK
6
CONTINUOUS
10
174.621
20
-123.113
11
174.618
21
-123.116
0
LINE
8
BLACK
6
CONTINUOUS
10
174.618
20
-123.116
11
174.475
21
-123.164
0
LINE
8
BLACK
6
CONTINUOUS
10
174.475
20
-123.164
11
174.452
21
-123.167
0
LINE
8
BLACK
6
CONTINUOUS
10
174.452
20
-123.167
11
174.451
21
-123.167
0
LINE
8
BLACK
6
CONTINUOUS
10
174.451
20
-123.167
11
174.356
21
-123.167
0
LINE
8
BLACK
6
CONTINUOUS
10
174.356
20
-123.167
11
174.33
21
-123.163
0
LINE
8
BLACK
6
CONTINUOUS
10
174.33
20
-123.163
11
174.291
21
-123.13
0
LINE
8
BLACK
6
CONTINUOUS
10
174.291
20
-123.13
11
174.282
21
-123.079
0
LINE
8
BLACK
6
CONTINUOUS
10
174.282
20
-123.079
11
174.308
21
-123.035
0
LINE
8
BLACK
6
CONTINUOUS
10
174.308
20
-123.035
11
174.356
21
-123.017
0
LINE
8
BLACK
6
CONTINUOUS
10
174.356
20
-123.017
11
174.439
21
-123.017
0
LINE
8
BLACK
6
CONTINUOUS
10
174.439
20
-123.017
11
174.553
21
-122.979
0
LINE
8
BLACK
6
CONTINUOUS
10
174.553
20
-122.979
11
174.623
21
-122.909
0
LINE
8
BLACK
6
CONTINUOUS
10
174.623
20
-122.909
11
174.662
21
-122.794
0
LINE
8
BLACK
6
CONTINUOUS
10
174.662
20
-122.794
11
174.662
21
-122.092
0
LINE
8
BLACK
6
CONTINUOUS
10
174.662
20
-122.092
11
174.666
21
-122.067
0
LINE
8
BLACK
6
CONTINUOUS
10
174.666
20
-122.067
11
174.699
21
-122.027
0
LINE
8
BLACK
6
CONTINUOUS
10
174.699
20
-122.027
11
174.75
21
-122.019
0
LINE
8
BLACK
6
CONTINUOUS
10
174.75
20
-122.019
11
174.794
21
-122.044
0
LINE
8
BLACK
6
CONTINUOUS
10
141.764
20
-121.984
11
141.782
21
-122.032
0
LINE
8
BLACK
6
CONTINUOUS
10
141.782
20
-122.032
11
141.782
21
-122.747
0
LINE
8
BLACK
6
CONTINUOUS
10
141.782
20
-122.747
11
141.778
21
-122.769
0
LINE
8
BLACK
6
CONTINUOUS
10
141.778
20
-122.769
11
141.778
21
-122.77
0
LINE
8
BLACK
6
CONTINUOUS
10
141.778
20
-122.77
11
141.73
21
-122.913
0
LINE
8
BLACK
6
CONTINUOUS
10
141.73
20
-122.913
11
141.718
21
-122.936
0
LINE
8
BLACK
6
CONTINUOUS
10
141.718
20
-122.936
11
141.714
21
-122.938
0
LINE
8
BLACK
6
CONTINUOUS
10
141.714
20
-122.938
11
141.712
21
-122.943
0
LINE
8
BLACK
6
CONTINUOUS
10
141.712
20
-122.943
11
141.617
21
-123.038
0
LINE
8
BLACK
6
CONTINUOUS
10
141.617
20
-123.038
11
141.596
21
-123.053
0
LINE
8
BLACK
6
CONTINUOUS
10
141.596
20
-123.053
11
141.591
21
-123.053
0
LINE
8
BLACK
6
CONTINUOUS
10
141.591
20
-123.053
11
141.588
21
-123.056
0
LINE
8
BLACK
6
CONTINUOUS
10
141.588
20
-123.056
11
141.445
21
-123.104
0
LINE
8
BLACK
6
CONTINUOUS
10
141.445
20
-123.104
11
141.422
21
-123.107
0
LINE
8
BLACK
6
CONTINUOUS
10
141.422
20
-123.107
11
141.421
21
-123.107
0
LINE
8
BLACK
6
CONTINUOUS
10
141.421
20
-123.107
11
141.326
21
-123.107
0
LINE
8
BLACK
6
CONTINUOUS
10
141.326
20
-123.107
11
141.3
21
-123.103
0
LINE
8
BLACK
6
CONTINUOUS
10
141.3
20
-123.103
11
141.261
21
-123.07
0
LINE
8
BLACK
6
CONTINUOUS
10
141.261
20
-123.07
11
141.252
21
-123.019
0
LINE
8
BLACK
6
CONTINUOUS
10
141.252
20
-123.019
11
141.278
21
-122.975
0
LINE
8
BLACK
6
CONTINUOUS
10
141.278
20
-122.975
11
141.326
21
-122.957
0
LINE
8
BLACK
6
CONTINUOUS
10
141.326
20
-122.957
11
141.409
21
-122.957
0
LINE
8
BLACK
6
CONTINUOUS
10
141.409
20
-122.957
11
141.523
21
-122.919
0
LINE
8
BLACK
6
CONTINUOUS
10
141.523
20
-122.919
11
141.593
21
-122.849
0
LINE
8
BLACK
6
CONTINUOUS
10
141.593
20
-122.849
11
141.632
21
-122.734
0
LINE
8
BLACK
6
CONTINUOUS
10
141.632
20
-122.734
11
141.632
21
-122.032
0
LINE
8
BLACK
6
CONTINUOUS
10
141.632
20
-122.032
11
141.636
21
-122.007
0
LINE
8
BLACK
6
CONTINUOUS
10
141.636
20
-122.007
11
141.669
21
-121.967
0
LINE
8
BLACK
6
CONTINUOUS
10
141.669
20
-121.967
11
141.72
21
-121.959
0
LINE
8
BLACK
6
CONTINUOUS
10
141.72
20
-121.959
11
141.764
21
-121.984
0
LINE
8
BLACK
6
CONTINUOUS
10
142.542
20
-121.962
11
142.545
21
-121.965
0
LINE
8
BLACK
6
CONTINUOUS
10
142.545
20
-121.965
11
142.55
21
-121.965
0
LINE
8
BLACK
6
CONTINUOUS
10
142.55
20
-121.965
11
142.645
21
-122.013
0
LINE
8
BLACK
6
CONTINUOUS
10
142.645
20
-122.013
11
142.663
21
-122.026
0
LINE
8
BLACK
6
CONTINUOUS
10
142.663
20
-122.026
11
142.664
21
-122.027
0
LINE
8
BLACK
6
CONTINUOUS
10
142.664
20
-122.027
11
142.712
21
-122.075
0
LINE
8
BLACK
6
CONTINUOUS
10
142.712
20
-122.075
11
142.725
21
-122.093
0
LINE
8
BLACK
6
CONTINUOUS
10
142.725
20
-122.093
11
142.726
21
-122.094
0
LINE
8
BLACK
6
CONTINUOUS
10
142.726
20
-122.094
11
142.774
21
-122.189
0
LINE
8
BLACK
6
CONTINUOUS
10
142.774
20
-122.189
11
142.781
21
-122.214
0
LINE
8
BLACK
6
CONTINUOUS
10
142.781
20
-122.214
11
142.78
21
-122.219
0
LINE
8
BLACK
6
CONTINUOUS
10
142.78
20
-122.219
11
142.782
21
-122.223
0
LINE
8
BLACK
6
CONTINUOUS
10
142.782
20
-122.223
11
142.782
21
-122.318
0
LINE
8
BLACK
6
CONTINUOUS
10
142.782
20
-122.318
11
142.778
21
-122.34
0
LINE
8
BLACK
6
CONTINUOUS
10
142.778
20
-122.34
11
142.778
21
-122.342
0
LINE
8
BLACK
6
CONTINUOUS
10
142.778
20
-122.342
11
142.73
21
-122.485
0
LINE
8
BLACK
6
CONTINUOUS
10
142.73
20
-122.485
11
142.718
21
-122.508
0
LINE
8
BLACK
6
CONTINUOUS
10
142.718
20
-122.508
11
142.714
21
-122.51
0
LINE
8
BLACK
6
CONTINUOUS
10
142.714
20
-122.51
11
142.712
21
-122.514
0
LINE
8
BLACK
6
CONTINUOUS
10
142.712
20
-122.514
11
142.269
21
-122.957
0
LINE
8
BLACK
6
CONTINUOUS
10
142.269
20
-122.957
11
142.707
21
-122.957
0
LINE
8
BLACK
6
CONTINUOUS
10
142.707
20
-122.957
11
142.732
21
-122.962
0
LINE
8
BLACK
6
CONTINUOUS
10
142.732
20
-122.962
11
142.772
21
-122.995
0
LINE
8
BLACK
6
CONTINUOUS
10
142.772
20
-122.995
11
142.781
21
-123.045
0
LINE
8
BLACK
6
CONTINUOUS
10
142.781
20
-123.045
11
142.755
21
-123.09
0
LINE
8
BLACK
6
CONTINUOUS
10
142.755
20
-123.09
11
142.707
21
-123.107
0
LINE
8
BLACK
6
CONTINUOUS
10
142.707
20
-123.107
11
142.088
21
-123.107
0
LINE
8
BLACK
6
CONTINUOUS
10
142.088
20
-123.107
11
142.071
21
-123.105
0
LINE
8
BLACK
6
CONTINUOUS
10
142.071
20
-123.105
11
142.068
21
-123.105
0
LINE
8
BLACK
6
CONTINUOUS
10
142.068
20
-123.105
11
142.067
21
-123.104
0
LINE
8
BLACK
6
CONTINUOUS
10
142.067
20
-123.104
11
142.062
21
-123.103
0
LINE
8
BLACK
6
CONTINUOUS
10
142.062
20
-123.103
11
142.045
21
-123.088
0
LINE
8
BLACK
6
CONTINUOUS
10
142.045
20
-123.088
11
142.026
21
-123.075
0
LINE
8
BLACK
6
CONTINUOUS
10
142.026
20
-123.075
11
142.025
21
-123.072
0
LINE
8
BLACK
6
CONTINUOUS
10
142.025
20
-123.072
11
142.023
21
-123.07
0
LINE
8
BLACK
6
CONTINUOUS
10
142.023
20
-123.07
11
142.019
21
-123.048
0
LINE
8
BLACK
6
CONTINUOUS
10
142.019
20
-123.048
11
142.013
21
-123.026
0
LINE
8
BLACK
6
CONTINUOUS
10
142.013
20
-123.026
11
142.014
21
-123.023
0
LINE
8
BLACK
6
CONTINUOUS
10
142.014
20
-123.023
11
142.014
21
-123.019
0
LINE
8
BLACK
6
CONTINUOUS
10
142.014
20
-123.019
11
142.025
21
-123
0
LINE
8
BLACK
6
CONTINUOUS
10
142.025
20
-123
11
142.035
21
-122.979
0
LINE
8
BLACK
6
CONTINUOUS
10
142.035
20
-122.979
11
142.593
21
-122.42
0
LINE
8
BLACK
6
CONTINUOUS
10
142.593
20
-122.42
11
142.632
21
-122.306
0
LINE
8
BLACK
6
CONTINUOUS
10
142.632
20
-122.306
11
142.632
21
-122.241
0
LINE
8
BLACK
6
CONTINUOUS
10
142.632
20
-122.241
11
142.597
21
-122.172
0
LINE
8
BLACK
6
CONTINUOUS
10
142.597
20
-122.172
11
142.567
21
-122.142
0
LINE
8
BLACK
6
CONTINUOUS
10
142.567
20
-122.142
11
142.498
21
-122.107
0
LINE
8
BLACK
6
CONTINUOUS
10
142.498
20
-122.107
11
142.296
21
-122.107
0
LINE
8
BLACK
6
CONTINUOUS
10
142.296
20
-122.107
11
142.227
21
-122.142
0
LINE
8
BLACK
6
CONTINUOUS
10
142.227
20
-122.142
11
142.188
21
-122.181
0
LINE
8
BLACK
6
CONTINUOUS
10
142.188
20
-122.181
11
142.167
21
-122.196
0
LINE
8
BLACK
6
CONTINUOUS
10
142.167
20
-122.196
11
142.116
21
-122.2
0
LINE
8
BLACK
6
CONTINUOUS
10
142.116
20
-122.2
11
142.074
21
-122.171
0
LINE
8
BLACK
6
CONTINUOUS
10
142.074
20
-122.171
11
142.061
21
-122.121
0
LINE
8
BLACK
6
CONTINUOUS
10
142.061
20
-122.121
11
142.082
21
-122.075
0
LINE
8
BLACK
6
CONTINUOUS
10
142.082
20
-122.075
11
142.13
21
-122.027
0
LINE
8
BLACK
6
CONTINUOUS
10
142.13
20
-122.027
11
142.148
21
-122.014
0
LINE
8
BLACK
6
CONTINUOUS
10
142.148
20
-122.014
11
142.149
21
-122.013
0
LINE
8
BLACK
6
CONTINUOUS
10
142.149
20
-122.013
11
142.245
21
-121.965
0
LINE
8
BLACK
6
CONTINUOUS
10
142.245
20
-121.965
11
142.27
21
-121.958
0
LINE
8
BLACK
6
CONTINUOUS
10
142.27
20
-121.958
11
142.274
21
-121.959
0
LINE
8
BLACK
6
CONTINUOUS
10
142.274
20
-121.959
11
142.278
21
-121.957
0
LINE
8
BLACK
6
CONTINUOUS
10
142.278
20
-121.957
11
142.516
21
-121.957
0
LINE
8
BLACK
6
CONTINUOUS
10
142.516
20
-121.957
11
142.542
21
-121.962
0
LINE
8
BLACK
6
CONTINUOUS
10
189.112
20
-117.798
11
189.13
21
-117.84
0
LINE
8
BLACK
6
CONTINUOUS
10
189.13
20
-117.84
11
189.13
21
-121.84
0
LINE
8
BLACK
6
CONTINUOUS
10
189.13
20
-121.84
11
189.112
21
-121.882
0
LINE
8
BLACK
6
CONTINUOUS
10
189.112
20
-121.882
11
189.07
21
-121.9
0
LINE
8
BLACK
6
CONTINUOUS
10
189.07
20
-121.9
11
189.028
21
-121.882
0
LINE
8
BLACK
6
CONTINUOUS
10
189.028
20
-121.882
11
189.01
21
-121.84
0
LINE
8
BLACK
6
CONTINUOUS
10
189.01
20
-121.84
11
189.01
21
-117.9
0
LINE
8
BLACK
6
CONTINUOUS
10
189.01
20
-117.9
11
161.13
21
-117.9
0
LINE
8
BLACK
6
CONTINUOUS
10
161.13
20
-117.9
11
161.13
21
-121.84
0
LINE
8
BLACK
6
CONTINUOUS
10
161.13
20
-121.84
11
161.112
21
-121.882
0
LINE
8
BLACK
6
CONTINUOUS
10
161.112
20
-121.882
11
161.07
21
-121.9
0
LINE
8
BLACK
6
CONTINUOUS
10
161.07
20
-121.9
11
161.028
21
-121.882
0
LINE
8
BLACK
6
CONTINUOUS
10
161.028
20
-121.882
11
161.01
21
-121.84
0
LINE
8
BLACK
6
CONTINUOUS
10
161.01
20
-121.84
11
161.01
21
-117.84
0
LINE
8
BLACK
6
CONTINUOUS
10
161.01
20
-117.84
11
161.028
21
-117.798
0
LINE
8
BLACK
6
CONTINUOUS
10
161.028
20
-117.798
11
161.07
21
-117.78
0
LINE
8
BLACK
6
CONTINUOUS
10
161.07
20
-117.78
11
189.07
21
-117.78
0
LINE
8
BLACK
6
CONTINUOUS
10
189.07
20
-117.78
11
189.112
21
-117.798
0
LINE
8
BLACK
6
CONTINUOUS
10
156.112
20
-117.798
11
156.13
21
-117.84
0
LINE
8
BLACK
6
CONTINUOUS
10
156.13
20
-117.84
11
156.13
21
-121.84
0
LINE
8
BLACK
6
CONTINUOUS
10
156.13
20
-121.84
11
156.112
21
-121.882
0
LINE
8
BLACK
6
CONTINUOUS
10
156.112
20
-121.882
11
156.07
21
-121.9
0
LINE
8
BLACK
6
CONTINUOUS
10
156.07
20
-121.9
11
156.028
21
-121.882
0
LINE
8
BLACK
6
CONTINUOUS
10
156.028
20
-121.882
11
156.01
21
-121.84
0
LINE
8
BLACK
6
CONTINUOUS
10
156.01
20
-121.84
11
156.01
21
-117.9
0
LINE
8
BLACK
6
CONTINUOUS
10
156.01
20
-117.9
11
128.13
21
-117.9
0
LINE
8
BLACK
6
CONTINUOUS
10
128.13
20
-117.9
11
128.13
21
-121.84
0
LINE
8
BLACK
6
CONTINUOUS
10
128.13
20
-121.84
11
128.112
21
-121.882
0
LINE
8
BLACK
6
CONTINUOUS
10
128.112
20
-121.882
11
128.07
21
-121.9
0
LINE
8
BLACK
6
CONTINUOUS
10
128.07
20
-121.9
11
128.028
21
-121.882
0
LINE
8
BLACK
6
CONTINUOUS
10
128.028
20
-121.882
11
128.01
21
-121.84
0
LINE
8
BLACK
6
CONTINUOUS
10
128.01
20
-121.84
11
128.01
21
-117.84
0
LINE
8
BLACK
6
CONTINUOUS
10
128.01
20
-117.84
11
128.028
21
-117.798
0
LINE
8
BLACK
6
CONTINUOUS
10
128.028
20
-117.798
11
128.07
21
-117.78
0
LINE
8
BLACK
6
CONTINUOUS
10
128.07
20
-117.78
11
156.07
21
-117.78
0
LINE
8
BLACK
6
CONTINUOUS
10
156.07
20
-117.78
11
156.112
21
-117.798
  0
ENDSEC
  0
EOF
