M48
; DRILL file {KiCad (6.0.10)} date Mon Jan 23 16:27:43 2023
; FORMAT={-:-/ absolute / inch / decimal}
; #@! TF.CreationDate,2023-01-23T16:27:43+00:00
; #@! TF.GenerationSoftware,Kicad,Pcbnew,(6.0.10)
; #@! TF.FileFunction,Plated,1,2,PTH
FMAT,2
INCH
; #@! TA.AperFunction,Plated,PTH,ViaDrill
T1C0.0157
; #@! TA.AperFunction,Plated,PTH,ComponentDrill
T2C0.0394
; #@! TA.AperFunction,Plated,PTH,ComponentDrill
T3C0.0591
; #@! TA.AperFunction,Plated,PTH,ComponentDrill
T4C0.0906
%
G90
G05
T1
X4.8Y-4.8582
X4.8Y-4.9582
X4.8Y-5.0582
X4.8Y-5.1583
X4.8Y-5.3583
X4.8Y-5.4584
X4.8Y-5.5584
X4.8Y-5.6584
X4.8Y-5.7585
X4.8063Y-5.8579
X4.8152Y-4.7604
X4.8464Y-5.1024
X4.8563Y-5.2498
X4.857Y-5.4073
X4.857Y-5.5167
X4.8605Y-5.9401
X4.867Y-5.8167
X4.8684Y-4.846
X4.8785Y-5.6093
X4.8817Y-4.6877
X4.8932Y-5.0213
X4.9011Y-4.7552
X4.9047Y-5.1757
X4.9122Y-5.7314
X4.918Y-5.8987
X4.9181Y-5.3184
X4.9256Y-5.4691
X4.9305Y-4.92
X4.9521Y-5.9762
X4.968Y-5.6395
X4.9703Y-5.1861
X4.9779Y-4.6658
X4.9848Y-5.0371
X4.9962Y-4.7384
X4.9986Y-5.4495
X5.0061Y-5.1273
X5.0089Y-5.2717
X5.0145Y-5.8953
X5.0256Y-4.903
X5.037Y-5.4886
X5.0387Y-5.7102
X5.0521Y-5.9768
X5.0584Y-4.8122
X5.075Y-5.3445
X5.0775Y-5.5166
X5.0779Y-4.6658
X5.0911Y-5.4347
X5.1055Y-5.6055
X5.1095Y-5.7809
X5.1521Y-5.9768
X5.161Y-5.361
X5.1738Y-5.4813
X5.1776Y-5.6777
X5.178Y-4.6658
X5.1802Y-5.8517
X5.2322Y-5.4311
X5.2459Y-5.5534
X5.2472Y-5.8016
X5.2498Y-5.7498
X5.2509Y-5.346
X5.2509Y-5.9224
X5.278Y-4.6658
X5.2865Y-5.6341
X5.2949Y-5.548
X5.3365Y-5.3209
X5.3366Y-4.7311
X5.338Y-5.7038
X5.3405Y-5.9486
X5.3582Y-4.8245
X5.3749Y-5.2391
X5.378Y-4.6658
X5.3907Y-5.4221
X5.4088Y-5.7173
X5.415Y-5.4921
X5.4405Y-5.9486
X5.4468Y-4.8602
X5.4472Y-5.7634
X5.4697Y-5.2471
X5.4772Y-5.0008
X5.4858Y-5.8657
X5.4941Y-5.1772
X5.5128Y-5.0881
X5.5263Y-4.8066
X5.5269Y-4.7106
X5.5286Y-5.7861
X5.5295Y-5.5324
X5.5315Y-5.2118
X5.5328Y-5.929
X5.5331Y-5.3768
X5.5732Y-5.2134
X5.5791Y-5.1546
X5.5817Y-5.5601
X5.6079Y-5.887
X5.6156Y-4.6658
X5.6281Y-5.932
X5.6282Y-5.219
X5.6341Y-5.6369
X5.6361Y-5.553
X5.6399Y-5.0938
X5.6482Y-4.7534
X5.65Y-5.3777
X5.6603Y-5.5101
X5.6633Y-5.3008
X5.6665Y-5.1878
X5.6799Y-5.4567
X5.6889Y-4.8402
X5.6913Y-5.8579
X5.6967Y-4.6708
X5.7028Y-5.6309
X5.7097Y-4.9234
X5.7232Y-5.1155
X5.7262Y-5.0166
X5.7268Y-5.467
X5.7324Y-5.1781
X5.7342Y-5.341
X5.7346Y-5.5846
X5.7656Y-5.965
X5.7692Y-5.2561
X5.7838Y-4.8555
X5.7911Y-5.6005
X5.8213Y-5.7772
X5.829Y-4.6921
X5.8324Y-5.1781
X5.8486Y-5.7409
X5.8498Y-4.7857
X5.8556Y-5.256
X5.8567Y-5.4764
X5.8578Y-5.3998
X5.8619Y-5.965
X5.866Y-5.8165
X5.8778Y-5.7673
X5.8854Y-5.2165
X5.8902Y-5.8594
X5.9148Y-5.1342
X5.9153Y-5.9181
X5.9209Y-5.9744
X5.9382Y-5.3144
X5.9479Y-5.4078
X5.951Y-5.75
X5.9531Y-4.6658
X5.9559Y-5.4978
X5.9587Y-5.8492
X5.9602Y-5.7016
X5.9614Y-5.9008
X5.9685Y-5.9453
X6.0122Y-5.1395
X6.0264Y-5.8874
X6.0374Y-5.9508
X6.0532Y-4.6658
X6.0537Y-5.5239
X6.0657Y-5.5717
X6.0673Y-5.6886
X6.0701Y-5.7575
X6.0795Y-5.2969
X6.0835Y-5.6253
X6.0921Y-5.3728
X6.11Y-5.1354
X6.1294Y-5.2998
X6.1305Y-5.5068
X6.1532Y-4.6658
X6.1947Y-5.1104
X6.1988Y-5.7657
X6.2114Y-5.8807
X6.2272Y-5.9472
X6.2484Y-5.5158
X6.2522Y-5.2719
X6.2532Y-4.6658
X6.2623Y-5.3711
X6.2789Y-5.7676
X6.2868Y-5.1277
X6.2898Y-5.5886
X6.2957Y-5.7301
X6.3005Y-5.2166
X6.3351Y-5.3816
X6.3533Y-4.6658
X6.374Y-5.1498
X6.3813Y-5.9616
X6.4016Y-5.4728
X6.4061Y-5.5329
X6.4168Y-5.2245
X6.4189Y-5.4044
X6.435Y-5.965
X6.4361Y-5.3343
X6.4366Y-5.9232
X6.4425Y-5.4476
X6.4518Y-5.6183
X6.4533Y-4.6658
X6.457Y-5.816
X6.4756Y-5.7421
X6.4796Y-5.1731
X6.4799Y-5.2272
X6.4976Y-5.6379
X6.5004Y-5.5343
X6.5106Y-5.2685
X6.5148Y-5.7122
X6.5272Y-5.0916
X6.5472Y-5.8213
X6.549Y-5.3272
X6.5533Y-4.6658
X6.5677Y-5.7012
X6.5965Y-5.8104
X6.6004Y-5.861
X6.6012Y-5.9622
X6.6022Y-5.2335
X6.6102Y-5.7327
X6.6125Y-5.4879
X6.6135Y-5.4183
X6.6211Y-5.0967
X6.6233Y-5.3702
X6.6295Y-5.6563
X6.6366Y-5.9307
X6.6438Y-4.8051
X6.65Y-5.2209
X6.6534Y-4.6658
X6.6583Y-5.5384
X6.7137Y-5.7327
X6.714Y-5.0886
X6.7222Y-4.86
X6.728Y-5.2919
X6.7313Y-4.9269
X6.7319Y-5.3783
X6.7492Y-5.498
X6.7541Y-5.0178
X6.7622Y-5.9626
X6.7655Y-5.8829
X6.7728Y-5.3969
X6.7878Y-5.839
X6.797Y-5.7354
X6.798Y-5.5925
X6.8037Y-4.6658
X6.8121Y-5.352
X6.8192Y-4.8169
X6.8309Y-4.7211
X6.8374Y-5.9031
X6.8445Y-5.0976
X6.848Y-5.4
X6.8791Y-5.3092
X6.8806Y-4.8332
X6.9004Y-5.7352
X6.9043Y-4.6658
X6.9146Y-5.2921
X6.9224Y-5.1055
X6.9374Y-5.9571
X6.9481Y-4.7441
X6.953Y-5.5095
X6.9592Y-5.5873
X6.9592Y-5.6905
X6.9592Y-5.8206
X6.9812Y-4.8332
X6.9976Y-5.8516
X7.0017Y-4.9668
X7.0045Y-4.6658
X7.0132Y-5.8985
X7.0252Y-5.9681
X7.0262Y-5.7642
X7.0287Y-5.0392
X7.036Y-5.8159
X7.0465Y-4.9101
X7.0671Y-5.7369
X7.0726Y-5.3466
X7.0816Y-5.6582
X7.1009Y-4.6688
X7.1068Y-5.0927
X7.1073Y-5.4284
X7.1238Y-4.8332
X7.1348Y-5.5997
X7.1465Y-4.9101
X7.1523Y-4.7496
X7.1528Y-5.9768
X7.1559Y-5.5551
X7.1598Y-5.2694
X7.1629Y-5.2155
X7.1649Y-5.3703
X7.1722Y-5.458
X7.1887Y-4.6658
X7.2091Y-5.5563
X7.2239Y-4.8332
X7.2411Y-5.5033
X7.2466Y-4.9101
X7.2505Y-5.1927
X7.2528Y-5.9768
X7.2888Y-4.6658
X7.2984Y-5.5325
X7.3075Y-5.3992
X7.3239Y-4.8332
X7.3369Y-4.9335
X7.3417Y-5.4346
X7.3428Y-5.2037
X7.3445Y-5.2902
X7.3528Y-5.9768
X7.3555Y-5.3386
X7.3749Y-5.4711
X7.3888Y-4.6658
X7.4011Y-4.8891
X7.4076Y-5.0043
X7.4206Y-5.2847
X7.426Y-5.8167
X7.4407Y-5.2079
X7.4475Y-5.3579
X7.4518Y-5.4347
X7.4529Y-5.9768
X7.4602Y-4.7552
X7.4709Y-5.544
X7.4712Y-5.7314
X7.4719Y-4.9599
X7.4771Y-5.8987
X7.4783Y-5.075
X7.4888Y-4.6658
X7.5216Y-5.6227
X7.5258Y-5.4681
X7.5291Y-5.1776
X7.5357Y-5.3257
X7.5456Y-5.0234
X7.5527Y-5.9738
X7.5553Y-4.7384
X7.5678Y-5.7282
X7.5736Y-5.8953
X7.5846Y-4.903
X7.587Y-4.6792
X7.5983Y-5.4541
X7.6035Y-5.2997
X7.612Y-5.6028
X7.6163Y-5.2083
X7.6175Y-4.8122
X7.6189Y-5.81
X7.6194Y-5.3643
X7.6257Y-5.0649
X7.6294Y-5.5116
X7.6394Y-5.9273
X7.6615Y-4.7436
X7.6836Y-5.8393
X7.6858Y-4.8391
X7.6858Y-4.9391
X7.6858Y-5.0392
X7.6858Y-5.1392
X7.6858Y-5.2392
X7.6858Y-5.3393
X7.6858Y-5.4393
X7.6858Y-5.5393
X7.6858Y-5.6394
X7.6858Y-5.7394
T2
X5.5441Y-4.9348
X5.5441Y-5.0136
X5.6425Y-4.9348
X5.6425Y-5.0136
X6.8433Y-4.9348
X6.8433Y-5.0136
X6.9417Y-4.9348
X6.9417Y-5.0136
T3
X4.9291Y-5.0963
X4.9291Y-5.2463
X4.9291Y-5.3963
X4.9291Y-5.5463
X7.5539Y-5.0963
X7.5539Y-5.2463
X7.5539Y-5.3963
X7.5539Y-5.5463
T4
X5.4358Y-4.7581
X5.7508Y-4.7581
X6.735Y-4.7581
X7.05Y-4.7581
T0
M30
