%TF.GenerationSoftware,KiCad,Pcbnew,(6.0.10)*%
%TF.CreationDate,2023-01-23T16:27:41+00:00*%
%TF.ProjectId,USB,5553422e-6b69-4636-9164-5f7063625858,rev?*%
%TF.SameCoordinates,Original*%
%TF.FileFunction,Paste,Top*%
%TF.FilePolarity,Positive*%
%FSLAX46Y46*%
G04 Gerber Fmt 4.6, Leading zero omitted, Abs format (unit mm)*
G04 Created by KiCad (PCBNEW (6.0.10)) date 2023-01-23 16:27:41*
%MOMM*%
%LPD*%
G01*
G04 APERTURE LIST*
G04 Aperture macros list*
%AMRoundRect*
0 Rectangle with rounded corners*
0 $1 Rounding radius*
0 $2 $3 $4 $5 $6 $7 $8 $9 X,Y pos of 4 corners*
0 Add a 4 corners polygon primitive as box body*
4,1,4,$2,$3,$4,$5,$6,$7,$8,$9,$2,$3,0*
0 Add four circle primitives for the rounded corners*
1,1,$1+$1,$2,$3*
1,1,$1+$1,$4,$5*
1,1,$1+$1,$6,$7*
1,1,$1+$1,$8,$9*
0 Add four rect primitives between the rounded corners*
20,1,$1+$1,$2,$3,$4,$5,0*
20,1,$1+$1,$4,$5,$6,$7,0*
20,1,$1+$1,$6,$7,$8,$9,0*
20,1,$1+$1,$8,$9,$2,$3,0*%
G04 Aperture macros list end*
%ADD10R,1.200000X0.400000*%
%ADD11RoundRect,0.150000X0.150000X-0.587500X0.150000X0.587500X-0.150000X0.587500X-0.150000X-0.587500X0*%
%ADD12R,1.020000X1.780000*%
%ADD13RoundRect,0.150000X-0.825000X-0.150000X0.825000X-0.150000X0.825000X0.150000X-0.825000X0.150000X0*%
%ADD14R,1.000000X0.600000*%
%ADD15R,0.600000X1.000000*%
%ADD16R,1.560000X0.650000*%
%ADD17RoundRect,0.250000X-0.450000X0.350000X-0.450000X-0.350000X0.450000X-0.350000X0.450000X0.350000X0*%
%ADD18RoundRect,0.250000X0.350000X0.450000X-0.350000X0.450000X-0.350000X-0.450000X0.350000X-0.450000X0*%
%ADD19RoundRect,0.250000X-0.350000X-0.450000X0.350000X-0.450000X0.350000X0.450000X-0.350000X0.450000X0*%
%ADD20RoundRect,0.250000X0.450000X-0.350000X0.450000X0.350000X-0.450000X0.350000X-0.450000X-0.350000X0*%
%ADD21RoundRect,0.160000X0.160000X-0.222500X0.160000X0.222500X-0.160000X0.222500X-0.160000X-0.222500X0*%
%ADD22RoundRect,0.250000X0.475000X-0.337500X0.475000X0.337500X-0.475000X0.337500X-0.475000X-0.337500X0*%
%ADD23RoundRect,0.250000X0.337500X0.475000X-0.337500X0.475000X-0.337500X-0.475000X0.337500X-0.475000X0*%
%ADD24RoundRect,0.250000X-0.337500X-0.475000X0.337500X-0.475000X0.337500X0.475000X-0.337500X0.475000X0*%
%ADD25RoundRect,0.250000X-0.475000X0.337500X-0.475000X-0.337500X0.475000X-0.337500X0.475000X0.337500X0*%
G04 APERTURE END LIST*
D10*
%TO.C,U3*%
X166490000Y-137742500D03*
X166490000Y-138377500D03*
X166490000Y-139012500D03*
X166490000Y-139647500D03*
X166490000Y-140282500D03*
X166490000Y-140917500D03*
X166490000Y-141552500D03*
X166490000Y-142187500D03*
X166490000Y-142822500D03*
X166490000Y-143457500D03*
X161290000Y-143457500D03*
X161290000Y-142822500D03*
X161290000Y-142187500D03*
X161290000Y-141552500D03*
X161290000Y-140917500D03*
X161290000Y-140282500D03*
X161290000Y-139647500D03*
X161290000Y-139012500D03*
X161290000Y-138377500D03*
X161290000Y-137742500D03*
%TD*%
D11*
%TO.C,D3*%
X137555000Y-143045000D03*
X135655000Y-143045000D03*
X136605000Y-141170000D03*
%TD*%
%TO.C,D1*%
X162560000Y-134257500D03*
X160660000Y-134257500D03*
X161610000Y-132382500D03*
%TD*%
D12*
%TO.C,L1*%
X158410000Y-131520000D03*
X156630000Y-131520000D03*
%TD*%
D13*
%TO.C,U6*%
X178825000Y-138515000D03*
X178825000Y-139785000D03*
X178825000Y-141055000D03*
X178825000Y-142325000D03*
X173875000Y-142325000D03*
X173875000Y-141055000D03*
X173875000Y-139785000D03*
X173875000Y-138515000D03*
%TD*%
D14*
%TO.C,U5*%
X137710000Y-147190000D03*
X137710000Y-149090000D03*
X135310000Y-149090000D03*
X135310000Y-148140000D03*
X135310000Y-147190000D03*
%TD*%
D15*
%TO.C,U4*%
X144325000Y-146747500D03*
X142425000Y-146747500D03*
X142425000Y-144347500D03*
X143375000Y-144347500D03*
X144325000Y-144347500D03*
%TD*%
D10*
%TO.C,U2*%
X141900000Y-140270000D03*
X141900000Y-139635000D03*
X141900000Y-139000000D03*
X141900000Y-138365000D03*
X141900000Y-137730000D03*
X141900000Y-137095000D03*
X141900000Y-136460000D03*
X141900000Y-135825000D03*
X141900000Y-135190000D03*
X141900000Y-134555000D03*
X147100000Y-134555000D03*
X147100000Y-135190000D03*
X147100000Y-135825000D03*
X147100000Y-136460000D03*
X147100000Y-137095000D03*
X147100000Y-137730000D03*
X147100000Y-138365000D03*
X147100000Y-139000000D03*
X147100000Y-139635000D03*
X147100000Y-140270000D03*
%TD*%
D16*
%TO.C,U1*%
X154030000Y-131530000D03*
X154030000Y-133430000D03*
X151330000Y-133430000D03*
X151330000Y-132480000D03*
X151330000Y-131530000D03*
%TD*%
D17*
%TO.C,R11*%
X155960000Y-144040000D03*
X155960000Y-142040000D03*
%TD*%
%TO.C,R10*%
X158400000Y-144000000D03*
X158400000Y-142000000D03*
%TD*%
%TO.C,R9*%
X150185000Y-143637500D03*
X150185000Y-141637500D03*
%TD*%
D18*
%TO.C,R8*%
X183340000Y-135490000D03*
X185340000Y-135490000D03*
%TD*%
D19*
%TO.C,R7*%
X185310000Y-133330000D03*
X183310000Y-133330000D03*
%TD*%
D17*
%TO.C,R6*%
X152645000Y-143617500D03*
X152645000Y-141617500D03*
%TD*%
D20*
%TO.C,R5*%
X169620000Y-136350000D03*
X169620000Y-138350000D03*
%TD*%
%TO.C,R4*%
X140055000Y-143217500D03*
X140055000Y-145217500D03*
%TD*%
D19*
%TO.C,R3*%
X148500000Y-149960000D03*
X146500000Y-149960000D03*
%TD*%
D17*
%TO.C,R2*%
X175600000Y-132820000D03*
X175600000Y-130820000D03*
%TD*%
%TO.C,R1*%
X173390000Y-132820000D03*
X173390000Y-130820000D03*
%TD*%
D21*
%TO.C,D7*%
X169960000Y-148327500D03*
X169960000Y-149472500D03*
%TD*%
%TO.C,D6*%
X174810000Y-148297500D03*
X174810000Y-149442500D03*
%TD*%
%TO.C,D5*%
X160270000Y-148307500D03*
X160270000Y-149452500D03*
%TD*%
%TO.C,D4*%
X165120000Y-148307500D03*
X165120000Y-149452500D03*
%TD*%
%TO.C,D2*%
X155420000Y-148307500D03*
X155420000Y-149452500D03*
%TD*%
D22*
%TO.C,C13*%
X146535000Y-145330000D03*
X146535000Y-147405000D03*
%TD*%
D23*
%TO.C,C12*%
X176162500Y-136560000D03*
X178237500Y-136560000D03*
%TD*%
D24*
%TO.C,C11*%
X171067500Y-142000000D03*
X168992500Y-142000000D03*
%TD*%
D23*
%TO.C,C10*%
X166852500Y-130950000D03*
X168927500Y-130950000D03*
%TD*%
%TO.C,C9*%
X157102500Y-138530000D03*
X159177500Y-138530000D03*
%TD*%
%TO.C,C8*%
X137242500Y-134852500D03*
X139317500Y-134852500D03*
%TD*%
D25*
%TO.C,C7*%
X139160000Y-138940000D03*
X139160000Y-136865000D03*
%TD*%
%TO.C,C6*%
X157230000Y-136067500D03*
X157230000Y-133992500D03*
%TD*%
%TO.C,C5*%
X134760000Y-138817500D03*
X134760000Y-136742500D03*
%TD*%
%TO.C,C4*%
X171130000Y-132867500D03*
X171130000Y-130792500D03*
%TD*%
%TO.C,C3*%
X180030000Y-132867500D03*
X180030000Y-130792500D03*
%TD*%
%TO.C,C2*%
X177860000Y-130782500D03*
X177860000Y-132857500D03*
%TD*%
%TO.C,C1*%
X152910000Y-137760000D03*
X152910000Y-135685000D03*
%TD*%
M02*
