%TF.GenerationSoftware,KiCad,Pcbnew,(6.0.10)*%
%TF.CreationDate,2023-01-23T16:27:41+00:00*%
%TF.ProjectId,USB,5553422e-6b69-4636-9164-5f7063625858,rev?*%
%TF.SameCoordinates,Original*%
%TF.FileFunction,Legend,Bot*%
%TF.FilePolarity,Positive*%
%FSLAX46Y46*%
G04 Gerber Fmt 4.6, Leading zero omitted, Abs format (unit mm)*
G04 Created by KiCad (PCBNEW (6.0.10)) date 2023-01-23 16:27:41*
%MOMM*%
%LPD*%
G01*
G04 APERTURE LIST*
%ADD10C,0.150000*%
G04 APERTURE END LIST*
D10*
X170248095Y-124987380D02*
X169676666Y-124987380D01*
X169962380Y-125987380D02*
X169962380Y-124987380D01*
X169343333Y-125987380D02*
X169343333Y-124987380D01*
X168867142Y-125987380D02*
X168867142Y-124987380D01*
X168486190Y-124987380D01*
X168390952Y-125035000D01*
X168343333Y-125082619D01*
X168295714Y-125177857D01*
X168295714Y-125320714D01*
X168343333Y-125415952D01*
X168390952Y-125463571D01*
X168486190Y-125511190D01*
X168867142Y-125511190D01*
X167676666Y-124987380D02*
X167581428Y-124987380D01*
X167486190Y-125035000D01*
X167438571Y-125082619D01*
X167390952Y-125177857D01*
X167343333Y-125368333D01*
X167343333Y-125606428D01*
X167390952Y-125796904D01*
X167438571Y-125892142D01*
X167486190Y-125939761D01*
X167581428Y-125987380D01*
X167676666Y-125987380D01*
X167771904Y-125939761D01*
X167819523Y-125892142D01*
X167867142Y-125796904D01*
X167914761Y-125606428D01*
X167914761Y-125368333D01*
X167867142Y-125177857D01*
X167819523Y-125082619D01*
X167771904Y-125035000D01*
X167676666Y-124987380D01*
X166962380Y-125082619D02*
X166914761Y-125035000D01*
X166819523Y-124987380D01*
X166581428Y-124987380D01*
X166486190Y-125035000D01*
X166438571Y-125082619D01*
X166390952Y-125177857D01*
X166390952Y-125273095D01*
X166438571Y-125415952D01*
X167010000Y-125987380D01*
X166390952Y-125987380D01*
X165914761Y-125987380D02*
X165724285Y-125987380D01*
X165629047Y-125939761D01*
X165581428Y-125892142D01*
X165486190Y-125749285D01*
X165438571Y-125558809D01*
X165438571Y-125177857D01*
X165486190Y-125082619D01*
X165533809Y-125035000D01*
X165629047Y-124987380D01*
X165819523Y-124987380D01*
X165914761Y-125035000D01*
X165962380Y-125082619D01*
X166010000Y-125177857D01*
X166010000Y-125415952D01*
X165962380Y-125511190D01*
X165914761Y-125558809D01*
X165819523Y-125606428D01*
X165629047Y-125606428D01*
X165533809Y-125558809D01*
X165486190Y-125511190D01*
X165438571Y-125415952D01*
X164248095Y-125606428D02*
X163486190Y-125606428D01*
X162248095Y-124987380D02*
X162248095Y-125796904D01*
X162200476Y-125892142D01*
X162152857Y-125939761D01*
X162057619Y-125987380D01*
X161867142Y-125987380D01*
X161771904Y-125939761D01*
X161724285Y-125892142D01*
X161676666Y-125796904D01*
X161676666Y-124987380D01*
X161248095Y-125939761D02*
X161105238Y-125987380D01*
X160867142Y-125987380D01*
X160771904Y-125939761D01*
X160724285Y-125892142D01*
X160676666Y-125796904D01*
X160676666Y-125701666D01*
X160724285Y-125606428D01*
X160771904Y-125558809D01*
X160867142Y-125511190D01*
X161057619Y-125463571D01*
X161152857Y-125415952D01*
X161200476Y-125368333D01*
X161248095Y-125273095D01*
X161248095Y-125177857D01*
X161200476Y-125082619D01*
X161152857Y-125035000D01*
X161057619Y-124987380D01*
X160819523Y-124987380D01*
X160676666Y-125035000D01*
X159914761Y-125463571D02*
X159771904Y-125511190D01*
X159724285Y-125558809D01*
X159676666Y-125654047D01*
X159676666Y-125796904D01*
X159724285Y-125892142D01*
X159771904Y-125939761D01*
X159867142Y-125987380D01*
X160248095Y-125987380D01*
X160248095Y-124987380D01*
X159914761Y-124987380D01*
X159819523Y-125035000D01*
X159771904Y-125082619D01*
X159724285Y-125177857D01*
X159724285Y-125273095D01*
X159771904Y-125368333D01*
X159819523Y-125415952D01*
X159914761Y-125463571D01*
X160248095Y-125463571D01*
X158533809Y-125701666D02*
X158057619Y-125701666D01*
X158629047Y-125987380D02*
X158295714Y-124987380D01*
X157962380Y-125987380D01*
X157629047Y-125987380D02*
X157629047Y-124987380D01*
X157390952Y-124987380D01*
X157248095Y-125035000D01*
X157152857Y-125130238D01*
X157105238Y-125225476D01*
X157057619Y-125415952D01*
X157057619Y-125558809D01*
X157105238Y-125749285D01*
X157152857Y-125844523D01*
X157248095Y-125939761D01*
X157390952Y-125987380D01*
X157629047Y-125987380D01*
X156676666Y-125701666D02*
X156200476Y-125701666D01*
X156771904Y-125987380D02*
X156438571Y-124987380D01*
X156105238Y-125987380D01*
X155771904Y-125987380D02*
X155771904Y-124987380D01*
X155390952Y-124987380D01*
X155295714Y-125035000D01*
X155248095Y-125082619D01*
X155200476Y-125177857D01*
X155200476Y-125320714D01*
X155248095Y-125415952D01*
X155295714Y-125463571D01*
X155390952Y-125511190D01*
X155771904Y-125511190D01*
X154914761Y-124987380D02*
X154343333Y-124987380D01*
X154629047Y-125987380D02*
X154629047Y-124987380D01*
X154010000Y-125463571D02*
X153676666Y-125463571D01*
X153533809Y-125987380D02*
X154010000Y-125987380D01*
X154010000Y-124987380D01*
X153533809Y-124987380D01*
X152533809Y-125987380D02*
X152867142Y-125511190D01*
X153105238Y-125987380D02*
X153105238Y-124987380D01*
X152724285Y-124987380D01*
X152629047Y-125035000D01*
X152581428Y-125082619D01*
X152533809Y-125177857D01*
X152533809Y-125320714D01*
X152581428Y-125415952D01*
X152629047Y-125463571D01*
X152724285Y-125511190D01*
X153105238Y-125511190D01*
X151010000Y-125463571D02*
X150867142Y-125511190D01*
X150819523Y-125558809D01*
X150771904Y-125654047D01*
X150771904Y-125796904D01*
X150819523Y-125892142D01*
X150867142Y-125939761D01*
X150962380Y-125987380D01*
X151343333Y-125987380D01*
X151343333Y-124987380D01*
X151010000Y-124987380D01*
X150914761Y-125035000D01*
X150867142Y-125082619D01*
X150819523Y-125177857D01*
X150819523Y-125273095D01*
X150867142Y-125368333D01*
X150914761Y-125415952D01*
X151010000Y-125463571D01*
X151343333Y-125463571D01*
X150152857Y-124987380D02*
X149962380Y-124987380D01*
X149867142Y-125035000D01*
X149771904Y-125130238D01*
X149724285Y-125320714D01*
X149724285Y-125654047D01*
X149771904Y-125844523D01*
X149867142Y-125939761D01*
X149962380Y-125987380D01*
X150152857Y-125987380D01*
X150248095Y-125939761D01*
X150343333Y-125844523D01*
X150390952Y-125654047D01*
X150390952Y-125320714D01*
X150343333Y-125130238D01*
X150248095Y-125035000D01*
X150152857Y-124987380D01*
X149343333Y-125701666D02*
X148867142Y-125701666D01*
X149438571Y-125987380D02*
X149105238Y-124987380D01*
X148771904Y-125987380D01*
X147867142Y-125987380D02*
X148200476Y-125511190D01*
X148438571Y-125987380D02*
X148438571Y-124987380D01*
X148057619Y-124987380D01*
X147962380Y-125035000D01*
X147914761Y-125082619D01*
X147867142Y-125177857D01*
X147867142Y-125320714D01*
X147914761Y-125415952D01*
X147962380Y-125463571D01*
X148057619Y-125511190D01*
X148438571Y-125511190D01*
X147438571Y-125987380D02*
X147438571Y-124987380D01*
X147200476Y-124987380D01*
X147057619Y-125035000D01*
X146962380Y-125130238D01*
X146914761Y-125225476D01*
X146867142Y-125415952D01*
X146867142Y-125558809D01*
X146914761Y-125749285D01*
X146962380Y-125844523D01*
X147057619Y-125939761D01*
X147200476Y-125987380D01*
X147438571Y-125987380D01*
X160557619Y-127597380D02*
X160890952Y-127121190D01*
X161129047Y-127597380D02*
X161129047Y-126597380D01*
X160748095Y-126597380D01*
X160652857Y-126645000D01*
X160605238Y-126692619D01*
X160557619Y-126787857D01*
X160557619Y-126930714D01*
X160605238Y-127025952D01*
X160652857Y-127073571D01*
X160748095Y-127121190D01*
X161129047Y-127121190D01*
X160129047Y-127073571D02*
X159795714Y-127073571D01*
X159652857Y-127597380D02*
X160129047Y-127597380D01*
X160129047Y-126597380D01*
X159652857Y-126597380D01*
X159367142Y-126597380D02*
X159033809Y-127597380D01*
X158700476Y-126597380D01*
X158367142Y-127502142D02*
X158319523Y-127549761D01*
X158367142Y-127597380D01*
X158414761Y-127549761D01*
X158367142Y-127502142D01*
X158367142Y-127597380D01*
X158367142Y-126978333D02*
X158319523Y-127025952D01*
X158367142Y-127073571D01*
X158414761Y-127025952D01*
X158367142Y-126978333D01*
X158367142Y-127073571D01*
X157176666Y-127311666D02*
X156700476Y-127311666D01*
X157271904Y-127597380D02*
X156938571Y-126597380D01*
X156605238Y-127597380D01*
X156319523Y-127311666D02*
X155843333Y-127311666D01*
X156414761Y-127597380D02*
X156081428Y-126597380D01*
X155748095Y-127597380D01*
M02*
