%TF.GenerationSoftware,KiCad,Pcbnew,(6.0.10)*%
%TF.CreationDate,2023-01-23T16:27:41+00:00*%
%TF.ProjectId,USB,5553422e-6b69-4636-9164-5f7063625858,rev?*%
%TF.SameCoordinates,Original*%
%TF.FileFunction,Legend,Top*%
%TF.FilePolarity,Positive*%
%FSLAX46Y46*%
G04 Gerber Fmt 4.6, Leading zero omitted, Abs format (unit mm)*
G04 Created by KiCad (PCBNEW (6.0.10)) date 2023-01-23 16:27:41*
%MOMM*%
%LPD*%
G01*
G04 APERTURE LIST*
%ADD10C,0.150000*%
%ADD11C,0.120000*%
%ADD12C,0.100000*%
G04 APERTURE END LIST*
D10*
X170314761Y-146752380D02*
X169981428Y-146276190D01*
X169743333Y-146752380D02*
X169743333Y-145752380D01*
X170124285Y-145752380D01*
X170219523Y-145800000D01*
X170267142Y-145847619D01*
X170314761Y-145942857D01*
X170314761Y-146085714D01*
X170267142Y-146180952D01*
X170219523Y-146228571D01*
X170124285Y-146276190D01*
X169743333Y-146276190D01*
X170695714Y-146704761D02*
X170838571Y-146752380D01*
X171076666Y-146752380D01*
X171171904Y-146704761D01*
X171219523Y-146657142D01*
X171267142Y-146561904D01*
X171267142Y-146466666D01*
X171219523Y-146371428D01*
X171171904Y-146323809D01*
X171076666Y-146276190D01*
X170886190Y-146228571D01*
X170790952Y-146180952D01*
X170743333Y-146133333D01*
X170695714Y-146038095D01*
X170695714Y-145942857D01*
X170743333Y-145847619D01*
X170790952Y-145800000D01*
X170886190Y-145752380D01*
X171124285Y-145752380D01*
X171267142Y-145800000D01*
X172124285Y-146085714D02*
X172124285Y-146752380D01*
X171886190Y-145704761D02*
X171648095Y-146419047D01*
X172267142Y-146419047D01*
X172790952Y-146180952D02*
X172695714Y-146133333D01*
X172648095Y-146085714D01*
X172600476Y-145990476D01*
X172600476Y-145942857D01*
X172648095Y-145847619D01*
X172695714Y-145800000D01*
X172790952Y-145752380D01*
X172981428Y-145752380D01*
X173076666Y-145800000D01*
X173124285Y-145847619D01*
X173171904Y-145942857D01*
X173171904Y-145990476D01*
X173124285Y-146085714D01*
X173076666Y-146133333D01*
X172981428Y-146180952D01*
X172790952Y-146180952D01*
X172695714Y-146228571D01*
X172648095Y-146276190D01*
X172600476Y-146371428D01*
X172600476Y-146561904D01*
X172648095Y-146657142D01*
X172695714Y-146704761D01*
X172790952Y-146752380D01*
X172981428Y-146752380D01*
X173076666Y-146704761D01*
X173124285Y-146657142D01*
X173171904Y-146561904D01*
X173171904Y-146371428D01*
X173124285Y-146276190D01*
X173076666Y-146228571D01*
X172981428Y-146180952D01*
X174076666Y-145752380D02*
X173600476Y-145752380D01*
X173552857Y-146228571D01*
X173600476Y-146180952D01*
X173695714Y-146133333D01*
X173933809Y-146133333D01*
X174029047Y-146180952D01*
X174076666Y-146228571D01*
X174124285Y-146323809D01*
X174124285Y-146561904D01*
X174076666Y-146657142D01*
X174029047Y-146704761D01*
X173933809Y-146752380D01*
X173695714Y-146752380D01*
X173600476Y-146704761D01*
X173552857Y-146657142D01*
X160514761Y-145752380D02*
X160514761Y-146561904D01*
X160562380Y-146657142D01*
X160610000Y-146704761D01*
X160705238Y-146752380D01*
X160895714Y-146752380D01*
X160990952Y-146704761D01*
X161038571Y-146657142D01*
X161086190Y-146561904D01*
X161086190Y-145752380D01*
X161514761Y-146466666D02*
X161990952Y-146466666D01*
X161419523Y-146752380D02*
X161752857Y-145752380D01*
X162086190Y-146752380D01*
X162990952Y-146752380D02*
X162657619Y-146276190D01*
X162419523Y-146752380D02*
X162419523Y-145752380D01*
X162800476Y-145752380D01*
X162895714Y-145800000D01*
X162943333Y-145847619D01*
X162990952Y-145942857D01*
X162990952Y-146085714D01*
X162943333Y-146180952D01*
X162895714Y-146228571D01*
X162800476Y-146276190D01*
X162419523Y-146276190D01*
X163276666Y-145752380D02*
X163848095Y-145752380D01*
X163562380Y-146752380D02*
X163562380Y-145752380D01*
X169198095Y-150502380D02*
X169769523Y-150502380D01*
X169483809Y-151502380D02*
X169483809Y-150502380D01*
X170007619Y-150502380D02*
X170674285Y-151502380D01*
X170674285Y-150502380D02*
X170007619Y-151502380D01*
X174653333Y-151422380D02*
X174320000Y-150946190D01*
X174081904Y-151422380D02*
X174081904Y-150422380D01*
X174462857Y-150422380D01*
X174558095Y-150470000D01*
X174605714Y-150517619D01*
X174653333Y-150612857D01*
X174653333Y-150755714D01*
X174605714Y-150850952D01*
X174558095Y-150898571D01*
X174462857Y-150946190D01*
X174081904Y-150946190D01*
X174986666Y-150422380D02*
X175653333Y-151422380D01*
X175653333Y-150422380D02*
X174986666Y-151422380D01*
X164953333Y-151522380D02*
X164620000Y-151046190D01*
X164381904Y-151522380D02*
X164381904Y-150522380D01*
X164762857Y-150522380D01*
X164858095Y-150570000D01*
X164905714Y-150617619D01*
X164953333Y-150712857D01*
X164953333Y-150855714D01*
X164905714Y-150950952D01*
X164858095Y-150998571D01*
X164762857Y-151046190D01*
X164381904Y-151046190D01*
X165286666Y-150522380D02*
X165953333Y-151522380D01*
X165953333Y-150522380D02*
X165286666Y-151522380D01*
X159498095Y-150522380D02*
X160069523Y-150522380D01*
X159783809Y-151522380D02*
X159783809Y-150522380D01*
X160307619Y-150522380D02*
X160974285Y-151522380D01*
X160974285Y-150522380D02*
X160307619Y-151522380D01*
X157280000Y-147090000D02*
X157280000Y-152030000D01*
X167000000Y-147110000D02*
X167000000Y-152010000D01*
X154161904Y-150522380D02*
X154780952Y-150522380D01*
X154447619Y-150903333D01*
X154590476Y-150903333D01*
X154685714Y-150950952D01*
X154733333Y-150998571D01*
X154780952Y-151093809D01*
X154780952Y-151331904D01*
X154733333Y-151427142D01*
X154685714Y-151474761D01*
X154590476Y-151522380D01*
X154304761Y-151522380D01*
X154209523Y-151474761D01*
X154161904Y-151427142D01*
X155066666Y-150522380D02*
X155400000Y-151522380D01*
X155733333Y-150522380D01*
X155971428Y-150522380D02*
X156590476Y-150522380D01*
X156257142Y-150903333D01*
X156400000Y-150903333D01*
X156495238Y-150950952D01*
X156542857Y-150998571D01*
X156590476Y-151093809D01*
X156590476Y-151331904D01*
X156542857Y-151427142D01*
X156495238Y-151474761D01*
X156400000Y-151522380D01*
X156114285Y-151522380D01*
X156019047Y-151474761D01*
X155971428Y-151427142D01*
X152460000Y-147100000D02*
X176810000Y-147100000D01*
X176810000Y-147100000D02*
X176810000Y-152070000D01*
X176810000Y-152070000D02*
X152460000Y-152070000D01*
X152460000Y-152070000D02*
X152460000Y-147100000D01*
X185588095Y-140390000D02*
X185492857Y-140342380D01*
X185350000Y-140342380D01*
X185207142Y-140390000D01*
X185111904Y-140485238D01*
X185064285Y-140580476D01*
X185016666Y-140770952D01*
X185016666Y-140913809D01*
X185064285Y-141104285D01*
X185111904Y-141199523D01*
X185207142Y-141294761D01*
X185350000Y-141342380D01*
X185445238Y-141342380D01*
X185588095Y-141294761D01*
X185635714Y-141247142D01*
X185635714Y-140913809D01*
X185445238Y-140913809D01*
X186064285Y-141342380D02*
X186064285Y-140342380D01*
X186635714Y-141342380D01*
X186635714Y-140342380D01*
X187111904Y-141342380D02*
X187111904Y-140342380D01*
X187350000Y-140342380D01*
X187492857Y-140390000D01*
X187588095Y-140485238D01*
X187635714Y-140580476D01*
X187683333Y-140770952D01*
X187683333Y-140913809D01*
X187635714Y-141104285D01*
X187588095Y-141199523D01*
X187492857Y-141294761D01*
X187350000Y-141342380D01*
X187111904Y-141342380D01*
X187251428Y-137038571D02*
X187394285Y-137086190D01*
X187441904Y-137133809D01*
X187489523Y-137229047D01*
X187489523Y-137371904D01*
X187441904Y-137467142D01*
X187394285Y-137514761D01*
X187299047Y-137562380D01*
X186918095Y-137562380D01*
X186918095Y-136562380D01*
X187251428Y-136562380D01*
X187346666Y-136610000D01*
X187394285Y-136657619D01*
X187441904Y-136752857D01*
X187441904Y-136848095D01*
X187394285Y-136943333D01*
X187346666Y-136990952D01*
X187251428Y-137038571D01*
X186918095Y-137038571D01*
X186941904Y-133396666D02*
X187418095Y-133396666D01*
X186846666Y-133682380D02*
X187180000Y-132682380D01*
X187513333Y-133682380D01*
X186529523Y-128932380D02*
X186053333Y-128932380D01*
X186005714Y-129408571D01*
X186053333Y-129360952D01*
X186148571Y-129313333D01*
X186386666Y-129313333D01*
X186481904Y-129360952D01*
X186529523Y-129408571D01*
X186577142Y-129503809D01*
X186577142Y-129741904D01*
X186529523Y-129837142D01*
X186481904Y-129884761D01*
X186386666Y-129932380D01*
X186148571Y-129932380D01*
X186053333Y-129884761D01*
X186005714Y-129837142D01*
X186862857Y-128932380D02*
X187196190Y-129932380D01*
X187529523Y-128932380D01*
X129421904Y-140372380D02*
X130040952Y-140372380D01*
X129707619Y-140753333D01*
X129850476Y-140753333D01*
X129945714Y-140800952D01*
X129993333Y-140848571D01*
X130040952Y-140943809D01*
X130040952Y-141181904D01*
X129993333Y-141277142D01*
X129945714Y-141324761D01*
X129850476Y-141372380D01*
X129564761Y-141372380D01*
X129469523Y-141324761D01*
X129421904Y-141277142D01*
X130326666Y-140372380D02*
X130660000Y-141372380D01*
X130993333Y-140372380D01*
X131231428Y-140372380D02*
X131850476Y-140372380D01*
X131517142Y-140753333D01*
X131660000Y-140753333D01*
X131755238Y-140800952D01*
X131802857Y-140848571D01*
X131850476Y-140943809D01*
X131850476Y-141181904D01*
X131802857Y-141277142D01*
X131755238Y-141324761D01*
X131660000Y-141372380D01*
X131374285Y-141372380D01*
X131279047Y-141324761D01*
X131231428Y-141277142D01*
X129538095Y-136602380D02*
X130109523Y-136602380D01*
X129823809Y-137602380D02*
X129823809Y-136602380D01*
X130347619Y-136602380D02*
X131014285Y-137602380D01*
X131014285Y-136602380D02*
X130347619Y-137602380D01*
X130083333Y-133782380D02*
X129750000Y-133306190D01*
X129511904Y-133782380D02*
X129511904Y-132782380D01*
X129892857Y-132782380D01*
X129988095Y-132830000D01*
X130035714Y-132877619D01*
X130083333Y-132972857D01*
X130083333Y-133115714D01*
X130035714Y-133210952D01*
X129988095Y-133258571D01*
X129892857Y-133306190D01*
X129511904Y-133306190D01*
X130416666Y-132782380D02*
X131083333Y-133782380D01*
X131083333Y-132782380D02*
X130416666Y-133782380D01*
X129998095Y-128970000D02*
X129902857Y-128922380D01*
X129760000Y-128922380D01*
X129617142Y-128970000D01*
X129521904Y-129065238D01*
X129474285Y-129160476D01*
X129426666Y-129350952D01*
X129426666Y-129493809D01*
X129474285Y-129684285D01*
X129521904Y-129779523D01*
X129617142Y-129874761D01*
X129760000Y-129922380D01*
X129855238Y-129922380D01*
X129998095Y-129874761D01*
X130045714Y-129827142D01*
X130045714Y-129493809D01*
X129855238Y-129493809D01*
X130474285Y-129922380D02*
X130474285Y-128922380D01*
X131045714Y-129922380D01*
X131045714Y-128922380D01*
X131521904Y-129922380D02*
X131521904Y-128922380D01*
X131760000Y-128922380D01*
X131902857Y-128970000D01*
X131998095Y-129065238D01*
X132045714Y-129160476D01*
X132093333Y-129350952D01*
X132093333Y-129493809D01*
X132045714Y-129684285D01*
X131998095Y-129779523D01*
X131902857Y-129874761D01*
X131760000Y-129922380D01*
X131521904Y-129922380D01*
%TO.C,U3*%
X164018095Y-134522380D02*
X164018095Y-135331904D01*
X164065714Y-135427142D01*
X164113333Y-135474761D01*
X164208571Y-135522380D01*
X164399047Y-135522380D01*
X164494285Y-135474761D01*
X164541904Y-135427142D01*
X164589523Y-135331904D01*
X164589523Y-134522380D01*
X164970476Y-134522380D02*
X165589523Y-134522380D01*
X165256190Y-134903333D01*
X165399047Y-134903333D01*
X165494285Y-134950952D01*
X165541904Y-134998571D01*
X165589523Y-135093809D01*
X165589523Y-135331904D01*
X165541904Y-135427142D01*
X165494285Y-135474761D01*
X165399047Y-135522380D01*
X165113333Y-135522380D01*
X165018095Y-135474761D01*
X164970476Y-135427142D01*
%TO.C,D3*%
X135866904Y-145859880D02*
X135866904Y-144859880D01*
X136105000Y-144859880D01*
X136247857Y-144907500D01*
X136343095Y-145002738D01*
X136390714Y-145097976D01*
X136438333Y-145288452D01*
X136438333Y-145431309D01*
X136390714Y-145621785D01*
X136343095Y-145717023D01*
X136247857Y-145812261D01*
X136105000Y-145859880D01*
X135866904Y-145859880D01*
X136771666Y-144859880D02*
X137390714Y-144859880D01*
X137057380Y-145240833D01*
X137200238Y-145240833D01*
X137295476Y-145288452D01*
X137343095Y-145336071D01*
X137390714Y-145431309D01*
X137390714Y-145669404D01*
X137343095Y-145764642D01*
X137295476Y-145812261D01*
X137200238Y-145859880D01*
X136914523Y-145859880D01*
X136819285Y-145812261D01*
X136771666Y-145764642D01*
%TO.C,D1*%
X160861904Y-130882380D02*
X160861904Y-129882380D01*
X161100000Y-129882380D01*
X161242857Y-129930000D01*
X161338095Y-130025238D01*
X161385714Y-130120476D01*
X161433333Y-130310952D01*
X161433333Y-130453809D01*
X161385714Y-130644285D01*
X161338095Y-130739523D01*
X161242857Y-130834761D01*
X161100000Y-130882380D01*
X160861904Y-130882380D01*
X162385714Y-130882380D02*
X161814285Y-130882380D01*
X162100000Y-130882380D02*
X162100000Y-129882380D01*
X162004761Y-130025238D01*
X161909523Y-130120476D01*
X161814285Y-130168095D01*
%TO.C,L1*%
X157343333Y-129982380D02*
X156867142Y-129982380D01*
X156867142Y-128982380D01*
X158200476Y-129982380D02*
X157629047Y-129982380D01*
X157914761Y-129982380D02*
X157914761Y-128982380D01*
X157819523Y-129125238D01*
X157724285Y-129220476D01*
X157629047Y-129268095D01*
%TO.C,U6*%
X177508095Y-143432380D02*
X177508095Y-144241904D01*
X177555714Y-144337142D01*
X177603333Y-144384761D01*
X177698571Y-144432380D01*
X177889047Y-144432380D01*
X177984285Y-144384761D01*
X178031904Y-144337142D01*
X178079523Y-144241904D01*
X178079523Y-143432380D01*
X178984285Y-143432380D02*
X178793809Y-143432380D01*
X178698571Y-143480000D01*
X178650952Y-143527619D01*
X178555714Y-143670476D01*
X178508095Y-143860952D01*
X178508095Y-144241904D01*
X178555714Y-144337142D01*
X178603333Y-144384761D01*
X178698571Y-144432380D01*
X178889047Y-144432380D01*
X178984285Y-144384761D01*
X179031904Y-144337142D01*
X179079523Y-144241904D01*
X179079523Y-144003809D01*
X179031904Y-143908571D01*
X178984285Y-143860952D01*
X178889047Y-143813333D01*
X178698571Y-143813333D01*
X178603333Y-143860952D01*
X178555714Y-143908571D01*
X178508095Y-144003809D01*
%TO.C,U5*%
X135728095Y-150232380D02*
X135728095Y-151041904D01*
X135775714Y-151137142D01*
X135823333Y-151184761D01*
X135918571Y-151232380D01*
X136109047Y-151232380D01*
X136204285Y-151184761D01*
X136251904Y-151137142D01*
X136299523Y-151041904D01*
X136299523Y-150232380D01*
X137251904Y-150232380D02*
X136775714Y-150232380D01*
X136728095Y-150708571D01*
X136775714Y-150660952D01*
X136870952Y-150613333D01*
X137109047Y-150613333D01*
X137204285Y-150660952D01*
X137251904Y-150708571D01*
X137299523Y-150803809D01*
X137299523Y-151041904D01*
X137251904Y-151137142D01*
X137204285Y-151184761D01*
X137109047Y-151232380D01*
X136870952Y-151232380D01*
X136775714Y-151184761D01*
X136728095Y-151137142D01*
%TO.C,U4*%
X142603095Y-147769880D02*
X142603095Y-148579404D01*
X142650714Y-148674642D01*
X142698333Y-148722261D01*
X142793571Y-148769880D01*
X142984047Y-148769880D01*
X143079285Y-148722261D01*
X143126904Y-148674642D01*
X143174523Y-148579404D01*
X143174523Y-147769880D01*
X144079285Y-148103214D02*
X144079285Y-148769880D01*
X143841190Y-147722261D02*
X143603095Y-148436547D01*
X144222142Y-148436547D01*
%TO.C,U2*%
X143738095Y-142264880D02*
X143738095Y-143074404D01*
X143785714Y-143169642D01*
X143833333Y-143217261D01*
X143928571Y-143264880D01*
X144119047Y-143264880D01*
X144214285Y-143217261D01*
X144261904Y-143169642D01*
X144309523Y-143074404D01*
X144309523Y-142264880D01*
X144738095Y-142360119D02*
X144785714Y-142312500D01*
X144880952Y-142264880D01*
X145119047Y-142264880D01*
X145214285Y-142312500D01*
X145261904Y-142360119D01*
X145309523Y-142455357D01*
X145309523Y-142550595D01*
X145261904Y-142693452D01*
X144690476Y-143264880D01*
X145309523Y-143264880D01*
%TO.C,U1*%
X151918095Y-129032380D02*
X151918095Y-129841904D01*
X151965714Y-129937142D01*
X152013333Y-129984761D01*
X152108571Y-130032380D01*
X152299047Y-130032380D01*
X152394285Y-129984761D01*
X152441904Y-129937142D01*
X152489523Y-129841904D01*
X152489523Y-129032380D01*
X153489523Y-130032380D02*
X152918095Y-130032380D01*
X153203809Y-130032380D02*
X153203809Y-129032380D01*
X153108571Y-129175238D01*
X153013333Y-129270476D01*
X152918095Y-129318095D01*
%TO.C,R11*%
X154627142Y-140742380D02*
X154293809Y-140266190D01*
X154055714Y-140742380D02*
X154055714Y-139742380D01*
X154436666Y-139742380D01*
X154531904Y-139790000D01*
X154579523Y-139837619D01*
X154627142Y-139932857D01*
X154627142Y-140075714D01*
X154579523Y-140170952D01*
X154531904Y-140218571D01*
X154436666Y-140266190D01*
X154055714Y-140266190D01*
X155579523Y-140742380D02*
X155008095Y-140742380D01*
X155293809Y-140742380D02*
X155293809Y-139742380D01*
X155198571Y-139885238D01*
X155103333Y-139980476D01*
X155008095Y-140028095D01*
X156531904Y-140742380D02*
X155960476Y-140742380D01*
X156246190Y-140742380D02*
X156246190Y-139742380D01*
X156150952Y-139885238D01*
X156055714Y-139980476D01*
X155960476Y-140028095D01*
%TO.C,R10*%
X157757142Y-140832380D02*
X157423809Y-140356190D01*
X157185714Y-140832380D02*
X157185714Y-139832380D01*
X157566666Y-139832380D01*
X157661904Y-139880000D01*
X157709523Y-139927619D01*
X157757142Y-140022857D01*
X157757142Y-140165714D01*
X157709523Y-140260952D01*
X157661904Y-140308571D01*
X157566666Y-140356190D01*
X157185714Y-140356190D01*
X158709523Y-140832380D02*
X158138095Y-140832380D01*
X158423809Y-140832380D02*
X158423809Y-139832380D01*
X158328571Y-139975238D01*
X158233333Y-140070476D01*
X158138095Y-140118095D01*
X159328571Y-139832380D02*
X159423809Y-139832380D01*
X159519047Y-139880000D01*
X159566666Y-139927619D01*
X159614285Y-140022857D01*
X159661904Y-140213333D01*
X159661904Y-140451428D01*
X159614285Y-140641904D01*
X159566666Y-140737142D01*
X159519047Y-140784761D01*
X159423809Y-140832380D01*
X159328571Y-140832380D01*
X159233333Y-140784761D01*
X159185714Y-140737142D01*
X159138095Y-140641904D01*
X159090476Y-140451428D01*
X159090476Y-140213333D01*
X159138095Y-140022857D01*
X159185714Y-139927619D01*
X159233333Y-139880000D01*
X159328571Y-139832380D01*
%TO.C,R9*%
X150038333Y-140429880D02*
X149705000Y-139953690D01*
X149466904Y-140429880D02*
X149466904Y-139429880D01*
X149847857Y-139429880D01*
X149943095Y-139477500D01*
X149990714Y-139525119D01*
X150038333Y-139620357D01*
X150038333Y-139763214D01*
X149990714Y-139858452D01*
X149943095Y-139906071D01*
X149847857Y-139953690D01*
X149466904Y-139953690D01*
X150514523Y-140429880D02*
X150705000Y-140429880D01*
X150800238Y-140382261D01*
X150847857Y-140334642D01*
X150943095Y-140191785D01*
X150990714Y-140001309D01*
X150990714Y-139620357D01*
X150943095Y-139525119D01*
X150895476Y-139477500D01*
X150800238Y-139429880D01*
X150609761Y-139429880D01*
X150514523Y-139477500D01*
X150466904Y-139525119D01*
X150419285Y-139620357D01*
X150419285Y-139858452D01*
X150466904Y-139953690D01*
X150514523Y-140001309D01*
X150609761Y-140048928D01*
X150800238Y-140048928D01*
X150895476Y-140001309D01*
X150943095Y-139953690D01*
X150990714Y-139858452D01*
%TO.C,R8*%
X184173333Y-137592380D02*
X183840000Y-137116190D01*
X183601904Y-137592380D02*
X183601904Y-136592380D01*
X183982857Y-136592380D01*
X184078095Y-136640000D01*
X184125714Y-136687619D01*
X184173333Y-136782857D01*
X184173333Y-136925714D01*
X184125714Y-137020952D01*
X184078095Y-137068571D01*
X183982857Y-137116190D01*
X183601904Y-137116190D01*
X184744761Y-137020952D02*
X184649523Y-136973333D01*
X184601904Y-136925714D01*
X184554285Y-136830476D01*
X184554285Y-136782857D01*
X184601904Y-136687619D01*
X184649523Y-136640000D01*
X184744761Y-136592380D01*
X184935238Y-136592380D01*
X185030476Y-136640000D01*
X185078095Y-136687619D01*
X185125714Y-136782857D01*
X185125714Y-136830476D01*
X185078095Y-136925714D01*
X185030476Y-136973333D01*
X184935238Y-137020952D01*
X184744761Y-137020952D01*
X184649523Y-137068571D01*
X184601904Y-137116190D01*
X184554285Y-137211428D01*
X184554285Y-137401904D01*
X184601904Y-137497142D01*
X184649523Y-137544761D01*
X184744761Y-137592380D01*
X184935238Y-137592380D01*
X185030476Y-137544761D01*
X185078095Y-137497142D01*
X185125714Y-137401904D01*
X185125714Y-137211428D01*
X185078095Y-137116190D01*
X185030476Y-137068571D01*
X184935238Y-137020952D01*
%TO.C,R7*%
X184143333Y-132132380D02*
X183810000Y-131656190D01*
X183571904Y-132132380D02*
X183571904Y-131132380D01*
X183952857Y-131132380D01*
X184048095Y-131180000D01*
X184095714Y-131227619D01*
X184143333Y-131322857D01*
X184143333Y-131465714D01*
X184095714Y-131560952D01*
X184048095Y-131608571D01*
X183952857Y-131656190D01*
X183571904Y-131656190D01*
X184476666Y-131132380D02*
X185143333Y-131132380D01*
X184714761Y-132132380D01*
%TO.C,R6*%
X152513333Y-140362380D02*
X152180000Y-139886190D01*
X151941904Y-140362380D02*
X151941904Y-139362380D01*
X152322857Y-139362380D01*
X152418095Y-139410000D01*
X152465714Y-139457619D01*
X152513333Y-139552857D01*
X152513333Y-139695714D01*
X152465714Y-139790952D01*
X152418095Y-139838571D01*
X152322857Y-139886190D01*
X151941904Y-139886190D01*
X153370476Y-139362380D02*
X153180000Y-139362380D01*
X153084761Y-139410000D01*
X153037142Y-139457619D01*
X152941904Y-139600476D01*
X152894285Y-139790952D01*
X152894285Y-140171904D01*
X152941904Y-140267142D01*
X152989523Y-140314761D01*
X153084761Y-140362380D01*
X153275238Y-140362380D01*
X153370476Y-140314761D01*
X153418095Y-140267142D01*
X153465714Y-140171904D01*
X153465714Y-139933809D01*
X153418095Y-139838571D01*
X153370476Y-139790952D01*
X153275238Y-139743333D01*
X153084761Y-139743333D01*
X152989523Y-139790952D01*
X152941904Y-139838571D01*
X152894285Y-139933809D01*
%TO.C,R5*%
X167363333Y-135272380D02*
X167030000Y-134796190D01*
X166791904Y-135272380D02*
X166791904Y-134272380D01*
X167172857Y-134272380D01*
X167268095Y-134320000D01*
X167315714Y-134367619D01*
X167363333Y-134462857D01*
X167363333Y-134605714D01*
X167315714Y-134700952D01*
X167268095Y-134748571D01*
X167172857Y-134796190D01*
X166791904Y-134796190D01*
X168268095Y-134272380D02*
X167791904Y-134272380D01*
X167744285Y-134748571D01*
X167791904Y-134700952D01*
X167887142Y-134653333D01*
X168125238Y-134653333D01*
X168220476Y-134700952D01*
X168268095Y-134748571D01*
X168315714Y-134843809D01*
X168315714Y-135081904D01*
X168268095Y-135177142D01*
X168220476Y-135224761D01*
X168125238Y-135272380D01*
X167887142Y-135272380D01*
X167791904Y-135224761D01*
X167744285Y-135177142D01*
%TO.C,R4*%
X139888333Y-147539880D02*
X139555000Y-147063690D01*
X139316904Y-147539880D02*
X139316904Y-146539880D01*
X139697857Y-146539880D01*
X139793095Y-146587500D01*
X139840714Y-146635119D01*
X139888333Y-146730357D01*
X139888333Y-146873214D01*
X139840714Y-146968452D01*
X139793095Y-147016071D01*
X139697857Y-147063690D01*
X139316904Y-147063690D01*
X140745476Y-146873214D02*
X140745476Y-147539880D01*
X140507380Y-146492261D02*
X140269285Y-147206547D01*
X140888333Y-147206547D01*
%TO.C,R3*%
X145052380Y-150076666D02*
X144576190Y-150410000D01*
X145052380Y-150648095D02*
X144052380Y-150648095D01*
X144052380Y-150267142D01*
X144100000Y-150171904D01*
X144147619Y-150124285D01*
X144242857Y-150076666D01*
X144385714Y-150076666D01*
X144480952Y-150124285D01*
X144528571Y-150171904D01*
X144576190Y-150267142D01*
X144576190Y-150648095D01*
X144052380Y-149743333D02*
X144052380Y-149124285D01*
X144433333Y-149457619D01*
X144433333Y-149314761D01*
X144480952Y-149219523D01*
X144528571Y-149171904D01*
X144623809Y-149124285D01*
X144861904Y-149124285D01*
X144957142Y-149171904D01*
X145004761Y-149219523D01*
X145052380Y-149314761D01*
X145052380Y-149600476D01*
X145004761Y-149695714D01*
X144957142Y-149743333D01*
%TO.C,R2*%
X175453333Y-135032380D02*
X175120000Y-134556190D01*
X174881904Y-135032380D02*
X174881904Y-134032380D01*
X175262857Y-134032380D01*
X175358095Y-134080000D01*
X175405714Y-134127619D01*
X175453333Y-134222857D01*
X175453333Y-134365714D01*
X175405714Y-134460952D01*
X175358095Y-134508571D01*
X175262857Y-134556190D01*
X174881904Y-134556190D01*
X175834285Y-134127619D02*
X175881904Y-134080000D01*
X175977142Y-134032380D01*
X176215238Y-134032380D01*
X176310476Y-134080000D01*
X176358095Y-134127619D01*
X176405714Y-134222857D01*
X176405714Y-134318095D01*
X176358095Y-134460952D01*
X175786666Y-135032380D01*
X176405714Y-135032380D01*
%TO.C,R1*%
X173223333Y-135072380D02*
X172890000Y-134596190D01*
X172651904Y-135072380D02*
X172651904Y-134072380D01*
X173032857Y-134072380D01*
X173128095Y-134120000D01*
X173175714Y-134167619D01*
X173223333Y-134262857D01*
X173223333Y-134405714D01*
X173175714Y-134500952D01*
X173128095Y-134548571D01*
X173032857Y-134596190D01*
X172651904Y-134596190D01*
X174175714Y-135072380D02*
X173604285Y-135072380D01*
X173890000Y-135072380D02*
X173890000Y-134072380D01*
X173794761Y-134215238D01*
X173699523Y-134310476D01*
X173604285Y-134358095D01*
%TO.C,J4*%
X194227619Y-134856666D02*
X193513333Y-134856666D01*
X193370476Y-134809047D01*
X193275238Y-134713809D01*
X193227619Y-134570952D01*
X193227619Y-134475714D01*
X193894285Y-135761428D02*
X193227619Y-135761428D01*
X194275238Y-135523333D02*
X193560952Y-135285238D01*
X193560952Y-135904285D01*
%TO.C,J3*%
X134987380Y-134870833D02*
X135701666Y-134870833D01*
X135844523Y-134918452D01*
X135939761Y-135013690D01*
X135987380Y-135156547D01*
X135987380Y-135251785D01*
X134987380Y-134489880D02*
X134987380Y-133870833D01*
X135368333Y-134204166D01*
X135368333Y-134061309D01*
X135415952Y-133966071D01*
X135463571Y-133918452D01*
X135558809Y-133870833D01*
X135796904Y-133870833D01*
X135892142Y-133918452D01*
X135939761Y-133966071D01*
X135987380Y-134061309D01*
X135987380Y-134347023D01*
X135939761Y-134442261D01*
X135892142Y-134489880D01*
%TO.C,D7*%
X169242380Y-149638095D02*
X168242380Y-149638095D01*
X168242380Y-149400000D01*
X168290000Y-149257142D01*
X168385238Y-149161904D01*
X168480476Y-149114285D01*
X168670952Y-149066666D01*
X168813809Y-149066666D01*
X169004285Y-149114285D01*
X169099523Y-149161904D01*
X169194761Y-149257142D01*
X169242380Y-149400000D01*
X169242380Y-149638095D01*
X168242380Y-148733333D02*
X168242380Y-148066666D01*
X169242380Y-148495238D01*
%TO.C,D6*%
X174182380Y-149638095D02*
X173182380Y-149638095D01*
X173182380Y-149400000D01*
X173230000Y-149257142D01*
X173325238Y-149161904D01*
X173420476Y-149114285D01*
X173610952Y-149066666D01*
X173753809Y-149066666D01*
X173944285Y-149114285D01*
X174039523Y-149161904D01*
X174134761Y-149257142D01*
X174182380Y-149400000D01*
X174182380Y-149638095D01*
X173182380Y-148209523D02*
X173182380Y-148400000D01*
X173230000Y-148495238D01*
X173277619Y-148542857D01*
X173420476Y-148638095D01*
X173610952Y-148685714D01*
X173991904Y-148685714D01*
X174087142Y-148638095D01*
X174134761Y-148590476D01*
X174182380Y-148495238D01*
X174182380Y-148304761D01*
X174134761Y-148209523D01*
X174087142Y-148161904D01*
X173991904Y-148114285D01*
X173753809Y-148114285D01*
X173658571Y-148161904D01*
X173610952Y-148209523D01*
X173563333Y-148304761D01*
X173563333Y-148495238D01*
X173610952Y-148590476D01*
X173658571Y-148638095D01*
X173753809Y-148685714D01*
%TO.C,D5*%
X159422380Y-149608095D02*
X158422380Y-149608095D01*
X158422380Y-149370000D01*
X158470000Y-149227142D01*
X158565238Y-149131904D01*
X158660476Y-149084285D01*
X158850952Y-149036666D01*
X158993809Y-149036666D01*
X159184285Y-149084285D01*
X159279523Y-149131904D01*
X159374761Y-149227142D01*
X159422380Y-149370000D01*
X159422380Y-149608095D01*
X158422380Y-148131904D02*
X158422380Y-148608095D01*
X158898571Y-148655714D01*
X158850952Y-148608095D01*
X158803333Y-148512857D01*
X158803333Y-148274761D01*
X158850952Y-148179523D01*
X158898571Y-148131904D01*
X158993809Y-148084285D01*
X159231904Y-148084285D01*
X159327142Y-148131904D01*
X159374761Y-148179523D01*
X159422380Y-148274761D01*
X159422380Y-148512857D01*
X159374761Y-148608095D01*
X159327142Y-148655714D01*
%TO.C,D4*%
X164152380Y-149618095D02*
X163152380Y-149618095D01*
X163152380Y-149380000D01*
X163200000Y-149237142D01*
X163295238Y-149141904D01*
X163390476Y-149094285D01*
X163580952Y-149046666D01*
X163723809Y-149046666D01*
X163914285Y-149094285D01*
X164009523Y-149141904D01*
X164104761Y-149237142D01*
X164152380Y-149380000D01*
X164152380Y-149618095D01*
X163485714Y-148189523D02*
X164152380Y-148189523D01*
X163104761Y-148427619D02*
X163819047Y-148665714D01*
X163819047Y-148046666D01*
%TO.C,D2*%
X154702380Y-149618095D02*
X153702380Y-149618095D01*
X153702380Y-149380000D01*
X153750000Y-149237142D01*
X153845238Y-149141904D01*
X153940476Y-149094285D01*
X154130952Y-149046666D01*
X154273809Y-149046666D01*
X154464285Y-149094285D01*
X154559523Y-149141904D01*
X154654761Y-149237142D01*
X154702380Y-149380000D01*
X154702380Y-149618095D01*
X153797619Y-148665714D02*
X153750000Y-148618095D01*
X153702380Y-148522857D01*
X153702380Y-148284761D01*
X153750000Y-148189523D01*
X153797619Y-148141904D01*
X153892857Y-148094285D01*
X153988095Y-148094285D01*
X154130952Y-148141904D01*
X154702380Y-148713333D01*
X154702380Y-148094285D01*
%TO.C,C13*%
X146462142Y-143734642D02*
X146414523Y-143782261D01*
X146271666Y-143829880D01*
X146176428Y-143829880D01*
X146033571Y-143782261D01*
X145938333Y-143687023D01*
X145890714Y-143591785D01*
X145843095Y-143401309D01*
X145843095Y-143258452D01*
X145890714Y-143067976D01*
X145938333Y-142972738D01*
X146033571Y-142877500D01*
X146176428Y-142829880D01*
X146271666Y-142829880D01*
X146414523Y-142877500D01*
X146462142Y-142925119D01*
X147414523Y-143829880D02*
X146843095Y-143829880D01*
X147128809Y-143829880D02*
X147128809Y-142829880D01*
X147033571Y-142972738D01*
X146938333Y-143067976D01*
X146843095Y-143115595D01*
X147747857Y-142829880D02*
X148366904Y-142829880D01*
X148033571Y-143210833D01*
X148176428Y-143210833D01*
X148271666Y-143258452D01*
X148319285Y-143306071D01*
X148366904Y-143401309D01*
X148366904Y-143639404D01*
X148319285Y-143734642D01*
X148271666Y-143782261D01*
X148176428Y-143829880D01*
X147890714Y-143829880D01*
X147795476Y-143782261D01*
X147747857Y-143734642D01*
%TO.C,C12*%
X180557142Y-136612857D02*
X180604761Y-136660476D01*
X180652380Y-136803333D01*
X180652380Y-136898571D01*
X180604761Y-137041428D01*
X180509523Y-137136666D01*
X180414285Y-137184285D01*
X180223809Y-137231904D01*
X180080952Y-137231904D01*
X179890476Y-137184285D01*
X179795238Y-137136666D01*
X179700000Y-137041428D01*
X179652380Y-136898571D01*
X179652380Y-136803333D01*
X179700000Y-136660476D01*
X179747619Y-136612857D01*
X180652380Y-135660476D02*
X180652380Y-136231904D01*
X180652380Y-135946190D02*
X179652380Y-135946190D01*
X179795238Y-136041428D01*
X179890476Y-136136666D01*
X179938095Y-136231904D01*
X179747619Y-135279523D02*
X179700000Y-135231904D01*
X179652380Y-135136666D01*
X179652380Y-134898571D01*
X179700000Y-134803333D01*
X179747619Y-134755714D01*
X179842857Y-134708095D01*
X179938095Y-134708095D01*
X180080952Y-134755714D01*
X180652380Y-135327142D01*
X180652380Y-134708095D01*
%TO.C,C11*%
X169427142Y-144247142D02*
X169379523Y-144294761D01*
X169236666Y-144342380D01*
X169141428Y-144342380D01*
X168998571Y-144294761D01*
X168903333Y-144199523D01*
X168855714Y-144104285D01*
X168808095Y-143913809D01*
X168808095Y-143770952D01*
X168855714Y-143580476D01*
X168903333Y-143485238D01*
X168998571Y-143390000D01*
X169141428Y-143342380D01*
X169236666Y-143342380D01*
X169379523Y-143390000D01*
X169427142Y-143437619D01*
X170379523Y-144342380D02*
X169808095Y-144342380D01*
X170093809Y-144342380D02*
X170093809Y-143342380D01*
X169998571Y-143485238D01*
X169903333Y-143580476D01*
X169808095Y-143628095D01*
X171331904Y-144342380D02*
X170760476Y-144342380D01*
X171046190Y-144342380D02*
X171046190Y-143342380D01*
X170950952Y-143485238D01*
X170855714Y-143580476D01*
X170760476Y-143628095D01*
%TO.C,C10*%
X167247142Y-132987142D02*
X167199523Y-133034761D01*
X167056666Y-133082380D01*
X166961428Y-133082380D01*
X166818571Y-133034761D01*
X166723333Y-132939523D01*
X166675714Y-132844285D01*
X166628095Y-132653809D01*
X166628095Y-132510952D01*
X166675714Y-132320476D01*
X166723333Y-132225238D01*
X166818571Y-132130000D01*
X166961428Y-132082380D01*
X167056666Y-132082380D01*
X167199523Y-132130000D01*
X167247142Y-132177619D01*
X168199523Y-133082380D02*
X167628095Y-133082380D01*
X167913809Y-133082380D02*
X167913809Y-132082380D01*
X167818571Y-132225238D01*
X167723333Y-132320476D01*
X167628095Y-132368095D01*
X168818571Y-132082380D02*
X168913809Y-132082380D01*
X169009047Y-132130000D01*
X169056666Y-132177619D01*
X169104285Y-132272857D01*
X169151904Y-132463333D01*
X169151904Y-132701428D01*
X169104285Y-132891904D01*
X169056666Y-132987142D01*
X169009047Y-133034761D01*
X168913809Y-133082380D01*
X168818571Y-133082380D01*
X168723333Y-133034761D01*
X168675714Y-132987142D01*
X168628095Y-132891904D01*
X168580476Y-132701428D01*
X168580476Y-132463333D01*
X168628095Y-132272857D01*
X168675714Y-132177619D01*
X168723333Y-132130000D01*
X168818571Y-132082380D01*
%TO.C,C9*%
X155777142Y-138786666D02*
X155824761Y-138834285D01*
X155872380Y-138977142D01*
X155872380Y-139072380D01*
X155824761Y-139215238D01*
X155729523Y-139310476D01*
X155634285Y-139358095D01*
X155443809Y-139405714D01*
X155300952Y-139405714D01*
X155110476Y-139358095D01*
X155015238Y-139310476D01*
X154920000Y-139215238D01*
X154872380Y-139072380D01*
X154872380Y-138977142D01*
X154920000Y-138834285D01*
X154967619Y-138786666D01*
X155872380Y-138310476D02*
X155872380Y-138120000D01*
X155824761Y-138024761D01*
X155777142Y-137977142D01*
X155634285Y-137881904D01*
X155443809Y-137834285D01*
X155062857Y-137834285D01*
X154967619Y-137881904D01*
X154920000Y-137929523D01*
X154872380Y-138024761D01*
X154872380Y-138215238D01*
X154920000Y-138310476D01*
X154967619Y-138358095D01*
X155062857Y-138405714D01*
X155300952Y-138405714D01*
X155396190Y-138358095D01*
X155443809Y-138310476D01*
X155491428Y-138215238D01*
X155491428Y-138024761D01*
X155443809Y-137929523D01*
X155396190Y-137881904D01*
X155300952Y-137834285D01*
%TO.C,C8*%
X138103333Y-133339642D02*
X138055714Y-133387261D01*
X137912857Y-133434880D01*
X137817619Y-133434880D01*
X137674761Y-133387261D01*
X137579523Y-133292023D01*
X137531904Y-133196785D01*
X137484285Y-133006309D01*
X137484285Y-132863452D01*
X137531904Y-132672976D01*
X137579523Y-132577738D01*
X137674761Y-132482500D01*
X137817619Y-132434880D01*
X137912857Y-132434880D01*
X138055714Y-132482500D01*
X138103333Y-132530119D01*
X138674761Y-132863452D02*
X138579523Y-132815833D01*
X138531904Y-132768214D01*
X138484285Y-132672976D01*
X138484285Y-132625357D01*
X138531904Y-132530119D01*
X138579523Y-132482500D01*
X138674761Y-132434880D01*
X138865238Y-132434880D01*
X138960476Y-132482500D01*
X139008095Y-132530119D01*
X139055714Y-132625357D01*
X139055714Y-132672976D01*
X139008095Y-132768214D01*
X138960476Y-132815833D01*
X138865238Y-132863452D01*
X138674761Y-132863452D01*
X138579523Y-132911071D01*
X138531904Y-132958690D01*
X138484285Y-133053928D01*
X138484285Y-133244404D01*
X138531904Y-133339642D01*
X138579523Y-133387261D01*
X138674761Y-133434880D01*
X138865238Y-133434880D01*
X138960476Y-133387261D01*
X139008095Y-133339642D01*
X139055714Y-133244404D01*
X139055714Y-133053928D01*
X139008095Y-132958690D01*
X138960476Y-132911071D01*
X138865238Y-132863452D01*
%TO.C,C7*%
X137599642Y-138059166D02*
X137647261Y-138106785D01*
X137694880Y-138249642D01*
X137694880Y-138344880D01*
X137647261Y-138487738D01*
X137552023Y-138582976D01*
X137456785Y-138630595D01*
X137266309Y-138678214D01*
X137123452Y-138678214D01*
X136932976Y-138630595D01*
X136837738Y-138582976D01*
X136742500Y-138487738D01*
X136694880Y-138344880D01*
X136694880Y-138249642D01*
X136742500Y-138106785D01*
X136790119Y-138059166D01*
X136694880Y-137725833D02*
X136694880Y-137059166D01*
X137694880Y-137487738D01*
%TO.C,C6*%
X159267142Y-135196666D02*
X159314761Y-135244285D01*
X159362380Y-135387142D01*
X159362380Y-135482380D01*
X159314761Y-135625238D01*
X159219523Y-135720476D01*
X159124285Y-135768095D01*
X158933809Y-135815714D01*
X158790952Y-135815714D01*
X158600476Y-135768095D01*
X158505238Y-135720476D01*
X158410000Y-135625238D01*
X158362380Y-135482380D01*
X158362380Y-135387142D01*
X158410000Y-135244285D01*
X158457619Y-135196666D01*
X158362380Y-134339523D02*
X158362380Y-134530000D01*
X158410000Y-134625238D01*
X158457619Y-134672857D01*
X158600476Y-134768095D01*
X158790952Y-134815714D01*
X159171904Y-134815714D01*
X159267142Y-134768095D01*
X159314761Y-134720476D01*
X159362380Y-134625238D01*
X159362380Y-134434761D01*
X159314761Y-134339523D01*
X159267142Y-134291904D01*
X159171904Y-134244285D01*
X158933809Y-134244285D01*
X158838571Y-134291904D01*
X158790952Y-134339523D01*
X158743333Y-134434761D01*
X158743333Y-134625238D01*
X158790952Y-134720476D01*
X158838571Y-134768095D01*
X158933809Y-134815714D01*
%TO.C,C5*%
X133683333Y-135407142D02*
X133635714Y-135454761D01*
X133492857Y-135502380D01*
X133397619Y-135502380D01*
X133254761Y-135454761D01*
X133159523Y-135359523D01*
X133111904Y-135264285D01*
X133064285Y-135073809D01*
X133064285Y-134930952D01*
X133111904Y-134740476D01*
X133159523Y-134645238D01*
X133254761Y-134550000D01*
X133397619Y-134502380D01*
X133492857Y-134502380D01*
X133635714Y-134550000D01*
X133683333Y-134597619D01*
X134588095Y-134502380D02*
X134111904Y-134502380D01*
X134064285Y-134978571D01*
X134111904Y-134930952D01*
X134207142Y-134883333D01*
X134445238Y-134883333D01*
X134540476Y-134930952D01*
X134588095Y-134978571D01*
X134635714Y-135073809D01*
X134635714Y-135311904D01*
X134588095Y-135407142D01*
X134540476Y-135454761D01*
X134445238Y-135502380D01*
X134207142Y-135502380D01*
X134111904Y-135454761D01*
X134064285Y-135407142D01*
%TO.C,C4*%
X170973333Y-135007142D02*
X170925714Y-135054761D01*
X170782857Y-135102380D01*
X170687619Y-135102380D01*
X170544761Y-135054761D01*
X170449523Y-134959523D01*
X170401904Y-134864285D01*
X170354285Y-134673809D01*
X170354285Y-134530952D01*
X170401904Y-134340476D01*
X170449523Y-134245238D01*
X170544761Y-134150000D01*
X170687619Y-134102380D01*
X170782857Y-134102380D01*
X170925714Y-134150000D01*
X170973333Y-134197619D01*
X171830476Y-134435714D02*
X171830476Y-135102380D01*
X171592380Y-134054761D02*
X171354285Y-134769047D01*
X171973333Y-134769047D01*
%TO.C,C3*%
X182067142Y-131996666D02*
X182114761Y-132044285D01*
X182162380Y-132187142D01*
X182162380Y-132282380D01*
X182114761Y-132425238D01*
X182019523Y-132520476D01*
X181924285Y-132568095D01*
X181733809Y-132615714D01*
X181590952Y-132615714D01*
X181400476Y-132568095D01*
X181305238Y-132520476D01*
X181210000Y-132425238D01*
X181162380Y-132282380D01*
X181162380Y-132187142D01*
X181210000Y-132044285D01*
X181257619Y-131996666D01*
X181162380Y-131663333D02*
X181162380Y-131044285D01*
X181543333Y-131377619D01*
X181543333Y-131234761D01*
X181590952Y-131139523D01*
X181638571Y-131091904D01*
X181733809Y-131044285D01*
X181971904Y-131044285D01*
X182067142Y-131091904D01*
X182114761Y-131139523D01*
X182162380Y-131234761D01*
X182162380Y-131520476D01*
X182114761Y-131615714D01*
X182067142Y-131663333D01*
%TO.C,C2*%
X177713333Y-134997142D02*
X177665714Y-135044761D01*
X177522857Y-135092380D01*
X177427619Y-135092380D01*
X177284761Y-135044761D01*
X177189523Y-134949523D01*
X177141904Y-134854285D01*
X177094285Y-134663809D01*
X177094285Y-134520952D01*
X177141904Y-134330476D01*
X177189523Y-134235238D01*
X177284761Y-134140000D01*
X177427619Y-134092380D01*
X177522857Y-134092380D01*
X177665714Y-134140000D01*
X177713333Y-134187619D01*
X178094285Y-134187619D02*
X178141904Y-134140000D01*
X178237142Y-134092380D01*
X178475238Y-134092380D01*
X178570476Y-134140000D01*
X178618095Y-134187619D01*
X178665714Y-134282857D01*
X178665714Y-134378095D01*
X178618095Y-134520952D01*
X178046666Y-135092380D01*
X178665714Y-135092380D01*
%TO.C,C1*%
X154947142Y-136889166D02*
X154994761Y-136936785D01*
X155042380Y-137079642D01*
X155042380Y-137174880D01*
X154994761Y-137317738D01*
X154899523Y-137412976D01*
X154804285Y-137460595D01*
X154613809Y-137508214D01*
X154470952Y-137508214D01*
X154280476Y-137460595D01*
X154185238Y-137412976D01*
X154090000Y-137317738D01*
X154042380Y-137174880D01*
X154042380Y-137079642D01*
X154090000Y-136936785D01*
X154137619Y-136889166D01*
X155042380Y-135936785D02*
X155042380Y-136508214D01*
X155042380Y-136222500D02*
X154042380Y-136222500D01*
X154185238Y-136317738D01*
X154280476Y-136412976D01*
X154328095Y-136508214D01*
%TO.C,J1*%
X174736666Y-121952380D02*
X174736666Y-122666666D01*
X174689047Y-122809523D01*
X174593809Y-122904761D01*
X174450952Y-122952380D01*
X174355714Y-122952380D01*
X175736666Y-122952380D02*
X175165238Y-122952380D01*
X175450952Y-122952380D02*
X175450952Y-121952380D01*
X175355714Y-122095238D01*
X175260476Y-122190476D01*
X175165238Y-122238095D01*
%TO.C,J2*%
X141706666Y-121892380D02*
X141706666Y-122606666D01*
X141659047Y-122749523D01*
X141563809Y-122844761D01*
X141420952Y-122892380D01*
X141325714Y-122892380D01*
X142135238Y-121987619D02*
X142182857Y-121940000D01*
X142278095Y-121892380D01*
X142516190Y-121892380D01*
X142611428Y-121940000D01*
X142659047Y-121987619D01*
X142706666Y-122082857D01*
X142706666Y-122178095D01*
X142659047Y-122320952D01*
X142087619Y-122892380D01*
X142706666Y-122892380D01*
%TO.C,G\u002A\u002A\u002A*%
G36*
X155917039Y-127003949D02*
G01*
X155936032Y-127004425D01*
X155950899Y-127005484D01*
X155963571Y-127007334D01*
X155975978Y-127010184D01*
X155990053Y-127014243D01*
X155991017Y-127014537D01*
X156032349Y-127029564D01*
X156069444Y-127047870D01*
X156100508Y-127068569D01*
X156100859Y-127068846D01*
X156113059Y-127079517D01*
X156125681Y-127092228D01*
X156137358Y-127105386D01*
X156146729Y-127117394D01*
X156152428Y-127126658D01*
X156153518Y-127130436D01*
X156150415Y-127134447D01*
X156142047Y-127142041D01*
X156129656Y-127152164D01*
X156114483Y-127163762D01*
X156112961Y-127164888D01*
X156072544Y-127194706D01*
X156066216Y-127184863D01*
X156054798Y-127169959D01*
X156039099Y-127153137D01*
X156021576Y-127136770D01*
X156004690Y-127123229D01*
X155997097Y-127118165D01*
X155967394Y-127103912D01*
X155934810Y-127094682D01*
X155900724Y-127090359D01*
X155866515Y-127090825D01*
X155833565Y-127095966D01*
X155803252Y-127105665D01*
X155776957Y-127119805D01*
X155756058Y-127138270D01*
X155755859Y-127138502D01*
X155741318Y-127160954D01*
X155733140Y-127185815D01*
X155731247Y-127211550D01*
X155735562Y-127236623D01*
X155746006Y-127259497D01*
X155762502Y-127278636D01*
X155762976Y-127279040D01*
X155775023Y-127288012D01*
X155789586Y-127296367D01*
X155807543Y-127304422D01*
X155829773Y-127312493D01*
X155857154Y-127320895D01*
X155890565Y-127329944D01*
X155930885Y-127339956D01*
X155935652Y-127341099D01*
X155990169Y-127356355D01*
X156037198Y-127374279D01*
X156076798Y-127394905D01*
X156109023Y-127418268D01*
X156133931Y-127444402D01*
X156151579Y-127473343D01*
X156151807Y-127473839D01*
X156161560Y-127503060D01*
X156166694Y-127536562D01*
X156167186Y-127572089D01*
X156163011Y-127607384D01*
X156154146Y-127640193D01*
X156153606Y-127641654D01*
X156136754Y-127675493D01*
X156113120Y-127705815D01*
X156083323Y-127732120D01*
X156047983Y-127753901D01*
X156007719Y-127770657D01*
X155987868Y-127776498D01*
X155966565Y-127780651D01*
X155939821Y-127783846D01*
X155910142Y-127785967D01*
X155880031Y-127786896D01*
X155851994Y-127786519D01*
X155828536Y-127784719D01*
X155824074Y-127784095D01*
X155779940Y-127774342D01*
X155736839Y-127759364D01*
X155696601Y-127739994D01*
X155661057Y-127717065D01*
X155641784Y-127701064D01*
X155627757Y-127687543D01*
X155614678Y-127673993D01*
X155604610Y-127662591D01*
X155601650Y-127658791D01*
X155590340Y-127643191D01*
X155676260Y-127580137D01*
X155686024Y-127593307D01*
X155703282Y-127613407D01*
X155724809Y-127633786D01*
X155747861Y-127652071D01*
X155769696Y-127665888D01*
X155770199Y-127666154D01*
X155805641Y-127681419D01*
X155842714Y-127691296D01*
X155880233Y-127695868D01*
X155917011Y-127695220D01*
X155951860Y-127689436D01*
X155983596Y-127678602D01*
X156011030Y-127662800D01*
X156027994Y-127647822D01*
X156043413Y-127629244D01*
X156053013Y-127611595D01*
X156057929Y-127591995D01*
X156059296Y-127568524D01*
X156057988Y-127547957D01*
X156053612Y-127529701D01*
X156045623Y-127513382D01*
X156033474Y-127498626D01*
X156016621Y-127485059D01*
X155994518Y-127472305D01*
X155966620Y-127459991D01*
X155932381Y-127447742D01*
X155891257Y-127435185D01*
X155847690Y-127423252D01*
X155810802Y-127413235D01*
X155780584Y-127404222D01*
X155755862Y-127395693D01*
X155735462Y-127387130D01*
X155718210Y-127378012D01*
X155702933Y-127367820D01*
X155688456Y-127356034D01*
X155681477Y-127349686D01*
X155656901Y-127321531D01*
X155639402Y-127289765D01*
X155629041Y-127254596D01*
X155625878Y-127216234D01*
X155629974Y-127174889D01*
X155630401Y-127172587D01*
X155641052Y-127137340D01*
X155658790Y-127104936D01*
X155683049Y-127075920D01*
X155713264Y-127050834D01*
X155748870Y-127030224D01*
X155789301Y-127014631D01*
X155796906Y-127012438D01*
X155810979Y-127008966D01*
X155824922Y-127006545D01*
X155840652Y-127005003D01*
X155860084Y-127004166D01*
X155885137Y-127003861D01*
X155891988Y-127003848D01*
X155917039Y-127003949D01*
G37*
G36*
X157780548Y-127275893D02*
G01*
X157780826Y-127326974D01*
X157781095Y-127370721D01*
X157781378Y-127407791D01*
X157781698Y-127438841D01*
X157782078Y-127464526D01*
X157782541Y-127485504D01*
X157783110Y-127502431D01*
X157783809Y-127515963D01*
X157784660Y-127526756D01*
X157785687Y-127535468D01*
X157786913Y-127542754D01*
X157788361Y-127549271D01*
X157790055Y-127555676D01*
X157790469Y-127557155D01*
X157804497Y-127596320D01*
X157822824Y-127628848D01*
X157845698Y-127654990D01*
X157873370Y-127675000D01*
X157906089Y-127689128D01*
X157926900Y-127694605D01*
X157969743Y-127700051D01*
X158010454Y-127697839D01*
X158048840Y-127688025D01*
X158084710Y-127670662D01*
X158117870Y-127645806D01*
X158126249Y-127637900D01*
X158142105Y-127621340D01*
X158153946Y-127606283D01*
X158164042Y-127589511D01*
X158172761Y-127571896D01*
X158179201Y-127558153D01*
X158184710Y-127546053D01*
X158189363Y-127534866D01*
X158193237Y-127523859D01*
X158196409Y-127512300D01*
X158198957Y-127499458D01*
X158200955Y-127484601D01*
X158202482Y-127466997D01*
X158203613Y-127445913D01*
X158204426Y-127420618D01*
X158204997Y-127390380D01*
X158205403Y-127354468D01*
X158205720Y-127312148D01*
X158206026Y-127262691D01*
X158206080Y-127253921D01*
X158207493Y-127025209D01*
X158314072Y-127025209D01*
X158316386Y-127379762D01*
X158316758Y-127432690D01*
X158317169Y-127483605D01*
X158317610Y-127531903D01*
X158318073Y-127576980D01*
X158318550Y-127618230D01*
X158319034Y-127655050D01*
X158319516Y-127686835D01*
X158319990Y-127712980D01*
X158320446Y-127732881D01*
X158320877Y-127745934D01*
X158321233Y-127751294D01*
X158323765Y-127768273D01*
X158220102Y-127768273D01*
X158217626Y-127753292D01*
X158216237Y-127740757D01*
X158215319Y-127724590D01*
X158215106Y-127713928D01*
X158214604Y-127695291D01*
X158213372Y-127674855D01*
X158212481Y-127664859D01*
X158209901Y-127640172D01*
X158198880Y-127659279D01*
X158182040Y-127684395D01*
X158161890Y-127706171D01*
X158136487Y-127726593D01*
X158125955Y-127733815D01*
X158092915Y-127753757D01*
X158061553Y-127768268D01*
X158029088Y-127778549D01*
X158014475Y-127781889D01*
X157990191Y-127785416D01*
X157961482Y-127787307D01*
X157931750Y-127787499D01*
X157904391Y-127785929D01*
X157890794Y-127784160D01*
X157845176Y-127773126D01*
X157805012Y-127756288D01*
X157770156Y-127733541D01*
X157740463Y-127704782D01*
X157715788Y-127669907D01*
X157706208Y-127652039D01*
X157699180Y-127637382D01*
X157693068Y-127623573D01*
X157687807Y-127609957D01*
X157683335Y-127595875D01*
X157679586Y-127580670D01*
X157676498Y-127563685D01*
X157674005Y-127544262D01*
X157672045Y-127521744D01*
X157670553Y-127495473D01*
X157669464Y-127464793D01*
X157668716Y-127429045D01*
X157668244Y-127387573D01*
X157667985Y-127339719D01*
X157667873Y-127284826D01*
X157667854Y-127257916D01*
X157667751Y-127025209D01*
X157779221Y-127025209D01*
X157780548Y-127275893D01*
G37*
G36*
X160126547Y-127238631D02*
G01*
X160130845Y-127227960D01*
X160155146Y-127180361D01*
X160185863Y-127137061D01*
X160222346Y-127098624D01*
X160263949Y-127065613D01*
X160310024Y-127038594D01*
X160359923Y-127018129D01*
X160378336Y-127012573D01*
X160391876Y-127009177D01*
X160404947Y-127006772D01*
X160419358Y-127005202D01*
X160436922Y-127004309D01*
X160459448Y-127003935D01*
X160478211Y-127003898D01*
X160513827Y-127004535D01*
X160543508Y-127006598D01*
X160569243Y-127010470D01*
X160593018Y-127016537D01*
X160616821Y-127025185D01*
X160638984Y-127035052D01*
X160682426Y-127059179D01*
X160719686Y-127087737D01*
X160751507Y-127121475D01*
X160778628Y-127161143D01*
X160795579Y-127193623D01*
X160807306Y-127220550D01*
X160816111Y-127245652D01*
X160822435Y-127270999D01*
X160826719Y-127298657D01*
X160829404Y-127330697D01*
X160830601Y-127357790D01*
X160832787Y-127424706D01*
X160211407Y-127424706D01*
X160213868Y-127447677D01*
X160221906Y-127492799D01*
X160236141Y-127533405D01*
X160257103Y-127570611D01*
X160285324Y-127605537D01*
X160292341Y-127612806D01*
X160308074Y-127627800D01*
X160324358Y-127641903D01*
X160339067Y-127653346D01*
X160348374Y-127659453D01*
X160390354Y-127678685D01*
X160434359Y-127690719D01*
X160479374Y-127695587D01*
X160524381Y-127693318D01*
X160568366Y-127683946D01*
X160610312Y-127667500D01*
X160639928Y-127650473D01*
X160652064Y-127641515D01*
X160666104Y-127629777D01*
X160680758Y-127616518D01*
X160694736Y-127602996D01*
X160706748Y-127590470D01*
X160715505Y-127580199D01*
X160719715Y-127573442D01*
X160719906Y-127572444D01*
X160722978Y-127568672D01*
X160724123Y-127568524D01*
X160728988Y-127570908D01*
X160738272Y-127577262D01*
X160750489Y-127586392D01*
X160764152Y-127597102D01*
X160777774Y-127608197D01*
X160789868Y-127618484D01*
X160798948Y-127626766D01*
X160803527Y-127631848D01*
X160803800Y-127632562D01*
X160800943Y-127638077D01*
X160793177Y-127647558D01*
X160781707Y-127659832D01*
X160767742Y-127673725D01*
X160752487Y-127688061D01*
X160737150Y-127701668D01*
X160722938Y-127713370D01*
X160713708Y-127720215D01*
X160672959Y-127745009D01*
X160630855Y-127763629D01*
X160586002Y-127776504D01*
X160537004Y-127784064D01*
X160498185Y-127786461D01*
X160461665Y-127786705D01*
X160432062Y-127785145D01*
X160414090Y-127782688D01*
X160358965Y-127768616D01*
X160308495Y-127748293D01*
X160261999Y-127721416D01*
X160239744Y-127705203D01*
X160210022Y-127677977D01*
X160181813Y-127644597D01*
X160156299Y-127606893D01*
X160134661Y-127566694D01*
X160118081Y-127525829D01*
X160112878Y-127508790D01*
X160102227Y-127455653D01*
X160098373Y-127400424D01*
X160101212Y-127344748D01*
X160102585Y-127336816D01*
X160212183Y-127336816D01*
X160724536Y-127336816D01*
X160722478Y-127325830D01*
X160720678Y-127315017D01*
X160718613Y-127300975D01*
X160717915Y-127295832D01*
X160712893Y-127271840D01*
X160704285Y-127244905D01*
X160693333Y-127218451D01*
X160682356Y-127197654D01*
X160665983Y-127174966D01*
X160645357Y-127152764D01*
X160622647Y-127133050D01*
X160600017Y-127117828D01*
X160591046Y-127113251D01*
X160548349Y-127098077D01*
X160504774Y-127090454D01*
X160461173Y-127090131D01*
X160418398Y-127096858D01*
X160377300Y-127110386D01*
X160338731Y-127130463D01*
X160303542Y-127156841D01*
X160272585Y-127189268D01*
X160256377Y-127211555D01*
X160243184Y-127235305D01*
X160230994Y-127263689D01*
X160221077Y-127293356D01*
X160214704Y-127320955D01*
X160214561Y-127321835D01*
X160212183Y-127336816D01*
X160102585Y-127336816D01*
X160110639Y-127290269D01*
X160126547Y-127238631D01*
G37*
G36*
X162956171Y-127003949D02*
G01*
X162975164Y-127004425D01*
X162990031Y-127005484D01*
X163002703Y-127007334D01*
X163015110Y-127010184D01*
X163029184Y-127014243D01*
X163030149Y-127014537D01*
X163071481Y-127029564D01*
X163108576Y-127047870D01*
X163139640Y-127068569D01*
X163139991Y-127068846D01*
X163152191Y-127079517D01*
X163164812Y-127092228D01*
X163176490Y-127105386D01*
X163185860Y-127117394D01*
X163191560Y-127126658D01*
X163192650Y-127130436D01*
X163189547Y-127134447D01*
X163181179Y-127142041D01*
X163168788Y-127152164D01*
X163153615Y-127163762D01*
X163152093Y-127164888D01*
X163111676Y-127194706D01*
X163105348Y-127184863D01*
X163093930Y-127169959D01*
X163078230Y-127153137D01*
X163060708Y-127136770D01*
X163043822Y-127123229D01*
X163036229Y-127118165D01*
X163006526Y-127103912D01*
X162973942Y-127094682D01*
X162939855Y-127090359D01*
X162905647Y-127090825D01*
X162872697Y-127095966D01*
X162842384Y-127105665D01*
X162816088Y-127119805D01*
X162795190Y-127138270D01*
X162794991Y-127138502D01*
X162780450Y-127160954D01*
X162772272Y-127185815D01*
X162770379Y-127211550D01*
X162774693Y-127236623D01*
X162785138Y-127259497D01*
X162801634Y-127278636D01*
X162802107Y-127279040D01*
X162814155Y-127288012D01*
X162828717Y-127296367D01*
X162846675Y-127304422D01*
X162868904Y-127312493D01*
X162896286Y-127320895D01*
X162929697Y-127329944D01*
X162970017Y-127339956D01*
X162974784Y-127341099D01*
X163029301Y-127356355D01*
X163076330Y-127374279D01*
X163115929Y-127394905D01*
X163148155Y-127418268D01*
X163173063Y-127444402D01*
X163190711Y-127473343D01*
X163190939Y-127473839D01*
X163200692Y-127503060D01*
X163205826Y-127536562D01*
X163206318Y-127572089D01*
X163202143Y-127607384D01*
X163193277Y-127640193D01*
X163192738Y-127641654D01*
X163175886Y-127675493D01*
X163152252Y-127705815D01*
X163122455Y-127732120D01*
X163087115Y-127753901D01*
X163046850Y-127770657D01*
X163026999Y-127776498D01*
X163005696Y-127780651D01*
X162978953Y-127783846D01*
X162949273Y-127785967D01*
X162919163Y-127786896D01*
X162891126Y-127786519D01*
X162867668Y-127784719D01*
X162863206Y-127784095D01*
X162819071Y-127774342D01*
X162775971Y-127759364D01*
X162735733Y-127739994D01*
X162700188Y-127717065D01*
X162680916Y-127701064D01*
X162666889Y-127687543D01*
X162653809Y-127673993D01*
X162643742Y-127662591D01*
X162640782Y-127658791D01*
X162629472Y-127643191D01*
X162715392Y-127580137D01*
X162725155Y-127593307D01*
X162742414Y-127613407D01*
X162763941Y-127633786D01*
X162786993Y-127652071D01*
X162808827Y-127665888D01*
X162809331Y-127666154D01*
X162844773Y-127681419D01*
X162881846Y-127691296D01*
X162919365Y-127695868D01*
X162956142Y-127695220D01*
X162990992Y-127689436D01*
X163022728Y-127678602D01*
X163050162Y-127662800D01*
X163067126Y-127647822D01*
X163082545Y-127629244D01*
X163092145Y-127611595D01*
X163097061Y-127591995D01*
X163098428Y-127568524D01*
X163097120Y-127547957D01*
X163092744Y-127529701D01*
X163084754Y-127513382D01*
X163072606Y-127498626D01*
X163055752Y-127485059D01*
X163033649Y-127472305D01*
X163005751Y-127459991D01*
X162971513Y-127447742D01*
X162930388Y-127435185D01*
X162886822Y-127423252D01*
X162849934Y-127413235D01*
X162819716Y-127404222D01*
X162794994Y-127395693D01*
X162774594Y-127387130D01*
X162757342Y-127378012D01*
X162742064Y-127367820D01*
X162727588Y-127356034D01*
X162720608Y-127349686D01*
X162696033Y-127321531D01*
X162678534Y-127289765D01*
X162668173Y-127254596D01*
X162665010Y-127216234D01*
X162669106Y-127174889D01*
X162669533Y-127172587D01*
X162680184Y-127137340D01*
X162697922Y-127104936D01*
X162722181Y-127075920D01*
X162752396Y-127050834D01*
X162788002Y-127030224D01*
X162828433Y-127014631D01*
X162836038Y-127012438D01*
X162850111Y-127008966D01*
X162864054Y-127006545D01*
X162879784Y-127005003D01*
X162899216Y-127004166D01*
X162924269Y-127003861D01*
X162931120Y-127003848D01*
X162956171Y-127003949D01*
G37*
G36*
X156581120Y-127021214D02*
G01*
X156788859Y-127021214D01*
X156788859Y-127109103D01*
X156581120Y-127109103D01*
X156581120Y-127349538D01*
X156581140Y-127400186D01*
X156581209Y-127443492D01*
X156581345Y-127480105D01*
X156581564Y-127510673D01*
X156581882Y-127535845D01*
X156582315Y-127556269D01*
X156582881Y-127572593D01*
X156583596Y-127585466D01*
X156584476Y-127595535D01*
X156585537Y-127603450D01*
X156586797Y-127609859D01*
X156587829Y-127613883D01*
X156598553Y-127638964D01*
X156614804Y-127658684D01*
X156636017Y-127672850D01*
X156661627Y-127681269D01*
X156691068Y-127683748D01*
X156723775Y-127680096D01*
X156756108Y-127671209D01*
X156783997Y-127661511D01*
X156786384Y-127675941D01*
X156787536Y-127686936D01*
X156788395Y-127702789D01*
X156788802Y-127720368D01*
X156788815Y-127723218D01*
X156788859Y-127756065D01*
X156767885Y-127762038D01*
X156729500Y-127770539D01*
X156689345Y-127775090D01*
X156650035Y-127775556D01*
X156614186Y-127771804D01*
X156606695Y-127770327D01*
X156571424Y-127758897D01*
X156540912Y-127741204D01*
X156515501Y-127717643D01*
X156495534Y-127688609D01*
X156481354Y-127654496D01*
X156473407Y-127616569D01*
X156472559Y-127605492D01*
X156471785Y-127587098D01*
X156471095Y-127562060D01*
X156470500Y-127531050D01*
X156470009Y-127494742D01*
X156469633Y-127453809D01*
X156469383Y-127408923D01*
X156469268Y-127360756D01*
X156469261Y-127345910D01*
X156469261Y-127109103D01*
X156317452Y-127109103D01*
X156317452Y-127021214D01*
X156469261Y-127021214D01*
X156469261Y-126809481D01*
X156581120Y-126809481D01*
X156581120Y-127021214D01*
G37*
G36*
X162261963Y-127021214D02*
G01*
X162469702Y-127021214D01*
X162469702Y-127109103D01*
X162261963Y-127109103D01*
X162261963Y-127349538D01*
X162261983Y-127400186D01*
X162262052Y-127443492D01*
X162262188Y-127480105D01*
X162262407Y-127510673D01*
X162262725Y-127535845D01*
X162263158Y-127556269D01*
X162263724Y-127572593D01*
X162264439Y-127585466D01*
X162265319Y-127595535D01*
X162266380Y-127603450D01*
X162267640Y-127609859D01*
X162268672Y-127613883D01*
X162279396Y-127638964D01*
X162295647Y-127658684D01*
X162316860Y-127672850D01*
X162342470Y-127681269D01*
X162371911Y-127683748D01*
X162404618Y-127680096D01*
X162436951Y-127671209D01*
X162464840Y-127661511D01*
X162467227Y-127675941D01*
X162468379Y-127686936D01*
X162469238Y-127702789D01*
X162469645Y-127720368D01*
X162469658Y-127723218D01*
X162469702Y-127756065D01*
X162448728Y-127762038D01*
X162410343Y-127770539D01*
X162370188Y-127775090D01*
X162330878Y-127775556D01*
X162295029Y-127771804D01*
X162287538Y-127770327D01*
X162252267Y-127758897D01*
X162221755Y-127741204D01*
X162196344Y-127717643D01*
X162176377Y-127688609D01*
X162162197Y-127654496D01*
X162154250Y-127616569D01*
X162153402Y-127605492D01*
X162152628Y-127587098D01*
X162151938Y-127562060D01*
X162151343Y-127531050D01*
X162150852Y-127494742D01*
X162150476Y-127453809D01*
X162150226Y-127408923D01*
X162150111Y-127360756D01*
X162150104Y-127345910D01*
X162150104Y-127109103D01*
X161998295Y-127109103D01*
X161998295Y-127021214D01*
X162150104Y-127021214D01*
X162150104Y-126809481D01*
X162261963Y-126809481D01*
X162261963Y-127021214D01*
G37*
G36*
X154327959Y-127768273D02*
G01*
X154212105Y-127768273D01*
X154212105Y-126821466D01*
X154327959Y-126821466D01*
X154327959Y-127768273D01*
G37*
G36*
X155075700Y-127004014D02*
G01*
X155102584Y-127006174D01*
X155125873Y-127010263D01*
X155147729Y-127016718D01*
X155170315Y-127025974D01*
X155181463Y-127031252D01*
X155215971Y-127052241D01*
X155245713Y-127079312D01*
X155268466Y-127108640D01*
X155283810Y-127133618D01*
X155295612Y-127157789D01*
X155305292Y-127184378D01*
X155311786Y-127206980D01*
X155313470Y-127213592D01*
X155314921Y-127220208D01*
X155316159Y-127227466D01*
X155317205Y-127236003D01*
X155318082Y-127246459D01*
X155318810Y-127259472D01*
X155319411Y-127275681D01*
X155319906Y-127295723D01*
X155320317Y-127320236D01*
X155320664Y-127349861D01*
X155320969Y-127385234D01*
X155321253Y-127426994D01*
X155321538Y-127475779D01*
X155321690Y-127503606D01*
X155323125Y-127768273D01*
X155215388Y-127768273D01*
X155213770Y-127523581D01*
X155213404Y-127471889D01*
X155213028Y-127427543D01*
X155212624Y-127389902D01*
X155212170Y-127358320D01*
X155211649Y-127332156D01*
X155211040Y-127310766D01*
X155210325Y-127293506D01*
X155209484Y-127279735D01*
X155208498Y-127268808D01*
X155207347Y-127260082D01*
X155206011Y-127252914D01*
X155205561Y-127250925D01*
X155192966Y-127208722D01*
X155176531Y-127173407D01*
X155155941Y-127144693D01*
X155130879Y-127122298D01*
X155101030Y-127105936D01*
X155066078Y-127095323D01*
X155027078Y-127090257D01*
X154985887Y-127091415D01*
X154947293Y-127099941D01*
X154911735Y-127115514D01*
X154879650Y-127137809D01*
X154851476Y-127166502D01*
X154827651Y-127201272D01*
X154808613Y-127241794D01*
X154803863Y-127255136D01*
X154799592Y-127268685D01*
X154795952Y-127282078D01*
X154792894Y-127296063D01*
X154790367Y-127311388D01*
X154788324Y-127328802D01*
X154786714Y-127349054D01*
X154785489Y-127372892D01*
X154784598Y-127401063D01*
X154783993Y-127434317D01*
X154783624Y-127473402D01*
X154783441Y-127519066D01*
X154783396Y-127565528D01*
X154783385Y-127768273D01*
X154675521Y-127768273D01*
X154675186Y-127439687D01*
X154675101Y-127387904D01*
X154674957Y-127337527D01*
X154674759Y-127289259D01*
X154674514Y-127243802D01*
X154674226Y-127201857D01*
X154673901Y-127164127D01*
X154673546Y-127131314D01*
X154673164Y-127104121D01*
X154672763Y-127083249D01*
X154672348Y-127069401D01*
X154672190Y-127066154D01*
X154669529Y-127021208D01*
X154720229Y-127021211D01*
X154739527Y-127021453D01*
X154755771Y-127022111D01*
X154767379Y-127023089D01*
X154772771Y-127024289D01*
X154772926Y-127024445D01*
X154773799Y-127029378D01*
X154774878Y-127040822D01*
X154776051Y-127057301D01*
X154777207Y-127077345D01*
X154777736Y-127088088D01*
X154780549Y-127148498D01*
X154795301Y-127125805D01*
X154822397Y-127091310D01*
X154855632Y-127061787D01*
X154895083Y-127037181D01*
X154940828Y-127017437D01*
X154955309Y-127012605D01*
X154968724Y-127008739D01*
X154981342Y-127006095D01*
X154995203Y-127004459D01*
X155012346Y-127003615D01*
X155034811Y-127003348D01*
X155043058Y-127003348D01*
X155075700Y-127004014D01*
G37*
G36*
X157405073Y-127002206D02*
G01*
X157423697Y-127003723D01*
X157437839Y-127006231D01*
X157445811Y-127009690D01*
X157446008Y-127009878D01*
X157446001Y-127014115D01*
X157445016Y-127024716D01*
X157443219Y-127040137D01*
X157440777Y-127058835D01*
X157440458Y-127061164D01*
X157433565Y-127111101D01*
X157421820Y-127110397D01*
X157412512Y-127109777D01*
X157397874Y-127108732D01*
X157380543Y-127107454D01*
X157374121Y-127106970D01*
X157331946Y-127107227D01*
X157293287Y-127114645D01*
X157258170Y-127129216D01*
X157226620Y-127150931D01*
X157214524Y-127162094D01*
X157188571Y-127193616D01*
X157167707Y-127231036D01*
X157152104Y-127273953D01*
X157141939Y-127321965D01*
X157140504Y-127332717D01*
X157139673Y-127343657D01*
X157138902Y-127361683D01*
X157138207Y-127385893D01*
X157137604Y-127415384D01*
X157137108Y-127449251D01*
X157136735Y-127486593D01*
X157136500Y-127526505D01*
X157136421Y-127567421D01*
X157136421Y-127768273D01*
X157028557Y-127768273D01*
X157028221Y-127439687D01*
X157028137Y-127387904D01*
X157027993Y-127337527D01*
X157027795Y-127289259D01*
X157027549Y-127243802D01*
X157027261Y-127201857D01*
X157026937Y-127164127D01*
X157026581Y-127131314D01*
X157026200Y-127104121D01*
X157025799Y-127083249D01*
X157025384Y-127069401D01*
X157025225Y-127066154D01*
X157022564Y-127021208D01*
X157073264Y-127021211D01*
X157092562Y-127021453D01*
X157108806Y-127022111D01*
X157120414Y-127023089D01*
X157125806Y-127024289D01*
X157125961Y-127024445D01*
X157126832Y-127029374D01*
X157127909Y-127040821D01*
X157129083Y-127057320D01*
X157130243Y-127077407D01*
X157130799Y-127088669D01*
X157133639Y-127149661D01*
X157145408Y-127129277D01*
X157169338Y-127095499D01*
X157199375Y-127065570D01*
X157234185Y-127040425D01*
X157272435Y-127021004D01*
X157312790Y-127008245D01*
X157319511Y-127006854D01*
X157339186Y-127004004D01*
X157361130Y-127002306D01*
X157383655Y-127001720D01*
X157405073Y-127002206D01*
G37*
G36*
X159559726Y-127003608D02*
G01*
X159593805Y-127007970D01*
X159617267Y-127013255D01*
X159658601Y-127028797D01*
X159694927Y-127050496D01*
X159726340Y-127078438D01*
X159752931Y-127112709D01*
X159774794Y-127153396D01*
X159779466Y-127164417D01*
X159783817Y-127175291D01*
X159787577Y-127185265D01*
X159790794Y-127194995D01*
X159793514Y-127205135D01*
X159795785Y-127216339D01*
X159797653Y-127229263D01*
X159799165Y-127244560D01*
X159800368Y-127262886D01*
X159801309Y-127284895D01*
X159802035Y-127311242D01*
X159802593Y-127342581D01*
X159803029Y-127379567D01*
X159803392Y-127422855D01*
X159803727Y-127473100D01*
X159803927Y-127505604D01*
X159805528Y-127768273D01*
X159697846Y-127768273D01*
X159696129Y-127529573D01*
X159695756Y-127479566D01*
X159695396Y-127436851D01*
X159695025Y-127400732D01*
X159694615Y-127370512D01*
X159694142Y-127345494D01*
X159693581Y-127324982D01*
X159692905Y-127308277D01*
X159692089Y-127294685D01*
X159691108Y-127283506D01*
X159689936Y-127274045D01*
X159688548Y-127265605D01*
X159686919Y-127257488D01*
X159686027Y-127253433D01*
X159673408Y-127209918D01*
X159656533Y-127173159D01*
X159635370Y-127143129D01*
X159609887Y-127119803D01*
X159580052Y-127103152D01*
X159545831Y-127093152D01*
X159507192Y-127089774D01*
X159487459Y-127090470D01*
X159447528Y-127096818D01*
X159411857Y-127109917D01*
X159380476Y-127129739D01*
X159353415Y-127156256D01*
X159330702Y-127189441D01*
X159312366Y-127229265D01*
X159301101Y-127265004D01*
X159299233Y-127272349D01*
X159297640Y-127279498D01*
X159296296Y-127287142D01*
X159295175Y-127295976D01*
X159294249Y-127306691D01*
X159293491Y-127319979D01*
X159292876Y-127336534D01*
X159292376Y-127357047D01*
X159291964Y-127382212D01*
X159291614Y-127412721D01*
X159291298Y-127449266D01*
X159290991Y-127492540D01*
X159290726Y-127533568D01*
X159289243Y-127768273D01*
X159181844Y-127768273D01*
X159181844Y-127538985D01*
X159181766Y-127491353D01*
X159181542Y-127446207D01*
X159181184Y-127404311D01*
X159180702Y-127366427D01*
X159180110Y-127333321D01*
X159179419Y-127305756D01*
X159178642Y-127284495D01*
X159177789Y-127270303D01*
X159177605Y-127268326D01*
X159170693Y-127224138D01*
X159159581Y-127186642D01*
X159144072Y-127155614D01*
X159123967Y-127130829D01*
X159099068Y-127112066D01*
X159069178Y-127099099D01*
X159034099Y-127091704D01*
X159020221Y-127090368D01*
X158980658Y-127091363D01*
X158943360Y-127099781D01*
X158908815Y-127115255D01*
X158877512Y-127137418D01*
X158849938Y-127165903D01*
X158826583Y-127200342D01*
X158807934Y-127240368D01*
X158803337Y-127253392D01*
X158798962Y-127267328D01*
X158795234Y-127280973D01*
X158792102Y-127295082D01*
X158789516Y-127310411D01*
X158787423Y-127327714D01*
X158785775Y-127347748D01*
X158784519Y-127371267D01*
X158783606Y-127399027D01*
X158782984Y-127431783D01*
X158782602Y-127470290D01*
X158782411Y-127515304D01*
X158782358Y-127565528D01*
X158782347Y-127768273D01*
X158674483Y-127768273D01*
X158674148Y-127439687D01*
X158674063Y-127387904D01*
X158673919Y-127337527D01*
X158673721Y-127289259D01*
X158673476Y-127243802D01*
X158673188Y-127201857D01*
X158672863Y-127164127D01*
X158672507Y-127131314D01*
X158672126Y-127104121D01*
X158671725Y-127083249D01*
X158671310Y-127069401D01*
X158671152Y-127066154D01*
X158668490Y-127021208D01*
X158719191Y-127021211D01*
X158738489Y-127021453D01*
X158754733Y-127022111D01*
X158766341Y-127023089D01*
X158771733Y-127024289D01*
X158771888Y-127024445D01*
X158772759Y-127029375D01*
X158773837Y-127040821D01*
X158775010Y-127057315D01*
X158776169Y-127077390D01*
X158776718Y-127088508D01*
X158779550Y-127149340D01*
X158789561Y-127132218D01*
X158814828Y-127096691D01*
X158845688Y-127066226D01*
X158881273Y-127041182D01*
X158920714Y-127021921D01*
X158963143Y-127008805D01*
X159007691Y-127002195D01*
X159053491Y-127002453D01*
X159089129Y-127007572D01*
X159127370Y-127019410D01*
X159162990Y-127038234D01*
X159194859Y-127063180D01*
X159221849Y-127093385D01*
X159240511Y-127123328D01*
X159247702Y-127136891D01*
X159253605Y-127147205D01*
X159257252Y-127152608D01*
X159257813Y-127153031D01*
X159260743Y-127149880D01*
X159266434Y-127141607D01*
X159273610Y-127130077D01*
X159282797Y-127116755D01*
X159295652Y-127100719D01*
X159309961Y-127084666D01*
X159315940Y-127078499D01*
X159349361Y-127050631D01*
X159387773Y-127028584D01*
X159430215Y-127012850D01*
X159455499Y-127006960D01*
X159487618Y-127002988D01*
X159523345Y-127001909D01*
X159559726Y-127003608D01*
G37*
G36*
X161535561Y-127004014D02*
G01*
X161562445Y-127006174D01*
X161585735Y-127010263D01*
X161607591Y-127016718D01*
X161630176Y-127025974D01*
X161641324Y-127031252D01*
X161675832Y-127052241D01*
X161705574Y-127079312D01*
X161728327Y-127108640D01*
X161743671Y-127133618D01*
X161755473Y-127157789D01*
X161765154Y-127184378D01*
X161771648Y-127206980D01*
X161773332Y-127213592D01*
X161774782Y-127220208D01*
X161776020Y-127227466D01*
X161777067Y-127236003D01*
X161777944Y-127246459D01*
X161778672Y-127259472D01*
X161779273Y-127275681D01*
X161779768Y-127295723D01*
X161780178Y-127320236D01*
X161780525Y-127349861D01*
X161780830Y-127385234D01*
X161781114Y-127426994D01*
X161781399Y-127475779D01*
X161781552Y-127503606D01*
X161782987Y-127768273D01*
X161675250Y-127768273D01*
X161673632Y-127523581D01*
X161673266Y-127471889D01*
X161672890Y-127427543D01*
X161672485Y-127389902D01*
X161672032Y-127358320D01*
X161671510Y-127332156D01*
X161670902Y-127310766D01*
X161670187Y-127293506D01*
X161669346Y-127279735D01*
X161668359Y-127268808D01*
X161667208Y-127260082D01*
X161665873Y-127252914D01*
X161665423Y-127250925D01*
X161652827Y-127208722D01*
X161636393Y-127173407D01*
X161615802Y-127144693D01*
X161590741Y-127122298D01*
X161560892Y-127105936D01*
X161525940Y-127095323D01*
X161486940Y-127090257D01*
X161445748Y-127091415D01*
X161407155Y-127099941D01*
X161371596Y-127115514D01*
X161339512Y-127137809D01*
X161311338Y-127166502D01*
X161287513Y-127201272D01*
X161268474Y-127241794D01*
X161263724Y-127255136D01*
X161259453Y-127268685D01*
X161255813Y-127282078D01*
X161252755Y-127296063D01*
X161250229Y-127311388D01*
X161248186Y-127328802D01*
X161246576Y-127349054D01*
X161245350Y-127372892D01*
X161244460Y-127401063D01*
X161243854Y-127434317D01*
X161243485Y-127473402D01*
X161243303Y-127519066D01*
X161243258Y-127565528D01*
X161243247Y-127768273D01*
X161135383Y-127768273D01*
X161135047Y-127439687D01*
X161134963Y-127387904D01*
X161134819Y-127337527D01*
X161134621Y-127289259D01*
X161134375Y-127243802D01*
X161134087Y-127201857D01*
X161133763Y-127164127D01*
X161133407Y-127131314D01*
X161133026Y-127104121D01*
X161132625Y-127083249D01*
X161132210Y-127069401D01*
X161132051Y-127066154D01*
X161129390Y-127021208D01*
X161180090Y-127021211D01*
X161199388Y-127021453D01*
X161215632Y-127022111D01*
X161227240Y-127023089D01*
X161232632Y-127024289D01*
X161232787Y-127024445D01*
X161233661Y-127029378D01*
X161234740Y-127040822D01*
X161235913Y-127057301D01*
X161237068Y-127077345D01*
X161237598Y-127088088D01*
X161240411Y-127148498D01*
X161255163Y-127125805D01*
X161282258Y-127091310D01*
X161315493Y-127061787D01*
X161354945Y-127037181D01*
X161400690Y-127017437D01*
X161415171Y-127012605D01*
X161428586Y-127008739D01*
X161441204Y-127006095D01*
X161455065Y-127004459D01*
X161472208Y-127003615D01*
X161494672Y-127003348D01*
X161502920Y-127003348D01*
X161535561Y-127004014D01*
G37*
G36*
X155804161Y-126089845D02*
G01*
X155804357Y-126048713D01*
X155804704Y-126014294D01*
X155805216Y-125985947D01*
X155805911Y-125963035D01*
X155806804Y-125944918D01*
X155807910Y-125930958D01*
X155809247Y-125920517D01*
X155809578Y-125918603D01*
X155822273Y-125865745D01*
X155839947Y-125819020D01*
X155862704Y-125778233D01*
X155890647Y-125743189D01*
X155912706Y-125722503D01*
X155933501Y-125707740D01*
X155959673Y-125693058D01*
X155988692Y-125679698D01*
X156018032Y-125668904D01*
X156027817Y-125665986D01*
X156033687Y-125664390D01*
X156039417Y-125662996D01*
X156045568Y-125661787D01*
X156052701Y-125660747D01*
X156061377Y-125659862D01*
X156072157Y-125659114D01*
X156085602Y-125658489D01*
X156102273Y-125657970D01*
X156122731Y-125657541D01*
X156147537Y-125657187D01*
X156177252Y-125656892D01*
X156212437Y-125656639D01*
X156253653Y-125656414D01*
X156301460Y-125656200D01*
X156356421Y-125655982D01*
X156386253Y-125655868D01*
X156446371Y-125655648D01*
X156499051Y-125655485D01*
X156544844Y-125655400D01*
X156584304Y-125655411D01*
X156617981Y-125655538D01*
X156646428Y-125655799D01*
X156670196Y-125656214D01*
X156689838Y-125656802D01*
X156705904Y-125657582D01*
X156718948Y-125658573D01*
X156729521Y-125659794D01*
X156738175Y-125661265D01*
X156745462Y-125663004D01*
X156751933Y-125665031D01*
X156758141Y-125667365D01*
X156761892Y-125668889D01*
X156764465Y-125669433D01*
X156766318Y-125667906D01*
X156767568Y-125663243D01*
X156768331Y-125654377D01*
X156768726Y-125640244D01*
X156768870Y-125619778D01*
X156768884Y-125605297D01*
X156768622Y-125575860D01*
X156767652Y-125553271D01*
X156765699Y-125536399D01*
X156762485Y-125524115D01*
X156757735Y-125515287D01*
X156751172Y-125508786D01*
X156744230Y-125504391D01*
X156742271Y-125503462D01*
X156739714Y-125502616D01*
X156736197Y-125501849D01*
X156731356Y-125501156D01*
X156724830Y-125500535D01*
X156716257Y-125499981D01*
X156705274Y-125499491D01*
X156691520Y-125499060D01*
X156674632Y-125498685D01*
X156654247Y-125498362D01*
X156630004Y-125498087D01*
X156601541Y-125497856D01*
X156568495Y-125497665D01*
X156530504Y-125497511D01*
X156487206Y-125497390D01*
X156438238Y-125497298D01*
X156383240Y-125497230D01*
X156321847Y-125497184D01*
X156253698Y-125497155D01*
X156178432Y-125497140D01*
X156095685Y-125497134D01*
X156059777Y-125497134D01*
X155986936Y-125497153D01*
X155916126Y-125497207D01*
X155847773Y-125497295D01*
X155782301Y-125497415D01*
X155720135Y-125497565D01*
X155661700Y-125497743D01*
X155607421Y-125497947D01*
X155557723Y-125498175D01*
X155513031Y-125498426D01*
X155473770Y-125498696D01*
X155440364Y-125498984D01*
X155413239Y-125499289D01*
X155392819Y-125499608D01*
X155379530Y-125499940D01*
X155373796Y-125500282D01*
X155373757Y-125500290D01*
X155357145Y-125507376D01*
X155342005Y-125520054D01*
X155330766Y-125535983D01*
X155327174Y-125545120D01*
X155326467Y-125550567D01*
X155325827Y-125561702D01*
X155325252Y-125578723D01*
X155324740Y-125601826D01*
X155324291Y-125631209D01*
X155323901Y-125667069D01*
X155323571Y-125709602D01*
X155323297Y-125759005D01*
X155323079Y-125815477D01*
X155322915Y-125879213D01*
X155322803Y-125950411D01*
X155322742Y-126029267D01*
X155322728Y-126087390D01*
X155322706Y-126613727D01*
X154204115Y-126613727D01*
X154204115Y-124875917D01*
X153548940Y-124875917D01*
X153548940Y-124412501D01*
X155310721Y-124412501D01*
X155310721Y-124875917D01*
X154667531Y-124875917D01*
X154667531Y-126214231D01*
X154850913Y-126214231D01*
X154852307Y-125771788D01*
X154852532Y-125700432D01*
X154852745Y-125636585D01*
X154852970Y-125579765D01*
X154853230Y-125529490D01*
X154853546Y-125485279D01*
X154853943Y-125446650D01*
X154854442Y-125413123D01*
X154855067Y-125384215D01*
X154855839Y-125359446D01*
X154856782Y-125338333D01*
X154857918Y-125320395D01*
X154859271Y-125305151D01*
X154860862Y-125292120D01*
X154862715Y-125280819D01*
X154864852Y-125270767D01*
X154867295Y-125261484D01*
X154870068Y-125252487D01*
X154873194Y-125243295D01*
X154876694Y-125233426D01*
X154877841Y-125230207D01*
X154897695Y-125185069D01*
X154923115Y-125145640D01*
X154954022Y-125111997D01*
X154990339Y-125084215D01*
X155031990Y-125062369D01*
X155059038Y-125052294D01*
X155066035Y-125050001D01*
X155072477Y-125047882D01*
X155078687Y-125045931D01*
X155084990Y-125044140D01*
X155091710Y-125042504D01*
X155099170Y-125041014D01*
X155107695Y-125039664D01*
X155117608Y-125038447D01*
X155129233Y-125037357D01*
X155142894Y-125036386D01*
X155158915Y-125035528D01*
X155177620Y-125034775D01*
X155199333Y-125034121D01*
X155224378Y-125033560D01*
X155253079Y-125033083D01*
X155285759Y-125032685D01*
X155322742Y-125032358D01*
X155364353Y-125032096D01*
X155410916Y-125031891D01*
X155462754Y-125031737D01*
X155520190Y-125031627D01*
X155583550Y-125031555D01*
X155653157Y-125031512D01*
X155729335Y-125031493D01*
X155812408Y-125031490D01*
X155902700Y-125031497D01*
X156000534Y-125031507D01*
X156039839Y-125031510D01*
X156140044Y-125031521D01*
X156232574Y-125031543D01*
X156317745Y-125031577D01*
X156395871Y-125031626D01*
X156467268Y-125031691D01*
X156532251Y-125031776D01*
X156591136Y-125031881D01*
X156644236Y-125032010D01*
X156691868Y-125032164D01*
X156734347Y-125032346D01*
X156771988Y-125032557D01*
X156805106Y-125032800D01*
X156834016Y-125033077D01*
X156859033Y-125033390D01*
X156880474Y-125033741D01*
X156898652Y-125034132D01*
X156913882Y-125034566D01*
X156926482Y-125035045D01*
X156936764Y-125035570D01*
X156945045Y-125036144D01*
X156951640Y-125036769D01*
X156956863Y-125037447D01*
X156958681Y-125037740D01*
X157012009Y-125050052D01*
X157059451Y-125067689D01*
X157101078Y-125090732D01*
X157136962Y-125119261D01*
X157167173Y-125153355D01*
X157191783Y-125193096D01*
X157210863Y-125238561D01*
X157224485Y-125289833D01*
X157232520Y-125344874D01*
X157233048Y-125354469D01*
X157233516Y-125371223D01*
X157233925Y-125394527D01*
X157234277Y-125423770D01*
X157234573Y-125458343D01*
X157234815Y-125497635D01*
X157235004Y-125541038D01*
X157235140Y-125587941D01*
X157235227Y-125637734D01*
X157235264Y-125689807D01*
X157235253Y-125743551D01*
X157235195Y-125798355D01*
X157235093Y-125853610D01*
X157234947Y-125908706D01*
X157234758Y-125963033D01*
X157234528Y-126015981D01*
X157234258Y-126066940D01*
X157233950Y-126115300D01*
X157233605Y-126160452D01*
X157233223Y-126201786D01*
X157232808Y-126238692D01*
X157232359Y-126270559D01*
X157231878Y-126296778D01*
X157231367Y-126316740D01*
X157230827Y-126329833D01*
X157230352Y-126335078D01*
X157227431Y-126350059D01*
X157311804Y-126350059D01*
X157313170Y-125843697D01*
X157313377Y-125769235D01*
X157313579Y-125702322D01*
X157313782Y-125642519D01*
X157313995Y-125589385D01*
X157314224Y-125542481D01*
X157314475Y-125501365D01*
X157314757Y-125465598D01*
X157315075Y-125434740D01*
X157315438Y-125408351D01*
X157315851Y-125385990D01*
X157316322Y-125367217D01*
X157316859Y-125351592D01*
X157317467Y-125338675D01*
X157318154Y-125328025D01*
X157318927Y-125319203D01*
X157319793Y-125311768D01*
X157320759Y-125305281D01*
X157321815Y-125299383D01*
X157335147Y-125246287D01*
X157353666Y-125199255D01*
X157377466Y-125158192D01*
X157406644Y-125123005D01*
X157441296Y-125093597D01*
X157481516Y-125069876D01*
X157527401Y-125051747D01*
X157579046Y-125039115D01*
X157586803Y-125037770D01*
X157593822Y-125036724D01*
X157601781Y-125035802D01*
X157611169Y-125034998D01*
X157622475Y-125034306D01*
X157636186Y-125033722D01*
X157652792Y-125033238D01*
X157672781Y-125032852D01*
X157696642Y-125032555D01*
X157724862Y-125032344D01*
X157757931Y-125032212D01*
X157796337Y-125032155D01*
X157840569Y-125032166D01*
X157891115Y-125032241D01*
X157948463Y-125032373D01*
X158013102Y-125032557D01*
X158043278Y-125032652D01*
X158460752Y-125033979D01*
X158494709Y-125042974D01*
X158543869Y-125059415D01*
X158587216Y-125081196D01*
X158624819Y-125108404D01*
X158656747Y-125141126D01*
X158683067Y-125179449D01*
X158703850Y-125223458D01*
X158719164Y-125273241D01*
X158729077Y-125328883D01*
X158730285Y-125339457D01*
X158730924Y-125349624D01*
X158731522Y-125367319D01*
X158732074Y-125392080D01*
X158732577Y-125423446D01*
X158733025Y-125460954D01*
X158733415Y-125504142D01*
X158733743Y-125552550D01*
X158734003Y-125605714D01*
X158734192Y-125663174D01*
X158734305Y-125724467D01*
X158734338Y-125773831D01*
X158734407Y-126170376D01*
X159241658Y-126169332D01*
X159748908Y-126168288D01*
X159758007Y-126159199D01*
X159761301Y-126155519D01*
X159763719Y-126151207D01*
X159765426Y-126145009D01*
X159766587Y-126135671D01*
X159767365Y-126121937D01*
X159767926Y-126102554D01*
X159768363Y-126080249D01*
X159769620Y-126010389D01*
X159757684Y-125998453D01*
X159745749Y-125986517D01*
X159432835Y-125986483D01*
X159382277Y-125986428D01*
X159333113Y-125986277D01*
X159286067Y-125986041D01*
X159241861Y-125985725D01*
X159201219Y-125985338D01*
X159164864Y-125984889D01*
X159133518Y-125984385D01*
X159107906Y-125983834D01*
X159088750Y-125983244D01*
X159076773Y-125982624D01*
X159075847Y-125982547D01*
X159024501Y-125975603D01*
X158979661Y-125964240D01*
X158940971Y-125948132D01*
X158908074Y-125926951D01*
X158880612Y-125900370D01*
X158858228Y-125868061D01*
X158840566Y-125829697D01*
X158827268Y-125784951D01*
X158820104Y-125748019D01*
X158818650Y-125737687D01*
X158817454Y-125726222D01*
X158816501Y-125712858D01*
X158815774Y-125696827D01*
X158815261Y-125677362D01*
X158814944Y-125653695D01*
X158814809Y-125625060D01*
X158814841Y-125590690D01*
X158815026Y-125549817D01*
X158815323Y-125504910D01*
X158815709Y-125455486D01*
X158816151Y-125413263D01*
X158816744Y-125377451D01*
X158817582Y-125347261D01*
X158818759Y-125321904D01*
X158820371Y-125300590D01*
X158822511Y-125282531D01*
X158825275Y-125266936D01*
X158828756Y-125253017D01*
X158833050Y-125239985D01*
X158838251Y-125227049D01*
X158844453Y-125213422D01*
X158851751Y-125198313D01*
X158852143Y-125197512D01*
X158875797Y-125157111D01*
X158904549Y-125122466D01*
X158938705Y-125093339D01*
X158978568Y-125069492D01*
X159024443Y-125050688D01*
X159050435Y-125042914D01*
X159083967Y-125033979D01*
X159711177Y-125031851D01*
X159785710Y-125031611D01*
X159860740Y-125031394D01*
X159935613Y-125031200D01*
X160009674Y-125031031D01*
X160082270Y-125030887D01*
X160152747Y-125030769D01*
X160220449Y-125030678D01*
X160284723Y-125030615D01*
X160344915Y-125030579D01*
X160400370Y-125030573D01*
X160450434Y-125030597D01*
X160494453Y-125030651D01*
X160531773Y-125030737D01*
X160561021Y-125030851D01*
X160783655Y-125031978D01*
X160784739Y-125560184D01*
X160785823Y-126088389D01*
X160795095Y-126107215D01*
X160805940Y-126123546D01*
X160819065Y-126135179D01*
X160822626Y-126137321D01*
X160826291Y-126139104D01*
X160830795Y-126140565D01*
X160836873Y-126141743D01*
X160845259Y-126142677D01*
X160856688Y-126143404D01*
X160871894Y-126143962D01*
X160891612Y-126144389D01*
X160916577Y-126144724D01*
X160947523Y-126145005D01*
X160985186Y-126145269D01*
X161017531Y-126145475D01*
X161061411Y-126145724D01*
X161098033Y-126145856D01*
X161128130Y-126145853D01*
X161152434Y-126145694D01*
X161171677Y-126145361D01*
X161186591Y-126144834D01*
X161197908Y-126144095D01*
X161206360Y-126143123D01*
X161212679Y-126141900D01*
X161217598Y-126140407D01*
X161218165Y-126140195D01*
X161237648Y-126128669D01*
X161252121Y-126111521D01*
X161259051Y-126095256D01*
X161259745Y-126088652D01*
X161260376Y-126074073D01*
X161260943Y-126051534D01*
X161261448Y-126021052D01*
X161261888Y-125982642D01*
X161262266Y-125936318D01*
X161262579Y-125882096D01*
X161262829Y-125819991D01*
X161263015Y-125750019D01*
X161263137Y-125672195D01*
X161263194Y-125586534D01*
X161263199Y-125556060D01*
X161263222Y-125031720D01*
X161722643Y-125031720D01*
X161722643Y-126170286D01*
X162733243Y-126170286D01*
X162759337Y-126146972D01*
X162759337Y-126076843D01*
X162759293Y-126051547D01*
X162759066Y-126032990D01*
X162758512Y-126019922D01*
X162757488Y-126011093D01*
X162755849Y-126005252D01*
X162753453Y-126001148D01*
X162750241Y-125997615D01*
X162741144Y-125988515D01*
X162394688Y-125986092D01*
X162332377Y-125985653D01*
X162277495Y-125985242D01*
X162229481Y-125984830D01*
X162187775Y-125984389D01*
X162151815Y-125983889D01*
X162121040Y-125983302D01*
X162094890Y-125982598D01*
X162072804Y-125981750D01*
X162054221Y-125980727D01*
X162038581Y-125979501D01*
X162025322Y-125978044D01*
X162013884Y-125976325D01*
X162003706Y-125974317D01*
X161994227Y-125971991D01*
X161984886Y-125969317D01*
X161975122Y-125966266D01*
X161968476Y-125964130D01*
X161931705Y-125948435D01*
X161898939Y-125926680D01*
X161871200Y-125899716D01*
X161849511Y-125868394D01*
X161846414Y-125862529D01*
X161836577Y-125842116D01*
X161829085Y-125823886D01*
X161822979Y-125805027D01*
X161817298Y-125782727D01*
X161813753Y-125766794D01*
X161811758Y-125756905D01*
X161810092Y-125746852D01*
X161808714Y-125735776D01*
X161807583Y-125722819D01*
X161806660Y-125707123D01*
X161805903Y-125687828D01*
X161805273Y-125664076D01*
X161804730Y-125635008D01*
X161804233Y-125599765D01*
X161803741Y-125557489D01*
X161803684Y-125552181D01*
X161803229Y-125501691D01*
X161803066Y-125458343D01*
X161803237Y-125421294D01*
X161803787Y-125389701D01*
X161804761Y-125362721D01*
X161806201Y-125339509D01*
X161808153Y-125319222D01*
X161810659Y-125301017D01*
X161813765Y-125284051D01*
X161817513Y-125267480D01*
X161818801Y-125262334D01*
X161834719Y-125214029D01*
X161856365Y-125171288D01*
X161883704Y-125134144D01*
X161916700Y-125102629D01*
X161955315Y-125076775D01*
X161999513Y-125056616D01*
X162049258Y-125042184D01*
X162069910Y-125038156D01*
X162075352Y-125037330D01*
X162081817Y-125036577D01*
X162089671Y-125035893D01*
X162099283Y-125035275D01*
X162111019Y-125034721D01*
X162125249Y-125034226D01*
X162142338Y-125033788D01*
X162162656Y-125033403D01*
X162186568Y-125033067D01*
X162214444Y-125032778D01*
X162246649Y-125032532D01*
X162283553Y-125032326D01*
X162325523Y-125032157D01*
X162372925Y-125032021D01*
X162426128Y-125031915D01*
X162485500Y-125031836D01*
X162551407Y-125031780D01*
X162624217Y-125031744D01*
X162704299Y-125031726D01*
X162788005Y-125031720D01*
X163468443Y-125031720D01*
X163468443Y-125471167D01*
X162878077Y-125471167D01*
X162796748Y-125471157D01*
X162723031Y-125471137D01*
X162656548Y-125471124D01*
X162596920Y-125471134D01*
X162543770Y-125471184D01*
X162496718Y-125471289D01*
X162455388Y-125471465D01*
X162419402Y-125471729D01*
X162388380Y-125472098D01*
X162361945Y-125472586D01*
X162339718Y-125473212D01*
X162321322Y-125473990D01*
X162306379Y-125474936D01*
X162294510Y-125476069D01*
X162285337Y-125477402D01*
X162278483Y-125478953D01*
X162273568Y-125480738D01*
X162270216Y-125482773D01*
X162268047Y-125485075D01*
X162266683Y-125487658D01*
X162265748Y-125490541D01*
X162264861Y-125493738D01*
X162263646Y-125497267D01*
X162263539Y-125497528D01*
X162261203Y-125507483D01*
X162259475Y-125523399D01*
X162258373Y-125543268D01*
X162257915Y-125565083D01*
X162258117Y-125586836D01*
X162258996Y-125606521D01*
X162260571Y-125622129D01*
X162262396Y-125630491D01*
X162263845Y-125634827D01*
X162265311Y-125638619D01*
X162267309Y-125641902D01*
X162270353Y-125644714D01*
X162274959Y-125647090D01*
X162281639Y-125649067D01*
X162290910Y-125650682D01*
X162303284Y-125651972D01*
X162319278Y-125652973D01*
X162339404Y-125653721D01*
X162364178Y-125654254D01*
X162394113Y-125654608D01*
X162429725Y-125654820D01*
X162471527Y-125654926D01*
X162520035Y-125654963D01*
X162575763Y-125654967D01*
X162606331Y-125654968D01*
X162663683Y-125655027D01*
X162717589Y-125655187D01*
X162767519Y-125655443D01*
X162812943Y-125655787D01*
X162853332Y-125656215D01*
X162888155Y-125656720D01*
X162916883Y-125657295D01*
X162938986Y-125657935D01*
X162953934Y-125658633D01*
X162959085Y-125659059D01*
X163011937Y-125668136D01*
X163059081Y-125682802D01*
X163100534Y-125703075D01*
X163136316Y-125728970D01*
X163166444Y-125760506D01*
X163190936Y-125797699D01*
X163209810Y-125840565D01*
X163223084Y-125889123D01*
X163226902Y-125910613D01*
X163228625Y-125926614D01*
X163230070Y-125949453D01*
X163231239Y-125977984D01*
X163232134Y-126011058D01*
X163232754Y-126047530D01*
X163233102Y-126086253D01*
X163233179Y-126126079D01*
X163232984Y-126165862D01*
X163232521Y-126204455D01*
X163231789Y-126240711D01*
X163230790Y-126273482D01*
X163229524Y-126301623D01*
X163227994Y-126323985D01*
X163226491Y-126337562D01*
X163215571Y-126391746D01*
X163199608Y-126439778D01*
X163178492Y-126481790D01*
X163152111Y-126517915D01*
X163120355Y-126548285D01*
X163083114Y-126573035D01*
X163040276Y-126592296D01*
X163005686Y-126602897D01*
X162971070Y-126611730D01*
X161794552Y-126611730D01*
X161679468Y-126611728D01*
X161572098Y-126611722D01*
X161472166Y-126611710D01*
X161379394Y-126611690D01*
X161293509Y-126611660D01*
X161214232Y-126611620D01*
X161141288Y-126611567D01*
X161074401Y-126611499D01*
X161013294Y-126611416D01*
X160957691Y-126611315D01*
X160907317Y-126611195D01*
X160861895Y-126611055D01*
X160821149Y-126610892D01*
X160784802Y-126610705D01*
X160752579Y-126610492D01*
X160724203Y-126610252D01*
X160699398Y-126609983D01*
X160677888Y-126609683D01*
X160659397Y-126609351D01*
X160643649Y-126608986D01*
X160630367Y-126608585D01*
X160619275Y-126608146D01*
X160610097Y-126607670D01*
X160602557Y-126607152D01*
X160596379Y-126606593D01*
X160591287Y-126605990D01*
X160587003Y-126605342D01*
X160583253Y-126604648D01*
X160582920Y-126604580D01*
X160537959Y-126593590D01*
X160499245Y-126579907D01*
X160465272Y-126562782D01*
X160434539Y-126541468D01*
X160407778Y-126517463D01*
X160390765Y-126499527D01*
X160377847Y-126483062D01*
X160366680Y-126464813D01*
X160358800Y-126449548D01*
X160349570Y-126429320D01*
X160340670Y-126407292D01*
X160333537Y-126387106D01*
X160331404Y-126380022D01*
X160322504Y-126348062D01*
X160321339Y-125909614D01*
X160320174Y-125471167D01*
X159294148Y-125471167D01*
X159282939Y-125480799D01*
X159271730Y-125490432D01*
X159270474Y-125560748D01*
X159269217Y-125631064D01*
X159293088Y-125654935D01*
X159611994Y-125654968D01*
X159677688Y-125654997D01*
X159735948Y-125655098D01*
X159787331Y-125655317D01*
X159832393Y-125655699D01*
X159871691Y-125656287D01*
X159905781Y-125657127D01*
X159935219Y-125658263D01*
X159960562Y-125659741D01*
X159982367Y-125661605D01*
X160001189Y-125663899D01*
X160017585Y-125666669D01*
X160032111Y-125669959D01*
X160045324Y-125673814D01*
X160057780Y-125678278D01*
X160070036Y-125683396D01*
X160082647Y-125689214D01*
X160091567Y-125693522D01*
X160128808Y-125715463D01*
X160160410Y-125742346D01*
X160186629Y-125774534D01*
X160207721Y-125812387D01*
X160223945Y-125856266D01*
X160232902Y-125892516D01*
X160234717Y-125901787D01*
X160236230Y-125910752D01*
X160237462Y-125920189D01*
X160238432Y-125930874D01*
X160239161Y-125943583D01*
X160239670Y-125959092D01*
X160239979Y-125978178D01*
X160240109Y-126001618D01*
X160240079Y-126030187D01*
X160239911Y-126064662D01*
X160239624Y-126105819D01*
X160239371Y-126138207D01*
X160238974Y-126185951D01*
X160238567Y-126226497D01*
X160238087Y-126260633D01*
X160237472Y-126289152D01*
X160236657Y-126312843D01*
X160235581Y-126332497D01*
X160234179Y-126348904D01*
X160232389Y-126362856D01*
X160230147Y-126375142D01*
X160227391Y-126386553D01*
X160224057Y-126397880D01*
X160220083Y-126409914D01*
X160216952Y-126418987D01*
X160198243Y-126462383D01*
X160174127Y-126501006D01*
X160145163Y-126534190D01*
X160111908Y-126561270D01*
X160084571Y-126577131D01*
X160056000Y-126589767D01*
X160027731Y-126599106D01*
X159996604Y-126606081D01*
X159974845Y-126609577D01*
X159967254Y-126610078D01*
X159951799Y-126610550D01*
X159928607Y-126610990D01*
X159897802Y-126611398D01*
X159859512Y-126611775D01*
X159813861Y-126612119D01*
X159760977Y-126612430D01*
X159700984Y-126612707D01*
X159634009Y-126612950D01*
X159560179Y-126613157D01*
X159479618Y-126613329D01*
X159392453Y-126613465D01*
X159298810Y-126613564D01*
X159198815Y-126613626D01*
X159108936Y-126613648D01*
X158270991Y-126613727D01*
X158270991Y-126087854D01*
X158270972Y-126006508D01*
X158270911Y-125932866D01*
X158270808Y-125866641D01*
X158270659Y-125807547D01*
X158270461Y-125755297D01*
X158270213Y-125709606D01*
X158269912Y-125670187D01*
X158269555Y-125636754D01*
X158269140Y-125609020D01*
X158268664Y-125586699D01*
X158268126Y-125569505D01*
X158267522Y-125557152D01*
X158266849Y-125549353D01*
X158266306Y-125546344D01*
X158257436Y-125529396D01*
X158242773Y-125514902D01*
X158224499Y-125504861D01*
X158219120Y-125503144D01*
X158210229Y-125501947D01*
X158193396Y-125501008D01*
X158168613Y-125500328D01*
X158135872Y-125499905D01*
X158095166Y-125499739D01*
X158046486Y-125499831D01*
X158018320Y-125499979D01*
X157975025Y-125500260D01*
X157938981Y-125500540D01*
X157909449Y-125500853D01*
X157885689Y-125501235D01*
X157866963Y-125501720D01*
X157852532Y-125502343D01*
X157841657Y-125503139D01*
X157833598Y-125504143D01*
X157827617Y-125505390D01*
X157822975Y-125506914D01*
X157818933Y-125508751D01*
X157817563Y-125509453D01*
X157801457Y-125521960D01*
X157791595Y-125535421D01*
X157781608Y-125553064D01*
X157779468Y-126613870D01*
X156923617Y-126612611D01*
X156825318Y-126612472D01*
X156734678Y-126612350D01*
X156651368Y-126612236D01*
X156575057Y-126612121D01*
X156505415Y-126611998D01*
X156442112Y-126611858D01*
X156384819Y-126611692D01*
X156333204Y-126611491D01*
X156286938Y-126611248D01*
X156245690Y-126610954D01*
X156209130Y-126610599D01*
X156176928Y-126610176D01*
X156148755Y-126609677D01*
X156124279Y-126609092D01*
X156103171Y-126608413D01*
X156085100Y-126607632D01*
X156069736Y-126606740D01*
X156056750Y-126605728D01*
X156045810Y-126604588D01*
X156036588Y-126603312D01*
X156028752Y-126601891D01*
X156021972Y-126600317D01*
X156015919Y-126598581D01*
X156010261Y-126596674D01*
X156004670Y-126594588D01*
X155998815Y-126592314D01*
X155992365Y-126589844D01*
X155988732Y-126588504D01*
X155946806Y-126569304D01*
X155910075Y-126544049D01*
X155878573Y-126512777D01*
X155852330Y-126475529D01*
X155831378Y-126432344D01*
X155815749Y-126383264D01*
X155811388Y-126363944D01*
X155809667Y-126354752D01*
X155808237Y-126345078D01*
X155807070Y-126334117D01*
X155806140Y-126321064D01*
X155805423Y-126305114D01*
X155804891Y-126285461D01*
X155804519Y-126261301D01*
X155804281Y-126231827D01*
X155804151Y-126196234D01*
X155804102Y-126153718D01*
X155804099Y-126139536D01*
X156326114Y-126139536D01*
X156326176Y-126164398D01*
X156326359Y-126184756D01*
X156326656Y-126199597D01*
X156327059Y-126207908D01*
X156327269Y-126209233D01*
X156329201Y-126210374D01*
X156334406Y-126211323D01*
X156343425Y-126212090D01*
X156356797Y-126212684D01*
X156375063Y-126213116D01*
X156398764Y-126213396D01*
X156428439Y-126213534D01*
X156464630Y-126213539D01*
X156507877Y-126213422D01*
X156544055Y-126213267D01*
X156758896Y-126212233D01*
X156758896Y-125956555D01*
X156327440Y-125956555D01*
X156326382Y-126080360D01*
X156326181Y-126111186D01*
X156326114Y-126139536D01*
X155804099Y-126139536D01*
X155804099Y-126138326D01*
X155804161Y-126089845D01*
G37*
G36*
X152753942Y-126601742D02*
G01*
X151471557Y-126601742D01*
X151471557Y-126154306D01*
X152753942Y-126154306D01*
X152753942Y-126601742D01*
G37*
G36*
X153369167Y-126601742D02*
G01*
X152941705Y-126601742D01*
X152941705Y-126154306D01*
X153369167Y-126154306D01*
X153369167Y-126601742D01*
G37*
G36*
X154008361Y-126601742D02*
G01*
X153548991Y-126601742D01*
X153547967Y-126303119D01*
X153546943Y-126004495D01*
X152162687Y-126002475D01*
X152162687Y-125539081D01*
X153548940Y-125539081D01*
X153548940Y-125095640D01*
X154008361Y-125095640D01*
X154008361Y-126601742D01*
G37*
%TO.C,U3*%
X165965000Y-136125000D02*
X165965000Y-137235000D01*
X165965000Y-145075000D02*
X165965000Y-143965000D01*
X161815000Y-145075000D02*
X161815000Y-143965000D01*
X161815000Y-137235000D02*
X161815000Y-136125000D01*
X161815000Y-136125000D02*
X165965000Y-136125000D01*
X161815000Y-137235000D02*
X160690000Y-137235000D01*
X161815000Y-145075000D02*
X165965000Y-145075000D01*
D11*
%TO.C,D3*%
X135045000Y-142107500D02*
X135045000Y-143782500D01*
X138165000Y-142107500D02*
X138165000Y-142757500D01*
X138165000Y-142107500D02*
X138165000Y-141457500D01*
X135045000Y-142107500D02*
X135045000Y-141457500D01*
%TO.C,D1*%
X160050000Y-133320000D02*
X160050000Y-134995000D01*
X163170000Y-133320000D02*
X163170000Y-133970000D01*
X163170000Y-133320000D02*
X163170000Y-132670000D01*
X160050000Y-133320000D02*
X160050000Y-132670000D01*
%TO.C,U6*%
X176350000Y-142980000D02*
X174400000Y-142980000D01*
X176350000Y-137860000D02*
X172900000Y-137860000D01*
X176350000Y-142980000D02*
X178300000Y-142980000D01*
X176350000Y-137860000D02*
X178300000Y-137860000D01*
%TO.C,U5*%
X135310000Y-146590000D02*
X137710000Y-146590000D01*
X137710000Y-146590000D02*
X137710000Y-149690000D01*
X137710000Y-149690000D02*
X135310000Y-149690000D01*
X135310000Y-149690000D02*
X135310000Y-146590000D01*
%TO.C,U4*%
X144925000Y-144347500D02*
X141825000Y-144347500D01*
X141825000Y-144347500D02*
X141825000Y-146747500D01*
X141825000Y-146747500D02*
X144925000Y-146747500D01*
X144925000Y-146747500D02*
X144925000Y-144347500D01*
D10*
%TO.C,U2*%
X142425000Y-141887500D02*
X142425000Y-140777500D01*
X142425000Y-132937500D02*
X142425000Y-134047500D01*
X146575000Y-132937500D02*
X146575000Y-134047500D01*
X146575000Y-140777500D02*
X146575000Y-141887500D01*
X146575000Y-141887500D02*
X142425000Y-141887500D01*
X146575000Y-140777500D02*
X147700000Y-140777500D01*
X146575000Y-132937500D02*
X142425000Y-132937500D01*
D11*
%TO.C,U1*%
X151780000Y-134090000D02*
X153580000Y-134090000D01*
X153580000Y-130870000D02*
X151130000Y-130870000D01*
%TO.C,R11*%
X155225000Y-142812936D02*
X155225000Y-143267064D01*
X156695000Y-142812936D02*
X156695000Y-143267064D01*
%TO.C,R10*%
X157665000Y-142772936D02*
X157665000Y-143227064D01*
X159135000Y-142772936D02*
X159135000Y-143227064D01*
%TO.C,R9*%
X149450000Y-142410436D02*
X149450000Y-142864564D01*
X150920000Y-142410436D02*
X150920000Y-142864564D01*
%TO.C,R8*%
X184567064Y-134755000D02*
X184112936Y-134755000D01*
X184567064Y-136225000D02*
X184112936Y-136225000D01*
%TO.C,R7*%
X184082936Y-134065000D02*
X184537064Y-134065000D01*
X184082936Y-132595000D02*
X184537064Y-132595000D01*
%TO.C,R6*%
X151910000Y-142390436D02*
X151910000Y-142844564D01*
X153380000Y-142390436D02*
X153380000Y-142844564D01*
%TO.C,R5*%
X170355000Y-137577064D02*
X170355000Y-137122936D01*
X168885000Y-137577064D02*
X168885000Y-137122936D01*
%TO.C,R4*%
X140790000Y-144444564D02*
X140790000Y-143990436D01*
X139320000Y-144444564D02*
X139320000Y-143990436D01*
%TO.C,R3*%
X147272936Y-150695000D02*
X147727064Y-150695000D01*
X147272936Y-149225000D02*
X147727064Y-149225000D01*
%TO.C,R2*%
X174865000Y-131592936D02*
X174865000Y-132047064D01*
X176335000Y-131592936D02*
X176335000Y-132047064D01*
%TO.C,R1*%
X172655000Y-131592936D02*
X172655000Y-132047064D01*
X174125000Y-131592936D02*
X174125000Y-132047064D01*
%TO.C,J4*%
X188270000Y-127545000D02*
X195670000Y-127545000D01*
X195670000Y-127545000D02*
X195670000Y-142775000D01*
X195670000Y-142775000D02*
X188270000Y-142775000D01*
X188270000Y-142775000D02*
X188270000Y-127545000D01*
X188270000Y-127545000D02*
X190270000Y-127545000D01*
X190270000Y-127545000D02*
X190270000Y-142775000D01*
X190270000Y-142775000D02*
X188270000Y-142775000D01*
X188270000Y-142775000D02*
X188270000Y-127545000D01*
%TO.C,J3*%
X128800000Y-142775000D02*
X121400000Y-142775000D01*
X121400000Y-142775000D02*
X121400000Y-127545000D01*
X121400000Y-127545000D02*
X128800000Y-127545000D01*
X128800000Y-127545000D02*
X128800000Y-142775000D01*
X128800000Y-142775000D02*
X126800000Y-142775000D01*
X126800000Y-142775000D02*
X126800000Y-127545000D01*
X126800000Y-127545000D02*
X128800000Y-127545000D01*
X128800000Y-127545000D02*
X128800000Y-142775000D01*
D12*
%TO.C,D7*%
X170010000Y-150165000D02*
G75*
G03*
X170010000Y-150165000I-50000J0D01*
G01*
%TO.C,D6*%
X174860000Y-150135000D02*
G75*
G03*
X174860000Y-150135000I-50000J0D01*
G01*
%TO.C,D5*%
X160320000Y-150145000D02*
G75*
G03*
X160320000Y-150145000I-50000J0D01*
G01*
%TO.C,D4*%
X165170000Y-150145000D02*
G75*
G03*
X165170000Y-150145000I-50000J0D01*
G01*
%TO.C,D2*%
X155470000Y-150145000D02*
G75*
G03*
X155470000Y-150145000I-50000J0D01*
G01*
D11*
%TO.C,C13*%
X147270000Y-146628752D02*
X147270000Y-146106248D01*
X145800000Y-146628752D02*
X145800000Y-146106248D01*
%TO.C,C12*%
X177461252Y-135825000D02*
X176938748Y-135825000D01*
X177461252Y-137295000D02*
X176938748Y-137295000D01*
%TO.C,C11*%
X169768748Y-142735000D02*
X170291252Y-142735000D01*
X169768748Y-141265000D02*
X170291252Y-141265000D01*
%TO.C,C10*%
X168151252Y-130215000D02*
X167628748Y-130215000D01*
X168151252Y-131685000D02*
X167628748Y-131685000D01*
%TO.C,C9*%
X158401252Y-137795000D02*
X157878748Y-137795000D01*
X158401252Y-139265000D02*
X157878748Y-139265000D01*
%TO.C,C8*%
X138541252Y-134117500D02*
X138018748Y-134117500D01*
X138541252Y-135587500D02*
X138018748Y-135587500D01*
%TO.C,C7*%
X138425000Y-137641248D02*
X138425000Y-138163752D01*
X139895000Y-137641248D02*
X139895000Y-138163752D01*
%TO.C,C6*%
X156495000Y-134768748D02*
X156495000Y-135291252D01*
X157965000Y-134768748D02*
X157965000Y-135291252D01*
%TO.C,C5*%
X134025000Y-137518748D02*
X134025000Y-138041252D01*
X135495000Y-137518748D02*
X135495000Y-138041252D01*
%TO.C,C4*%
X170395000Y-131568748D02*
X170395000Y-132091252D01*
X171865000Y-131568748D02*
X171865000Y-132091252D01*
%TO.C,C3*%
X179295000Y-131568748D02*
X179295000Y-132091252D01*
X180765000Y-131568748D02*
X180765000Y-132091252D01*
%TO.C,C2*%
X178595000Y-131558748D02*
X178595000Y-132081252D01*
X177125000Y-131558748D02*
X177125000Y-132081252D01*
%TO.C,C1*%
X152175000Y-136461248D02*
X152175000Y-136983752D01*
X153645000Y-136461248D02*
X153645000Y-136983752D01*
%TO.C,J1*%
X161070000Y-117700000D02*
X189070000Y-117700000D01*
X168070000Y-129345000D02*
X182070000Y-129345000D01*
X189070000Y-117700000D02*
X189070000Y-121700000D01*
X161070000Y-117700000D02*
X161070000Y-121700000D01*
%TO.C,J2*%
X156070000Y-117700000D02*
X156070000Y-121700000D01*
X128070000Y-117700000D02*
X156070000Y-117700000D01*
X135070000Y-129345000D02*
X149070000Y-129345000D01*
X128070000Y-117700000D02*
X128070000Y-121700000D01*
%TD*%
M02*
