%TF.GenerationSoftware,KiCad,Pcbnew,8.0.1*%
%TF.CreationDate,2024-05-22T14:55:13+02:00*%
%TF.ProjectId,TestBoardArduino,54657374-426f-4617-9264-41726475696e,rev?*%
%TF.SameCoordinates,Original*%
%TF.FileFunction,Soldermask,Top*%
%TF.FilePolarity,Negative*%
%FSLAX46Y46*%
G04 Gerber Fmt 4.6, Leading zero omitted, Abs format (unit mm)*
G04 Created by KiCad (PCBNEW 8.0.1) date 2024-05-22 14:55:13*
%MOMM*%
%LPD*%
G01*
G04 APERTURE LIST*
G04 Aperture macros list*
%AMRoundRect*
0 Rectangle with rounded corners*
0 $1 Rounding radius*
0 $2 $3 $4 $5 $6 $7 $8 $9 X,Y pos of 4 corners*
0 Add a 4 corners polygon primitive as box body*
4,1,4,$2,$3,$4,$5,$6,$7,$8,$9,$2,$3,0*
0 Add four circle primitives for the rounded corners*
1,1,$1+$1,$2,$3*
1,1,$1+$1,$4,$5*
1,1,$1+$1,$6,$7*
1,1,$1+$1,$8,$9*
0 Add four rect primitives between the rounded corners*
20,1,$1+$1,$2,$3,$4,$5,0*
20,1,$1+$1,$4,$5,$6,$7,0*
20,1,$1+$1,$6,$7,$8,$9,0*
20,1,$1+$1,$8,$9,$2,$3,0*%
G04 Aperture macros list end*
%ADD10C,2.000000*%
%ADD11RoundRect,0.750000X-0.750000X0.750000X-0.750000X-0.750000X0.750000X-0.750000X0.750000X0.750000X0*%
%ADD12C,3.000000*%
%ADD13RoundRect,0.250000X-1.000000X1.750000X-1.000000X-1.750000X1.000000X-1.750000X1.000000X1.750000X0*%
%ADD14R,1.600000X1.600000*%
%ADD15O,1.600000X1.600000*%
%ADD16RoundRect,0.237500X-0.287500X-0.237500X0.287500X-0.237500X0.287500X0.237500X-0.287500X0.237500X0*%
%ADD17R,1.700000X1.700000*%
%ADD18O,1.700000X1.700000*%
%ADD19RoundRect,0.500000X-0.500000X0.500000X-0.500000X-0.500000X0.500000X-0.500000X0.500000X0.500000X0*%
G04 APERTURE END LIST*
D10*
%TO.C,PS1*%
X142946347Y-36132800D03*
X142946347Y-56932800D03*
X97946347Y-36132800D03*
X97946347Y-44132800D03*
%TD*%
D11*
%TO.C,J8*%
X151662947Y-49301400D03*
D12*
X151662947Y-53111400D03*
X151662947Y-56921400D03*
%TD*%
D13*
%TO.C,C8*%
X151993147Y-43053300D03*
X151993147Y-35053300D03*
%TD*%
D14*
%TO.C,A1*%
X103758547Y-74345800D03*
D15*
X106298547Y-74345800D03*
X108838547Y-74345800D03*
X111378547Y-74345800D03*
X113918547Y-74345800D03*
X116458547Y-74345800D03*
X118998547Y-74345800D03*
X121538547Y-74345800D03*
X126618547Y-74345800D03*
X129158547Y-74345800D03*
X131698547Y-74345800D03*
X134238547Y-74345800D03*
X136778547Y-74345800D03*
X139318547Y-74345800D03*
X139318547Y-122605800D03*
X136778547Y-122605800D03*
X134238547Y-122605800D03*
X131698547Y-122605800D03*
X129158547Y-122605800D03*
X126618547Y-122605800D03*
X124078547Y-122605800D03*
X121538547Y-122605800D03*
X117478547Y-122605800D03*
X114938547Y-122605800D03*
X112398547Y-122605800D03*
X109858547Y-122605800D03*
X107318547Y-122605800D03*
X104778547Y-122605800D03*
X102238547Y-122605800D03*
X99698547Y-122605800D03*
X97158547Y-122605800D03*
X94618547Y-122605800D03*
%TD*%
D10*
%TO.C,K3*%
X79270547Y-48514000D03*
X81810547Y-48514000D03*
X79270547Y-56134000D03*
X81810547Y-56134000D03*
X91970547Y-56134000D03*
%TD*%
D16*
%TO.C,D11*%
X149035347Y-64922400D03*
X150785347Y-64922400D03*
%TD*%
D10*
%TO.C,K2*%
X79270547Y-36738400D03*
X81810547Y-36738400D03*
X79270547Y-44358400D03*
X81810547Y-44358400D03*
X91970547Y-44358400D03*
%TD*%
D17*
%TO.C,J6*%
X151236547Y-86435800D03*
D18*
X148696547Y-86435800D03*
%TD*%
D10*
%TO.C,K1*%
X74787147Y-39931200D03*
X74787147Y-50091200D03*
X74787147Y-52631200D03*
X67167147Y-50091200D03*
X67167147Y-52631200D03*
%TD*%
D17*
%TO.C,J7*%
X151236547Y-90435800D03*
D18*
X148696547Y-90435800D03*
%TD*%
D19*
%TO.C,J5*%
X151662947Y-68580000D03*
D10*
X151662947Y-72390000D03*
X151662947Y-76200000D03*
X151662947Y-80010000D03*
%TD*%
D17*
%TO.C,J2*%
X133146347Y-127685800D03*
D18*
X133146347Y-130225800D03*
X135686347Y-127685800D03*
X135686347Y-130225800D03*
X138226347Y-127685800D03*
X138226347Y-130225800D03*
X140766347Y-127685800D03*
X140766347Y-130225800D03*
X143306347Y-127685800D03*
X143306347Y-130225800D03*
X145846347Y-127685800D03*
X145846347Y-130225800D03*
%TD*%
D17*
%TO.C,J3*%
X90575947Y-69392800D03*
D18*
X90575947Y-66852800D03*
X88035947Y-69392800D03*
X88035947Y-66852800D03*
X85495947Y-69392800D03*
X85495947Y-66852800D03*
X82955947Y-69392800D03*
X82955947Y-66852800D03*
X80415947Y-69392800D03*
X80415947Y-66852800D03*
%TD*%
D17*
%TO.C,J4*%
X125983547Y-67538600D03*
D18*
X125983547Y-64998600D03*
X123443547Y-67538600D03*
X123443547Y-64998600D03*
X120903547Y-67538600D03*
X120903547Y-64998600D03*
X118363547Y-67538600D03*
X118363547Y-64998600D03*
X115823547Y-67538600D03*
X115823547Y-64998600D03*
X113283547Y-67538600D03*
X113283547Y-64998600D03*
%TD*%
D17*
%TO.C,J1*%
X90271147Y-130225800D03*
D18*
X90271147Y-127685800D03*
X87731147Y-130225800D03*
X87731147Y-127685800D03*
X85191147Y-130225800D03*
X85191147Y-127685800D03*
X82651147Y-130225800D03*
X82651147Y-127685800D03*
X80111147Y-130225800D03*
X80111147Y-127685800D03*
X77571147Y-130225800D03*
X77571147Y-127685800D03*
%TD*%
M02*
