%TF.GenerationSoftware,KiCad,Pcbnew,8.0.1*%
%TF.CreationDate,2024-07-10T12:18:48+02:00*%
%TF.ProjectId,TestBoardArduino,54657374-426f-4617-9264-41726475696e,rev?*%
%TF.SameCoordinates,Original*%
%TF.FileFunction,Legend,Top*%
%TF.FilePolarity,Positive*%
%FSLAX46Y46*%
G04 Gerber Fmt 4.6, Leading zero omitted, Abs format (unit mm)*
G04 Created by KiCad (PCBNEW 8.0.1) date 2024-07-10 12:18:48*
%MOMM*%
%LPD*%
G01*
G04 APERTURE LIST*
%ADD10C,0.150000*%
%ADD11C,0.100000*%
%ADD12C,0.120000*%
%ADD13C,0.000000*%
G04 APERTURE END LIST*
D10*
X152211147Y-93437100D02*
X147645747Y-93437100D01*
X68270794Y-74880741D02*
X68270794Y-74785503D01*
X68270794Y-74785503D02*
X68318413Y-74690265D01*
X68318413Y-74690265D02*
X68366032Y-74642646D01*
X68366032Y-74642646D02*
X68461270Y-74595027D01*
X68461270Y-74595027D02*
X68651746Y-74547408D01*
X68651746Y-74547408D02*
X68889841Y-74547408D01*
X68889841Y-74547408D02*
X69080317Y-74595027D01*
X69080317Y-74595027D02*
X69175555Y-74642646D01*
X69175555Y-74642646D02*
X69223175Y-74690265D01*
X69223175Y-74690265D02*
X69270794Y-74785503D01*
X69270794Y-74785503D02*
X69270794Y-74880741D01*
X69270794Y-74880741D02*
X69223175Y-74975979D01*
X69223175Y-74975979D02*
X69175555Y-75023598D01*
X69175555Y-75023598D02*
X69080317Y-75071217D01*
X69080317Y-75071217D02*
X68889841Y-75118836D01*
X68889841Y-75118836D02*
X68651746Y-75118836D01*
X68651746Y-75118836D02*
X68461270Y-75071217D01*
X68461270Y-75071217D02*
X68366032Y-75023598D01*
X68366032Y-75023598D02*
X68318413Y-74975979D01*
X68318413Y-74975979D02*
X68270794Y-74880741D01*
X69270794Y-73595027D02*
X69270794Y-74166455D01*
X69270794Y-73880741D02*
X68270794Y-73880741D01*
X68270794Y-73880741D02*
X68413651Y-73975979D01*
X68413651Y-73975979D02*
X68508889Y-74071217D01*
X68508889Y-74071217D02*
X68556508Y-74166455D01*
X68889841Y-73166455D02*
X68889841Y-72404551D01*
X68270794Y-71737884D02*
X68270794Y-71642646D01*
X68270794Y-71642646D02*
X68318413Y-71547408D01*
X68318413Y-71547408D02*
X68366032Y-71499789D01*
X68366032Y-71499789D02*
X68461270Y-71452170D01*
X68461270Y-71452170D02*
X68651746Y-71404551D01*
X68651746Y-71404551D02*
X68889841Y-71404551D01*
X68889841Y-71404551D02*
X69080317Y-71452170D01*
X69080317Y-71452170D02*
X69175555Y-71499789D01*
X69175555Y-71499789D02*
X69223175Y-71547408D01*
X69223175Y-71547408D02*
X69270794Y-71642646D01*
X69270794Y-71642646D02*
X69270794Y-71737884D01*
X69270794Y-71737884D02*
X69223175Y-71833122D01*
X69223175Y-71833122D02*
X69175555Y-71880741D01*
X69175555Y-71880741D02*
X69080317Y-71928360D01*
X69080317Y-71928360D02*
X68889841Y-71975979D01*
X68889841Y-71975979D02*
X68651746Y-71975979D01*
X68651746Y-71975979D02*
X68461270Y-71928360D01*
X68461270Y-71928360D02*
X68366032Y-71880741D01*
X68366032Y-71880741D02*
X68318413Y-71833122D01*
X68318413Y-71833122D02*
X68270794Y-71737884D01*
X68366032Y-71023598D02*
X68318413Y-70975979D01*
X68318413Y-70975979D02*
X68270794Y-70880741D01*
X68270794Y-70880741D02*
X68270794Y-70642646D01*
X68270794Y-70642646D02*
X68318413Y-70547408D01*
X68318413Y-70547408D02*
X68366032Y-70499789D01*
X68366032Y-70499789D02*
X68461270Y-70452170D01*
X68461270Y-70452170D02*
X68556508Y-70452170D01*
X68556508Y-70452170D02*
X68699365Y-70499789D01*
X68699365Y-70499789D02*
X69270794Y-71071217D01*
X69270794Y-71071217D02*
X69270794Y-70452170D01*
X68699365Y-69880741D02*
X68651746Y-69975979D01*
X68651746Y-69975979D02*
X68604127Y-70023598D01*
X68604127Y-70023598D02*
X68508889Y-70071217D01*
X68508889Y-70071217D02*
X68461270Y-70071217D01*
X68461270Y-70071217D02*
X68366032Y-70023598D01*
X68366032Y-70023598D02*
X68318413Y-69975979D01*
X68318413Y-69975979D02*
X68270794Y-69880741D01*
X68270794Y-69880741D02*
X68270794Y-69690265D01*
X68270794Y-69690265D02*
X68318413Y-69595027D01*
X68318413Y-69595027D02*
X68366032Y-69547408D01*
X68366032Y-69547408D02*
X68461270Y-69499789D01*
X68461270Y-69499789D02*
X68508889Y-69499789D01*
X68508889Y-69499789D02*
X68604127Y-69547408D01*
X68604127Y-69547408D02*
X68651746Y-69595027D01*
X68651746Y-69595027D02*
X68699365Y-69690265D01*
X68699365Y-69690265D02*
X68699365Y-69880741D01*
X68699365Y-69880741D02*
X68746984Y-69975979D01*
X68746984Y-69975979D02*
X68794603Y-70023598D01*
X68794603Y-70023598D02*
X68889841Y-70071217D01*
X68889841Y-70071217D02*
X69080317Y-70071217D01*
X69080317Y-70071217D02*
X69175555Y-70023598D01*
X69175555Y-70023598D02*
X69223175Y-69975979D01*
X69223175Y-69975979D02*
X69270794Y-69880741D01*
X69270794Y-69880741D02*
X69270794Y-69690265D01*
X69270794Y-69690265D02*
X69223175Y-69595027D01*
X69223175Y-69595027D02*
X69175555Y-69547408D01*
X69175555Y-69547408D02*
X69080317Y-69499789D01*
X69080317Y-69499789D02*
X68889841Y-69499789D01*
X68889841Y-69499789D02*
X68794603Y-69547408D01*
X68794603Y-69547408D02*
X68746984Y-69595027D01*
X68746984Y-69595027D02*
X68699365Y-69690265D01*
X68270794Y-68595027D02*
X68270794Y-69071217D01*
X68270794Y-69071217D02*
X68746984Y-69118836D01*
X68746984Y-69118836D02*
X68699365Y-69071217D01*
X68699365Y-69071217D02*
X68651746Y-68975979D01*
X68651746Y-68975979D02*
X68651746Y-68737884D01*
X68651746Y-68737884D02*
X68699365Y-68642646D01*
X68699365Y-68642646D02*
X68746984Y-68595027D01*
X68746984Y-68595027D02*
X68842222Y-68547408D01*
X68842222Y-68547408D02*
X69080317Y-68547408D01*
X69080317Y-68547408D02*
X69175555Y-68595027D01*
X69175555Y-68595027D02*
X69223175Y-68642646D01*
X69223175Y-68642646D02*
X69270794Y-68737884D01*
X69270794Y-68737884D02*
X69270794Y-68975979D01*
X69270794Y-68975979D02*
X69223175Y-69071217D01*
X69223175Y-69071217D02*
X69175555Y-69118836D01*
X68270794Y-67499788D02*
X68270794Y-66928360D01*
X69270794Y-67214074D02*
X68270794Y-67214074D01*
X69270794Y-66595026D02*
X68270794Y-66595026D01*
X69270794Y-66118836D02*
X68270794Y-66118836D01*
X68270794Y-66118836D02*
X68270794Y-65737884D01*
X68270794Y-65737884D02*
X68318413Y-65642646D01*
X68318413Y-65642646D02*
X68366032Y-65595027D01*
X68366032Y-65595027D02*
X68461270Y-65547408D01*
X68461270Y-65547408D02*
X68604127Y-65547408D01*
X68604127Y-65547408D02*
X68699365Y-65595027D01*
X68699365Y-65595027D02*
X68746984Y-65642646D01*
X68746984Y-65642646D02*
X68794603Y-65737884D01*
X68794603Y-65737884D02*
X68794603Y-66118836D01*
X68270794Y-64928360D02*
X68270794Y-64833122D01*
X68270794Y-64833122D02*
X68318413Y-64737884D01*
X68318413Y-64737884D02*
X68366032Y-64690265D01*
X68366032Y-64690265D02*
X68461270Y-64642646D01*
X68461270Y-64642646D02*
X68651746Y-64595027D01*
X68651746Y-64595027D02*
X68889841Y-64595027D01*
X68889841Y-64595027D02*
X69080317Y-64642646D01*
X69080317Y-64642646D02*
X69175555Y-64690265D01*
X69175555Y-64690265D02*
X69223175Y-64737884D01*
X69223175Y-64737884D02*
X69270794Y-64833122D01*
X69270794Y-64833122D02*
X69270794Y-64928360D01*
X69270794Y-64928360D02*
X69223175Y-65023598D01*
X69223175Y-65023598D02*
X69175555Y-65071217D01*
X69175555Y-65071217D02*
X69080317Y-65118836D01*
X69080317Y-65118836D02*
X68889841Y-65166455D01*
X68889841Y-65166455D02*
X68651746Y-65166455D01*
X68651746Y-65166455D02*
X68461270Y-65118836D01*
X68461270Y-65118836D02*
X68366032Y-65071217D01*
X68366032Y-65071217D02*
X68318413Y-65023598D01*
X68318413Y-65023598D02*
X68270794Y-64928360D01*
X68366032Y-64214074D02*
X68318413Y-64166455D01*
X68318413Y-64166455D02*
X68270794Y-64071217D01*
X68270794Y-64071217D02*
X68270794Y-63833122D01*
X68270794Y-63833122D02*
X68318413Y-63737884D01*
X68318413Y-63737884D02*
X68366032Y-63690265D01*
X68366032Y-63690265D02*
X68461270Y-63642646D01*
X68461270Y-63642646D02*
X68556508Y-63642646D01*
X68556508Y-63642646D02*
X68699365Y-63690265D01*
X68699365Y-63690265D02*
X69270794Y-64261693D01*
X69270794Y-64261693D02*
X69270794Y-63642646D01*
X68604127Y-62785503D02*
X69270794Y-62785503D01*
X68223175Y-63023598D02*
X68937460Y-63261693D01*
X68937460Y-63261693D02*
X68937460Y-62642646D01*
X68746984Y-61928360D02*
X68794603Y-61785503D01*
X68794603Y-61785503D02*
X68842222Y-61737884D01*
X68842222Y-61737884D02*
X68937460Y-61690265D01*
X68937460Y-61690265D02*
X69080317Y-61690265D01*
X69080317Y-61690265D02*
X69175555Y-61737884D01*
X69175555Y-61737884D02*
X69223175Y-61785503D01*
X69223175Y-61785503D02*
X69270794Y-61880741D01*
X69270794Y-61880741D02*
X69270794Y-62261693D01*
X69270794Y-62261693D02*
X68270794Y-62261693D01*
X68270794Y-62261693D02*
X68270794Y-61928360D01*
X68270794Y-61928360D02*
X68318413Y-61833122D01*
X68318413Y-61833122D02*
X68366032Y-61785503D01*
X68366032Y-61785503D02*
X68461270Y-61737884D01*
X68461270Y-61737884D02*
X68556508Y-61737884D01*
X68556508Y-61737884D02*
X68651746Y-61785503D01*
X68651746Y-61785503D02*
X68699365Y-61833122D01*
X68699365Y-61833122D02*
X68746984Y-61928360D01*
X68746984Y-61928360D02*
X68746984Y-62261693D01*
X69270794Y-61261693D02*
X68270794Y-61261693D01*
X68270794Y-61261693D02*
X68270794Y-61023598D01*
X68270794Y-61023598D02*
X68318413Y-60880741D01*
X68318413Y-60880741D02*
X68413651Y-60785503D01*
X68413651Y-60785503D02*
X68508889Y-60737884D01*
X68508889Y-60737884D02*
X68699365Y-60690265D01*
X68699365Y-60690265D02*
X68842222Y-60690265D01*
X68842222Y-60690265D02*
X69032698Y-60737884D01*
X69032698Y-60737884D02*
X69127936Y-60785503D01*
X69127936Y-60785503D02*
X69223175Y-60880741D01*
X69223175Y-60880741D02*
X69270794Y-61023598D01*
X69270794Y-61023598D02*
X69270794Y-61261693D01*
X70880738Y-92499795D02*
X69880738Y-92499795D01*
X69880738Y-92499795D02*
X70595023Y-92166462D01*
X70595023Y-92166462D02*
X69880738Y-91833129D01*
X69880738Y-91833129D02*
X70880738Y-91833129D01*
X70880738Y-90928367D02*
X70356928Y-90928367D01*
X70356928Y-90928367D02*
X70261690Y-90975986D01*
X70261690Y-90975986D02*
X70214071Y-91071224D01*
X70214071Y-91071224D02*
X70214071Y-91261700D01*
X70214071Y-91261700D02*
X70261690Y-91356938D01*
X70833119Y-90928367D02*
X70880738Y-91023605D01*
X70880738Y-91023605D02*
X70880738Y-91261700D01*
X70880738Y-91261700D02*
X70833119Y-91356938D01*
X70833119Y-91356938D02*
X70737880Y-91404557D01*
X70737880Y-91404557D02*
X70642642Y-91404557D01*
X70642642Y-91404557D02*
X70547404Y-91356938D01*
X70547404Y-91356938D02*
X70499785Y-91261700D01*
X70499785Y-91261700D02*
X70499785Y-91023605D01*
X70499785Y-91023605D02*
X70452166Y-90928367D01*
X70880738Y-90452176D02*
X70214071Y-90452176D01*
X69880738Y-90452176D02*
X69928357Y-90499795D01*
X69928357Y-90499795D02*
X69975976Y-90452176D01*
X69975976Y-90452176D02*
X69928357Y-90404557D01*
X69928357Y-90404557D02*
X69880738Y-90452176D01*
X69880738Y-90452176D02*
X69975976Y-90452176D01*
X70214071Y-89975986D02*
X70880738Y-89975986D01*
X70309309Y-89975986D02*
X70261690Y-89928367D01*
X70261690Y-89928367D02*
X70214071Y-89833129D01*
X70214071Y-89833129D02*
X70214071Y-89690272D01*
X70214071Y-89690272D02*
X70261690Y-89595034D01*
X70261690Y-89595034D02*
X70356928Y-89547415D01*
X70356928Y-89547415D02*
X70880738Y-89547415D01*
X70880738Y-89071224D02*
X69880738Y-89071224D01*
X70261690Y-89071224D02*
X70214071Y-88975986D01*
X70214071Y-88975986D02*
X70214071Y-88785510D01*
X70214071Y-88785510D02*
X70261690Y-88690272D01*
X70261690Y-88690272D02*
X70309309Y-88642653D01*
X70309309Y-88642653D02*
X70404547Y-88595034D01*
X70404547Y-88595034D02*
X70690261Y-88595034D01*
X70690261Y-88595034D02*
X70785499Y-88642653D01*
X70785499Y-88642653D02*
X70833119Y-88690272D01*
X70833119Y-88690272D02*
X70880738Y-88785510D01*
X70880738Y-88785510D02*
X70880738Y-88975986D01*
X70880738Y-88975986D02*
X70833119Y-89071224D01*
X70880738Y-88023605D02*
X70833119Y-88118843D01*
X70833119Y-88118843D02*
X70785499Y-88166462D01*
X70785499Y-88166462D02*
X70690261Y-88214081D01*
X70690261Y-88214081D02*
X70404547Y-88214081D01*
X70404547Y-88214081D02*
X70309309Y-88166462D01*
X70309309Y-88166462D02*
X70261690Y-88118843D01*
X70261690Y-88118843D02*
X70214071Y-88023605D01*
X70214071Y-88023605D02*
X70214071Y-87880748D01*
X70214071Y-87880748D02*
X70261690Y-87785510D01*
X70261690Y-87785510D02*
X70309309Y-87737891D01*
X70309309Y-87737891D02*
X70404547Y-87690272D01*
X70404547Y-87690272D02*
X70690261Y-87690272D01*
X70690261Y-87690272D02*
X70785499Y-87737891D01*
X70785499Y-87737891D02*
X70833119Y-87785510D01*
X70833119Y-87785510D02*
X70880738Y-87880748D01*
X70880738Y-87880748D02*
X70880738Y-88023605D01*
X70880738Y-86833129D02*
X70356928Y-86833129D01*
X70356928Y-86833129D02*
X70261690Y-86880748D01*
X70261690Y-86880748D02*
X70214071Y-86975986D01*
X70214071Y-86975986D02*
X70214071Y-87166462D01*
X70214071Y-87166462D02*
X70261690Y-87261700D01*
X70833119Y-86833129D02*
X70880738Y-86928367D01*
X70880738Y-86928367D02*
X70880738Y-87166462D01*
X70880738Y-87166462D02*
X70833119Y-87261700D01*
X70833119Y-87261700D02*
X70737880Y-87309319D01*
X70737880Y-87309319D02*
X70642642Y-87309319D01*
X70642642Y-87309319D02*
X70547404Y-87261700D01*
X70547404Y-87261700D02*
X70499785Y-87166462D01*
X70499785Y-87166462D02*
X70499785Y-86928367D01*
X70499785Y-86928367D02*
X70452166Y-86833129D01*
X70880738Y-86356938D02*
X70214071Y-86356938D01*
X70404547Y-86356938D02*
X70309309Y-86309319D01*
X70309309Y-86309319D02*
X70261690Y-86261700D01*
X70261690Y-86261700D02*
X70214071Y-86166462D01*
X70214071Y-86166462D02*
X70214071Y-86071224D01*
X70880738Y-85309319D02*
X69880738Y-85309319D01*
X70833119Y-85309319D02*
X70880738Y-85404557D01*
X70880738Y-85404557D02*
X70880738Y-85595033D01*
X70880738Y-85595033D02*
X70833119Y-85690271D01*
X70833119Y-85690271D02*
X70785499Y-85737890D01*
X70785499Y-85737890D02*
X70690261Y-85785509D01*
X70690261Y-85785509D02*
X70404547Y-85785509D01*
X70404547Y-85785509D02*
X70309309Y-85737890D01*
X70309309Y-85737890D02*
X70261690Y-85690271D01*
X70261690Y-85690271D02*
X70214071Y-85595033D01*
X70214071Y-85595033D02*
X70214071Y-85404557D01*
X70214071Y-85404557D02*
X70261690Y-85309319D01*
X70214071Y-84071223D02*
X71214071Y-84071223D01*
X70261690Y-84071223D02*
X70214071Y-83975985D01*
X70214071Y-83975985D02*
X70214071Y-83785509D01*
X70214071Y-83785509D02*
X70261690Y-83690271D01*
X70261690Y-83690271D02*
X70309309Y-83642652D01*
X70309309Y-83642652D02*
X70404547Y-83595033D01*
X70404547Y-83595033D02*
X70690261Y-83595033D01*
X70690261Y-83595033D02*
X70785499Y-83642652D01*
X70785499Y-83642652D02*
X70833119Y-83690271D01*
X70833119Y-83690271D02*
X70880738Y-83785509D01*
X70880738Y-83785509D02*
X70880738Y-83975985D01*
X70880738Y-83975985D02*
X70833119Y-84071223D01*
X70880738Y-83166461D02*
X70214071Y-83166461D01*
X70404547Y-83166461D02*
X70309309Y-83118842D01*
X70309309Y-83118842D02*
X70261690Y-83071223D01*
X70261690Y-83071223D02*
X70214071Y-82975985D01*
X70214071Y-82975985D02*
X70214071Y-82880747D01*
X70880738Y-82404556D02*
X70833119Y-82499794D01*
X70833119Y-82499794D02*
X70785499Y-82547413D01*
X70785499Y-82547413D02*
X70690261Y-82595032D01*
X70690261Y-82595032D02*
X70404547Y-82595032D01*
X70404547Y-82595032D02*
X70309309Y-82547413D01*
X70309309Y-82547413D02*
X70261690Y-82499794D01*
X70261690Y-82499794D02*
X70214071Y-82404556D01*
X70214071Y-82404556D02*
X70214071Y-82261699D01*
X70214071Y-82261699D02*
X70261690Y-82166461D01*
X70261690Y-82166461D02*
X70309309Y-82118842D01*
X70309309Y-82118842D02*
X70404547Y-82071223D01*
X70404547Y-82071223D02*
X70690261Y-82071223D01*
X70690261Y-82071223D02*
X70785499Y-82118842D01*
X70785499Y-82118842D02*
X70833119Y-82166461D01*
X70833119Y-82166461D02*
X70880738Y-82261699D01*
X70880738Y-82261699D02*
X70880738Y-82404556D01*
X70880738Y-81214080D02*
X69880738Y-81214080D01*
X70833119Y-81214080D02*
X70880738Y-81309318D01*
X70880738Y-81309318D02*
X70880738Y-81499794D01*
X70880738Y-81499794D02*
X70833119Y-81595032D01*
X70833119Y-81595032D02*
X70785499Y-81642651D01*
X70785499Y-81642651D02*
X70690261Y-81690270D01*
X70690261Y-81690270D02*
X70404547Y-81690270D01*
X70404547Y-81690270D02*
X70309309Y-81642651D01*
X70309309Y-81642651D02*
X70261690Y-81595032D01*
X70261690Y-81595032D02*
X70214071Y-81499794D01*
X70214071Y-81499794D02*
X70214071Y-81309318D01*
X70214071Y-81309318D02*
X70261690Y-81214080D01*
X70214071Y-80309318D02*
X70880738Y-80309318D01*
X70214071Y-80737889D02*
X70737880Y-80737889D01*
X70737880Y-80737889D02*
X70833119Y-80690270D01*
X70833119Y-80690270D02*
X70880738Y-80595032D01*
X70880738Y-80595032D02*
X70880738Y-80452175D01*
X70880738Y-80452175D02*
X70833119Y-80356937D01*
X70833119Y-80356937D02*
X70785499Y-80309318D01*
X70833119Y-79404556D02*
X70880738Y-79499794D01*
X70880738Y-79499794D02*
X70880738Y-79690270D01*
X70880738Y-79690270D02*
X70833119Y-79785508D01*
X70833119Y-79785508D02*
X70785499Y-79833127D01*
X70785499Y-79833127D02*
X70690261Y-79880746D01*
X70690261Y-79880746D02*
X70404547Y-79880746D01*
X70404547Y-79880746D02*
X70309309Y-79833127D01*
X70309309Y-79833127D02*
X70261690Y-79785508D01*
X70261690Y-79785508D02*
X70214071Y-79690270D01*
X70214071Y-79690270D02*
X70214071Y-79499794D01*
X70214071Y-79499794D02*
X70261690Y-79404556D01*
X70214071Y-79118841D02*
X70214071Y-78737889D01*
X69880738Y-78975984D02*
X70737880Y-78975984D01*
X70737880Y-78975984D02*
X70833119Y-78928365D01*
X70833119Y-78928365D02*
X70880738Y-78833127D01*
X70880738Y-78833127D02*
X70880738Y-78737889D01*
X70880738Y-78404555D02*
X70214071Y-78404555D01*
X69880738Y-78404555D02*
X69928357Y-78452174D01*
X69928357Y-78452174D02*
X69975976Y-78404555D01*
X69975976Y-78404555D02*
X69928357Y-78356936D01*
X69928357Y-78356936D02*
X69880738Y-78404555D01*
X69880738Y-78404555D02*
X69975976Y-78404555D01*
X70880738Y-77785508D02*
X70833119Y-77880746D01*
X70833119Y-77880746D02*
X70785499Y-77928365D01*
X70785499Y-77928365D02*
X70690261Y-77975984D01*
X70690261Y-77975984D02*
X70404547Y-77975984D01*
X70404547Y-77975984D02*
X70309309Y-77928365D01*
X70309309Y-77928365D02*
X70261690Y-77880746D01*
X70261690Y-77880746D02*
X70214071Y-77785508D01*
X70214071Y-77785508D02*
X70214071Y-77642651D01*
X70214071Y-77642651D02*
X70261690Y-77547413D01*
X70261690Y-77547413D02*
X70309309Y-77499794D01*
X70309309Y-77499794D02*
X70404547Y-77452175D01*
X70404547Y-77452175D02*
X70690261Y-77452175D01*
X70690261Y-77452175D02*
X70785499Y-77499794D01*
X70785499Y-77499794D02*
X70833119Y-77547413D01*
X70833119Y-77547413D02*
X70880738Y-77642651D01*
X70880738Y-77642651D02*
X70880738Y-77785508D01*
X70214071Y-77023603D02*
X70880738Y-77023603D01*
X70309309Y-77023603D02*
X70261690Y-76975984D01*
X70261690Y-76975984D02*
X70214071Y-76880746D01*
X70214071Y-76880746D02*
X70214071Y-76737889D01*
X70214071Y-76737889D02*
X70261690Y-76642651D01*
X70261690Y-76642651D02*
X70356928Y-76595032D01*
X70356928Y-76595032D02*
X70880738Y-76595032D01*
X70214071Y-75499793D02*
X70214071Y-75118841D01*
X69880738Y-75356936D02*
X70737880Y-75356936D01*
X70737880Y-75356936D02*
X70833119Y-75309317D01*
X70833119Y-75309317D02*
X70880738Y-75214079D01*
X70880738Y-75214079D02*
X70880738Y-75118841D01*
X70833119Y-74404555D02*
X70880738Y-74499793D01*
X70880738Y-74499793D02*
X70880738Y-74690269D01*
X70880738Y-74690269D02*
X70833119Y-74785507D01*
X70833119Y-74785507D02*
X70737880Y-74833126D01*
X70737880Y-74833126D02*
X70356928Y-74833126D01*
X70356928Y-74833126D02*
X70261690Y-74785507D01*
X70261690Y-74785507D02*
X70214071Y-74690269D01*
X70214071Y-74690269D02*
X70214071Y-74499793D01*
X70214071Y-74499793D02*
X70261690Y-74404555D01*
X70261690Y-74404555D02*
X70356928Y-74356936D01*
X70356928Y-74356936D02*
X70452166Y-74356936D01*
X70452166Y-74356936D02*
X70547404Y-74833126D01*
X70833119Y-73975983D02*
X70880738Y-73880745D01*
X70880738Y-73880745D02*
X70880738Y-73690269D01*
X70880738Y-73690269D02*
X70833119Y-73595031D01*
X70833119Y-73595031D02*
X70737880Y-73547412D01*
X70737880Y-73547412D02*
X70690261Y-73547412D01*
X70690261Y-73547412D02*
X70595023Y-73595031D01*
X70595023Y-73595031D02*
X70547404Y-73690269D01*
X70547404Y-73690269D02*
X70547404Y-73833126D01*
X70547404Y-73833126D02*
X70499785Y-73928364D01*
X70499785Y-73928364D02*
X70404547Y-73975983D01*
X70404547Y-73975983D02*
X70356928Y-73975983D01*
X70356928Y-73975983D02*
X70261690Y-73928364D01*
X70261690Y-73928364D02*
X70214071Y-73833126D01*
X70214071Y-73833126D02*
X70214071Y-73690269D01*
X70214071Y-73690269D02*
X70261690Y-73595031D01*
X70214071Y-73261697D02*
X70214071Y-72880745D01*
X69880738Y-73118840D02*
X70737880Y-73118840D01*
X70737880Y-73118840D02*
X70833119Y-73071221D01*
X70833119Y-73071221D02*
X70880738Y-72975983D01*
X70880738Y-72975983D02*
X70880738Y-72880745D01*
X70833119Y-71356935D02*
X70880738Y-71452173D01*
X70880738Y-71452173D02*
X70880738Y-71642649D01*
X70880738Y-71642649D02*
X70833119Y-71737887D01*
X70833119Y-71737887D02*
X70785499Y-71785506D01*
X70785499Y-71785506D02*
X70690261Y-71833125D01*
X70690261Y-71833125D02*
X70404547Y-71833125D01*
X70404547Y-71833125D02*
X70309309Y-71785506D01*
X70309309Y-71785506D02*
X70261690Y-71737887D01*
X70261690Y-71737887D02*
X70214071Y-71642649D01*
X70214071Y-71642649D02*
X70214071Y-71452173D01*
X70214071Y-71452173D02*
X70261690Y-71356935D01*
X70880738Y-70785506D02*
X70833119Y-70880744D01*
X70833119Y-70880744D02*
X70785499Y-70928363D01*
X70785499Y-70928363D02*
X70690261Y-70975982D01*
X70690261Y-70975982D02*
X70404547Y-70975982D01*
X70404547Y-70975982D02*
X70309309Y-70928363D01*
X70309309Y-70928363D02*
X70261690Y-70880744D01*
X70261690Y-70880744D02*
X70214071Y-70785506D01*
X70214071Y-70785506D02*
X70214071Y-70642649D01*
X70214071Y-70642649D02*
X70261690Y-70547411D01*
X70261690Y-70547411D02*
X70309309Y-70499792D01*
X70309309Y-70499792D02*
X70404547Y-70452173D01*
X70404547Y-70452173D02*
X70690261Y-70452173D01*
X70690261Y-70452173D02*
X70785499Y-70499792D01*
X70785499Y-70499792D02*
X70833119Y-70547411D01*
X70833119Y-70547411D02*
X70880738Y-70642649D01*
X70880738Y-70642649D02*
X70880738Y-70785506D01*
X70214071Y-70023601D02*
X70880738Y-70023601D01*
X70309309Y-70023601D02*
X70261690Y-69975982D01*
X70261690Y-69975982D02*
X70214071Y-69880744D01*
X70214071Y-69880744D02*
X70214071Y-69737887D01*
X70214071Y-69737887D02*
X70261690Y-69642649D01*
X70261690Y-69642649D02*
X70356928Y-69595030D01*
X70356928Y-69595030D02*
X70880738Y-69595030D01*
X70214071Y-69261696D02*
X70214071Y-68880744D01*
X69880738Y-69118839D02*
X70737880Y-69118839D01*
X70737880Y-69118839D02*
X70833119Y-69071220D01*
X70833119Y-69071220D02*
X70880738Y-68975982D01*
X70880738Y-68975982D02*
X70880738Y-68880744D01*
X70880738Y-68547410D02*
X70214071Y-68547410D01*
X70404547Y-68547410D02*
X70309309Y-68499791D01*
X70309309Y-68499791D02*
X70261690Y-68452172D01*
X70261690Y-68452172D02*
X70214071Y-68356934D01*
X70214071Y-68356934D02*
X70214071Y-68261696D01*
X70880738Y-67785505D02*
X70833119Y-67880743D01*
X70833119Y-67880743D02*
X70785499Y-67928362D01*
X70785499Y-67928362D02*
X70690261Y-67975981D01*
X70690261Y-67975981D02*
X70404547Y-67975981D01*
X70404547Y-67975981D02*
X70309309Y-67928362D01*
X70309309Y-67928362D02*
X70261690Y-67880743D01*
X70261690Y-67880743D02*
X70214071Y-67785505D01*
X70214071Y-67785505D02*
X70214071Y-67642648D01*
X70214071Y-67642648D02*
X70261690Y-67547410D01*
X70261690Y-67547410D02*
X70309309Y-67499791D01*
X70309309Y-67499791D02*
X70404547Y-67452172D01*
X70404547Y-67452172D02*
X70690261Y-67452172D01*
X70690261Y-67452172D02*
X70785499Y-67499791D01*
X70785499Y-67499791D02*
X70833119Y-67547410D01*
X70833119Y-67547410D02*
X70880738Y-67642648D01*
X70880738Y-67642648D02*
X70880738Y-67785505D01*
X70880738Y-66880743D02*
X70833119Y-66975981D01*
X70833119Y-66975981D02*
X70737880Y-67023600D01*
X70737880Y-67023600D02*
X69880738Y-67023600D01*
X70880738Y-66356933D02*
X70833119Y-66452171D01*
X70833119Y-66452171D02*
X70737880Y-66499790D01*
X70737880Y-66499790D02*
X69880738Y-66499790D01*
X70833119Y-65595028D02*
X70880738Y-65690266D01*
X70880738Y-65690266D02*
X70880738Y-65880742D01*
X70880738Y-65880742D02*
X70833119Y-65975980D01*
X70833119Y-65975980D02*
X70737880Y-66023599D01*
X70737880Y-66023599D02*
X70356928Y-66023599D01*
X70356928Y-66023599D02*
X70261690Y-65975980D01*
X70261690Y-65975980D02*
X70214071Y-65880742D01*
X70214071Y-65880742D02*
X70214071Y-65690266D01*
X70214071Y-65690266D02*
X70261690Y-65595028D01*
X70261690Y-65595028D02*
X70356928Y-65547409D01*
X70356928Y-65547409D02*
X70452166Y-65547409D01*
X70452166Y-65547409D02*
X70547404Y-66023599D01*
X70880738Y-65118837D02*
X70214071Y-65118837D01*
X70404547Y-65118837D02*
X70309309Y-65071218D01*
X70309309Y-65071218D02*
X70261690Y-65023599D01*
X70261690Y-65023599D02*
X70214071Y-64928361D01*
X70214071Y-64928361D02*
X70214071Y-64833123D01*
X70880738Y-63737884D02*
X69880738Y-63737884D01*
X70261690Y-63737884D02*
X70214071Y-63642646D01*
X70214071Y-63642646D02*
X70214071Y-63452170D01*
X70214071Y-63452170D02*
X70261690Y-63356932D01*
X70261690Y-63356932D02*
X70309309Y-63309313D01*
X70309309Y-63309313D02*
X70404547Y-63261694D01*
X70404547Y-63261694D02*
X70690261Y-63261694D01*
X70690261Y-63261694D02*
X70785499Y-63309313D01*
X70785499Y-63309313D02*
X70833119Y-63356932D01*
X70833119Y-63356932D02*
X70880738Y-63452170D01*
X70880738Y-63452170D02*
X70880738Y-63642646D01*
X70880738Y-63642646D02*
X70833119Y-63737884D01*
X70880738Y-62690265D02*
X70833119Y-62785503D01*
X70833119Y-62785503D02*
X70785499Y-62833122D01*
X70785499Y-62833122D02*
X70690261Y-62880741D01*
X70690261Y-62880741D02*
X70404547Y-62880741D01*
X70404547Y-62880741D02*
X70309309Y-62833122D01*
X70309309Y-62833122D02*
X70261690Y-62785503D01*
X70261690Y-62785503D02*
X70214071Y-62690265D01*
X70214071Y-62690265D02*
X70214071Y-62547408D01*
X70214071Y-62547408D02*
X70261690Y-62452170D01*
X70261690Y-62452170D02*
X70309309Y-62404551D01*
X70309309Y-62404551D02*
X70404547Y-62356932D01*
X70404547Y-62356932D02*
X70690261Y-62356932D01*
X70690261Y-62356932D02*
X70785499Y-62404551D01*
X70785499Y-62404551D02*
X70833119Y-62452170D01*
X70833119Y-62452170D02*
X70880738Y-62547408D01*
X70880738Y-62547408D02*
X70880738Y-62690265D01*
X70880738Y-61499789D02*
X70356928Y-61499789D01*
X70356928Y-61499789D02*
X70261690Y-61547408D01*
X70261690Y-61547408D02*
X70214071Y-61642646D01*
X70214071Y-61642646D02*
X70214071Y-61833122D01*
X70214071Y-61833122D02*
X70261690Y-61928360D01*
X70833119Y-61499789D02*
X70880738Y-61595027D01*
X70880738Y-61595027D02*
X70880738Y-61833122D01*
X70880738Y-61833122D02*
X70833119Y-61928360D01*
X70833119Y-61928360D02*
X70737880Y-61975979D01*
X70737880Y-61975979D02*
X70642642Y-61975979D01*
X70642642Y-61975979D02*
X70547404Y-61928360D01*
X70547404Y-61928360D02*
X70499785Y-61833122D01*
X70499785Y-61833122D02*
X70499785Y-61595027D01*
X70499785Y-61595027D02*
X70452166Y-61499789D01*
X70880738Y-61023598D02*
X70214071Y-61023598D01*
X70404547Y-61023598D02*
X70309309Y-60975979D01*
X70309309Y-60975979D02*
X70261690Y-60928360D01*
X70261690Y-60928360D02*
X70214071Y-60833122D01*
X70214071Y-60833122D02*
X70214071Y-60737884D01*
X70880738Y-59975979D02*
X69880738Y-59975979D01*
X70833119Y-59975979D02*
X70880738Y-60071217D01*
X70880738Y-60071217D02*
X70880738Y-60261693D01*
X70880738Y-60261693D02*
X70833119Y-60356931D01*
X70833119Y-60356931D02*
X70785499Y-60404550D01*
X70785499Y-60404550D02*
X70690261Y-60452169D01*
X70690261Y-60452169D02*
X70404547Y-60452169D01*
X70404547Y-60452169D02*
X70309309Y-60404550D01*
X70309309Y-60404550D02*
X70261690Y-60356931D01*
X70261690Y-60356931D02*
X70214071Y-60261693D01*
X70214071Y-60261693D02*
X70214071Y-60071217D01*
X70214071Y-60071217D02*
X70261690Y-59975979D01*
X163686859Y-94469009D02*
X163829716Y-94516628D01*
X163829716Y-94516628D02*
X163877335Y-94564247D01*
X163877335Y-94564247D02*
X163924954Y-94659485D01*
X163924954Y-94659485D02*
X163924954Y-94802342D01*
X163924954Y-94802342D02*
X163877335Y-94897580D01*
X163877335Y-94897580D02*
X163829716Y-94945200D01*
X163829716Y-94945200D02*
X163734478Y-94992819D01*
X163734478Y-94992819D02*
X163353526Y-94992819D01*
X163353526Y-94992819D02*
X163353526Y-93992819D01*
X163353526Y-93992819D02*
X163686859Y-93992819D01*
X163686859Y-93992819D02*
X163782097Y-94040438D01*
X163782097Y-94040438D02*
X163829716Y-94088057D01*
X163829716Y-94088057D02*
X163877335Y-94183295D01*
X163877335Y-94183295D02*
X163877335Y-94278533D01*
X163877335Y-94278533D02*
X163829716Y-94373771D01*
X163829716Y-94373771D02*
X163782097Y-94421390D01*
X163782097Y-94421390D02*
X163686859Y-94469009D01*
X163686859Y-94469009D02*
X163353526Y-94469009D01*
X164924954Y-94992819D02*
X164591621Y-94516628D01*
X164353526Y-94992819D02*
X164353526Y-93992819D01*
X164353526Y-93992819D02*
X164734478Y-93992819D01*
X164734478Y-93992819D02*
X164829716Y-94040438D01*
X164829716Y-94040438D02*
X164877335Y-94088057D01*
X164877335Y-94088057D02*
X164924954Y-94183295D01*
X164924954Y-94183295D02*
X164924954Y-94326152D01*
X164924954Y-94326152D02*
X164877335Y-94421390D01*
X164877335Y-94421390D02*
X164829716Y-94469009D01*
X164829716Y-94469009D02*
X164734478Y-94516628D01*
X164734478Y-94516628D02*
X164353526Y-94516628D01*
X165353526Y-94992819D02*
X165353526Y-93992819D01*
X165353526Y-93992819D02*
X165591621Y-93992819D01*
X165591621Y-93992819D02*
X165734478Y-94040438D01*
X165734478Y-94040438D02*
X165829716Y-94135676D01*
X165829716Y-94135676D02*
X165877335Y-94230914D01*
X165877335Y-94230914D02*
X165924954Y-94421390D01*
X165924954Y-94421390D02*
X165924954Y-94564247D01*
X165924954Y-94564247D02*
X165877335Y-94754723D01*
X165877335Y-94754723D02*
X165829716Y-94849961D01*
X165829716Y-94849961D02*
X165734478Y-94945200D01*
X165734478Y-94945200D02*
X165591621Y-94992819D01*
X165591621Y-94992819D02*
X165353526Y-94992819D01*
X166115431Y-95088057D02*
X166877335Y-95088057D01*
X167686859Y-94992819D02*
X167353526Y-94516628D01*
X167115431Y-94992819D02*
X167115431Y-93992819D01*
X167115431Y-93992819D02*
X167496383Y-93992819D01*
X167496383Y-93992819D02*
X167591621Y-94040438D01*
X167591621Y-94040438D02*
X167639240Y-94088057D01*
X167639240Y-94088057D02*
X167686859Y-94183295D01*
X167686859Y-94183295D02*
X167686859Y-94326152D01*
X167686859Y-94326152D02*
X167639240Y-94421390D01*
X167639240Y-94421390D02*
X167591621Y-94469009D01*
X167591621Y-94469009D02*
X167496383Y-94516628D01*
X167496383Y-94516628D02*
X167115431Y-94516628D01*
X168020193Y-93992819D02*
X168686859Y-94992819D01*
X168686859Y-93992819D02*
X168020193Y-94992819D01*
X150833481Y-94075879D02*
X150833481Y-94409212D01*
X150309671Y-94552069D02*
X150309671Y-94075879D01*
X150309671Y-94075879D02*
X151309671Y-94075879D01*
X151309671Y-94075879D02*
X151309671Y-94552069D01*
X150309671Y-94980641D02*
X151309671Y-94980641D01*
X151309671Y-94980641D02*
X150309671Y-95552069D01*
X150309671Y-95552069D02*
X151309671Y-95552069D01*
X148699727Y-94647307D02*
X149175918Y-94313974D01*
X148699727Y-94075879D02*
X149699727Y-94075879D01*
X149699727Y-94075879D02*
X149699727Y-94456831D01*
X149699727Y-94456831D02*
X149652108Y-94552069D01*
X149652108Y-94552069D02*
X149604489Y-94599688D01*
X149604489Y-94599688D02*
X149509251Y-94647307D01*
X149509251Y-94647307D02*
X149366394Y-94647307D01*
X149366394Y-94647307D02*
X149271156Y-94599688D01*
X149271156Y-94599688D02*
X149223537Y-94552069D01*
X149223537Y-94552069D02*
X149175918Y-94456831D01*
X149175918Y-94456831D02*
X149175918Y-94075879D01*
X148747347Y-95028260D02*
X148699727Y-95171117D01*
X148699727Y-95171117D02*
X148699727Y-95409212D01*
X148699727Y-95409212D02*
X148747347Y-95504450D01*
X148747347Y-95504450D02*
X148794966Y-95552069D01*
X148794966Y-95552069D02*
X148890204Y-95599688D01*
X148890204Y-95599688D02*
X148985442Y-95599688D01*
X148985442Y-95599688D02*
X149080680Y-95552069D01*
X149080680Y-95552069D02*
X149128299Y-95504450D01*
X149128299Y-95504450D02*
X149175918Y-95409212D01*
X149175918Y-95409212D02*
X149223537Y-95218736D01*
X149223537Y-95218736D02*
X149271156Y-95123498D01*
X149271156Y-95123498D02*
X149318775Y-95075879D01*
X149318775Y-95075879D02*
X149414013Y-95028260D01*
X149414013Y-95028260D02*
X149509251Y-95028260D01*
X149509251Y-95028260D02*
X149604489Y-95075879D01*
X149604489Y-95075879D02*
X149652108Y-95123498D01*
X149652108Y-95123498D02*
X149699727Y-95218736D01*
X149699727Y-95218736D02*
X149699727Y-95456831D01*
X149699727Y-95456831D02*
X149652108Y-95599688D01*
X149366394Y-96456831D02*
X148699727Y-96456831D01*
X149747347Y-96218736D02*
X149033061Y-95980641D01*
X149033061Y-95980641D02*
X149033061Y-96599688D01*
X149271156Y-97123498D02*
X149318775Y-97028260D01*
X149318775Y-97028260D02*
X149366394Y-96980641D01*
X149366394Y-96980641D02*
X149461632Y-96933022D01*
X149461632Y-96933022D02*
X149509251Y-96933022D01*
X149509251Y-96933022D02*
X149604489Y-96980641D01*
X149604489Y-96980641D02*
X149652108Y-97028260D01*
X149652108Y-97028260D02*
X149699727Y-97123498D01*
X149699727Y-97123498D02*
X149699727Y-97313974D01*
X149699727Y-97313974D02*
X149652108Y-97409212D01*
X149652108Y-97409212D02*
X149604489Y-97456831D01*
X149604489Y-97456831D02*
X149509251Y-97504450D01*
X149509251Y-97504450D02*
X149461632Y-97504450D01*
X149461632Y-97504450D02*
X149366394Y-97456831D01*
X149366394Y-97456831D02*
X149318775Y-97409212D01*
X149318775Y-97409212D02*
X149271156Y-97313974D01*
X149271156Y-97313974D02*
X149271156Y-97123498D01*
X149271156Y-97123498D02*
X149223537Y-97028260D01*
X149223537Y-97028260D02*
X149175918Y-96980641D01*
X149175918Y-96980641D02*
X149080680Y-96933022D01*
X149080680Y-96933022D02*
X148890204Y-96933022D01*
X148890204Y-96933022D02*
X148794966Y-96980641D01*
X148794966Y-96980641D02*
X148747347Y-97028260D01*
X148747347Y-97028260D02*
X148699727Y-97123498D01*
X148699727Y-97123498D02*
X148699727Y-97313974D01*
X148699727Y-97313974D02*
X148747347Y-97409212D01*
X148747347Y-97409212D02*
X148794966Y-97456831D01*
X148794966Y-97456831D02*
X148890204Y-97504450D01*
X148890204Y-97504450D02*
X149080680Y-97504450D01*
X149080680Y-97504450D02*
X149175918Y-97456831D01*
X149175918Y-97456831D02*
X149223537Y-97409212D01*
X149223537Y-97409212D02*
X149271156Y-97313974D01*
X149699727Y-98409212D02*
X149699727Y-97933022D01*
X149699727Y-97933022D02*
X149223537Y-97885403D01*
X149223537Y-97885403D02*
X149271156Y-97933022D01*
X149271156Y-97933022D02*
X149318775Y-98028260D01*
X149318775Y-98028260D02*
X149318775Y-98266355D01*
X149318775Y-98266355D02*
X149271156Y-98361593D01*
X149271156Y-98361593D02*
X149223537Y-98409212D01*
X149223537Y-98409212D02*
X149128299Y-98456831D01*
X149128299Y-98456831D02*
X148890204Y-98456831D01*
X148890204Y-98456831D02*
X148794966Y-98409212D01*
X148794966Y-98409212D02*
X148747347Y-98361593D01*
X148747347Y-98361593D02*
X148699727Y-98266355D01*
X148699727Y-98266355D02*
X148699727Y-98028260D01*
X148699727Y-98028260D02*
X148747347Y-97933022D01*
X148747347Y-97933022D02*
X148794966Y-97885403D01*
X163813859Y-90557409D02*
X163956716Y-90605028D01*
X163956716Y-90605028D02*
X164004335Y-90652647D01*
X164004335Y-90652647D02*
X164051954Y-90747885D01*
X164051954Y-90747885D02*
X164051954Y-90890742D01*
X164051954Y-90890742D02*
X164004335Y-90985980D01*
X164004335Y-90985980D02*
X163956716Y-91033600D01*
X163956716Y-91033600D02*
X163861478Y-91081219D01*
X163861478Y-91081219D02*
X163480526Y-91081219D01*
X163480526Y-91081219D02*
X163480526Y-90081219D01*
X163480526Y-90081219D02*
X163813859Y-90081219D01*
X163813859Y-90081219D02*
X163909097Y-90128838D01*
X163909097Y-90128838D02*
X163956716Y-90176457D01*
X163956716Y-90176457D02*
X164004335Y-90271695D01*
X164004335Y-90271695D02*
X164004335Y-90366933D01*
X164004335Y-90366933D02*
X163956716Y-90462171D01*
X163956716Y-90462171D02*
X163909097Y-90509790D01*
X163909097Y-90509790D02*
X163813859Y-90557409D01*
X163813859Y-90557409D02*
X163480526Y-90557409D01*
X165051954Y-91081219D02*
X164718621Y-90605028D01*
X164480526Y-91081219D02*
X164480526Y-90081219D01*
X164480526Y-90081219D02*
X164861478Y-90081219D01*
X164861478Y-90081219D02*
X164956716Y-90128838D01*
X164956716Y-90128838D02*
X165004335Y-90176457D01*
X165004335Y-90176457D02*
X165051954Y-90271695D01*
X165051954Y-90271695D02*
X165051954Y-90414552D01*
X165051954Y-90414552D02*
X165004335Y-90509790D01*
X165004335Y-90509790D02*
X164956716Y-90557409D01*
X164956716Y-90557409D02*
X164861478Y-90605028D01*
X164861478Y-90605028D02*
X164480526Y-90605028D01*
X165480526Y-91081219D02*
X165480526Y-90081219D01*
X165480526Y-90081219D02*
X165718621Y-90081219D01*
X165718621Y-90081219D02*
X165861478Y-90128838D01*
X165861478Y-90128838D02*
X165956716Y-90224076D01*
X165956716Y-90224076D02*
X166004335Y-90319314D01*
X166004335Y-90319314D02*
X166051954Y-90509790D01*
X166051954Y-90509790D02*
X166051954Y-90652647D01*
X166051954Y-90652647D02*
X166004335Y-90843123D01*
X166004335Y-90843123D02*
X165956716Y-90938361D01*
X165956716Y-90938361D02*
X165861478Y-91033600D01*
X165861478Y-91033600D02*
X165718621Y-91081219D01*
X165718621Y-91081219D02*
X165480526Y-91081219D01*
X166242431Y-91176457D02*
X167004335Y-91176457D01*
X167099574Y-90081219D02*
X167671002Y-90081219D01*
X167385288Y-91081219D02*
X167385288Y-90081219D01*
X167909098Y-90081219D02*
X168575764Y-91081219D01*
X168575764Y-90081219D02*
X167909098Y-91081219D01*
X166379307Y-86290257D02*
X166426926Y-86242638D01*
X166426926Y-86242638D02*
X166522164Y-86195019D01*
X166522164Y-86195019D02*
X166760259Y-86195019D01*
X166760259Y-86195019D02*
X166855497Y-86242638D01*
X166855497Y-86242638D02*
X166903116Y-86290257D01*
X166903116Y-86290257D02*
X166950735Y-86385495D01*
X166950735Y-86385495D02*
X166950735Y-86480733D01*
X166950735Y-86480733D02*
X166903116Y-86623590D01*
X166903116Y-86623590D02*
X166331688Y-87195019D01*
X166331688Y-87195019D02*
X166950735Y-87195019D01*
X167807878Y-86528352D02*
X167807878Y-87195019D01*
X167569783Y-86147400D02*
X167331688Y-86861685D01*
X167331688Y-86861685D02*
X167950735Y-86861685D01*
X168188831Y-86195019D02*
X168522164Y-87195019D01*
X168522164Y-87195019D02*
X168855497Y-86195019D01*
X166569735Y-97825038D02*
X166474497Y-97777419D01*
X166474497Y-97777419D02*
X166331640Y-97777419D01*
X166331640Y-97777419D02*
X166188783Y-97825038D01*
X166188783Y-97825038D02*
X166093545Y-97920276D01*
X166093545Y-97920276D02*
X166045926Y-98015514D01*
X166045926Y-98015514D02*
X165998307Y-98205990D01*
X165998307Y-98205990D02*
X165998307Y-98348847D01*
X165998307Y-98348847D02*
X166045926Y-98539323D01*
X166045926Y-98539323D02*
X166093545Y-98634561D01*
X166093545Y-98634561D02*
X166188783Y-98729800D01*
X166188783Y-98729800D02*
X166331640Y-98777419D01*
X166331640Y-98777419D02*
X166426878Y-98777419D01*
X166426878Y-98777419D02*
X166569735Y-98729800D01*
X166569735Y-98729800D02*
X166617354Y-98682180D01*
X166617354Y-98682180D02*
X166617354Y-98348847D01*
X166617354Y-98348847D02*
X166426878Y-98348847D01*
X167045926Y-98777419D02*
X167045926Y-97777419D01*
X167045926Y-97777419D02*
X167617354Y-98777419D01*
X167617354Y-98777419D02*
X167617354Y-97777419D01*
X168093545Y-98777419D02*
X168093545Y-97777419D01*
X168093545Y-97777419D02*
X168331640Y-97777419D01*
X168331640Y-97777419D02*
X168474497Y-97825038D01*
X168474497Y-97825038D02*
X168569735Y-97920276D01*
X168569735Y-97920276D02*
X168617354Y-98015514D01*
X168617354Y-98015514D02*
X168664973Y-98205990D01*
X168664973Y-98205990D02*
X168664973Y-98348847D01*
X168664973Y-98348847D02*
X168617354Y-98539323D01*
X168617354Y-98539323D02*
X168569735Y-98634561D01*
X168569735Y-98634561D02*
X168474497Y-98729800D01*
X168474497Y-98729800D02*
X168331640Y-98777419D01*
X168331640Y-98777419D02*
X168093545Y-98777419D01*
X104314261Y-70704904D02*
X104790451Y-70704904D01*
X104219023Y-70990619D02*
X104552356Y-69990619D01*
X104552356Y-69990619D02*
X104885689Y-70990619D01*
X105742832Y-70990619D02*
X105171404Y-70990619D01*
X105457118Y-70990619D02*
X105457118Y-69990619D01*
X105457118Y-69990619D02*
X105361880Y-70133476D01*
X105361880Y-70133476D02*
X105266642Y-70228714D01*
X105266642Y-70228714D02*
X105171404Y-70276333D01*
D11*
X84732452Y-52771419D02*
X84732452Y-51771419D01*
X85303880Y-52771419D02*
X84875309Y-52199990D01*
X85303880Y-51771419D02*
X84732452Y-52342847D01*
X85637214Y-51771419D02*
X86256261Y-51771419D01*
X86256261Y-51771419D02*
X85922928Y-52152371D01*
X85922928Y-52152371D02*
X86065785Y-52152371D01*
X86065785Y-52152371D02*
X86161023Y-52199990D01*
X86161023Y-52199990D02*
X86208642Y-52247609D01*
X86208642Y-52247609D02*
X86256261Y-52342847D01*
X86256261Y-52342847D02*
X86256261Y-52580942D01*
X86256261Y-52580942D02*
X86208642Y-52676180D01*
X86208642Y-52676180D02*
X86161023Y-52723800D01*
X86161023Y-52723800D02*
X86065785Y-52771419D01*
X86065785Y-52771419D02*
X85780071Y-52771419D01*
X85780071Y-52771419D02*
X85684833Y-52723800D01*
X85684833Y-52723800D02*
X85637214Y-52676180D01*
D10*
X148696061Y-63947219D02*
X148696061Y-62947219D01*
X148696061Y-62947219D02*
X148934156Y-62947219D01*
X148934156Y-62947219D02*
X149077013Y-62994838D01*
X149077013Y-62994838D02*
X149172251Y-63090076D01*
X149172251Y-63090076D02*
X149219870Y-63185314D01*
X149219870Y-63185314D02*
X149267489Y-63375790D01*
X149267489Y-63375790D02*
X149267489Y-63518647D01*
X149267489Y-63518647D02*
X149219870Y-63709123D01*
X149219870Y-63709123D02*
X149172251Y-63804361D01*
X149172251Y-63804361D02*
X149077013Y-63899600D01*
X149077013Y-63899600D02*
X148934156Y-63947219D01*
X148934156Y-63947219D02*
X148696061Y-63947219D01*
X150219870Y-63947219D02*
X149648442Y-63947219D01*
X149934156Y-63947219D02*
X149934156Y-62947219D01*
X149934156Y-62947219D02*
X149838918Y-63090076D01*
X149838918Y-63090076D02*
X149743680Y-63185314D01*
X149743680Y-63185314D02*
X149648442Y-63232933D01*
X151172251Y-63947219D02*
X150600823Y-63947219D01*
X150886537Y-63947219D02*
X150886537Y-62947219D01*
X150886537Y-62947219D02*
X150791299Y-63090076D01*
X150791299Y-63090076D02*
X150696061Y-63185314D01*
X150696061Y-63185314D02*
X150600823Y-63232933D01*
D11*
X84732452Y-40995819D02*
X84732452Y-39995819D01*
X85303880Y-40995819D02*
X84875309Y-40424390D01*
X85303880Y-39995819D02*
X84732452Y-40567247D01*
X85684833Y-40091057D02*
X85732452Y-40043438D01*
X85732452Y-40043438D02*
X85827690Y-39995819D01*
X85827690Y-39995819D02*
X86065785Y-39995819D01*
X86065785Y-39995819D02*
X86161023Y-40043438D01*
X86161023Y-40043438D02*
X86208642Y-40091057D01*
X86208642Y-40091057D02*
X86256261Y-40186295D01*
X86256261Y-40186295D02*
X86256261Y-40281533D01*
X86256261Y-40281533D02*
X86208642Y-40424390D01*
X86208642Y-40424390D02*
X85637214Y-40995819D01*
X85637214Y-40995819D02*
X86256261Y-40995819D01*
D10*
X153461366Y-86769133D02*
X154175651Y-86769133D01*
X154175651Y-86769133D02*
X154318508Y-86816752D01*
X154318508Y-86816752D02*
X154413747Y-86911990D01*
X154413747Y-86911990D02*
X154461366Y-87054847D01*
X154461366Y-87054847D02*
X154461366Y-87150085D01*
X153461366Y-85864371D02*
X153461366Y-86054847D01*
X153461366Y-86054847D02*
X153508985Y-86150085D01*
X153508985Y-86150085D02*
X153556604Y-86197704D01*
X153556604Y-86197704D02*
X153699461Y-86292942D01*
X153699461Y-86292942D02*
X153889937Y-86340561D01*
X153889937Y-86340561D02*
X154270889Y-86340561D01*
X154270889Y-86340561D02*
X154366127Y-86292942D01*
X154366127Y-86292942D02*
X154413747Y-86245323D01*
X154413747Y-86245323D02*
X154461366Y-86150085D01*
X154461366Y-86150085D02*
X154461366Y-85959609D01*
X154461366Y-85959609D02*
X154413747Y-85864371D01*
X154413747Y-85864371D02*
X154366127Y-85816752D01*
X154366127Y-85816752D02*
X154270889Y-85769133D01*
X154270889Y-85769133D02*
X154032794Y-85769133D01*
X154032794Y-85769133D02*
X153937556Y-85816752D01*
X153937556Y-85816752D02*
X153889937Y-85864371D01*
X153889937Y-85864371D02*
X153842318Y-85959609D01*
X153842318Y-85959609D02*
X153842318Y-86150085D01*
X153842318Y-86150085D02*
X153889937Y-86245323D01*
X153889937Y-86245323D02*
X153937556Y-86292942D01*
X153937556Y-86292942D02*
X154032794Y-86340561D01*
D11*
X71424566Y-47169294D02*
X70424566Y-47169294D01*
X71424566Y-46597866D02*
X70853137Y-47026437D01*
X70424566Y-46597866D02*
X70995994Y-47169294D01*
X71424566Y-45645485D02*
X71424566Y-46216913D01*
X71424566Y-45931199D02*
X70424566Y-45931199D01*
X70424566Y-45931199D02*
X70567423Y-46026437D01*
X70567423Y-46026437D02*
X70662661Y-46121675D01*
X70662661Y-46121675D02*
X70710280Y-46216913D01*
D10*
X153461366Y-90769133D02*
X154175651Y-90769133D01*
X154175651Y-90769133D02*
X154318508Y-90816752D01*
X154318508Y-90816752D02*
X154413747Y-90911990D01*
X154413747Y-90911990D02*
X154461366Y-91054847D01*
X154461366Y-91054847D02*
X154461366Y-91150085D01*
X153461366Y-90388180D02*
X153461366Y-89721514D01*
X153461366Y-89721514D02*
X154461366Y-90150085D01*
X135969727Y-52414466D02*
X136017347Y-52462085D01*
X136017347Y-52462085D02*
X136064966Y-52604942D01*
X136064966Y-52604942D02*
X136064966Y-52700180D01*
X136064966Y-52700180D02*
X136017347Y-52843037D01*
X136017347Y-52843037D02*
X135922108Y-52938275D01*
X135922108Y-52938275D02*
X135826870Y-52985894D01*
X135826870Y-52985894D02*
X135636394Y-53033513D01*
X135636394Y-53033513D02*
X135493537Y-53033513D01*
X135493537Y-53033513D02*
X135303061Y-52985894D01*
X135303061Y-52985894D02*
X135207823Y-52938275D01*
X135207823Y-52938275D02*
X135112585Y-52843037D01*
X135112585Y-52843037D02*
X135064966Y-52700180D01*
X135064966Y-52700180D02*
X135064966Y-52604942D01*
X135064966Y-52604942D02*
X135112585Y-52462085D01*
X135112585Y-52462085D02*
X135160204Y-52414466D01*
X135493537Y-51843037D02*
X135445918Y-51938275D01*
X135445918Y-51938275D02*
X135398299Y-51985894D01*
X135398299Y-51985894D02*
X135303061Y-52033513D01*
X135303061Y-52033513D02*
X135255442Y-52033513D01*
X135255442Y-52033513D02*
X135160204Y-51985894D01*
X135160204Y-51985894D02*
X135112585Y-51938275D01*
X135112585Y-51938275D02*
X135064966Y-51843037D01*
X135064966Y-51843037D02*
X135064966Y-51652561D01*
X135064966Y-51652561D02*
X135112585Y-51557323D01*
X135112585Y-51557323D02*
X135160204Y-51509704D01*
X135160204Y-51509704D02*
X135255442Y-51462085D01*
X135255442Y-51462085D02*
X135303061Y-51462085D01*
X135303061Y-51462085D02*
X135398299Y-51509704D01*
X135398299Y-51509704D02*
X135445918Y-51557323D01*
X135445918Y-51557323D02*
X135493537Y-51652561D01*
X135493537Y-51652561D02*
X135493537Y-51843037D01*
X135493537Y-51843037D02*
X135541156Y-51938275D01*
X135541156Y-51938275D02*
X135588775Y-51985894D01*
X135588775Y-51985894D02*
X135684013Y-52033513D01*
X135684013Y-52033513D02*
X135874489Y-52033513D01*
X135874489Y-52033513D02*
X135969727Y-51985894D01*
X135969727Y-51985894D02*
X136017347Y-51938275D01*
X136017347Y-51938275D02*
X136064966Y-51843037D01*
X136064966Y-51843037D02*
X136064966Y-51652561D01*
X136064966Y-51652561D02*
X136017347Y-51557323D01*
X136017347Y-51557323D02*
X135969727Y-51509704D01*
X135969727Y-51509704D02*
X135874489Y-51462085D01*
X135874489Y-51462085D02*
X135684013Y-51462085D01*
X135684013Y-51462085D02*
X135588775Y-51509704D01*
X135588775Y-51509704D02*
X135541156Y-51557323D01*
X135541156Y-51557323D02*
X135493537Y-51652561D01*
D11*
X172411613Y-79897819D02*
X172411613Y-80612104D01*
X172411613Y-80612104D02*
X172363994Y-80754961D01*
X172363994Y-80754961D02*
X172268756Y-80850200D01*
X172268756Y-80850200D02*
X172125899Y-80897819D01*
X172125899Y-80897819D02*
X172030661Y-80897819D01*
X173363994Y-79897819D02*
X172887804Y-79897819D01*
X172887804Y-79897819D02*
X172840185Y-80374009D01*
X172840185Y-80374009D02*
X172887804Y-80326390D01*
X172887804Y-80326390D02*
X172983042Y-80278771D01*
X172983042Y-80278771D02*
X173221137Y-80278771D01*
X173221137Y-80278771D02*
X173316375Y-80326390D01*
X173316375Y-80326390D02*
X173363994Y-80374009D01*
X173363994Y-80374009D02*
X173411613Y-80469247D01*
X173411613Y-80469247D02*
X173411613Y-80707342D01*
X173411613Y-80707342D02*
X173363994Y-80802580D01*
X173363994Y-80802580D02*
X173316375Y-80850200D01*
X173316375Y-80850200D02*
X173221137Y-80897819D01*
X173221137Y-80897819D02*
X172983042Y-80897819D01*
X172983042Y-80897819D02*
X172887804Y-80850200D01*
X172887804Y-80850200D02*
X172840185Y-80802580D01*
D12*
%TO.C,A1*%
X69338547Y-104065800D02*
X69338547Y-115745800D01*
X69338547Y-115745800D02*
X75688547Y-115745800D01*
X73788547Y-74855800D02*
X73788547Y-83995800D01*
X73788547Y-83995800D02*
X75688547Y-83995800D01*
X75688547Y-71675800D02*
X75688547Y-74855800D01*
X75688547Y-74855800D02*
X73788547Y-74855800D01*
X75688547Y-83995800D02*
X75688547Y-104065800D01*
X75688547Y-104065800D02*
X69338547Y-104065800D01*
X75688547Y-115745800D02*
X75688547Y-125275800D01*
X75688547Y-125275800D02*
X140338547Y-125275800D01*
X140338547Y-125275800D02*
X141988547Y-123625800D01*
X141988547Y-71675800D02*
X75688547Y-71675800D01*
X141988547Y-74345800D02*
X141988547Y-71675800D01*
X141988547Y-112195800D02*
X144528547Y-109655800D01*
X141988547Y-123625800D02*
X141988547Y-112195800D01*
X144528547Y-76885800D02*
X141988547Y-74345800D01*
X144528547Y-109655800D02*
X144528547Y-76885800D01*
%TO.C,K3*%
D11*
X77670547Y-57614000D02*
X93270547Y-57614000D01*
X93270547Y-47014000D01*
X77670547Y-47014000D01*
X77670547Y-57614000D01*
D12*
%TO.C,D11*%
X148250347Y-64187400D02*
X148250347Y-65657400D01*
X148250347Y-65657400D02*
X150710347Y-65657400D01*
X150710347Y-64187400D02*
X148250347Y-64187400D01*
%TO.C,K2*%
D11*
X77670547Y-45838400D02*
X93270547Y-45838400D01*
X93270547Y-35238400D01*
X77670547Y-35238400D01*
X77670547Y-45838400D01*
D12*
%TO.C,J6*%
X147366547Y-85105800D02*
X147366547Y-87765800D01*
X149966547Y-85105800D02*
X147366547Y-85105800D01*
X149966547Y-85105800D02*
X149966547Y-87765800D01*
X149966547Y-87765800D02*
X147366547Y-87765800D01*
X152566547Y-86435800D02*
X152566547Y-87765800D01*
X152566547Y-87765800D02*
X151236547Y-87765800D01*
%TO.C,K1*%
D11*
X76267147Y-54231200D02*
X65667147Y-54231200D01*
X65667147Y-38631200D01*
X76267147Y-38631200D01*
X76267147Y-54231200D01*
D12*
%TO.C,J7*%
X147366547Y-89105800D02*
X147366547Y-91765800D01*
X149966547Y-89105800D02*
X147366547Y-89105800D01*
X149966547Y-89105800D02*
X149966547Y-91765800D01*
X149966547Y-91765800D02*
X147366547Y-91765800D01*
X152566547Y-90435800D02*
X152566547Y-91765800D01*
X152566547Y-91765800D02*
X151236547Y-91765800D01*
D13*
%TO.C,*%
G36*
X130502113Y-37910065D02*
G01*
X128293418Y-37910065D01*
X128293418Y-37063399D01*
X130502113Y-37063399D01*
X130502113Y-37910065D01*
G37*
G36*
X131606461Y-37910065D02*
G01*
X130756963Y-37910065D01*
X130756963Y-37063399D01*
X131606461Y-37063399D01*
X131606461Y-37910065D01*
G37*
G36*
X132710809Y-37910065D02*
G01*
X131861310Y-37910065D01*
X131861310Y-36898592D01*
X129355290Y-36851732D01*
X129329614Y-36407232D01*
X129303937Y-35962732D01*
X131861310Y-35962732D01*
X131861310Y-35116065D01*
X132710809Y-35116065D01*
X132710809Y-37910065D01*
G37*
G36*
X133221852Y-38182440D02*
G01*
X133264701Y-38237845D01*
X133289880Y-38374009D01*
X133301932Y-38618698D01*
X133305396Y-38999682D01*
X133305458Y-39089190D01*
X133303603Y-39498192D01*
X133294449Y-39767088D01*
X133272612Y-39925096D01*
X133232707Y-40001432D01*
X133169350Y-40025313D01*
X133132684Y-40026732D01*
X133056666Y-40017305D01*
X133008190Y-39969235D01*
X132982402Y-39852839D01*
X132974449Y-39638433D01*
X132979476Y-39296333D01*
X132984022Y-39117569D01*
X132998160Y-38709492D01*
X133018341Y-38441118D01*
X133050025Y-38282818D01*
X133098673Y-38204964D01*
X133156795Y-38180027D01*
X133221852Y-38182440D01*
G37*
G36*
X138906863Y-38585511D02*
G01*
X138912147Y-38662195D01*
X138855262Y-38812238D01*
X138759237Y-38841399D01*
X138572319Y-38891180D01*
X138458569Y-39053953D01*
X138407634Y-39349860D01*
X138402448Y-39535665D01*
X138395816Y-39813610D01*
X138366864Y-39961722D01*
X138302001Y-40019276D01*
X138232548Y-40026732D01*
X138149894Y-40013324D01*
X138099427Y-39951012D01*
X138073316Y-39806665D01*
X138063729Y-39547154D01*
X138062648Y-39308014D01*
X138065108Y-38959557D01*
X138078419Y-38747148D01*
X138111475Y-38637514D01*
X138173171Y-38597378D01*
X138253785Y-38593034D01*
X138485818Y-38575235D01*
X138678535Y-38539882D01*
X138846573Y-38517909D01*
X138906863Y-38585511D01*
G37*
G36*
X140439337Y-38600947D02*
G01*
X140489859Y-38663799D01*
X140515829Y-38809267D01*
X140525211Y-39070665D01*
X140526193Y-39297804D01*
X140526193Y-40008210D01*
X139983467Y-40016325D01*
X139630256Y-40005322D01*
X139415962Y-39956013D01*
X139334912Y-39897349D01*
X139275739Y-39752110D01*
X139222436Y-39493657D01*
X139186625Y-39178829D01*
X139167804Y-38869658D01*
X139172688Y-38692559D01*
X139209870Y-38610941D01*
X139287939Y-38588212D01*
X139325481Y-38587399D01*
X139433218Y-38606423D01*
X139487302Y-38691574D01*
X139505540Y-38884969D01*
X139506795Y-39016298D01*
X139541220Y-39422052D01*
X139644661Y-39673525D01*
X139817372Y-39771280D01*
X139846595Y-39772732D01*
X140028864Y-39696099D01*
X140141829Y-39465827D01*
X140185742Y-39081351D01*
X140186394Y-39016298D01*
X140195104Y-38760349D01*
X140232169Y-38631902D01*
X140313995Y-38589547D01*
X140356294Y-38587399D01*
X140439337Y-38600947D01*
G37*
G36*
X134751101Y-38555094D02*
G01*
X134919880Y-38655343D01*
X135032352Y-38770439D01*
X135100721Y-38922562D01*
X135139954Y-39159749D01*
X135159348Y-39423877D01*
X135173652Y-39736988D01*
X135166346Y-39917507D01*
X135128693Y-40001687D01*
X135051954Y-40025784D01*
X135014041Y-40026732D01*
X134910058Y-40008647D01*
X134856241Y-39927137D01*
X134836596Y-39741316D01*
X134834555Y-39567990D01*
X134821893Y-39207161D01*
X134775801Y-38985206D01*
X134684113Y-38872998D01*
X134534667Y-38841408D01*
X134531130Y-38841399D01*
X134335712Y-38903745D01*
X134213526Y-39098181D01*
X134159054Y-39435806D01*
X134154956Y-39597832D01*
X134137967Y-39878882D01*
X134083949Y-40011055D01*
X134041690Y-40026732D01*
X133897212Y-39989123D01*
X133871790Y-39970287D01*
X133845037Y-39864281D01*
X133825098Y-39634128D01*
X133815521Y-39324984D01*
X133815157Y-39249276D01*
X133815157Y-38584709D01*
X134048769Y-38590586D01*
X134316653Y-38574555D01*
X134498485Y-38543063D01*
X134751101Y-38555094D01*
G37*
G36*
X137348241Y-38230803D02*
G01*
X137383050Y-38369524D01*
X137420478Y-38538592D01*
X137551467Y-38587396D01*
X137552949Y-38587399D01*
X137691315Y-38640338D01*
X137722849Y-38714399D01*
X137651593Y-38817728D01*
X137548510Y-38841399D01*
X137447597Y-38858795D01*
X137400095Y-38938580D01*
X137392159Y-39122150D01*
X137399848Y-39285899D01*
X137425474Y-39550842D01*
X137472495Y-39683148D01*
X137555643Y-39719384D01*
X137574187Y-39718639D01*
X137699981Y-39773190D01*
X137722849Y-39866806D01*
X137656815Y-39987199D01*
X137499956Y-40033732D01*
X137314139Y-40006809D01*
X137161228Y-39906829D01*
X137131189Y-39862965D01*
X137079397Y-39683680D01*
X137047798Y-39414615D01*
X137043250Y-39270298D01*
X137029938Y-39002132D01*
X136983757Y-38870140D01*
X136915826Y-38841399D01*
X136803202Y-38773626D01*
X136788401Y-38714399D01*
X136853371Y-38602082D01*
X136909917Y-38587399D01*
X137015390Y-38515355D01*
X137058579Y-38397763D01*
X137130551Y-38230720D01*
X137245869Y-38173433D01*
X137348241Y-38230803D01*
G37*
G36*
X146430826Y-38622350D02*
G01*
X146540021Y-38708170D01*
X146603548Y-38817455D01*
X146633583Y-38994558D01*
X146642301Y-39283832D01*
X146642581Y-39393684D01*
X146635872Y-39728040D01*
X146611632Y-39924090D01*
X146563692Y-40012480D01*
X146515157Y-40026732D01*
X146437807Y-39984406D01*
X146398292Y-39836178D01*
X146387732Y-39567990D01*
X146375071Y-39207161D01*
X146328978Y-38985206D01*
X146237290Y-38872998D01*
X146087844Y-38841408D01*
X146084308Y-38841399D01*
X145888889Y-38903745D01*
X145766703Y-39098181D01*
X145712231Y-39435806D01*
X145708133Y-39597832D01*
X145699423Y-39853782D01*
X145662358Y-39982228D01*
X145580533Y-40024583D01*
X145538234Y-40026732D01*
X145455903Y-40013439D01*
X145405484Y-39951573D01*
X145379257Y-39808155D01*
X145369501Y-39550204D01*
X145368334Y-39301006D01*
X145370580Y-38950885D01*
X145383164Y-38737683D01*
X145414851Y-38628994D01*
X145474406Y-38592409D01*
X145559471Y-38594386D01*
X145789065Y-38585903D01*
X145984839Y-38548779D01*
X146262791Y-38543384D01*
X146430826Y-38622350D01*
G37*
G36*
X147506345Y-38251195D02*
G01*
X147561700Y-38397763D01*
X147646186Y-38556385D01*
X147752838Y-38587399D01*
X147887277Y-38641892D01*
X147916829Y-38714399D01*
X147846007Y-38817827D01*
X147746929Y-38841399D01*
X147649211Y-38861364D01*
X147598035Y-38947885D01*
X147579008Y-39140895D01*
X147577030Y-39312771D01*
X147582390Y-39579460D01*
X147608121Y-39712504D01*
X147668702Y-39747488D01*
X147746929Y-39730399D01*
X147880169Y-39723171D01*
X147916793Y-39844514D01*
X147916829Y-39851693D01*
X147875796Y-39982576D01*
X147723849Y-40025801D01*
X147678969Y-40026732D01*
X147466712Y-39992423D01*
X147339170Y-39925132D01*
X147283498Y-39789405D01*
X147246472Y-39545396D01*
X147237230Y-39332465D01*
X147226835Y-39043099D01*
X147190125Y-38890166D01*
X147118811Y-38841726D01*
X147109805Y-38841399D01*
X146997182Y-38773626D01*
X146982381Y-38714399D01*
X147050380Y-38602150D01*
X147109805Y-38587399D01*
X147212085Y-38513468D01*
X147237230Y-38369524D01*
X147285896Y-38212980D01*
X147394365Y-38175170D01*
X147506345Y-38251195D01*
G37*
G36*
X136289482Y-38553806D02*
G01*
X136460428Y-38666055D01*
X136590909Y-38804160D01*
X136581296Y-38908111D01*
X136564804Y-38927007D01*
X136444647Y-38980208D01*
X136299970Y-38919654D01*
X136139247Y-38866030D01*
X135980958Y-38873983D01*
X135885018Y-38931653D01*
X135890241Y-39000755D01*
X136000270Y-39075341D01*
X136171237Y-39135159D01*
X136383322Y-39209224D01*
X136511839Y-39281906D01*
X136597779Y-39444649D01*
X136611773Y-39672474D01*
X136553169Y-39876756D01*
X136516561Y-39925132D01*
X136341426Y-40003212D01*
X136083152Y-40022556D01*
X135817311Y-39984856D01*
X135636577Y-39905432D01*
X135528194Y-39793464D01*
X135562345Y-39693155D01*
X135576149Y-39678542D01*
X135689478Y-39616679D01*
X135848022Y-39663017D01*
X135888980Y-39684093D01*
X136093668Y-39746795D01*
X136271228Y-39729148D01*
X136361361Y-39639605D01*
X136363652Y-39617558D01*
X136291407Y-39545836D01*
X136107636Y-39448565D01*
X135981377Y-39396232D01*
X135745651Y-39292272D01*
X135632380Y-39188756D01*
X135599669Y-39043195D01*
X135599103Y-39008530D01*
X135674463Y-38750350D01*
X135787905Y-38634533D01*
X136047294Y-38515504D01*
X136289482Y-38553806D01*
G37*
G36*
X148862057Y-38553806D02*
G01*
X149033003Y-38666055D01*
X149163485Y-38804160D01*
X149153871Y-38908111D01*
X149137379Y-38927007D01*
X149017222Y-38980208D01*
X148872545Y-38919654D01*
X148711822Y-38866030D01*
X148553533Y-38873983D01*
X148457593Y-38931653D01*
X148462816Y-39000755D01*
X148572845Y-39075341D01*
X148743812Y-39135159D01*
X148955898Y-39209224D01*
X149084414Y-39281906D01*
X149170354Y-39444649D01*
X149184348Y-39672474D01*
X149125744Y-39876756D01*
X149089137Y-39925132D01*
X148914002Y-40003212D01*
X148655727Y-40022556D01*
X148389887Y-39984856D01*
X148209152Y-39905432D01*
X148100770Y-39793464D01*
X148134920Y-39693155D01*
X148148724Y-39678542D01*
X148262053Y-39616679D01*
X148420597Y-39663017D01*
X148461555Y-39684093D01*
X148666243Y-39746795D01*
X148843804Y-39729148D01*
X148933936Y-39639605D01*
X148936227Y-39617558D01*
X148863982Y-39545836D01*
X148680211Y-39448565D01*
X148553953Y-39396232D01*
X148318226Y-39292272D01*
X148204955Y-39188756D01*
X148172244Y-39043195D01*
X148171678Y-39008530D01*
X148247039Y-38750350D01*
X148360480Y-38634533D01*
X148619869Y-38515504D01*
X148862057Y-38553806D01*
G37*
G36*
X144647906Y-38639087D02*
G01*
X144881494Y-38868578D01*
X144928682Y-38953146D01*
X145010345Y-39183272D01*
X144977451Y-39329337D01*
X144813543Y-39407424D01*
X144502163Y-39433616D01*
X144436552Y-39434065D01*
X144123428Y-39445170D01*
X143963386Y-39484539D01*
X143940701Y-39561254D01*
X144026127Y-39671132D01*
X144226654Y-39764634D01*
X144463293Y-39734001D01*
X144599037Y-39650015D01*
X144770816Y-39575244D01*
X144857197Y-39602513D01*
X144927975Y-39677262D01*
X144881085Y-39782060D01*
X144820853Y-39852230D01*
X144589425Y-39993884D01*
X144290021Y-40034068D01*
X143989648Y-39974147D01*
X143769095Y-39830775D01*
X143626118Y-39575918D01*
X143579663Y-39262183D01*
X143616014Y-39046255D01*
X143964679Y-39046255D01*
X144022223Y-39084738D01*
X144214972Y-39095261D01*
X144260664Y-39095399D01*
X144500079Y-39076648D01*
X144585987Y-39017664D01*
X144583076Y-38989565D01*
X144474209Y-38891042D01*
X144286019Y-38860756D01*
X144096158Y-38902170D01*
X144012701Y-38964118D01*
X143964679Y-39046255D01*
X143616014Y-39046255D01*
X143630817Y-38958320D01*
X143752126Y-38758885D01*
X144038382Y-38576837D01*
X144351922Y-38539372D01*
X144647906Y-38639087D01*
G37*
G36*
X142876183Y-38639625D02*
G01*
X142942191Y-38701646D01*
X143063388Y-38845276D01*
X143129318Y-39006552D01*
X143155906Y-39241932D01*
X143159638Y-39472550D01*
X143154415Y-39771640D01*
X143131120Y-39938828D01*
X143078318Y-40011418D01*
X142989739Y-40026732D01*
X142897966Y-40009658D01*
X142846708Y-39933546D01*
X142824492Y-39761058D01*
X142819839Y-39473741D01*
X142810136Y-39155865D01*
X142775486Y-38970254D01*
X142707577Y-38880653D01*
X142680868Y-38867600D01*
X142482505Y-38850765D01*
X142345187Y-38980292D01*
X142264870Y-39262071D01*
X142242374Y-39506368D01*
X142221120Y-39796538D01*
X142184223Y-39954755D01*
X142118237Y-40018388D01*
X142055118Y-40026732D01*
X141967279Y-40005787D01*
X141914315Y-39918922D01*
X141884429Y-39730091D01*
X141868035Y-39455232D01*
X141849361Y-39149425D01*
X141817697Y-38973923D01*
X141758954Y-38889701D01*
X141659039Y-38857734D01*
X141651916Y-38856694D01*
X141474420Y-38906617D01*
X141354960Y-39110315D01*
X141296445Y-39461390D01*
X141290742Y-39651244D01*
X141273587Y-39900362D01*
X141215420Y-40012605D01*
X141163317Y-40026732D01*
X141099576Y-39995982D01*
X141060580Y-39884058D01*
X141041097Y-39661445D01*
X141035892Y-39308014D01*
X141038443Y-38959315D01*
X141052028Y-38746275D01*
X141085544Y-38635232D01*
X141147888Y-38592523D01*
X141227030Y-38584876D01*
X141537028Y-38581298D01*
X141858040Y-38582969D01*
X142103536Y-38589374D01*
X142119003Y-38590167D01*
X142313960Y-38576189D01*
X142496205Y-38541617D01*
X142694402Y-38533131D01*
X142876183Y-38639625D01*
G37*
G36*
X135089404Y-34862065D02*
G01*
X133900106Y-34862065D01*
X133900106Y-36005065D01*
X133902795Y-36473381D01*
X133912691Y-36797067D01*
X133932543Y-37000769D01*
X133965097Y-37109133D01*
X134013103Y-37146804D01*
X134027531Y-37148065D01*
X134087299Y-37119878D01*
X134125528Y-37016653D01*
X134146487Y-36810396D01*
X134154449Y-36473113D01*
X134154956Y-36312817D01*
X134159805Y-35911004D01*
X134178844Y-35637874D01*
X134218807Y-35452939D01*
X134286431Y-35315712D01*
X134331021Y-35254483D01*
X134507087Y-35031399D01*
X136311106Y-35031399D01*
X136945546Y-35033752D01*
X137430503Y-35041639D01*
X137786339Y-35056299D01*
X138033416Y-35078973D01*
X138192096Y-35110900D01*
X138280024Y-35151304D01*
X138349870Y-35221061D01*
X138400099Y-35331878D01*
X138435976Y-35513654D01*
X138462762Y-35796292D01*
X138485723Y-36209693D01*
X138492395Y-36357804D01*
X138539867Y-37444399D01*
X138556107Y-36407232D01*
X138567614Y-35896737D01*
X138598832Y-35531302D01*
X138672569Y-35286679D01*
X138811637Y-35138624D01*
X139038845Y-35062889D01*
X139377004Y-35035230D01*
X139848923Y-35031398D01*
X139850456Y-35031398D01*
X140265248Y-35033782D01*
X140546810Y-35045362D01*
X140731790Y-35072778D01*
X140856838Y-35122672D01*
X140958604Y-35201686D01*
X140997279Y-35239217D01*
X141205792Y-35447035D01*
X141414305Y-35239217D01*
X141491100Y-35167131D01*
X141572819Y-35114000D01*
X141684875Y-35076934D01*
X141852679Y-35053040D01*
X142101644Y-35039427D01*
X142457183Y-35033204D01*
X142944707Y-35031478D01*
X143240727Y-35031399D01*
X144858635Y-35031399D01*
X144858635Y-36978732D01*
X145623183Y-36978732D01*
X145623183Y-35031399D01*
X146090407Y-35031399D01*
X146358098Y-35037027D01*
X146497491Y-35066224D01*
X146550109Y-35137461D01*
X146557632Y-35239217D01*
X146557632Y-35447035D01*
X146766145Y-35239217D01*
X146852939Y-35159355D01*
X146946321Y-35103111D01*
X147075878Y-35066349D01*
X147271193Y-35044935D01*
X147561850Y-35034731D01*
X147977435Y-35031602D01*
X148252767Y-35031399D01*
X149530876Y-35031399D01*
X149530876Y-35878065D01*
X148511478Y-35878065D01*
X148071972Y-35881249D01*
X147776291Y-35892961D01*
X147598444Y-35916437D01*
X147512440Y-35954918D01*
X147492080Y-36005065D01*
X147524374Y-36070618D01*
X147641453Y-36109775D01*
X147873609Y-36128278D01*
X148162267Y-36132065D01*
X148604143Y-36150941D01*
X148906973Y-36219342D01*
X149098577Y-36354932D01*
X149206775Y-36575373D01*
X149251883Y-36823866D01*
X149256697Y-37140533D01*
X149214347Y-37448110D01*
X149194944Y-37517384D01*
X149136392Y-37656243D01*
X149050695Y-37766312D01*
X148919581Y-37850532D01*
X148724775Y-37911847D01*
X148448005Y-37953198D01*
X148070995Y-37977526D01*
X147575473Y-37987774D01*
X146943165Y-37986884D01*
X146321057Y-37980056D01*
X144239640Y-37952399D01*
X143894830Y-37491827D01*
X143801031Y-37679343D01*
X143736288Y-37775049D01*
X143635716Y-37847975D01*
X143477462Y-37901353D01*
X143239676Y-37938416D01*
X142900505Y-37962395D01*
X142438100Y-37976524D01*
X141830609Y-37984034D01*
X141736729Y-37984715D01*
X140271344Y-37994732D01*
X140271344Y-37069322D01*
X141205792Y-37069322D01*
X141419542Y-37063399D01*
X146557632Y-37063399D01*
X147407130Y-37063399D01*
X147803269Y-37059202D01*
X148057598Y-37043826D01*
X148198063Y-37013094D01*
X148252608Y-36962828D01*
X148256628Y-36936399D01*
X148225674Y-36872723D01*
X148113037Y-36833834D01*
X147889053Y-36814478D01*
X147539372Y-36809399D01*
X147182291Y-36805022D01*
X146954545Y-36785917D01*
X146815667Y-36743119D01*
X146725188Y-36667665D01*
X146689873Y-36621226D01*
X146603449Y-36508141D01*
X146566383Y-36518266D01*
X146557784Y-36671664D01*
X146557632Y-36748226D01*
X146557632Y-37063399D01*
X141419542Y-37063399D01*
X142076528Y-37045194D01*
X142475769Y-37026290D01*
X142761161Y-36996349D01*
X142910420Y-36958222D01*
X142926911Y-36936399D01*
X142838843Y-36894003D01*
X142620833Y-36852833D01*
X142312749Y-36819532D01*
X142164502Y-36809399D01*
X141804018Y-36785182D01*
X141575088Y-36754992D01*
X141439456Y-36707386D01*
X141358864Y-36630920D01*
X141315371Y-36555399D01*
X141248939Y-36435461D01*
X141217645Y-36438136D01*
X141207973Y-36582276D01*
X141207044Y-36706527D01*
X141205792Y-37069322D01*
X140271344Y-37069322D01*
X140271344Y-36005065D01*
X142140240Y-36005065D01*
X142172160Y-36070104D01*
X142288002Y-36109193D01*
X142517895Y-36127939D01*
X142822874Y-36132065D01*
X143173265Y-36137298D01*
X143399379Y-36160055D01*
X143546694Y-36210926D01*
X143660692Y-36300498D01*
X143693610Y-36334792D01*
X143828237Y-36476078D01*
X143901226Y-36545485D01*
X143902949Y-36546459D01*
X143916224Y-36477244D01*
X143923631Y-36293402D01*
X143924187Y-36216732D01*
X143924187Y-35878065D01*
X143032213Y-35878065D01*
X142624890Y-35881959D01*
X142359914Y-35896243D01*
X142209860Y-35924822D01*
X142147300Y-35971602D01*
X142140240Y-36005065D01*
X140271344Y-36005065D01*
X140271344Y-35962732D01*
X139512187Y-35962732D01*
X139488254Y-36957565D01*
X139464321Y-37952399D01*
X137821401Y-37952399D01*
X137254774Y-37951825D01*
X136833502Y-37948291D01*
X136533038Y-37939080D01*
X136328837Y-37921474D01*
X136196353Y-37892754D01*
X136111041Y-37850204D01*
X136048354Y-37791104D01*
X136016217Y-37752519D01*
X135914785Y-37569513D01*
X135864606Y-37309294D01*
X135853953Y-37017831D01*
X135854974Y-36978732D01*
X136873351Y-36978732D01*
X136901846Y-37089516D01*
X137017019Y-37138478D01*
X137213150Y-37148065D01*
X137435459Y-37133865D01*
X137533711Y-37076471D01*
X137552949Y-36978732D01*
X137524454Y-36867948D01*
X137409281Y-36818986D01*
X137213150Y-36809399D01*
X136990841Y-36823599D01*
X136892589Y-36880993D01*
X136873351Y-36978732D01*
X135854974Y-36978732D01*
X135861896Y-36713700D01*
X135897024Y-36524816D01*
X135976284Y-36397398D01*
X136077783Y-36307544D01*
X136238273Y-36210299D01*
X136441891Y-36156004D01*
X136739579Y-36134135D01*
X136927282Y-36132065D01*
X137244047Y-36121384D01*
X137464329Y-36092544D01*
X137552624Y-36050349D01*
X137552949Y-36047399D01*
X137470612Y-36012491D01*
X137233727Y-35986053D01*
X136857481Y-35969126D01*
X136357061Y-35962756D01*
X136321177Y-35962732D01*
X135089404Y-35962732D01*
X135089404Y-37994732D01*
X134084164Y-37994732D01*
X133686774Y-37990217D01*
X133353508Y-37977934D01*
X133119954Y-37959774D01*
X133022292Y-37938287D01*
X133004049Y-37839263D01*
X132988249Y-37599105D01*
X132975912Y-37246009D01*
X132968055Y-36808170D01*
X132965658Y-36371954D01*
X132965658Y-34862065D01*
X131861310Y-34862065D01*
X131861310Y-33930732D01*
X135089404Y-33930732D01*
X135089404Y-34862065D01*
G37*
D12*
%TO.C,C8*%
X130412847Y-46937000D02*
X130412847Y-50687000D01*
X130412847Y-57457000D02*
X130412847Y-53707000D01*
X139868410Y-46937000D02*
X130412847Y-46937000D01*
X139868410Y-57457000D02*
X130412847Y-57457000D01*
X140932847Y-48001437D02*
X139868410Y-46937000D01*
X140932847Y-48001437D02*
X140932847Y-50687000D01*
X140932847Y-56392563D02*
X139868410Y-57457000D01*
X140932847Y-56392563D02*
X140932847Y-53707000D01*
X141797847Y-55582000D02*
X141797847Y-54332000D01*
X142422847Y-54957000D02*
X141172847Y-54957000D01*
%TO.C,J5*%
X169043347Y-84688600D02*
X171043347Y-84688600D01*
X171043347Y-99918600D01*
X169043347Y-99918600D01*
X169043347Y-84688600D01*
X169043347Y-84688600D02*
X176443347Y-84688600D01*
X176443347Y-99918600D01*
X169043347Y-99918600D01*
X169043347Y-84688600D01*
%TD*%
M02*
