M48
; DRILL file {KiCad 8.0.1} date 2024-05-22T14:55:14+0200
; FORMAT={-:-/ absolute / inch / decimal}
; #@! TF.CreationDate,2024-05-22T14:55:14+02:00
; #@! TF.GenerationSoftware,Kicad,Pcbnew,8.0.1
; #@! TF.FileFunction,Plated,1,4,PTH
FMAT,2
INCH
; #@! TA.AperFunction,Plated,PTH,ViaDrill
T1C0.0157
; #@! TA.AperFunction,Plated,PTH,ComponentDrill
T2C0.0394
; #@! TA.AperFunction,Plated,PTH,ComponentDrill
T3C0.0492
; #@! TA.AperFunction,Plated,PTH,ComponentDrill
T4C0.0500
; #@! TA.AperFunction,Plated,PTH,ComponentDrill
T5C0.0591
%
G90
G05
T1
X2.8395Y-3.7058
X2.845Y-2.384
X2.853Y-4.368
X2.888Y-1.452
X2.922Y-3.53
X2.9575Y-4.0488
X2.988Y-2.795
X3.086Y-3.477
X3.101Y-3.836
X3.159Y-4.045
X3.181Y-4.251
X3.199Y-4.862
X3.28Y-4.058
X3.333Y-3.929
X3.335Y-1.982
X3.372Y-1.835
X3.372Y-3.026
X3.377Y-2.864
X3.38Y-3.563
X3.399Y-3.784
X3.441Y-3.344
X3.444Y-3.635
X3.456Y-4.347
X3.457Y-3.19
X3.491Y-4.074
X3.516Y-2.517
X3.521Y-2.831
X3.562Y-4.111
X3.5677Y-3.6547
X3.572Y-3.509
X3.574Y-3.803
X3.604Y-2.967
X3.617Y-2.3664
X3.639Y-3.142
X3.704Y-2.455
X3.719Y-2.539
X3.7897Y-2.83
X3.799Y-3.162
X3.814Y-3.368
X3.835Y-3.435
X3.847Y-3.131
X3.858Y-2.544
X3.882Y-3.091
X3.892Y-3.555
X3.898Y-2.321
X3.933Y-3.583
X3.977Y-3.557
X4.007Y-2.316
X4.026Y-3.539
X4.0371Y-3.2779
X4.069Y-3.301
X4.075Y-3.374
X4.192Y-3.289
X4.205Y-2.582
X4.207Y-3.332
X4.211Y-3.198
X4.228Y-4.09
X4.318Y-3.678
X4.336Y-3.369
X4.372Y-3.832
X4.393Y-3.281
X4.485Y-3.1905
X4.626Y-3.124
X4.693Y-3.201
X4.737Y-2.454
X4.836Y-3.154
X4.911Y-3.347
X4.94Y-3.9646
X5.03Y-4.0126
X5.03Y-4.3146
X5.065Y-2.766
X5.078Y-4.578
X5.106Y-3.35
X5.142Y-3.4896
X5.145Y-3.013
X5.174Y-2.518
X5.179Y-2.712
X5.215Y-3.7826
X5.219Y-3.545
X5.236Y-3.4466
X5.245Y-3.272
X5.28Y-4.546
X5.355Y-3.126
X5.389Y-3.3246
X5.403Y-4.55
X5.462Y-3.867
X5.48Y-1.491
X5.489Y-4.495
X5.532Y-3.721
X5.552Y-2.572
X5.564Y-4.497
X5.578Y-4.556
X5.58Y-3.879
X5.633Y-3.25
X5.739Y-2.639
X5.742Y-3.866
X5.743Y-3.51
X5.765Y-2.551
X5.783Y-2.706
X5.855Y-3.241
X5.994Y-2.557
X6.092Y-3.929
X6.11Y-4.154
T2
X3.054Y-5.027
X3.054Y-5.127
X3.154Y-5.027
X3.154Y-5.127
X3.166Y-2.632
X3.166Y-2.732
X3.254Y-5.027
X3.254Y-5.127
X3.266Y-2.632
X3.266Y-2.732
X3.354Y-5.027
X3.354Y-5.127
X3.366Y-2.632
X3.366Y-2.732
X3.454Y-5.027
X3.454Y-5.127
X3.466Y-2.632
X3.466Y-2.732
X3.554Y-5.027
X3.554Y-5.127
X3.566Y-2.632
X3.566Y-2.732
X3.7251Y-4.827
X3.8251Y-4.827
X3.9251Y-4.827
X4.0251Y-4.827
X4.085Y-2.927
X4.1251Y-4.827
X4.185Y-2.927
X4.2251Y-4.827
X4.285Y-2.927
X4.3251Y-4.827
X4.385Y-2.927
X4.4251Y-4.827
X4.46Y-2.559
X4.46Y-2.659
X4.485Y-2.927
X4.5251Y-4.827
X4.56Y-2.559
X4.56Y-2.659
X4.585Y-2.927
X4.6251Y-4.827
X4.66Y-2.559
X4.66Y-2.659
X4.685Y-2.927
X4.76Y-2.559
X4.76Y-2.659
X4.785Y-2.927
X4.785Y-4.827
X4.86Y-2.559
X4.86Y-2.659
X4.885Y-4.827
X4.96Y-2.559
X4.96Y-2.659
X4.985Y-2.927
X4.985Y-4.827
X5.085Y-2.927
X5.085Y-4.827
X5.185Y-2.927
X5.185Y-4.827
X5.242Y-5.027
X5.242Y-5.127
X5.285Y-2.927
X5.285Y-4.827
X5.342Y-5.027
X5.342Y-5.127
X5.385Y-2.927
X5.385Y-4.827
X5.442Y-5.027
X5.442Y-5.127
X5.485Y-2.927
X5.485Y-4.827
X5.542Y-5.027
X5.542Y-5.127
X5.642Y-5.027
X5.642Y-5.127
X5.742Y-5.027
X5.742Y-5.127
X5.8542Y-3.403
X5.8542Y-3.5605
X5.9542Y-3.403
X5.9542Y-3.5605
T3
X2.6444Y-1.9721
X2.6444Y-2.0721
X2.9444Y-1.5721
X2.9444Y-1.9721
X2.9444Y-2.0721
X3.1209Y-1.4464
X3.1209Y-1.7464
X3.1209Y-1.91
X3.1209Y-2.21
X3.2209Y-1.4464
X3.2209Y-1.7464
X3.2209Y-1.91
X3.2209Y-2.21
X3.6209Y-1.7464
X3.6209Y-2.21
T4
X3.8562Y-1.4226
X3.8562Y-1.7375
X5.6278Y-1.4226
X5.6278Y-2.2414
T5
X5.971Y-1.941
X5.971Y-2.091
X5.971Y-2.241
X5.971Y-2.7
X5.971Y-2.85
X5.971Y-3.0
X5.971Y-3.15
M30
