%TF.GenerationSoftware,KiCad,Pcbnew,8.0.1*%
%TF.CreationDate,2024-05-22T14:55:13+02:00*%
%TF.ProjectId,TestBoardArduino,54657374-426f-4617-9264-41726475696e,rev?*%
%TF.SameCoordinates,Original*%
%TF.FileFunction,Soldermask,Bot*%
%TF.FilePolarity,Negative*%
%FSLAX46Y46*%
G04 Gerber Fmt 4.6, Leading zero omitted, Abs format (unit mm)*
G04 Created by KiCad (PCBNEW 8.0.1) date 2024-05-22 14:55:13*
%MOMM*%
%LPD*%
G01*
G04 APERTURE LIST*
G04 Aperture macros list*
%AMRoundRect*
0 Rectangle with rounded corners*
0 $1 Rounding radius*
0 $2 $3 $4 $5 $6 $7 $8 $9 X,Y pos of 4 corners*
0 Add a 4 corners polygon primitive as box body*
4,1,4,$2,$3,$4,$5,$6,$7,$8,$9,$2,$3,0*
0 Add four circle primitives for the rounded corners*
1,1,$1+$1,$2,$3*
1,1,$1+$1,$4,$5*
1,1,$1+$1,$6,$7*
1,1,$1+$1,$8,$9*
0 Add four rect primitives between the rounded corners*
20,1,$1+$1,$2,$3,$4,$5,0*
20,1,$1+$1,$4,$5,$6,$7,0*
20,1,$1+$1,$6,$7,$8,$9,0*
20,1,$1+$1,$8,$9,$2,$3,0*%
G04 Aperture macros list end*
%ADD10C,2.000000*%
%ADD11RoundRect,0.750000X-0.750000X0.750000X-0.750000X-0.750000X0.750000X-0.750000X0.750000X0.750000X0*%
%ADD12C,3.000000*%
%ADD13RoundRect,0.250000X-0.475000X0.337500X-0.475000X-0.337500X0.475000X-0.337500X0.475000X0.337500X0*%
%ADD14RoundRect,0.160000X0.160000X-0.222500X0.160000X0.222500X-0.160000X0.222500X-0.160000X-0.222500X0*%
%ADD15R,1.600000X1.600000*%
%ADD16O,1.600000X1.600000*%
%ADD17RoundRect,0.250000X0.350000X0.450000X-0.350000X0.450000X-0.350000X-0.450000X0.350000X-0.450000X0*%
%ADD18RoundRect,0.250000X0.450000X-0.350000X0.450000X0.350000X-0.450000X0.350000X-0.450000X-0.350000X0*%
%ADD19RoundRect,0.250000X-0.350000X-0.450000X0.350000X-0.450000X0.350000X0.450000X-0.350000X0.450000X0*%
%ADD20RoundRect,0.375000X0.375000X-0.625000X0.375000X0.625000X-0.375000X0.625000X-0.375000X-0.625000X0*%
%ADD21RoundRect,0.500000X1.400000X-0.500000X1.400000X0.500000X-1.400000X0.500000X-1.400000X-0.500000X0*%
%ADD22RoundRect,0.250000X0.800000X-0.450000X0.800000X0.450000X-0.800000X0.450000X-0.800000X-0.450000X0*%
%ADD23R,1.700000X1.700000*%
%ADD24O,1.700000X1.700000*%
%ADD25RoundRect,0.250000X-0.450000X-0.800000X0.450000X-0.800000X0.450000X0.800000X-0.450000X0.800000X0*%
%ADD26RoundRect,0.500000X-0.500000X0.500000X-0.500000X-0.500000X0.500000X-0.500000X0.500000X0.500000X0*%
%ADD27RoundRect,0.250000X-0.337500X-0.475000X0.337500X-0.475000X0.337500X0.475000X-0.337500X0.475000X0*%
%ADD28RoundRect,0.150000X0.587500X0.150000X-0.587500X0.150000X-0.587500X-0.150000X0.587500X-0.150000X0*%
%ADD29RoundRect,0.250000X0.337500X0.475000X-0.337500X0.475000X-0.337500X-0.475000X0.337500X-0.475000X0*%
%ADD30RoundRect,0.250000X-0.450000X0.350000X-0.450000X-0.350000X0.450000X-0.350000X0.450000X0.350000X0*%
%ADD31RoundRect,0.112500X0.112500X-0.187500X0.112500X0.187500X-0.112500X0.187500X-0.112500X-0.187500X0*%
%ADD32RoundRect,0.100000X0.637500X0.100000X-0.637500X0.100000X-0.637500X-0.100000X0.637500X-0.100000X0*%
%ADD33RoundRect,0.375000X0.625000X0.375000X-0.625000X0.375000X-0.625000X-0.375000X0.625000X-0.375000X0*%
%ADD34RoundRect,0.500000X0.500000X1.400000X-0.500000X1.400000X-0.500000X-1.400000X0.500000X-1.400000X0*%
%ADD35RoundRect,0.250000X0.450000X0.800000X-0.450000X0.800000X-0.450000X-0.800000X0.450000X-0.800000X0*%
%ADD36RoundRect,0.250000X0.475000X-0.337500X0.475000X0.337500X-0.475000X0.337500X-0.475000X-0.337500X0*%
%ADD37RoundRect,0.150000X-0.150000X0.725000X-0.150000X-0.725000X0.150000X-0.725000X0.150000X0.725000X0*%
%ADD38R,0.400000X1.100000*%
%ADD39RoundRect,0.375000X-0.375000X0.625000X-0.375000X-0.625000X0.375000X-0.625000X0.375000X0.625000X0*%
%ADD40RoundRect,0.500000X-1.400000X0.500000X-1.400000X-0.500000X1.400000X-0.500000X1.400000X0.500000X0*%
%ADD41RoundRect,0.150000X0.825000X0.150000X-0.825000X0.150000X-0.825000X-0.150000X0.825000X-0.150000X0*%
%ADD42RoundRect,0.150000X0.150000X-0.587500X0.150000X0.587500X-0.150000X0.587500X-0.150000X-0.587500X0*%
%ADD43RoundRect,0.150000X-0.150000X0.587500X-0.150000X-0.587500X0.150000X-0.587500X0.150000X0.587500X0*%
%ADD44RoundRect,0.200000X-0.200000X0.750000X-0.200000X-0.750000X0.200000X-0.750000X0.200000X0.750000X0*%
%ADD45RoundRect,0.375000X-0.625000X-0.375000X0.625000X-0.375000X0.625000X0.375000X-0.625000X0.375000X0*%
%ADD46RoundRect,0.500000X-0.500000X-1.400000X0.500000X-1.400000X0.500000X1.400000X-0.500000X1.400000X0*%
%ADD47RoundRect,0.150000X0.150000X-0.725000X0.150000X0.725000X-0.150000X0.725000X-0.150000X-0.725000X0*%
G04 APERTURE END LIST*
D10*
%TO.C,PS1*%
X142946347Y-36132800D03*
X142946347Y-56932800D03*
X97946347Y-36132800D03*
X97946347Y-44132800D03*
%TD*%
D11*
%TO.C,J8*%
X151662947Y-49301400D03*
D12*
X151662947Y-53111400D03*
X151662947Y-56921400D03*
%TD*%
D13*
%TO.C,FB1*%
X136256947Y-36765700D03*
X136256947Y-34690700D03*
%TD*%
D14*
%TO.C,F1*%
X138060347Y-34469900D03*
X138060347Y-35614900D03*
%TD*%
D15*
%TO.C,A1*%
X103758547Y-74345800D03*
D16*
X106298547Y-74345800D03*
X108838547Y-74345800D03*
X111378547Y-74345800D03*
X113918547Y-74345800D03*
X116458547Y-74345800D03*
X118998547Y-74345800D03*
X121538547Y-74345800D03*
X126618547Y-74345800D03*
X129158547Y-74345800D03*
X131698547Y-74345800D03*
X134238547Y-74345800D03*
X136778547Y-74345800D03*
X139318547Y-74345800D03*
X139318547Y-122605800D03*
X136778547Y-122605800D03*
X134238547Y-122605800D03*
X131698547Y-122605800D03*
X129158547Y-122605800D03*
X126618547Y-122605800D03*
X124078547Y-122605800D03*
X121538547Y-122605800D03*
X117478547Y-122605800D03*
X114938547Y-122605800D03*
X112398547Y-122605800D03*
X109858547Y-122605800D03*
X107318547Y-122605800D03*
X104778547Y-122605800D03*
X102238547Y-122605800D03*
X99698547Y-122605800D03*
X97158547Y-122605800D03*
X94618547Y-122605800D03*
%TD*%
D17*
%TO.C,R16*%
X87892947Y-50419000D03*
X85892947Y-50419000D03*
%TD*%
D18*
%TO.C,R24*%
X66772547Y-57921400D03*
X66772547Y-55921400D03*
%TD*%
%TO.C,R22*%
X68985947Y-57972200D03*
X68985947Y-55972200D03*
%TD*%
D19*
%TO.C,R20*%
X73319947Y-32715200D03*
X75319947Y-32715200D03*
%TD*%
D10*
%TO.C,K3*%
X79270547Y-48514000D03*
X81810547Y-48514000D03*
X79270547Y-56134000D03*
X81810547Y-56134000D03*
X91970547Y-56134000D03*
%TD*%
D20*
%TO.C,Q3*%
X90933447Y-119812200D03*
X88633447Y-119812200D03*
D21*
X88633447Y-113512200D03*
D20*
X86333447Y-119812200D03*
%TD*%
%TO.C,Q5*%
X73293747Y-119812200D03*
X70993747Y-119812200D03*
D21*
X70993747Y-113512200D03*
D20*
X68693747Y-119812200D03*
%TD*%
D19*
%TO.C,R18*%
X73319947Y-34950400D03*
X75319947Y-34950400D03*
%TD*%
D10*
%TO.C,K2*%
X79270547Y-36738400D03*
X81810547Y-36738400D03*
X79270547Y-44358400D03*
X81810547Y-44358400D03*
X91970547Y-44358400D03*
%TD*%
D22*
%TO.C,D13*%
X71703747Y-54117600D03*
X71703747Y-49717600D03*
%TD*%
D23*
%TO.C,J6*%
X151236547Y-86435800D03*
D24*
X148696547Y-86435800D03*
%TD*%
D10*
%TO.C,K1*%
X74787147Y-39931200D03*
X74787147Y-50091200D03*
X74787147Y-52631200D03*
X67167147Y-50091200D03*
X67167147Y-52631200D03*
%TD*%
D25*
%TO.C,D14*%
X78901747Y-41351200D03*
X83301747Y-41351200D03*
%TD*%
D23*
%TO.C,J7*%
X151236547Y-90435800D03*
D24*
X148696547Y-90435800D03*
%TD*%
D17*
%TO.C,R14*%
X87892947Y-48336200D03*
X85892947Y-48336200D03*
%TD*%
D20*
%TO.C,Q4*%
X82113597Y-119812200D03*
X79813597Y-119812200D03*
D21*
X79813597Y-113512200D03*
D20*
X77513597Y-119812200D03*
%TD*%
D26*
%TO.C,J5*%
X151662947Y-68580000D03*
D10*
X151662947Y-72390000D03*
X151662947Y-76200000D03*
X151662947Y-80010000D03*
%TD*%
D25*
%TO.C,D15*%
X79130347Y-53060600D03*
X83530347Y-53060600D03*
%TD*%
D27*
%TO.C,C2*%
X129075047Y-79822800D03*
X131150047Y-79822800D03*
%TD*%
D18*
%TO.C,R27*%
X75437547Y-69208400D03*
X75437547Y-67208400D03*
%TD*%
D17*
%TO.C,R31*%
X101837547Y-62763400D03*
X99837547Y-62763400D03*
%TD*%
D28*
%TO.C,D6*%
X94577447Y-87893568D03*
X94577447Y-89793568D03*
X92702447Y-88843568D03*
%TD*%
D29*
%TO.C,C6*%
X111527047Y-95748600D03*
X109452047Y-95748600D03*
%TD*%
D18*
%TO.C,R8*%
X135041947Y-82880200D03*
X135041947Y-80880200D03*
%TD*%
D19*
%TO.C,R23*%
X87432947Y-82575400D03*
X89432947Y-82575400D03*
%TD*%
D13*
%TO.C,C3*%
X109905347Y-110900300D03*
X109905347Y-112975300D03*
%TD*%
D17*
%TO.C,R28*%
X102024747Y-66116200D03*
X100024747Y-66116200D03*
%TD*%
D18*
%TO.C,R53*%
X140512347Y-119592600D03*
X140512347Y-117592600D03*
%TD*%
D30*
%TO.C,R58*%
X106966647Y-86965400D03*
X106966647Y-88965400D03*
%TD*%
D28*
%TO.C,D4*%
X94577447Y-103374867D03*
X94577447Y-105274867D03*
X92702447Y-104324867D03*
%TD*%
D20*
%TO.C,U7*%
X152667547Y-100559000D03*
X150367547Y-100559000D03*
D21*
X150367547Y-94259000D03*
D20*
X148067547Y-100559000D03*
%TD*%
D18*
%TO.C,R57*%
X126923347Y-119592600D03*
X126923347Y-117592600D03*
%TD*%
D28*
%TO.C,D3*%
X94577447Y-108535300D03*
X94577447Y-110435300D03*
X92702447Y-109485300D03*
%TD*%
D18*
%TO.C,R56*%
X130320597Y-119592600D03*
X130320597Y-117592600D03*
%TD*%
D31*
%TO.C,D1*%
X120373747Y-85292400D03*
X120373747Y-83192400D03*
%TD*%
D30*
%TO.C,R2*%
X107720947Y-110988600D03*
X107720947Y-112988600D03*
%TD*%
D17*
%TO.C,R50*%
X136051347Y-64987400D03*
X134051347Y-64987400D03*
%TD*%
D19*
%TO.C,R21*%
X87432947Y-86385400D03*
X89432947Y-86385400D03*
%TD*%
D27*
%TO.C,C22*%
X147208547Y-105156000D03*
X149283547Y-105156000D03*
%TD*%
%TO.C,C34*%
X80408347Y-89224200D03*
X82483347Y-89224200D03*
%TD*%
D19*
%TO.C,R44*%
X72089247Y-92780200D03*
X74089247Y-92780200D03*
%TD*%
D18*
%TO.C,R5*%
X134670347Y-99466400D03*
X134670347Y-97466400D03*
%TD*%
D32*
%TO.C,U12*%
X104766847Y-83119800D03*
X104766847Y-83769800D03*
X104766847Y-84419800D03*
X104766847Y-85069800D03*
X104766847Y-85719800D03*
X104766847Y-86369800D03*
X104766847Y-87019800D03*
X104766847Y-87669800D03*
X99041847Y-87669800D03*
X99041847Y-87019800D03*
X99041847Y-86369800D03*
X99041847Y-85719800D03*
X99041847Y-85069800D03*
X99041847Y-84419800D03*
X99041847Y-83769800D03*
X99041847Y-83119800D03*
%TD*%
D18*
%TO.C,R10*%
X115036147Y-102235000D03*
X115036147Y-100235000D03*
%TD*%
%TO.C,R9*%
X112978747Y-102235000D03*
X112978747Y-100235000D03*
%TD*%
D33*
%TO.C,Q2*%
X126237947Y-103075200D03*
X126237947Y-105375200D03*
D34*
X119937947Y-105375200D03*
D33*
X126237947Y-107675200D03*
%TD*%
D13*
%TO.C,C5*%
X111480147Y-91739300D03*
X111480147Y-93814300D03*
%TD*%
D35*
%TO.C,D10*%
X150179947Y-61696600D03*
X145779947Y-61696600D03*
%TD*%
D19*
%TO.C,R25*%
X87432947Y-94005400D03*
X89432947Y-94005400D03*
%TD*%
D18*
%TO.C,R12*%
X113994747Y-88874600D03*
X113994747Y-86874600D03*
%TD*%
D17*
%TO.C,R51*%
X136051347Y-67937400D03*
X134051347Y-67937400D03*
%TD*%
%TO.C,R48*%
X136432347Y-61482200D03*
X134432347Y-61482200D03*
%TD*%
D19*
%TO.C,R17*%
X87432947Y-97815400D03*
X89432947Y-97815400D03*
%TD*%
D27*
%TO.C,C35*%
X138687447Y-62523600D03*
X140762447Y-62523600D03*
%TD*%
D18*
%TO.C,R7*%
X137277147Y-82880200D03*
X137277147Y-80880200D03*
%TD*%
D27*
%TO.C,C36*%
X100112547Y-81437600D03*
X102187547Y-81437600D03*
%TD*%
D19*
%TO.C,R35*%
X87594747Y-75158600D03*
X89594747Y-75158600D03*
%TD*%
D36*
%TO.C,C1*%
X128715547Y-94347700D03*
X128715547Y-92272700D03*
%TD*%
D27*
%TO.C,C7*%
X113211247Y-98161600D03*
X115286247Y-98161600D03*
%TD*%
%TO.C,C15*%
X147208547Y-107365800D03*
X149283547Y-107365800D03*
%TD*%
D28*
%TO.C,D7*%
X94577447Y-82733135D03*
X94577447Y-84633135D03*
X92702447Y-83683135D03*
%TD*%
%TO.C,D8*%
X94577447Y-77572700D03*
X94577447Y-79472700D03*
X92702447Y-78522700D03*
%TD*%
D29*
%TO.C,C18*%
X153255347Y-107365800D03*
X151180347Y-107365800D03*
%TD*%
D23*
%TO.C,J2*%
X133146347Y-127685800D03*
D24*
X133146347Y-130225800D03*
X135686347Y-127685800D03*
X135686347Y-130225800D03*
X138226347Y-127685800D03*
X138226347Y-130225800D03*
X140766347Y-127685800D03*
X140766347Y-130225800D03*
X143306347Y-127685800D03*
X143306347Y-130225800D03*
X145846347Y-127685800D03*
X145846347Y-130225800D03*
%TD*%
D36*
%TO.C,C4*%
X136626147Y-89470900D03*
X136626147Y-87395900D03*
%TD*%
D37*
%TO.C,U8*%
X74573947Y-95469000D03*
X75843947Y-95469000D03*
X77113947Y-95469000D03*
X78383947Y-95469000D03*
X78383947Y-100619000D03*
X77113947Y-100619000D03*
X75843947Y-100619000D03*
X74573947Y-100619000D03*
%TD*%
D19*
%TO.C,R19*%
X87432947Y-90195400D03*
X89432947Y-90195400D03*
%TD*%
D23*
%TO.C,J3*%
X90575947Y-69392800D03*
D24*
X90575947Y-66852800D03*
X88035947Y-69392800D03*
X88035947Y-66852800D03*
X85495947Y-69392800D03*
X85495947Y-66852800D03*
X82955947Y-69392800D03*
X82955947Y-66852800D03*
X80415947Y-69392800D03*
X80415947Y-66852800D03*
%TD*%
D30*
%TO.C,R33*%
X154152147Y-62525400D03*
X154152147Y-64525400D03*
%TD*%
D18*
%TO.C,R6*%
X132409747Y-99466400D03*
X132409747Y-97466400D03*
%TD*%
D17*
%TO.C,R32*%
X97757547Y-62763400D03*
X95757547Y-62763400D03*
%TD*%
D23*
%TO.C,J4*%
X125983547Y-67538600D03*
D24*
X125983547Y-64998600D03*
X123443547Y-67538600D03*
X123443547Y-64998600D03*
X120903547Y-67538600D03*
X120903547Y-64998600D03*
X118363547Y-67538600D03*
X118363547Y-64998600D03*
X115823547Y-67538600D03*
X115823547Y-64998600D03*
X113283547Y-67538600D03*
X113283547Y-64998600D03*
%TD*%
D38*
%TO.C,U3*%
X115299947Y-95993600D03*
X114649947Y-95993600D03*
X113999947Y-95993600D03*
X113349947Y-95993600D03*
X113349947Y-91693600D03*
X113999947Y-91693600D03*
X114649947Y-91693600D03*
X115299947Y-91693600D03*
%TD*%
D13*
%TO.C,C29*%
X72301847Y-96365500D03*
X72301847Y-98440500D03*
%TD*%
D39*
%TO.C,U6*%
X148206647Y-110083200D03*
X150506647Y-110083200D03*
D40*
X150506647Y-116383200D03*
D39*
X152806647Y-110083200D03*
%TD*%
D41*
%TO.C,U11*%
X143430347Y-64428600D03*
X143430347Y-65698600D03*
X143430347Y-66968600D03*
X143430347Y-68238600D03*
X138480347Y-68238600D03*
X138480347Y-66968600D03*
X138480347Y-65698600D03*
X138480347Y-64428600D03*
%TD*%
D42*
%TO.C,U2*%
X126653147Y-91583000D03*
X124753147Y-91583000D03*
X125703147Y-89708000D03*
%TD*%
D28*
%TO.C,D9*%
X94577447Y-93054001D03*
X94577447Y-94954001D03*
X92702447Y-94004001D03*
%TD*%
D18*
%TO.C,R55*%
X133717847Y-119592600D03*
X133717847Y-117592600D03*
%TD*%
%TO.C,R54*%
X137115097Y-119592600D03*
X137115097Y-117592600D03*
%TD*%
%TO.C,R52*%
X131952547Y-67511400D03*
X131952547Y-65511400D03*
%TD*%
D29*
%TO.C,C19*%
X153245947Y-105232200D03*
X151170947Y-105232200D03*
%TD*%
D17*
%TO.C,R29*%
X97808347Y-66116200D03*
X95808347Y-66116200D03*
%TD*%
D43*
%TO.C,U4*%
X107341047Y-105402900D03*
X109241047Y-105402900D03*
X108291047Y-107277900D03*
%TD*%
D19*
%TO.C,R4*%
X126964747Y-99101400D03*
X128964747Y-99101400D03*
%TD*%
D27*
%TO.C,C28*%
X76191947Y-92983400D03*
X78266947Y-92983400D03*
%TD*%
D44*
%TO.C,U10*%
X80328947Y-91686600D03*
X82228947Y-91686600D03*
X81278947Y-94686600D03*
%TD*%
D23*
%TO.C,J1*%
X90271147Y-130225800D03*
D24*
X90271147Y-127685800D03*
X87731147Y-130225800D03*
X87731147Y-127685800D03*
X85191147Y-130225800D03*
X85191147Y-127685800D03*
X82651147Y-130225800D03*
X82651147Y-127685800D03*
X80111147Y-130225800D03*
X80111147Y-127685800D03*
X77571147Y-130225800D03*
X77571147Y-127685800D03*
%TD*%
D19*
%TO.C,R49*%
X135880147Y-70346800D03*
X137880147Y-70346800D03*
%TD*%
D27*
%TO.C,C31*%
X80281347Y-100781200D03*
X82356347Y-100781200D03*
%TD*%
D28*
%TO.C,D5*%
X94577447Y-98214434D03*
X94577447Y-100114434D03*
X92702447Y-99164434D03*
%TD*%
D45*
%TO.C,Q1*%
X130047147Y-107903800D03*
X130047147Y-105603800D03*
D46*
X136347147Y-105603800D03*
D45*
X130047147Y-103303800D03*
%TD*%
D19*
%TO.C,R45*%
X76254847Y-102914800D03*
X78254847Y-102914800D03*
%TD*%
D29*
%TO.C,C17*%
X153220547Y-103073200D03*
X151145547Y-103073200D03*
%TD*%
D19*
%TO.C,R13*%
X87432947Y-105435400D03*
X89432947Y-105435400D03*
%TD*%
%TO.C,R15*%
X87432947Y-101625400D03*
X89432947Y-101625400D03*
%TD*%
D18*
%TO.C,R30*%
X104158547Y-65024000D03*
X104158547Y-63024000D03*
%TD*%
D27*
%TO.C,C32*%
X80281347Y-97276000D03*
X82356347Y-97276000D03*
%TD*%
D18*
%TO.C,R11*%
X117169747Y-94792800D03*
X117169747Y-92792800D03*
%TD*%
D19*
%TO.C,R3*%
X113020147Y-105349800D03*
X115020147Y-105349800D03*
%TD*%
D17*
%TO.C,R1*%
X130715547Y-90160600D03*
X128715547Y-90160600D03*
%TD*%
D31*
%TO.C,D2*%
X117423747Y-85292400D03*
X117423747Y-83192400D03*
%TD*%
D47*
%TO.C,U1*%
X131444547Y-87274600D03*
X130174547Y-87274600D03*
X128904547Y-87274600D03*
X127634547Y-87274600D03*
X127634547Y-82124600D03*
X128904547Y-82124600D03*
X130174547Y-82124600D03*
X131444547Y-82124600D03*
%TD*%
D27*
%TO.C,C20*%
X147208547Y-103047800D03*
X149283547Y-103047800D03*
%TD*%
M02*
