%TF.GenerationSoftware,KiCad,Pcbnew,8.0.1*%
%TF.CreationDate,2024-05-22T14:55:13+02:00*%
%TF.ProjectId,TestBoardArduino,54657374-426f-4617-9264-41726475696e,rev?*%
%TF.SameCoordinates,Original*%
%TF.FileFunction,Legend,Top*%
%TF.FilePolarity,Positive*%
%FSLAX46Y46*%
G04 Gerber Fmt 4.6, Leading zero omitted, Abs format (unit mm)*
G04 Created by KiCad (PCBNEW 8.0.1) date 2024-05-22 14:55:13*
%MOMM*%
%LPD*%
G01*
G04 APERTURE LIST*
%ADD10C,0.150000*%
%ADD11C,0.100000*%
%ADD12C,0.120000*%
%ADD13C,0.000000*%
G04 APERTURE END LIST*
D10*
X156266926Y-49704619D02*
X156266926Y-48704619D01*
X156266926Y-48704619D02*
X156838354Y-49704619D01*
X156838354Y-49704619D02*
X156838354Y-48704619D01*
X156819316Y-57400819D02*
X156343126Y-57400819D01*
X156343126Y-57400819D02*
X156343126Y-56400819D01*
X152211147Y-93437100D02*
X147645747Y-93437100D01*
X68270794Y-74880741D02*
X68270794Y-74785503D01*
X68270794Y-74785503D02*
X68318413Y-74690265D01*
X68318413Y-74690265D02*
X68366032Y-74642646D01*
X68366032Y-74642646D02*
X68461270Y-74595027D01*
X68461270Y-74595027D02*
X68651746Y-74547408D01*
X68651746Y-74547408D02*
X68889841Y-74547408D01*
X68889841Y-74547408D02*
X69080317Y-74595027D01*
X69080317Y-74595027D02*
X69175555Y-74642646D01*
X69175555Y-74642646D02*
X69223175Y-74690265D01*
X69223175Y-74690265D02*
X69270794Y-74785503D01*
X69270794Y-74785503D02*
X69270794Y-74880741D01*
X69270794Y-74880741D02*
X69223175Y-74975979D01*
X69223175Y-74975979D02*
X69175555Y-75023598D01*
X69175555Y-75023598D02*
X69080317Y-75071217D01*
X69080317Y-75071217D02*
X68889841Y-75118836D01*
X68889841Y-75118836D02*
X68651746Y-75118836D01*
X68651746Y-75118836D02*
X68461270Y-75071217D01*
X68461270Y-75071217D02*
X68366032Y-75023598D01*
X68366032Y-75023598D02*
X68318413Y-74975979D01*
X68318413Y-74975979D02*
X68270794Y-74880741D01*
X69270794Y-73595027D02*
X69270794Y-74166455D01*
X69270794Y-73880741D02*
X68270794Y-73880741D01*
X68270794Y-73880741D02*
X68413651Y-73975979D01*
X68413651Y-73975979D02*
X68508889Y-74071217D01*
X68508889Y-74071217D02*
X68556508Y-74166455D01*
X68889841Y-73166455D02*
X68889841Y-72404551D01*
X68270794Y-71737884D02*
X68270794Y-71642646D01*
X68270794Y-71642646D02*
X68318413Y-71547408D01*
X68318413Y-71547408D02*
X68366032Y-71499789D01*
X68366032Y-71499789D02*
X68461270Y-71452170D01*
X68461270Y-71452170D02*
X68651746Y-71404551D01*
X68651746Y-71404551D02*
X68889841Y-71404551D01*
X68889841Y-71404551D02*
X69080317Y-71452170D01*
X69080317Y-71452170D02*
X69175555Y-71499789D01*
X69175555Y-71499789D02*
X69223175Y-71547408D01*
X69223175Y-71547408D02*
X69270794Y-71642646D01*
X69270794Y-71642646D02*
X69270794Y-71737884D01*
X69270794Y-71737884D02*
X69223175Y-71833122D01*
X69223175Y-71833122D02*
X69175555Y-71880741D01*
X69175555Y-71880741D02*
X69080317Y-71928360D01*
X69080317Y-71928360D02*
X68889841Y-71975979D01*
X68889841Y-71975979D02*
X68651746Y-71975979D01*
X68651746Y-71975979D02*
X68461270Y-71928360D01*
X68461270Y-71928360D02*
X68366032Y-71880741D01*
X68366032Y-71880741D02*
X68318413Y-71833122D01*
X68318413Y-71833122D02*
X68270794Y-71737884D01*
X68366032Y-71023598D02*
X68318413Y-70975979D01*
X68318413Y-70975979D02*
X68270794Y-70880741D01*
X68270794Y-70880741D02*
X68270794Y-70642646D01*
X68270794Y-70642646D02*
X68318413Y-70547408D01*
X68318413Y-70547408D02*
X68366032Y-70499789D01*
X68366032Y-70499789D02*
X68461270Y-70452170D01*
X68461270Y-70452170D02*
X68556508Y-70452170D01*
X68556508Y-70452170D02*
X68699365Y-70499789D01*
X68699365Y-70499789D02*
X69270794Y-71071217D01*
X69270794Y-71071217D02*
X69270794Y-70452170D01*
X68699365Y-69880741D02*
X68651746Y-69975979D01*
X68651746Y-69975979D02*
X68604127Y-70023598D01*
X68604127Y-70023598D02*
X68508889Y-70071217D01*
X68508889Y-70071217D02*
X68461270Y-70071217D01*
X68461270Y-70071217D02*
X68366032Y-70023598D01*
X68366032Y-70023598D02*
X68318413Y-69975979D01*
X68318413Y-69975979D02*
X68270794Y-69880741D01*
X68270794Y-69880741D02*
X68270794Y-69690265D01*
X68270794Y-69690265D02*
X68318413Y-69595027D01*
X68318413Y-69595027D02*
X68366032Y-69547408D01*
X68366032Y-69547408D02*
X68461270Y-69499789D01*
X68461270Y-69499789D02*
X68508889Y-69499789D01*
X68508889Y-69499789D02*
X68604127Y-69547408D01*
X68604127Y-69547408D02*
X68651746Y-69595027D01*
X68651746Y-69595027D02*
X68699365Y-69690265D01*
X68699365Y-69690265D02*
X68699365Y-69880741D01*
X68699365Y-69880741D02*
X68746984Y-69975979D01*
X68746984Y-69975979D02*
X68794603Y-70023598D01*
X68794603Y-70023598D02*
X68889841Y-70071217D01*
X68889841Y-70071217D02*
X69080317Y-70071217D01*
X69080317Y-70071217D02*
X69175555Y-70023598D01*
X69175555Y-70023598D02*
X69223175Y-69975979D01*
X69223175Y-69975979D02*
X69270794Y-69880741D01*
X69270794Y-69880741D02*
X69270794Y-69690265D01*
X69270794Y-69690265D02*
X69223175Y-69595027D01*
X69223175Y-69595027D02*
X69175555Y-69547408D01*
X69175555Y-69547408D02*
X69080317Y-69499789D01*
X69080317Y-69499789D02*
X68889841Y-69499789D01*
X68889841Y-69499789D02*
X68794603Y-69547408D01*
X68794603Y-69547408D02*
X68746984Y-69595027D01*
X68746984Y-69595027D02*
X68699365Y-69690265D01*
X68270794Y-68595027D02*
X68270794Y-69071217D01*
X68270794Y-69071217D02*
X68746984Y-69118836D01*
X68746984Y-69118836D02*
X68699365Y-69071217D01*
X68699365Y-69071217D02*
X68651746Y-68975979D01*
X68651746Y-68975979D02*
X68651746Y-68737884D01*
X68651746Y-68737884D02*
X68699365Y-68642646D01*
X68699365Y-68642646D02*
X68746984Y-68595027D01*
X68746984Y-68595027D02*
X68842222Y-68547408D01*
X68842222Y-68547408D02*
X69080317Y-68547408D01*
X69080317Y-68547408D02*
X69175555Y-68595027D01*
X69175555Y-68595027D02*
X69223175Y-68642646D01*
X69223175Y-68642646D02*
X69270794Y-68737884D01*
X69270794Y-68737884D02*
X69270794Y-68975979D01*
X69270794Y-68975979D02*
X69223175Y-69071217D01*
X69223175Y-69071217D02*
X69175555Y-69118836D01*
X68270794Y-67499788D02*
X68270794Y-66928360D01*
X69270794Y-67214074D02*
X68270794Y-67214074D01*
X69270794Y-66595026D02*
X68270794Y-66595026D01*
X69270794Y-66118836D02*
X68270794Y-66118836D01*
X68270794Y-66118836D02*
X68270794Y-65737884D01*
X68270794Y-65737884D02*
X68318413Y-65642646D01*
X68318413Y-65642646D02*
X68366032Y-65595027D01*
X68366032Y-65595027D02*
X68461270Y-65547408D01*
X68461270Y-65547408D02*
X68604127Y-65547408D01*
X68604127Y-65547408D02*
X68699365Y-65595027D01*
X68699365Y-65595027D02*
X68746984Y-65642646D01*
X68746984Y-65642646D02*
X68794603Y-65737884D01*
X68794603Y-65737884D02*
X68794603Y-66118836D01*
X68270794Y-64928360D02*
X68270794Y-64833122D01*
X68270794Y-64833122D02*
X68318413Y-64737884D01*
X68318413Y-64737884D02*
X68366032Y-64690265D01*
X68366032Y-64690265D02*
X68461270Y-64642646D01*
X68461270Y-64642646D02*
X68651746Y-64595027D01*
X68651746Y-64595027D02*
X68889841Y-64595027D01*
X68889841Y-64595027D02*
X69080317Y-64642646D01*
X69080317Y-64642646D02*
X69175555Y-64690265D01*
X69175555Y-64690265D02*
X69223175Y-64737884D01*
X69223175Y-64737884D02*
X69270794Y-64833122D01*
X69270794Y-64833122D02*
X69270794Y-64928360D01*
X69270794Y-64928360D02*
X69223175Y-65023598D01*
X69223175Y-65023598D02*
X69175555Y-65071217D01*
X69175555Y-65071217D02*
X69080317Y-65118836D01*
X69080317Y-65118836D02*
X68889841Y-65166455D01*
X68889841Y-65166455D02*
X68651746Y-65166455D01*
X68651746Y-65166455D02*
X68461270Y-65118836D01*
X68461270Y-65118836D02*
X68366032Y-65071217D01*
X68366032Y-65071217D02*
X68318413Y-65023598D01*
X68318413Y-65023598D02*
X68270794Y-64928360D01*
X68366032Y-64214074D02*
X68318413Y-64166455D01*
X68318413Y-64166455D02*
X68270794Y-64071217D01*
X68270794Y-64071217D02*
X68270794Y-63833122D01*
X68270794Y-63833122D02*
X68318413Y-63737884D01*
X68318413Y-63737884D02*
X68366032Y-63690265D01*
X68366032Y-63690265D02*
X68461270Y-63642646D01*
X68461270Y-63642646D02*
X68556508Y-63642646D01*
X68556508Y-63642646D02*
X68699365Y-63690265D01*
X68699365Y-63690265D02*
X69270794Y-64261693D01*
X69270794Y-64261693D02*
X69270794Y-63642646D01*
X68604127Y-62785503D02*
X69270794Y-62785503D01*
X68223175Y-63023598D02*
X68937460Y-63261693D01*
X68937460Y-63261693D02*
X68937460Y-62642646D01*
X68746984Y-61928360D02*
X68794603Y-61785503D01*
X68794603Y-61785503D02*
X68842222Y-61737884D01*
X68842222Y-61737884D02*
X68937460Y-61690265D01*
X68937460Y-61690265D02*
X69080317Y-61690265D01*
X69080317Y-61690265D02*
X69175555Y-61737884D01*
X69175555Y-61737884D02*
X69223175Y-61785503D01*
X69223175Y-61785503D02*
X69270794Y-61880741D01*
X69270794Y-61880741D02*
X69270794Y-62261693D01*
X69270794Y-62261693D02*
X68270794Y-62261693D01*
X68270794Y-62261693D02*
X68270794Y-61928360D01*
X68270794Y-61928360D02*
X68318413Y-61833122D01*
X68318413Y-61833122D02*
X68366032Y-61785503D01*
X68366032Y-61785503D02*
X68461270Y-61737884D01*
X68461270Y-61737884D02*
X68556508Y-61737884D01*
X68556508Y-61737884D02*
X68651746Y-61785503D01*
X68651746Y-61785503D02*
X68699365Y-61833122D01*
X68699365Y-61833122D02*
X68746984Y-61928360D01*
X68746984Y-61928360D02*
X68746984Y-62261693D01*
X69175555Y-60690265D02*
X69223175Y-60737884D01*
X69223175Y-60737884D02*
X69270794Y-60880741D01*
X69270794Y-60880741D02*
X69270794Y-60975979D01*
X69270794Y-60975979D02*
X69223175Y-61118836D01*
X69223175Y-61118836D02*
X69127936Y-61214074D01*
X69127936Y-61214074D02*
X69032698Y-61261693D01*
X69032698Y-61261693D02*
X68842222Y-61309312D01*
X68842222Y-61309312D02*
X68699365Y-61309312D01*
X68699365Y-61309312D02*
X68508889Y-61261693D01*
X68508889Y-61261693D02*
X68413651Y-61214074D01*
X68413651Y-61214074D02*
X68318413Y-61118836D01*
X68318413Y-61118836D02*
X68270794Y-60975979D01*
X68270794Y-60975979D02*
X68270794Y-60880741D01*
X68270794Y-60880741D02*
X68318413Y-60737884D01*
X68318413Y-60737884D02*
X68366032Y-60690265D01*
X70880738Y-92499795D02*
X69880738Y-92499795D01*
X69880738Y-92499795D02*
X70595023Y-92166462D01*
X70595023Y-92166462D02*
X69880738Y-91833129D01*
X69880738Y-91833129D02*
X70880738Y-91833129D01*
X70880738Y-90928367D02*
X70356928Y-90928367D01*
X70356928Y-90928367D02*
X70261690Y-90975986D01*
X70261690Y-90975986D02*
X70214071Y-91071224D01*
X70214071Y-91071224D02*
X70214071Y-91261700D01*
X70214071Y-91261700D02*
X70261690Y-91356938D01*
X70833119Y-90928367D02*
X70880738Y-91023605D01*
X70880738Y-91023605D02*
X70880738Y-91261700D01*
X70880738Y-91261700D02*
X70833119Y-91356938D01*
X70833119Y-91356938D02*
X70737880Y-91404557D01*
X70737880Y-91404557D02*
X70642642Y-91404557D01*
X70642642Y-91404557D02*
X70547404Y-91356938D01*
X70547404Y-91356938D02*
X70499785Y-91261700D01*
X70499785Y-91261700D02*
X70499785Y-91023605D01*
X70499785Y-91023605D02*
X70452166Y-90928367D01*
X70880738Y-90452176D02*
X70214071Y-90452176D01*
X69880738Y-90452176D02*
X69928357Y-90499795D01*
X69928357Y-90499795D02*
X69975976Y-90452176D01*
X69975976Y-90452176D02*
X69928357Y-90404557D01*
X69928357Y-90404557D02*
X69880738Y-90452176D01*
X69880738Y-90452176D02*
X69975976Y-90452176D01*
X70214071Y-89975986D02*
X70880738Y-89975986D01*
X70309309Y-89975986D02*
X70261690Y-89928367D01*
X70261690Y-89928367D02*
X70214071Y-89833129D01*
X70214071Y-89833129D02*
X70214071Y-89690272D01*
X70214071Y-89690272D02*
X70261690Y-89595034D01*
X70261690Y-89595034D02*
X70356928Y-89547415D01*
X70356928Y-89547415D02*
X70880738Y-89547415D01*
X70880738Y-89071224D02*
X69880738Y-89071224D01*
X70261690Y-89071224D02*
X70214071Y-88975986D01*
X70214071Y-88975986D02*
X70214071Y-88785510D01*
X70214071Y-88785510D02*
X70261690Y-88690272D01*
X70261690Y-88690272D02*
X70309309Y-88642653D01*
X70309309Y-88642653D02*
X70404547Y-88595034D01*
X70404547Y-88595034D02*
X70690261Y-88595034D01*
X70690261Y-88595034D02*
X70785499Y-88642653D01*
X70785499Y-88642653D02*
X70833119Y-88690272D01*
X70833119Y-88690272D02*
X70880738Y-88785510D01*
X70880738Y-88785510D02*
X70880738Y-88975986D01*
X70880738Y-88975986D02*
X70833119Y-89071224D01*
X70880738Y-88023605D02*
X70833119Y-88118843D01*
X70833119Y-88118843D02*
X70785499Y-88166462D01*
X70785499Y-88166462D02*
X70690261Y-88214081D01*
X70690261Y-88214081D02*
X70404547Y-88214081D01*
X70404547Y-88214081D02*
X70309309Y-88166462D01*
X70309309Y-88166462D02*
X70261690Y-88118843D01*
X70261690Y-88118843D02*
X70214071Y-88023605D01*
X70214071Y-88023605D02*
X70214071Y-87880748D01*
X70214071Y-87880748D02*
X70261690Y-87785510D01*
X70261690Y-87785510D02*
X70309309Y-87737891D01*
X70309309Y-87737891D02*
X70404547Y-87690272D01*
X70404547Y-87690272D02*
X70690261Y-87690272D01*
X70690261Y-87690272D02*
X70785499Y-87737891D01*
X70785499Y-87737891D02*
X70833119Y-87785510D01*
X70833119Y-87785510D02*
X70880738Y-87880748D01*
X70880738Y-87880748D02*
X70880738Y-88023605D01*
X70880738Y-86833129D02*
X70356928Y-86833129D01*
X70356928Y-86833129D02*
X70261690Y-86880748D01*
X70261690Y-86880748D02*
X70214071Y-86975986D01*
X70214071Y-86975986D02*
X70214071Y-87166462D01*
X70214071Y-87166462D02*
X70261690Y-87261700D01*
X70833119Y-86833129D02*
X70880738Y-86928367D01*
X70880738Y-86928367D02*
X70880738Y-87166462D01*
X70880738Y-87166462D02*
X70833119Y-87261700D01*
X70833119Y-87261700D02*
X70737880Y-87309319D01*
X70737880Y-87309319D02*
X70642642Y-87309319D01*
X70642642Y-87309319D02*
X70547404Y-87261700D01*
X70547404Y-87261700D02*
X70499785Y-87166462D01*
X70499785Y-87166462D02*
X70499785Y-86928367D01*
X70499785Y-86928367D02*
X70452166Y-86833129D01*
X70880738Y-86356938D02*
X70214071Y-86356938D01*
X70404547Y-86356938D02*
X70309309Y-86309319D01*
X70309309Y-86309319D02*
X70261690Y-86261700D01*
X70261690Y-86261700D02*
X70214071Y-86166462D01*
X70214071Y-86166462D02*
X70214071Y-86071224D01*
X70880738Y-85309319D02*
X69880738Y-85309319D01*
X70833119Y-85309319D02*
X70880738Y-85404557D01*
X70880738Y-85404557D02*
X70880738Y-85595033D01*
X70880738Y-85595033D02*
X70833119Y-85690271D01*
X70833119Y-85690271D02*
X70785499Y-85737890D01*
X70785499Y-85737890D02*
X70690261Y-85785509D01*
X70690261Y-85785509D02*
X70404547Y-85785509D01*
X70404547Y-85785509D02*
X70309309Y-85737890D01*
X70309309Y-85737890D02*
X70261690Y-85690271D01*
X70261690Y-85690271D02*
X70214071Y-85595033D01*
X70214071Y-85595033D02*
X70214071Y-85404557D01*
X70214071Y-85404557D02*
X70261690Y-85309319D01*
X70214071Y-84071223D02*
X71214071Y-84071223D01*
X70261690Y-84071223D02*
X70214071Y-83975985D01*
X70214071Y-83975985D02*
X70214071Y-83785509D01*
X70214071Y-83785509D02*
X70261690Y-83690271D01*
X70261690Y-83690271D02*
X70309309Y-83642652D01*
X70309309Y-83642652D02*
X70404547Y-83595033D01*
X70404547Y-83595033D02*
X70690261Y-83595033D01*
X70690261Y-83595033D02*
X70785499Y-83642652D01*
X70785499Y-83642652D02*
X70833119Y-83690271D01*
X70833119Y-83690271D02*
X70880738Y-83785509D01*
X70880738Y-83785509D02*
X70880738Y-83975985D01*
X70880738Y-83975985D02*
X70833119Y-84071223D01*
X70880738Y-83166461D02*
X70214071Y-83166461D01*
X70404547Y-83166461D02*
X70309309Y-83118842D01*
X70309309Y-83118842D02*
X70261690Y-83071223D01*
X70261690Y-83071223D02*
X70214071Y-82975985D01*
X70214071Y-82975985D02*
X70214071Y-82880747D01*
X70880738Y-82404556D02*
X70833119Y-82499794D01*
X70833119Y-82499794D02*
X70785499Y-82547413D01*
X70785499Y-82547413D02*
X70690261Y-82595032D01*
X70690261Y-82595032D02*
X70404547Y-82595032D01*
X70404547Y-82595032D02*
X70309309Y-82547413D01*
X70309309Y-82547413D02*
X70261690Y-82499794D01*
X70261690Y-82499794D02*
X70214071Y-82404556D01*
X70214071Y-82404556D02*
X70214071Y-82261699D01*
X70214071Y-82261699D02*
X70261690Y-82166461D01*
X70261690Y-82166461D02*
X70309309Y-82118842D01*
X70309309Y-82118842D02*
X70404547Y-82071223D01*
X70404547Y-82071223D02*
X70690261Y-82071223D01*
X70690261Y-82071223D02*
X70785499Y-82118842D01*
X70785499Y-82118842D02*
X70833119Y-82166461D01*
X70833119Y-82166461D02*
X70880738Y-82261699D01*
X70880738Y-82261699D02*
X70880738Y-82404556D01*
X70880738Y-81214080D02*
X69880738Y-81214080D01*
X70833119Y-81214080D02*
X70880738Y-81309318D01*
X70880738Y-81309318D02*
X70880738Y-81499794D01*
X70880738Y-81499794D02*
X70833119Y-81595032D01*
X70833119Y-81595032D02*
X70785499Y-81642651D01*
X70785499Y-81642651D02*
X70690261Y-81690270D01*
X70690261Y-81690270D02*
X70404547Y-81690270D01*
X70404547Y-81690270D02*
X70309309Y-81642651D01*
X70309309Y-81642651D02*
X70261690Y-81595032D01*
X70261690Y-81595032D02*
X70214071Y-81499794D01*
X70214071Y-81499794D02*
X70214071Y-81309318D01*
X70214071Y-81309318D02*
X70261690Y-81214080D01*
X70214071Y-80309318D02*
X70880738Y-80309318D01*
X70214071Y-80737889D02*
X70737880Y-80737889D01*
X70737880Y-80737889D02*
X70833119Y-80690270D01*
X70833119Y-80690270D02*
X70880738Y-80595032D01*
X70880738Y-80595032D02*
X70880738Y-80452175D01*
X70880738Y-80452175D02*
X70833119Y-80356937D01*
X70833119Y-80356937D02*
X70785499Y-80309318D01*
X70833119Y-79404556D02*
X70880738Y-79499794D01*
X70880738Y-79499794D02*
X70880738Y-79690270D01*
X70880738Y-79690270D02*
X70833119Y-79785508D01*
X70833119Y-79785508D02*
X70785499Y-79833127D01*
X70785499Y-79833127D02*
X70690261Y-79880746D01*
X70690261Y-79880746D02*
X70404547Y-79880746D01*
X70404547Y-79880746D02*
X70309309Y-79833127D01*
X70309309Y-79833127D02*
X70261690Y-79785508D01*
X70261690Y-79785508D02*
X70214071Y-79690270D01*
X70214071Y-79690270D02*
X70214071Y-79499794D01*
X70214071Y-79499794D02*
X70261690Y-79404556D01*
X70214071Y-79118841D02*
X70214071Y-78737889D01*
X69880738Y-78975984D02*
X70737880Y-78975984D01*
X70737880Y-78975984D02*
X70833119Y-78928365D01*
X70833119Y-78928365D02*
X70880738Y-78833127D01*
X70880738Y-78833127D02*
X70880738Y-78737889D01*
X70880738Y-78404555D02*
X70214071Y-78404555D01*
X69880738Y-78404555D02*
X69928357Y-78452174D01*
X69928357Y-78452174D02*
X69975976Y-78404555D01*
X69975976Y-78404555D02*
X69928357Y-78356936D01*
X69928357Y-78356936D02*
X69880738Y-78404555D01*
X69880738Y-78404555D02*
X69975976Y-78404555D01*
X70880738Y-77785508D02*
X70833119Y-77880746D01*
X70833119Y-77880746D02*
X70785499Y-77928365D01*
X70785499Y-77928365D02*
X70690261Y-77975984D01*
X70690261Y-77975984D02*
X70404547Y-77975984D01*
X70404547Y-77975984D02*
X70309309Y-77928365D01*
X70309309Y-77928365D02*
X70261690Y-77880746D01*
X70261690Y-77880746D02*
X70214071Y-77785508D01*
X70214071Y-77785508D02*
X70214071Y-77642651D01*
X70214071Y-77642651D02*
X70261690Y-77547413D01*
X70261690Y-77547413D02*
X70309309Y-77499794D01*
X70309309Y-77499794D02*
X70404547Y-77452175D01*
X70404547Y-77452175D02*
X70690261Y-77452175D01*
X70690261Y-77452175D02*
X70785499Y-77499794D01*
X70785499Y-77499794D02*
X70833119Y-77547413D01*
X70833119Y-77547413D02*
X70880738Y-77642651D01*
X70880738Y-77642651D02*
X70880738Y-77785508D01*
X70214071Y-77023603D02*
X70880738Y-77023603D01*
X70309309Y-77023603D02*
X70261690Y-76975984D01*
X70261690Y-76975984D02*
X70214071Y-76880746D01*
X70214071Y-76880746D02*
X70214071Y-76737889D01*
X70214071Y-76737889D02*
X70261690Y-76642651D01*
X70261690Y-76642651D02*
X70356928Y-76595032D01*
X70356928Y-76595032D02*
X70880738Y-76595032D01*
X70214071Y-75499793D02*
X70214071Y-75118841D01*
X69880738Y-75356936D02*
X70737880Y-75356936D01*
X70737880Y-75356936D02*
X70833119Y-75309317D01*
X70833119Y-75309317D02*
X70880738Y-75214079D01*
X70880738Y-75214079D02*
X70880738Y-75118841D01*
X70833119Y-74404555D02*
X70880738Y-74499793D01*
X70880738Y-74499793D02*
X70880738Y-74690269D01*
X70880738Y-74690269D02*
X70833119Y-74785507D01*
X70833119Y-74785507D02*
X70737880Y-74833126D01*
X70737880Y-74833126D02*
X70356928Y-74833126D01*
X70356928Y-74833126D02*
X70261690Y-74785507D01*
X70261690Y-74785507D02*
X70214071Y-74690269D01*
X70214071Y-74690269D02*
X70214071Y-74499793D01*
X70214071Y-74499793D02*
X70261690Y-74404555D01*
X70261690Y-74404555D02*
X70356928Y-74356936D01*
X70356928Y-74356936D02*
X70452166Y-74356936D01*
X70452166Y-74356936D02*
X70547404Y-74833126D01*
X70833119Y-73975983D02*
X70880738Y-73880745D01*
X70880738Y-73880745D02*
X70880738Y-73690269D01*
X70880738Y-73690269D02*
X70833119Y-73595031D01*
X70833119Y-73595031D02*
X70737880Y-73547412D01*
X70737880Y-73547412D02*
X70690261Y-73547412D01*
X70690261Y-73547412D02*
X70595023Y-73595031D01*
X70595023Y-73595031D02*
X70547404Y-73690269D01*
X70547404Y-73690269D02*
X70547404Y-73833126D01*
X70547404Y-73833126D02*
X70499785Y-73928364D01*
X70499785Y-73928364D02*
X70404547Y-73975983D01*
X70404547Y-73975983D02*
X70356928Y-73975983D01*
X70356928Y-73975983D02*
X70261690Y-73928364D01*
X70261690Y-73928364D02*
X70214071Y-73833126D01*
X70214071Y-73833126D02*
X70214071Y-73690269D01*
X70214071Y-73690269D02*
X70261690Y-73595031D01*
X70214071Y-73261697D02*
X70214071Y-72880745D01*
X69880738Y-73118840D02*
X70737880Y-73118840D01*
X70737880Y-73118840D02*
X70833119Y-73071221D01*
X70833119Y-73071221D02*
X70880738Y-72975983D01*
X70880738Y-72975983D02*
X70880738Y-72880745D01*
X70833119Y-71356935D02*
X70880738Y-71452173D01*
X70880738Y-71452173D02*
X70880738Y-71642649D01*
X70880738Y-71642649D02*
X70833119Y-71737887D01*
X70833119Y-71737887D02*
X70785499Y-71785506D01*
X70785499Y-71785506D02*
X70690261Y-71833125D01*
X70690261Y-71833125D02*
X70404547Y-71833125D01*
X70404547Y-71833125D02*
X70309309Y-71785506D01*
X70309309Y-71785506D02*
X70261690Y-71737887D01*
X70261690Y-71737887D02*
X70214071Y-71642649D01*
X70214071Y-71642649D02*
X70214071Y-71452173D01*
X70214071Y-71452173D02*
X70261690Y-71356935D01*
X70880738Y-70785506D02*
X70833119Y-70880744D01*
X70833119Y-70880744D02*
X70785499Y-70928363D01*
X70785499Y-70928363D02*
X70690261Y-70975982D01*
X70690261Y-70975982D02*
X70404547Y-70975982D01*
X70404547Y-70975982D02*
X70309309Y-70928363D01*
X70309309Y-70928363D02*
X70261690Y-70880744D01*
X70261690Y-70880744D02*
X70214071Y-70785506D01*
X70214071Y-70785506D02*
X70214071Y-70642649D01*
X70214071Y-70642649D02*
X70261690Y-70547411D01*
X70261690Y-70547411D02*
X70309309Y-70499792D01*
X70309309Y-70499792D02*
X70404547Y-70452173D01*
X70404547Y-70452173D02*
X70690261Y-70452173D01*
X70690261Y-70452173D02*
X70785499Y-70499792D01*
X70785499Y-70499792D02*
X70833119Y-70547411D01*
X70833119Y-70547411D02*
X70880738Y-70642649D01*
X70880738Y-70642649D02*
X70880738Y-70785506D01*
X70214071Y-70023601D02*
X70880738Y-70023601D01*
X70309309Y-70023601D02*
X70261690Y-69975982D01*
X70261690Y-69975982D02*
X70214071Y-69880744D01*
X70214071Y-69880744D02*
X70214071Y-69737887D01*
X70214071Y-69737887D02*
X70261690Y-69642649D01*
X70261690Y-69642649D02*
X70356928Y-69595030D01*
X70356928Y-69595030D02*
X70880738Y-69595030D01*
X70214071Y-69261696D02*
X70214071Y-68880744D01*
X69880738Y-69118839D02*
X70737880Y-69118839D01*
X70737880Y-69118839D02*
X70833119Y-69071220D01*
X70833119Y-69071220D02*
X70880738Y-68975982D01*
X70880738Y-68975982D02*
X70880738Y-68880744D01*
X70880738Y-68547410D02*
X70214071Y-68547410D01*
X70404547Y-68547410D02*
X70309309Y-68499791D01*
X70309309Y-68499791D02*
X70261690Y-68452172D01*
X70261690Y-68452172D02*
X70214071Y-68356934D01*
X70214071Y-68356934D02*
X70214071Y-68261696D01*
X70880738Y-67785505D02*
X70833119Y-67880743D01*
X70833119Y-67880743D02*
X70785499Y-67928362D01*
X70785499Y-67928362D02*
X70690261Y-67975981D01*
X70690261Y-67975981D02*
X70404547Y-67975981D01*
X70404547Y-67975981D02*
X70309309Y-67928362D01*
X70309309Y-67928362D02*
X70261690Y-67880743D01*
X70261690Y-67880743D02*
X70214071Y-67785505D01*
X70214071Y-67785505D02*
X70214071Y-67642648D01*
X70214071Y-67642648D02*
X70261690Y-67547410D01*
X70261690Y-67547410D02*
X70309309Y-67499791D01*
X70309309Y-67499791D02*
X70404547Y-67452172D01*
X70404547Y-67452172D02*
X70690261Y-67452172D01*
X70690261Y-67452172D02*
X70785499Y-67499791D01*
X70785499Y-67499791D02*
X70833119Y-67547410D01*
X70833119Y-67547410D02*
X70880738Y-67642648D01*
X70880738Y-67642648D02*
X70880738Y-67785505D01*
X70880738Y-66880743D02*
X70833119Y-66975981D01*
X70833119Y-66975981D02*
X70737880Y-67023600D01*
X70737880Y-67023600D02*
X69880738Y-67023600D01*
X70880738Y-66356933D02*
X70833119Y-66452171D01*
X70833119Y-66452171D02*
X70737880Y-66499790D01*
X70737880Y-66499790D02*
X69880738Y-66499790D01*
X70833119Y-65595028D02*
X70880738Y-65690266D01*
X70880738Y-65690266D02*
X70880738Y-65880742D01*
X70880738Y-65880742D02*
X70833119Y-65975980D01*
X70833119Y-65975980D02*
X70737880Y-66023599D01*
X70737880Y-66023599D02*
X70356928Y-66023599D01*
X70356928Y-66023599D02*
X70261690Y-65975980D01*
X70261690Y-65975980D02*
X70214071Y-65880742D01*
X70214071Y-65880742D02*
X70214071Y-65690266D01*
X70214071Y-65690266D02*
X70261690Y-65595028D01*
X70261690Y-65595028D02*
X70356928Y-65547409D01*
X70356928Y-65547409D02*
X70452166Y-65547409D01*
X70452166Y-65547409D02*
X70547404Y-66023599D01*
X70880738Y-65118837D02*
X70214071Y-65118837D01*
X70404547Y-65118837D02*
X70309309Y-65071218D01*
X70309309Y-65071218D02*
X70261690Y-65023599D01*
X70261690Y-65023599D02*
X70214071Y-64928361D01*
X70214071Y-64928361D02*
X70214071Y-64833123D01*
X70880738Y-63737884D02*
X69880738Y-63737884D01*
X70261690Y-63737884D02*
X70214071Y-63642646D01*
X70214071Y-63642646D02*
X70214071Y-63452170D01*
X70214071Y-63452170D02*
X70261690Y-63356932D01*
X70261690Y-63356932D02*
X70309309Y-63309313D01*
X70309309Y-63309313D02*
X70404547Y-63261694D01*
X70404547Y-63261694D02*
X70690261Y-63261694D01*
X70690261Y-63261694D02*
X70785499Y-63309313D01*
X70785499Y-63309313D02*
X70833119Y-63356932D01*
X70833119Y-63356932D02*
X70880738Y-63452170D01*
X70880738Y-63452170D02*
X70880738Y-63642646D01*
X70880738Y-63642646D02*
X70833119Y-63737884D01*
X70880738Y-62690265D02*
X70833119Y-62785503D01*
X70833119Y-62785503D02*
X70785499Y-62833122D01*
X70785499Y-62833122D02*
X70690261Y-62880741D01*
X70690261Y-62880741D02*
X70404547Y-62880741D01*
X70404547Y-62880741D02*
X70309309Y-62833122D01*
X70309309Y-62833122D02*
X70261690Y-62785503D01*
X70261690Y-62785503D02*
X70214071Y-62690265D01*
X70214071Y-62690265D02*
X70214071Y-62547408D01*
X70214071Y-62547408D02*
X70261690Y-62452170D01*
X70261690Y-62452170D02*
X70309309Y-62404551D01*
X70309309Y-62404551D02*
X70404547Y-62356932D01*
X70404547Y-62356932D02*
X70690261Y-62356932D01*
X70690261Y-62356932D02*
X70785499Y-62404551D01*
X70785499Y-62404551D02*
X70833119Y-62452170D01*
X70833119Y-62452170D02*
X70880738Y-62547408D01*
X70880738Y-62547408D02*
X70880738Y-62690265D01*
X70880738Y-61499789D02*
X70356928Y-61499789D01*
X70356928Y-61499789D02*
X70261690Y-61547408D01*
X70261690Y-61547408D02*
X70214071Y-61642646D01*
X70214071Y-61642646D02*
X70214071Y-61833122D01*
X70214071Y-61833122D02*
X70261690Y-61928360D01*
X70833119Y-61499789D02*
X70880738Y-61595027D01*
X70880738Y-61595027D02*
X70880738Y-61833122D01*
X70880738Y-61833122D02*
X70833119Y-61928360D01*
X70833119Y-61928360D02*
X70737880Y-61975979D01*
X70737880Y-61975979D02*
X70642642Y-61975979D01*
X70642642Y-61975979D02*
X70547404Y-61928360D01*
X70547404Y-61928360D02*
X70499785Y-61833122D01*
X70499785Y-61833122D02*
X70499785Y-61595027D01*
X70499785Y-61595027D02*
X70452166Y-61499789D01*
X70880738Y-61023598D02*
X70214071Y-61023598D01*
X70404547Y-61023598D02*
X70309309Y-60975979D01*
X70309309Y-60975979D02*
X70261690Y-60928360D01*
X70261690Y-60928360D02*
X70214071Y-60833122D01*
X70214071Y-60833122D02*
X70214071Y-60737884D01*
X70880738Y-59975979D02*
X69880738Y-59975979D01*
X70833119Y-59975979D02*
X70880738Y-60071217D01*
X70880738Y-60071217D02*
X70880738Y-60261693D01*
X70880738Y-60261693D02*
X70833119Y-60356931D01*
X70833119Y-60356931D02*
X70785499Y-60404550D01*
X70785499Y-60404550D02*
X70690261Y-60452169D01*
X70690261Y-60452169D02*
X70404547Y-60452169D01*
X70404547Y-60452169D02*
X70309309Y-60404550D01*
X70309309Y-60404550D02*
X70261690Y-60356931D01*
X70261690Y-60356931D02*
X70214071Y-60261693D01*
X70214071Y-60261693D02*
X70214071Y-60071217D01*
X70214071Y-60071217D02*
X70261690Y-59975979D01*
X142706459Y-76460409D02*
X142849316Y-76508028D01*
X142849316Y-76508028D02*
X142896935Y-76555647D01*
X142896935Y-76555647D02*
X142944554Y-76650885D01*
X142944554Y-76650885D02*
X142944554Y-76793742D01*
X142944554Y-76793742D02*
X142896935Y-76888980D01*
X142896935Y-76888980D02*
X142849316Y-76936600D01*
X142849316Y-76936600D02*
X142754078Y-76984219D01*
X142754078Y-76984219D02*
X142373126Y-76984219D01*
X142373126Y-76984219D02*
X142373126Y-75984219D01*
X142373126Y-75984219D02*
X142706459Y-75984219D01*
X142706459Y-75984219D02*
X142801697Y-76031838D01*
X142801697Y-76031838D02*
X142849316Y-76079457D01*
X142849316Y-76079457D02*
X142896935Y-76174695D01*
X142896935Y-76174695D02*
X142896935Y-76269933D01*
X142896935Y-76269933D02*
X142849316Y-76365171D01*
X142849316Y-76365171D02*
X142801697Y-76412790D01*
X142801697Y-76412790D02*
X142706459Y-76460409D01*
X142706459Y-76460409D02*
X142373126Y-76460409D01*
X143944554Y-76984219D02*
X143611221Y-76508028D01*
X143373126Y-76984219D02*
X143373126Y-75984219D01*
X143373126Y-75984219D02*
X143754078Y-75984219D01*
X143754078Y-75984219D02*
X143849316Y-76031838D01*
X143849316Y-76031838D02*
X143896935Y-76079457D01*
X143896935Y-76079457D02*
X143944554Y-76174695D01*
X143944554Y-76174695D02*
X143944554Y-76317552D01*
X143944554Y-76317552D02*
X143896935Y-76412790D01*
X143896935Y-76412790D02*
X143849316Y-76460409D01*
X143849316Y-76460409D02*
X143754078Y-76508028D01*
X143754078Y-76508028D02*
X143373126Y-76508028D01*
X144373126Y-76984219D02*
X144373126Y-75984219D01*
X144373126Y-75984219D02*
X144611221Y-75984219D01*
X144611221Y-75984219D02*
X144754078Y-76031838D01*
X144754078Y-76031838D02*
X144849316Y-76127076D01*
X144849316Y-76127076D02*
X144896935Y-76222314D01*
X144896935Y-76222314D02*
X144944554Y-76412790D01*
X144944554Y-76412790D02*
X144944554Y-76555647D01*
X144944554Y-76555647D02*
X144896935Y-76746123D01*
X144896935Y-76746123D02*
X144849316Y-76841361D01*
X144849316Y-76841361D02*
X144754078Y-76936600D01*
X144754078Y-76936600D02*
X144611221Y-76984219D01*
X144611221Y-76984219D02*
X144373126Y-76984219D01*
X145135031Y-77079457D02*
X145896935Y-77079457D01*
X146706459Y-76984219D02*
X146373126Y-76508028D01*
X146135031Y-76984219D02*
X146135031Y-75984219D01*
X146135031Y-75984219D02*
X146515983Y-75984219D01*
X146515983Y-75984219D02*
X146611221Y-76031838D01*
X146611221Y-76031838D02*
X146658840Y-76079457D01*
X146658840Y-76079457D02*
X146706459Y-76174695D01*
X146706459Y-76174695D02*
X146706459Y-76317552D01*
X146706459Y-76317552D02*
X146658840Y-76412790D01*
X146658840Y-76412790D02*
X146611221Y-76460409D01*
X146611221Y-76460409D02*
X146515983Y-76508028D01*
X146515983Y-76508028D02*
X146135031Y-76508028D01*
X147039793Y-75984219D02*
X147706459Y-76984219D01*
X147706459Y-75984219D02*
X147039793Y-76984219D01*
X150833481Y-94075879D02*
X150833481Y-94409212D01*
X150309671Y-94552069D02*
X150309671Y-94075879D01*
X150309671Y-94075879D02*
X151309671Y-94075879D01*
X151309671Y-94075879D02*
X151309671Y-94552069D01*
X150309671Y-94980641D02*
X151309671Y-94980641D01*
X151309671Y-94980641D02*
X150309671Y-95552069D01*
X150309671Y-95552069D02*
X151309671Y-95552069D01*
X148699727Y-94647307D02*
X149175918Y-94313974D01*
X148699727Y-94075879D02*
X149699727Y-94075879D01*
X149699727Y-94075879D02*
X149699727Y-94456831D01*
X149699727Y-94456831D02*
X149652108Y-94552069D01*
X149652108Y-94552069D02*
X149604489Y-94599688D01*
X149604489Y-94599688D02*
X149509251Y-94647307D01*
X149509251Y-94647307D02*
X149366394Y-94647307D01*
X149366394Y-94647307D02*
X149271156Y-94599688D01*
X149271156Y-94599688D02*
X149223537Y-94552069D01*
X149223537Y-94552069D02*
X149175918Y-94456831D01*
X149175918Y-94456831D02*
X149175918Y-94075879D01*
X148747347Y-95028260D02*
X148699727Y-95171117D01*
X148699727Y-95171117D02*
X148699727Y-95409212D01*
X148699727Y-95409212D02*
X148747347Y-95504450D01*
X148747347Y-95504450D02*
X148794966Y-95552069D01*
X148794966Y-95552069D02*
X148890204Y-95599688D01*
X148890204Y-95599688D02*
X148985442Y-95599688D01*
X148985442Y-95599688D02*
X149080680Y-95552069D01*
X149080680Y-95552069D02*
X149128299Y-95504450D01*
X149128299Y-95504450D02*
X149175918Y-95409212D01*
X149175918Y-95409212D02*
X149223537Y-95218736D01*
X149223537Y-95218736D02*
X149271156Y-95123498D01*
X149271156Y-95123498D02*
X149318775Y-95075879D01*
X149318775Y-95075879D02*
X149414013Y-95028260D01*
X149414013Y-95028260D02*
X149509251Y-95028260D01*
X149509251Y-95028260D02*
X149604489Y-95075879D01*
X149604489Y-95075879D02*
X149652108Y-95123498D01*
X149652108Y-95123498D02*
X149699727Y-95218736D01*
X149699727Y-95218736D02*
X149699727Y-95456831D01*
X149699727Y-95456831D02*
X149652108Y-95599688D01*
X149366394Y-96456831D02*
X148699727Y-96456831D01*
X149747347Y-96218736D02*
X149033061Y-95980641D01*
X149033061Y-95980641D02*
X149033061Y-96599688D01*
X149271156Y-97123498D02*
X149318775Y-97028260D01*
X149318775Y-97028260D02*
X149366394Y-96980641D01*
X149366394Y-96980641D02*
X149461632Y-96933022D01*
X149461632Y-96933022D02*
X149509251Y-96933022D01*
X149509251Y-96933022D02*
X149604489Y-96980641D01*
X149604489Y-96980641D02*
X149652108Y-97028260D01*
X149652108Y-97028260D02*
X149699727Y-97123498D01*
X149699727Y-97123498D02*
X149699727Y-97313974D01*
X149699727Y-97313974D02*
X149652108Y-97409212D01*
X149652108Y-97409212D02*
X149604489Y-97456831D01*
X149604489Y-97456831D02*
X149509251Y-97504450D01*
X149509251Y-97504450D02*
X149461632Y-97504450D01*
X149461632Y-97504450D02*
X149366394Y-97456831D01*
X149366394Y-97456831D02*
X149318775Y-97409212D01*
X149318775Y-97409212D02*
X149271156Y-97313974D01*
X149271156Y-97313974D02*
X149271156Y-97123498D01*
X149271156Y-97123498D02*
X149223537Y-97028260D01*
X149223537Y-97028260D02*
X149175918Y-96980641D01*
X149175918Y-96980641D02*
X149080680Y-96933022D01*
X149080680Y-96933022D02*
X148890204Y-96933022D01*
X148890204Y-96933022D02*
X148794966Y-96980641D01*
X148794966Y-96980641D02*
X148747347Y-97028260D01*
X148747347Y-97028260D02*
X148699727Y-97123498D01*
X148699727Y-97123498D02*
X148699727Y-97313974D01*
X148699727Y-97313974D02*
X148747347Y-97409212D01*
X148747347Y-97409212D02*
X148794966Y-97456831D01*
X148794966Y-97456831D02*
X148890204Y-97504450D01*
X148890204Y-97504450D02*
X149080680Y-97504450D01*
X149080680Y-97504450D02*
X149175918Y-97456831D01*
X149175918Y-97456831D02*
X149223537Y-97409212D01*
X149223537Y-97409212D02*
X149271156Y-97313974D01*
X149699727Y-98409212D02*
X149699727Y-97933022D01*
X149699727Y-97933022D02*
X149223537Y-97885403D01*
X149223537Y-97885403D02*
X149271156Y-97933022D01*
X149271156Y-97933022D02*
X149318775Y-98028260D01*
X149318775Y-98028260D02*
X149318775Y-98266355D01*
X149318775Y-98266355D02*
X149271156Y-98361593D01*
X149271156Y-98361593D02*
X149223537Y-98409212D01*
X149223537Y-98409212D02*
X149128299Y-98456831D01*
X149128299Y-98456831D02*
X148890204Y-98456831D01*
X148890204Y-98456831D02*
X148794966Y-98409212D01*
X148794966Y-98409212D02*
X148747347Y-98361593D01*
X148747347Y-98361593D02*
X148699727Y-98266355D01*
X148699727Y-98266355D02*
X148699727Y-98028260D01*
X148699727Y-98028260D02*
X148747347Y-97933022D01*
X148747347Y-97933022D02*
X148794966Y-97885403D01*
X142833459Y-72548809D02*
X142976316Y-72596428D01*
X142976316Y-72596428D02*
X143023935Y-72644047D01*
X143023935Y-72644047D02*
X143071554Y-72739285D01*
X143071554Y-72739285D02*
X143071554Y-72882142D01*
X143071554Y-72882142D02*
X143023935Y-72977380D01*
X143023935Y-72977380D02*
X142976316Y-73025000D01*
X142976316Y-73025000D02*
X142881078Y-73072619D01*
X142881078Y-73072619D02*
X142500126Y-73072619D01*
X142500126Y-73072619D02*
X142500126Y-72072619D01*
X142500126Y-72072619D02*
X142833459Y-72072619D01*
X142833459Y-72072619D02*
X142928697Y-72120238D01*
X142928697Y-72120238D02*
X142976316Y-72167857D01*
X142976316Y-72167857D02*
X143023935Y-72263095D01*
X143023935Y-72263095D02*
X143023935Y-72358333D01*
X143023935Y-72358333D02*
X142976316Y-72453571D01*
X142976316Y-72453571D02*
X142928697Y-72501190D01*
X142928697Y-72501190D02*
X142833459Y-72548809D01*
X142833459Y-72548809D02*
X142500126Y-72548809D01*
X144071554Y-73072619D02*
X143738221Y-72596428D01*
X143500126Y-73072619D02*
X143500126Y-72072619D01*
X143500126Y-72072619D02*
X143881078Y-72072619D01*
X143881078Y-72072619D02*
X143976316Y-72120238D01*
X143976316Y-72120238D02*
X144023935Y-72167857D01*
X144023935Y-72167857D02*
X144071554Y-72263095D01*
X144071554Y-72263095D02*
X144071554Y-72405952D01*
X144071554Y-72405952D02*
X144023935Y-72501190D01*
X144023935Y-72501190D02*
X143976316Y-72548809D01*
X143976316Y-72548809D02*
X143881078Y-72596428D01*
X143881078Y-72596428D02*
X143500126Y-72596428D01*
X144500126Y-73072619D02*
X144500126Y-72072619D01*
X144500126Y-72072619D02*
X144738221Y-72072619D01*
X144738221Y-72072619D02*
X144881078Y-72120238D01*
X144881078Y-72120238D02*
X144976316Y-72215476D01*
X144976316Y-72215476D02*
X145023935Y-72310714D01*
X145023935Y-72310714D02*
X145071554Y-72501190D01*
X145071554Y-72501190D02*
X145071554Y-72644047D01*
X145071554Y-72644047D02*
X145023935Y-72834523D01*
X145023935Y-72834523D02*
X144976316Y-72929761D01*
X144976316Y-72929761D02*
X144881078Y-73025000D01*
X144881078Y-73025000D02*
X144738221Y-73072619D01*
X144738221Y-73072619D02*
X144500126Y-73072619D01*
X145262031Y-73167857D02*
X146023935Y-73167857D01*
X146119174Y-72072619D02*
X146690602Y-72072619D01*
X146404888Y-73072619D02*
X146404888Y-72072619D01*
X146928698Y-72072619D02*
X147595364Y-73072619D01*
X147595364Y-72072619D02*
X146928698Y-73072619D01*
X146024316Y-68186419D02*
X145548126Y-68186419D01*
X145548126Y-68186419D02*
X145500507Y-68662609D01*
X145500507Y-68662609D02*
X145548126Y-68614990D01*
X145548126Y-68614990D02*
X145643364Y-68567371D01*
X145643364Y-68567371D02*
X145881459Y-68567371D01*
X145881459Y-68567371D02*
X145976697Y-68614990D01*
X145976697Y-68614990D02*
X146024316Y-68662609D01*
X146024316Y-68662609D02*
X146071935Y-68757847D01*
X146071935Y-68757847D02*
X146071935Y-68995942D01*
X146071935Y-68995942D02*
X146024316Y-69091180D01*
X146024316Y-69091180D02*
X145976697Y-69138800D01*
X145976697Y-69138800D02*
X145881459Y-69186419D01*
X145881459Y-69186419D02*
X145643364Y-69186419D01*
X145643364Y-69186419D02*
X145548126Y-69138800D01*
X145548126Y-69138800D02*
X145500507Y-69091180D01*
X146357650Y-68186419D02*
X146690983Y-69186419D01*
X146690983Y-69186419D02*
X147024316Y-68186419D01*
X145589335Y-79816438D02*
X145494097Y-79768819D01*
X145494097Y-79768819D02*
X145351240Y-79768819D01*
X145351240Y-79768819D02*
X145208383Y-79816438D01*
X145208383Y-79816438D02*
X145113145Y-79911676D01*
X145113145Y-79911676D02*
X145065526Y-80006914D01*
X145065526Y-80006914D02*
X145017907Y-80197390D01*
X145017907Y-80197390D02*
X145017907Y-80340247D01*
X145017907Y-80340247D02*
X145065526Y-80530723D01*
X145065526Y-80530723D02*
X145113145Y-80625961D01*
X145113145Y-80625961D02*
X145208383Y-80721200D01*
X145208383Y-80721200D02*
X145351240Y-80768819D01*
X145351240Y-80768819D02*
X145446478Y-80768819D01*
X145446478Y-80768819D02*
X145589335Y-80721200D01*
X145589335Y-80721200D02*
X145636954Y-80673580D01*
X145636954Y-80673580D02*
X145636954Y-80340247D01*
X145636954Y-80340247D02*
X145446478Y-80340247D01*
X146065526Y-80768819D02*
X146065526Y-79768819D01*
X146065526Y-79768819D02*
X146636954Y-80768819D01*
X146636954Y-80768819D02*
X146636954Y-79768819D01*
X147113145Y-80768819D02*
X147113145Y-79768819D01*
X147113145Y-79768819D02*
X147351240Y-79768819D01*
X147351240Y-79768819D02*
X147494097Y-79816438D01*
X147494097Y-79816438D02*
X147589335Y-79911676D01*
X147589335Y-79911676D02*
X147636954Y-80006914D01*
X147636954Y-80006914D02*
X147684573Y-80197390D01*
X147684573Y-80197390D02*
X147684573Y-80340247D01*
X147684573Y-80340247D02*
X147636954Y-80530723D01*
X147636954Y-80530723D02*
X147589335Y-80625961D01*
X147589335Y-80625961D02*
X147494097Y-80721200D01*
X147494097Y-80721200D02*
X147351240Y-80768819D01*
X147351240Y-80768819D02*
X147113145Y-80768819D01*
D11*
X144040632Y-42885380D02*
X144040632Y-43885380D01*
X144040632Y-43885380D02*
X143659680Y-43885380D01*
X143659680Y-43885380D02*
X143564442Y-43837761D01*
X143564442Y-43837761D02*
X143516823Y-43790142D01*
X143516823Y-43790142D02*
X143469204Y-43694904D01*
X143469204Y-43694904D02*
X143469204Y-43552047D01*
X143469204Y-43552047D02*
X143516823Y-43456809D01*
X143516823Y-43456809D02*
X143564442Y-43409190D01*
X143564442Y-43409190D02*
X143659680Y-43361571D01*
X143659680Y-43361571D02*
X144040632Y-43361571D01*
X143088251Y-42933000D02*
X142945394Y-42885380D01*
X142945394Y-42885380D02*
X142707299Y-42885380D01*
X142707299Y-42885380D02*
X142612061Y-42933000D01*
X142612061Y-42933000D02*
X142564442Y-42980619D01*
X142564442Y-42980619D02*
X142516823Y-43075857D01*
X142516823Y-43075857D02*
X142516823Y-43171095D01*
X142516823Y-43171095D02*
X142564442Y-43266333D01*
X142564442Y-43266333D02*
X142612061Y-43313952D01*
X142612061Y-43313952D02*
X142707299Y-43361571D01*
X142707299Y-43361571D02*
X142897775Y-43409190D01*
X142897775Y-43409190D02*
X142993013Y-43456809D01*
X142993013Y-43456809D02*
X143040632Y-43504428D01*
X143040632Y-43504428D02*
X143088251Y-43599666D01*
X143088251Y-43599666D02*
X143088251Y-43694904D01*
X143088251Y-43694904D02*
X143040632Y-43790142D01*
X143040632Y-43790142D02*
X142993013Y-43837761D01*
X142993013Y-43837761D02*
X142897775Y-43885380D01*
X142897775Y-43885380D02*
X142659680Y-43885380D01*
X142659680Y-43885380D02*
X142516823Y-43837761D01*
X141564442Y-42885380D02*
X142135870Y-42885380D01*
X141850156Y-42885380D02*
X141850156Y-43885380D01*
X141850156Y-43885380D02*
X141945394Y-43742523D01*
X141945394Y-43742523D02*
X142040632Y-43647285D01*
X142040632Y-43647285D02*
X142135870Y-43599666D01*
X148656566Y-53266933D02*
X149370851Y-53266933D01*
X149370851Y-53266933D02*
X149513708Y-53314552D01*
X149513708Y-53314552D02*
X149608947Y-53409790D01*
X149608947Y-53409790D02*
X149656566Y-53552647D01*
X149656566Y-53552647D02*
X149656566Y-53647885D01*
X149085137Y-52647885D02*
X149037518Y-52743123D01*
X149037518Y-52743123D02*
X148989899Y-52790742D01*
X148989899Y-52790742D02*
X148894661Y-52838361D01*
X148894661Y-52838361D02*
X148847042Y-52838361D01*
X148847042Y-52838361D02*
X148751804Y-52790742D01*
X148751804Y-52790742D02*
X148704185Y-52743123D01*
X148704185Y-52743123D02*
X148656566Y-52647885D01*
X148656566Y-52647885D02*
X148656566Y-52457409D01*
X148656566Y-52457409D02*
X148704185Y-52362171D01*
X148704185Y-52362171D02*
X148751804Y-52314552D01*
X148751804Y-52314552D02*
X148847042Y-52266933D01*
X148847042Y-52266933D02*
X148894661Y-52266933D01*
X148894661Y-52266933D02*
X148989899Y-52314552D01*
X148989899Y-52314552D02*
X149037518Y-52362171D01*
X149037518Y-52362171D02*
X149085137Y-52457409D01*
X149085137Y-52457409D02*
X149085137Y-52647885D01*
X149085137Y-52647885D02*
X149132756Y-52743123D01*
X149132756Y-52743123D02*
X149180375Y-52790742D01*
X149180375Y-52790742D02*
X149275613Y-52838361D01*
X149275613Y-52838361D02*
X149466089Y-52838361D01*
X149466089Y-52838361D02*
X149561327Y-52790742D01*
X149561327Y-52790742D02*
X149608947Y-52743123D01*
X149608947Y-52743123D02*
X149656566Y-52647885D01*
X149656566Y-52647885D02*
X149656566Y-52457409D01*
X149656566Y-52457409D02*
X149608947Y-52362171D01*
X149608947Y-52362171D02*
X149561327Y-52314552D01*
X149561327Y-52314552D02*
X149466089Y-52266933D01*
X149466089Y-52266933D02*
X149275613Y-52266933D01*
X149275613Y-52266933D02*
X149180375Y-52314552D01*
X149180375Y-52314552D02*
X149132756Y-52362171D01*
X149132756Y-52362171D02*
X149085137Y-52457409D01*
D10*
X151877280Y-39475580D02*
X151829661Y-39523200D01*
X151829661Y-39523200D02*
X151686804Y-39570819D01*
X151686804Y-39570819D02*
X151591566Y-39570819D01*
X151591566Y-39570819D02*
X151448709Y-39523200D01*
X151448709Y-39523200D02*
X151353471Y-39427961D01*
X151353471Y-39427961D02*
X151305852Y-39332723D01*
X151305852Y-39332723D02*
X151258233Y-39142247D01*
X151258233Y-39142247D02*
X151258233Y-38999390D01*
X151258233Y-38999390D02*
X151305852Y-38808914D01*
X151305852Y-38808914D02*
X151353471Y-38713676D01*
X151353471Y-38713676D02*
X151448709Y-38618438D01*
X151448709Y-38618438D02*
X151591566Y-38570819D01*
X151591566Y-38570819D02*
X151686804Y-38570819D01*
X151686804Y-38570819D02*
X151829661Y-38618438D01*
X151829661Y-38618438D02*
X151877280Y-38666057D01*
X152448709Y-38999390D02*
X152353471Y-38951771D01*
X152353471Y-38951771D02*
X152305852Y-38904152D01*
X152305852Y-38904152D02*
X152258233Y-38808914D01*
X152258233Y-38808914D02*
X152258233Y-38761295D01*
X152258233Y-38761295D02*
X152305852Y-38666057D01*
X152305852Y-38666057D02*
X152353471Y-38618438D01*
X152353471Y-38618438D02*
X152448709Y-38570819D01*
X152448709Y-38570819D02*
X152639185Y-38570819D01*
X152639185Y-38570819D02*
X152734423Y-38618438D01*
X152734423Y-38618438D02*
X152782042Y-38666057D01*
X152782042Y-38666057D02*
X152829661Y-38761295D01*
X152829661Y-38761295D02*
X152829661Y-38808914D01*
X152829661Y-38808914D02*
X152782042Y-38904152D01*
X152782042Y-38904152D02*
X152734423Y-38951771D01*
X152734423Y-38951771D02*
X152639185Y-38999390D01*
X152639185Y-38999390D02*
X152448709Y-38999390D01*
X152448709Y-38999390D02*
X152353471Y-39047009D01*
X152353471Y-39047009D02*
X152305852Y-39094628D01*
X152305852Y-39094628D02*
X152258233Y-39189866D01*
X152258233Y-39189866D02*
X152258233Y-39380342D01*
X152258233Y-39380342D02*
X152305852Y-39475580D01*
X152305852Y-39475580D02*
X152353471Y-39523200D01*
X152353471Y-39523200D02*
X152448709Y-39570819D01*
X152448709Y-39570819D02*
X152639185Y-39570819D01*
X152639185Y-39570819D02*
X152734423Y-39523200D01*
X152734423Y-39523200D02*
X152782042Y-39475580D01*
X152782042Y-39475580D02*
X152829661Y-39380342D01*
X152829661Y-39380342D02*
X152829661Y-39189866D01*
X152829661Y-39189866D02*
X152782042Y-39094628D01*
X152782042Y-39094628D02*
X152734423Y-39047009D01*
X152734423Y-39047009D02*
X152639185Y-38999390D01*
X104314261Y-70704904D02*
X104790451Y-70704904D01*
X104219023Y-70990619D02*
X104552356Y-69990619D01*
X104552356Y-69990619D02*
X104885689Y-70990619D01*
X105742832Y-70990619D02*
X105171404Y-70990619D01*
X105457118Y-70990619D02*
X105457118Y-69990619D01*
X105457118Y-69990619D02*
X105361880Y-70133476D01*
X105361880Y-70133476D02*
X105266642Y-70228714D01*
X105266642Y-70228714D02*
X105171404Y-70276333D01*
D11*
X84732452Y-52771419D02*
X84732452Y-51771419D01*
X85303880Y-52771419D02*
X84875309Y-52199990D01*
X85303880Y-51771419D02*
X84732452Y-52342847D01*
X85637214Y-51771419D02*
X86256261Y-51771419D01*
X86256261Y-51771419D02*
X85922928Y-52152371D01*
X85922928Y-52152371D02*
X86065785Y-52152371D01*
X86065785Y-52152371D02*
X86161023Y-52199990D01*
X86161023Y-52199990D02*
X86208642Y-52247609D01*
X86208642Y-52247609D02*
X86256261Y-52342847D01*
X86256261Y-52342847D02*
X86256261Y-52580942D01*
X86256261Y-52580942D02*
X86208642Y-52676180D01*
X86208642Y-52676180D02*
X86161023Y-52723800D01*
X86161023Y-52723800D02*
X86065785Y-52771419D01*
X86065785Y-52771419D02*
X85780071Y-52771419D01*
X85780071Y-52771419D02*
X85684833Y-52723800D01*
X85684833Y-52723800D02*
X85637214Y-52676180D01*
D10*
X148696061Y-63947219D02*
X148696061Y-62947219D01*
X148696061Y-62947219D02*
X148934156Y-62947219D01*
X148934156Y-62947219D02*
X149077013Y-62994838D01*
X149077013Y-62994838D02*
X149172251Y-63090076D01*
X149172251Y-63090076D02*
X149219870Y-63185314D01*
X149219870Y-63185314D02*
X149267489Y-63375790D01*
X149267489Y-63375790D02*
X149267489Y-63518647D01*
X149267489Y-63518647D02*
X149219870Y-63709123D01*
X149219870Y-63709123D02*
X149172251Y-63804361D01*
X149172251Y-63804361D02*
X149077013Y-63899600D01*
X149077013Y-63899600D02*
X148934156Y-63947219D01*
X148934156Y-63947219D02*
X148696061Y-63947219D01*
X150219870Y-63947219D02*
X149648442Y-63947219D01*
X149934156Y-63947219D02*
X149934156Y-62947219D01*
X149934156Y-62947219D02*
X149838918Y-63090076D01*
X149838918Y-63090076D02*
X149743680Y-63185314D01*
X149743680Y-63185314D02*
X149648442Y-63232933D01*
X151172251Y-63947219D02*
X150600823Y-63947219D01*
X150886537Y-63947219D02*
X150886537Y-62947219D01*
X150886537Y-62947219D02*
X150791299Y-63090076D01*
X150791299Y-63090076D02*
X150696061Y-63185314D01*
X150696061Y-63185314D02*
X150600823Y-63232933D01*
D11*
X84732452Y-40995819D02*
X84732452Y-39995819D01*
X85303880Y-40995819D02*
X84875309Y-40424390D01*
X85303880Y-39995819D02*
X84732452Y-40567247D01*
X85684833Y-40091057D02*
X85732452Y-40043438D01*
X85732452Y-40043438D02*
X85827690Y-39995819D01*
X85827690Y-39995819D02*
X86065785Y-39995819D01*
X86065785Y-39995819D02*
X86161023Y-40043438D01*
X86161023Y-40043438D02*
X86208642Y-40091057D01*
X86208642Y-40091057D02*
X86256261Y-40186295D01*
X86256261Y-40186295D02*
X86256261Y-40281533D01*
X86256261Y-40281533D02*
X86208642Y-40424390D01*
X86208642Y-40424390D02*
X85637214Y-40995819D01*
X85637214Y-40995819D02*
X86256261Y-40995819D01*
D10*
X153461366Y-86769133D02*
X154175651Y-86769133D01*
X154175651Y-86769133D02*
X154318508Y-86816752D01*
X154318508Y-86816752D02*
X154413747Y-86911990D01*
X154413747Y-86911990D02*
X154461366Y-87054847D01*
X154461366Y-87054847D02*
X154461366Y-87150085D01*
X153461366Y-85864371D02*
X153461366Y-86054847D01*
X153461366Y-86054847D02*
X153508985Y-86150085D01*
X153508985Y-86150085D02*
X153556604Y-86197704D01*
X153556604Y-86197704D02*
X153699461Y-86292942D01*
X153699461Y-86292942D02*
X153889937Y-86340561D01*
X153889937Y-86340561D02*
X154270889Y-86340561D01*
X154270889Y-86340561D02*
X154366127Y-86292942D01*
X154366127Y-86292942D02*
X154413747Y-86245323D01*
X154413747Y-86245323D02*
X154461366Y-86150085D01*
X154461366Y-86150085D02*
X154461366Y-85959609D01*
X154461366Y-85959609D02*
X154413747Y-85864371D01*
X154413747Y-85864371D02*
X154366127Y-85816752D01*
X154366127Y-85816752D02*
X154270889Y-85769133D01*
X154270889Y-85769133D02*
X154032794Y-85769133D01*
X154032794Y-85769133D02*
X153937556Y-85816752D01*
X153937556Y-85816752D02*
X153889937Y-85864371D01*
X153889937Y-85864371D02*
X153842318Y-85959609D01*
X153842318Y-85959609D02*
X153842318Y-86150085D01*
X153842318Y-86150085D02*
X153889937Y-86245323D01*
X153889937Y-86245323D02*
X153937556Y-86292942D01*
X153937556Y-86292942D02*
X154032794Y-86340561D01*
D11*
X71424566Y-47169294D02*
X70424566Y-47169294D01*
X71424566Y-46597866D02*
X70853137Y-47026437D01*
X70424566Y-46597866D02*
X70995994Y-47169294D01*
X71424566Y-45645485D02*
X71424566Y-46216913D01*
X71424566Y-45931199D02*
X70424566Y-45931199D01*
X70424566Y-45931199D02*
X70567423Y-46026437D01*
X70567423Y-46026437D02*
X70662661Y-46121675D01*
X70662661Y-46121675D02*
X70710280Y-46216913D01*
D10*
X153461366Y-90769133D02*
X154175651Y-90769133D01*
X154175651Y-90769133D02*
X154318508Y-90816752D01*
X154318508Y-90816752D02*
X154413747Y-90911990D01*
X154413747Y-90911990D02*
X154461366Y-91054847D01*
X154461366Y-91054847D02*
X154461366Y-91150085D01*
X153461366Y-90388180D02*
X153461366Y-89721514D01*
X153461366Y-89721514D02*
X154461366Y-90150085D01*
D11*
X151431213Y-61889219D02*
X151431213Y-62603504D01*
X151431213Y-62603504D02*
X151383594Y-62746361D01*
X151383594Y-62746361D02*
X151288356Y-62841600D01*
X151288356Y-62841600D02*
X151145499Y-62889219D01*
X151145499Y-62889219D02*
X151050261Y-62889219D01*
X152383594Y-61889219D02*
X151907404Y-61889219D01*
X151907404Y-61889219D02*
X151859785Y-62365409D01*
X151859785Y-62365409D02*
X151907404Y-62317790D01*
X151907404Y-62317790D02*
X152002642Y-62270171D01*
X152002642Y-62270171D02*
X152240737Y-62270171D01*
X152240737Y-62270171D02*
X152335975Y-62317790D01*
X152335975Y-62317790D02*
X152383594Y-62365409D01*
X152383594Y-62365409D02*
X152431213Y-62460647D01*
X152431213Y-62460647D02*
X152431213Y-62698742D01*
X152431213Y-62698742D02*
X152383594Y-62793980D01*
X152383594Y-62793980D02*
X152335975Y-62841600D01*
X152335975Y-62841600D02*
X152240737Y-62889219D01*
X152240737Y-62889219D02*
X152002642Y-62889219D01*
X152002642Y-62889219D02*
X151907404Y-62841600D01*
X151907404Y-62841600D02*
X151859785Y-62793980D01*
%TO.C,PS1*%
X146346347Y-32932800D02*
X93946347Y-32932800D01*
X93946347Y-60132800D01*
X146346347Y-60132800D01*
X146346347Y-32932800D01*
%TO.C,J8*%
D12*
X148062947Y-47401400D02*
X150062947Y-47401400D01*
X150062947Y-58831400D01*
X148062947Y-58831400D01*
X148062947Y-47401400D01*
X148062947Y-47401400D02*
X155462947Y-47401400D01*
X155462947Y-58831400D01*
X148062947Y-58831400D01*
X148062947Y-47401400D01*
%TO.C,C8*%
X146733147Y-44313300D02*
X150483147Y-44313300D01*
X157253147Y-44313300D02*
X153503147Y-44313300D01*
X146733147Y-34857737D02*
X146733147Y-44313300D01*
X157253147Y-34857737D02*
X157253147Y-44313300D01*
X147797584Y-33793300D02*
X146733147Y-34857737D01*
X147797584Y-33793300D02*
X150483147Y-33793300D01*
X156188710Y-33793300D02*
X157253147Y-34857737D01*
X156188710Y-33793300D02*
X153503147Y-33793300D01*
X155378147Y-32928300D02*
X154128147Y-32928300D01*
X154753147Y-32303300D02*
X154753147Y-33553300D01*
%TO.C,A1*%
X69338547Y-104065800D02*
X69338547Y-115745800D01*
X69338547Y-115745800D02*
X75688547Y-115745800D01*
X73788547Y-74855800D02*
X73788547Y-83995800D01*
X73788547Y-83995800D02*
X75688547Y-83995800D01*
X75688547Y-71675800D02*
X75688547Y-74855800D01*
X75688547Y-74855800D02*
X73788547Y-74855800D01*
X75688547Y-83995800D02*
X75688547Y-104065800D01*
X75688547Y-104065800D02*
X69338547Y-104065800D01*
X75688547Y-115745800D02*
X75688547Y-125275800D01*
X75688547Y-125275800D02*
X140338547Y-125275800D01*
X140338547Y-125275800D02*
X141988547Y-123625800D01*
X141988547Y-71675800D02*
X75688547Y-71675800D01*
X141988547Y-74345800D02*
X141988547Y-71675800D01*
X141988547Y-112195800D02*
X144528547Y-109655800D01*
X141988547Y-123625800D02*
X141988547Y-112195800D01*
X144528547Y-76885800D02*
X141988547Y-74345800D01*
X144528547Y-109655800D02*
X144528547Y-76885800D01*
%TO.C,K3*%
D11*
X77670547Y-47014000D02*
X93270547Y-47014000D01*
X93270547Y-57614000D01*
X77670547Y-57614000D01*
X77670547Y-47014000D01*
D12*
%TO.C,D11*%
X148250347Y-64187400D02*
X148250347Y-65657400D01*
X148250347Y-65657400D02*
X150710347Y-65657400D01*
X150710347Y-64187400D02*
X148250347Y-64187400D01*
%TO.C,K2*%
D11*
X77670547Y-35238400D02*
X93270547Y-35238400D01*
X93270547Y-45838400D01*
X77670547Y-45838400D01*
X77670547Y-35238400D01*
D12*
%TO.C,J6*%
X147366547Y-85105800D02*
X147366547Y-87765800D01*
X149966547Y-85105800D02*
X147366547Y-85105800D01*
X149966547Y-85105800D02*
X149966547Y-87765800D01*
X149966547Y-87765800D02*
X147366547Y-87765800D01*
X152566547Y-86435800D02*
X152566547Y-87765800D01*
X152566547Y-87765800D02*
X151236547Y-87765800D01*
%TO.C,K1*%
D11*
X65667147Y-54231200D02*
X76267147Y-54231200D01*
X76267147Y-38631200D01*
X65667147Y-38631200D01*
X65667147Y-54231200D01*
D12*
%TO.C,J7*%
X147366547Y-89105800D02*
X147366547Y-91765800D01*
X149966547Y-89105800D02*
X147366547Y-89105800D01*
X149966547Y-89105800D02*
X149966547Y-91765800D01*
X149966547Y-91765800D02*
X147366547Y-91765800D01*
X152566547Y-90435800D02*
X152566547Y-91765800D01*
X152566547Y-91765800D02*
X151236547Y-91765800D01*
D13*
%TO.C,*%
G36*
X102714513Y-129963333D02*
G01*
X100505818Y-129963333D01*
X100505818Y-129116667D01*
X102714513Y-129116667D01*
X102714513Y-129963333D01*
G37*
G36*
X103818861Y-129963333D02*
G01*
X102969363Y-129963333D01*
X102969363Y-129116667D01*
X103818861Y-129116667D01*
X103818861Y-129963333D01*
G37*
G36*
X104923209Y-129963333D02*
G01*
X104073710Y-129963333D01*
X104073710Y-128951860D01*
X101567690Y-128905000D01*
X101542014Y-128460500D01*
X101516337Y-128016000D01*
X104073710Y-128016000D01*
X104073710Y-127169333D01*
X104923209Y-127169333D01*
X104923209Y-129963333D01*
G37*
G36*
X105434252Y-130235708D02*
G01*
X105477101Y-130291113D01*
X105502280Y-130427277D01*
X105514332Y-130671966D01*
X105517796Y-131052950D01*
X105517858Y-131142458D01*
X105516003Y-131551460D01*
X105506849Y-131820356D01*
X105485012Y-131978364D01*
X105445107Y-132054700D01*
X105381750Y-132078581D01*
X105345084Y-132080000D01*
X105269066Y-132070573D01*
X105220590Y-132022503D01*
X105194802Y-131906107D01*
X105186849Y-131691701D01*
X105191876Y-131349601D01*
X105196422Y-131170837D01*
X105210560Y-130762760D01*
X105230741Y-130494386D01*
X105262425Y-130336086D01*
X105311073Y-130258232D01*
X105369195Y-130233295D01*
X105434252Y-130235708D01*
G37*
G36*
X111119263Y-130638779D02*
G01*
X111124547Y-130715463D01*
X111067662Y-130865506D01*
X110971637Y-130894667D01*
X110784719Y-130944448D01*
X110670969Y-131107221D01*
X110620034Y-131403128D01*
X110614848Y-131588933D01*
X110608216Y-131866878D01*
X110579264Y-132014990D01*
X110514401Y-132072544D01*
X110444948Y-132080000D01*
X110362294Y-132066592D01*
X110311827Y-132004280D01*
X110285716Y-131859933D01*
X110276129Y-131600422D01*
X110275048Y-131361282D01*
X110277508Y-131012825D01*
X110290819Y-130800416D01*
X110323875Y-130690782D01*
X110385571Y-130650646D01*
X110466185Y-130646302D01*
X110698218Y-130628503D01*
X110890935Y-130593150D01*
X111058973Y-130571177D01*
X111119263Y-130638779D01*
G37*
G36*
X112651737Y-130654215D02*
G01*
X112702259Y-130717067D01*
X112728229Y-130862535D01*
X112737611Y-131123933D01*
X112738593Y-131351072D01*
X112738593Y-132061478D01*
X112195867Y-132069593D01*
X111842656Y-132058590D01*
X111628362Y-132009281D01*
X111547312Y-131950617D01*
X111488139Y-131805378D01*
X111434836Y-131546925D01*
X111399025Y-131232097D01*
X111380204Y-130922926D01*
X111385088Y-130745827D01*
X111422270Y-130664209D01*
X111500339Y-130641480D01*
X111537881Y-130640667D01*
X111645618Y-130659691D01*
X111699702Y-130744842D01*
X111717940Y-130938237D01*
X111719195Y-131069566D01*
X111753620Y-131475320D01*
X111857061Y-131726793D01*
X112029772Y-131824548D01*
X112058995Y-131826000D01*
X112241264Y-131749367D01*
X112354229Y-131519095D01*
X112398142Y-131134619D01*
X112398794Y-131069566D01*
X112407504Y-130813617D01*
X112444569Y-130685170D01*
X112526395Y-130642815D01*
X112568694Y-130640667D01*
X112651737Y-130654215D01*
G37*
G36*
X106963501Y-130608362D02*
G01*
X107132280Y-130708611D01*
X107244752Y-130823707D01*
X107313121Y-130975830D01*
X107352354Y-131213017D01*
X107371748Y-131477145D01*
X107386052Y-131790256D01*
X107378746Y-131970775D01*
X107341093Y-132054955D01*
X107264354Y-132079052D01*
X107226441Y-132080000D01*
X107122458Y-132061915D01*
X107068641Y-131980405D01*
X107048996Y-131794584D01*
X107046955Y-131621258D01*
X107034293Y-131260429D01*
X106988201Y-131038474D01*
X106896513Y-130926266D01*
X106747067Y-130894676D01*
X106743530Y-130894667D01*
X106548112Y-130957013D01*
X106425926Y-131151449D01*
X106371454Y-131489074D01*
X106367356Y-131651100D01*
X106350367Y-131932150D01*
X106296349Y-132064323D01*
X106254090Y-132080000D01*
X106109612Y-132042391D01*
X106084190Y-132023555D01*
X106057437Y-131917549D01*
X106037498Y-131687396D01*
X106027921Y-131378252D01*
X106027557Y-131302544D01*
X106027557Y-130637977D01*
X106261169Y-130643854D01*
X106529053Y-130627823D01*
X106710885Y-130596331D01*
X106963501Y-130608362D01*
G37*
G36*
X109560641Y-130284071D02*
G01*
X109595450Y-130422792D01*
X109632878Y-130591860D01*
X109763867Y-130640664D01*
X109765349Y-130640667D01*
X109903715Y-130693606D01*
X109935249Y-130767667D01*
X109863993Y-130870996D01*
X109760910Y-130894667D01*
X109659997Y-130912063D01*
X109612495Y-130991848D01*
X109604559Y-131175418D01*
X109612248Y-131339167D01*
X109637874Y-131604110D01*
X109684895Y-131736416D01*
X109768043Y-131772652D01*
X109786587Y-131771907D01*
X109912381Y-131826458D01*
X109935249Y-131920074D01*
X109869215Y-132040467D01*
X109712356Y-132087000D01*
X109526539Y-132060077D01*
X109373628Y-131960097D01*
X109343589Y-131916233D01*
X109291797Y-131736948D01*
X109260198Y-131467883D01*
X109255650Y-131323566D01*
X109242338Y-131055400D01*
X109196157Y-130923408D01*
X109128226Y-130894667D01*
X109015602Y-130826894D01*
X109000801Y-130767667D01*
X109065771Y-130655350D01*
X109122317Y-130640667D01*
X109227790Y-130568623D01*
X109270979Y-130451031D01*
X109342951Y-130283988D01*
X109458269Y-130226701D01*
X109560641Y-130284071D01*
G37*
G36*
X118643226Y-130675618D02*
G01*
X118752421Y-130761438D01*
X118815948Y-130870723D01*
X118845983Y-131047826D01*
X118854701Y-131337100D01*
X118854981Y-131446952D01*
X118848272Y-131781308D01*
X118824032Y-131977358D01*
X118776092Y-132065748D01*
X118727557Y-132080000D01*
X118650207Y-132037674D01*
X118610692Y-131889446D01*
X118600132Y-131621258D01*
X118587471Y-131260429D01*
X118541378Y-131038474D01*
X118449690Y-130926266D01*
X118300244Y-130894676D01*
X118296708Y-130894667D01*
X118101289Y-130957013D01*
X117979103Y-131151449D01*
X117924631Y-131489074D01*
X117920533Y-131651100D01*
X117911823Y-131907050D01*
X117874758Y-132035496D01*
X117792933Y-132077851D01*
X117750634Y-132080000D01*
X117668303Y-132066707D01*
X117617884Y-132004841D01*
X117591657Y-131861423D01*
X117581901Y-131603472D01*
X117580734Y-131354274D01*
X117582980Y-131004153D01*
X117595564Y-130790951D01*
X117627251Y-130682262D01*
X117686806Y-130645677D01*
X117771871Y-130647654D01*
X118001465Y-130639171D01*
X118197239Y-130602047D01*
X118475191Y-130596652D01*
X118643226Y-130675618D01*
G37*
G36*
X119718745Y-130304463D02*
G01*
X119774100Y-130451031D01*
X119858586Y-130609653D01*
X119965238Y-130640667D01*
X120099677Y-130695160D01*
X120129229Y-130767667D01*
X120058407Y-130871095D01*
X119959329Y-130894667D01*
X119861611Y-130914632D01*
X119810435Y-131001153D01*
X119791408Y-131194163D01*
X119789430Y-131366039D01*
X119794790Y-131632728D01*
X119820521Y-131765772D01*
X119881102Y-131800756D01*
X119959329Y-131783667D01*
X120092569Y-131776439D01*
X120129193Y-131897782D01*
X120129229Y-131904961D01*
X120088196Y-132035844D01*
X119936249Y-132079069D01*
X119891369Y-132080000D01*
X119679112Y-132045691D01*
X119551570Y-131978400D01*
X119495898Y-131842673D01*
X119458872Y-131598664D01*
X119449630Y-131385733D01*
X119439235Y-131096367D01*
X119402525Y-130943434D01*
X119331211Y-130894994D01*
X119322205Y-130894667D01*
X119209582Y-130826894D01*
X119194781Y-130767667D01*
X119262780Y-130655418D01*
X119322205Y-130640667D01*
X119424485Y-130566736D01*
X119449630Y-130422792D01*
X119498296Y-130266248D01*
X119606765Y-130228438D01*
X119718745Y-130304463D01*
G37*
G36*
X108501882Y-130607074D02*
G01*
X108672828Y-130719323D01*
X108803309Y-130857428D01*
X108793696Y-130961379D01*
X108777204Y-130980275D01*
X108657047Y-131033476D01*
X108512370Y-130972922D01*
X108351647Y-130919298D01*
X108193358Y-130927251D01*
X108097418Y-130984921D01*
X108102641Y-131054023D01*
X108212670Y-131128609D01*
X108383637Y-131188427D01*
X108595722Y-131262492D01*
X108724239Y-131335174D01*
X108810179Y-131497917D01*
X108824173Y-131725742D01*
X108765569Y-131930024D01*
X108728961Y-131978400D01*
X108553826Y-132056480D01*
X108295552Y-132075824D01*
X108029711Y-132038124D01*
X107848977Y-131958700D01*
X107740594Y-131846732D01*
X107774745Y-131746423D01*
X107788549Y-131731810D01*
X107901878Y-131669947D01*
X108060422Y-131716285D01*
X108101380Y-131737361D01*
X108306068Y-131800063D01*
X108483628Y-131782416D01*
X108573761Y-131692873D01*
X108576052Y-131670826D01*
X108503807Y-131599104D01*
X108320036Y-131501833D01*
X108193777Y-131449500D01*
X107958051Y-131345540D01*
X107844780Y-131242024D01*
X107812069Y-131096463D01*
X107811503Y-131061798D01*
X107886863Y-130803618D01*
X108000305Y-130687801D01*
X108259694Y-130568772D01*
X108501882Y-130607074D01*
G37*
G36*
X121074457Y-130607074D02*
G01*
X121245403Y-130719323D01*
X121375885Y-130857428D01*
X121366271Y-130961379D01*
X121349779Y-130980275D01*
X121229622Y-131033476D01*
X121084945Y-130972922D01*
X120924222Y-130919298D01*
X120765933Y-130927251D01*
X120669993Y-130984921D01*
X120675216Y-131054023D01*
X120785245Y-131128609D01*
X120956212Y-131188427D01*
X121168298Y-131262492D01*
X121296814Y-131335174D01*
X121382754Y-131497917D01*
X121396748Y-131725742D01*
X121338144Y-131930024D01*
X121301537Y-131978400D01*
X121126402Y-132056480D01*
X120868127Y-132075824D01*
X120602287Y-132038124D01*
X120421552Y-131958700D01*
X120313170Y-131846732D01*
X120347320Y-131746423D01*
X120361124Y-131731810D01*
X120474453Y-131669947D01*
X120632997Y-131716285D01*
X120673955Y-131737361D01*
X120878643Y-131800063D01*
X121056204Y-131782416D01*
X121146336Y-131692873D01*
X121148627Y-131670826D01*
X121076382Y-131599104D01*
X120892611Y-131501833D01*
X120766353Y-131449500D01*
X120530626Y-131345540D01*
X120417355Y-131242024D01*
X120384644Y-131096463D01*
X120384078Y-131061798D01*
X120459439Y-130803618D01*
X120572880Y-130687801D01*
X120832269Y-130568772D01*
X121074457Y-130607074D01*
G37*
G36*
X116860306Y-130692355D02*
G01*
X117093894Y-130921846D01*
X117141082Y-131006414D01*
X117222745Y-131236540D01*
X117189851Y-131382605D01*
X117025943Y-131460692D01*
X116714563Y-131486884D01*
X116648952Y-131487333D01*
X116335828Y-131498438D01*
X116175786Y-131537807D01*
X116153101Y-131614522D01*
X116238527Y-131724400D01*
X116439054Y-131817902D01*
X116675693Y-131787269D01*
X116811437Y-131703283D01*
X116983216Y-131628512D01*
X117069597Y-131655781D01*
X117140375Y-131730530D01*
X117093485Y-131835328D01*
X117033253Y-131905498D01*
X116801825Y-132047152D01*
X116502421Y-132087336D01*
X116202048Y-132027415D01*
X115981495Y-131884043D01*
X115838518Y-131629186D01*
X115792063Y-131315451D01*
X115828414Y-131099523D01*
X116177079Y-131099523D01*
X116234623Y-131138006D01*
X116427372Y-131148529D01*
X116473064Y-131148667D01*
X116712479Y-131129916D01*
X116798387Y-131070932D01*
X116795476Y-131042833D01*
X116686609Y-130944310D01*
X116498419Y-130914024D01*
X116308558Y-130955438D01*
X116225101Y-131017386D01*
X116177079Y-131099523D01*
X115828414Y-131099523D01*
X115843217Y-131011588D01*
X115964526Y-130812153D01*
X116250782Y-130630105D01*
X116564322Y-130592640D01*
X116860306Y-130692355D01*
G37*
G36*
X115088583Y-130692893D02*
G01*
X115154591Y-130754914D01*
X115275788Y-130898544D01*
X115341718Y-131059820D01*
X115368306Y-131295200D01*
X115372038Y-131525818D01*
X115366815Y-131824908D01*
X115343520Y-131992096D01*
X115290718Y-132064686D01*
X115202139Y-132080000D01*
X115110366Y-132062926D01*
X115059108Y-131986814D01*
X115036892Y-131814326D01*
X115032239Y-131527009D01*
X115022536Y-131209133D01*
X114987886Y-131023522D01*
X114919977Y-130933921D01*
X114893268Y-130920868D01*
X114694905Y-130904033D01*
X114557587Y-131033560D01*
X114477270Y-131315339D01*
X114454774Y-131559636D01*
X114433520Y-131849806D01*
X114396623Y-132008023D01*
X114330637Y-132071656D01*
X114267518Y-132080000D01*
X114179679Y-132059055D01*
X114126715Y-131972190D01*
X114096829Y-131783359D01*
X114080435Y-131508500D01*
X114061761Y-131202693D01*
X114030097Y-131027191D01*
X113971354Y-130942969D01*
X113871439Y-130911002D01*
X113864316Y-130909962D01*
X113686820Y-130959885D01*
X113567360Y-131163583D01*
X113508845Y-131514658D01*
X113503142Y-131704512D01*
X113485987Y-131953630D01*
X113427820Y-132065873D01*
X113375717Y-132080000D01*
X113311976Y-132049250D01*
X113272980Y-131937326D01*
X113253497Y-131714713D01*
X113248292Y-131361282D01*
X113250843Y-131012583D01*
X113264428Y-130799543D01*
X113297944Y-130688500D01*
X113360288Y-130645791D01*
X113439430Y-130638144D01*
X113749428Y-130634566D01*
X114070440Y-130636237D01*
X114315936Y-130642642D01*
X114331403Y-130643435D01*
X114526360Y-130629457D01*
X114708605Y-130594885D01*
X114906802Y-130586399D01*
X115088583Y-130692893D01*
G37*
G36*
X107301804Y-126915333D02*
G01*
X106112506Y-126915333D01*
X106112506Y-128058333D01*
X106115195Y-128526649D01*
X106125091Y-128850335D01*
X106144943Y-129054037D01*
X106177497Y-129162401D01*
X106225503Y-129200072D01*
X106239931Y-129201333D01*
X106299699Y-129173146D01*
X106337928Y-129069921D01*
X106358887Y-128863664D01*
X106366849Y-128526381D01*
X106367356Y-128366085D01*
X106372205Y-127964272D01*
X106391244Y-127691142D01*
X106431207Y-127506207D01*
X106498831Y-127368980D01*
X106543421Y-127307751D01*
X106719487Y-127084667D01*
X108523506Y-127084667D01*
X109157946Y-127087020D01*
X109642903Y-127094907D01*
X109998739Y-127109567D01*
X110245816Y-127132241D01*
X110404496Y-127164168D01*
X110492424Y-127204572D01*
X110562270Y-127274329D01*
X110612499Y-127385146D01*
X110648376Y-127566922D01*
X110675162Y-127849560D01*
X110698123Y-128262961D01*
X110704795Y-128411072D01*
X110752267Y-129497667D01*
X110768507Y-128460500D01*
X110780014Y-127950005D01*
X110811232Y-127584570D01*
X110884969Y-127339947D01*
X111024037Y-127191892D01*
X111251245Y-127116157D01*
X111589404Y-127088498D01*
X112061323Y-127084666D01*
X112062856Y-127084666D01*
X112477648Y-127087050D01*
X112759210Y-127098630D01*
X112944190Y-127126046D01*
X113069238Y-127175940D01*
X113171004Y-127254954D01*
X113209679Y-127292485D01*
X113418192Y-127500303D01*
X113626705Y-127292485D01*
X113703500Y-127220399D01*
X113785219Y-127167268D01*
X113897275Y-127130202D01*
X114065079Y-127106308D01*
X114314044Y-127092695D01*
X114669583Y-127086472D01*
X115157107Y-127084746D01*
X115453127Y-127084667D01*
X117071035Y-127084667D01*
X117071035Y-129032000D01*
X117835583Y-129032000D01*
X117835583Y-127084667D01*
X118302807Y-127084667D01*
X118570498Y-127090295D01*
X118709891Y-127119492D01*
X118762509Y-127190729D01*
X118770032Y-127292485D01*
X118770032Y-127500303D01*
X118978545Y-127292485D01*
X119065339Y-127212623D01*
X119158721Y-127156379D01*
X119288278Y-127119617D01*
X119483593Y-127098203D01*
X119774250Y-127087999D01*
X120189835Y-127084870D01*
X120465167Y-127084667D01*
X121743276Y-127084667D01*
X121743276Y-127931333D01*
X120723878Y-127931333D01*
X120284372Y-127934517D01*
X119988691Y-127946229D01*
X119810844Y-127969705D01*
X119724840Y-128008186D01*
X119704480Y-128058333D01*
X119736774Y-128123886D01*
X119853853Y-128163043D01*
X120086009Y-128181546D01*
X120374667Y-128185333D01*
X120816543Y-128204209D01*
X121119373Y-128272610D01*
X121310977Y-128408200D01*
X121419175Y-128628641D01*
X121464283Y-128877134D01*
X121469097Y-129193801D01*
X121426747Y-129501378D01*
X121407344Y-129570652D01*
X121348792Y-129709511D01*
X121263095Y-129819580D01*
X121131981Y-129903800D01*
X120937175Y-129965115D01*
X120660405Y-130006466D01*
X120283395Y-130030794D01*
X119787873Y-130041042D01*
X119155565Y-130040152D01*
X118533457Y-130033324D01*
X116452040Y-130005667D01*
X116107230Y-129545095D01*
X116013431Y-129732611D01*
X115948688Y-129828317D01*
X115848116Y-129901243D01*
X115689862Y-129954621D01*
X115452076Y-129991684D01*
X115112905Y-130015663D01*
X114650500Y-130029792D01*
X114043009Y-130037302D01*
X113949129Y-130037983D01*
X112483744Y-130048000D01*
X112483744Y-129122590D01*
X113418192Y-129122590D01*
X113631942Y-129116667D01*
X118770032Y-129116667D01*
X119619530Y-129116667D01*
X120015669Y-129112470D01*
X120269998Y-129097094D01*
X120410463Y-129066362D01*
X120465008Y-129016096D01*
X120469028Y-128989667D01*
X120438074Y-128925991D01*
X120325437Y-128887102D01*
X120101453Y-128867746D01*
X119751772Y-128862667D01*
X119394691Y-128858290D01*
X119166945Y-128839185D01*
X119028067Y-128796387D01*
X118937588Y-128720933D01*
X118902273Y-128674494D01*
X118815849Y-128561409D01*
X118778783Y-128571534D01*
X118770184Y-128724932D01*
X118770032Y-128801494D01*
X118770032Y-129116667D01*
X113631942Y-129116667D01*
X114288928Y-129098462D01*
X114688169Y-129079558D01*
X114973561Y-129049617D01*
X115122820Y-129011490D01*
X115139311Y-128989667D01*
X115051243Y-128947271D01*
X114833233Y-128906101D01*
X114525149Y-128872800D01*
X114376902Y-128862667D01*
X114016418Y-128838450D01*
X113787488Y-128808260D01*
X113651856Y-128760654D01*
X113571264Y-128684188D01*
X113527771Y-128608667D01*
X113461339Y-128488729D01*
X113430045Y-128491404D01*
X113420373Y-128635544D01*
X113419444Y-128759795D01*
X113418192Y-129122590D01*
X112483744Y-129122590D01*
X112483744Y-128058333D01*
X114352640Y-128058333D01*
X114384560Y-128123372D01*
X114500402Y-128162461D01*
X114730295Y-128181207D01*
X115035274Y-128185333D01*
X115385665Y-128190566D01*
X115611779Y-128213323D01*
X115759094Y-128264194D01*
X115873092Y-128353766D01*
X115906010Y-128388060D01*
X116040637Y-128529346D01*
X116113626Y-128598753D01*
X116115349Y-128599727D01*
X116128624Y-128530512D01*
X116136031Y-128346670D01*
X116136587Y-128270000D01*
X116136587Y-127931333D01*
X115244613Y-127931333D01*
X114837290Y-127935227D01*
X114572314Y-127949511D01*
X114422260Y-127978090D01*
X114359700Y-128024870D01*
X114352640Y-128058333D01*
X112483744Y-128058333D01*
X112483744Y-128016000D01*
X111724587Y-128016000D01*
X111700654Y-129010833D01*
X111676721Y-130005667D01*
X110033801Y-130005667D01*
X109467174Y-130005093D01*
X109045902Y-130001559D01*
X108745438Y-129992348D01*
X108541237Y-129974742D01*
X108408753Y-129946022D01*
X108323441Y-129903472D01*
X108260754Y-129844372D01*
X108228617Y-129805787D01*
X108127185Y-129622781D01*
X108077006Y-129362562D01*
X108066353Y-129071099D01*
X108067374Y-129032000D01*
X109085751Y-129032000D01*
X109114246Y-129142784D01*
X109229419Y-129191746D01*
X109425550Y-129201333D01*
X109647859Y-129187133D01*
X109746111Y-129129739D01*
X109765349Y-129032000D01*
X109736854Y-128921216D01*
X109621681Y-128872254D01*
X109425550Y-128862667D01*
X109203241Y-128876867D01*
X109104989Y-128934261D01*
X109085751Y-129032000D01*
X108067374Y-129032000D01*
X108074296Y-128766968D01*
X108109424Y-128578084D01*
X108188684Y-128450666D01*
X108290183Y-128360812D01*
X108450673Y-128263567D01*
X108654291Y-128209272D01*
X108951979Y-128187403D01*
X109139682Y-128185333D01*
X109456447Y-128174652D01*
X109676729Y-128145812D01*
X109765024Y-128103617D01*
X109765349Y-128100667D01*
X109683012Y-128065759D01*
X109446127Y-128039321D01*
X109069881Y-128022394D01*
X108569461Y-128016024D01*
X108533577Y-128016000D01*
X107301804Y-128016000D01*
X107301804Y-130048000D01*
X106296564Y-130048000D01*
X105899174Y-130043485D01*
X105565908Y-130031202D01*
X105332354Y-130013042D01*
X105234692Y-129991555D01*
X105216449Y-129892531D01*
X105200649Y-129652373D01*
X105188312Y-129299277D01*
X105180455Y-128861438D01*
X105178058Y-128425222D01*
X105178058Y-126915333D01*
X104073710Y-126915333D01*
X104073710Y-125984000D01*
X107301804Y-125984000D01*
X107301804Y-126915333D01*
G37*
%TO.C,J5*%
D12*
X148062947Y-66680000D02*
X150062947Y-66680000D01*
X150062947Y-81910000D01*
X148062947Y-81910000D01*
X148062947Y-66680000D01*
X148062947Y-66680000D02*
X155462947Y-66680000D01*
X155462947Y-81910000D01*
X148062947Y-81910000D01*
X148062947Y-66680000D01*
%TD*%
M02*
