M48
; DRILL file {KiCad (6.0.10)} date Fri Jan  6 10:26:11 2023
; FORMAT={-:-/ absolute / inch / decimal}
; #@! TF.CreationDate,2023-01-06T10:26:11+00:00
; #@! TF.GenerationSoftware,Kicad,Pcbnew,(6.0.10)
; #@! TF.FileFunction,Plated,1,2,PTH
FMAT,2
INCH
; #@! TA.AperFunction,Plated,PTH,ComponentDrill
T1C0.0354
; #@! TA.AperFunction,Plated,PTH,ComponentDrill
T2C0.0394
; #@! TA.AperFunction,Plated,PTH,ComponentDrill
T3C0.0591
; #@! TA.AperFunction,Plated,PTH,ComponentDrill
T4C0.0906
%
G90
G05
T1
X7.1091Y-5.3976
X7.1091Y-5.4961
X7.1091Y-5.5748
X7.1091Y-5.6732
T2
X5.5441Y-4.9348
X5.5441Y-5.0136
X5.6425Y-4.9348
X5.6425Y-5.0136
X6.8433Y-4.9348
X6.8433Y-5.0136
X6.9417Y-4.9348
X6.9417Y-5.0136
T3
X4.9256Y-5.0963
X4.9256Y-5.2463
X4.9256Y-5.3963
X4.9256Y-5.5463
X5.2882Y-5.2354
X5.2882Y-5.3854
X5.2882Y-5.5354
X5.2882Y-5.6854
X5.2882Y-5.8354
X7.5602Y-5.0963
X7.5602Y-5.2463
X7.5602Y-5.3963
X7.5602Y-5.5463
T4
X5.4358Y-4.7581
X5.7508Y-4.7581
X6.735Y-4.7581
X7.05Y-4.7581
T0
M30
