%TF.GenerationSoftware,KiCad,Pcbnew,(6.0.10)*%
%TF.CreationDate,2023-01-06T10:26:07+00:00*%
%TF.ProjectId,USB,5553422e-6b69-4636-9164-5f7063625858,rev?*%
%TF.SameCoordinates,Original*%
%TF.FileFunction,Legend,Top*%
%TF.FilePolarity,Positive*%
%FSLAX46Y46*%
G04 Gerber Fmt 4.6, Leading zero omitted, Abs format (unit mm)*
G04 Created by KiCad (PCBNEW (6.0.10)) date 2023-01-06 10:26:07*
%MOMM*%
%LPD*%
G01*
G04 APERTURE LIST*
%ADD10C,0.150000*%
%ADD11C,0.120000*%
G04 APERTURE END LIST*
D10*
%TO.C,J4*%
X122302380Y-135623333D02*
X123016666Y-135623333D01*
X123159523Y-135670952D01*
X123254761Y-135766190D01*
X123302380Y-135909047D01*
X123302380Y-136004285D01*
X122635714Y-134718571D02*
X123302380Y-134718571D01*
X122254761Y-134956666D02*
X122969047Y-135194761D01*
X122969047Y-134575714D01*
%TO.C,J1*%
X174736666Y-121952380D02*
X174736666Y-122666666D01*
X174689047Y-122809523D01*
X174593809Y-122904761D01*
X174450952Y-122952380D01*
X174355714Y-122952380D01*
X175736666Y-122952380D02*
X175165238Y-122952380D01*
X175450952Y-122952380D02*
X175450952Y-121952380D01*
X175355714Y-122095238D01*
X175260476Y-122190476D01*
X175165238Y-122238095D01*
%TO.C,J3*%
X194717619Y-134876666D02*
X194003333Y-134876666D01*
X193860476Y-134829047D01*
X193765238Y-134733809D01*
X193717619Y-134590952D01*
X193717619Y-134495714D01*
X194717619Y-135257619D02*
X194717619Y-135876666D01*
X194336666Y-135543333D01*
X194336666Y-135686190D01*
X194289047Y-135781428D01*
X194241428Y-135829047D01*
X194146190Y-135876666D01*
X193908095Y-135876666D01*
X193812857Y-135829047D01*
X193765238Y-135781428D01*
X193717619Y-135686190D01*
X193717619Y-135400476D01*
X193765238Y-135305238D01*
X193812857Y-135257619D01*
%TO.C,J2*%
X141706666Y-121892380D02*
X141706666Y-122606666D01*
X141659047Y-122749523D01*
X141563809Y-122844761D01*
X141420952Y-122892380D01*
X141325714Y-122892380D01*
X142135238Y-121987619D02*
X142182857Y-121940000D01*
X142278095Y-121892380D01*
X142516190Y-121892380D01*
X142611428Y-121940000D01*
X142659047Y-121987619D01*
X142706666Y-122082857D01*
X142706666Y-122178095D01*
X142659047Y-122320952D01*
X142087619Y-122892380D01*
X142706666Y-122892380D01*
D11*
%TO.C,J4*%
X128710000Y-142775000D02*
X126710000Y-142775000D01*
X126710000Y-142775000D02*
X126710000Y-127545000D01*
X126710000Y-127545000D02*
X128710000Y-127545000D01*
X128710000Y-127545000D02*
X128710000Y-142775000D01*
X128710000Y-142775000D02*
X121310000Y-142775000D01*
X121310000Y-142775000D02*
X121310000Y-127545000D01*
X121310000Y-127545000D02*
X128710000Y-127545000D01*
X128710000Y-127545000D02*
X128710000Y-142775000D01*
%TO.C,J1*%
X161070000Y-117700000D02*
X161070000Y-121700000D01*
X189070000Y-117700000D02*
X189070000Y-121700000D01*
X168070000Y-129345000D02*
X182070000Y-129345000D01*
X161070000Y-117700000D02*
X189070000Y-117700000D01*
%TO.C,J3*%
X188430000Y-127545000D02*
X190430000Y-127545000D01*
X190430000Y-127545000D02*
X190430000Y-142775000D01*
X190430000Y-142775000D02*
X188430000Y-142775000D01*
X188430000Y-142775000D02*
X188430000Y-127545000D01*
X188430000Y-127545000D02*
X195830000Y-127545000D01*
X195830000Y-127545000D02*
X195830000Y-142775000D01*
X195830000Y-142775000D02*
X188430000Y-142775000D01*
X188430000Y-142775000D02*
X188430000Y-127545000D01*
%TO.C,J2*%
X128070000Y-117700000D02*
X128070000Y-121700000D01*
X135070000Y-129345000D02*
X149070000Y-129345000D01*
X128070000Y-117700000D02*
X156070000Y-117700000D01*
X156070000Y-117700000D02*
X156070000Y-121700000D01*
%TD*%
M02*
