  0
SECTION
  2
HEADER
  9
$ANGBASE
  50
0.0
  9
$ANGDIR
  70
1
  9
$MEASUREMENT
  70
1
  0
ENDSEC
  0
SECTION
  2
TABLES
  0
TABLE
  2
LTYPE
  70
4
  0
LTYPE
  5
40F
  2
CONTINUOUS
  70
0
  3
Solid line
  72
65
  73
0
  40
0.0
  0
LTYPE
  5
410
  2
DASHDOT
 70
0
  3
Dash Dot ____ _ ____ _
 72
65
 73
4
 40
2.0
 49
1.25
 49
-0.25
 49
0.25
 49
-0.25
  0
LTYPE
  5
411
  2
DASHED
 70
0
  3
Dashed __ __ __ __ __
 72
65
 73
2
 40
0.75
 49
0.5
 49
-0.25
  0
LTYPE
  5
43B
  2
DOTTED
 70
0
  3
Dotted .  .  .  .
 72
65
 73
2
 40
0.2
 49
0.0
 49
-0.2
  0
ENDTAB
  0
TABLE
  2
STYLE
  70
4
  0
STYLE
  2
KICAD
  70
0
  40
0
  41
1
  42
1
  50
0
  71
0
  3
isocp.shx
  0
STYLE
  2
KICADB
  70
0
  40
0
  41
1
  42
1
  50
0
  71
0
  3
isocp.shx
  0
STYLE
  2
KICADI
  70
0
  40
0
  41
1
  42
1
  50
15
  71
0
  3
isocp.shx
  0
STYLE
  2
KICADBI
  70
0
  40
0
  41
1
  42
1
  50
15
  71
0
  3
isocp.shx
  0
ENDTAB
  0
TABLE
  2
LAYER
  70
1
  0
LAYER
  2
BLACK
  70
0
  62
7
  6
CONTINUOUS
  0
ENDTAB
  0
ENDSEC
  0
SECTION
  2
ENTITIES
0
LINE
8
BLACK
6
CONTINUOUS
10
213.01
20
-135.84
11
213.01
21
-135.84
0
LINE
8
BLACK
6
CONTINUOUS
10
213.01
20
-135.84
11
213.01
21
-135.84
0
LINE
8
BLACK
6
CONTINUOUS
10
213.01
20
-135.84
11
213.003
21
-135.855
0
LINE
8
BLACK
6
CONTINUOUS
10
213.003
20
-135.855
11
212.995
21
-135.875
0
LINE
8
BLACK
6
CONTINUOUS
10
212.995
20
-135.875
11
212.995
21
-135.875
0
LINE
8
BLACK
6
CONTINUOUS
10
212.995
20
-135.875
11
212.995
21
-135.875
0
LINE
8
BLACK
6
CONTINUOUS
10
212.995
20
-135.875
11
212.981
21
-135.881
0
LINE
8
BLACK
6
CONTINUOUS
10
212.981
20
-135.881
11
212.96
21
-135.89
0
LINE
8
BLACK
6
CONTINUOUS
10
212.96
20
-135.89
11
212.96
21
-135.89
0
LINE
8
BLACK
6
CONTINUOUS
10
212.96
20
-135.89
11
212.96
21
-135.89
0
LINE
8
BLACK
6
CONTINUOUS
10
212.96
20
-135.89
11
102.97
21
-135.88
0
LINE
8
BLACK
6
CONTINUOUS
10
102.97
20
-135.88
11
102.951
21
-135.872
0
LINE
8
BLACK
6
CONTINUOUS
10
102.951
20
-135.872
11
102.934
21
-135.865
0
LINE
8
BLACK
6
CONTINUOUS
10
102.934
20
-135.865
11
102.934
21
-135.865
0
LINE
8
BLACK
6
CONTINUOUS
10
102.934
20
-135.865
11
102.934
21
-135.865
0
LINE
8
BLACK
6
CONTINUOUS
10
102.934
20
-135.865
11
102.928
21
-135.849
0
LINE
8
BLACK
6
CONTINUOUS
10
102.928
20
-135.849
11
102.92
21
-135.83
0
LINE
8
BLACK
6
CONTINUOUS
10
102.92
20
-135.83
11
102.92
21
-125.87
0
LINE
8
BLACK
6
CONTINUOUS
10
102.92
20
-125.87
11
92.9698
21
-125.88
0
LINE
8
BLACK
6
CONTINUOUS
10
92.9698
20
-125.88
11
92.9698
21
-125.88
0
LINE
8
BLACK
6
CONTINUOUS
10
92.9698
20
-125.88
11
92.9698
21
-125.88
0
LINE
8
BLACK
6
CONTINUOUS
10
92.9698
20
-125.88
11
92.9516
21
-125.872
0
LINE
8
BLACK
6
CONTINUOUS
10
92.9516
20
-125.872
11
92.9344
21
-125.865
0
LINE
8
BLACK
6
CONTINUOUS
10
92.9344
20
-125.865
11
92.9344
21
-125.865
0
LINE
8
BLACK
6
CONTINUOUS
10
92.9344
20
-125.865
11
92.9344
21
-125.865
0
LINE
8
BLACK
6
CONTINUOUS
10
92.9344
20
-125.865
11
92.9269
21
-125.847
0
LINE
8
BLACK
6
CONTINUOUS
10
92.9269
20
-125.847
11
92.9198
21
-125.83
0
LINE
8
BLACK
6
CONTINUOUS
10
92.9198
20
-125.83
11
92.9198
21
-125.83
0
LINE
8
BLACK
6
CONTINUOUS
10
92.9198
20
-125.83
11
92.9198
21
-125.83
0
LINE
8
BLACK
6
CONTINUOUS
10
92.9198
20
-125.83
11
92.9098
21
-45.82
0
LINE
8
BLACK
6
CONTINUOUS
10
92.9098
20
-45.82
11
92.9098
21
-45.82
0
LINE
8
BLACK
6
CONTINUOUS
10
92.9098
20
-45.82
11
92.9098
21
-45.82
0
LINE
8
BLACK
6
CONTINUOUS
10
92.9098
20
-45.82
11
92.9173
21
-45.8018
0
LINE
8
BLACK
6
CONTINUOUS
10
92.9173
20
-45.8018
11
92.9244
21
-45.7846
0
LINE
8
BLACK
6
CONTINUOUS
10
92.9244
20
-45.7846
11
92.9244
21
-45.7846
0
LINE
8
BLACK
6
CONTINUOUS
10
92.9244
20
-45.7846
11
92.9244
21
-45.7846
0
LINE
8
BLACK
6
CONTINUOUS
10
92.9244
20
-45.7846
11
92.9416
21
-45.7775
0
LINE
8
BLACK
6
CONTINUOUS
10
92.9416
20
-45.7775
11
92.9598
21
-45.77
0
LINE
8
BLACK
6
CONTINUOUS
10
92.9598
20
-45.77
11
92.9598
21
-45.77
0
LINE
8
BLACK
6
CONTINUOUS
10
92.9598
20
-45.77
11
92.9598
21
-45.77
0
LINE
8
BLACK
6
CONTINUOUS
10
92.9598
20
-45.77
11
222.97
21
-45.77
0
LINE
8
BLACK
6
CONTINUOUS
10
222.97
20
-45.77
11
223.005
21
-45.7846
0
LINE
8
BLACK
6
CONTINUOUS
10
223.005
20
-45.7846
11
223.02
21
-45.82
0
LINE
8
BLACK
6
CONTINUOUS
10
223.02
20
-45.82
11
223.02
21
-125.83
0
LINE
8
BLACK
6
CONTINUOUS
10
223.02
20
-125.83
11
223.005
21
-125.865
0
LINE
8
BLACK
6
CONTINUOUS
10
223.005
20
-125.865
11
222.97
21
-125.88
0
LINE
8
BLACK
6
CONTINUOUS
10
222.97
20
-125.88
11
213.01
21
-125.88
0
LINE
8
BLACK
6
CONTINUOUS
10
213.01
20
-125.88
11
213.01
21
-135.84
0
LINE
8
BLACK
6
CONTINUOUS
10
93.0098
20
-45.87
11
93.0198
21
-125.78
0
LINE
8
BLACK
6
CONTINUOUS
10
93.0198
20
-125.78
11
102.97
21
-125.77
0
LINE
8
BLACK
6
CONTINUOUS
10
102.97
20
-125.77
11
102.97
21
-125.77
0
LINE
8
BLACK
6
CONTINUOUS
10
102.97
20
-125.77
11
102.97
21
-125.77
0
LINE
8
BLACK
6
CONTINUOUS
10
102.97
20
-125.77
11
102.987
21
-125.777
0
LINE
8
BLACK
6
CONTINUOUS
10
102.987
20
-125.777
11
103.005
21
-125.785
0
LINE
8
BLACK
6
CONTINUOUS
10
103.005
20
-125.785
11
103.005
21
-125.785
0
LINE
8
BLACK
6
CONTINUOUS
10
103.005
20
-125.785
11
103.005
21
-125.785
0
LINE
8
BLACK
6
CONTINUOUS
10
103.005
20
-125.785
11
103.012
21
-125.802
0
LINE
8
BLACK
6
CONTINUOUS
10
103.012
20
-125.802
11
103.02
21
-125.82
0
LINE
8
BLACK
6
CONTINUOUS
10
103.02
20
-125.82
11
103.02
21
-125.82
0
LINE
8
BLACK
6
CONTINUOUS
10
103.02
20
-125.82
11
103.02
21
-125.82
0
LINE
8
BLACK
6
CONTINUOUS
10
103.02
20
-125.82
11
103.02
21
-135.78
0
LINE
8
BLACK
6
CONTINUOUS
10
103.02
20
-135.78
11
212.91
21
-135.79
0
LINE
8
BLACK
6
CONTINUOUS
10
212.91
20
-135.79
11
212.91
21
-125.83
0
LINE
8
BLACK
6
CONTINUOUS
10
212.91
20
-125.83
11
212.924
21
-125.795
0
LINE
8
BLACK
6
CONTINUOUS
10
212.924
20
-125.795
11
212.96
21
-125.78
0
LINE
8
BLACK
6
CONTINUOUS
10
212.96
20
-125.78
11
222.92
21
-125.78
0
LINE
8
BLACK
6
CONTINUOUS
10
222.92
20
-125.78
11
222.92
21
-45.87
0
LINE
8
BLACK
6
CONTINUOUS
10
222.92
20
-45.87
11
93.0098
21
-45.87
0
LINE
8
BLACK
6
CONTINUOUS
10
109.529
20
-114.458
11
109.582
21
-114.322
0
LINE
8
BLACK
6
CONTINUOUS
10
109.582
20
-114.322
11
109.667
21
-114.202
0
LINE
8
BLACK
6
CONTINUOUS
10
109.667
20
-114.202
11
109.777
21
-114.105
0
LINE
8
BLACK
6
CONTINUOUS
10
109.777
20
-114.105
11
109.907
21
-114.038
0
LINE
8
BLACK
6
CONTINUOUS
10
109.907
20
-114.038
11
110.05
21
-114.004
0
LINE
8
BLACK
6
CONTINUOUS
10
110.05
20
-114.004
11
110.196
21
-114.005
0
LINE
8
BLACK
6
CONTINUOUS
10
110.196
20
-114.005
11
110.339
21
-114.041
0
LINE
8
BLACK
6
CONTINUOUS
10
110.339
20
-114.041
11
110.468
21
-114.109
0
LINE
8
BLACK
6
CONTINUOUS
10
110.468
20
-114.109
11
110.578
21
-114.207
0
LINE
8
BLACK
6
CONTINUOUS
10
110.578
20
-114.207
11
110.661
21
-114.327
0
LINE
8
BLACK
6
CONTINUOUS
10
110.661
20
-114.327
11
110.712
21
-114.464
0
LINE
8
BLACK
6
CONTINUOUS
10
110.712
20
-114.464
11
110.73
21
-114.61
0
LINE
8
BLACK
6
CONTINUOUS
10
110.73
20
-114.61
11
110.73
21
-114.623
0
LINE
8
BLACK
6
CONTINUOUS
10
110.73
20
-114.623
11
110.709
21
-114.768
0
LINE
8
BLACK
6
CONTINUOUS
10
110.709
20
-114.768
11
110.655
21
-114.904
0
LINE
8
BLACK
6
CONTINUOUS
10
110.655
20
-114.904
11
110.569
21
-115.023
0
LINE
8
BLACK
6
CONTINUOUS
10
110.569
20
-115.023
11
110.458
21
-115.118
0
LINE
8
BLACK
6
CONTINUOUS
10
110.458
20
-115.118
11
110.327
21
-115.184
0
LINE
8
BLACK
6
CONTINUOUS
10
110.327
20
-115.184
11
110.184
21
-115.217
0
LINE
8
BLACK
6
CONTINUOUS
10
110.184
20
-115.217
11
110.037
21
-115.214
0
LINE
8
BLACK
6
CONTINUOUS
10
110.037
20
-115.214
11
109.895
21
-115.177
0
LINE
8
BLACK
6
CONTINUOUS
10
109.895
20
-115.177
11
109.767
21
-115.107
0
LINE
8
BLACK
6
CONTINUOUS
10
109.767
20
-115.107
11
109.658
21
-115.009
0
LINE
8
BLACK
6
CONTINUOUS
10
109.658
20
-115.009
11
109.576
21
-114.887
0
LINE
8
BLACK
6
CONTINUOUS
10
109.576
20
-114.887
11
109.526
21
-114.749
0
LINE
8
BLACK
6
CONTINUOUS
10
109.526
20
-114.749
11
109.51
21
-114.604
0
LINE
8
BLACK
6
CONTINUOUS
10
109.51
20
-114.604
11
109.51
21
-114.604
0
LINE
8
BLACK
6
CONTINUOUS
10
109.51
20
-114.604
11
109.529
21
-114.458
0
LINE
8
BLACK
6
CONTINUOUS
10
109.7
20
-114.872
11
109.79
21
-114.979
0
LINE
8
BLACK
6
CONTINUOUS
10
109.79
20
-114.979
11
109.907
21
-115.057
0
LINE
8
BLACK
6
CONTINUOUS
10
109.907
20
-115.057
11
110.041
21
-115.099
0
LINE
8
BLACK
6
CONTINUOUS
10
110.041
20
-115.099
11
110.181
21
-115.101
0
LINE
8
BLACK
6
CONTINUOUS
10
110.181
20
-115.101
11
110.317
21
-115.064
0
LINE
8
BLACK
6
CONTINUOUS
10
110.317
20
-115.064
11
110.436
21
-114.991
0
LINE
8
BLACK
6
CONTINUOUS
10
110.436
20
-114.991
11
110.53
21
-114.887
0
LINE
8
BLACK
6
CONTINUOUS
10
110.53
20
-114.887
11
110.592
21
-114.761
0
LINE
8
BLACK
6
CONTINUOUS
10
110.592
20
-114.761
11
110.615
21
-114.622
0
LINE
8
BLACK
6
CONTINUOUS
10
110.615
20
-114.622
11
110.615
21
-114.61
0
LINE
8
BLACK
6
CONTINUOUS
10
110.615
20
-114.61
11
110.595
21
-114.471
0
LINE
8
BLACK
6
CONTINUOUS
10
110.595
20
-114.471
11
110.537
21
-114.343
0
LINE
8
BLACK
6
CONTINUOUS
10
110.537
20
-114.343
11
110.445
21
-114.237
0
LINE
8
BLACK
6
CONTINUOUS
10
110.445
20
-114.237
11
110.328
21
-114.161
0
LINE
8
BLACK
6
CONTINUOUS
10
110.328
20
-114.161
11
110.193
21
-114.12
0
LINE
8
BLACK
6
CONTINUOUS
10
110.193
20
-114.12
11
110.053
21
-114.12
0
LINE
8
BLACK
6
CONTINUOUS
10
110.053
20
-114.12
11
109.918
21
-114.158
0
LINE
8
BLACK
6
CONTINUOUS
10
109.918
20
-114.158
11
109.799
21
-114.233
0
LINE
8
BLACK
6
CONTINUOUS
10
109.799
20
-114.233
11
109.706
21
-114.338
0
LINE
8
BLACK
6
CONTINUOUS
10
109.706
20
-114.338
11
109.647
21
-114.465
0
LINE
8
BLACK
6
CONTINUOUS
10
109.647
20
-114.465
11
109.625
21
-114.604
0
LINE
8
BLACK
6
CONTINUOUS
10
109.625
20
-114.604
11
109.643
21
-114.743
0
LINE
8
BLACK
6
CONTINUOUS
10
109.643
20
-114.743
11
109.7
21
-114.872
0
LINE
8
BLACK
6
CONTINUOUS
10
109.529
20
-107.094
11
109.582
21
-106.957
0
LINE
8
BLACK
6
CONTINUOUS
10
109.582
20
-106.957
11
109.667
21
-106.838
0
LINE
8
BLACK
6
CONTINUOUS
10
109.667
20
-106.838
11
109.777
21
-106.741
0
LINE
8
BLACK
6
CONTINUOUS
10
109.777
20
-106.741
11
109.907
21
-106.674
0
LINE
8
BLACK
6
CONTINUOUS
10
109.907
20
-106.674
11
110.05
21
-106.64
0
LINE
8
BLACK
6
CONTINUOUS
10
110.05
20
-106.64
11
110.196
21
-106.641
0
LINE
8
BLACK
6
CONTINUOUS
10
110.196
20
-106.641
11
110.339
21
-106.676
0
LINE
8
BLACK
6
CONTINUOUS
10
110.339
20
-106.676
11
110.468
21
-106.745
0
LINE
8
BLACK
6
CONTINUOUS
10
110.468
20
-106.745
11
110.578
21
-106.842
0
LINE
8
BLACK
6
CONTINUOUS
10
110.578
20
-106.842
11
110.661
21
-106.963
0
LINE
8
BLACK
6
CONTINUOUS
10
110.661
20
-106.963
11
110.712
21
-107.1
0
LINE
8
BLACK
6
CONTINUOUS
10
110.712
20
-107.1
11
110.73
21
-107.246
0
LINE
8
BLACK
6
CONTINUOUS
10
110.73
20
-107.246
11
110.73
21
-107.258
0
LINE
8
BLACK
6
CONTINUOUS
10
110.73
20
-107.258
11
110.709
21
-107.404
0
LINE
8
BLACK
6
CONTINUOUS
10
110.709
20
-107.404
11
110.655
21
-107.54
0
LINE
8
BLACK
6
CONTINUOUS
10
110.655
20
-107.54
11
110.569
21
-107.659
0
LINE
8
BLACK
6
CONTINUOUS
10
110.569
20
-107.659
11
110.458
21
-107.754
0
LINE
8
BLACK
6
CONTINUOUS
10
110.458
20
-107.754
11
110.327
21
-107.82
0
LINE
8
BLACK
6
CONTINUOUS
10
110.327
20
-107.82
11
110.184
21
-107.852
0
LINE
8
BLACK
6
CONTINUOUS
10
110.184
20
-107.852
11
110.037
21
-107.85
0
LINE
8
BLACK
6
CONTINUOUS
10
110.037
20
-107.85
11
109.895
21
-107.813
0
LINE
8
BLACK
6
CONTINUOUS
10
109.895
20
-107.813
11
109.767
21
-107.743
0
LINE
8
BLACK
6
CONTINUOUS
10
109.767
20
-107.743
11
109.658
21
-107.644
0
LINE
8
BLACK
6
CONTINUOUS
10
109.658
20
-107.644
11
109.576
21
-107.523
0
LINE
8
BLACK
6
CONTINUOUS
10
109.576
20
-107.523
11
109.526
21
-107.385
0
LINE
8
BLACK
6
CONTINUOUS
10
109.526
20
-107.385
11
109.51
21
-107.24
0
LINE
8
BLACK
6
CONTINUOUS
10
109.51
20
-107.24
11
109.51
21
-107.239
0
LINE
8
BLACK
6
CONTINUOUS
10
109.51
20
-107.239
11
109.529
21
-107.094
0
LINE
8
BLACK
6
CONTINUOUS
10
109.7
20
-107.507
11
109.79
21
-107.615
0
LINE
8
BLACK
6
CONTINUOUS
10
109.79
20
-107.615
11
109.907
21
-107.693
0
LINE
8
BLACK
6
CONTINUOUS
10
109.907
20
-107.693
11
110.041
21
-107.734
0
LINE
8
BLACK
6
CONTINUOUS
10
110.041
20
-107.734
11
110.181
21
-107.737
0
LINE
8
BLACK
6
CONTINUOUS
10
110.181
20
-107.737
11
110.317
21
-107.7
0
LINE
8
BLACK
6
CONTINUOUS
10
110.317
20
-107.7
11
110.436
21
-107.627
0
LINE
8
BLACK
6
CONTINUOUS
10
110.436
20
-107.627
11
110.53
21
-107.523
0
LINE
8
BLACK
6
CONTINUOUS
10
110.53
20
-107.523
11
110.592
21
-107.396
0
LINE
8
BLACK
6
CONTINUOUS
10
110.592
20
-107.396
11
110.615
21
-107.258
0
LINE
8
BLACK
6
CONTINUOUS
10
110.615
20
-107.258
11
110.615
21
-107.246
0
LINE
8
BLACK
6
CONTINUOUS
10
110.615
20
-107.246
11
110.595
21
-107.107
0
LINE
8
BLACK
6
CONTINUOUS
10
110.595
20
-107.107
11
110.537
21
-106.979
0
LINE
8
BLACK
6
CONTINUOUS
10
110.537
20
-106.979
11
110.445
21
-106.873
0
LINE
8
BLACK
6
CONTINUOUS
10
110.445
20
-106.873
11
110.328
21
-106.796
0
LINE
8
BLACK
6
CONTINUOUS
10
110.328
20
-106.796
11
110.193
21
-106.756
0
LINE
8
BLACK
6
CONTINUOUS
10
110.193
20
-106.756
11
110.053
21
-106.755
0
LINE
8
BLACK
6
CONTINUOUS
10
110.053
20
-106.755
11
109.918
21
-106.794
0
LINE
8
BLACK
6
CONTINUOUS
10
109.918
20
-106.794
11
109.799
21
-106.869
0
LINE
8
BLACK
6
CONTINUOUS
10
109.799
20
-106.869
11
109.706
21
-106.974
0
LINE
8
BLACK
6
CONTINUOUS
10
109.706
20
-106.974
11
109.647
21
-107.101
0
LINE
8
BLACK
6
CONTINUOUS
10
109.647
20
-107.101
11
109.625
21
-107.24
0
LINE
8
BLACK
6
CONTINUOUS
10
109.625
20
-107.24
11
109.643
21
-107.379
0
LINE
8
BLACK
6
CONTINUOUS
10
109.643
20
-107.379
11
109.7
21
-107.507
0
LINE
8
BLACK
6
CONTINUOUS
10
109.529
20
-99.7297
11
109.582
21
-99.5932
0
LINE
8
BLACK
6
CONTINUOUS
10
109.582
20
-99.5932
11
109.667
21
-99.4733
0
LINE
8
BLACK
6
CONTINUOUS
10
109.667
20
-99.4733
11
109.777
21
-99.3769
0
LINE
8
BLACK
6
CONTINUOUS
10
109.777
20
-99.3769
11
109.907
21
-99.3097
0
LINE
8
BLACK
6
CONTINUOUS
10
109.907
20
-99.3097
11
110.05
21
-99.2755
0
LINE
8
BLACK
6
CONTINUOUS
10
110.05
20
-99.2755
11
110.196
21
-99.2762
0
LINE
8
BLACK
6
CONTINUOUS
10
110.196
20
-99.2762
11
110.339
21
-99.3119
0
LINE
8
BLACK
6
CONTINUOUS
10
110.339
20
-99.3119
11
110.468
21
-99.3805
0
LINE
8
BLACK
6
CONTINUOUS
10
110.468
20
-99.3805
11
110.578
21
-99.478
0
LINE
8
BLACK
6
CONTINUOUS
10
110.578
20
-99.478
11
110.661
21
-99.5988
0
LINE
8
BLACK
6
CONTINUOUS
10
110.661
20
-99.5988
11
110.712
21
-99.7359
0
LINE
8
BLACK
6
CONTINUOUS
10
110.712
20
-99.7359
11
110.73
21
-99.8814
0
LINE
8
BLACK
6
CONTINUOUS
10
110.73
20
-99.8814
11
110.73
21
-99.8942
0
LINE
8
BLACK
6
CONTINUOUS
10
110.73
20
-99.8942
11
110.709
21
-100.039
0
LINE
8
BLACK
6
CONTINUOUS
10
110.709
20
-100.039
11
110.655
21
-100.175
0
LINE
8
BLACK
6
CONTINUOUS
10
110.655
20
-100.175
11
110.569
21
-100.294
0
LINE
8
BLACK
6
CONTINUOUS
10
110.569
20
-100.294
11
110.458
21
-100.39
0
LINE
8
BLACK
6
CONTINUOUS
10
110.458
20
-100.39
11
110.327
21
-100.455
0
LINE
8
BLACK
6
CONTINUOUS
10
110.327
20
-100.455
11
110.184
21
-100.488
0
LINE
8
BLACK
6
CONTINUOUS
10
110.184
20
-100.488
11
110.037
21
-100.486
0
LINE
8
BLACK
6
CONTINUOUS
10
110.037
20
-100.486
11
109.895
21
-100.449
0
LINE
8
BLACK
6
CONTINUOUS
10
109.895
20
-100.449
11
109.767
21
-100.379
0
LINE
8
BLACK
6
CONTINUOUS
10
109.767
20
-100.379
11
109.658
21
-100.28
0
LINE
8
BLACK
6
CONTINUOUS
10
109.658
20
-100.28
11
109.576
21
-100.158
0
LINE
8
BLACK
6
CONTINUOUS
10
109.576
20
-100.158
11
109.526
21
-100.021
0
LINE
8
BLACK
6
CONTINUOUS
10
109.526
20
-100.021
11
109.51
21
-99.8754
0
LINE
8
BLACK
6
CONTINUOUS
10
109.51
20
-99.8754
11
109.51
21
-99.875
0
LINE
8
BLACK
6
CONTINUOUS
10
109.51
20
-99.875
11
109.529
21
-99.7297
0
LINE
8
BLACK
6
CONTINUOUS
10
109.7
20
-100.143
11
109.79
21
-100.25
0
LINE
8
BLACK
6
CONTINUOUS
10
109.79
20
-100.25
11
109.907
21
-100.328
0
LINE
8
BLACK
6
CONTINUOUS
10
109.907
20
-100.328
11
110.041
21
-100.37
0
LINE
8
BLACK
6
CONTINUOUS
10
110.041
20
-100.37
11
110.181
21
-100.373
0
LINE
8
BLACK
6
CONTINUOUS
10
110.181
20
-100.373
11
110.317
21
-100.336
0
LINE
8
BLACK
6
CONTINUOUS
10
110.317
20
-100.336
11
110.436
21
-100.262
0
LINE
8
BLACK
6
CONTINUOUS
10
110.436
20
-100.262
11
110.53
21
-100.158
0
LINE
8
BLACK
6
CONTINUOUS
10
110.53
20
-100.158
11
110.592
21
-100.032
0
LINE
8
BLACK
6
CONTINUOUS
10
110.592
20
-100.032
11
110.615
21
-99.8935
0
LINE
8
BLACK
6
CONTINUOUS
10
110.615
20
-99.8935
11
110.615
21
-99.8814
0
LINE
8
BLACK
6
CONTINUOUS
10
110.615
20
-99.8814
11
110.595
21
-99.7425
0
LINE
8
BLACK
6
CONTINUOUS
10
110.595
20
-99.7425
11
110.537
21
-99.6147
0
LINE
8
BLACK
6
CONTINUOUS
10
110.537
20
-99.6147
11
110.445
21
-99.5084
0
LINE
8
BLACK
6
CONTINUOUS
10
110.445
20
-99.5084
11
110.328
21
-99.432
0
LINE
8
BLACK
6
CONTINUOUS
10
110.328
20
-99.432
11
110.193
21
-99.3918
0
LINE
8
BLACK
6
CONTINUOUS
10
110.193
20
-99.3918
11
110.053
21
-99.391
0
LINE
8
BLACK
6
CONTINUOUS
10
110.053
20
-99.391
11
109.918
21
-99.4295
0
LINE
8
BLACK
6
CONTINUOUS
10
109.918
20
-99.4295
11
109.799
21
-99.5044
0
LINE
8
BLACK
6
CONTINUOUS
10
109.799
20
-99.5044
11
109.706
21
-99.6096
0
LINE
8
BLACK
6
CONTINUOUS
10
109.706
20
-99.6096
11
109.647
21
-99.7367
0
LINE
8
BLACK
6
CONTINUOUS
10
109.647
20
-99.7367
11
109.625
21
-99.8754
0
LINE
8
BLACK
6
CONTINUOUS
10
109.625
20
-99.8754
11
109.643
21
-100.015
0
LINE
8
BLACK
6
CONTINUOUS
10
109.643
20
-100.015
11
109.7
21
-100.143
0
LINE
8
BLACK
6
CONTINUOUS
10
109.529
20
-92.3654
11
109.582
21
-92.2289
0
LINE
8
BLACK
6
CONTINUOUS
10
109.582
20
-92.2289
11
109.667
21
-92.109
0
LINE
8
BLACK
6
CONTINUOUS
10
109.667
20
-92.109
11
109.777
21
-92.0126
0
LINE
8
BLACK
6
CONTINUOUS
10
109.777
20
-92.0126
11
109.907
21
-91.9454
0
LINE
8
BLACK
6
CONTINUOUS
10
109.907
20
-91.9454
11
110.05
21
-91.9112
0
LINE
8
BLACK
6
CONTINUOUS
10
110.05
20
-91.9112
11
110.196
21
-91.9119
0
LINE
8
BLACK
6
CONTINUOUS
10
110.196
20
-91.9119
11
110.339
21
-91.9477
0
LINE
8
BLACK
6
CONTINUOUS
10
110.339
20
-91.9477
11
110.468
21
-92.0162
0
LINE
8
BLACK
6
CONTINUOUS
10
110.468
20
-92.0162
11
110.578
21
-92.1137
0
LINE
8
BLACK
6
CONTINUOUS
10
110.578
20
-92.1137
11
110.661
21
-92.2345
0
LINE
8
BLACK
6
CONTINUOUS
10
110.661
20
-92.2345
11
110.712
21
-92.3716
0
LINE
8
BLACK
6
CONTINUOUS
10
110.712
20
-92.3716
11
110.73
21
-92.5171
0
LINE
8
BLACK
6
CONTINUOUS
10
110.73
20
-92.5171
11
110.73
21
-92.5299
0
LINE
8
BLACK
6
CONTINUOUS
10
110.73
20
-92.5299
11
110.709
21
-92.675
0
LINE
8
BLACK
6
CONTINUOUS
10
110.709
20
-92.675
11
110.655
21
-92.811
0
LINE
8
BLACK
6
CONTINUOUS
10
110.655
20
-92.811
11
110.569
21
-92.93
0
LINE
8
BLACK
6
CONTINUOUS
10
110.569
20
-92.93
11
110.458
21
-93.0252
0
LINE
8
BLACK
6
CONTINUOUS
10
110.458
20
-93.0252
11
110.327
21
-93.0911
0
LINE
8
BLACK
6
CONTINUOUS
10
110.327
20
-93.0911
11
110.184
21
-93.1238
0
LINE
8
BLACK
6
CONTINUOUS
10
110.184
20
-93.1238
11
110.037
21
-93.1215
0
LINE
8
BLACK
6
CONTINUOUS
10
110.037
20
-93.1215
11
109.895
21
-93.0843
0
LINE
8
BLACK
6
CONTINUOUS
10
109.895
20
-93.0843
11
109.767
21
-93.0144
0
LINE
8
BLACK
6
CONTINUOUS
10
109.767
20
-93.0144
11
109.658
21
-92.9157
0
LINE
8
BLACK
6
CONTINUOUS
10
109.658
20
-92.9157
11
109.576
21
-92.7941
0
LINE
8
BLACK
6
CONTINUOUS
10
109.576
20
-92.7941
11
109.526
21
-92.6564
0
LINE
8
BLACK
6
CONTINUOUS
10
109.526
20
-92.6564
11
109.51
21
-92.5111
0
LINE
8
BLACK
6
CONTINUOUS
10
109.51
20
-92.5111
11
109.51
21
-92.5108
0
LINE
8
BLACK
6
CONTINUOUS
10
109.51
20
-92.5108
11
109.529
21
-92.3654
0
LINE
8
BLACK
6
CONTINUOUS
10
109.7
20
-92.7787
11
109.79
21
-92.8862
0
LINE
8
BLACK
6
CONTINUOUS
10
109.79
20
-92.8862
11
109.907
21
-92.964
0
LINE
8
BLACK
6
CONTINUOUS
10
109.907
20
-92.964
11
110.041
21
-93.0058
0
LINE
8
BLACK
6
CONTINUOUS
10
110.041
20
-93.0058
11
110.181
21
-93.0084
0
LINE
8
BLACK
6
CONTINUOUS
10
110.181
20
-93.0084
11
110.317
21
-92.9715
0
LINE
8
BLACK
6
CONTINUOUS
10
110.317
20
-92.9715
11
110.436
21
-92.898
0
LINE
8
BLACK
6
CONTINUOUS
10
110.436
20
-92.898
11
110.53
21
-92.794
0
LINE
8
BLACK
6
CONTINUOUS
10
110.53
20
-92.794
11
110.592
21
-92.6676
0
LINE
8
BLACK
6
CONTINUOUS
10
110.592
20
-92.6676
11
110.615
21
-92.5292
0
LINE
8
BLACK
6
CONTINUOUS
10
110.615
20
-92.5292
11
110.615
21
-92.5171
0
LINE
8
BLACK
6
CONTINUOUS
10
110.615
20
-92.5171
11
110.595
21
-92.3782
0
LINE
8
BLACK
6
CONTINUOUS
10
110.595
20
-92.3782
11
110.537
21
-92.2504
0
LINE
8
BLACK
6
CONTINUOUS
10
110.537
20
-92.2504
11
110.445
21
-92.1441
0
LINE
8
BLACK
6
CONTINUOUS
10
110.445
20
-92.1441
11
110.328
21
-92.0678
0
LINE
8
BLACK
6
CONTINUOUS
10
110.328
20
-92.0678
11
110.193
21
-92.0275
0
LINE
8
BLACK
6
CONTINUOUS
10
110.193
20
-92.0275
11
110.053
21
-92.0267
0
LINE
8
BLACK
6
CONTINUOUS
10
110.053
20
-92.0267
11
109.918
21
-92.0653
0
LINE
8
BLACK
6
CONTINUOUS
10
109.918
20
-92.0653
11
109.799
21
-92.1401
0
LINE
8
BLACK
6
CONTINUOUS
10
109.799
20
-92.1401
11
109.706
21
-92.2454
0
LINE
8
BLACK
6
CONTINUOUS
10
109.706
20
-92.2454
11
109.647
21
-92.3724
0
LINE
8
BLACK
6
CONTINUOUS
10
109.647
20
-92.3724
11
109.625
21
-92.5111
0
LINE
8
BLACK
6
CONTINUOUS
10
109.625
20
-92.5111
11
109.643
21
-92.6503
0
LINE
8
BLACK
6
CONTINUOUS
10
109.643
20
-92.6503
11
109.7
21
-92.7787
0
LINE
8
BLACK
6
CONTINUOUS
10
109.529
20
-85.0012
11
109.582
21
-84.8646
0
LINE
8
BLACK
6
CONTINUOUS
10
109.582
20
-84.8646
11
109.667
21
-84.7447
0
LINE
8
BLACK
6
CONTINUOUS
10
109.667
20
-84.7447
11
109.777
21
-84.6483
0
LINE
8
BLACK
6
CONTINUOUS
10
109.777
20
-84.6483
11
109.907
21
-84.5811
0
LINE
8
BLACK
6
CONTINUOUS
10
109.907
20
-84.5811
11
110.05
21
-84.5469
0
LINE
8
BLACK
6
CONTINUOUS
10
110.05
20
-84.5469
11
110.196
21
-84.5477
0
LINE
8
BLACK
6
CONTINUOUS
10
110.196
20
-84.5477
11
110.339
21
-84.5834
0
LINE
8
BLACK
6
CONTINUOUS
10
110.339
20
-84.5834
11
110.468
21
-84.652
0
LINE
8
BLACK
6
CONTINUOUS
10
110.468
20
-84.652
11
110.578
21
-84.7495
0
LINE
8
BLACK
6
CONTINUOUS
10
110.578
20
-84.7495
11
110.661
21
-84.8702
0
LINE
8
BLACK
6
CONTINUOUS
10
110.661
20
-84.8702
11
110.712
21
-85.0074
0
LINE
8
BLACK
6
CONTINUOUS
10
110.712
20
-85.0074
11
110.73
21
-85.1529
0
LINE
8
BLACK
6
CONTINUOUS
10
110.73
20
-85.1529
11
110.73
21
-85.1656
0
LINE
8
BLACK
6
CONTINUOUS
10
110.73
20
-85.1656
11
110.709
21
-85.3107
0
LINE
8
BLACK
6
CONTINUOUS
10
110.709
20
-85.3107
11
110.655
21
-85.4467
0
LINE
8
BLACK
6
CONTINUOUS
10
110.655
20
-85.4467
11
110.569
21
-85.5657
0
LINE
8
BLACK
6
CONTINUOUS
10
110.569
20
-85.5657
11
110.458
21
-85.6609
0
LINE
8
BLACK
6
CONTINUOUS
10
110.458
20
-85.6609
11
110.327
21
-85.7268
0
LINE
8
BLACK
6
CONTINUOUS
10
110.327
20
-85.7268
11
110.184
21
-85.7595
0
LINE
8
BLACK
6
CONTINUOUS
10
110.184
20
-85.7595
11
110.037
21
-85.7572
0
LINE
8
BLACK
6
CONTINUOUS
10
110.037
20
-85.7572
11
109.895
21
-85.72
0
LINE
8
BLACK
6
CONTINUOUS
10
109.895
20
-85.72
11
109.767
21
-85.6501
0
LINE
8
BLACK
6
CONTINUOUS
10
109.767
20
-85.6501
11
109.658
21
-85.5514
0
LINE
8
BLACK
6
CONTINUOUS
10
109.658
20
-85.5514
11
109.576
21
-85.4298
0
LINE
8
BLACK
6
CONTINUOUS
10
109.576
20
-85.4298
11
109.526
21
-85.2921
0
LINE
8
BLACK
6
CONTINUOUS
10
109.526
20
-85.2921
11
109.51
21
-85.1468
0
LINE
8
BLACK
6
CONTINUOUS
10
109.51
20
-85.1468
11
109.51
21
-85.1465
0
LINE
8
BLACK
6
CONTINUOUS
10
109.51
20
-85.1465
11
109.529
21
-85.0012
0
LINE
8
BLACK
6
CONTINUOUS
10
109.7
20
-85.4145
11
109.79
21
-85.5219
0
LINE
8
BLACK
6
CONTINUOUS
10
109.79
20
-85.5219
11
109.907
21
-85.5997
0
LINE
8
BLACK
6
CONTINUOUS
10
109.907
20
-85.5997
11
110.041
21
-85.6415
0
LINE
8
BLACK
6
CONTINUOUS
10
110.041
20
-85.6415
11
110.181
21
-85.6441
0
LINE
8
BLACK
6
CONTINUOUS
10
110.181
20
-85.6441
11
110.317
21
-85.6072
0
LINE
8
BLACK
6
CONTINUOUS
10
110.317
20
-85.6072
11
110.436
21
-85.5337
0
LINE
8
BLACK
6
CONTINUOUS
10
110.436
20
-85.5337
11
110.53
21
-85.4297
0
LINE
8
BLACK
6
CONTINUOUS
10
110.53
20
-85.4297
11
110.592
21
-85.3034
0
LINE
8
BLACK
6
CONTINUOUS
10
110.592
20
-85.3034
11
110.615
21
-85.1649
0
LINE
8
BLACK
6
CONTINUOUS
10
110.615
20
-85.1649
11
110.615
21
-85.1529
0
LINE
8
BLACK
6
CONTINUOUS
10
110.615
20
-85.1529
11
110.595
21
-85.0139
0
LINE
8
BLACK
6
CONTINUOUS
10
110.595
20
-85.0139
11
110.537
21
-84.8861
0
LINE
8
BLACK
6
CONTINUOUS
10
110.537
20
-84.8861
11
110.445
21
-84.7798
0
LINE
8
BLACK
6
CONTINUOUS
10
110.445
20
-84.7798
11
110.328
21
-84.7035
0
LINE
8
BLACK
6
CONTINUOUS
10
110.328
20
-84.7035
11
110.193
21
-84.6633
0
LINE
8
BLACK
6
CONTINUOUS
10
110.193
20
-84.6633
11
110.053
21
-84.6624
0
LINE
8
BLACK
6
CONTINUOUS
10
110.053
20
-84.6624
11
109.918
21
-84.701
0
LINE
8
BLACK
6
CONTINUOUS
10
109.918
20
-84.701
11
109.799
21
-84.7759
0
LINE
8
BLACK
6
CONTINUOUS
10
109.799
20
-84.7759
11
109.706
21
-84.8811
0
LINE
8
BLACK
6
CONTINUOUS
10
109.706
20
-84.8811
11
109.647
21
-85.0081
0
LINE
8
BLACK
6
CONTINUOUS
10
109.647
20
-85.0081
11
109.625
21
-85.1468
0
LINE
8
BLACK
6
CONTINUOUS
10
109.625
20
-85.1468
11
109.643
21
-85.286
0
LINE
8
BLACK
6
CONTINUOUS
10
109.643
20
-85.286
11
109.7
21
-85.4145
0
LINE
8
BLACK
6
CONTINUOUS
10
109.529
20
-77.6369
11
109.582
21
-77.5003
0
LINE
8
BLACK
6
CONTINUOUS
10
109.582
20
-77.5003
11
109.667
21
-77.3804
0
LINE
8
BLACK
6
CONTINUOUS
10
109.667
20
-77.3804
11
109.777
21
-77.2841
0
LINE
8
BLACK
6
CONTINUOUS
10
109.777
20
-77.2841
11
109.907
21
-77.2168
0
LINE
8
BLACK
6
CONTINUOUS
10
109.907
20
-77.2168
11
110.05
21
-77.1826
0
LINE
8
BLACK
6
CONTINUOUS
10
110.05
20
-77.1826
11
110.196
21
-77.1834
0
LINE
8
BLACK
6
CONTINUOUS
10
110.196
20
-77.1834
11
110.339
21
-77.2191
0
LINE
8
BLACK
6
CONTINUOUS
10
110.339
20
-77.2191
11
110.468
21
-77.2877
0
LINE
8
BLACK
6
CONTINUOUS
10
110.468
20
-77.2877
11
110.578
21
-77.3852
0
LINE
8
BLACK
6
CONTINUOUS
10
110.578
20
-77.3852
11
110.661
21
-77.506
0
LINE
8
BLACK
6
CONTINUOUS
10
110.661
20
-77.506
11
110.712
21
-77.6431
0
LINE
8
BLACK
6
CONTINUOUS
10
110.712
20
-77.6431
11
110.73
21
-77.7886
0
LINE
8
BLACK
6
CONTINUOUS
10
110.73
20
-77.7886
11
110.73
21
-77.8013
0
LINE
8
BLACK
6
CONTINUOUS
10
110.73
20
-77.8013
11
110.709
21
-77.9464
0
LINE
8
BLACK
6
CONTINUOUS
10
110.709
20
-77.9464
11
110.655
21
-78.0824
0
LINE
8
BLACK
6
CONTINUOUS
10
110.655
20
-78.0824
11
110.569
21
-78.2015
0
LINE
8
BLACK
6
CONTINUOUS
10
110.569
20
-78.2015
11
110.458
21
-78.2967
0
LINE
8
BLACK
6
CONTINUOUS
10
110.458
20
-78.2967
11
110.327
21
-78.3625
0
LINE
8
BLACK
6
CONTINUOUS
10
110.327
20
-78.3625
11
110.184
21
-78.3952
0
LINE
8
BLACK
6
CONTINUOUS
10
110.184
20
-78.3952
11
110.037
21
-78.3929
0
LINE
8
BLACK
6
CONTINUOUS
10
110.037
20
-78.3929
11
109.895
21
-78.3557
0
LINE
8
BLACK
6
CONTINUOUS
10
109.895
20
-78.3557
11
109.767
21
-78.2858
0
LINE
8
BLACK
6
CONTINUOUS
10
109.767
20
-78.2858
11
109.658
21
-78.1872
0
LINE
8
BLACK
6
CONTINUOUS
10
109.658
20
-78.1872
11
109.576
21
-78.0655
0
LINE
8
BLACK
6
CONTINUOUS
10
109.576
20
-78.0655
11
109.526
21
-77.9279
0
LINE
8
BLACK
6
CONTINUOUS
10
109.526
20
-77.9279
11
109.51
21
-77.7825
0
LINE
8
BLACK
6
CONTINUOUS
10
109.51
20
-77.7825
11
109.51
21
-77.7822
0
LINE
8
BLACK
6
CONTINUOUS
10
109.51
20
-77.7822
11
109.529
21
-77.6369
0
LINE
8
BLACK
6
CONTINUOUS
10
109.7
20
-78.0502
11
109.79
21
-78.1576
0
LINE
8
BLACK
6
CONTINUOUS
10
109.79
20
-78.1576
11
109.907
21
-78.2354
0
LINE
8
BLACK
6
CONTINUOUS
10
109.907
20
-78.2354
11
110.041
21
-78.2772
0
LINE
8
BLACK
6
CONTINUOUS
10
110.041
20
-78.2772
11
110.181
21
-78.2798
0
LINE
8
BLACK
6
CONTINUOUS
10
110.181
20
-78.2798
11
110.317
21
-78.2429
0
LINE
8
BLACK
6
CONTINUOUS
10
110.317
20
-78.2429
11
110.436
21
-78.1695
0
LINE
8
BLACK
6
CONTINUOUS
10
110.436
20
-78.1695
11
110.53
21
-78.0654
0
LINE
8
BLACK
6
CONTINUOUS
10
110.53
20
-78.0654
11
110.592
21
-77.9391
0
LINE
8
BLACK
6
CONTINUOUS
10
110.592
20
-77.9391
11
110.615
21
-77.8007
0
LINE
8
BLACK
6
CONTINUOUS
10
110.615
20
-77.8007
11
110.615
21
-77.7886
0
LINE
8
BLACK
6
CONTINUOUS
10
110.615
20
-77.7886
11
110.595
21
-77.6496
0
LINE
8
BLACK
6
CONTINUOUS
10
110.595
20
-77.6496
11
110.537
21
-77.5219
0
LINE
8
BLACK
6
CONTINUOUS
10
110.537
20
-77.5219
11
110.445
21
-77.4155
0
LINE
8
BLACK
6
CONTINUOUS
10
110.445
20
-77.4155
11
110.328
21
-77.3392
0
LINE
8
BLACK
6
CONTINUOUS
10
110.328
20
-77.3392
11
110.193
21
-77.299
0
LINE
8
BLACK
6
CONTINUOUS
10
110.193
20
-77.299
11
110.053
21
-77.2981
0
LINE
8
BLACK
6
CONTINUOUS
10
110.053
20
-77.2981
11
109.918
21
-77.3367
0
LINE
8
BLACK
6
CONTINUOUS
10
109.918
20
-77.3367
11
109.799
21
-77.4116
0
LINE
8
BLACK
6
CONTINUOUS
10
109.799
20
-77.4116
11
109.706
21
-77.5168
0
LINE
8
BLACK
6
CONTINUOUS
10
109.706
20
-77.5168
11
109.647
21
-77.6438
0
LINE
8
BLACK
6
CONTINUOUS
10
109.647
20
-77.6438
11
109.625
21
-77.7825
0
LINE
8
BLACK
6
CONTINUOUS
10
109.625
20
-77.7825
11
109.643
21
-77.9217
0
LINE
8
BLACK
6
CONTINUOUS
10
109.643
20
-77.9217
11
109.7
21
-78.0502
0
LINE
8
BLACK
6
CONTINUOUS
10
109.529
20
-70.2726
11
109.582
21
-70.136
0
LINE
8
BLACK
6
CONTINUOUS
10
109.582
20
-70.136
11
109.667
21
-70.0161
0
LINE
8
BLACK
6
CONTINUOUS
10
109.667
20
-70.0161
11
109.777
21
-69.9198
0
LINE
8
BLACK
6
CONTINUOUS
10
109.777
20
-69.9198
11
109.907
21
-69.8525
0
LINE
8
BLACK
6
CONTINUOUS
10
109.907
20
-69.8525
11
110.05
21
-69.8183
0
LINE
8
BLACK
6
CONTINUOUS
10
110.05
20
-69.8183
11
110.196
21
-69.8191
0
LINE
8
BLACK
6
CONTINUOUS
10
110.196
20
-69.8191
11
110.339
21
-69.8548
0
LINE
8
BLACK
6
CONTINUOUS
10
110.339
20
-69.8548
11
110.468
21
-69.9234
0
LINE
8
BLACK
6
CONTINUOUS
10
110.468
20
-69.9234
11
110.578
21
-70.0209
0
LINE
8
BLACK
6
CONTINUOUS
10
110.578
20
-70.0209
11
110.661
21
-70.1417
0
LINE
8
BLACK
6
CONTINUOUS
10
110.661
20
-70.1417
11
110.712
21
-70.2788
0
LINE
8
BLACK
6
CONTINUOUS
10
110.712
20
-70.2788
11
110.73
21
-70.4243
0
LINE
8
BLACK
6
CONTINUOUS
10
110.73
20
-70.4243
11
110.73
21
-70.4371
0
LINE
8
BLACK
6
CONTINUOUS
10
110.73
20
-70.4371
11
110.709
21
-70.5822
0
LINE
8
BLACK
6
CONTINUOUS
10
110.709
20
-70.5822
11
110.655
21
-70.7182
0
LINE
8
BLACK
6
CONTINUOUS
10
110.655
20
-70.7182
11
110.569
21
-70.8372
0
LINE
8
BLACK
6
CONTINUOUS
10
110.569
20
-70.8372
11
110.458
21
-70.9324
0
LINE
8
BLACK
6
CONTINUOUS
10
110.458
20
-70.9324
11
110.327
21
-70.9982
0
LINE
8
BLACK
6
CONTINUOUS
10
110.327
20
-70.9982
11
110.184
21
-71.0309
0
LINE
8
BLACK
6
CONTINUOUS
10
110.184
20
-71.0309
11
110.037
21
-71.0286
0
LINE
8
BLACK
6
CONTINUOUS
10
110.037
20
-71.0286
11
109.895
21
-70.9914
0
LINE
8
BLACK
6
CONTINUOUS
10
109.895
20
-70.9914
11
109.767
21
-70.9215
0
LINE
8
BLACK
6
CONTINUOUS
10
109.767
20
-70.9215
11
109.658
21
-70.8229
0
LINE
8
BLACK
6
CONTINUOUS
10
109.658
20
-70.8229
11
109.576
21
-70.7012
0
LINE
8
BLACK
6
CONTINUOUS
10
109.576
20
-70.7012
11
109.526
21
-70.5636
0
LINE
8
BLACK
6
CONTINUOUS
10
109.526
20
-70.5636
11
109.51
21
-70.4182
0
LINE
8
BLACK
6
CONTINUOUS
10
109.51
20
-70.4182
11
109.51
21
-70.4179
0
LINE
8
BLACK
6
CONTINUOUS
10
109.51
20
-70.4179
11
109.529
21
-70.2726
0
LINE
8
BLACK
6
CONTINUOUS
10
109.7
20
-70.6859
11
109.79
21
-70.7933
0
LINE
8
BLACK
6
CONTINUOUS
10
109.79
20
-70.7933
11
109.907
21
-70.8711
0
LINE
8
BLACK
6
CONTINUOUS
10
109.907
20
-70.8711
11
110.041
21
-70.913
0
LINE
8
BLACK
6
CONTINUOUS
10
110.041
20
-70.913
11
110.181
21
-70.9155
0
LINE
8
BLACK
6
CONTINUOUS
10
110.181
20
-70.9155
11
110.317
21
-70.8786
0
LINE
8
BLACK
6
CONTINUOUS
10
110.317
20
-70.8786
11
110.436
21
-70.8052
0
LINE
8
BLACK
6
CONTINUOUS
10
110.436
20
-70.8052
11
110.53
21
-70.7011
0
LINE
8
BLACK
6
CONTINUOUS
10
110.53
20
-70.7011
11
110.592
21
-70.5748
0
LINE
8
BLACK
6
CONTINUOUS
10
110.592
20
-70.5748
11
110.615
21
-70.4364
0
LINE
8
BLACK
6
CONTINUOUS
10
110.615
20
-70.4364
11
110.615
21
-70.4243
0
LINE
8
BLACK
6
CONTINUOUS
10
110.615
20
-70.4243
11
110.595
21
-70.2853
0
LINE
8
BLACK
6
CONTINUOUS
10
110.595
20
-70.2853
11
110.537
21
-70.1576
0
LINE
8
BLACK
6
CONTINUOUS
10
110.537
20
-70.1576
11
110.445
21
-70.0512
0
LINE
8
BLACK
6
CONTINUOUS
10
110.445
20
-70.0512
11
110.328
21
-69.9749
0
LINE
8
BLACK
6
CONTINUOUS
10
110.328
20
-69.9749
11
110.193
21
-69.9347
0
LINE
8
BLACK
6
CONTINUOUS
10
110.193
20
-69.9347
11
110.053
21
-69.9338
0
LINE
8
BLACK
6
CONTINUOUS
10
110.053
20
-69.9338
11
109.918
21
-69.9724
0
LINE
8
BLACK
6
CONTINUOUS
10
109.918
20
-69.9724
11
109.799
21
-70.0473
0
LINE
8
BLACK
6
CONTINUOUS
10
109.799
20
-70.0473
11
109.706
21
-70.1525
0
LINE
8
BLACK
6
CONTINUOUS
10
109.706
20
-70.1525
11
109.647
21
-70.2796
0
LINE
8
BLACK
6
CONTINUOUS
10
109.647
20
-70.2796
11
109.625
21
-70.4182
0
LINE
8
BLACK
6
CONTINUOUS
10
109.625
20
-70.4182
11
109.643
21
-70.5574
0
LINE
8
BLACK
6
CONTINUOUS
10
109.643
20
-70.5574
11
109.7
21
-70.6859
0
LINE
8
BLACK
6
CONTINUOUS
10
109.529
20
-62.9083
11
109.582
21
-62.7717
0
LINE
8
BLACK
6
CONTINUOUS
10
109.582
20
-62.7717
11
109.667
21
-62.6518
0
LINE
8
BLACK
6
CONTINUOUS
10
109.667
20
-62.6518
11
109.777
21
-62.5555
0
LINE
8
BLACK
6
CONTINUOUS
10
109.777
20
-62.5555
11
109.907
21
-62.4883
0
LINE
8
BLACK
6
CONTINUOUS
10
109.907
20
-62.4883
11
110.05
21
-62.454
0
LINE
8
BLACK
6
CONTINUOUS
10
110.05
20
-62.454
11
110.196
21
-62.4548
0
LINE
8
BLACK
6
CONTINUOUS
10
110.196
20
-62.4548
11
110.339
21
-62.4905
0
LINE
8
BLACK
6
CONTINUOUS
10
110.339
20
-62.4905
11
110.468
21
-62.5591
0
LINE
8
BLACK
6
CONTINUOUS
10
110.468
20
-62.5591
11
110.578
21
-62.6566
0
LINE
8
BLACK
6
CONTINUOUS
10
110.578
20
-62.6566
11
110.661
21
-62.7774
0
LINE
8
BLACK
6
CONTINUOUS
10
110.661
20
-62.7774
11
110.712
21
-62.9145
0
LINE
8
BLACK
6
CONTINUOUS
10
110.712
20
-62.9145
11
110.73
21
-63.06
0
LINE
8
BLACK
6
CONTINUOUS
10
110.73
20
-63.06
11
110.73
21
-63.0728
0
LINE
8
BLACK
6
CONTINUOUS
10
110.73
20
-63.0728
11
110.709
21
-63.2179
0
LINE
8
BLACK
6
CONTINUOUS
10
110.709
20
-63.2179
11
110.655
21
-63.3539
0
LINE
8
BLACK
6
CONTINUOUS
10
110.655
20
-63.3539
11
110.569
21
-63.4729
0
LINE
8
BLACK
6
CONTINUOUS
10
110.569
20
-63.4729
11
110.458
21
-63.5681
0
LINE
8
BLACK
6
CONTINUOUS
10
110.458
20
-63.5681
11
110.327
21
-63.6339
0
LINE
8
BLACK
6
CONTINUOUS
10
110.327
20
-63.6339
11
110.184
21
-63.6667
0
LINE
8
BLACK
6
CONTINUOUS
10
110.184
20
-63.6667
11
110.037
21
-63.6644
0
LINE
8
BLACK
6
CONTINUOUS
10
110.037
20
-63.6644
11
109.895
21
-63.6272
0
LINE
8
BLACK
6
CONTINUOUS
10
109.895
20
-63.6272
11
109.767
21
-63.5572
0
LINE
8
BLACK
6
CONTINUOUS
10
109.767
20
-63.5572
11
109.658
21
-63.4586
0
LINE
8
BLACK
6
CONTINUOUS
10
109.658
20
-63.4586
11
109.576
21
-63.3369
0
LINE
8
BLACK
6
CONTINUOUS
10
109.576
20
-63.3369
11
109.526
21
-63.1993
0
LINE
8
BLACK
6
CONTINUOUS
10
109.526
20
-63.1993
11
109.51
21
-63.054
0
LINE
8
BLACK
6
CONTINUOUS
10
109.51
20
-63.054
11
109.51
21
-63.0536
0
LINE
8
BLACK
6
CONTINUOUS
10
109.51
20
-63.0536
11
109.529
21
-62.9083
0
LINE
8
BLACK
6
CONTINUOUS
10
109.7
20
-63.3216
11
109.79
21
-63.429
0
LINE
8
BLACK
6
CONTINUOUS
10
109.79
20
-63.429
11
109.907
21
-63.5068
0
LINE
8
BLACK
6
CONTINUOUS
10
109.907
20
-63.5068
11
110.041
21
-63.5487
0
LINE
8
BLACK
6
CONTINUOUS
10
110.041
20
-63.5487
11
110.181
21
-63.5512
0
LINE
8
BLACK
6
CONTINUOUS
10
110.181
20
-63.5512
11
110.317
21
-63.5143
0
LINE
8
BLACK
6
CONTINUOUS
10
110.317
20
-63.5143
11
110.436
21
-63.4409
0
LINE
8
BLACK
6
CONTINUOUS
10
110.436
20
-63.4409
11
110.53
21
-63.3368
0
LINE
8
BLACK
6
CONTINUOUS
10
110.53
20
-63.3368
11
110.592
21
-63.2105
0
LINE
8
BLACK
6
CONTINUOUS
10
110.592
20
-63.2105
11
110.615
21
-63.0721
0
LINE
8
BLACK
6
CONTINUOUS
10
110.615
20
-63.0721
11
110.615
21
-63.06
0
LINE
8
BLACK
6
CONTINUOUS
10
110.615
20
-63.06
11
110.595
21
-62.9211
0
LINE
8
BLACK
6
CONTINUOUS
10
110.595
20
-62.9211
11
110.537
21
-62.7933
0
LINE
8
BLACK
6
CONTINUOUS
10
110.537
20
-62.7933
11
110.445
21
-62.687
0
LINE
8
BLACK
6
CONTINUOUS
10
110.445
20
-62.687
11
110.328
21
-62.6106
0
LINE
8
BLACK
6
CONTINUOUS
10
110.328
20
-62.6106
11
110.193
21
-62.5704
0
LINE
8
BLACK
6
CONTINUOUS
10
110.193
20
-62.5704
11
110.053
21
-62.5695
0
LINE
8
BLACK
6
CONTINUOUS
10
110.053
20
-62.5695
11
109.918
21
-62.6081
0
LINE
8
BLACK
6
CONTINUOUS
10
109.918
20
-62.6081
11
109.799
21
-62.683
0
LINE
8
BLACK
6
CONTINUOUS
10
109.799
20
-62.683
11
109.706
21
-62.7882
0
LINE
8
BLACK
6
CONTINUOUS
10
109.706
20
-62.7882
11
109.647
21
-62.9153
0
LINE
8
BLACK
6
CONTINUOUS
10
109.647
20
-62.9153
11
109.625
21
-63.054
0
LINE
8
BLACK
6
CONTINUOUS
10
109.625
20
-63.054
11
109.643
21
-63.1931
0
LINE
8
BLACK
6
CONTINUOUS
10
109.643
20
-63.1931
11
109.7
21
-63.3216
  0
ENDSEC
  0
EOF
