  0
SECTION
  2
HEADER
  9
$ANGBASE
  50
0.0
  9
$ANGDIR
  70
1
  9
$MEASUREMENT
  70
0
  0
ENDSEC
  0
SECTION
  2
TABLES
  0
TABLE
  2
LTYPE
  70
4
  0
LTYPE
  5
40F
  2
CONTINUOUS
  70
0
  3
Solid line
  72
65
  73
0
  40
0.0
  0
LTYPE
  5
410
  2
DASHDOT
 70
0
  3
Dash Dot ____ _ ____ _
 72
65
 73
4
 40
2.0
 49
1.25
 49
-0.25
 49
0.25
 49
-0.25
  0
LTYPE
  5
411
  2
DASHED
 70
0
  3
Dashed __ __ __ __ __
 72
65
 73
2
 40
0.75
 49
0.5
 49
-0.25
  0
LTYPE
  5
43B
  2
DOTTED
 70
0
  3
Dotted .  .  .  .
 72
65
 73
2
 40
0.2
 49
0.0
 49
-0.2
  0
ENDTAB
  0
TABLE
  2
STYLE
  70
4
  0
STYLE
  2
KICAD
  70
0
  40
0
  41
1
  42
1
  50
0
  71
0
  3
isocp.shx
  0
STYLE
  2
KICADB
  70
0
  40
0
  41
1
  42
1
  50
0
  71
0
  3
isocp.shx
  0
STYLE
  2
KICADI
  70
0
  40
0
  41
1
  42
1
  50
15
  71
0
  3
isocp.shx
  0
STYLE
  2
KICADBI
  70
0
  40
0
  41
1
  42
1
  50
15
  71
0
  3
isocp.shx
  0
ENDTAB
  0
TABLE
  2
LAYER
  70
1
  0
LAYER
  2
BLACK
  70
0
  62
7
  6
CONTINUOUS
  0
ENDTAB
  0
ENDSEC
  0
SECTION
  2
ENTITIES
0
LINE
8
BLACK
6
CONTINUOUS
10
5.9318
20
-5.04599
11
5.93111
21
-5.04432
0
LINE
8
BLACK
6
CONTINUOUS
10
5.93111
20
-5.04432
11
5.93111
21
-4.94196
0
LINE
8
BLACK
6
CONTINUOUS
10
5.93111
20
-4.94196
11
5.9318
21
-4.94029
0
LINE
8
BLACK
6
CONTINUOUS
10
5.9318
20
-4.94029
11
5.93347
21
-4.9396
0
LINE
8
BLACK
6
CONTINUOUS
10
5.93347
20
-4.9396
11
6.03347
21
-4.9396
0
LINE
8
BLACK
6
CONTINUOUS
10
6.03347
20
-4.9396
11
6.03347
21
-4.8396
0
LINE
8
BLACK
6
CONTINUOUS
10
6.03347
20
-4.8396
11
6.03416
21
-4.83793
0
LINE
8
BLACK
6
CONTINUOUS
10
6.03416
20
-4.83793
11
6.03583
21
-4.83724
0
LINE
8
BLACK
6
CONTINUOUS
10
6.03583
20
-4.83724
11
6.5382
21
-4.83724
0
LINE
8
BLACK
6
CONTINUOUS
10
6.5382
20
-4.83724
11
6.53987
21
-4.83793
0
LINE
8
BLACK
6
CONTINUOUS
10
6.53987
20
-4.83793
11
6.54056
21
-4.8396
0
LINE
8
BLACK
6
CONTINUOUS
10
6.54056
20
-4.8396
11
6.54056
21
-5.04432
0
LINE
8
BLACK
6
CONTINUOUS
10
6.54056
20
-5.04432
11
6.53987
21
-5.04599
0
LINE
8
BLACK
6
CONTINUOUS
10
6.53987
20
-5.04599
11
6.5382
21
-5.04669
0
LINE
8
BLACK
6
CONTINUOUS
10
6.5382
20
-5.04669
11
5.93347
21
-5.04669
0
LINE
8
BLACK
6
CONTINUOUS
10
5.93347
20
-5.04669
11
5.9318
21
-5.04599
0
LINE
8
BLACK
6
CONTINUOUS
10
5.93583
20
-5.04196
11
6.53583
21
-5.04196
0
LINE
8
BLACK
6
CONTINUOUS
10
6.53583
20
-5.04196
11
6.53583
21
-4.84196
0
LINE
8
BLACK
6
CONTINUOUS
10
6.53583
20
-4.84196
11
6.0382
21
-4.84196
0
LINE
8
BLACK
6
CONTINUOUS
10
6.0382
20
-4.84196
11
6.0382
21
-4.94196
0
LINE
8
BLACK
6
CONTINUOUS
10
6.0382
20
-4.94196
11
6.0375
21
-4.94363
0
LINE
8
BLACK
6
CONTINUOUS
10
6.0375
20
-4.94363
11
6.03583
21
-4.94432
0
LINE
8
BLACK
6
CONTINUOUS
10
6.03583
20
-4.94432
11
5.93583
21
-4.94432
0
LINE
8
BLACK
6
CONTINUOUS
10
5.93583
20
-4.94432
11
5.93583
21
-5.04196
0
LINE
8
BLACK
6
CONTINUOUS
10
3.7438
20
-5.04599
11
3.74311
21
-5.04432
0
LINE
8
BLACK
6
CONTINUOUS
10
3.74311
20
-5.04432
11
3.74311
21
-4.94196
0
LINE
8
BLACK
6
CONTINUOUS
10
3.74311
20
-4.94196
11
3.7438
21
-4.94029
0
LINE
8
BLACK
6
CONTINUOUS
10
3.7438
20
-4.94029
11
3.74547
21
-4.9396
0
LINE
8
BLACK
6
CONTINUOUS
10
3.74547
20
-4.9396
11
3.84547
21
-4.9396
0
LINE
8
BLACK
6
CONTINUOUS
10
3.84547
20
-4.9396
11
3.84547
21
-4.8396
0
LINE
8
BLACK
6
CONTINUOUS
10
3.84547
20
-4.8396
11
3.84616
21
-4.83793
0
LINE
8
BLACK
6
CONTINUOUS
10
3.84616
20
-4.83793
11
3.84783
21
-4.83724
0
LINE
8
BLACK
6
CONTINUOUS
10
3.84783
20
-4.83724
11
4.3502
21
-4.83724
0
LINE
8
BLACK
6
CONTINUOUS
10
4.3502
20
-4.83724
11
4.35187
21
-4.83793
0
LINE
8
BLACK
6
CONTINUOUS
10
4.35187
20
-4.83793
11
4.35256
21
-4.8396
0
LINE
8
BLACK
6
CONTINUOUS
10
4.35256
20
-4.8396
11
4.35256
21
-5.04432
0
LINE
8
BLACK
6
CONTINUOUS
10
4.35256
20
-5.04432
11
4.35187
21
-5.04599
0
LINE
8
BLACK
6
CONTINUOUS
10
4.35187
20
-5.04599
11
4.3502
21
-5.04669
0
LINE
8
BLACK
6
CONTINUOUS
10
4.3502
20
-5.04669
11
3.74547
21
-5.04669
0
LINE
8
BLACK
6
CONTINUOUS
10
3.74547
20
-5.04669
11
3.7438
21
-5.04599
0
LINE
8
BLACK
6
CONTINUOUS
10
3.74783
20
-5.04196
11
4.34783
21
-5.04196
0
LINE
8
BLACK
6
CONTINUOUS
10
4.34783
20
-5.04196
11
4.34783
21
-4.84196
0
LINE
8
BLACK
6
CONTINUOUS
10
4.34783
20
-4.84196
11
3.8502
21
-4.84196
0
LINE
8
BLACK
6
CONTINUOUS
10
3.8502
20
-4.84196
11
3.8502
21
-4.94196
0
LINE
8
BLACK
6
CONTINUOUS
10
3.8502
20
-4.94196
11
3.8495
21
-4.94363
0
LINE
8
BLACK
6
CONTINUOUS
10
3.8495
20
-4.94363
11
3.84783
21
-4.94432
0
LINE
8
BLACK
6
CONTINUOUS
10
3.84783
20
-4.94432
11
3.74783
21
-4.94432
0
LINE
8
BLACK
6
CONTINUOUS
10
3.74783
20
-4.94432
11
3.74783
21
-5.04196
0
LINE
8
BLACK
6
CONTINUOUS
10
3.70949
20
-4.96161
11
3.70963
21
-4.96159
0
LINE
8
BLACK
6
CONTINUOUS
10
3.70963
20
-4.96159
11
3.71713
21
-4.96347
0
LINE
8
BLACK
6
CONTINUOUS
10
3.71713
20
-4.96347
11
3.7176
21
-4.96368
0
LINE
8
BLACK
6
CONTINUOUS
10
3.7176
20
-4.96368
11
3.71773
21
-4.96369
0
LINE
8
BLACK
6
CONTINUOUS
10
3.71773
20
-4.96369
11
3.72148
21
-4.96557
0
LINE
8
BLACK
6
CONTINUOUS
10
3.72148
20
-4.96557
11
3.72219
21
-4.96609
0
LINE
8
BLACK
6
CONTINUOUS
10
3.72219
20
-4.96609
11
3.72225
21
-4.96612
0
LINE
8
BLACK
6
CONTINUOUS
10
3.72225
20
-4.96612
11
3.72413
21
-4.96799
0
LINE
8
BLACK
6
CONTINUOUS
10
3.72413
20
-4.96799
11
3.72463
21
-4.96872
0
LINE
8
BLACK
6
CONTINUOUS
10
3.72463
20
-4.96872
11
3.72468
21
-4.96876
0
LINE
8
BLACK
6
CONTINUOUS
10
3.72468
20
-4.96876
11
3.72655
21
-4.97251
0
LINE
8
BLACK
6
CONTINUOUS
10
3.72655
20
-4.97251
11
3.72685
21
-4.97349
0
LINE
8
BLACK
6
CONTINUOUS
10
3.72685
20
-4.97349
11
3.7268
21
-4.97367
0
LINE
8
BLACK
6
CONTINUOUS
10
3.7268
20
-4.97367
11
3.72687
21
-4.97383
0
LINE
8
BLACK
6
CONTINUOUS
10
3.72687
20
-4.97383
11
3.72687
21
-4.97758
0
LINE
8
BLACK
6
CONTINUOUS
10
3.72687
20
-4.97758
11
3.72669
21
-4.97859
0
LINE
8
BLACK
6
CONTINUOUS
10
3.72669
20
-4.97859
11
3.72657
21
-4.97873
0
LINE
8
BLACK
6
CONTINUOUS
10
3.72657
20
-4.97873
11
3.72655
21
-4.9789
0
LINE
8
BLACK
6
CONTINUOUS
10
3.72655
20
-4.9789
11
3.72468
21
-4.98265
0
LINE
8
BLACK
6
CONTINUOUS
10
3.72468
20
-4.98265
11
3.72415
21
-4.98336
0
LINE
8
BLACK
6
CONTINUOUS
10
3.72415
20
-4.98336
11
3.72413
21
-4.98342
0
LINE
8
BLACK
6
CONTINUOUS
10
3.72413
20
-4.98342
11
3.72225
21
-4.98529
0
LINE
8
BLACK
6
CONTINUOUS
10
3.72225
20
-4.98529
11
3.72153
21
-4.9858
0
LINE
8
BLACK
6
CONTINUOUS
10
3.72153
20
-4.9858
11
3.72148
21
-4.98585
0
LINE
8
BLACK
6
CONTINUOUS
10
3.72148
20
-4.98585
11
3.71773
21
-4.98772
0
LINE
8
BLACK
6
CONTINUOUS
10
3.71773
20
-4.98772
11
3.71725
21
-4.98787
0
LINE
8
BLACK
6
CONTINUOUS
10
3.71725
20
-4.98787
11
3.71713
21
-4.98794
0
LINE
8
BLACK
6
CONTINUOUS
10
3.71713
20
-4.98794
11
3.70963
21
-4.98982
0
LINE
8
BLACK
6
CONTINUOUS
10
3.70963
20
-4.98982
11
3.70904
21
-4.98986
0
LINE
8
BLACK
6
CONTINUOUS
10
3.70904
20
-4.98986
11
3.70891
21
-4.98991
0
LINE
8
BLACK
6
CONTINUOUS
10
3.70891
20
-4.98991
11
3.69954
21
-4.98991
0
LINE
8
BLACK
6
CONTINUOUS
10
3.69954
20
-4.98991
11
3.69896
21
-4.98981
0
LINE
8
BLACK
6
CONTINUOUS
10
3.69896
20
-4.98981
11
3.69882
21
-4.98982
0
LINE
8
BLACK
6
CONTINUOUS
10
3.69882
20
-4.98982
11
3.69133
21
-4.98794
0
LINE
8
BLACK
6
CONTINUOUS
10
3.69133
20
-4.98794
11
3.69086
21
-4.98774
0
LINE
8
BLACK
6
CONTINUOUS
10
3.69086
20
-4.98774
11
3.69072
21
-4.98772
0
LINE
8
BLACK
6
CONTINUOUS
10
3.69072
20
-4.98772
11
3.68697
21
-4.98585
0
LINE
8
BLACK
6
CONTINUOUS
10
3.68697
20
-4.98585
11
3.68626
21
-4.98532
0
LINE
8
BLACK
6
CONTINUOUS
10
3.68626
20
-4.98532
11
3.6862
21
-4.98529
0
LINE
8
BLACK
6
CONTINUOUS
10
3.6862
20
-4.98529
11
3.68433
21
-4.98342
0
LINE
8
BLACK
6
CONTINUOUS
10
3.68433
20
-4.98342
11
3.68382
21
-4.9827
0
LINE
8
BLACK
6
CONTINUOUS
10
3.68382
20
-4.9827
11
3.68378
21
-4.98265
0
LINE
8
BLACK
6
CONTINUOUS
10
3.68378
20
-4.98265
11
3.6819
21
-4.9789
0
LINE
8
BLACK
6
CONTINUOUS
10
3.6819
20
-4.9789
11
3.68161
21
-4.97792
0
LINE
8
BLACK
6
CONTINUOUS
10
3.68161
20
-4.97792
11
3.68165
21
-4.97775
0
LINE
8
BLACK
6
CONTINUOUS
10
3.68165
20
-4.97775
11
3.68159
21
-4.97758
0
LINE
8
BLACK
6
CONTINUOUS
10
3.68159
20
-4.97758
11
3.68159
21
-4.97383
0
LINE
8
BLACK
6
CONTINUOUS
10
3.68159
20
-4.97383
11
3.68177
21
-4.97282
0
LINE
8
BLACK
6
CONTINUOUS
10
3.68177
20
-4.97282
11
3.68188
21
-4.97269
0
LINE
8
BLACK
6
CONTINUOUS
10
3.68188
20
-4.97269
11
3.6819
21
-4.97251
0
LINE
8
BLACK
6
CONTINUOUS
10
3.6819
20
-4.97251
11
3.68378
21
-4.96876
0
LINE
8
BLACK
6
CONTINUOUS
10
3.68378
20
-4.96876
11
3.6843
21
-4.96805
0
LINE
8
BLACK
6
CONTINUOUS
10
3.6843
20
-4.96805
11
3.68433
21
-4.96799
0
LINE
8
BLACK
6
CONTINUOUS
10
3.68433
20
-4.96799
11
3.6862
21
-4.96612
0
LINE
8
BLACK
6
CONTINUOUS
10
3.6862
20
-4.96612
11
3.68693
21
-4.96561
0
LINE
8
BLACK
6
CONTINUOUS
10
3.68693
20
-4.96561
11
3.68697
21
-4.96557
0
LINE
8
BLACK
6
CONTINUOUS
10
3.68697
20
-4.96557
11
3.69072
21
-4.96369
0
LINE
8
BLACK
6
CONTINUOUS
10
3.69072
20
-4.96369
11
3.69121
21
-4.96355
0
LINE
8
BLACK
6
CONTINUOUS
10
3.69121
20
-4.96355
11
3.69133
21
-4.96347
0
LINE
8
BLACK
6
CONTINUOUS
10
3.69133
20
-4.96347
11
3.69882
21
-4.96159
0
LINE
8
BLACK
6
CONTINUOUS
10
3.69882
20
-4.96159
11
3.69941
21
-4.96155
0
LINE
8
BLACK
6
CONTINUOUS
10
3.69941
20
-4.96155
11
3.69954
21
-4.96151
0
LINE
8
BLACK
6
CONTINUOUS
10
3.69954
20
-4.96151
11
3.70891
21
-4.96151
0
LINE
8
BLACK
6
CONTINUOUS
10
3.70891
20
-4.96151
11
3.70949
21
-4.96161
0
LINE
8
BLACK
6
CONTINUOUS
10
3.6999
20
-4.96741
11
3.69307
21
-4.96912
0
LINE
8
BLACK
6
CONTINUOUS
10
3.69307
20
-4.96912
11
3.69004
21
-4.97063
0
LINE
8
BLACK
6
CONTINUOUS
10
3.69004
20
-4.97063
11
3.68884
21
-4.97183
0
LINE
8
BLACK
6
CONTINUOUS
10
3.68884
20
-4.97183
11
3.6875
21
-4.97453
0
LINE
8
BLACK
6
CONTINUOUS
10
3.6875
20
-4.97453
11
3.6875
21
-4.97688
0
LINE
8
BLACK
6
CONTINUOUS
10
3.6875
20
-4.97688
11
3.68884
21
-4.97958
0
LINE
8
BLACK
6
CONTINUOUS
10
3.68884
20
-4.97958
11
3.69004
21
-4.98078
0
LINE
8
BLACK
6
CONTINUOUS
10
3.69004
20
-4.98078
11
3.69307
21
-4.98229
0
LINE
8
BLACK
6
CONTINUOUS
10
3.69307
20
-4.98229
11
3.6999
21
-4.984
0
LINE
8
BLACK
6
CONTINUOUS
10
3.6999
20
-4.984
11
3.70855
21
-4.984
0
LINE
8
BLACK
6
CONTINUOUS
10
3.70855
20
-4.984
11
3.71538
21
-4.98229
0
LINE
8
BLACK
6
CONTINUOUS
10
3.71538
20
-4.98229
11
3.71841
21
-4.98078
0
LINE
8
BLACK
6
CONTINUOUS
10
3.71841
20
-4.98078
11
3.71961
21
-4.97958
0
LINE
8
BLACK
6
CONTINUOUS
10
3.71961
20
-4.97958
11
3.72096
21
-4.97688
0
LINE
8
BLACK
6
CONTINUOUS
10
3.72096
20
-4.97688
11
3.72096
21
-4.97453
0
LINE
8
BLACK
6
CONTINUOUS
10
3.72096
20
-4.97453
11
3.71961
21
-4.97183
0
LINE
8
BLACK
6
CONTINUOUS
10
3.71961
20
-4.97183
11
3.71841
21
-4.97063
0
LINE
8
BLACK
6
CONTINUOUS
10
3.71841
20
-4.97063
11
3.71538
21
-4.96912
0
LINE
8
BLACK
6
CONTINUOUS
10
3.71538
20
-4.96912
11
3.70855
21
-4.96741
0
LINE
8
BLACK
6
CONTINUOUS
10
3.70855
20
-4.96741
11
3.6999
21
-4.96741
0
LINE
8
BLACK
6
CONTINUOUS
10
5.89042
20
-4.94294
11
5.89056
21
-4.94305
0
LINE
8
BLACK
6
CONTINUOUS
10
5.89056
20
-4.94305
11
5.89073
21
-4.94307
0
LINE
8
BLACK
6
CONTINUOUS
10
5.89073
20
-4.94307
11
5.89448
21
-4.94494
0
LINE
8
BLACK
6
CONTINUOUS
10
5.89448
20
-4.94494
11
5.89519
21
-4.94547
0
LINE
8
BLACK
6
CONTINUOUS
10
5.89519
20
-4.94547
11
5.89525
21
-4.9455
0
LINE
8
BLACK
6
CONTINUOUS
10
5.89525
20
-4.9455
11
5.89713
21
-4.94737
0
LINE
8
BLACK
6
CONTINUOUS
10
5.89713
20
-4.94737
11
5.89763
21
-4.94809
0
LINE
8
BLACK
6
CONTINUOUS
10
5.89763
20
-4.94809
11
5.89768
21
-4.94814
0
LINE
8
BLACK
6
CONTINUOUS
10
5.89768
20
-4.94814
11
5.89955
21
-4.95189
0
LINE
8
BLACK
6
CONTINUOUS
10
5.89955
20
-4.95189
11
5.89985
21
-4.95287
0
LINE
8
BLACK
6
CONTINUOUS
10
5.89985
20
-4.95287
11
5.89981
21
-4.95304
0
LINE
8
BLACK
6
CONTINUOUS
10
5.89981
20
-4.95304
11
5.89987
21
-4.95321
0
LINE
8
BLACK
6
CONTINUOUS
10
5.89987
20
-4.95321
11
5.89987
21
-4.96071
0
LINE
8
BLACK
6
CONTINUOUS
10
5.89987
20
-4.96071
11
5.89969
21
-4.96172
0
LINE
8
BLACK
6
CONTINUOUS
10
5.89969
20
-4.96172
11
5.89957
21
-4.96185
0
LINE
8
BLACK
6
CONTINUOUS
10
5.89957
20
-4.96185
11
5.89955
21
-4.96203
0
LINE
8
BLACK
6
CONTINUOUS
10
5.89955
20
-4.96203
11
5.89841
21
-4.96432
0
LINE
8
BLACK
6
CONTINUOUS
10
5.89841
20
-4.96432
11
5.90132
21
-4.96359
0
LINE
8
BLACK
6
CONTINUOUS
10
5.90132
20
-4.96359
11
5.90628
21
-4.96029
0
LINE
8
BLACK
6
CONTINUOUS
10
5.90628
20
-4.96029
11
5.90761
21
-4.95896
0
LINE
8
BLACK
6
CONTINUOUS
10
5.90761
20
-4.95896
11
5.90896
21
-4.95626
0
LINE
8
BLACK
6
CONTINUOUS
10
5.90896
20
-4.95626
11
5.90896
21
-4.94946
0
LINE
8
BLACK
6
CONTINUOUS
10
5.90896
20
-4.94946
11
5.90914
21
-4.94845
0
LINE
8
BLACK
6
CONTINUOUS
10
5.90914
20
-4.94845
11
5.91043
21
-4.9469
0
LINE
8
BLACK
6
CONTINUOUS
10
5.91043
20
-4.9469
11
5.91242
21
-4.94655
0
LINE
8
BLACK
6
CONTINUOUS
10
5.91242
20
-4.94655
11
5.91417
21
-4.94756
0
LINE
8
BLACK
6
CONTINUOUS
10
5.91417
20
-4.94756
11
5.91486
21
-4.94946
0
LINE
8
BLACK
6
CONTINUOUS
10
5.91486
20
-4.94946
11
5.91486
21
-4.95696
0
LINE
8
BLACK
6
CONTINUOUS
10
5.91486
20
-4.95696
11
5.91469
21
-4.95797
0
LINE
8
BLACK
6
CONTINUOUS
10
5.91469
20
-4.95797
11
5.91457
21
-4.9581
0
LINE
8
BLACK
6
CONTINUOUS
10
5.91457
20
-4.9581
11
5.91455
21
-4.95828
0
LINE
8
BLACK
6
CONTINUOUS
10
5.91455
20
-4.95828
11
5.91268
21
-4.96203
0
LINE
8
BLACK
6
CONTINUOUS
10
5.91268
20
-4.96203
11
5.91215
21
-4.96274
0
LINE
8
BLACK
6
CONTINUOUS
10
5.91215
20
-4.96274
11
5.91212
21
-4.9628
0
LINE
8
BLACK
6
CONTINUOUS
10
5.91212
20
-4.9628
11
5.91025
21
-4.96467
0
LINE
8
BLACK
6
CONTINUOUS
10
5.91025
20
-4.96467
11
5.90988
21
-4.96493
0
LINE
8
BLACK
6
CONTINUOUS
10
5.90988
20
-4.96493
11
5.9098
21
-4.96504
0
LINE
8
BLACK
6
CONTINUOUS
10
5.9098
20
-4.96504
11
5.90417
21
-4.96879
0
LINE
8
BLACK
6
CONTINUOUS
10
5.90417
20
-4.96879
11
5.90327
21
-4.96919
0
LINE
8
BLACK
6
CONTINUOUS
10
5.90327
20
-4.96919
11
5.90325
21
-4.9692
0
LINE
8
BLACK
6
CONTINUOUS
10
5.90325
20
-4.9692
11
5.89575
21
-4.97107
0
LINE
8
BLACK
6
CONTINUOUS
10
5.89575
20
-4.97107
11
5.89517
21
-4.97111
0
LINE
8
BLACK
6
CONTINUOUS
10
5.89517
20
-4.97111
11
5.89504
21
-4.97116
0
LINE
8
BLACK
6
CONTINUOUS
10
5.89504
20
-4.97116
11
5.88004
21
-4.97116
0
LINE
8
BLACK
6
CONTINUOUS
10
5.88004
20
-4.97116
11
5.87903
21
-4.97098
0
LINE
8
BLACK
6
CONTINUOUS
10
5.87903
20
-4.97098
11
5.87889
21
-4.97087
0
LINE
8
BLACK
6
CONTINUOUS
10
5.87889
20
-4.97087
11
5.87872
21
-4.97085
0
LINE
8
BLACK
6
CONTINUOUS
10
5.87872
20
-4.97085
11
5.87497
21
-4.96897
0
LINE
8
BLACK
6
CONTINUOUS
10
5.87497
20
-4.96897
11
5.87426
21
-4.96845
0
LINE
8
BLACK
6
CONTINUOUS
10
5.87426
20
-4.96845
11
5.8742
21
-4.96842
0
LINE
8
BLACK
6
CONTINUOUS
10
5.8742
20
-4.96842
11
5.87233
21
-4.96655
0
LINE
8
BLACK
6
CONTINUOUS
10
5.87233
20
-4.96655
11
5.87182
21
-4.96582
0
LINE
8
BLACK
6
CONTINUOUS
10
5.87182
20
-4.96582
11
5.87177
21
-4.96578
0
LINE
8
BLACK
6
CONTINUOUS
10
5.87177
20
-4.96578
11
5.8699
21
-4.96203
0
LINE
8
BLACK
6
CONTINUOUS
10
5.8699
20
-4.96203
11
5.86961
21
-4.96105
0
LINE
8
BLACK
6
CONTINUOUS
10
5.86961
20
-4.96105
11
5.86965
21
-4.96087
0
LINE
8
BLACK
6
CONTINUOUS
10
5.86965
20
-4.96087
11
5.86959
21
-4.96071
0
LINE
8
BLACK
6
CONTINUOUS
10
5.86959
20
-4.96071
11
5.86959
21
-4.95321
0
LINE
8
BLACK
6
CONTINUOUS
10
5.86959
20
-4.95321
11
5.86977
21
-4.9522
0
LINE
8
BLACK
6
CONTINUOUS
10
5.86977
20
-4.9522
11
5.86988
21
-4.95206
0
LINE
8
BLACK
6
CONTINUOUS
10
5.86988
20
-4.95206
11
5.8699
21
-4.95189
0
LINE
8
BLACK
6
CONTINUOUS
10
5.8699
20
-4.95189
11
5.87177
21
-4.94814
0
LINE
8
BLACK
6
CONTINUOUS
10
5.87177
20
-4.94814
11
5.8723
21
-4.94743
0
LINE
8
BLACK
6
CONTINUOUS
10
5.8723
20
-4.94743
11
5.87233
21
-4.94737
0
LINE
8
BLACK
6
CONTINUOUS
10
5.87233
20
-4.94737
11
5.8742
21
-4.9455
0
LINE
8
BLACK
6
CONTINUOUS
10
5.8742
20
-4.9455
11
5.87493
21
-4.94499
0
LINE
8
BLACK
6
CONTINUOUS
10
5.87493
20
-4.94499
11
5.87497
21
-4.94494
0
LINE
8
BLACK
6
CONTINUOUS
10
5.87497
20
-4.94494
11
5.87872
21
-4.94307
0
LINE
8
BLACK
6
CONTINUOUS
10
5.87872
20
-4.94307
11
5.8797
21
-4.94278
0
LINE
8
BLACK
6
CONTINUOUS
10
5.8797
20
-4.94278
11
5.87987
21
-4.94282
0
LINE
8
BLACK
6
CONTINUOUS
10
5.87987
20
-4.94282
11
5.88004
21
-4.94276
0
LINE
8
BLACK
6
CONTINUOUS
10
5.88004
20
-4.94276
11
5.88941
21
-4.94276
0
LINE
8
BLACK
6
CONTINUOUS
10
5.88941
20
-4.94276
11
5.89042
21
-4.94294
0
LINE
8
BLACK
6
CONTINUOUS
10
5.88074
20
-4.94866
11
5.87804
21
-4.95001
0
LINE
8
BLACK
6
CONTINUOUS
10
5.87804
20
-4.95001
11
5.87684
21
-4.95121
0
LINE
8
BLACK
6
CONTINUOUS
10
5.87684
20
-4.95121
11
5.87549
21
-4.95391
0
LINE
8
BLACK
6
CONTINUOUS
10
5.87549
20
-4.95391
11
5.87549
21
-4.96001
0
LINE
8
BLACK
6
CONTINUOUS
10
5.87549
20
-4.96001
11
5.87684
21
-4.96271
0
LINE
8
BLACK
6
CONTINUOUS
10
5.87684
20
-4.96271
11
5.87804
21
-4.96391
0
LINE
8
BLACK
6
CONTINUOUS
10
5.87804
20
-4.96391
11
5.88074
21
-4.96525
0
LINE
8
BLACK
6
CONTINUOUS
10
5.88074
20
-4.96525
11
5.88872
21
-4.96525
0
LINE
8
BLACK
6
CONTINUOUS
10
5.88872
20
-4.96525
11
5.89141
21
-4.96391
0
LINE
8
BLACK
6
CONTINUOUS
10
5.89141
20
-4.96391
11
5.89261
21
-4.96271
0
LINE
8
BLACK
6
CONTINUOUS
10
5.89261
20
-4.96271
11
5.89396
21
-4.96001
0
LINE
8
BLACK
6
CONTINUOUS
10
5.89396
20
-4.96001
11
5.89396
21
-4.95391
0
LINE
8
BLACK
6
CONTINUOUS
10
5.89396
20
-4.95391
11
5.89261
21
-4.95121
0
LINE
8
BLACK
6
CONTINUOUS
10
5.89261
20
-4.95121
11
5.89141
21
-4.95001
0
LINE
8
BLACK
6
CONTINUOUS
10
5.89141
20
-4.95001
11
5.88872
21
-4.94866
0
LINE
8
BLACK
6
CONTINUOUS
10
5.88872
20
-4.94866
11
5.88074
21
-4.94866
0
LINE
8
BLACK
6
CONTINUOUS
10
3.69755
20
-4.92459
11
3.69866
21
-4.92628
0
LINE
8
BLACK
6
CONTINUOUS
10
3.69866
20
-4.92628
11
3.69843
21
-4.92828
0
LINE
8
BLACK
6
CONTINUOUS
10
3.69843
20
-4.92828
11
3.69656
21
-4.93203
0
LINE
8
BLACK
6
CONTINUOUS
10
3.69656
20
-4.93203
11
3.69603
21
-4.93274
0
LINE
8
BLACK
6
CONTINUOUS
10
3.69603
20
-4.93274
11
3.696
21
-4.9328
0
LINE
8
BLACK
6
CONTINUOUS
10
3.696
20
-4.9328
11
3.69355
21
-4.93526
0
LINE
8
BLACK
6
CONTINUOUS
10
3.69355
20
-4.93526
11
3.72096
21
-4.93526
0
LINE
8
BLACK
6
CONTINUOUS
10
3.72096
20
-4.93526
11
3.72096
21
-4.92696
0
LINE
8
BLACK
6
CONTINUOUS
10
3.72096
20
-4.92696
11
3.72114
21
-4.92595
0
LINE
8
BLACK
6
CONTINUOUS
10
3.72114
20
-4.92595
11
3.72244
21
-4.92441
0
LINE
8
BLACK
6
CONTINUOUS
10
3.72244
20
-4.92441
11
3.72443
21
-4.92405
0
LINE
8
BLACK
6
CONTINUOUS
10
3.72443
20
-4.92405
11
3.72617
21
-4.92506
0
LINE
8
BLACK
6
CONTINUOUS
10
3.72617
20
-4.92506
11
3.72687
21
-4.92696
0
LINE
8
BLACK
6
CONTINUOUS
10
3.72687
20
-4.92696
11
3.72687
21
-4.94946
0
LINE
8
BLACK
6
CONTINUOUS
10
3.72687
20
-4.94946
11
3.72669
21
-4.95047
0
LINE
8
BLACK
6
CONTINUOUS
10
3.72669
20
-4.95047
11
3.72539
21
-4.95202
0
LINE
8
BLACK
6
CONTINUOUS
10
3.72539
20
-4.95202
11
3.7234
21
-4.95237
0
LINE
8
BLACK
6
CONTINUOUS
10
3.7234
20
-4.95237
11
3.72165
21
-4.95136
0
LINE
8
BLACK
6
CONTINUOUS
10
3.72165
20
-4.95136
11
3.72096
21
-4.94946
0
LINE
8
BLACK
6
CONTINUOUS
10
3.72096
20
-4.94946
11
3.72096
21
-4.94116
0
LINE
8
BLACK
6
CONTINUOUS
10
3.72096
20
-4.94116
11
3.68454
21
-4.94116
0
LINE
8
BLACK
6
CONTINUOUS
10
3.68454
20
-4.94116
11
3.68353
21
-4.94099
0
LINE
8
BLACK
6
CONTINUOUS
10
3.68353
20
-4.94099
11
3.6834
21
-4.94088
0
LINE
8
BLACK
6
CONTINUOUS
10
3.6834
20
-4.94088
11
3.68323
21
-4.94086
0
LINE
8
BLACK
6
CONTINUOUS
10
3.68323
20
-4.94086
11
3.68264
21
-4.94024
0
LINE
8
BLACK
6
CONTINUOUS
10
3.68264
20
-4.94024
11
3.68199
21
-4.93969
0
LINE
8
BLACK
6
CONTINUOUS
10
3.68199
20
-4.93969
11
3.68196
21
-4.93952
0
LINE
8
BLACK
6
CONTINUOUS
10
3.68196
20
-4.93952
11
3.68184
21
-4.9394
0
LINE
8
BLACK
6
CONTINUOUS
10
3.68184
20
-4.9394
11
3.68178
21
-4.93854
0
LINE
8
BLACK
6
CONTINUOUS
10
3.68178
20
-4.93854
11
3.68163
21
-4.9377
0
LINE
8
BLACK
6
CONTINUOUS
10
3.68163
20
-4.9377
11
3.68172
21
-4.93755
0
LINE
8
BLACK
6
CONTINUOUS
10
3.68172
20
-4.93755
11
3.68171
21
-4.93738
0
LINE
8
BLACK
6
CONTINUOUS
10
3.68171
20
-4.93738
11
3.68222
21
-4.93669
0
LINE
8
BLACK
6
CONTINUOUS
10
3.68222
20
-4.93669
11
3.68264
21
-4.93595
0
LINE
8
BLACK
6
CONTINUOUS
10
3.68264
20
-4.93595
11
3.6828
21
-4.93589
0
LINE
8
BLACK
6
CONTINUOUS
10
3.6828
20
-4.93589
11
3.6829
21
-4.93575
0
LINE
8
BLACK
6
CONTINUOUS
10
3.6829
20
-4.93575
11
3.68829
21
-4.93217
0
LINE
8
BLACK
6
CONTINUOUS
10
3.68829
20
-4.93217
11
3.69149
21
-4.92896
0
LINE
8
BLACK
6
CONTINUOUS
10
3.69149
20
-4.92896
11
3.69315
21
-4.92564
0
LINE
8
BLACK
6
CONTINUOUS
10
3.69315
20
-4.92564
11
3.69376
21
-4.92482
0
LINE
8
BLACK
6
CONTINUOUS
10
3.69376
20
-4.92482
11
3.69561
21
-4.92402
0
LINE
8
BLACK
6
CONTINUOUS
10
3.69561
20
-4.92402
11
3.69755
21
-4.92459
0
LINE
8
BLACK
6
CONTINUOUS
10
5.91417
20
-4.91194
11
5.91486
21
-4.91384
0
LINE
8
BLACK
6
CONTINUOUS
10
5.91486
20
-4.91384
11
5.91486
21
-4.91759
0
LINE
8
BLACK
6
CONTINUOUS
10
5.91486
20
-4.91759
11
5.91471
21
-4.91846
0
LINE
8
BLACK
6
CONTINUOUS
10
5.91471
20
-4.91846
11
5.91471
21
-4.91852
0
LINE
8
BLACK
6
CONTINUOUS
10
5.91471
20
-4.91852
11
5.91284
21
-4.92415
0
LINE
8
BLACK
6
CONTINUOUS
10
5.91284
20
-4.92415
11
5.91235
21
-4.92505
0
LINE
8
BLACK
6
CONTINUOUS
10
5.91235
20
-4.92505
11
5.9122
21
-4.92514
0
LINE
8
BLACK
6
CONTINUOUS
10
5.9122
20
-4.92514
11
5.91212
21
-4.9253
0
LINE
8
BLACK
6
CONTINUOUS
10
5.91212
20
-4.9253
11
5.90837
21
-4.92905
0
LINE
8
BLACK
6
CONTINUOUS
10
5.90837
20
-4.92905
11
5.90753
21
-4.92964
0
LINE
8
BLACK
6
CONTINUOUS
10
5.90753
20
-4.92964
11
5.90736
21
-4.92965
0
LINE
8
BLACK
6
CONTINUOUS
10
5.90736
20
-4.92965
11
5.90722
21
-4.92976
0
LINE
8
BLACK
6
CONTINUOUS
10
5.90722
20
-4.92976
11
5.9016
21
-4.93164
0
LINE
8
BLACK
6
CONTINUOUS
10
5.9016
20
-4.93164
11
5.90072
21
-4.93177
0
LINE
8
BLACK
6
CONTINUOUS
10
5.90072
20
-4.93177
11
5.90066
21
-4.93179
0
LINE
8
BLACK
6
CONTINUOUS
10
5.90066
20
-4.93179
11
5.87254
21
-4.93179
0
LINE
8
BLACK
6
CONTINUOUS
10
5.87254
20
-4.93179
11
5.87153
21
-4.93161
0
LINE
8
BLACK
6
CONTINUOUS
10
5.87153
20
-4.93161
11
5.86998
21
-4.93031
0
LINE
8
BLACK
6
CONTINUOUS
10
5.86998
20
-4.93031
11
5.86963
21
-4.92832
0
LINE
8
BLACK
6
CONTINUOUS
10
5.86963
20
-4.92832
11
5.87064
21
-4.92658
0
LINE
8
BLACK
6
CONTINUOUS
10
5.87064
20
-4.92658
11
5.87254
21
-4.92588
0
LINE
8
BLACK
6
CONTINUOUS
10
5.87254
20
-4.92588
11
5.90018
21
-4.92588
0
LINE
8
BLACK
6
CONTINUOUS
10
5.90018
20
-4.92588
11
5.90469
21
-4.92438
0
LINE
8
BLACK
6
CONTINUOUS
10
5.90469
20
-4.92438
11
5.90746
21
-4.92162
0
LINE
8
BLACK
6
CONTINUOUS
10
5.90746
20
-4.92162
11
5.90896
21
-4.91711
0
LINE
8
BLACK
6
CONTINUOUS
10
5.90896
20
-4.91711
11
5.90896
21
-4.91384
0
LINE
8
BLACK
6
CONTINUOUS
10
5.90896
20
-4.91384
11
5.90914
21
-4.91283
0
LINE
8
BLACK
6
CONTINUOUS
10
5.90914
20
-4.91283
11
5.91043
21
-4.91128
0
LINE
8
BLACK
6
CONTINUOUS
10
5.91043
20
-4.91128
11
5.91242
21
-4.91093
0
LINE
8
BLACK
6
CONTINUOUS
10
5.91242
20
-4.91093
11
5.91417
21
-4.91194
0
LINE
8
BLACK
6
CONTINUOUS
10
3.72617
20
-4.89319
11
3.72687
21
-4.89509
0
LINE
8
BLACK
6
CONTINUOUS
10
3.72687
20
-4.89509
11
3.72687
21
-4.89884
0
LINE
8
BLACK
6
CONTINUOUS
10
3.72687
20
-4.89884
11
3.72671
21
-4.89971
0
LINE
8
BLACK
6
CONTINUOUS
10
3.72671
20
-4.89971
11
3.72671
21
-4.89977
0
LINE
8
BLACK
6
CONTINUOUS
10
3.72671
20
-4.89977
11
3.72484
21
-4.9054
0
LINE
8
BLACK
6
CONTINUOUS
10
3.72484
20
-4.9054
11
3.72435
21
-4.9063
0
LINE
8
BLACK
6
CONTINUOUS
10
3.72435
20
-4.9063
11
3.7242
21
-4.90639
0
LINE
8
BLACK
6
CONTINUOUS
10
3.7242
20
-4.90639
11
3.72413
21
-4.90655
0
LINE
8
BLACK
6
CONTINUOUS
10
3.72413
20
-4.90655
11
3.72038
21
-4.9103
0
LINE
8
BLACK
6
CONTINUOUS
10
3.72038
20
-4.9103
11
3.71954
21
-4.91089
0
LINE
8
BLACK
6
CONTINUOUS
10
3.71954
20
-4.91089
11
3.71936
21
-4.91091
0
LINE
8
BLACK
6
CONTINUOUS
10
3.71936
20
-4.91091
11
3.71922
21
-4.91102
0
LINE
8
BLACK
6
CONTINUOUS
10
3.71922
20
-4.91102
11
3.7136
21
-4.91289
0
LINE
8
BLACK
6
CONTINUOUS
10
3.7136
20
-4.91289
11
3.71272
21
-4.91302
0
LINE
8
BLACK
6
CONTINUOUS
10
3.71272
20
-4.91302
11
3.71266
21
-4.91304
0
LINE
8
BLACK
6
CONTINUOUS
10
3.71266
20
-4.91304
11
3.68454
21
-4.91304
0
LINE
8
BLACK
6
CONTINUOUS
10
3.68454
20
-4.91304
11
3.68353
21
-4.91286
0
LINE
8
BLACK
6
CONTINUOUS
10
3.68353
20
-4.91286
11
3.68199
21
-4.91157
0
LINE
8
BLACK
6
CONTINUOUS
10
3.68199
20
-4.91157
11
3.68163
21
-4.90958
0
LINE
8
BLACK
6
CONTINUOUS
10
3.68163
20
-4.90958
11
3.68264
21
-4.90783
0
LINE
8
BLACK
6
CONTINUOUS
10
3.68264
20
-4.90783
11
3.68454
21
-4.90714
0
LINE
8
BLACK
6
CONTINUOUS
10
3.68454
20
-4.90714
11
3.71218
21
-4.90714
0
LINE
8
BLACK
6
CONTINUOUS
10
3.71218
20
-4.90714
11
3.71669
21
-4.90563
0
LINE
8
BLACK
6
CONTINUOUS
10
3.71669
20
-4.90563
11
3.71946
21
-4.90287
0
LINE
8
BLACK
6
CONTINUOUS
10
3.71946
20
-4.90287
11
3.72096
21
-4.89836
0
LINE
8
BLACK
6
CONTINUOUS
10
3.72096
20
-4.89836
11
3.72096
21
-4.89509
0
LINE
8
BLACK
6
CONTINUOUS
10
3.72096
20
-4.89509
11
3.72114
21
-4.89408
0
LINE
8
BLACK
6
CONTINUOUS
10
3.72114
20
-4.89408
11
3.72244
21
-4.89253
0
LINE
8
BLACK
6
CONTINUOUS
10
3.72244
20
-4.89253
11
3.72443
21
-4.89218
0
LINE
8
BLACK
6
CONTINUOUS
10
3.72443
20
-4.89218
11
3.72617
21
-4.89319
0
LINE
8
BLACK
6
CONTINUOUS
10
5.9875
20
-4.83793
11
5.9882
21
-4.8396
0
LINE
8
BLACK
6
CONTINUOUS
10
5.9882
20
-4.8396
11
5.9875
21
-4.84127
0
LINE
8
BLACK
6
CONTINUOUS
10
5.9875
20
-4.84127
11
5.98583
21
-4.84196
0
LINE
8
BLACK
6
CONTINUOUS
10
5.98583
20
-4.84196
11
5.93583
21
-4.84196
0
LINE
8
BLACK
6
CONTINUOUS
10
5.93583
20
-4.84196
11
5.93583
21
-4.89196
0
LINE
8
BLACK
6
CONTINUOUS
10
5.93583
20
-4.89196
11
5.93514
21
-4.89363
0
LINE
8
BLACK
6
CONTINUOUS
10
5.93514
20
-4.89363
11
5.93347
21
-4.89432
0
LINE
8
BLACK
6
CONTINUOUS
10
5.93347
20
-4.89432
11
5.9318
21
-4.89363
0
LINE
8
BLACK
6
CONTINUOUS
10
5.9318
20
-4.89363
11
5.93111
21
-4.89196
0
LINE
8
BLACK
6
CONTINUOUS
10
5.93111
20
-4.89196
11
5.93111
21
-4.8396
0
LINE
8
BLACK
6
CONTINUOUS
10
5.93111
20
-4.8396
11
5.9318
21
-4.83793
0
LINE
8
BLACK
6
CONTINUOUS
10
5.9318
20
-4.83793
11
5.93347
21
-4.83724
0
LINE
8
BLACK
6
CONTINUOUS
10
5.93347
20
-4.83724
11
5.98583
21
-4.83724
0
LINE
8
BLACK
6
CONTINUOUS
10
5.98583
20
-4.83724
11
5.9875
21
-4.83793
0
LINE
8
BLACK
6
CONTINUOUS
10
3.7995
20
-4.83793
11
3.8002
21
-4.8396
0
LINE
8
BLACK
6
CONTINUOUS
10
3.8002
20
-4.8396
11
3.7995
21
-4.84127
0
LINE
8
BLACK
6
CONTINUOUS
10
3.7995
20
-4.84127
11
3.79783
21
-4.84196
0
LINE
8
BLACK
6
CONTINUOUS
10
3.79783
20
-4.84196
11
3.74783
21
-4.84196
0
LINE
8
BLACK
6
CONTINUOUS
10
3.74783
20
-4.84196
11
3.74783
21
-4.89196
0
LINE
8
BLACK
6
CONTINUOUS
10
3.74783
20
-4.89196
11
3.74714
21
-4.89363
0
LINE
8
BLACK
6
CONTINUOUS
10
3.74714
20
-4.89363
11
3.74547
21
-4.89432
0
LINE
8
BLACK
6
CONTINUOUS
10
3.74547
20
-4.89432
11
3.7438
21
-4.89363
0
LINE
8
BLACK
6
CONTINUOUS
10
3.7438
20
-4.89363
11
3.74311
21
-4.89196
0
LINE
8
BLACK
6
CONTINUOUS
10
3.74311
20
-4.89196
11
3.74311
21
-4.8396
0
LINE
8
BLACK
6
CONTINUOUS
10
3.74311
20
-4.8396
11
3.7438
21
-4.83793
0
LINE
8
BLACK
6
CONTINUOUS
10
3.7438
20
-4.83793
11
3.74547
21
-4.83724
0
LINE
8
BLACK
6
CONTINUOUS
10
3.74547
20
-4.83724
11
3.79783
21
-4.83724
0
LINE
8
BLACK
6
CONTINUOUS
10
3.79783
20
-4.83724
11
3.7995
21
-4.83793
0
LINE
8
BLACK
6
CONTINUOUS
10
4.30857
20
-2.65069
11
4.30787
21
-2.64902
0
LINE
8
BLACK
6
CONTINUOUS
10
4.30787
20
-2.64902
11
4.30857
21
-2.64735
0
LINE
8
BLACK
6
CONTINUOUS
10
4.30857
20
-2.64735
11
4.31024
21
-2.64665
0
LINE
8
BLACK
6
CONTINUOUS
10
4.31024
20
-2.64665
11
4.36024
21
-2.64665
0
LINE
8
BLACK
6
CONTINUOUS
10
4.36024
20
-2.64665
11
4.36024
21
-2.59665
0
LINE
8
BLACK
6
CONTINUOUS
10
4.36024
20
-2.59665
11
4.36093
21
-2.59498
0
LINE
8
BLACK
6
CONTINUOUS
10
4.36093
20
-2.59498
11
4.3626
21
-2.59429
0
LINE
8
BLACK
6
CONTINUOUS
10
4.3626
20
-2.59429
11
4.36427
21
-2.59498
0
LINE
8
BLACK
6
CONTINUOUS
10
4.36427
20
-2.59498
11
4.36496
21
-2.59665
0
LINE
8
BLACK
6
CONTINUOUS
10
4.36496
20
-2.59665
11
4.36496
21
-2.64902
0
LINE
8
BLACK
6
CONTINUOUS
10
4.36496
20
-2.64902
11
4.36427
21
-2.65069
0
LINE
8
BLACK
6
CONTINUOUS
10
4.36427
20
-2.65069
11
4.3626
21
-2.65138
0
LINE
8
BLACK
6
CONTINUOUS
10
4.3626
20
-2.65138
11
4.31024
21
-2.65138
0
LINE
8
BLACK
6
CONTINUOUS
10
4.31024
20
-2.65138
11
4.30857
21
-2.65069
0
LINE
8
BLACK
6
CONTINUOUS
10
4.2626
20
-2.64902
11
4.26191
21
-2.65069
0
LINE
8
BLACK
6
CONTINUOUS
10
4.26191
20
-2.65069
11
4.26024
21
-2.65138
0
LINE
8
BLACK
6
CONTINUOUS
10
4.26024
20
-2.65138
11
3.85787
21
-2.65138
0
LINE
8
BLACK
6
CONTINUOUS
10
3.85787
20
-2.65138
11
3.8562
21
-2.65069
0
LINE
8
BLACK
6
CONTINUOUS
10
3.8562
20
-2.65069
11
3.85551
21
-2.64902
0
LINE
8
BLACK
6
CONTINUOUS
10
3.85551
20
-2.64902
11
3.85551
21
-2.44429
0
LINE
8
BLACK
6
CONTINUOUS
10
3.85551
20
-2.44429
11
3.8562
21
-2.44262
0
LINE
8
BLACK
6
CONTINUOUS
10
3.8562
20
-2.44262
11
3.85787
21
-2.44193
0
LINE
8
BLACK
6
CONTINUOUS
10
3.85787
20
-2.44193
11
4.3626
21
-2.44193
0
LINE
8
BLACK
6
CONTINUOUS
10
4.3626
20
-2.44193
11
4.36427
21
-2.44262
0
LINE
8
BLACK
6
CONTINUOUS
10
4.36427
20
-2.44262
11
4.36496
21
-2.44429
0
LINE
8
BLACK
6
CONTINUOUS
10
4.36496
20
-2.44429
11
4.36496
21
-2.54665
0
LINE
8
BLACK
6
CONTINUOUS
10
4.36496
20
-2.54665
11
4.36427
21
-2.54832
0
LINE
8
BLACK
6
CONTINUOUS
10
4.36427
20
-2.54832
11
4.3626
21
-2.54902
0
LINE
8
BLACK
6
CONTINUOUS
10
4.3626
20
-2.54902
11
4.2626
21
-2.54902
0
LINE
8
BLACK
6
CONTINUOUS
10
4.2626
20
-2.54902
11
4.2626
21
-2.64902
0
LINE
8
BLACK
6
CONTINUOUS
10
3.86024
20
-2.44665
11
3.86024
21
-2.64665
0
LINE
8
BLACK
6
CONTINUOUS
10
3.86024
20
-2.64665
11
4.25787
21
-2.64665
0
LINE
8
BLACK
6
CONTINUOUS
10
4.25787
20
-2.64665
11
4.25787
21
-2.54665
0
LINE
8
BLACK
6
CONTINUOUS
10
4.25787
20
-2.54665
11
4.25857
21
-2.54498
0
LINE
8
BLACK
6
CONTINUOUS
10
4.25857
20
-2.54498
11
4.26024
21
-2.54429
0
LINE
8
BLACK
6
CONTINUOUS
10
4.26024
20
-2.54429
11
4.36024
21
-2.54429
0
LINE
8
BLACK
6
CONTINUOUS
10
4.36024
20
-2.54429
11
4.36024
21
-2.44665
0
LINE
8
BLACK
6
CONTINUOUS
10
4.36024
20
-2.44665
11
3.86024
21
-2.44665
0
LINE
8
BLACK
6
CONTINUOUS
10
4.39342
20
-2.56678
11
4.39453
21
-2.56846
0
LINE
8
BLACK
6
CONTINUOUS
10
4.39453
20
-2.56846
11
4.3943
21
-2.57047
0
LINE
8
BLACK
6
CONTINUOUS
10
4.3943
20
-2.57047
11
4.39242
21
-2.57422
0
LINE
8
BLACK
6
CONTINUOUS
10
4.39242
20
-2.57422
11
4.3919
21
-2.57493
0
LINE
8
BLACK
6
CONTINUOUS
10
4.3919
20
-2.57493
11
4.39187
21
-2.57499
0
LINE
8
BLACK
6
CONTINUOUS
10
4.39187
20
-2.57499
11
4.38941
21
-2.57745
0
LINE
8
BLACK
6
CONTINUOUS
10
4.38941
20
-2.57745
11
4.41683
21
-2.57745
0
LINE
8
BLACK
6
CONTINUOUS
10
4.41683
20
-2.57745
11
4.41683
21
-2.56915
0
LINE
8
BLACK
6
CONTINUOUS
10
4.41683
20
-2.56915
11
4.417
21
-2.56814
0
LINE
8
BLACK
6
CONTINUOUS
10
4.417
20
-2.56814
11
4.4183
21
-2.56659
0
LINE
8
BLACK
6
CONTINUOUS
10
4.4183
20
-2.56659
11
4.42029
21
-2.56624
0
LINE
8
BLACK
6
CONTINUOUS
10
4.42029
20
-2.56624
11
4.42204
21
-2.56725
0
LINE
8
BLACK
6
CONTINUOUS
10
4.42204
20
-2.56725
11
4.42273
21
-2.56915
0
LINE
8
BLACK
6
CONTINUOUS
10
4.42273
20
-2.56915
11
4.42273
21
-2.59165
0
LINE
8
BLACK
6
CONTINUOUS
10
4.42273
20
-2.59165
11
4.42255
21
-2.59266
0
LINE
8
BLACK
6
CONTINUOUS
10
4.42255
20
-2.59266
11
4.42126
21
-2.59421
0
LINE
8
BLACK
6
CONTINUOUS
10
4.42126
20
-2.59421
11
4.41927
21
-2.59456
0
LINE
8
BLACK
6
CONTINUOUS
10
4.41927
20
-2.59456
11
4.41752
21
-2.59355
0
LINE
8
BLACK
6
CONTINUOUS
10
4.41752
20
-2.59355
11
4.41683
21
-2.59165
0
LINE
8
BLACK
6
CONTINUOUS
10
4.41683
20
-2.59165
11
4.41683
21
-2.58335
0
LINE
8
BLACK
6
CONTINUOUS
10
4.41683
20
-2.58335
11
4.38041
21
-2.58335
0
LINE
8
BLACK
6
CONTINUOUS
10
4.38041
20
-2.58335
11
4.3794
21
-2.58317
0
LINE
8
BLACK
6
CONTINUOUS
10
4.3794
20
-2.58317
11
4.37927
21
-2.58306
0
LINE
8
BLACK
6
CONTINUOUS
10
4.37927
20
-2.58306
11
4.3791
21
-2.58305
0
LINE
8
BLACK
6
CONTINUOUS
10
4.3791
20
-2.58305
11
4.37851
21
-2.58243
0
LINE
8
BLACK
6
CONTINUOUS
10
4.37851
20
-2.58243
11
4.37785
21
-2.58188
0
LINE
8
BLACK
6
CONTINUOUS
10
4.37785
20
-2.58188
11
4.37782
21
-2.58171
0
LINE
8
BLACK
6
CONTINUOUS
10
4.37782
20
-2.58171
11
4.3777
21
-2.58159
0
LINE
8
BLACK
6
CONTINUOUS
10
4.3777
20
-2.58159
11
4.37765
21
-2.58073
0
LINE
8
BLACK
6
CONTINUOUS
10
4.37765
20
-2.58073
11
4.3775
21
-2.57989
0
LINE
8
BLACK
6
CONTINUOUS
10
4.3775
20
-2.57989
11
4.37759
21
-2.57974
0
LINE
8
BLACK
6
CONTINUOUS
10
4.37759
20
-2.57974
11
4.37757
21
-2.57957
0
LINE
8
BLACK
6
CONTINUOUS
10
4.37757
20
-2.57957
11
4.37808
21
-2.57888
0
LINE
8
BLACK
6
CONTINUOUS
10
4.37808
20
-2.57888
11
4.37851
21
-2.57814
0
LINE
8
BLACK
6
CONTINUOUS
10
4.37851
20
-2.57814
11
4.37867
21
-2.57808
0
LINE
8
BLACK
6
CONTINUOUS
10
4.37867
20
-2.57808
11
4.37877
21
-2.57794
0
LINE
8
BLACK
6
CONTINUOUS
10
4.37877
20
-2.57794
11
4.38415
21
-2.57436
0
LINE
8
BLACK
6
CONTINUOUS
10
4.38415
20
-2.57436
11
4.38736
21
-2.57115
0
LINE
8
BLACK
6
CONTINUOUS
10
4.38736
20
-2.57115
11
4.38902
21
-2.56783
0
LINE
8
BLACK
6
CONTINUOUS
10
4.38902
20
-2.56783
11
4.38963
21
-2.56701
0
LINE
8
BLACK
6
CONTINUOUS
10
4.38963
20
-2.56701
11
4.39148
21
-2.5662
0
LINE
8
BLACK
6
CONTINUOUS
10
4.39148
20
-2.5662
11
4.39342
21
-2.56678
0
LINE
8
BLACK
6
CONTINUOUS
10
5.70207
20
-2.57785
11
5.70138
21
-2.57618
0
LINE
8
BLACK
6
CONTINUOUS
10
5.70138
20
-2.57618
11
5.70207
21
-2.57451
0
LINE
8
BLACK
6
CONTINUOUS
10
5.70207
20
-2.57451
11
5.70374
21
-2.57382
0
LINE
8
BLACK
6
CONTINUOUS
10
5.70374
20
-2.57382
11
5.75374
21
-2.57382
0
LINE
8
BLACK
6
CONTINUOUS
10
5.75374
20
-2.57382
11
5.75374
21
-2.52382
0
LINE
8
BLACK
6
CONTINUOUS
10
5.75374
20
-2.52382
11
5.75443
21
-2.52215
0
LINE
8
BLACK
6
CONTINUOUS
10
5.75443
20
-2.52215
11
5.7561
21
-2.52146
0
LINE
8
BLACK
6
CONTINUOUS
10
5.7561
20
-2.52146
11
5.75777
21
-2.52215
0
LINE
8
BLACK
6
CONTINUOUS
10
5.75777
20
-2.52215
11
5.75846
21
-2.52382
0
LINE
8
BLACK
6
CONTINUOUS
10
5.75846
20
-2.52382
11
5.75846
21
-2.57618
0
LINE
8
BLACK
6
CONTINUOUS
10
5.75846
20
-2.57618
11
5.75777
21
-2.57785
0
LINE
8
BLACK
6
CONTINUOUS
10
5.75777
20
-2.57785
11
5.7561
21
-2.57854
0
LINE
8
BLACK
6
CONTINUOUS
10
5.7561
20
-2.57854
11
5.70374
21
-2.57854
0
LINE
8
BLACK
6
CONTINUOUS
10
5.70374
20
-2.57854
11
5.70207
21
-2.57785
0
LINE
8
BLACK
6
CONTINUOUS
10
5.6561
20
-2.57618
11
5.65541
21
-2.57785
0
LINE
8
BLACK
6
CONTINUOUS
10
5.65541
20
-2.57785
11
5.65374
21
-2.57854
0
LINE
8
BLACK
6
CONTINUOUS
10
5.65374
20
-2.57854
11
5.15138
21
-2.57854
0
LINE
8
BLACK
6
CONTINUOUS
10
5.15138
20
-2.57854
11
5.14971
21
-2.57785
0
LINE
8
BLACK
6
CONTINUOUS
10
5.14971
20
-2.57785
11
5.14902
21
-2.57618
0
LINE
8
BLACK
6
CONTINUOUS
10
5.14902
20
-2.57618
11
5.14902
21
-2.37146
0
LINE
8
BLACK
6
CONTINUOUS
10
5.14902
20
-2.37146
11
5.14971
21
-2.36979
0
LINE
8
BLACK
6
CONTINUOUS
10
5.14971
20
-2.36979
11
5.15138
21
-2.36909
0
LINE
8
BLACK
6
CONTINUOUS
10
5.15138
20
-2.36909
11
5.7561
21
-2.36909
0
LINE
8
BLACK
6
CONTINUOUS
10
5.7561
20
-2.36909
11
5.75777
21
-2.36979
0
LINE
8
BLACK
6
CONTINUOUS
10
5.75777
20
-2.36979
11
5.75846
21
-2.37146
0
LINE
8
BLACK
6
CONTINUOUS
10
5.75846
20
-2.37146
11
5.75846
21
-2.47382
0
LINE
8
BLACK
6
CONTINUOUS
10
5.75846
20
-2.47382
11
5.75777
21
-2.47549
0
LINE
8
BLACK
6
CONTINUOUS
10
5.75777
20
-2.47549
11
5.7561
21
-2.47618
0
LINE
8
BLACK
6
CONTINUOUS
10
5.7561
20
-2.47618
11
5.6561
21
-2.47618
0
LINE
8
BLACK
6
CONTINUOUS
10
5.6561
20
-2.47618
11
5.6561
21
-2.57618
0
LINE
8
BLACK
6
CONTINUOUS
10
5.15374
20
-2.37382
11
5.15374
21
-2.57382
0
LINE
8
BLACK
6
CONTINUOUS
10
5.15374
20
-2.57382
11
5.65138
21
-2.57382
0
LINE
8
BLACK
6
CONTINUOUS
10
5.65138
20
-2.57382
11
5.65138
21
-2.47382
0
LINE
8
BLACK
6
CONTINUOUS
10
5.65138
20
-2.47382
11
5.65207
21
-2.47215
0
LINE
8
BLACK
6
CONTINUOUS
10
5.65207
20
-2.47215
11
5.65374
21
-2.47146
0
LINE
8
BLACK
6
CONTINUOUS
10
5.65374
20
-2.47146
11
5.75374
21
-2.47146
0
LINE
8
BLACK
6
CONTINUOUS
10
5.75374
20
-2.47146
11
5.75374
21
-2.37382
0
LINE
8
BLACK
6
CONTINUOUS
10
5.75374
20
-2.37382
11
5.15374
21
-2.37382
0
LINE
8
BLACK
6
CONTINUOUS
10
4.39342
20
-2.52928
11
4.39453
21
-2.53097
0
LINE
8
BLACK
6
CONTINUOUS
10
4.39453
20
-2.53097
11
4.3943
21
-2.53298
0
LINE
8
BLACK
6
CONTINUOUS
10
4.3943
20
-2.53298
11
4.39242
21
-2.53673
0
LINE
8
BLACK
6
CONTINUOUS
10
4.39242
20
-2.53673
11
4.3919
21
-2.53743
0
LINE
8
BLACK
6
CONTINUOUS
10
4.3919
20
-2.53743
11
4.39187
21
-2.53749
0
LINE
8
BLACK
6
CONTINUOUS
10
4.39187
20
-2.53749
11
4.38941
21
-2.53995
0
LINE
8
BLACK
6
CONTINUOUS
10
4.38941
20
-2.53995
11
4.41683
21
-2.53995
0
LINE
8
BLACK
6
CONTINUOUS
10
4.41683
20
-2.53995
11
4.41683
21
-2.53166
0
LINE
8
BLACK
6
CONTINUOUS
10
4.41683
20
-2.53166
11
4.417
21
-2.53065
0
LINE
8
BLACK
6
CONTINUOUS
10
4.417
20
-2.53065
11
4.4183
21
-2.5291
0
LINE
8
BLACK
6
CONTINUOUS
10
4.4183
20
-2.5291
11
4.42029
21
-2.52875
0
LINE
8
BLACK
6
CONTINUOUS
10
4.42029
20
-2.52875
11
4.42204
21
-2.52976
0
LINE
8
BLACK
6
CONTINUOUS
10
4.42204
20
-2.52976
11
4.42273
21
-2.53166
0
LINE
8
BLACK
6
CONTINUOUS
10
4.42273
20
-2.53166
11
4.42273
21
-2.55415
0
LINE
8
BLACK
6
CONTINUOUS
10
4.42273
20
-2.55415
11
4.42255
21
-2.55516
0
LINE
8
BLACK
6
CONTINUOUS
10
4.42255
20
-2.55516
11
4.42126
21
-2.55671
0
LINE
8
BLACK
6
CONTINUOUS
10
4.42126
20
-2.55671
11
4.41927
21
-2.55706
0
LINE
8
BLACK
6
CONTINUOUS
10
4.41927
20
-2.55706
11
4.41752
21
-2.55605
0
LINE
8
BLACK
6
CONTINUOUS
10
4.41752
20
-2.55605
11
4.41683
21
-2.55415
0
LINE
8
BLACK
6
CONTINUOUS
10
4.41683
20
-2.55415
11
4.41683
21
-2.54586
0
LINE
8
BLACK
6
CONTINUOUS
10
4.41683
20
-2.54586
11
4.38041
21
-2.54586
0
LINE
8
BLACK
6
CONTINUOUS
10
4.38041
20
-2.54586
11
4.3794
21
-2.54568
0
LINE
8
BLACK
6
CONTINUOUS
10
4.3794
20
-2.54568
11
4.37927
21
-2.54557
0
LINE
8
BLACK
6
CONTINUOUS
10
4.37927
20
-2.54557
11
4.3791
21
-2.54555
0
LINE
8
BLACK
6
CONTINUOUS
10
4.3791
20
-2.54555
11
4.37851
21
-2.54493
0
LINE
8
BLACK
6
CONTINUOUS
10
4.37851
20
-2.54493
11
4.37785
21
-2.54438
0
LINE
8
BLACK
6
CONTINUOUS
10
4.37785
20
-2.54438
11
4.37782
21
-2.54421
0
LINE
8
BLACK
6
CONTINUOUS
10
4.37782
20
-2.54421
11
4.3777
21
-2.54409
0
LINE
8
BLACK
6
CONTINUOUS
10
4.3777
20
-2.54409
11
4.37765
21
-2.54324
0
LINE
8
BLACK
6
CONTINUOUS
10
4.37765
20
-2.54324
11
4.3775
21
-2.54239
0
LINE
8
BLACK
6
CONTINUOUS
10
4.3775
20
-2.54239
11
4.37759
21
-2.54224
0
LINE
8
BLACK
6
CONTINUOUS
10
4.37759
20
-2.54224
11
4.37757
21
-2.54207
0
LINE
8
BLACK
6
CONTINUOUS
10
4.37757
20
-2.54207
11
4.37808
21
-2.54138
0
LINE
8
BLACK
6
CONTINUOUS
10
4.37808
20
-2.54138
11
4.37851
21
-2.54064
0
LINE
8
BLACK
6
CONTINUOUS
10
4.37851
20
-2.54064
11
4.37867
21
-2.54058
0
LINE
8
BLACK
6
CONTINUOUS
10
4.37867
20
-2.54058
11
4.37877
21
-2.54045
0
LINE
8
BLACK
6
CONTINUOUS
10
4.37877
20
-2.54045
11
4.38415
21
-2.53686
0
LINE
8
BLACK
6
CONTINUOUS
10
4.38415
20
-2.53686
11
4.38736
21
-2.53366
0
LINE
8
BLACK
6
CONTINUOUS
10
4.38736
20
-2.53366
11
4.38902
21
-2.53033
0
LINE
8
BLACK
6
CONTINUOUS
10
4.38902
20
-2.53033
11
4.38963
21
-2.52951
0
LINE
8
BLACK
6
CONTINUOUS
10
4.38963
20
-2.52951
11
4.39148
21
-2.52871
0
LINE
8
BLACK
6
CONTINUOUS
10
4.39148
20
-2.52871
11
4.39342
21
-2.52928
0
LINE
8
BLACK
6
CONTINUOUS
10
5.81391
20
-2.4916
11
5.81405
21
-2.49159
0
LINE
8
BLACK
6
CONTINUOUS
10
5.81405
20
-2.49159
11
5.81477
21
-2.4921
0
LINE
8
BLACK
6
CONTINUOUS
10
5.81477
20
-2.4921
11
5.81554
21
-2.49254
0
LINE
8
BLACK
6
CONTINUOUS
10
5.81554
20
-2.49254
11
5.81559
21
-2.49267
0
LINE
8
BLACK
6
CONTINUOUS
10
5.81559
20
-2.49267
11
5.8157
21
-2.49275
0
LINE
8
BLACK
6
CONTINUOUS
10
5.8157
20
-2.49275
11
5.81593
21
-2.49361
0
LINE
8
BLACK
6
CONTINUOUS
10
5.81593
20
-2.49361
11
5.81624
21
-2.49444
0
LINE
8
BLACK
6
CONTINUOUS
10
5.81624
20
-2.49444
11
5.81624
21
-2.51881
0
LINE
8
BLACK
6
CONTINUOUS
10
5.81624
20
-2.51881
11
5.81606
21
-2.51982
0
LINE
8
BLACK
6
CONTINUOUS
10
5.81606
20
-2.51982
11
5.81476
21
-2.52137
0
LINE
8
BLACK
6
CONTINUOUS
10
5.81476
20
-2.52137
11
5.81277
21
-2.52172
0
LINE
8
BLACK
6
CONTINUOUS
10
5.81277
20
-2.52172
11
5.81102
21
-2.52071
0
LINE
8
BLACK
6
CONTINUOUS
10
5.81102
20
-2.52071
11
5.81033
21
-2.51881
0
LINE
8
BLACK
6
CONTINUOUS
10
5.81033
20
-2.51881
11
5.81033
21
-2.50157
0
LINE
8
BLACK
6
CONTINUOUS
10
5.81033
20
-2.50157
11
5.79287
21
-2.51903
0
LINE
8
BLACK
6
CONTINUOUS
10
5.79287
20
-2.51903
11
5.79203
21
-2.51961
0
LINE
8
BLACK
6
CONTINUOUS
10
5.79203
20
-2.51961
11
5.79186
21
-2.51963
0
LINE
8
BLACK
6
CONTINUOUS
10
5.79186
20
-2.51963
11
5.79172
21
-2.51974
0
LINE
8
BLACK
6
CONTINUOUS
10
5.79172
20
-2.51974
11
5.78609
21
-2.52161
0
LINE
8
BLACK
6
CONTINUOUS
10
5.78609
20
-2.52161
11
5.78522
21
-2.52174
0
LINE
8
BLACK
6
CONTINUOUS
10
5.78522
20
-2.52174
11
5.78516
21
-2.52177
0
LINE
8
BLACK
6
CONTINUOUS
10
5.78516
20
-2.52177
11
5.78141
21
-2.52177
0
LINE
8
BLACK
6
CONTINUOUS
10
5.78141
20
-2.52177
11
5.7804
21
-2.52159
0
LINE
8
BLACK
6
CONTINUOUS
10
5.7804
20
-2.52159
11
5.78027
21
-2.52147
0
LINE
8
BLACK
6
CONTINUOUS
10
5.78027
20
-2.52147
11
5.78009
21
-2.52145
0
LINE
8
BLACK
6
CONTINUOUS
10
5.78009
20
-2.52145
11
5.77634
21
-2.51958
0
LINE
8
BLACK
6
CONTINUOUS
10
5.77634
20
-2.51958
11
5.77563
21
-2.51905
0
LINE
8
BLACK
6
CONTINUOUS
10
5.77563
20
-2.51905
11
5.77557
21
-2.51903
0
LINE
8
BLACK
6
CONTINUOUS
10
5.77557
20
-2.51903
11
5.7737
21
-2.51715
0
LINE
8
BLACK
6
CONTINUOUS
10
5.7737
20
-2.51715
11
5.77319
21
-2.51643
0
LINE
8
BLACK
6
CONTINUOUS
10
5.77319
20
-2.51643
11
5.77315
21
-2.51638
0
LINE
8
BLACK
6
CONTINUOUS
10
5.77315
20
-2.51638
11
5.77127
21
-2.51263
0
LINE
8
BLACK
6
CONTINUOUS
10
5.77127
20
-2.51263
11
5.77098
21
-2.51165
0
LINE
8
BLACK
6
CONTINUOUS
10
5.77098
20
-2.51165
11
5.77102
21
-2.51148
0
LINE
8
BLACK
6
CONTINUOUS
10
5.77102
20
-2.51148
11
5.77096
21
-2.51131
0
LINE
8
BLACK
6
CONTINUOUS
10
5.77096
20
-2.51131
11
5.77096
21
-2.50194
0
LINE
8
BLACK
6
CONTINUOUS
10
5.77096
20
-2.50194
11
5.77114
21
-2.50093
0
LINE
8
BLACK
6
CONTINUOUS
10
5.77114
20
-2.50093
11
5.77125
21
-2.5008
0
LINE
8
BLACK
6
CONTINUOUS
10
5.77125
20
-2.5008
11
5.77127
21
-2.50062
0
LINE
8
BLACK
6
CONTINUOUS
10
5.77127
20
-2.50062
11
5.77315
21
-2.49687
0
LINE
8
BLACK
6
CONTINUOUS
10
5.77315
20
-2.49687
11
5.77367
21
-2.49616
0
LINE
8
BLACK
6
CONTINUOUS
10
5.77367
20
-2.49616
11
5.7737
21
-2.4961
0
LINE
8
BLACK
6
CONTINUOUS
10
5.7737
20
-2.4961
11
5.77557
21
-2.49423
0
LINE
8
BLACK
6
CONTINUOUS
10
5.77557
20
-2.49423
11
5.77641
21
-2.49364
0
LINE
8
BLACK
6
CONTINUOUS
10
5.77641
20
-2.49364
11
5.77843
21
-2.49346
0
LINE
8
BLACK
6
CONTINUOUS
10
5.77843
20
-2.49346
11
5.78008
21
-2.49462
0
LINE
8
BLACK
6
CONTINUOUS
10
5.78008
20
-2.49462
11
5.7806
21
-2.49657
0
LINE
8
BLACK
6
CONTINUOUS
10
5.7806
20
-2.49657
11
5.77975
21
-2.4984
0
LINE
8
BLACK
6
CONTINUOUS
10
5.77975
20
-2.4984
11
5.77821
21
-2.49994
0
LINE
8
BLACK
6
CONTINUOUS
10
5.77821
20
-2.49994
11
5.77687
21
-2.50264
0
LINE
8
BLACK
6
CONTINUOUS
10
5.77687
20
-2.50264
11
5.77687
21
-2.51062
0
LINE
8
BLACK
6
CONTINUOUS
10
5.77687
20
-2.51062
11
5.77821
21
-2.51331
0
LINE
8
BLACK
6
CONTINUOUS
10
5.77821
20
-2.51331
11
5.77941
21
-2.51451
0
LINE
8
BLACK
6
CONTINUOUS
10
5.77941
20
-2.51451
11
5.78211
21
-2.51586
0
LINE
8
BLACK
6
CONTINUOUS
10
5.78211
20
-2.51586
11
5.78468
21
-2.51586
0
LINE
8
BLACK
6
CONTINUOUS
10
5.78468
20
-2.51586
11
5.78919
21
-2.51436
0
LINE
8
BLACK
6
CONTINUOUS
10
5.78919
20
-2.51436
11
5.81119
21
-2.49235
0
LINE
8
BLACK
6
CONTINUOUS
10
5.81119
20
-2.49235
11
5.81172
21
-2.49198
0
LINE
8
BLACK
6
CONTINUOUS
10
5.81172
20
-2.49198
11
5.81181
21
-2.49188
0
LINE
8
BLACK
6
CONTINUOUS
10
5.81181
20
-2.49188
11
5.81188
21
-2.49187
0
LINE
8
BLACK
6
CONTINUOUS
10
5.81188
20
-2.49187
11
5.81203
21
-2.49177
0
LINE
8
BLACK
6
CONTINUOUS
10
5.81203
20
-2.49177
11
5.81292
21
-2.49169
0
LINE
8
BLACK
6
CONTINUOUS
10
5.81292
20
-2.49169
11
5.8138
21
-2.49153
0
LINE
8
BLACK
6
CONTINUOUS
10
5.8138
20
-2.49153
11
5.81391
21
-2.4916
0
LINE
8
BLACK
6
CONTINUOUS
10
4.42204
20
-2.49789
11
4.42273
21
-2.49978
0
LINE
8
BLACK
6
CONTINUOUS
10
4.42273
20
-2.49978
11
4.42273
21
-2.50353
0
LINE
8
BLACK
6
CONTINUOUS
10
4.42273
20
-2.50353
11
4.42258
21
-2.5044
0
LINE
8
BLACK
6
CONTINUOUS
10
4.42258
20
-2.5044
11
4.42258
21
-2.50447
0
LINE
8
BLACK
6
CONTINUOUS
10
4.42258
20
-2.50447
11
4.42071
21
-2.51009
0
LINE
8
BLACK
6
CONTINUOUS
10
4.42071
20
-2.51009
11
4.42022
21
-2.51099
0
LINE
8
BLACK
6
CONTINUOUS
10
4.42022
20
-2.51099
11
4.42007
21
-2.51109
0
LINE
8
BLACK
6
CONTINUOUS
10
4.42007
20
-2.51109
11
4.41999
21
-2.51125
0
LINE
8
BLACK
6
CONTINUOUS
10
4.41999
20
-2.51125
11
4.41624
21
-2.515
0
LINE
8
BLACK
6
CONTINUOUS
10
4.41624
20
-2.515
11
4.4154
21
-2.51558
0
LINE
8
BLACK
6
CONTINUOUS
10
4.4154
20
-2.51558
11
4.41523
21
-2.5156
0
LINE
8
BLACK
6
CONTINUOUS
10
4.41523
20
-2.5156
11
4.41509
21
-2.51571
0
LINE
8
BLACK
6
CONTINUOUS
10
4.41509
20
-2.51571
11
4.40946
21
-2.51758
0
LINE
8
BLACK
6
CONTINUOUS
10
4.40946
20
-2.51758
11
4.40859
21
-2.51771
0
LINE
8
BLACK
6
CONTINUOUS
10
4.40859
20
-2.51771
11
4.40853
21
-2.51774
0
LINE
8
BLACK
6
CONTINUOUS
10
4.40853
20
-2.51774
11
4.38041
21
-2.51774
0
LINE
8
BLACK
6
CONTINUOUS
10
4.38041
20
-2.51774
11
4.3794
21
-2.51756
0
LINE
8
BLACK
6
CONTINUOUS
10
4.3794
20
-2.51756
11
4.37785
21
-2.51626
0
LINE
8
BLACK
6
CONTINUOUS
10
4.37785
20
-2.51626
11
4.3775
21
-2.51427
0
LINE
8
BLACK
6
CONTINUOUS
10
4.3775
20
-2.51427
11
4.37851
21
-2.51252
0
LINE
8
BLACK
6
CONTINUOUS
10
4.37851
20
-2.51252
11
4.38041
21
-2.51183
0
LINE
8
BLACK
6
CONTINUOUS
10
4.38041
20
-2.51183
11
4.40805
21
-2.51183
0
LINE
8
BLACK
6
CONTINUOUS
10
4.40805
20
-2.51183
11
4.41256
21
-2.51033
0
LINE
8
BLACK
6
CONTINUOUS
10
4.41256
20
-2.51033
11
4.41532
21
-2.50756
0
LINE
8
BLACK
6
CONTINUOUS
10
4.41532
20
-2.50756
11
4.41683
21
-2.50305
0
LINE
8
BLACK
6
CONTINUOUS
10
4.41683
20
-2.50305
11
4.41683
21
-2.49978
0
LINE
8
BLACK
6
CONTINUOUS
10
4.41683
20
-2.49978
11
4.417
21
-2.49877
0
LINE
8
BLACK
6
CONTINUOUS
10
4.417
20
-2.49877
11
4.4183
21
-2.49723
0
LINE
8
BLACK
6
CONTINUOUS
10
4.4183
20
-2.49723
11
4.42029
21
-2.49688
0
LINE
8
BLACK
6
CONTINUOUS
10
4.42029
20
-2.49688
11
4.42204
21
-2.49789
0
LINE
8
BLACK
6
CONTINUOUS
10
5.78692
20
-2.45645
11
5.78803
21
-2.45813
0
LINE
8
BLACK
6
CONTINUOUS
10
5.78803
20
-2.45813
11
5.7878
21
-2.46014
0
LINE
8
BLACK
6
CONTINUOUS
10
5.7878
20
-2.46014
11
5.78593
21
-2.46389
0
LINE
8
BLACK
6
CONTINUOUS
10
5.78593
20
-2.46389
11
5.7854
21
-2.4646
0
LINE
8
BLACK
6
CONTINUOUS
10
5.7854
20
-2.4646
11
5.78537
21
-2.46466
0
LINE
8
BLACK
6
CONTINUOUS
10
5.78537
20
-2.46466
11
5.78292
21
-2.46712
0
LINE
8
BLACK
6
CONTINUOUS
10
5.78292
20
-2.46712
11
5.81033
21
-2.46712
0
LINE
8
BLACK
6
CONTINUOUS
10
5.81033
20
-2.46712
11
5.81033
21
-2.45882
0
LINE
8
BLACK
6
CONTINUOUS
10
5.81033
20
-2.45882
11
5.81051
21
-2.45781
0
LINE
8
BLACK
6
CONTINUOUS
10
5.81051
20
-2.45781
11
5.81181
21
-2.45626
0
LINE
8
BLACK
6
CONTINUOUS
10
5.81181
20
-2.45626
11
5.8138
21
-2.45591
0
LINE
8
BLACK
6
CONTINUOUS
10
5.8138
20
-2.45591
11
5.81554
21
-2.45692
0
LINE
8
BLACK
6
CONTINUOUS
10
5.81554
20
-2.45692
11
5.81624
21
-2.45882
0
LINE
8
BLACK
6
CONTINUOUS
10
5.81624
20
-2.45882
11
5.81624
21
-2.48132
0
LINE
8
BLACK
6
CONTINUOUS
10
5.81624
20
-2.48132
11
5.81606
21
-2.48233
0
LINE
8
BLACK
6
CONTINUOUS
10
5.81606
20
-2.48233
11
5.81476
21
-2.48388
0
LINE
8
BLACK
6
CONTINUOUS
10
5.81476
20
-2.48388
11
5.81277
21
-2.48423
0
LINE
8
BLACK
6
CONTINUOUS
10
5.81277
20
-2.48423
11
5.81102
21
-2.48322
0
LINE
8
BLACK
6
CONTINUOUS
10
5.81102
20
-2.48322
11
5.81033
21
-2.48132
0
LINE
8
BLACK
6
CONTINUOUS
10
5.81033
20
-2.48132
11
5.81033
21
-2.47302
0
LINE
8
BLACK
6
CONTINUOUS
10
5.81033
20
-2.47302
11
5.77391
21
-2.47302
0
LINE
8
BLACK
6
CONTINUOUS
10
5.77391
20
-2.47302
11
5.7729
21
-2.47284
0
LINE
8
BLACK
6
CONTINUOUS
10
5.7729
20
-2.47284
11
5.77277
21
-2.47273
0
LINE
8
BLACK
6
CONTINUOUS
10
5.77277
20
-2.47273
11
5.7726
21
-2.47272
0
LINE
8
BLACK
6
CONTINUOUS
10
5.7726
20
-2.47272
11
5.77201
21
-2.4721
0
LINE
8
BLACK
6
CONTINUOUS
10
5.77201
20
-2.4721
11
5.77136
21
-2.47155
0
LINE
8
BLACK
6
CONTINUOUS
10
5.77136
20
-2.47155
11
5.77133
21
-2.47138
0
LINE
8
BLACK
6
CONTINUOUS
10
5.77133
20
-2.47138
11
5.77121
21
-2.47126
0
LINE
8
BLACK
6
CONTINUOUS
10
5.77121
20
-2.47126
11
5.77115
21
-2.4704
0
LINE
8
BLACK
6
CONTINUOUS
10
5.77115
20
-2.4704
11
5.771
21
-2.46956
0
LINE
8
BLACK
6
CONTINUOUS
10
5.771
20
-2.46956
11
5.77109
21
-2.46941
0
LINE
8
BLACK
6
CONTINUOUS
10
5.77109
20
-2.46941
11
5.77108
21
-2.46924
0
LINE
8
BLACK
6
CONTINUOUS
10
5.77108
20
-2.46924
11
5.77159
21
-2.46855
0
LINE
8
BLACK
6
CONTINUOUS
10
5.77159
20
-2.46855
11
5.77201
21
-2.46781
0
LINE
8
BLACK
6
CONTINUOUS
10
5.77201
20
-2.46781
11
5.77217
21
-2.46775
0
LINE
8
BLACK
6
CONTINUOUS
10
5.77217
20
-2.46775
11
5.77227
21
-2.46761
0
LINE
8
BLACK
6
CONTINUOUS
10
5.77227
20
-2.46761
11
5.77766
21
-2.46403
0
LINE
8
BLACK
6
CONTINUOUS
10
5.77766
20
-2.46403
11
5.78086
21
-2.46082
0
LINE
8
BLACK
6
CONTINUOUS
10
5.78086
20
-2.46082
11
5.78252
21
-2.4575
0
LINE
8
BLACK
6
CONTINUOUS
10
5.78252
20
-2.4575
11
5.78313
21
-2.45668
0
LINE
8
BLACK
6
CONTINUOUS
10
5.78313
20
-2.45668
11
5.78498
21
-2.45587
0
LINE
8
BLACK
6
CONTINUOUS
10
5.78498
20
-2.45587
11
5.78692
21
-2.45645
0
LINE
8
BLACK
6
CONTINUOUS
10
5.81554
20
-2.42505
11
5.81624
21
-2.42695
0
LINE
8
BLACK
6
CONTINUOUS
10
5.81624
20
-2.42695
11
5.81624
21
-2.4307
0
LINE
8
BLACK
6
CONTINUOUS
10
5.81624
20
-2.4307
11
5.81608
21
-2.43157
0
LINE
8
BLACK
6
CONTINUOUS
10
5.81608
20
-2.43157
11
5.81608
21
-2.43163
0
LINE
8
BLACK
6
CONTINUOUS
10
5.81608
20
-2.43163
11
5.81421
21
-2.43726
0
LINE
8
BLACK
6
CONTINUOUS
10
5.81421
20
-2.43726
11
5.81372
21
-2.43816
0
LINE
8
BLACK
6
CONTINUOUS
10
5.81372
20
-2.43816
11
5.81357
21
-2.43825
0
LINE
8
BLACK
6
CONTINUOUS
10
5.81357
20
-2.43825
11
5.8135
21
-2.43841
0
LINE
8
BLACK
6
CONTINUOUS
10
5.8135
20
-2.43841
11
5.80975
21
-2.44216
0
LINE
8
BLACK
6
CONTINUOUS
10
5.80975
20
-2.44216
11
5.80891
21
-2.44275
0
LINE
8
BLACK
6
CONTINUOUS
10
5.80891
20
-2.44275
11
5.80873
21
-2.44276
0
LINE
8
BLACK
6
CONTINUOUS
10
5.80873
20
-2.44276
11
5.80859
21
-2.44287
0
LINE
8
BLACK
6
CONTINUOUS
10
5.80859
20
-2.44287
11
5.80297
21
-2.44475
0
LINE
8
BLACK
6
CONTINUOUS
10
5.80297
20
-2.44475
11
5.80209
21
-2.44488
0
LINE
8
BLACK
6
CONTINUOUS
10
5.80209
20
-2.44488
11
5.80203
21
-2.4449
0
LINE
8
BLACK
6
CONTINUOUS
10
5.80203
20
-2.4449
11
5.77391
21
-2.4449
0
LINE
8
BLACK
6
CONTINUOUS
10
5.77391
20
-2.4449
11
5.7729
21
-2.44472
0
LINE
8
BLACK
6
CONTINUOUS
10
5.7729
20
-2.44472
11
5.77136
21
-2.44342
0
LINE
8
BLACK
6
CONTINUOUS
10
5.77136
20
-2.44342
11
5.771
21
-2.44144
0
LINE
8
BLACK
6
CONTINUOUS
10
5.771
20
-2.44144
11
5.77201
21
-2.43969
0
LINE
8
BLACK
6
CONTINUOUS
10
5.77201
20
-2.43969
11
5.77391
21
-2.439
0
LINE
8
BLACK
6
CONTINUOUS
10
5.77391
20
-2.439
11
5.80155
21
-2.439
0
LINE
8
BLACK
6
CONTINUOUS
10
5.80155
20
-2.439
11
5.80606
21
-2.43749
0
LINE
8
BLACK
6
CONTINUOUS
10
5.80606
20
-2.43749
11
5.80883
21
-2.43473
0
LINE
8
BLACK
6
CONTINUOUS
10
5.80883
20
-2.43473
11
5.81033
21
-2.43022
0
LINE
8
BLACK
6
CONTINUOUS
10
5.81033
20
-2.43022
11
5.81033
21
-2.42695
0
LINE
8
BLACK
6
CONTINUOUS
10
5.81033
20
-2.42695
11
5.81051
21
-2.42594
0
LINE
8
BLACK
6
CONTINUOUS
10
5.81051
20
-2.42594
11
5.81181
21
-2.42439
0
LINE
8
BLACK
6
CONTINUOUS
10
5.81181
20
-2.42439
11
5.8138
21
-2.42404
0
LINE
8
BLACK
6
CONTINUOUS
10
5.8138
20
-2.42404
11
5.81554
21
-2.42505
  0
ENDSEC
  0
EOF
