%TF.GenerationSoftware,KiCad,Pcbnew,(6.0.10)*%
%TF.CreationDate,2023-02-14T14:37:58+00:00*%
%TF.ProjectId,Coverboard,436f7665-7262-46f6-9172-642e6b696361,rev?*%
%TF.SameCoordinates,Original*%
%TF.FileFunction,Copper,L2,Bot*%
%TF.FilePolarity,Positive*%
%FSLAX46Y46*%
G04 Gerber Fmt 4.6, Leading zero omitted, Abs format (unit mm)*
G04 Created by KiCad (PCBNEW (6.0.10)) date 2023-02-14 14:37:58*
%MOMM*%
%LPD*%
G01*
G04 APERTURE LIST*
%TA.AperFunction,ComponentPad*%
%ADD10C,2.000000*%
%TD*%
G04 APERTURE END LIST*
D10*
%TO.P,H18,1,1*%
%TO.N,unconnected-(H18-Pad1)*%
X110689975Y-132409975D03*
%TD*%
%TO.P,H5,1,1*%
%TO.N,unconnected-(H5-Pad1)*%
X128854323Y-62380000D03*
%TD*%
%TO.P,H45,1,1*%
%TO.N,unconnected-(H45-Pad1)*%
X143660000Y-102590000D03*
%TD*%
%TO.P,H3,1,1*%
%TO.N,unconnected-(H3-Pad1)*%
X84110000Y-103690000D03*
%TD*%
%TO.P,H27,1,1*%
%TO.N,unconnected-(H27-Pad1)*%
X85210000Y-113990000D03*
%TD*%
%TO.P,H9,1,1*%
%TO.N,unconnected-(H9-Pad1)*%
X130240014Y-64110001D03*
%TD*%
%TO.P,H47,1,1*%
%TO.N,unconnected-(H47-Pad1)*%
X88060000Y-113940000D03*
%TD*%
%TO.P,H10,1,1*%
%TO.N,unconnected-(H10-Pad1)*%
X192060000Y-69290000D03*
%TD*%
%TO.P,H46,1,1*%
%TO.N,unconnected-(H46-Pad1)*%
X87460000Y-117690000D03*
%TD*%
%TO.P,H40,1,1*%
%TO.N,unconnected-(H40-Pad1)*%
X130360000Y-128740000D03*
%TD*%
%TO.P,H44,1,1*%
%TO.N,unconnected-(H44-Pad1)*%
X102899987Y-123559999D03*
%TD*%
%TO.P,H39,1,1*%
%TO.N,unconnected-(H39-Pad1)*%
X200160000Y-136140000D03*
%TD*%
%TO.P,H12,1,1*%
%TO.N,unconnected-(H12-Pad1)*%
X114529982Y-62280031D03*
%TD*%
%TO.P,H2,1,1*%
%TO.N,unconnected-(H2-Pad1)*%
X143310000Y-130490000D03*
%TD*%
%TO.P,H26,1,1*%
%TO.N,unconnected-(H26-Pad1)*%
X118360000Y-133390000D03*
%TD*%
%TO.P,H17,1,1*%
%TO.N,unconnected-(H17-Pad1)*%
X87510000Y-103690000D03*
%TD*%
%TO.P,H43,1,1*%
%TO.N,unconnected-(H43-Pad1)*%
X107968652Y-121874320D03*
%TD*%
%TO.P,H6,1,1*%
%TO.N,unconnected-(H6-Pad1)*%
X88060000Y-85940000D03*
%TD*%
%TO.P,H14,1,1*%
%TO.N,unconnected-(H14-Pad1)*%
X88060000Y-99990000D03*
%TD*%
%TO.P,H35,1,1*%
%TO.N,unconnected-(H35-Pad1)*%
X105038598Y-128617851D03*
%TD*%
%TO.P,H8,1,1*%
%TO.N,unconnected-(H8-Pad1)*%
X184910000Y-109790000D03*
%TD*%
%TO.P,H23,1,1*%
%TO.N,unconnected-(H23-Pad1)*%
X124330031Y-61159999D03*
%TD*%
%TO.P,H21,1,1*%
%TO.N,unconnected-(H21-Pad1)*%
X197210000Y-136140000D03*
%TD*%
%TO.P,H15,1,1*%
%TO.N,unconnected-(H15-Pad1)*%
X117610000Y-137240000D03*
%TD*%
%TO.P,H4,1,1*%
%TO.N,unconnected-(H4-Pad1)*%
X85210000Y-71990000D03*
%TD*%
%TO.P,H38,1,1*%
%TO.N,unconnected-(H38-Pad1)*%
X83960000Y-89690000D03*
%TD*%
%TO.P,H33,1,1*%
%TO.N,unconnected-(H33-Pad1)*%
X84110000Y-117690000D03*
%TD*%
%TO.P,H30,1,1*%
%TO.N,unconnected-(H30-Pad1)*%
X85210000Y-99990000D03*
%TD*%
%TO.P,H13,1,1*%
%TO.N,unconnected-(H13-Pad1)*%
X85210000Y-85990000D03*
%TD*%
%TO.P,H42,1,1*%
%TO.N,unconnected-(H42-Pad1)*%
X88060000Y-72040000D03*
%TD*%
%TO.P,H1,1,1*%
%TO.N,unconnected-(H1-Pad1)*%
X116719994Y-62309989D03*
%TD*%
%TO.P,H11,1,1*%
%TO.N,unconnected-(H11-Pad1)*%
X156460000Y-133840000D03*
%TD*%
%TO.P,H32,1,1*%
%TO.N,unconnected-(H32-Pad1)*%
X175660000Y-72990000D03*
%TD*%
%TO.P,H24,1,1*%
%TO.N,unconnected-(H24-Pad1)*%
X84110000Y-75690000D03*
%TD*%
%TO.P,H29,1,1*%
%TO.N,unconnected-(H29-Pad1)*%
X112204970Y-121830019D03*
%TD*%
%TO.P,H41,1,1*%
%TO.N,unconnected-(H41-Pad1)*%
X144360000Y-133790000D03*
%TD*%
%TO.P,H28,1,1*%
%TO.N,unconnected-(H28-Pad1)*%
X133649987Y-63449977D03*
%TD*%
%TO.P,H16,1,1*%
%TO.N,unconnected-(H16-Pad1)*%
X140760000Y-101890000D03*
%TD*%
%TO.P,H19,1,1*%
%TO.N,unconnected-(H19-Pad1)*%
X126430016Y-61870011D03*
%TD*%
%TO.P,H34,1,1*%
%TO.N,unconnected-(H34-Pad1)*%
X131762109Y-62550000D03*
%TD*%
%TO.P,H25,1,1*%
%TO.N,unconnected-(H25-Pad1)*%
X87610000Y-89590000D03*
%TD*%
%TO.P,H31,1,1*%
%TO.N,unconnected-(H31-Pad1)*%
X112169997Y-61350001D03*
%TD*%
%TO.P,H7,1,1*%
%TO.N,unconnected-(H7-Pad1)*%
X118830000Y-61150000D03*
%TD*%
%TO.P,H37,1,1*%
%TO.N,unconnected-(H37-Pad1)*%
X87560000Y-75690000D03*
%TD*%
%TO.P,H36,1,1*%
%TO.N,unconnected-(H36-Pad1)*%
X131310000Y-133840000D03*
%TD*%
%TO.P,H20,1,1*%
%TO.N,unconnected-(H20-Pad1)*%
X107109999Y-134435023D03*
%TD*%
%TO.P,H22,1,1*%
%TO.N,unconnected-(H22-Pad1)*%
X137660000Y-107940000D03*
%TD*%
M02*
