M48
; DRILL file {KiCad (6.0.10)} date Tue Feb 14 14:38:01 2023
; FORMAT={-:-/ absolute / metric / decimal}
; #@! TF.CreationDate,2023-02-14T14:38:01+00:00
; #@! TF.GenerationSoftware,Kicad,Pcbnew,(6.0.10)
; #@! TF.FileFunction,Plated,1,2,PTH
FMAT,2
METRIC
; #@! TA.AperFunction,Plated,PTH,ComponentDrill
T1C1.400
%
G90
G05
T1
X83.96Y-89.69
X84.11Y-75.69
X84.11Y-103.69
X84.11Y-117.69
X85.21Y-71.99
X85.21Y-85.99
X85.21Y-99.99
X85.21Y-113.99
X87.46Y-117.69
X87.51Y-103.69
X87.56Y-75.69
X87.61Y-89.59
X88.06Y-72.04
X88.06Y-85.94
X88.06Y-99.99
X88.06Y-113.94
X102.9Y-123.56
X105.039Y-128.618
X107.11Y-134.435
X107.969Y-121.874
X110.69Y-132.41
X112.17Y-61.35
X112.205Y-121.83
X114.53Y-62.28
X116.72Y-62.31
X117.61Y-137.24
X118.36Y-133.39
X118.83Y-61.15
X124.33Y-61.16
X126.43Y-61.87
X128.854Y-62.38
X130.24Y-64.11
X130.36Y-128.74
X131.31Y-133.84
X131.762Y-62.55
X133.65Y-63.45
X137.66Y-107.94
X140.76Y-101.89
X143.31Y-130.49
X143.66Y-102.59
X144.36Y-133.79
X156.46Y-133.84
X175.66Y-72.99
X184.91Y-109.79
X192.06Y-69.29
X197.21Y-136.14
X200.16Y-136.14
T0
M30
