M48
; DRILL file {KiCad (6.0.10)} date Fri Jan  6 10:03:55 2023
; FORMAT={-:-/ absolute / inch / decimal}
; #@! TF.CreationDate,2023-01-06T10:03:55+00:00
; #@! TF.GenerationSoftware,Kicad,Pcbnew,(6.0.10)
; #@! TF.FileFunction,Plated,1,2,PTH
FMAT,2
INCH
; #@! TA.AperFunction,Plated,PTH,ViaDrill
T1C0.0157
; #@! TA.AperFunction,Plated,PTH,ComponentDrill
T2C0.0300
; #@! TA.AperFunction,Plated,PTH,ComponentDrill
T3C0.0394
; #@! TA.AperFunction,Plated,PTH,ComponentDrill
T4C0.1260
%
G90
G05
T1
X5.435Y-4.9094
X5.902Y-4.911
X6.356Y-4.4948
X6.4256Y-4.9728
X6.4433Y-4.0063
X6.4437Y-4.4988
X6.5583Y-3.8898
T2
X4.1228Y-2.4236
X4.1228Y-2.7136
X4.1228Y-3.0035
X4.1228Y-3.2934
X4.1228Y-3.5834
X4.1228Y-3.8733
X4.1228Y-4.1632
X4.1228Y-4.4531
X4.2016Y-2.4236
X4.2016Y-2.7136
X4.2016Y-3.0035
X4.2016Y-3.2934
X4.2016Y-3.5834
X4.2016Y-3.8733
X4.2016Y-4.1632
X4.2016Y-4.4531
X4.2803Y-2.4236
X4.2803Y-2.7136
X4.2803Y-3.0035
X4.2803Y-3.2934
X4.2803Y-3.5834
X4.2803Y-3.8733
X4.2803Y-4.1632
X4.2803Y-4.4531
T3
X3.7335Y-3.2165
X3.7394Y-2.6654
X3.7394Y-3.7677
X3.7394Y-4.3189
X3.7827Y-2.5197
X3.7827Y-3.0709
X3.7827Y-3.622
X3.7827Y-4.1732
X3.8713Y-4.3189
X3.8732Y-3.7677
X3.8752Y-2.6654
X3.8772Y-3.2126
X3.8949Y-2.5177
X3.8949Y-3.0689
X3.8949Y-3.622
X3.8949Y-4.1713
X4.4791Y-4.55
X4.5633Y-4.7491
X4.6449Y-4.9742
X4.6787Y-4.4836
X4.7858Y-4.8984
X4.839Y-2.2732
X4.839Y-2.3732
X4.8441Y-2.0969
X4.8455Y-4.4819
X4.937Y-2.1374
X4.939Y-2.2732
X4.939Y-2.3732
X4.952Y-4.6689
X4.952Y-4.7689
X5.0232Y-2.1386
X5.039Y-2.2732
X5.039Y-2.3732
X5.052Y-4.6689
X5.052Y-4.7689
X5.0583Y-5.0886
X5.0878Y-4.937
X5.106Y-2.0921
X5.139Y-2.2732
X5.139Y-2.3732
X5.152Y-4.6689
X5.152Y-4.7689
X5.239Y-2.2732
X5.239Y-2.3732
X5.252Y-4.6689
X5.252Y-4.7689
X5.3228Y-2.0894
X5.339Y-2.2732
X5.339Y-2.3732
X5.352Y-4.6689
X5.352Y-4.7689
X5.4055Y-2.1173
X5.5009Y-2.1374
X5.5555Y-2.2055
X5.5602Y-4.7539
X5.5976Y-4.9547
X5.6154Y-2.1441
X5.6898Y-2.1795
X5.8476Y-3.9311
X5.9697Y-3.6969
X6.0701Y-4.8228
X6.0838Y-3.7244
X6.1114Y-4.9528
X6.2449Y-4.7417
X6.2449Y-4.8417
X6.3449Y-4.7417
X6.3449Y-4.8417
X6.4449Y-4.7417
X6.4449Y-4.8417
X6.5449Y-4.7417
X6.5449Y-4.8417
X6.5878Y-4.9547
X6.6449Y-4.7417
X6.6449Y-4.8417
X6.7449Y-4.7417
X6.7449Y-4.8417
X7.0272Y-2.2732
X7.0272Y-2.3732
X7.1272Y-2.2732
X7.1272Y-2.3732
X7.2272Y-2.2732
X7.2272Y-2.3732
X7.3272Y-2.2732
X7.3272Y-2.3732
X7.3437Y-2.5551
X7.4272Y-2.2732
X7.4272Y-2.3732
X7.4339Y-4.9476
X7.5272Y-2.2732
X7.5272Y-2.3732
X7.7079Y-4.0079
X7.9894Y-2.4134
X8.1921Y-5.0453
X8.3083Y-5.0453
T4
X3.8579Y-1.9996
X3.8579Y-4.7571
X8.5838Y-4.3654
X8.5846Y-2.3953
T0
M30
