%TF.GenerationSoftware,KiCad,Pcbnew,(6.0.10)*%
%TF.CreationDate,2023-02-14T14:41:43+00:00*%
%TF.ProjectId,Bed_of_nails,4265645f-6f66-45f6-9e61-696c732e6b69,AC*%
%TF.SameCoordinates,Original*%
%TF.FileFunction,Legend,Bot*%
%TF.FilePolarity,Positive*%
%FSLAX46Y46*%
G04 Gerber Fmt 4.6, Leading zero omitted, Abs format (unit mm)*
G04 Created by KiCad (PCBNEW (6.0.10)) date 2023-02-14 14:41:43*
%MOMM*%
%LPD*%
G01*
G04 APERTURE LIST*
%ADD10C,0.150000*%
%ADD11C,0.120000*%
G04 APERTURE END LIST*
D10*
%TO.C,J12*%
X107529523Y-88159520D02*
X107529523Y-88873806D01*
X107577142Y-89016663D01*
X107672380Y-89111901D01*
X107815238Y-89159520D01*
X107910476Y-89159520D01*
X106529523Y-89159520D02*
X107100952Y-89159520D01*
X106815238Y-89159520D02*
X106815238Y-88159520D01*
X106910476Y-88302378D01*
X107005714Y-88397616D01*
X107100952Y-88445235D01*
X106148571Y-88254759D02*
X106100952Y-88207140D01*
X106005714Y-88159520D01*
X105767619Y-88159520D01*
X105672380Y-88207140D01*
X105624761Y-88254759D01*
X105577142Y-88349997D01*
X105577142Y-88445235D01*
X105624761Y-88588092D01*
X106196190Y-89159520D01*
X105577142Y-89159520D01*
%TO.C,U1*%
X175082380Y-67838095D02*
X175891904Y-67838095D01*
X175987142Y-67885714D01*
X176034761Y-67933333D01*
X176082380Y-68028571D01*
X176082380Y-68219047D01*
X176034761Y-68314285D01*
X175987142Y-68361904D01*
X175891904Y-68409523D01*
X175082380Y-68409523D01*
X176082380Y-69409523D02*
X176082380Y-68838095D01*
X176082380Y-69123809D02*
X175082380Y-69123809D01*
X175225238Y-69028571D01*
X175320476Y-68933333D01*
X175368095Y-68838095D01*
%TO.C,J7*%
X107073333Y-85125235D02*
X107073333Y-85839521D01*
X107120952Y-85982378D01*
X107216190Y-86077616D01*
X107359047Y-86125235D01*
X107454285Y-86125235D01*
X106692380Y-85125235D02*
X106025714Y-85125235D01*
X106454285Y-86125235D01*
%TO.C,J8*%
X107043333Y-99663805D02*
X107043333Y-100378091D01*
X107090952Y-100520948D01*
X107186190Y-100616186D01*
X107329047Y-100663805D01*
X107424285Y-100663805D01*
X106424285Y-100092377D02*
X106519523Y-100044758D01*
X106567142Y-99997139D01*
X106614761Y-99901901D01*
X106614761Y-99854282D01*
X106567142Y-99759044D01*
X106519523Y-99711425D01*
X106424285Y-99663805D01*
X106233809Y-99663805D01*
X106138571Y-99711425D01*
X106090952Y-99759044D01*
X106043333Y-99854282D01*
X106043333Y-99901901D01*
X106090952Y-99997139D01*
X106138571Y-100044758D01*
X106233809Y-100092377D01*
X106424285Y-100092377D01*
X106519523Y-100139996D01*
X106567142Y-100187615D01*
X106614761Y-100282853D01*
X106614761Y-100473329D01*
X106567142Y-100568567D01*
X106519523Y-100616186D01*
X106424285Y-100663805D01*
X106233809Y-100663805D01*
X106138571Y-100616186D01*
X106090952Y-100568567D01*
X106043333Y-100473329D01*
X106043333Y-100282853D01*
X106090952Y-100187615D01*
X106138571Y-100139996D01*
X106233809Y-100092377D01*
%TO.C,J5*%
X151842380Y-58446666D02*
X152556666Y-58446666D01*
X152699523Y-58399047D01*
X152794761Y-58303809D01*
X152842380Y-58160952D01*
X152842380Y-58065714D01*
X151842380Y-59399047D02*
X151842380Y-58922857D01*
X152318571Y-58875238D01*
X152270952Y-58922857D01*
X152223333Y-59018095D01*
X152223333Y-59256190D01*
X152270952Y-59351428D01*
X152318571Y-59399047D01*
X152413809Y-59446666D01*
X152651904Y-59446666D01*
X152747142Y-59399047D01*
X152794761Y-59351428D01*
X152842380Y-59256190D01*
X152842380Y-59018095D01*
X152794761Y-58922857D01*
X152747142Y-58875238D01*
%TO.C,J13*%
X107529523Y-107038090D02*
X107529523Y-107752376D01*
X107577142Y-107895233D01*
X107672380Y-107990471D01*
X107815238Y-108038090D01*
X107910476Y-108038090D01*
X106529523Y-108038090D02*
X107100952Y-108038090D01*
X106815238Y-108038090D02*
X106815238Y-107038090D01*
X106910476Y-107180948D01*
X107005714Y-107276186D01*
X107100952Y-107323805D01*
X106196190Y-107038090D02*
X105577142Y-107038090D01*
X105910476Y-107419043D01*
X105767619Y-107419043D01*
X105672380Y-107466662D01*
X105624761Y-107514281D01*
X105577142Y-107609519D01*
X105577142Y-107847614D01*
X105624761Y-107942852D01*
X105672380Y-107990471D01*
X105767619Y-108038090D01*
X106053333Y-108038090D01*
X106148571Y-107990471D01*
X106196190Y-107942852D01*
%TO.C,J11*%
X107529523Y-77710950D02*
X107529523Y-78425236D01*
X107577142Y-78568093D01*
X107672380Y-78663331D01*
X107815238Y-78710950D01*
X107910476Y-78710950D01*
X106529523Y-78710950D02*
X107100952Y-78710950D01*
X106815238Y-78710950D02*
X106815238Y-77710950D01*
X106910476Y-77853808D01*
X107005714Y-77949046D01*
X107100952Y-77996665D01*
X105577142Y-78710950D02*
X106148571Y-78710950D01*
X105862857Y-78710950D02*
X105862857Y-77710950D01*
X105958095Y-77853808D01*
X106053333Y-77949046D01*
X106148571Y-77996665D01*
%TO.C,J10*%
X107519523Y-62962380D02*
X107519523Y-63676666D01*
X107567142Y-63819523D01*
X107662380Y-63914761D01*
X107805238Y-63962380D01*
X107900476Y-63962380D01*
X106519523Y-63962380D02*
X107090952Y-63962380D01*
X106805238Y-63962380D02*
X106805238Y-62962380D01*
X106900476Y-63105238D01*
X106995714Y-63200476D01*
X107090952Y-63248095D01*
X105900476Y-62962380D02*
X105805238Y-62962380D01*
X105710000Y-63010000D01*
X105662380Y-63057619D01*
X105614761Y-63152857D01*
X105567142Y-63343333D01*
X105567142Y-63581428D01*
X105614761Y-63771904D01*
X105662380Y-63867142D01*
X105710000Y-63914761D01*
X105805238Y-63962380D01*
X105900476Y-63962380D01*
X105995714Y-63914761D01*
X106043333Y-63867142D01*
X106090952Y-63771904D01*
X106138571Y-63581428D01*
X106138571Y-63343333D01*
X106090952Y-63152857D01*
X106043333Y-63057619D01*
X105995714Y-63010000D01*
X105900476Y-62962380D01*
%TO.C,J9*%
X106993333Y-114602380D02*
X106993333Y-115316666D01*
X107040952Y-115459523D01*
X107136190Y-115554761D01*
X107279047Y-115602380D01*
X107374285Y-115602380D01*
X106469523Y-115602380D02*
X106279047Y-115602380D01*
X106183809Y-115554761D01*
X106136190Y-115507142D01*
X106040952Y-115364285D01*
X105993333Y-115173809D01*
X105993333Y-114792857D01*
X106040952Y-114697619D01*
X106088571Y-114650000D01*
X106183809Y-114602380D01*
X106374285Y-114602380D01*
X106469523Y-114650000D01*
X106517142Y-114697619D01*
X106564761Y-114792857D01*
X106564761Y-115030952D01*
X106517142Y-115126190D01*
X106469523Y-115173809D01*
X106374285Y-115221428D01*
X106183809Y-115221428D01*
X106088571Y-115173809D01*
X106040952Y-115126190D01*
X105993333Y-115030952D01*
%TO.C,J6*%
X106763333Y-70326665D02*
X106763333Y-71040951D01*
X106810952Y-71183808D01*
X106906190Y-71279046D01*
X107049047Y-71326665D01*
X107144285Y-71326665D01*
X105858571Y-70326665D02*
X106049047Y-70326665D01*
X106144285Y-70374285D01*
X106191904Y-70421904D01*
X106287142Y-70564761D01*
X106334761Y-70755237D01*
X106334761Y-71136189D01*
X106287142Y-71231427D01*
X106239523Y-71279046D01*
X106144285Y-71326665D01*
X105953809Y-71326665D01*
X105858571Y-71279046D01*
X105810952Y-71231427D01*
X105763333Y-71136189D01*
X105763333Y-70898094D01*
X105810952Y-70802856D01*
X105858571Y-70755237D01*
X105953809Y-70707618D01*
X106144285Y-70707618D01*
X106239523Y-70755237D01*
X106287142Y-70802856D01*
X106334761Y-70898094D01*
D11*
%TO.C,J12*%
X110720000Y-93817140D02*
X102720000Y-93817140D01*
X102720000Y-93817140D02*
X102720000Y-87317140D01*
X102720000Y-87317140D02*
X110720000Y-87317140D01*
X110720000Y-87317140D02*
X110720000Y-93817140D01*
%TO.C,U1*%
X162750000Y-64830000D02*
X173750000Y-64830000D01*
X173750000Y-70930000D02*
X162750000Y-70930000D01*
X162750000Y-70930000D02*
X162750000Y-64830000D01*
X173750000Y-70930000D02*
X173750000Y-64830000D01*
%TO.C,J7*%
X110720000Y-86452855D02*
X102720000Y-86452855D01*
X102720000Y-86452855D02*
X102720000Y-79952855D01*
X102720000Y-79952855D02*
X110720000Y-79952855D01*
X110720000Y-79952855D02*
X110720000Y-86452855D01*
%TO.C,J8*%
X110720000Y-101181425D02*
X102720000Y-101181425D01*
X102720000Y-101181425D02*
X102720000Y-94681425D01*
X102720000Y-94681425D02*
X110720000Y-94681425D01*
X110720000Y-94681425D02*
X110720000Y-101181425D01*
%TO.C,J5*%
X146350000Y-64850000D02*
X157350000Y-64850000D01*
X159350000Y-64850000D02*
X157350000Y-64850000D01*
X157350000Y-70950000D02*
X157550000Y-70950000D01*
X157350000Y-70950000D02*
X146350000Y-70950000D01*
X157550000Y-70950000D02*
X159350000Y-70950000D01*
X157550000Y-70950000D02*
X157350000Y-70950000D01*
X146350000Y-70950000D02*
X146350000Y-64850000D01*
X159350000Y-70950000D02*
X159350000Y-64850000D01*
%TO.C,J13*%
X110720000Y-108545710D02*
X102720000Y-108545710D01*
X102720000Y-108545710D02*
X102720000Y-102045710D01*
X102720000Y-102045710D02*
X110720000Y-102045710D01*
X110720000Y-102045710D02*
X110720000Y-108545710D01*
%TO.C,J11*%
X110720000Y-79088570D02*
X102720000Y-79088570D01*
X102720000Y-79088570D02*
X102720000Y-72588570D01*
X102720000Y-72588570D02*
X110720000Y-72588570D01*
X110720000Y-72588570D02*
X110720000Y-79088570D01*
%TO.C,J10*%
X110720000Y-64360000D02*
X102720000Y-64360000D01*
X102720000Y-64360000D02*
X102720000Y-57860000D01*
X102720000Y-57860000D02*
X110720000Y-57860000D01*
X110720000Y-57860000D02*
X110720000Y-64360000D01*
%TO.C,J9*%
X110720000Y-115910000D02*
X102720000Y-115910000D01*
X102720000Y-115910000D02*
X102720000Y-109410000D01*
X102720000Y-109410000D02*
X110720000Y-109410000D01*
X110720000Y-109410000D02*
X110720000Y-115910000D01*
%TO.C,J6*%
X110720000Y-71724285D02*
X102720000Y-71724285D01*
X102720000Y-71724285D02*
X102720000Y-65224285D01*
X102720000Y-65224285D02*
X110720000Y-65224285D01*
X110720000Y-65224285D02*
X110720000Y-71724285D01*
%TD*%
M02*
