%TF.GenerationSoftware,KiCad,Pcbnew,(6.0.10)*%
%TF.CreationDate,2023-01-06T10:04:02+00:00*%
%TF.ProjectId,Bed_of_nails,4265645f-6f66-45f6-9e61-696c732e6b69,AC*%
%TF.SameCoordinates,Original*%
%TF.FileFunction,Legend,Bot*%
%TF.FilePolarity,Positive*%
%FSLAX46Y46*%
G04 Gerber Fmt 4.6, Leading zero omitted, Abs format (unit mm)*
G04 Created by KiCad (PCBNEW (6.0.10)) date 2023-01-06 10:04:02*
%MOMM*%
%LPD*%
G01*
G04 APERTURE LIST*
%ADD10C,0.250000*%
%ADD11C,0.150000*%
%ADD12C,0.120000*%
G04 APERTURE END LIST*
D10*
X173492619Y-85884761D02*
X173492619Y-83884761D01*
X172825952Y-84551428D02*
X172064047Y-84551428D01*
X172540238Y-85884761D02*
X172540238Y-84170476D01*
X172445000Y-83980000D01*
X172254523Y-83884761D01*
X172064047Y-83884761D01*
X170064047Y-84551428D02*
X169587857Y-85884761D01*
X169111666Y-84551428D02*
X169587857Y-85884761D01*
X169778333Y-86360952D01*
X169873571Y-86456190D01*
X170064047Y-86551428D01*
X168064047Y-85884761D02*
X168254523Y-85789523D01*
X168349762Y-85694285D01*
X168445000Y-85503809D01*
X168445000Y-84932380D01*
X168349762Y-84741904D01*
X168254523Y-84646666D01*
X168064047Y-84551428D01*
X167778333Y-84551428D01*
X167587857Y-84646666D01*
X167492619Y-84741904D01*
X167397381Y-84932380D01*
X167397381Y-85503809D01*
X167492619Y-85694285D01*
X167587857Y-85789523D01*
X167778333Y-85884761D01*
X168064047Y-85884761D01*
X165683095Y-84551428D02*
X165683095Y-85884761D01*
X166540238Y-84551428D02*
X166540238Y-85599047D01*
X166445000Y-85789523D01*
X166254523Y-85884761D01*
X165968809Y-85884761D01*
X165778333Y-85789523D01*
X165683095Y-85694285D01*
X162349762Y-85789523D02*
X162540238Y-85884761D01*
X162921190Y-85884761D01*
X163111666Y-85789523D01*
X163206904Y-85694285D01*
X163302142Y-85503809D01*
X163302142Y-84932380D01*
X163206904Y-84741904D01*
X163111666Y-84646666D01*
X162921190Y-84551428D01*
X162540238Y-84551428D01*
X162349762Y-84646666D01*
X160635476Y-85884761D02*
X160635476Y-84837142D01*
X160730714Y-84646666D01*
X160921190Y-84551428D01*
X161302142Y-84551428D01*
X161492619Y-84646666D01*
X160635476Y-85789523D02*
X160825952Y-85884761D01*
X161302142Y-85884761D01*
X161492619Y-85789523D01*
X161587857Y-85599047D01*
X161587857Y-85408571D01*
X161492619Y-85218095D01*
X161302142Y-85122857D01*
X160825952Y-85122857D01*
X160635476Y-85027619D01*
X159683095Y-84551428D02*
X159683095Y-85884761D01*
X159683095Y-84741904D02*
X159587857Y-84646666D01*
X159397381Y-84551428D01*
X159111666Y-84551428D01*
X158921190Y-84646666D01*
X158825952Y-84837142D01*
X158825952Y-85884761D01*
X156349762Y-85884761D02*
X156349762Y-84551428D01*
X156349762Y-84932380D02*
X156254523Y-84741904D01*
X156159285Y-84646666D01*
X155968809Y-84551428D01*
X155778333Y-84551428D01*
X154349762Y-85789523D02*
X154540238Y-85884761D01*
X154921190Y-85884761D01*
X155111666Y-85789523D01*
X155206904Y-85599047D01*
X155206904Y-84837142D01*
X155111666Y-84646666D01*
X154921190Y-84551428D01*
X154540238Y-84551428D01*
X154349762Y-84646666D01*
X154254523Y-84837142D01*
X154254523Y-85027619D01*
X155206904Y-85218095D01*
X152540238Y-85884761D02*
X152540238Y-84837142D01*
X152635476Y-84646666D01*
X152825952Y-84551428D01*
X153206904Y-84551428D01*
X153397381Y-84646666D01*
X152540238Y-85789523D02*
X152730714Y-85884761D01*
X153206904Y-85884761D01*
X153397381Y-85789523D01*
X153492619Y-85599047D01*
X153492619Y-85408571D01*
X153397381Y-85218095D01*
X153206904Y-85122857D01*
X152730714Y-85122857D01*
X152540238Y-85027619D01*
X150730714Y-85884761D02*
X150730714Y-83884761D01*
X150730714Y-85789523D02*
X150921190Y-85884761D01*
X151302142Y-85884761D01*
X151492619Y-85789523D01*
X151587857Y-85694285D01*
X151683095Y-85503809D01*
X151683095Y-84932380D01*
X151587857Y-84741904D01*
X151492619Y-84646666D01*
X151302142Y-84551428D01*
X150921190Y-84551428D01*
X150730714Y-84646666D01*
X148540238Y-84551428D02*
X147778333Y-84551428D01*
X148254523Y-83884761D02*
X148254523Y-85599047D01*
X148159285Y-85789523D01*
X147968809Y-85884761D01*
X147778333Y-85884761D01*
X147111666Y-85884761D02*
X147111666Y-83884761D01*
X146254523Y-85884761D02*
X146254523Y-84837142D01*
X146349762Y-84646666D01*
X146540238Y-84551428D01*
X146825952Y-84551428D01*
X147016428Y-84646666D01*
X147111666Y-84741904D01*
X145302142Y-85884761D02*
X145302142Y-84551428D01*
X145302142Y-83884761D02*
X145397381Y-83980000D01*
X145302142Y-84075238D01*
X145206904Y-83980000D01*
X145302142Y-83884761D01*
X145302142Y-84075238D01*
X144445000Y-85789523D02*
X144254523Y-85884761D01*
X143873571Y-85884761D01*
X143683095Y-85789523D01*
X143587857Y-85599047D01*
X143587857Y-85503809D01*
X143683095Y-85313333D01*
X143873571Y-85218095D01*
X144159285Y-85218095D01*
X144349762Y-85122857D01*
X144445000Y-84932380D01*
X144445000Y-84837142D01*
X144349762Y-84646666D01*
X144159285Y-84551428D01*
X143873571Y-84551428D01*
X143683095Y-84646666D01*
X142635476Y-85789523D02*
X142635476Y-85884761D01*
X142730714Y-86075238D01*
X142825952Y-86170476D01*
X177159285Y-87771428D02*
X176683095Y-89104761D01*
X176206904Y-87771428D02*
X176683095Y-89104761D01*
X176873571Y-89580952D01*
X176968809Y-89676190D01*
X177159285Y-89771428D01*
X175159285Y-89104761D02*
X175349762Y-89009523D01*
X175445000Y-88914285D01*
X175540238Y-88723809D01*
X175540238Y-88152380D01*
X175445000Y-87961904D01*
X175349762Y-87866666D01*
X175159285Y-87771428D01*
X174873571Y-87771428D01*
X174683095Y-87866666D01*
X174587857Y-87961904D01*
X174492619Y-88152380D01*
X174492619Y-88723809D01*
X174587857Y-88914285D01*
X174683095Y-89009523D01*
X174873571Y-89104761D01*
X175159285Y-89104761D01*
X172778333Y-87771428D02*
X172778333Y-89104761D01*
X173635476Y-87771428D02*
X173635476Y-88819047D01*
X173540238Y-89009523D01*
X173349762Y-89104761D01*
X173064047Y-89104761D01*
X172873571Y-89009523D01*
X172778333Y-88914285D01*
X170587857Y-87104761D02*
X169921190Y-89104761D01*
X169254523Y-87104761D01*
X168206904Y-87104761D02*
X167825952Y-87104761D01*
X167635476Y-87200000D01*
X167445000Y-87390476D01*
X167349762Y-87771428D01*
X167349762Y-88438095D01*
X167445000Y-88819047D01*
X167635476Y-89009523D01*
X167825952Y-89104761D01*
X168206904Y-89104761D01*
X168397381Y-89009523D01*
X168587857Y-88819047D01*
X168683095Y-88438095D01*
X168683095Y-87771428D01*
X168587857Y-87390476D01*
X168397381Y-87200000D01*
X168206904Y-87104761D01*
X166492619Y-89104761D02*
X166492619Y-87104761D01*
X165540238Y-89104761D02*
X165540238Y-87104761D01*
X165064047Y-87104761D01*
X164778333Y-87200000D01*
X164587857Y-87390476D01*
X164492619Y-87580952D01*
X164397381Y-87961904D01*
X164397381Y-88247619D01*
X164492619Y-88628571D01*
X164587857Y-88819047D01*
X164778333Y-89009523D01*
X165064047Y-89104761D01*
X165540238Y-89104761D01*
X163540238Y-88057142D02*
X162873571Y-88057142D01*
X162587857Y-89104761D02*
X163540238Y-89104761D01*
X163540238Y-87104761D01*
X162587857Y-87104761D01*
X161730714Y-89104761D02*
X161730714Y-87104761D01*
X161254523Y-87104761D01*
X160968809Y-87200000D01*
X160778333Y-87390476D01*
X160683095Y-87580952D01*
X160587857Y-87961904D01*
X160587857Y-88247619D01*
X160683095Y-88628571D01*
X160778333Y-88819047D01*
X160968809Y-89009523D01*
X161254523Y-89104761D01*
X161730714Y-89104761D01*
X158397381Y-87771428D02*
X157921190Y-89104761D01*
X157445000Y-87771428D02*
X157921190Y-89104761D01*
X158111666Y-89580952D01*
X158206904Y-89676190D01*
X158397381Y-89771428D01*
X156397381Y-89104761D02*
X156587857Y-89009523D01*
X156683095Y-88914285D01*
X156778333Y-88723809D01*
X156778333Y-88152380D01*
X156683095Y-87961904D01*
X156587857Y-87866666D01*
X156397381Y-87771428D01*
X156111666Y-87771428D01*
X155921190Y-87866666D01*
X155825952Y-87961904D01*
X155730714Y-88152380D01*
X155730714Y-88723809D01*
X155825952Y-88914285D01*
X155921190Y-89009523D01*
X156111666Y-89104761D01*
X156397381Y-89104761D01*
X154016428Y-87771428D02*
X154016428Y-89104761D01*
X154873571Y-87771428D02*
X154873571Y-88819047D01*
X154778333Y-89009523D01*
X154587857Y-89104761D01*
X154302142Y-89104761D01*
X154111666Y-89009523D01*
X154016428Y-88914285D01*
X153064047Y-89104761D02*
X153064047Y-87771428D01*
X153064047Y-88152380D02*
X152968809Y-87961904D01*
X152873571Y-87866666D01*
X152683095Y-87771428D01*
X152492619Y-87771428D01*
X150492619Y-87771428D02*
X150111666Y-89104761D01*
X149730714Y-88152380D01*
X149349762Y-89104761D01*
X148968809Y-87771428D01*
X147349762Y-89104761D02*
X147349762Y-88057142D01*
X147445000Y-87866666D01*
X147635476Y-87771428D01*
X148016428Y-87771428D01*
X148206904Y-87866666D01*
X147349762Y-89009523D02*
X147540238Y-89104761D01*
X148016428Y-89104761D01*
X148206904Y-89009523D01*
X148302142Y-88819047D01*
X148302142Y-88628571D01*
X148206904Y-88438095D01*
X148016428Y-88342857D01*
X147540238Y-88342857D01*
X147349762Y-88247619D01*
X146397381Y-89104761D02*
X146397381Y-87771428D01*
X146397381Y-88152380D02*
X146302142Y-87961904D01*
X146206904Y-87866666D01*
X146016428Y-87771428D01*
X145825952Y-87771428D01*
X145159285Y-89104761D02*
X145159285Y-87771428D01*
X145159285Y-88152380D02*
X145064047Y-87961904D01*
X144968809Y-87866666D01*
X144778333Y-87771428D01*
X144587857Y-87771428D01*
X143159285Y-89009523D02*
X143349762Y-89104761D01*
X143730714Y-89104761D01*
X143921190Y-89009523D01*
X144016428Y-88819047D01*
X144016428Y-88057142D01*
X143921190Y-87866666D01*
X143730714Y-87771428D01*
X143349762Y-87771428D01*
X143159285Y-87866666D01*
X143064047Y-88057142D01*
X143064047Y-88247619D01*
X144016428Y-88438095D01*
X142206904Y-87771428D02*
X142206904Y-89104761D01*
X142206904Y-87961904D02*
X142111666Y-87866666D01*
X141921190Y-87771428D01*
X141635476Y-87771428D01*
X141445000Y-87866666D01*
X141349762Y-88057142D01*
X141349762Y-89104761D01*
X140683095Y-87771428D02*
X139921190Y-87771428D01*
X140397381Y-87104761D02*
X140397381Y-88819047D01*
X140302142Y-89009523D01*
X140111666Y-89104761D01*
X139921190Y-89104761D01*
X139445000Y-87771428D02*
X138968809Y-89104761D01*
X138492619Y-87771428D02*
X138968809Y-89104761D01*
X139159285Y-89580952D01*
X139254523Y-89676190D01*
X139445000Y-89771428D01*
X137730714Y-88914285D02*
X137635476Y-89009523D01*
X137730714Y-89104761D01*
X137825952Y-89009523D01*
X137730714Y-88914285D01*
X137730714Y-89104761D01*
X137730714Y-88342857D02*
X137825952Y-87200000D01*
X137730714Y-87104761D01*
X137635476Y-87200000D01*
X137730714Y-88342857D01*
X137730714Y-87104761D01*
D11*
%TO.C,J12*%
X107529523Y-88159520D02*
X107529523Y-88873806D01*
X107577142Y-89016663D01*
X107672380Y-89111901D01*
X107815238Y-89159520D01*
X107910476Y-89159520D01*
X106529523Y-89159520D02*
X107100952Y-89159520D01*
X106815238Y-89159520D02*
X106815238Y-88159520D01*
X106910476Y-88302378D01*
X107005714Y-88397616D01*
X107100952Y-88445235D01*
X106148571Y-88254759D02*
X106100952Y-88207140D01*
X106005714Y-88159520D01*
X105767619Y-88159520D01*
X105672380Y-88207140D01*
X105624761Y-88254759D01*
X105577142Y-88349997D01*
X105577142Y-88445235D01*
X105624761Y-88588092D01*
X106196190Y-89159520D01*
X105577142Y-89159520D01*
%TO.C,U1*%
X173012380Y-67858095D02*
X173821904Y-67858095D01*
X173917142Y-67905714D01*
X173964761Y-67953333D01*
X174012380Y-68048571D01*
X174012380Y-68239047D01*
X173964761Y-68334285D01*
X173917142Y-68381904D01*
X173821904Y-68429523D01*
X173012380Y-68429523D01*
X174012380Y-69429523D02*
X174012380Y-68858095D01*
X174012380Y-69143809D02*
X173012380Y-69143809D01*
X173155238Y-69048571D01*
X173250476Y-68953333D01*
X173298095Y-68858095D01*
%TO.C,J7*%
X107073333Y-85125235D02*
X107073333Y-85839521D01*
X107120952Y-85982378D01*
X107216190Y-86077616D01*
X107359047Y-86125235D01*
X107454285Y-86125235D01*
X106692380Y-85125235D02*
X106025714Y-85125235D01*
X106454285Y-86125235D01*
%TO.C,J8*%
X107043333Y-99663805D02*
X107043333Y-100378091D01*
X107090952Y-100520948D01*
X107186190Y-100616186D01*
X107329047Y-100663805D01*
X107424285Y-100663805D01*
X106424285Y-100092377D02*
X106519523Y-100044758D01*
X106567142Y-99997139D01*
X106614761Y-99901901D01*
X106614761Y-99854282D01*
X106567142Y-99759044D01*
X106519523Y-99711425D01*
X106424285Y-99663805D01*
X106233809Y-99663805D01*
X106138571Y-99711425D01*
X106090952Y-99759044D01*
X106043333Y-99854282D01*
X106043333Y-99901901D01*
X106090952Y-99997139D01*
X106138571Y-100044758D01*
X106233809Y-100092377D01*
X106424285Y-100092377D01*
X106519523Y-100139996D01*
X106567142Y-100187615D01*
X106614761Y-100282853D01*
X106614761Y-100473329D01*
X106567142Y-100568567D01*
X106519523Y-100616186D01*
X106424285Y-100663805D01*
X106233809Y-100663805D01*
X106138571Y-100616186D01*
X106090952Y-100568567D01*
X106043333Y-100473329D01*
X106043333Y-100282853D01*
X106090952Y-100187615D01*
X106138571Y-100139996D01*
X106233809Y-100092377D01*
%TO.C,J5*%
X151842380Y-58446666D02*
X152556666Y-58446666D01*
X152699523Y-58399047D01*
X152794761Y-58303809D01*
X152842380Y-58160952D01*
X152842380Y-58065714D01*
X151842380Y-59399047D02*
X151842380Y-58922857D01*
X152318571Y-58875238D01*
X152270952Y-58922857D01*
X152223333Y-59018095D01*
X152223333Y-59256190D01*
X152270952Y-59351428D01*
X152318571Y-59399047D01*
X152413809Y-59446666D01*
X152651904Y-59446666D01*
X152747142Y-59399047D01*
X152794761Y-59351428D01*
X152842380Y-59256190D01*
X152842380Y-59018095D01*
X152794761Y-58922857D01*
X152747142Y-58875238D01*
%TO.C,J13*%
X107529523Y-107038090D02*
X107529523Y-107752376D01*
X107577142Y-107895233D01*
X107672380Y-107990471D01*
X107815238Y-108038090D01*
X107910476Y-108038090D01*
X106529523Y-108038090D02*
X107100952Y-108038090D01*
X106815238Y-108038090D02*
X106815238Y-107038090D01*
X106910476Y-107180948D01*
X107005714Y-107276186D01*
X107100952Y-107323805D01*
X106196190Y-107038090D02*
X105577142Y-107038090D01*
X105910476Y-107419043D01*
X105767619Y-107419043D01*
X105672380Y-107466662D01*
X105624761Y-107514281D01*
X105577142Y-107609519D01*
X105577142Y-107847614D01*
X105624761Y-107942852D01*
X105672380Y-107990471D01*
X105767619Y-108038090D01*
X106053333Y-108038090D01*
X106148571Y-107990471D01*
X106196190Y-107942852D01*
%TO.C,J11*%
X107529523Y-77710950D02*
X107529523Y-78425236D01*
X107577142Y-78568093D01*
X107672380Y-78663331D01*
X107815238Y-78710950D01*
X107910476Y-78710950D01*
X106529523Y-78710950D02*
X107100952Y-78710950D01*
X106815238Y-78710950D02*
X106815238Y-77710950D01*
X106910476Y-77853808D01*
X107005714Y-77949046D01*
X107100952Y-77996665D01*
X105577142Y-78710950D02*
X106148571Y-78710950D01*
X105862857Y-78710950D02*
X105862857Y-77710950D01*
X105958095Y-77853808D01*
X106053333Y-77949046D01*
X106148571Y-77996665D01*
%TO.C,J10*%
X107519523Y-62962380D02*
X107519523Y-63676666D01*
X107567142Y-63819523D01*
X107662380Y-63914761D01*
X107805238Y-63962380D01*
X107900476Y-63962380D01*
X106519523Y-63962380D02*
X107090952Y-63962380D01*
X106805238Y-63962380D02*
X106805238Y-62962380D01*
X106900476Y-63105238D01*
X106995714Y-63200476D01*
X107090952Y-63248095D01*
X105900476Y-62962380D02*
X105805238Y-62962380D01*
X105710000Y-63010000D01*
X105662380Y-63057619D01*
X105614761Y-63152857D01*
X105567142Y-63343333D01*
X105567142Y-63581428D01*
X105614761Y-63771904D01*
X105662380Y-63867142D01*
X105710000Y-63914761D01*
X105805238Y-63962380D01*
X105900476Y-63962380D01*
X105995714Y-63914761D01*
X106043333Y-63867142D01*
X106090952Y-63771904D01*
X106138571Y-63581428D01*
X106138571Y-63343333D01*
X106090952Y-63152857D01*
X106043333Y-63057619D01*
X105995714Y-63010000D01*
X105900476Y-62962380D01*
%TO.C,J9*%
X106993333Y-114602380D02*
X106993333Y-115316666D01*
X107040952Y-115459523D01*
X107136190Y-115554761D01*
X107279047Y-115602380D01*
X107374285Y-115602380D01*
X106469523Y-115602380D02*
X106279047Y-115602380D01*
X106183809Y-115554761D01*
X106136190Y-115507142D01*
X106040952Y-115364285D01*
X105993333Y-115173809D01*
X105993333Y-114792857D01*
X106040952Y-114697619D01*
X106088571Y-114650000D01*
X106183809Y-114602380D01*
X106374285Y-114602380D01*
X106469523Y-114650000D01*
X106517142Y-114697619D01*
X106564761Y-114792857D01*
X106564761Y-115030952D01*
X106517142Y-115126190D01*
X106469523Y-115173809D01*
X106374285Y-115221428D01*
X106183809Y-115221428D01*
X106088571Y-115173809D01*
X106040952Y-115126190D01*
X105993333Y-115030952D01*
%TO.C,J6*%
X106763333Y-70326665D02*
X106763333Y-71040951D01*
X106810952Y-71183808D01*
X106906190Y-71279046D01*
X107049047Y-71326665D01*
X107144285Y-71326665D01*
X105858571Y-70326665D02*
X106049047Y-70326665D01*
X106144285Y-70374285D01*
X106191904Y-70421904D01*
X106287142Y-70564761D01*
X106334761Y-70755237D01*
X106334761Y-71136189D01*
X106287142Y-71231427D01*
X106239523Y-71279046D01*
X106144285Y-71326665D01*
X105953809Y-71326665D01*
X105858571Y-71279046D01*
X105810952Y-71231427D01*
X105763333Y-71136189D01*
X105763333Y-70898094D01*
X105810952Y-70802856D01*
X105858571Y-70755237D01*
X105953809Y-70707618D01*
X106144285Y-70707618D01*
X106239523Y-70755237D01*
X106287142Y-70802856D01*
X106334761Y-70898094D01*
D12*
%TO.C,J12*%
X110720000Y-93817140D02*
X102720000Y-93817140D01*
X102720000Y-93817140D02*
X102720000Y-87317140D01*
X102720000Y-87317140D02*
X110720000Y-87317140D01*
X110720000Y-87317140D02*
X110720000Y-93817140D01*
%TO.C,U1*%
X160680000Y-64850000D02*
X171680000Y-64850000D01*
X171680000Y-70950000D02*
X160680000Y-70950000D01*
X160680000Y-70950000D02*
X160680000Y-64850000D01*
X171680000Y-70950000D02*
X171680000Y-64850000D01*
%TO.C,J7*%
X110720000Y-86452855D02*
X102720000Y-86452855D01*
X102720000Y-86452855D02*
X102720000Y-79952855D01*
X102720000Y-79952855D02*
X110720000Y-79952855D01*
X110720000Y-79952855D02*
X110720000Y-86452855D01*
%TO.C,J8*%
X110720000Y-101181425D02*
X102720000Y-101181425D01*
X102720000Y-101181425D02*
X102720000Y-94681425D01*
X102720000Y-94681425D02*
X110720000Y-94681425D01*
X110720000Y-94681425D02*
X110720000Y-101181425D01*
%TO.C,J5*%
X146350000Y-64850000D02*
X157350000Y-64850000D01*
X159350000Y-64850000D02*
X157350000Y-64850000D01*
X157350000Y-70950000D02*
X157550000Y-70950000D01*
X157350000Y-70950000D02*
X146350000Y-70950000D01*
X157550000Y-70950000D02*
X159350000Y-70950000D01*
X157550000Y-70950000D02*
X157350000Y-70950000D01*
X146350000Y-70950000D02*
X146350000Y-64850000D01*
X159350000Y-70950000D02*
X159350000Y-64850000D01*
%TO.C,J13*%
X110720000Y-108545710D02*
X102720000Y-108545710D01*
X102720000Y-108545710D02*
X102720000Y-102045710D01*
X102720000Y-102045710D02*
X110720000Y-102045710D01*
X110720000Y-102045710D02*
X110720000Y-108545710D01*
%TO.C,J11*%
X110720000Y-79088570D02*
X102720000Y-79088570D01*
X102720000Y-79088570D02*
X102720000Y-72588570D01*
X102720000Y-72588570D02*
X110720000Y-72588570D01*
X110720000Y-72588570D02*
X110720000Y-79088570D01*
%TO.C,J10*%
X110720000Y-64360000D02*
X102720000Y-64360000D01*
X102720000Y-64360000D02*
X102720000Y-57860000D01*
X102720000Y-57860000D02*
X110720000Y-57860000D01*
X110720000Y-57860000D02*
X110720000Y-64360000D01*
%TO.C,J9*%
X110720000Y-115910000D02*
X102720000Y-115910000D01*
X102720000Y-115910000D02*
X102720000Y-109410000D01*
X102720000Y-109410000D02*
X110720000Y-109410000D01*
X110720000Y-109410000D02*
X110720000Y-115910000D01*
%TO.C,J6*%
X110720000Y-71724285D02*
X102720000Y-71724285D01*
X102720000Y-71724285D02*
X102720000Y-65224285D01*
X102720000Y-65224285D02*
X110720000Y-65224285D01*
X110720000Y-65224285D02*
X110720000Y-71724285D01*
%TD*%
M02*
