%TF.GenerationSoftware,KiCad,Pcbnew,(6.0.10)*%
%TF.CreationDate,2023-01-06T10:04:02+00:00*%
%TF.ProjectId,Bed_of_nails,4265645f-6f66-45f6-9e61-696c732e6b69,AC*%
%TF.SameCoordinates,Original*%
%TF.FileFunction,Legend,Top*%
%TF.FilePolarity,Positive*%
%FSLAX46Y46*%
G04 Gerber Fmt 4.6, Leading zero omitted, Abs format (unit mm)*
G04 Created by KiCad (PCBNEW (6.0.10)) date 2023-01-06 10:04:02*
%MOMM*%
%LPD*%
G01*
G04 APERTURE LIST*
%ADD10C,0.150000*%
%ADD11C,0.120000*%
G04 APERTURE END LIST*
D10*
X187332857Y-123802380D02*
X187332857Y-122802380D01*
X187570952Y-122802380D01*
X187713809Y-122850000D01*
X187809047Y-122945238D01*
X187856666Y-123040476D01*
X187904285Y-123230952D01*
X187904285Y-123373809D01*
X187856666Y-123564285D01*
X187809047Y-123659523D01*
X187713809Y-123754761D01*
X187570952Y-123802380D01*
X187332857Y-123802380D01*
X188332857Y-123802380D02*
X188332857Y-122802380D01*
X188904285Y-123802380D01*
X188904285Y-122802380D01*
X189380476Y-123802380D02*
X189380476Y-122802380D01*
X189713809Y-123516666D01*
X190047142Y-122802380D01*
X190047142Y-123802380D01*
X106760952Y-132667619D02*
X106808571Y-132620000D01*
X106903809Y-132572380D01*
X107141904Y-132572380D01*
X107237142Y-132620000D01*
X107284761Y-132667619D01*
X107332380Y-132762857D01*
X107332380Y-132858095D01*
X107284761Y-133000952D01*
X106713333Y-133572380D01*
X107332380Y-133572380D01*
X107951428Y-132572380D02*
X108046666Y-132572380D01*
X108141904Y-132620000D01*
X108189523Y-132667619D01*
X108237142Y-132762857D01*
X108284761Y-132953333D01*
X108284761Y-133191428D01*
X108237142Y-133381904D01*
X108189523Y-133477142D01*
X108141904Y-133524761D01*
X108046666Y-133572380D01*
X107951428Y-133572380D01*
X107856190Y-133524761D01*
X107808571Y-133477142D01*
X107760952Y-133381904D01*
X107713333Y-133191428D01*
X107713333Y-132953333D01*
X107760952Y-132762857D01*
X107808571Y-132667619D01*
X107856190Y-132620000D01*
X107951428Y-132572380D01*
X108903809Y-132572380D02*
X108999047Y-132572380D01*
X109094285Y-132620000D01*
X109141904Y-132667619D01*
X109189523Y-132762857D01*
X109237142Y-132953333D01*
X109237142Y-133191428D01*
X109189523Y-133381904D01*
X109141904Y-133477142D01*
X109094285Y-133524761D01*
X108999047Y-133572380D01*
X108903809Y-133572380D01*
X108808571Y-133524761D01*
X108760952Y-133477142D01*
X108713333Y-133381904D01*
X108665714Y-133191428D01*
X108665714Y-132953333D01*
X108713333Y-132762857D01*
X108760952Y-132667619D01*
X108808571Y-132620000D01*
X108903809Y-132572380D01*
X109665714Y-133191428D02*
X110427619Y-133191428D01*
X111094285Y-132572380D02*
X111189523Y-132572380D01*
X111284761Y-132620000D01*
X111332380Y-132667619D01*
X111380000Y-132762857D01*
X111427619Y-132953333D01*
X111427619Y-133191428D01*
X111380000Y-133381904D01*
X111332380Y-133477142D01*
X111284761Y-133524761D01*
X111189523Y-133572380D01*
X111094285Y-133572380D01*
X110999047Y-133524761D01*
X110951428Y-133477142D01*
X110903809Y-133381904D01*
X110856190Y-133191428D01*
X110856190Y-132953333D01*
X110903809Y-132762857D01*
X110951428Y-132667619D01*
X110999047Y-132620000D01*
X111094285Y-132572380D01*
X112046666Y-132572380D02*
X112141904Y-132572380D01*
X112237142Y-132620000D01*
X112284761Y-132667619D01*
X112332380Y-132762857D01*
X112380000Y-132953333D01*
X112380000Y-133191428D01*
X112332380Y-133381904D01*
X112284761Y-133477142D01*
X112237142Y-133524761D01*
X112141904Y-133572380D01*
X112046666Y-133572380D01*
X111951428Y-133524761D01*
X111903809Y-133477142D01*
X111856190Y-133381904D01*
X111808571Y-133191428D01*
X111808571Y-132953333D01*
X111856190Y-132762857D01*
X111903809Y-132667619D01*
X111951428Y-132620000D01*
X112046666Y-132572380D01*
X112856190Y-133572380D02*
X113046666Y-133572380D01*
X113141904Y-133524761D01*
X113189523Y-133477142D01*
X113284761Y-133334285D01*
X113332380Y-133143809D01*
X113332380Y-132762857D01*
X113284761Y-132667619D01*
X113237142Y-132620000D01*
X113141904Y-132572380D01*
X112951428Y-132572380D01*
X112856190Y-132620000D01*
X112808571Y-132667619D01*
X112760952Y-132762857D01*
X112760952Y-133000952D01*
X112808571Y-133096190D01*
X112856190Y-133143809D01*
X112951428Y-133191428D01*
X113141904Y-133191428D01*
X113237142Y-133143809D01*
X113284761Y-133096190D01*
X113332380Y-133000952D01*
X113951428Y-132572380D02*
X114046666Y-132572380D01*
X114141904Y-132620000D01*
X114189523Y-132667619D01*
X114237142Y-132762857D01*
X114284761Y-132953333D01*
X114284761Y-133191428D01*
X114237142Y-133381904D01*
X114189523Y-133477142D01*
X114141904Y-133524761D01*
X114046666Y-133572380D01*
X113951428Y-133572380D01*
X113856190Y-133524761D01*
X113808571Y-133477142D01*
X113760952Y-133381904D01*
X113713333Y-133191428D01*
X113713333Y-132953333D01*
X113760952Y-132762857D01*
X113808571Y-132667619D01*
X113856190Y-132620000D01*
X113951428Y-132572380D01*
X115332380Y-132572380D02*
X115903809Y-132572380D01*
X115618095Y-133572380D02*
X115618095Y-132572380D01*
X116237142Y-133572380D02*
X116237142Y-132572380D01*
X116713333Y-133572380D02*
X116713333Y-132572380D01*
X117094285Y-132572380D01*
X117189523Y-132620000D01*
X117237142Y-132667619D01*
X117284761Y-132762857D01*
X117284761Y-132905714D01*
X117237142Y-133000952D01*
X117189523Y-133048571D01*
X117094285Y-133096190D01*
X116713333Y-133096190D01*
X117903809Y-132572380D02*
X117999047Y-132572380D01*
X118094285Y-132620000D01*
X118141904Y-132667619D01*
X118189523Y-132762857D01*
X118237142Y-132953333D01*
X118237142Y-133191428D01*
X118189523Y-133381904D01*
X118141904Y-133477142D01*
X118094285Y-133524761D01*
X117999047Y-133572380D01*
X117903809Y-133572380D01*
X117808571Y-133524761D01*
X117760952Y-133477142D01*
X117713333Y-133381904D01*
X117665714Y-133191428D01*
X117665714Y-132953333D01*
X117713333Y-132762857D01*
X117760952Y-132667619D01*
X117808571Y-132620000D01*
X117903809Y-132572380D01*
X118618095Y-132667619D02*
X118665714Y-132620000D01*
X118760952Y-132572380D01*
X118999047Y-132572380D01*
X119094285Y-132620000D01*
X119141904Y-132667619D01*
X119189523Y-132762857D01*
X119189523Y-132858095D01*
X119141904Y-133000952D01*
X118570476Y-133572380D01*
X119189523Y-133572380D01*
X120046666Y-132572380D02*
X119856190Y-132572380D01*
X119760952Y-132620000D01*
X119713333Y-132667619D01*
X119618095Y-132810476D01*
X119570476Y-133000952D01*
X119570476Y-133381904D01*
X119618095Y-133477142D01*
X119665714Y-133524761D01*
X119760952Y-133572380D01*
X119951428Y-133572380D01*
X120046666Y-133524761D01*
X120094285Y-133477142D01*
X120141904Y-133381904D01*
X120141904Y-133143809D01*
X120094285Y-133048571D01*
X120046666Y-133000952D01*
X119951428Y-132953333D01*
X119760952Y-132953333D01*
X119665714Y-133000952D01*
X119618095Y-133048571D01*
X119570476Y-133143809D01*
X120522857Y-133286666D02*
X120999047Y-133286666D01*
X120427619Y-133572380D02*
X120760952Y-132572380D01*
X121094285Y-133572380D01*
X121380000Y-133286666D02*
X121856190Y-133286666D01*
X121284761Y-133572380D02*
X121618095Y-132572380D01*
X121951428Y-133572380D01*
X123522857Y-133572380D02*
X123046666Y-133572380D01*
X123046666Y-132572380D01*
X123856190Y-133572380D02*
X123856190Y-132572380D01*
X124237142Y-132572380D01*
X124332380Y-132620000D01*
X124380000Y-132667619D01*
X124427619Y-132762857D01*
X124427619Y-132905714D01*
X124380000Y-133000952D01*
X124332380Y-133048571D01*
X124237142Y-133096190D01*
X123856190Y-133096190D01*
X124856190Y-133572380D02*
X124856190Y-132572380D01*
X125189523Y-133286666D01*
X125522857Y-132572380D01*
X125522857Y-133572380D01*
X126760952Y-133572380D02*
X126760952Y-132572380D01*
X127141904Y-132572380D01*
X127237142Y-132620000D01*
X127284761Y-132667619D01*
X127332380Y-132762857D01*
X127332380Y-132905714D01*
X127284761Y-133000952D01*
X127237142Y-133048571D01*
X127141904Y-133096190D01*
X126760952Y-133096190D01*
X127760952Y-133572380D02*
X127760952Y-132905714D01*
X127760952Y-133096190D02*
X127808571Y-133000952D01*
X127856190Y-132953333D01*
X127951428Y-132905714D01*
X128046666Y-132905714D01*
X128522857Y-133572380D02*
X128427619Y-133524761D01*
X128380000Y-133477142D01*
X128332380Y-133381904D01*
X128332380Y-133096190D01*
X128380000Y-133000952D01*
X128427619Y-132953333D01*
X128522857Y-132905714D01*
X128665714Y-132905714D01*
X128760952Y-132953333D01*
X128808571Y-133000952D01*
X128856190Y-133096190D01*
X128856190Y-133381904D01*
X128808571Y-133477142D01*
X128760952Y-133524761D01*
X128665714Y-133572380D01*
X128522857Y-133572380D01*
X129713333Y-133572380D02*
X129713333Y-132572380D01*
X129713333Y-133524761D02*
X129618095Y-133572380D01*
X129427619Y-133572380D01*
X129332380Y-133524761D01*
X129284761Y-133477142D01*
X129237142Y-133381904D01*
X129237142Y-133096190D01*
X129284761Y-133000952D01*
X129332380Y-132953333D01*
X129427619Y-132905714D01*
X129618095Y-132905714D01*
X129713333Y-132953333D01*
X130618095Y-132905714D02*
X130618095Y-133572380D01*
X130189523Y-132905714D02*
X130189523Y-133429523D01*
X130237142Y-133524761D01*
X130332380Y-133572380D01*
X130475238Y-133572380D01*
X130570476Y-133524761D01*
X130618095Y-133477142D01*
X131522857Y-133524761D02*
X131427619Y-133572380D01*
X131237142Y-133572380D01*
X131141904Y-133524761D01*
X131094285Y-133477142D01*
X131046666Y-133381904D01*
X131046666Y-133096190D01*
X131094285Y-133000952D01*
X131141904Y-132953333D01*
X131237142Y-132905714D01*
X131427619Y-132905714D01*
X131522857Y-132953333D01*
X131808571Y-132905714D02*
X132189523Y-132905714D01*
X131951428Y-132572380D02*
X131951428Y-133429523D01*
X131999047Y-133524761D01*
X132094285Y-133572380D01*
X132189523Y-133572380D01*
X132522857Y-133572380D02*
X132522857Y-132905714D01*
X132522857Y-132572380D02*
X132475238Y-132620000D01*
X132522857Y-132667619D01*
X132570476Y-132620000D01*
X132522857Y-132572380D01*
X132522857Y-132667619D01*
X133141904Y-133572380D02*
X133046666Y-133524761D01*
X132999047Y-133477142D01*
X132951428Y-133381904D01*
X132951428Y-133096190D01*
X132999047Y-133000952D01*
X133046666Y-132953333D01*
X133141904Y-132905714D01*
X133284761Y-132905714D01*
X133380000Y-132953333D01*
X133427619Y-133000952D01*
X133475238Y-133096190D01*
X133475238Y-133381904D01*
X133427619Y-133477142D01*
X133380000Y-133524761D01*
X133284761Y-133572380D01*
X133141904Y-133572380D01*
X133903809Y-132905714D02*
X133903809Y-133572380D01*
X133903809Y-133000952D02*
X133951428Y-132953333D01*
X134046666Y-132905714D01*
X134189523Y-132905714D01*
X134284761Y-132953333D01*
X134332380Y-133048571D01*
X134332380Y-133572380D01*
X135427619Y-132905714D02*
X135808571Y-132905714D01*
X135570476Y-132572380D02*
X135570476Y-133429523D01*
X135618095Y-133524761D01*
X135713333Y-133572380D01*
X135808571Y-133572380D01*
X136522857Y-133524761D02*
X136427619Y-133572380D01*
X136237142Y-133572380D01*
X136141904Y-133524761D01*
X136094285Y-133429523D01*
X136094285Y-133048571D01*
X136141904Y-132953333D01*
X136237142Y-132905714D01*
X136427619Y-132905714D01*
X136522857Y-132953333D01*
X136570476Y-133048571D01*
X136570476Y-133143809D01*
X136094285Y-133239047D01*
X136951428Y-133524761D02*
X137046666Y-133572380D01*
X137237142Y-133572380D01*
X137332380Y-133524761D01*
X137380000Y-133429523D01*
X137380000Y-133381904D01*
X137332380Y-133286666D01*
X137237142Y-133239047D01*
X137094285Y-133239047D01*
X136999047Y-133191428D01*
X136951428Y-133096190D01*
X136951428Y-133048571D01*
X136999047Y-132953333D01*
X137094285Y-132905714D01*
X137237142Y-132905714D01*
X137332380Y-132953333D01*
X137665714Y-132905714D02*
X138046666Y-132905714D01*
X137808571Y-132572380D02*
X137808571Y-133429523D01*
X137856190Y-133524761D01*
X137951428Y-133572380D01*
X138046666Y-133572380D01*
X139141904Y-133191428D02*
X139903809Y-133191428D01*
X141141904Y-133572380D02*
X141141904Y-132572380D01*
X141141904Y-132953333D02*
X141237142Y-132905714D01*
X141427619Y-132905714D01*
X141522857Y-132953333D01*
X141570476Y-133000952D01*
X141618095Y-133096190D01*
X141618095Y-133381904D01*
X141570476Y-133477142D01*
X141522857Y-133524761D01*
X141427619Y-133572380D01*
X141237142Y-133572380D01*
X141141904Y-133524761D01*
X142427619Y-133524761D02*
X142332380Y-133572380D01*
X142141904Y-133572380D01*
X142046666Y-133524761D01*
X141999047Y-133429523D01*
X141999047Y-133048571D01*
X142046666Y-132953333D01*
X142141904Y-132905714D01*
X142332380Y-132905714D01*
X142427619Y-132953333D01*
X142475238Y-133048571D01*
X142475238Y-133143809D01*
X141999047Y-133239047D01*
X143332380Y-133572380D02*
X143332380Y-132572380D01*
X143332380Y-133524761D02*
X143237142Y-133572380D01*
X143046666Y-133572380D01*
X142951428Y-133524761D01*
X142903809Y-133477142D01*
X142856190Y-133381904D01*
X142856190Y-133096190D01*
X142903809Y-133000952D01*
X142951428Y-132953333D01*
X143046666Y-132905714D01*
X143237142Y-132905714D01*
X143332380Y-132953333D01*
X144713333Y-133572380D02*
X144618095Y-133524761D01*
X144570476Y-133477142D01*
X144522857Y-133381904D01*
X144522857Y-133096190D01*
X144570476Y-133000952D01*
X144618095Y-132953333D01*
X144713333Y-132905714D01*
X144856190Y-132905714D01*
X144951428Y-132953333D01*
X144999047Y-133000952D01*
X145046666Y-133096190D01*
X145046666Y-133381904D01*
X144999047Y-133477142D01*
X144951428Y-133524761D01*
X144856190Y-133572380D01*
X144713333Y-133572380D01*
X145332380Y-132905714D02*
X145713333Y-132905714D01*
X145475238Y-133572380D02*
X145475238Y-132715238D01*
X145522857Y-132620000D01*
X145618095Y-132572380D01*
X145713333Y-132572380D01*
X146808571Y-132905714D02*
X146808571Y-133572380D01*
X146808571Y-133000952D02*
X146856190Y-132953333D01*
X146951428Y-132905714D01*
X147094285Y-132905714D01*
X147189523Y-132953333D01*
X147237142Y-133048571D01*
X147237142Y-133572380D01*
X148141904Y-133572380D02*
X148141904Y-133048571D01*
X148094285Y-132953333D01*
X147999047Y-132905714D01*
X147808571Y-132905714D01*
X147713333Y-132953333D01*
X148141904Y-133524761D02*
X148046666Y-133572380D01*
X147808571Y-133572380D01*
X147713333Y-133524761D01*
X147665714Y-133429523D01*
X147665714Y-133334285D01*
X147713333Y-133239047D01*
X147808571Y-133191428D01*
X148046666Y-133191428D01*
X148141904Y-133143809D01*
X148618095Y-133572380D02*
X148618095Y-132905714D01*
X148618095Y-132572380D02*
X148570476Y-132620000D01*
X148618095Y-132667619D01*
X148665714Y-132620000D01*
X148618095Y-132572380D01*
X148618095Y-132667619D01*
X149237142Y-133572380D02*
X149141904Y-133524761D01*
X149094285Y-133429523D01*
X149094285Y-132572380D01*
X149570476Y-133524761D02*
X149665714Y-133572380D01*
X149856190Y-133572380D01*
X149951428Y-133524761D01*
X149999047Y-133429523D01*
X149999047Y-133381904D01*
X149951428Y-133286666D01*
X149856190Y-133239047D01*
X149713333Y-133239047D01*
X149618095Y-133191428D01*
X149570476Y-133096190D01*
X149570476Y-133048571D01*
X149618095Y-132953333D01*
X149713333Y-132905714D01*
X149856190Y-132905714D01*
X149951428Y-132953333D01*
X151189523Y-133572380D02*
X151189523Y-132572380D01*
X151189523Y-132953333D02*
X151284761Y-132905714D01*
X151475238Y-132905714D01*
X151570476Y-132953333D01*
X151618095Y-133000952D01*
X151665714Y-133096190D01*
X151665714Y-133381904D01*
X151618095Y-133477142D01*
X151570476Y-133524761D01*
X151475238Y-133572380D01*
X151284761Y-133572380D01*
X151189523Y-133524761D01*
X152237142Y-133572380D02*
X152141904Y-133524761D01*
X152094285Y-133477142D01*
X152046666Y-133381904D01*
X152046666Y-133096190D01*
X152094285Y-133000952D01*
X152141904Y-132953333D01*
X152237142Y-132905714D01*
X152379999Y-132905714D01*
X152475238Y-132953333D01*
X152522857Y-133000952D01*
X152570476Y-133096190D01*
X152570476Y-133381904D01*
X152522857Y-133477142D01*
X152475238Y-133524761D01*
X152379999Y-133572380D01*
X152237142Y-133572380D01*
X153427619Y-133572380D02*
X153427619Y-133048571D01*
X153379999Y-132953333D01*
X153284761Y-132905714D01*
X153094285Y-132905714D01*
X152999047Y-132953333D01*
X153427619Y-133524761D02*
X153332380Y-133572380D01*
X153094285Y-133572380D01*
X152999047Y-133524761D01*
X152951428Y-133429523D01*
X152951428Y-133334285D01*
X152999047Y-133239047D01*
X153094285Y-133191428D01*
X153332380Y-133191428D01*
X153427619Y-133143809D01*
X153903809Y-133572380D02*
X153903809Y-132905714D01*
X153903809Y-133096190D02*
X153951428Y-133000952D01*
X153999047Y-132953333D01*
X154094285Y-132905714D01*
X154189523Y-132905714D01*
X154951428Y-133572380D02*
X154951428Y-132572380D01*
X154951428Y-133524761D02*
X154856190Y-133572380D01*
X154665714Y-133572380D01*
X154570476Y-133524761D01*
X154522857Y-133477142D01*
X154475238Y-133381904D01*
X154475238Y-133096190D01*
X154522857Y-133000952D01*
X154570476Y-132953333D01*
X154665714Y-132905714D01*
X154856190Y-132905714D01*
X154951428Y-132953333D01*
%TO.C,J1*%
X175612379Y-59343333D02*
X176326665Y-59343333D01*
X176469522Y-59390952D01*
X176564760Y-59486190D01*
X176612379Y-59629047D01*
X176612379Y-59724285D01*
X176612379Y-58343333D02*
X176612379Y-58914761D01*
X176612379Y-58629047D02*
X175612379Y-58629047D01*
X175755237Y-58724285D01*
X175850475Y-58819523D01*
X175898094Y-58914761D01*
%TO.C,TP46*%
X112611904Y-113072380D02*
X113183333Y-113072380D01*
X112897619Y-114072380D02*
X112897619Y-113072380D01*
X113516666Y-114072380D02*
X113516666Y-113072380D01*
X113897619Y-113072380D01*
X113992857Y-113120000D01*
X114040476Y-113167619D01*
X114088095Y-113262857D01*
X114088095Y-113405714D01*
X114040476Y-113500952D01*
X113992857Y-113548571D01*
X113897619Y-113596190D01*
X113516666Y-113596190D01*
X114945238Y-113405714D02*
X114945238Y-114072380D01*
X114707142Y-113024761D02*
X114469047Y-113739047D01*
X115088095Y-113739047D01*
X115897619Y-113072380D02*
X115707142Y-113072380D01*
X115611904Y-113120000D01*
X115564285Y-113167619D01*
X115469047Y-113310476D01*
X115421428Y-113500952D01*
X115421428Y-113881904D01*
X115469047Y-113977142D01*
X115516666Y-114024761D01*
X115611904Y-114072380D01*
X115802380Y-114072380D01*
X115897619Y-114024761D01*
X115945238Y-113977142D01*
X115992857Y-113881904D01*
X115992857Y-113643809D01*
X115945238Y-113548571D01*
X115897619Y-113500952D01*
X115802380Y-113453333D01*
X115611904Y-113453333D01*
X115516666Y-113500952D01*
X115469047Y-113548571D01*
X115421428Y-113643809D01*
%TO.C,TP5*%
X150367857Y-95852380D02*
X150939285Y-95852380D01*
X150653571Y-96852380D02*
X150653571Y-95852380D01*
X151272619Y-96852380D02*
X151272619Y-95852380D01*
X151653571Y-95852380D01*
X151748809Y-95900000D01*
X151796428Y-95947619D01*
X151844047Y-96042857D01*
X151844047Y-96185714D01*
X151796428Y-96280952D01*
X151748809Y-96328571D01*
X151653571Y-96376190D01*
X151272619Y-96376190D01*
X152748809Y-95852380D02*
X152272619Y-95852380D01*
X152225000Y-96328571D01*
X152272619Y-96280952D01*
X152367857Y-96233333D01*
X152605952Y-96233333D01*
X152701190Y-96280952D01*
X152748809Y-96328571D01*
X152796428Y-96423809D01*
X152796428Y-96661904D01*
X152748809Y-96757142D01*
X152701190Y-96804761D01*
X152605952Y-96852380D01*
X152367857Y-96852380D01*
X152272619Y-96804761D01*
X152225000Y-96757142D01*
%TO.C,TP21*%
X130961904Y-126442380D02*
X131533333Y-126442380D01*
X131247619Y-127442380D02*
X131247619Y-126442380D01*
X131866666Y-127442380D02*
X131866666Y-126442380D01*
X132247619Y-126442380D01*
X132342857Y-126490000D01*
X132390476Y-126537619D01*
X132438095Y-126632857D01*
X132438095Y-126775714D01*
X132390476Y-126870952D01*
X132342857Y-126918571D01*
X132247619Y-126966190D01*
X131866666Y-126966190D01*
X132819047Y-126537619D02*
X132866666Y-126490000D01*
X132961904Y-126442380D01*
X133200000Y-126442380D01*
X133295238Y-126490000D01*
X133342857Y-126537619D01*
X133390476Y-126632857D01*
X133390476Y-126728095D01*
X133342857Y-126870952D01*
X132771428Y-127442380D01*
X133390476Y-127442380D01*
X134342857Y-127442380D02*
X133771428Y-127442380D01*
X134057142Y-127442380D02*
X134057142Y-126442380D01*
X133961904Y-126585238D01*
X133866666Y-126680476D01*
X133771428Y-126728095D01*
%TO.C,TP3*%
X209558095Y-130152380D02*
X210129523Y-130152380D01*
X209843809Y-131152380D02*
X209843809Y-130152380D01*
X210462857Y-131152380D02*
X210462857Y-130152380D01*
X210843809Y-130152380D01*
X210939047Y-130200000D01*
X210986666Y-130247619D01*
X211034285Y-130342857D01*
X211034285Y-130485714D01*
X210986666Y-130580952D01*
X210939047Y-130628571D01*
X210843809Y-130676190D01*
X210462857Y-130676190D01*
X211367619Y-130152380D02*
X211986666Y-130152380D01*
X211653333Y-130533333D01*
X211796190Y-130533333D01*
X211891428Y-130580952D01*
X211939047Y-130628571D01*
X211986666Y-130723809D01*
X211986666Y-130961904D01*
X211939047Y-131057142D01*
X211891428Y-131104761D01*
X211796190Y-131152380D01*
X211510476Y-131152380D01*
X211415238Y-131104761D01*
X211367619Y-131057142D01*
%TO.C,TP42*%
X110732618Y-120092380D02*
X111304047Y-120092380D01*
X111018333Y-121092380D02*
X111018333Y-120092380D01*
X111637380Y-121092380D02*
X111637380Y-120092380D01*
X112018333Y-120092380D01*
X112113571Y-120140000D01*
X112161190Y-120187619D01*
X112208809Y-120282857D01*
X112208809Y-120425714D01*
X112161190Y-120520952D01*
X112113571Y-120568571D01*
X112018333Y-120616190D01*
X111637380Y-120616190D01*
X113065952Y-120425714D02*
X113065952Y-121092380D01*
X112827856Y-120044761D02*
X112589761Y-120759047D01*
X113208809Y-120759047D01*
X113542142Y-120187619D02*
X113589761Y-120140000D01*
X113684999Y-120092380D01*
X113923094Y-120092380D01*
X114018333Y-120140000D01*
X114065952Y-120187619D01*
X114113571Y-120282857D01*
X114113571Y-120378095D01*
X114065952Y-120520952D01*
X113494523Y-121092380D01*
X114113571Y-121092380D01*
%TO.C,TP28*%
X94341666Y-79952380D02*
X94913095Y-79952380D01*
X94627381Y-80952380D02*
X94627381Y-79952380D01*
X95246428Y-80952380D02*
X95246428Y-79952380D01*
X95627381Y-79952380D01*
X95722619Y-80000000D01*
X95770238Y-80047619D01*
X95817857Y-80142857D01*
X95817857Y-80285714D01*
X95770238Y-80380952D01*
X95722619Y-80428571D01*
X95627381Y-80476190D01*
X95246428Y-80476190D01*
X96198809Y-80047619D02*
X96246428Y-80000000D01*
X96341666Y-79952380D01*
X96579762Y-79952380D01*
X96675000Y-80000000D01*
X96722619Y-80047619D01*
X96770238Y-80142857D01*
X96770238Y-80238095D01*
X96722619Y-80380952D01*
X96151190Y-80952380D01*
X96770238Y-80952380D01*
X97341666Y-80380952D02*
X97246428Y-80333333D01*
X97198809Y-80285714D01*
X97151190Y-80190476D01*
X97151190Y-80142857D01*
X97198809Y-80047619D01*
X97246428Y-80000000D01*
X97341666Y-79952380D01*
X97532142Y-79952380D01*
X97627381Y-80000000D01*
X97675000Y-80047619D01*
X97722619Y-80142857D01*
X97722619Y-80190476D01*
X97675000Y-80285714D01*
X97627381Y-80333333D01*
X97532142Y-80380952D01*
X97341666Y-80380952D01*
X97246428Y-80428571D01*
X97198809Y-80476190D01*
X97151190Y-80571428D01*
X97151190Y-80761904D01*
X97198809Y-80857142D01*
X97246428Y-80904761D01*
X97341666Y-80952380D01*
X97532142Y-80952380D01*
X97627381Y-80904761D01*
X97675000Y-80857142D01*
X97722619Y-80761904D01*
X97722619Y-80571428D01*
X97675000Y-80476190D01*
X97627381Y-80428571D01*
X97532142Y-80380952D01*
%TO.C,TP2*%
X153967857Y-127752380D02*
X154539285Y-127752380D01*
X154253571Y-128752380D02*
X154253571Y-127752380D01*
X154872619Y-128752380D02*
X154872619Y-127752380D01*
X155253571Y-127752380D01*
X155348809Y-127800000D01*
X155396428Y-127847619D01*
X155444047Y-127942857D01*
X155444047Y-128085714D01*
X155396428Y-128180952D01*
X155348809Y-128228571D01*
X155253571Y-128276190D01*
X154872619Y-128276190D01*
X155825000Y-127847619D02*
X155872619Y-127800000D01*
X155967857Y-127752380D01*
X156205952Y-127752380D01*
X156301190Y-127800000D01*
X156348809Y-127847619D01*
X156396428Y-127942857D01*
X156396428Y-128038095D01*
X156348809Y-128180952D01*
X155777381Y-128752380D01*
X156396428Y-128752380D01*
%TO.C,TP15*%
X97191666Y-93952380D02*
X97763095Y-93952380D01*
X97477381Y-94952380D02*
X97477381Y-93952380D01*
X98096428Y-94952380D02*
X98096428Y-93952380D01*
X98477381Y-93952380D01*
X98572619Y-94000000D01*
X98620238Y-94047619D01*
X98667857Y-94142857D01*
X98667857Y-94285714D01*
X98620238Y-94380952D01*
X98572619Y-94428571D01*
X98477381Y-94476190D01*
X98096428Y-94476190D01*
X99620238Y-94952380D02*
X99048809Y-94952380D01*
X99334523Y-94952380D02*
X99334523Y-93952380D01*
X99239285Y-94095238D01*
X99144047Y-94190476D01*
X99048809Y-94238095D01*
X100525000Y-93952380D02*
X100048809Y-93952380D01*
X100001190Y-94428571D01*
X100048809Y-94380952D01*
X100144047Y-94333333D01*
X100382142Y-94333333D01*
X100477381Y-94380952D01*
X100525000Y-94428571D01*
X100572619Y-94523809D01*
X100572619Y-94761904D01*
X100525000Y-94857142D01*
X100477381Y-94904761D01*
X100382142Y-94952380D01*
X100144047Y-94952380D01*
X100048809Y-94904761D01*
X100001190Y-94857142D01*
%TO.C,TP24*%
X94341666Y-65952380D02*
X94913095Y-65952380D01*
X94627381Y-66952380D02*
X94627381Y-65952380D01*
X95246428Y-66952380D02*
X95246428Y-65952380D01*
X95627381Y-65952380D01*
X95722619Y-66000000D01*
X95770238Y-66047619D01*
X95817857Y-66142857D01*
X95817857Y-66285714D01*
X95770238Y-66380952D01*
X95722619Y-66428571D01*
X95627381Y-66476190D01*
X95246428Y-66476190D01*
X96198809Y-66047619D02*
X96246428Y-66000000D01*
X96341666Y-65952380D01*
X96579762Y-65952380D01*
X96675000Y-66000000D01*
X96722619Y-66047619D01*
X96770238Y-66142857D01*
X96770238Y-66238095D01*
X96722619Y-66380952D01*
X96151190Y-66952380D01*
X96770238Y-66952380D01*
X97627381Y-66285714D02*
X97627381Y-66952380D01*
X97389285Y-65904761D02*
X97151190Y-66619047D01*
X97770238Y-66619047D01*
%TO.C,TP9*%
X194517857Y-103752380D02*
X195089285Y-103752380D01*
X194803571Y-104752380D02*
X194803571Y-103752380D01*
X195422619Y-104752380D02*
X195422619Y-103752380D01*
X195803571Y-103752380D01*
X195898809Y-103800000D01*
X195946428Y-103847619D01*
X195994047Y-103942857D01*
X195994047Y-104085714D01*
X195946428Y-104180952D01*
X195898809Y-104228571D01*
X195803571Y-104276190D01*
X195422619Y-104276190D01*
X196470238Y-104752380D02*
X196660714Y-104752380D01*
X196755952Y-104704761D01*
X196803571Y-104657142D01*
X196898809Y-104514285D01*
X196946428Y-104323809D01*
X196946428Y-103942857D01*
X196898809Y-103847619D01*
X196851190Y-103800000D01*
X196755952Y-103752380D01*
X196565476Y-103752380D01*
X196470238Y-103800000D01*
X196422619Y-103847619D01*
X196375000Y-103942857D01*
X196375000Y-104180952D01*
X196422619Y-104276190D01*
X196470238Y-104323809D01*
X196565476Y-104371428D01*
X196755952Y-104371428D01*
X196851190Y-104323809D01*
X196898809Y-104276190D01*
X196946428Y-104180952D01*
%TO.C,TP38*%
X139351904Y-57752380D02*
X139923333Y-57752380D01*
X139637619Y-58752380D02*
X139637619Y-57752380D01*
X140256666Y-58752380D02*
X140256666Y-57752380D01*
X140637619Y-57752380D01*
X140732857Y-57800000D01*
X140780476Y-57847619D01*
X140828095Y-57942857D01*
X140828095Y-58085714D01*
X140780476Y-58180952D01*
X140732857Y-58228571D01*
X140637619Y-58276190D01*
X140256666Y-58276190D01*
X141161428Y-57752380D02*
X141780476Y-57752380D01*
X141447142Y-58133333D01*
X141590000Y-58133333D01*
X141685238Y-58180952D01*
X141732857Y-58228571D01*
X141780476Y-58323809D01*
X141780476Y-58561904D01*
X141732857Y-58657142D01*
X141685238Y-58704761D01*
X141590000Y-58752380D01*
X141304285Y-58752380D01*
X141209047Y-58704761D01*
X141161428Y-58657142D01*
X142351904Y-58180952D02*
X142256666Y-58133333D01*
X142209047Y-58085714D01*
X142161428Y-57990476D01*
X142161428Y-57942857D01*
X142209047Y-57847619D01*
X142256666Y-57800000D01*
X142351904Y-57752380D01*
X142542380Y-57752380D01*
X142637619Y-57800000D01*
X142685238Y-57847619D01*
X142732857Y-57942857D01*
X142732857Y-57990476D01*
X142685238Y-58085714D01*
X142637619Y-58133333D01*
X142542380Y-58180952D01*
X142351904Y-58180952D01*
X142256666Y-58228571D01*
X142209047Y-58276190D01*
X142161428Y-58371428D01*
X142161428Y-58561904D01*
X142209047Y-58657142D01*
X142256666Y-58704761D01*
X142351904Y-58752380D01*
X142542380Y-58752380D01*
X142637619Y-58704761D01*
X142685238Y-58657142D01*
X142732857Y-58561904D01*
X142732857Y-58371428D01*
X142685238Y-58276190D01*
X142637619Y-58228571D01*
X142542380Y-58180952D01*
%TO.C,TP14*%
X96691666Y-69652380D02*
X97263095Y-69652380D01*
X96977381Y-70652380D02*
X96977381Y-69652380D01*
X97596428Y-70652380D02*
X97596428Y-69652380D01*
X97977381Y-69652380D01*
X98072619Y-69700000D01*
X98120238Y-69747619D01*
X98167857Y-69842857D01*
X98167857Y-69985714D01*
X98120238Y-70080952D01*
X98072619Y-70128571D01*
X97977381Y-70176190D01*
X97596428Y-70176190D01*
X99120238Y-70652380D02*
X98548809Y-70652380D01*
X98834523Y-70652380D02*
X98834523Y-69652380D01*
X98739285Y-69795238D01*
X98644047Y-69890476D01*
X98548809Y-69938095D01*
X99977381Y-69985714D02*
X99977381Y-70652380D01*
X99739285Y-69604761D02*
X99501190Y-70319047D01*
X100120238Y-70319047D01*
%TO.C,TP26*%
X94341666Y-93952380D02*
X94913095Y-93952380D01*
X94627381Y-94952380D02*
X94627381Y-93952380D01*
X95246428Y-94952380D02*
X95246428Y-93952380D01*
X95627381Y-93952380D01*
X95722619Y-94000000D01*
X95770238Y-94047619D01*
X95817857Y-94142857D01*
X95817857Y-94285714D01*
X95770238Y-94380952D01*
X95722619Y-94428571D01*
X95627381Y-94476190D01*
X95246428Y-94476190D01*
X96198809Y-94047619D02*
X96246428Y-94000000D01*
X96341666Y-93952380D01*
X96579762Y-93952380D01*
X96675000Y-94000000D01*
X96722619Y-94047619D01*
X96770238Y-94142857D01*
X96770238Y-94238095D01*
X96722619Y-94380952D01*
X96151190Y-94952380D01*
X96770238Y-94952380D01*
X97627381Y-93952380D02*
X97436904Y-93952380D01*
X97341666Y-94000000D01*
X97294047Y-94047619D01*
X97198809Y-94190476D01*
X97151190Y-94380952D01*
X97151190Y-94761904D01*
X97198809Y-94857142D01*
X97246428Y-94904761D01*
X97341666Y-94952380D01*
X97532142Y-94952380D01*
X97627381Y-94904761D01*
X97675000Y-94857142D01*
X97722619Y-94761904D01*
X97722619Y-94523809D01*
X97675000Y-94428571D01*
X97627381Y-94380952D01*
X97532142Y-94333333D01*
X97341666Y-94333333D01*
X97246428Y-94380952D01*
X97198809Y-94428571D01*
X97151190Y-94523809D01*
%TO.C,TP37*%
X140911904Y-52042380D02*
X141483333Y-52042380D01*
X141197619Y-53042380D02*
X141197619Y-52042380D01*
X141816666Y-53042380D02*
X141816666Y-52042380D01*
X142197619Y-52042380D01*
X142292857Y-52090000D01*
X142340476Y-52137619D01*
X142388095Y-52232857D01*
X142388095Y-52375714D01*
X142340476Y-52470952D01*
X142292857Y-52518571D01*
X142197619Y-52566190D01*
X141816666Y-52566190D01*
X142721428Y-52042380D02*
X143340476Y-52042380D01*
X143007142Y-52423333D01*
X143150000Y-52423333D01*
X143245238Y-52470952D01*
X143292857Y-52518571D01*
X143340476Y-52613809D01*
X143340476Y-52851904D01*
X143292857Y-52947142D01*
X143245238Y-52994761D01*
X143150000Y-53042380D01*
X142864285Y-53042380D01*
X142769047Y-52994761D01*
X142721428Y-52947142D01*
X143673809Y-52042380D02*
X144340476Y-52042380D01*
X143911904Y-53042380D01*
%TO.C,TP23*%
X150441904Y-119642380D02*
X151013333Y-119642380D01*
X150727619Y-120642380D02*
X150727619Y-119642380D01*
X151346666Y-120642380D02*
X151346666Y-119642380D01*
X151727619Y-119642380D01*
X151822857Y-119690000D01*
X151870476Y-119737619D01*
X151918095Y-119832857D01*
X151918095Y-119975714D01*
X151870476Y-120070952D01*
X151822857Y-120118571D01*
X151727619Y-120166190D01*
X151346666Y-120166190D01*
X152299047Y-119737619D02*
X152346666Y-119690000D01*
X152441904Y-119642380D01*
X152680000Y-119642380D01*
X152775238Y-119690000D01*
X152822857Y-119737619D01*
X152870476Y-119832857D01*
X152870476Y-119928095D01*
X152822857Y-120070952D01*
X152251428Y-120642380D01*
X152870476Y-120642380D01*
X153203809Y-119642380D02*
X153822857Y-119642380D01*
X153489523Y-120023333D01*
X153632380Y-120023333D01*
X153727619Y-120070952D01*
X153775238Y-120118571D01*
X153822857Y-120213809D01*
X153822857Y-120451904D01*
X153775238Y-120547142D01*
X153727619Y-120594761D01*
X153632380Y-120642380D01*
X153346666Y-120642380D01*
X153251428Y-120594761D01*
X153203809Y-120547142D01*
%TO.C,TP13*%
X97191666Y-65902380D02*
X97763095Y-65902380D01*
X97477381Y-66902380D02*
X97477381Y-65902380D01*
X98096428Y-66902380D02*
X98096428Y-65902380D01*
X98477381Y-65902380D01*
X98572619Y-65950000D01*
X98620238Y-65997619D01*
X98667857Y-66092857D01*
X98667857Y-66235714D01*
X98620238Y-66330952D01*
X98572619Y-66378571D01*
X98477381Y-66426190D01*
X98096428Y-66426190D01*
X99620238Y-66902380D02*
X99048809Y-66902380D01*
X99334523Y-66902380D02*
X99334523Y-65902380D01*
X99239285Y-66045238D01*
X99144047Y-66140476D01*
X99048809Y-66188095D01*
X99953571Y-65902380D02*
X100572619Y-65902380D01*
X100239285Y-66283333D01*
X100382142Y-66283333D01*
X100477381Y-66330952D01*
X100525000Y-66378571D01*
X100572619Y-66473809D01*
X100572619Y-66711904D01*
X100525000Y-66807142D01*
X100477381Y-66854761D01*
X100382142Y-66902380D01*
X100096428Y-66902380D01*
X100001190Y-66854761D01*
X99953571Y-66807142D01*
%TO.C,TP6*%
X185267857Y-66852380D02*
X185839285Y-66852380D01*
X185553571Y-67852380D02*
X185553571Y-66852380D01*
X186172619Y-67852380D02*
X186172619Y-66852380D01*
X186553571Y-66852380D01*
X186648809Y-66900000D01*
X186696428Y-66947619D01*
X186744047Y-67042857D01*
X186744047Y-67185714D01*
X186696428Y-67280952D01*
X186648809Y-67328571D01*
X186553571Y-67376190D01*
X186172619Y-67376190D01*
X187601190Y-66852380D02*
X187410714Y-66852380D01*
X187315476Y-66900000D01*
X187267857Y-66947619D01*
X187172619Y-67090476D01*
X187125000Y-67280952D01*
X187125000Y-67661904D01*
X187172619Y-67757142D01*
X187220238Y-67804761D01*
X187315476Y-67852380D01*
X187505952Y-67852380D01*
X187601190Y-67804761D01*
X187648809Y-67757142D01*
X187696428Y-67661904D01*
X187696428Y-67423809D01*
X187648809Y-67328571D01*
X187601190Y-67280952D01*
X187505952Y-67233333D01*
X187315476Y-67233333D01*
X187220238Y-67280952D01*
X187172619Y-67328571D01*
X187125000Y-67423809D01*
%TO.C,TP11*%
X201191666Y-63252380D02*
X201763095Y-63252380D01*
X201477381Y-64252380D02*
X201477381Y-63252380D01*
X202096428Y-64252380D02*
X202096428Y-63252380D01*
X202477381Y-63252380D01*
X202572619Y-63300000D01*
X202620238Y-63347619D01*
X202667857Y-63442857D01*
X202667857Y-63585714D01*
X202620238Y-63680952D01*
X202572619Y-63728571D01*
X202477381Y-63776190D01*
X202096428Y-63776190D01*
X203620238Y-64252380D02*
X203048809Y-64252380D01*
X203334523Y-64252380D02*
X203334523Y-63252380D01*
X203239285Y-63395238D01*
X203144047Y-63490476D01*
X203048809Y-63538095D01*
X204572619Y-64252380D02*
X204001190Y-64252380D01*
X204286904Y-64252380D02*
X204286904Y-63252380D01*
X204191666Y-63395238D01*
X204096428Y-63490476D01*
X204001190Y-63538095D01*
%TO.C,TP45*%
X187082618Y-127622380D02*
X187654047Y-127622380D01*
X187368333Y-128622380D02*
X187368333Y-127622380D01*
X187987380Y-128622380D02*
X187987380Y-127622380D01*
X188368333Y-127622380D01*
X188463571Y-127670000D01*
X188511190Y-127717619D01*
X188558809Y-127812857D01*
X188558809Y-127955714D01*
X188511190Y-128050952D01*
X188463571Y-128098571D01*
X188368333Y-128146190D01*
X187987380Y-128146190D01*
X189415952Y-127955714D02*
X189415952Y-128622380D01*
X189177856Y-127574761D02*
X188939761Y-128289047D01*
X189558809Y-128289047D01*
X190415952Y-127622380D02*
X189939761Y-127622380D01*
X189892142Y-128098571D01*
X189939761Y-128050952D01*
X190034999Y-128003333D01*
X190273094Y-128003333D01*
X190368333Y-128050952D01*
X190415952Y-128098571D01*
X190463571Y-128193809D01*
X190463571Y-128431904D01*
X190415952Y-128527142D01*
X190368333Y-128574761D01*
X190273094Y-128622380D01*
X190034999Y-128622380D01*
X189939761Y-128574761D01*
X189892142Y-128527142D01*
%TO.C,TP4*%
X127198095Y-130822380D02*
X127769523Y-130822380D01*
X127483809Y-131822380D02*
X127483809Y-130822380D01*
X128102857Y-131822380D02*
X128102857Y-130822380D01*
X128483809Y-130822380D01*
X128579047Y-130870000D01*
X128626666Y-130917619D01*
X128674285Y-131012857D01*
X128674285Y-131155714D01*
X128626666Y-131250952D01*
X128579047Y-131298571D01*
X128483809Y-131346190D01*
X128102857Y-131346190D01*
X129531428Y-131155714D02*
X129531428Y-131822380D01*
X129293333Y-130774761D02*
X129055238Y-131489047D01*
X129674285Y-131489047D01*
%TO.C,TP32*%
X128981904Y-50502380D02*
X129553333Y-50502380D01*
X129267619Y-51502380D02*
X129267619Y-50502380D01*
X129886666Y-51502380D02*
X129886666Y-50502380D01*
X130267619Y-50502380D01*
X130362857Y-50550000D01*
X130410476Y-50597619D01*
X130458095Y-50692857D01*
X130458095Y-50835714D01*
X130410476Y-50930952D01*
X130362857Y-50978571D01*
X130267619Y-51026190D01*
X129886666Y-51026190D01*
X130791428Y-50502380D02*
X131410476Y-50502380D01*
X131077142Y-50883333D01*
X131220000Y-50883333D01*
X131315238Y-50930952D01*
X131362857Y-50978571D01*
X131410476Y-51073809D01*
X131410476Y-51311904D01*
X131362857Y-51407142D01*
X131315238Y-51454761D01*
X131220000Y-51502380D01*
X130934285Y-51502380D01*
X130839047Y-51454761D01*
X130791428Y-51407142D01*
X131791428Y-50597619D02*
X131839047Y-50550000D01*
X131934285Y-50502380D01*
X132172380Y-50502380D01*
X132267619Y-50550000D01*
X132315238Y-50597619D01*
X132362857Y-50692857D01*
X132362857Y-50788095D01*
X132315238Y-50930952D01*
X131743809Y-51502380D01*
X132362857Y-51502380D01*
%TO.C,TP18*%
X96741666Y-83552380D02*
X97313095Y-83552380D01*
X97027381Y-84552380D02*
X97027381Y-83552380D01*
X97646428Y-84552380D02*
X97646428Y-83552380D01*
X98027381Y-83552380D01*
X98122619Y-83600000D01*
X98170238Y-83647619D01*
X98217857Y-83742857D01*
X98217857Y-83885714D01*
X98170238Y-83980952D01*
X98122619Y-84028571D01*
X98027381Y-84076190D01*
X97646428Y-84076190D01*
X99170238Y-84552380D02*
X98598809Y-84552380D01*
X98884523Y-84552380D02*
X98884523Y-83552380D01*
X98789285Y-83695238D01*
X98694047Y-83790476D01*
X98598809Y-83838095D01*
X99741666Y-83980952D02*
X99646428Y-83933333D01*
X99598809Y-83885714D01*
X99551190Y-83790476D01*
X99551190Y-83742857D01*
X99598809Y-83647619D01*
X99646428Y-83600000D01*
X99741666Y-83552380D01*
X99932142Y-83552380D01*
X100027381Y-83600000D01*
X100075000Y-83647619D01*
X100122619Y-83742857D01*
X100122619Y-83790476D01*
X100075000Y-83885714D01*
X100027381Y-83933333D01*
X99932142Y-83980952D01*
X99741666Y-83980952D01*
X99646428Y-84028571D01*
X99598809Y-84076190D01*
X99551190Y-84171428D01*
X99551190Y-84361904D01*
X99598809Y-84457142D01*
X99646428Y-84504761D01*
X99741666Y-84552380D01*
X99932142Y-84552380D01*
X100027381Y-84504761D01*
X100075000Y-84457142D01*
X100122619Y-84361904D01*
X100122619Y-84171428D01*
X100075000Y-84076190D01*
X100027381Y-84028571D01*
X99932142Y-83980952D01*
%TO.C,TP25*%
X93241666Y-69652380D02*
X93813095Y-69652380D01*
X93527381Y-70652380D02*
X93527381Y-69652380D01*
X94146428Y-70652380D02*
X94146428Y-69652380D01*
X94527381Y-69652380D01*
X94622619Y-69700000D01*
X94670238Y-69747619D01*
X94717857Y-69842857D01*
X94717857Y-69985714D01*
X94670238Y-70080952D01*
X94622619Y-70128571D01*
X94527381Y-70176190D01*
X94146428Y-70176190D01*
X95098809Y-69747619D02*
X95146428Y-69700000D01*
X95241666Y-69652380D01*
X95479762Y-69652380D01*
X95575000Y-69700000D01*
X95622619Y-69747619D01*
X95670238Y-69842857D01*
X95670238Y-69938095D01*
X95622619Y-70080952D01*
X95051190Y-70652380D01*
X95670238Y-70652380D01*
X96575000Y-69652380D02*
X96098809Y-69652380D01*
X96051190Y-70128571D01*
X96098809Y-70080952D01*
X96194047Y-70033333D01*
X96432142Y-70033333D01*
X96527381Y-70080952D01*
X96575000Y-70128571D01*
X96622619Y-70223809D01*
X96622619Y-70461904D01*
X96575000Y-70557142D01*
X96527381Y-70604761D01*
X96432142Y-70652380D01*
X96194047Y-70652380D01*
X96098809Y-70604761D01*
X96051190Y-70557142D01*
%TO.C,TP8*%
X153267857Y-96552380D02*
X153839285Y-96552380D01*
X153553571Y-97552380D02*
X153553571Y-96552380D01*
X154172619Y-97552380D02*
X154172619Y-96552380D01*
X154553571Y-96552380D01*
X154648809Y-96600000D01*
X154696428Y-96647619D01*
X154744047Y-96742857D01*
X154744047Y-96885714D01*
X154696428Y-96980952D01*
X154648809Y-97028571D01*
X154553571Y-97076190D01*
X154172619Y-97076190D01*
X155315476Y-96980952D02*
X155220238Y-96933333D01*
X155172619Y-96885714D01*
X155125000Y-96790476D01*
X155125000Y-96742857D01*
X155172619Y-96647619D01*
X155220238Y-96600000D01*
X155315476Y-96552380D01*
X155505952Y-96552380D01*
X155601190Y-96600000D01*
X155648809Y-96647619D01*
X155696428Y-96742857D01*
X155696428Y-96790476D01*
X155648809Y-96885714D01*
X155601190Y-96933333D01*
X155505952Y-96980952D01*
X155315476Y-96980952D01*
X155220238Y-97028571D01*
X155172619Y-97076190D01*
X155125000Y-97171428D01*
X155125000Y-97361904D01*
X155172619Y-97457142D01*
X155220238Y-97504761D01*
X155315476Y-97552380D01*
X155505952Y-97552380D01*
X155601190Y-97504761D01*
X155648809Y-97457142D01*
X155696428Y-97361904D01*
X155696428Y-97171428D01*
X155648809Y-97076190D01*
X155601190Y-97028571D01*
X155505952Y-96980952D01*
%TO.C,TP1*%
X140917857Y-127802380D02*
X141489285Y-127802380D01*
X141203571Y-128802380D02*
X141203571Y-127802380D01*
X141822619Y-128802380D02*
X141822619Y-127802380D01*
X142203571Y-127802380D01*
X142298809Y-127850000D01*
X142346428Y-127897619D01*
X142394047Y-127992857D01*
X142394047Y-128135714D01*
X142346428Y-128230952D01*
X142298809Y-128278571D01*
X142203571Y-128326190D01*
X141822619Y-128326190D01*
X143346428Y-128802380D02*
X142775000Y-128802380D01*
X143060714Y-128802380D02*
X143060714Y-127802380D01*
X142965476Y-127945238D01*
X142870238Y-128040476D01*
X142775000Y-128088095D01*
%TO.C,TP34*%
X123581904Y-51452380D02*
X124153333Y-51452380D01*
X123867619Y-52452380D02*
X123867619Y-51452380D01*
X124486666Y-52452380D02*
X124486666Y-51452380D01*
X124867619Y-51452380D01*
X124962857Y-51500000D01*
X125010476Y-51547619D01*
X125058095Y-51642857D01*
X125058095Y-51785714D01*
X125010476Y-51880952D01*
X124962857Y-51928571D01*
X124867619Y-51976190D01*
X124486666Y-51976190D01*
X125391428Y-51452380D02*
X126010476Y-51452380D01*
X125677142Y-51833333D01*
X125820000Y-51833333D01*
X125915238Y-51880952D01*
X125962857Y-51928571D01*
X126010476Y-52023809D01*
X126010476Y-52261904D01*
X125962857Y-52357142D01*
X125915238Y-52404761D01*
X125820000Y-52452380D01*
X125534285Y-52452380D01*
X125439047Y-52404761D01*
X125391428Y-52357142D01*
X126867619Y-51785714D02*
X126867619Y-52452380D01*
X126629523Y-51404761D02*
X126391428Y-52119047D01*
X127010476Y-52119047D01*
%TO.C,TP39*%
X138002618Y-50132380D02*
X138574047Y-50132380D01*
X138288333Y-51132380D02*
X138288333Y-50132380D01*
X138907380Y-51132380D02*
X138907380Y-50132380D01*
X139288333Y-50132380D01*
X139383571Y-50180000D01*
X139431190Y-50227619D01*
X139478809Y-50322857D01*
X139478809Y-50465714D01*
X139431190Y-50560952D01*
X139383571Y-50608571D01*
X139288333Y-50656190D01*
X138907380Y-50656190D01*
X139812142Y-50132380D02*
X140431190Y-50132380D01*
X140097856Y-50513333D01*
X140240714Y-50513333D01*
X140335952Y-50560952D01*
X140383571Y-50608571D01*
X140431190Y-50703809D01*
X140431190Y-50941904D01*
X140383571Y-51037142D01*
X140335952Y-51084761D01*
X140240714Y-51132380D01*
X139954999Y-51132380D01*
X139859761Y-51084761D01*
X139812142Y-51037142D01*
X140907380Y-51132380D02*
X141097856Y-51132380D01*
X141193094Y-51084761D01*
X141240714Y-51037142D01*
X141335952Y-50894285D01*
X141383571Y-50703809D01*
X141383571Y-50322857D01*
X141335952Y-50227619D01*
X141288333Y-50180000D01*
X141193094Y-50132380D01*
X141002618Y-50132380D01*
X140907380Y-50180000D01*
X140859761Y-50227619D01*
X140812142Y-50322857D01*
X140812142Y-50560952D01*
X140859761Y-50656190D01*
X140907380Y-50703809D01*
X141002618Y-50751428D01*
X141193094Y-50751428D01*
X141288333Y-50703809D01*
X141335952Y-50656190D01*
X141383571Y-50560952D01*
%TO.C,TP19*%
X97191666Y-107902380D02*
X97763095Y-107902380D01*
X97477381Y-108902380D02*
X97477381Y-107902380D01*
X98096428Y-108902380D02*
X98096428Y-107902380D01*
X98477381Y-107902380D01*
X98572619Y-107950000D01*
X98620238Y-107997619D01*
X98667857Y-108092857D01*
X98667857Y-108235714D01*
X98620238Y-108330952D01*
X98572619Y-108378571D01*
X98477381Y-108426190D01*
X98096428Y-108426190D01*
X99620238Y-108902380D02*
X99048809Y-108902380D01*
X99334523Y-108902380D02*
X99334523Y-107902380D01*
X99239285Y-108045238D01*
X99144047Y-108140476D01*
X99048809Y-108188095D01*
X100096428Y-108902380D02*
X100286904Y-108902380D01*
X100382142Y-108854761D01*
X100429762Y-108807142D01*
X100525000Y-108664285D01*
X100572619Y-108473809D01*
X100572619Y-108092857D01*
X100525000Y-107997619D01*
X100477381Y-107950000D01*
X100382142Y-107902380D01*
X100191666Y-107902380D01*
X100096428Y-107950000D01*
X100048809Y-107997619D01*
X100001190Y-108092857D01*
X100001190Y-108330952D01*
X100048809Y-108426190D01*
X100096428Y-108473809D01*
X100191666Y-108521428D01*
X100382142Y-108521428D01*
X100477381Y-108473809D01*
X100525000Y-108426190D01*
X100572619Y-108330952D01*
%TO.C,TP33*%
X129521904Y-54832380D02*
X130093333Y-54832380D01*
X129807619Y-55832380D02*
X129807619Y-54832380D01*
X130426666Y-55832380D02*
X130426666Y-54832380D01*
X130807619Y-54832380D01*
X130902857Y-54880000D01*
X130950476Y-54927619D01*
X130998095Y-55022857D01*
X130998095Y-55165714D01*
X130950476Y-55260952D01*
X130902857Y-55308571D01*
X130807619Y-55356190D01*
X130426666Y-55356190D01*
X131331428Y-54832380D02*
X131950476Y-54832380D01*
X131617142Y-55213333D01*
X131760000Y-55213333D01*
X131855238Y-55260952D01*
X131902857Y-55308571D01*
X131950476Y-55403809D01*
X131950476Y-55641904D01*
X131902857Y-55737142D01*
X131855238Y-55784761D01*
X131760000Y-55832380D01*
X131474285Y-55832380D01*
X131379047Y-55784761D01*
X131331428Y-55737142D01*
X132283809Y-54832380D02*
X132902857Y-54832380D01*
X132569523Y-55213333D01*
X132712380Y-55213333D01*
X132807619Y-55260952D01*
X132855238Y-55308571D01*
X132902857Y-55403809D01*
X132902857Y-55641904D01*
X132855238Y-55737142D01*
X132807619Y-55784761D01*
X132712380Y-55832380D01*
X132426666Y-55832380D01*
X132331428Y-55784761D01*
X132283809Y-55737142D01*
%TO.C,TP48*%
X122471904Y-110942380D02*
X123043333Y-110942380D01*
X122757619Y-111942380D02*
X122757619Y-110942380D01*
X123376666Y-111942380D02*
X123376666Y-110942380D01*
X123757619Y-110942380D01*
X123852857Y-110990000D01*
X123900476Y-111037619D01*
X123948095Y-111132857D01*
X123948095Y-111275714D01*
X123900476Y-111370952D01*
X123852857Y-111418571D01*
X123757619Y-111466190D01*
X123376666Y-111466190D01*
X124805238Y-111275714D02*
X124805238Y-111942380D01*
X124567142Y-110894761D02*
X124329047Y-111609047D01*
X124948095Y-111609047D01*
X125471904Y-111370952D02*
X125376666Y-111323333D01*
X125329047Y-111275714D01*
X125281428Y-111180476D01*
X125281428Y-111132857D01*
X125329047Y-111037619D01*
X125376666Y-110990000D01*
X125471904Y-110942380D01*
X125662380Y-110942380D01*
X125757619Y-110990000D01*
X125805238Y-111037619D01*
X125852857Y-111132857D01*
X125852857Y-111180476D01*
X125805238Y-111275714D01*
X125757619Y-111323333D01*
X125662380Y-111370952D01*
X125471904Y-111370952D01*
X125376666Y-111418571D01*
X125329047Y-111466190D01*
X125281428Y-111561428D01*
X125281428Y-111751904D01*
X125329047Y-111847142D01*
X125376666Y-111894761D01*
X125471904Y-111942380D01*
X125662380Y-111942380D01*
X125757619Y-111894761D01*
X125805238Y-111847142D01*
X125852857Y-111751904D01*
X125852857Y-111561428D01*
X125805238Y-111466190D01*
X125757619Y-111418571D01*
X125662380Y-111370952D01*
%TO.C,TP22*%
X139491666Y-122702380D02*
X140063095Y-122702380D01*
X139777381Y-123702380D02*
X139777381Y-122702380D01*
X140396428Y-123702380D02*
X140396428Y-122702380D01*
X140777381Y-122702380D01*
X140872619Y-122750000D01*
X140920238Y-122797619D01*
X140967857Y-122892857D01*
X140967857Y-123035714D01*
X140920238Y-123130952D01*
X140872619Y-123178571D01*
X140777381Y-123226190D01*
X140396428Y-123226190D01*
X141348809Y-122797619D02*
X141396428Y-122750000D01*
X141491666Y-122702380D01*
X141729762Y-122702380D01*
X141825000Y-122750000D01*
X141872619Y-122797619D01*
X141920238Y-122892857D01*
X141920238Y-122988095D01*
X141872619Y-123130952D01*
X141301190Y-123702380D01*
X141920238Y-123702380D01*
X142301190Y-122797619D02*
X142348809Y-122750000D01*
X142444047Y-122702380D01*
X142682142Y-122702380D01*
X142777381Y-122750000D01*
X142825000Y-122797619D01*
X142872619Y-122892857D01*
X142872619Y-122988095D01*
X142825000Y-123130952D01*
X142253571Y-123702380D01*
X142872619Y-123702380D01*
%TO.C,TP7*%
X147267857Y-101802380D02*
X147839285Y-101802380D01*
X147553571Y-102802380D02*
X147553571Y-101802380D01*
X148172619Y-102802380D02*
X148172619Y-101802380D01*
X148553571Y-101802380D01*
X148648809Y-101850000D01*
X148696428Y-101897619D01*
X148744047Y-101992857D01*
X148744047Y-102135714D01*
X148696428Y-102230952D01*
X148648809Y-102278571D01*
X148553571Y-102326190D01*
X148172619Y-102326190D01*
X149077381Y-101802380D02*
X149744047Y-101802380D01*
X149315476Y-102802380D01*
%TO.C,TP35*%
X119342618Y-54952380D02*
X119914047Y-54952380D01*
X119628333Y-55952380D02*
X119628333Y-54952380D01*
X120247380Y-55952380D02*
X120247380Y-54952380D01*
X120628333Y-54952380D01*
X120723571Y-55000000D01*
X120771190Y-55047619D01*
X120818809Y-55142857D01*
X120818809Y-55285714D01*
X120771190Y-55380952D01*
X120723571Y-55428571D01*
X120628333Y-55476190D01*
X120247380Y-55476190D01*
X121152142Y-54952380D02*
X121771190Y-54952380D01*
X121437856Y-55333333D01*
X121580714Y-55333333D01*
X121675952Y-55380952D01*
X121723571Y-55428571D01*
X121771190Y-55523809D01*
X121771190Y-55761904D01*
X121723571Y-55857142D01*
X121675952Y-55904761D01*
X121580714Y-55952380D01*
X121294999Y-55952380D01*
X121199761Y-55904761D01*
X121152142Y-55857142D01*
X122675952Y-54952380D02*
X122199761Y-54952380D01*
X122152142Y-55428571D01*
X122199761Y-55380952D01*
X122294999Y-55333333D01*
X122533094Y-55333333D01*
X122628333Y-55380952D01*
X122675952Y-55428571D01*
X122723571Y-55523809D01*
X122723571Y-55761904D01*
X122675952Y-55857142D01*
X122628333Y-55904761D01*
X122533094Y-55952380D01*
X122294999Y-55952380D01*
X122199761Y-55904761D01*
X122152142Y-55857142D01*
%TO.C,TP47*%
X122672618Y-124972380D02*
X123244047Y-124972380D01*
X122958333Y-125972380D02*
X122958333Y-124972380D01*
X123577380Y-125972380D02*
X123577380Y-124972380D01*
X123958333Y-124972380D01*
X124053571Y-125020000D01*
X124101190Y-125067619D01*
X124148809Y-125162857D01*
X124148809Y-125305714D01*
X124101190Y-125400952D01*
X124053571Y-125448571D01*
X123958333Y-125496190D01*
X123577380Y-125496190D01*
X125005952Y-125305714D02*
X125005952Y-125972380D01*
X124767856Y-124924761D02*
X124529761Y-125639047D01*
X125148809Y-125639047D01*
X125434523Y-124972380D02*
X126101190Y-124972380D01*
X125672618Y-125972380D01*
%TO.C,TP30*%
X94341666Y-107952380D02*
X94913095Y-107952380D01*
X94627381Y-108952380D02*
X94627381Y-107952380D01*
X95246428Y-108952380D02*
X95246428Y-107952380D01*
X95627381Y-107952380D01*
X95722619Y-108000000D01*
X95770238Y-108047619D01*
X95817857Y-108142857D01*
X95817857Y-108285714D01*
X95770238Y-108380952D01*
X95722619Y-108428571D01*
X95627381Y-108476190D01*
X95246428Y-108476190D01*
X96151190Y-107952380D02*
X96770238Y-107952380D01*
X96436904Y-108333333D01*
X96579762Y-108333333D01*
X96675000Y-108380952D01*
X96722619Y-108428571D01*
X96770238Y-108523809D01*
X96770238Y-108761904D01*
X96722619Y-108857142D01*
X96675000Y-108904761D01*
X96579762Y-108952380D01*
X96294047Y-108952380D01*
X96198809Y-108904761D01*
X96151190Y-108857142D01*
X97389285Y-107952380D02*
X97484523Y-107952380D01*
X97579762Y-108000000D01*
X97627381Y-108047619D01*
X97675000Y-108142857D01*
X97722619Y-108333333D01*
X97722619Y-108571428D01*
X97675000Y-108761904D01*
X97627381Y-108857142D01*
X97579762Y-108904761D01*
X97484523Y-108952380D01*
X97389285Y-108952380D01*
X97294047Y-108904761D01*
X97246428Y-108857142D01*
X97198809Y-108761904D01*
X97151190Y-108571428D01*
X97151190Y-108333333D01*
X97198809Y-108142857D01*
X97246428Y-108047619D01*
X97294047Y-108000000D01*
X97389285Y-107952380D01*
%TO.C,TP16*%
X96641666Y-97652380D02*
X97213095Y-97652380D01*
X96927381Y-98652380D02*
X96927381Y-97652380D01*
X97546428Y-98652380D02*
X97546428Y-97652380D01*
X97927381Y-97652380D01*
X98022619Y-97700000D01*
X98070238Y-97747619D01*
X98117857Y-97842857D01*
X98117857Y-97985714D01*
X98070238Y-98080952D01*
X98022619Y-98128571D01*
X97927381Y-98176190D01*
X97546428Y-98176190D01*
X99070238Y-98652380D02*
X98498809Y-98652380D01*
X98784523Y-98652380D02*
X98784523Y-97652380D01*
X98689285Y-97795238D01*
X98594047Y-97890476D01*
X98498809Y-97938095D01*
X99927381Y-97652380D02*
X99736904Y-97652380D01*
X99641666Y-97700000D01*
X99594047Y-97747619D01*
X99498809Y-97890476D01*
X99451190Y-98080952D01*
X99451190Y-98461904D01*
X99498809Y-98557142D01*
X99546428Y-98604761D01*
X99641666Y-98652380D01*
X99832142Y-98652380D01*
X99927381Y-98604761D01*
X99975000Y-98557142D01*
X100022619Y-98461904D01*
X100022619Y-98223809D01*
X99975000Y-98128571D01*
X99927381Y-98080952D01*
X99832142Y-98033333D01*
X99641666Y-98033333D01*
X99546428Y-98080952D01*
X99498809Y-98128571D01*
X99451190Y-98223809D01*
%TO.C,TP41*%
X133581904Y-50052380D02*
X134153333Y-50052380D01*
X133867619Y-51052380D02*
X133867619Y-50052380D01*
X134486666Y-51052380D02*
X134486666Y-50052380D01*
X134867619Y-50052380D01*
X134962857Y-50100000D01*
X135010476Y-50147619D01*
X135058095Y-50242857D01*
X135058095Y-50385714D01*
X135010476Y-50480952D01*
X134962857Y-50528571D01*
X134867619Y-50576190D01*
X134486666Y-50576190D01*
X135915238Y-50385714D02*
X135915238Y-51052380D01*
X135677142Y-50004761D02*
X135439047Y-50719047D01*
X136058095Y-50719047D01*
X136962857Y-51052380D02*
X136391428Y-51052380D01*
X136677142Y-51052380D02*
X136677142Y-50052380D01*
X136581904Y-50195238D01*
X136486666Y-50290476D01*
X136391428Y-50338095D01*
%TO.C,TP20*%
X96591666Y-111652380D02*
X97163095Y-111652380D01*
X96877381Y-112652380D02*
X96877381Y-111652380D01*
X97496428Y-112652380D02*
X97496428Y-111652380D01*
X97877381Y-111652380D01*
X97972619Y-111700000D01*
X98020238Y-111747619D01*
X98067857Y-111842857D01*
X98067857Y-111985714D01*
X98020238Y-112080952D01*
X97972619Y-112128571D01*
X97877381Y-112176190D01*
X97496428Y-112176190D01*
X98448809Y-111747619D02*
X98496428Y-111700000D01*
X98591666Y-111652380D01*
X98829762Y-111652380D01*
X98925000Y-111700000D01*
X98972619Y-111747619D01*
X99020238Y-111842857D01*
X99020238Y-111938095D01*
X98972619Y-112080952D01*
X98401190Y-112652380D01*
X99020238Y-112652380D01*
X99639285Y-111652380D02*
X99734523Y-111652380D01*
X99829762Y-111700000D01*
X99877381Y-111747619D01*
X99925000Y-111842857D01*
X99972619Y-112033333D01*
X99972619Y-112271428D01*
X99925000Y-112461904D01*
X99877381Y-112557142D01*
X99829762Y-112604761D01*
X99734523Y-112652380D01*
X99639285Y-112652380D01*
X99544047Y-112604761D01*
X99496428Y-112557142D01*
X99448809Y-112461904D01*
X99401190Y-112271428D01*
X99401190Y-112033333D01*
X99448809Y-111842857D01*
X99496428Y-111747619D01*
X99544047Y-111700000D01*
X99639285Y-111652380D01*
%TO.C,TP29*%
X93091666Y-83652380D02*
X93663095Y-83652380D01*
X93377381Y-84652380D02*
X93377381Y-83652380D01*
X93996428Y-84652380D02*
X93996428Y-83652380D01*
X94377381Y-83652380D01*
X94472619Y-83700000D01*
X94520238Y-83747619D01*
X94567857Y-83842857D01*
X94567857Y-83985714D01*
X94520238Y-84080952D01*
X94472619Y-84128571D01*
X94377381Y-84176190D01*
X93996428Y-84176190D01*
X94948809Y-83747619D02*
X94996428Y-83700000D01*
X95091666Y-83652380D01*
X95329762Y-83652380D01*
X95425000Y-83700000D01*
X95472619Y-83747619D01*
X95520238Y-83842857D01*
X95520238Y-83938095D01*
X95472619Y-84080952D01*
X94901190Y-84652380D01*
X95520238Y-84652380D01*
X95996428Y-84652380D02*
X96186904Y-84652380D01*
X96282142Y-84604761D01*
X96329762Y-84557142D01*
X96425000Y-84414285D01*
X96472619Y-84223809D01*
X96472619Y-83842857D01*
X96425000Y-83747619D01*
X96377381Y-83700000D01*
X96282142Y-83652380D01*
X96091666Y-83652380D01*
X95996428Y-83700000D01*
X95948809Y-83747619D01*
X95901190Y-83842857D01*
X95901190Y-84080952D01*
X95948809Y-84176190D01*
X95996428Y-84223809D01*
X96091666Y-84271428D01*
X96282142Y-84271428D01*
X96377381Y-84223809D01*
X96425000Y-84176190D01*
X96472619Y-84080952D01*
%TO.C,J4*%
X137722379Y-120193333D02*
X138436665Y-120193333D01*
X138579522Y-120240952D01*
X138674760Y-120336190D01*
X138722379Y-120479047D01*
X138722379Y-120574285D01*
X138055713Y-119288571D02*
X138722379Y-119288571D01*
X137674760Y-119526666D02*
X138389046Y-119764761D01*
X138389046Y-119145714D01*
%TO.C,J3*%
X173102379Y-122043333D02*
X173816665Y-122043333D01*
X173959522Y-122090952D01*
X174054760Y-122186190D01*
X174102379Y-122329047D01*
X174102379Y-122424285D01*
X173102379Y-121662380D02*
X173102379Y-121043333D01*
X173483332Y-121376666D01*
X173483332Y-121233809D01*
X173530951Y-121138571D01*
X173578570Y-121090952D01*
X173673808Y-121043333D01*
X173911903Y-121043333D01*
X174007141Y-121090952D01*
X174054760Y-121138571D01*
X174102379Y-121233809D01*
X174102379Y-121519523D01*
X174054760Y-121614761D01*
X174007141Y-121662380D01*
%TO.C,TP31*%
X93241666Y-111652380D02*
X93813095Y-111652380D01*
X93527381Y-112652380D02*
X93527381Y-111652380D01*
X94146428Y-112652380D02*
X94146428Y-111652380D01*
X94527381Y-111652380D01*
X94622619Y-111700000D01*
X94670238Y-111747619D01*
X94717857Y-111842857D01*
X94717857Y-111985714D01*
X94670238Y-112080952D01*
X94622619Y-112128571D01*
X94527381Y-112176190D01*
X94146428Y-112176190D01*
X95051190Y-111652380D02*
X95670238Y-111652380D01*
X95336904Y-112033333D01*
X95479762Y-112033333D01*
X95575000Y-112080952D01*
X95622619Y-112128571D01*
X95670238Y-112223809D01*
X95670238Y-112461904D01*
X95622619Y-112557142D01*
X95575000Y-112604761D01*
X95479762Y-112652380D01*
X95194047Y-112652380D01*
X95098809Y-112604761D01*
X95051190Y-112557142D01*
X96622619Y-112652380D02*
X96051190Y-112652380D01*
X96336904Y-112652380D02*
X96336904Y-111652380D01*
X96241666Y-111795238D01*
X96146428Y-111890476D01*
X96051190Y-111938095D01*
%TO.C,J2*%
X120032379Y-59343333D02*
X120746665Y-59343333D01*
X120889522Y-59390952D01*
X120984760Y-59486190D01*
X121032379Y-59629047D01*
X121032379Y-59724285D01*
X120127618Y-58914761D02*
X120079999Y-58867142D01*
X120032379Y-58771904D01*
X120032379Y-58533809D01*
X120079999Y-58438571D01*
X120127618Y-58390952D01*
X120222856Y-58343333D01*
X120318094Y-58343333D01*
X120460951Y-58390952D01*
X121032379Y-58962380D01*
X121032379Y-58343333D01*
%TO.C,TP44*%
X117071904Y-111162380D02*
X117643333Y-111162380D01*
X117357619Y-112162380D02*
X117357619Y-111162380D01*
X117976666Y-112162380D02*
X117976666Y-111162380D01*
X118357619Y-111162380D01*
X118452857Y-111210000D01*
X118500476Y-111257619D01*
X118548095Y-111352857D01*
X118548095Y-111495714D01*
X118500476Y-111590952D01*
X118452857Y-111638571D01*
X118357619Y-111686190D01*
X117976666Y-111686190D01*
X119405238Y-111495714D02*
X119405238Y-112162380D01*
X119167142Y-111114761D02*
X118929047Y-111829047D01*
X119548095Y-111829047D01*
X120357619Y-111495714D02*
X120357619Y-112162380D01*
X120119523Y-111114761D02*
X119881428Y-111829047D01*
X120500476Y-111829047D01*
%TO.C,TP27*%
X93241666Y-97652380D02*
X93813095Y-97652380D01*
X93527381Y-98652380D02*
X93527381Y-97652380D01*
X94146428Y-98652380D02*
X94146428Y-97652380D01*
X94527381Y-97652380D01*
X94622619Y-97700000D01*
X94670238Y-97747619D01*
X94717857Y-97842857D01*
X94717857Y-97985714D01*
X94670238Y-98080952D01*
X94622619Y-98128571D01*
X94527381Y-98176190D01*
X94146428Y-98176190D01*
X95098809Y-97747619D02*
X95146428Y-97700000D01*
X95241666Y-97652380D01*
X95479762Y-97652380D01*
X95575000Y-97700000D01*
X95622619Y-97747619D01*
X95670238Y-97842857D01*
X95670238Y-97938095D01*
X95622619Y-98080952D01*
X95051190Y-98652380D01*
X95670238Y-98652380D01*
X96003571Y-97652380D02*
X96670238Y-97652380D01*
X96241666Y-98652380D01*
%TO.C,TP36*%
X144321904Y-56902380D02*
X144893333Y-56902380D01*
X144607619Y-57902380D02*
X144607619Y-56902380D01*
X145226666Y-57902380D02*
X145226666Y-56902380D01*
X145607619Y-56902380D01*
X145702857Y-56950000D01*
X145750476Y-56997619D01*
X145798095Y-57092857D01*
X145798095Y-57235714D01*
X145750476Y-57330952D01*
X145702857Y-57378571D01*
X145607619Y-57426190D01*
X145226666Y-57426190D01*
X146131428Y-56902380D02*
X146750476Y-56902380D01*
X146417142Y-57283333D01*
X146560000Y-57283333D01*
X146655238Y-57330952D01*
X146702857Y-57378571D01*
X146750476Y-57473809D01*
X146750476Y-57711904D01*
X146702857Y-57807142D01*
X146655238Y-57854761D01*
X146560000Y-57902380D01*
X146274285Y-57902380D01*
X146179047Y-57854761D01*
X146131428Y-57807142D01*
X147607619Y-56902380D02*
X147417142Y-56902380D01*
X147321904Y-56950000D01*
X147274285Y-56997619D01*
X147179047Y-57140476D01*
X147131428Y-57330952D01*
X147131428Y-57711904D01*
X147179047Y-57807142D01*
X147226666Y-57854761D01*
X147321904Y-57902380D01*
X147512380Y-57902380D01*
X147607619Y-57854761D01*
X147655238Y-57807142D01*
X147702857Y-57711904D01*
X147702857Y-57473809D01*
X147655238Y-57378571D01*
X147607619Y-57330952D01*
X147512380Y-57283333D01*
X147321904Y-57283333D01*
X147226666Y-57330952D01*
X147179047Y-57378571D01*
X147131428Y-57473809D01*
%TO.C,TP17*%
X97191666Y-79902380D02*
X97763095Y-79902380D01*
X97477381Y-80902380D02*
X97477381Y-79902380D01*
X98096428Y-80902380D02*
X98096428Y-79902380D01*
X98477381Y-79902380D01*
X98572619Y-79950000D01*
X98620238Y-79997619D01*
X98667857Y-80092857D01*
X98667857Y-80235714D01*
X98620238Y-80330952D01*
X98572619Y-80378571D01*
X98477381Y-80426190D01*
X98096428Y-80426190D01*
X99620238Y-80902380D02*
X99048809Y-80902380D01*
X99334523Y-80902380D02*
X99334523Y-79902380D01*
X99239285Y-80045238D01*
X99144047Y-80140476D01*
X99048809Y-80188095D01*
X99953571Y-79902380D02*
X100620238Y-79902380D01*
X100191666Y-80902380D01*
%TO.C,TP12*%
X165591666Y-127802380D02*
X166163095Y-127802380D01*
X165877381Y-128802380D02*
X165877381Y-127802380D01*
X166496428Y-128802380D02*
X166496428Y-127802380D01*
X166877381Y-127802380D01*
X166972619Y-127850000D01*
X167020238Y-127897619D01*
X167067857Y-127992857D01*
X167067857Y-128135714D01*
X167020238Y-128230952D01*
X166972619Y-128278571D01*
X166877381Y-128326190D01*
X166496428Y-128326190D01*
X168020238Y-128802380D02*
X167448809Y-128802380D01*
X167734523Y-128802380D02*
X167734523Y-127802380D01*
X167639285Y-127945238D01*
X167544047Y-128040476D01*
X167448809Y-128088095D01*
X168401190Y-127897619D02*
X168448809Y-127850000D01*
X168544047Y-127802380D01*
X168782142Y-127802380D01*
X168877381Y-127850000D01*
X168925000Y-127897619D01*
X168972619Y-127992857D01*
X168972619Y-128088095D01*
X168925000Y-128230952D01*
X168353571Y-128802380D01*
X168972619Y-128802380D01*
%TO.C,TP10*%
X205241904Y-130152380D02*
X205813333Y-130152380D01*
X205527619Y-131152380D02*
X205527619Y-130152380D01*
X206146666Y-131152380D02*
X206146666Y-130152380D01*
X206527619Y-130152380D01*
X206622857Y-130200000D01*
X206670476Y-130247619D01*
X206718095Y-130342857D01*
X206718095Y-130485714D01*
X206670476Y-130580952D01*
X206622857Y-130628571D01*
X206527619Y-130676190D01*
X206146666Y-130676190D01*
X207670476Y-131152380D02*
X207099047Y-131152380D01*
X207384761Y-131152380D02*
X207384761Y-130152380D01*
X207289523Y-130295238D01*
X207194285Y-130390476D01*
X207099047Y-130438095D01*
X208289523Y-130152380D02*
X208384761Y-130152380D01*
X208480000Y-130200000D01*
X208527619Y-130247619D01*
X208575238Y-130342857D01*
X208622857Y-130533333D01*
X208622857Y-130771428D01*
X208575238Y-130961904D01*
X208527619Y-131057142D01*
X208480000Y-131104761D01*
X208384761Y-131152380D01*
X208289523Y-131152380D01*
X208194285Y-131104761D01*
X208146666Y-131057142D01*
X208099047Y-130961904D01*
X208051428Y-130771428D01*
X208051428Y-130533333D01*
X208099047Y-130342857D01*
X208146666Y-130247619D01*
X208194285Y-130200000D01*
X208289523Y-130152380D01*
%TO.C,TP43*%
X116081904Y-128172380D02*
X116653333Y-128172380D01*
X116367619Y-129172380D02*
X116367619Y-128172380D01*
X116986666Y-129172380D02*
X116986666Y-128172380D01*
X117367619Y-128172380D01*
X117462857Y-128220000D01*
X117510476Y-128267619D01*
X117558095Y-128362857D01*
X117558095Y-128505714D01*
X117510476Y-128600952D01*
X117462857Y-128648571D01*
X117367619Y-128696190D01*
X116986666Y-128696190D01*
X118415238Y-128505714D02*
X118415238Y-129172380D01*
X118177142Y-128124761D02*
X117939047Y-128839047D01*
X118558095Y-128839047D01*
X118843809Y-128172380D02*
X119462857Y-128172380D01*
X119129523Y-128553333D01*
X119272380Y-128553333D01*
X119367619Y-128600952D01*
X119415238Y-128648571D01*
X119462857Y-128743809D01*
X119462857Y-128981904D01*
X119415238Y-129077142D01*
X119367619Y-129124761D01*
X119272380Y-129172380D01*
X118986666Y-129172380D01*
X118891428Y-129124761D01*
X118843809Y-129077142D01*
%TO.C,TP40*%
X135341904Y-55102380D02*
X135913333Y-55102380D01*
X135627619Y-56102380D02*
X135627619Y-55102380D01*
X136246666Y-56102380D02*
X136246666Y-55102380D01*
X136627619Y-55102380D01*
X136722857Y-55150000D01*
X136770476Y-55197619D01*
X136818095Y-55292857D01*
X136818095Y-55435714D01*
X136770476Y-55530952D01*
X136722857Y-55578571D01*
X136627619Y-55626190D01*
X136246666Y-55626190D01*
X137675238Y-55435714D02*
X137675238Y-56102380D01*
X137437142Y-55054761D02*
X137199047Y-55769047D01*
X137818095Y-55769047D01*
X138389523Y-55102380D02*
X138484761Y-55102380D01*
X138580000Y-55150000D01*
X138627619Y-55197619D01*
X138675238Y-55292857D01*
X138722857Y-55483333D01*
X138722857Y-55721428D01*
X138675238Y-55911904D01*
X138627619Y-56007142D01*
X138580000Y-56054761D01*
X138484761Y-56102380D01*
X138389523Y-56102380D01*
X138294285Y-56054761D01*
X138246666Y-56007142D01*
X138199047Y-55911904D01*
X138151428Y-55721428D01*
X138151428Y-55483333D01*
X138199047Y-55292857D01*
X138246666Y-55197619D01*
X138294285Y-55150000D01*
X138389523Y-55102380D01*
D11*
%TO.C,J1*%
X178489999Y-61610000D02*
X177159999Y-61610000D01*
X179759999Y-59010000D02*
X177159999Y-59010000D01*
X177159999Y-61610000D02*
X177159999Y-60280000D01*
X179759999Y-61610000D02*
X179759999Y-59010000D01*
X179759999Y-61610000D02*
X192519999Y-61610000D01*
X177159999Y-56410000D02*
X192519999Y-56410000D01*
X192519999Y-61610000D02*
X192519999Y-56410000D01*
X177159999Y-59010000D02*
X177159999Y-56410000D01*
%TO.C,J4*%
X137269999Y-119860000D02*
X137269999Y-122460000D01*
X134669999Y-119860000D02*
X137269999Y-119860000D01*
X135939999Y-117260000D02*
X137269999Y-117260000D01*
X134669999Y-117260000D02*
X134669999Y-119860000D01*
X137269999Y-117260000D02*
X137269999Y-118590000D01*
X134669999Y-117260000D02*
X124449999Y-117260000D01*
X137269999Y-122460000D02*
X124449999Y-122460000D01*
X124449999Y-117260000D02*
X124449999Y-122460000D01*
%TO.C,J3*%
X171319999Y-119110000D02*
X172649999Y-119110000D01*
X170049999Y-121710000D02*
X172649999Y-121710000D01*
X157289999Y-119110000D02*
X157289999Y-124310000D01*
X172649999Y-119110000D02*
X172649999Y-120440000D01*
X172649999Y-124310000D02*
X157289999Y-124310000D01*
X170049999Y-119110000D02*
X170049999Y-121710000D01*
X172649999Y-121710000D02*
X172649999Y-124310000D01*
X170049999Y-119110000D02*
X157289999Y-119110000D01*
%TO.C,J2*%
X124179999Y-61610000D02*
X124179999Y-59010000D01*
X121579999Y-56410000D02*
X136939999Y-56410000D01*
X124179999Y-61610000D02*
X136939999Y-61610000D01*
X121579999Y-59010000D02*
X121579999Y-56410000D01*
X124179999Y-59010000D02*
X121579999Y-59010000D01*
X136939999Y-61610000D02*
X136939999Y-56410000D01*
X122909999Y-61610000D02*
X121579999Y-61610000D01*
X121579999Y-61610000D02*
X121579999Y-60280000D01*
%TD*%
M02*
