M48
; DRILL file {KiCad (6.0.10)} date Tue Feb 14 14:41:46 2023
; FORMAT={-:-/ absolute / metric / decimal}
; #@! TF.CreationDate,2023-02-14T14:41:46+00:00
; #@! TF.GenerationSoftware,Kicad,Pcbnew,(6.0.10)
; #@! TF.FileFunction,Plated,1,2,PTH
FMAT,2
METRIC
; #@! TA.AperFunction,Plated,PTH,ViaDrill
T1C0.400
; #@! TA.AperFunction,Plated,PTH,ComponentDrill
T2C0.762
; #@! TA.AperFunction,Plated,PTH,ComponentDrill
T3C0.850
; #@! TA.AperFunction,Plated,PTH,ComponentDrill
T4C1.000
; #@! TA.AperFunction,Plated,PTH,ComponentDrill
T5C3.200
%
G90
G05
T1
X138.05Y-124.7
X149.91Y-124.74
X161.442Y-114.168
X163.21Y-126.31
X163.66Y-101.76
X163.67Y-114.27
X166.58Y-98.8
T2
X104.72Y-61.56
X104.72Y-68.924
X104.72Y-76.289
X104.72Y-83.653
X104.72Y-91.017
X104.72Y-98.381
X104.72Y-105.746
X104.72Y-113.11
X106.72Y-61.56
X106.72Y-68.924
X106.72Y-76.289
X106.72Y-83.653
X106.72Y-91.017
X106.72Y-98.381
X106.72Y-105.746
X106.72Y-113.11
X108.72Y-61.56
X108.72Y-68.924
X108.72Y-76.289
X108.72Y-83.653
X108.72Y-91.017
X108.72Y-98.381
X108.72Y-105.746
X108.72Y-113.11
T3
X94.83Y-81.7
X94.98Y-67.7
X94.98Y-95.7
X94.98Y-109.7
X96.08Y-64.0
X96.08Y-78.0
X96.08Y-92.0
X96.08Y-106.0
X98.33Y-109.7
X98.38Y-95.7
X98.43Y-67.7
X98.48Y-81.6
X98.93Y-63.95
X98.93Y-77.95
X98.93Y-92.0
X98.93Y-105.95
X113.77Y-115.57
X115.908Y-120.628
X117.98Y-126.345
X118.838Y-113.884
X121.56Y-124.42
X123.04Y-53.26
X123.075Y-113.84
X125.4Y-54.29
X127.59Y-54.32
X128.48Y-129.25
X129.23Y-125.4
X129.692Y-53.139
X135.2Y-53.07
X137.3Y-53.78
X139.724Y-54.29
X141.11Y-56.02
X141.23Y-120.75
X142.18Y-125.85
X142.632Y-54.46
X144.52Y-55.36
X148.53Y-99.85
X151.63Y-93.9
X154.18Y-122.5
X154.53Y-94.6
X155.23Y-125.8
X167.33Y-125.85
X186.53Y-64.9
X188.821Y-125.67
X195.78Y-101.8
X202.93Y-61.3
X208.08Y-128.15
X211.03Y-128.15
T4
X122.91Y-57.74
X122.91Y-60.28
X125.45Y-57.74
X125.45Y-60.28
X125.78Y-118.59
X125.78Y-121.13
X127.99Y-57.74
X127.99Y-60.28
X128.32Y-118.59
X128.32Y-121.13
X130.53Y-57.74
X130.53Y-60.28
X130.86Y-118.59
X130.86Y-121.13
X133.07Y-57.74
X133.07Y-60.28
X133.4Y-118.59
X133.4Y-121.13
X135.61Y-57.74
X135.61Y-60.28
X135.94Y-118.59
X135.94Y-121.13
X158.62Y-120.44
X158.62Y-122.98
X161.16Y-120.44
X161.16Y-122.98
X163.7Y-120.44
X163.7Y-122.98
X166.24Y-120.44
X166.24Y-122.98
X168.78Y-120.44
X168.78Y-122.98
X171.32Y-120.44
X171.32Y-122.98
X178.49Y-57.74
X178.49Y-60.28
X181.03Y-57.74
X181.03Y-60.28
X183.57Y-57.74
X183.57Y-60.28
X186.11Y-57.74
X186.11Y-60.28
X188.65Y-57.74
X188.65Y-60.28
X191.19Y-57.74
X191.19Y-60.28
T5
X97.99Y-50.79
X97.99Y-120.83
X218.03Y-110.88
X218.05Y-60.84
T0
M30
