%TF.GenerationSoftware,KiCad,Pcbnew,(6.0.10)*%
%TF.CreationDate,2023-01-06T10:04:02+00:00*%
%TF.ProjectId,Bed_of_nails,4265645f-6f66-45f6-9e61-696c732e6b69,AC*%
%TF.SameCoordinates,Original*%
%TF.FileFunction,Soldermask,Top*%
%TF.FilePolarity,Negative*%
%FSLAX46Y46*%
G04 Gerber Fmt 4.6, Leading zero omitted, Abs format (unit mm)*
G04 Created by KiCad (PCBNEW (6.0.10)) date 2023-01-06 10:04:02*
%MOMM*%
%LPD*%
G01*
G04 APERTURE LIST*
%ADD10R,1.700000X1.700000*%
%ADD11O,1.700000X1.700000*%
%ADD12C,1.524000*%
%ADD13C,5.600000*%
%ADD14C,3.600000*%
G04 APERTURE END LIST*
D10*
%TO.C,J1*%
X178489999Y-60280000D03*
D11*
X178489999Y-57740000D03*
X181029999Y-60280000D03*
X181029999Y-57740000D03*
X183569999Y-60280000D03*
X183569999Y-57740000D03*
X186109999Y-60280000D03*
X186109999Y-57740000D03*
X188649999Y-60280000D03*
X188649999Y-57740000D03*
X191189999Y-60280000D03*
X191189999Y-57740000D03*
%TD*%
D12*
%TO.C,TP46*%
X113769749Y-115569999D03*
%TD*%
D13*
%TO.C,REF\u002A\u002A*%
X97989762Y-50790000D03*
D14*
X97989762Y-50790000D03*
%TD*%
D12*
%TO.C,TP5*%
X151629762Y-93900000D03*
%TD*%
%TO.C,TP21*%
X129229762Y-125400000D03*
%TD*%
%TO.C,TP3*%
X211029762Y-128150000D03*
%TD*%
%TO.C,TP42*%
X115908360Y-120627851D03*
%TD*%
%TO.C,TP28*%
X96079762Y-78000000D03*
%TD*%
%TO.C,TP2*%
X155229762Y-125800000D03*
%TD*%
%TO.C,TP15*%
X98929762Y-92000000D03*
%TD*%
%TO.C,TP24*%
X96079762Y-64000000D03*
%TD*%
%TO.C,TP9*%
X195779762Y-101800000D03*
%TD*%
D13*
%TO.C,REF\u002A\u002A*%
X218049762Y-60840000D03*
D14*
X218049762Y-60840000D03*
%TD*%
D12*
%TO.C,TP38*%
X141109776Y-56020001D03*
%TD*%
%TO.C,TP14*%
X98429762Y-67700000D03*
%TD*%
%TO.C,TP26*%
X96079762Y-92000000D03*
%TD*%
%TO.C,TP37*%
X142631871Y-54460000D03*
%TD*%
%TO.C,TP23*%
X154179762Y-122500000D03*
%TD*%
%TO.C,TP13*%
X98929762Y-63950000D03*
%TD*%
%TO.C,TP6*%
X186529762Y-64900000D03*
%TD*%
%TO.C,TP11*%
X202929762Y-61300000D03*
%TD*%
D14*
%TO.C,REF\u002A\u002A*%
X97989762Y-120830000D03*
D13*
X97989762Y-120830000D03*
%TD*%
D12*
%TO.C,TP45*%
X188820714Y-125670000D03*
%TD*%
%TO.C,TP4*%
X128479762Y-129250000D03*
%TD*%
%TO.C,TP32*%
X129692357Y-53139386D03*
%TD*%
%TO.C,TP18*%
X98479762Y-81600000D03*
%TD*%
%TO.C,TP25*%
X94979762Y-67700000D03*
%TD*%
%TO.C,TP8*%
X154529762Y-94600000D03*
%TD*%
%TO.C,TP1*%
X142179762Y-125850000D03*
%TD*%
%TO.C,TP34*%
X125399744Y-54290031D03*
%TD*%
%TO.C,TP39*%
X139724085Y-54290000D03*
%TD*%
%TO.C,TP19*%
X98929762Y-105950000D03*
%TD*%
%TO.C,TP33*%
X127589756Y-54319989D03*
%TD*%
%TO.C,TP48*%
X123074732Y-113840019D03*
%TD*%
D14*
%TO.C,REF\u002A\u002A*%
X218029762Y-110880000D03*
D13*
X218029762Y-110880000D03*
%TD*%
D12*
%TO.C,TP22*%
X141229762Y-120750000D03*
%TD*%
%TO.C,TP7*%
X148529762Y-99850000D03*
%TD*%
%TO.C,TP35*%
X123039759Y-53260001D03*
%TD*%
%TO.C,TP47*%
X121559737Y-124419975D03*
%TD*%
%TO.C,TP30*%
X96079762Y-106000000D03*
%TD*%
%TO.C,TP16*%
X98379762Y-95700000D03*
%TD*%
%TO.C,TP41*%
X135199793Y-53069999D03*
%TD*%
%TO.C,TP20*%
X98329762Y-109700000D03*
%TD*%
%TO.C,TP29*%
X94829762Y-81700000D03*
%TD*%
D10*
%TO.C,J4*%
X135939999Y-118590000D03*
D11*
X135939999Y-121130000D03*
X133399999Y-118590000D03*
X133399999Y-121130000D03*
X130859999Y-118590000D03*
X130859999Y-121130000D03*
X128319999Y-118590000D03*
X128319999Y-121130000D03*
X125779999Y-118590000D03*
X125779999Y-121130000D03*
%TD*%
D10*
%TO.C,J3*%
X171319999Y-120440000D03*
D11*
X171319999Y-122980000D03*
X168779999Y-120440000D03*
X168779999Y-122980000D03*
X166239999Y-120440000D03*
X166239999Y-122980000D03*
X163699999Y-120440000D03*
X163699999Y-122980000D03*
X161159999Y-120440000D03*
X161159999Y-122980000D03*
X158619999Y-120440000D03*
X158619999Y-122980000D03*
%TD*%
D12*
%TO.C,TP31*%
X94979762Y-109700000D03*
%TD*%
D10*
%TO.C,J2*%
X122909999Y-60280000D03*
D11*
X122909999Y-57740000D03*
X125449999Y-60280000D03*
X125449999Y-57740000D03*
X127989999Y-60280000D03*
X127989999Y-57740000D03*
X130529999Y-60280000D03*
X130529999Y-57740000D03*
X133069999Y-60280000D03*
X133069999Y-57740000D03*
X135609999Y-60280000D03*
X135609999Y-57740000D03*
%TD*%
D12*
%TO.C,TP44*%
X118838414Y-113884320D03*
%TD*%
%TO.C,TP27*%
X94979762Y-95700000D03*
%TD*%
%TO.C,TP36*%
X144519749Y-55359977D03*
%TD*%
%TO.C,TP17*%
X98929762Y-77950000D03*
%TD*%
%TO.C,TP12*%
X167329762Y-125850000D03*
%TD*%
%TO.C,TP10*%
X208079762Y-128150000D03*
%TD*%
%TO.C,TP43*%
X117979761Y-126345023D03*
%TD*%
%TO.C,TP40*%
X137299778Y-53780011D03*
%TD*%
%TO.C,J12*%
X108720000Y-91017140D03*
X106720000Y-91017140D03*
X104720000Y-91017140D03*
%TD*%
%TO.C,J7*%
X108720000Y-83652855D03*
X106720000Y-83652855D03*
X104720000Y-83652855D03*
%TD*%
%TO.C,J8*%
X108720000Y-98381425D03*
X106720000Y-98381425D03*
X104720000Y-98381425D03*
%TD*%
%TO.C,J13*%
X108720000Y-105745710D03*
X106720000Y-105745710D03*
X104720000Y-105745710D03*
%TD*%
%TO.C,J11*%
X108720000Y-76288570D03*
X106720000Y-76288570D03*
X104720000Y-76288570D03*
%TD*%
%TO.C,J10*%
X108720000Y-61560000D03*
X106720000Y-61560000D03*
X104720000Y-61560000D03*
%TD*%
%TO.C,J9*%
X108720000Y-113110000D03*
X106720000Y-113110000D03*
X104720000Y-113110000D03*
%TD*%
%TO.C,J6*%
X108720000Y-68924285D03*
X106720000Y-68924285D03*
X104720000Y-68924285D03*
%TD*%
M02*
